<?xml version="1.0" encoding="UTF-8" standalone="no"?>
<svg
   viewBox="0 0 793.70076 1122.5197"
   version="1.1"
   id="svg52"
   sodipodi:docname="0.svg"
   xml:space="preserve"
   width="595.27557pt"
   height="841.88977pt"
   inkscape:version="1.4 (1:1.4+202410161351+e7c3feb100)"
   xmlns:inkscape="http://www.inkscape.org/namespaces/inkscape"
   xmlns:sodipodi="http://sodipodi.sourceforge.net/DTD/sodipodi-0.dtd"
   xmlns="http://www.w3.org/2000/svg"
   xmlns:svg="http://www.w3.org/2000/svg"><defs
     id="defs56"><clipPath
       clipPathUnits="userSpaceOnUse"
       id="clipPath40161"><ellipse
         style="opacity:0.306192;fill:#ececec;fill-opacity:1;stroke-width:2.82993;stroke-linecap:round;stroke-linejoin:round"
         id="ellipse40163"
         cx="620.7652"
         cy="243.13797"
         rx="100"
         ry="100.00001" /></clipPath><clipPath
       clipPathUnits="userSpaceOnUse"
       id="clipPath48958"><g
         id="g48964"><g
           id="g48962"
           transform="matrix(0.0559921,0,0,0.0559921,-60.675085,493.44951)"><path
             d="M -4084.4642,-451.8516 H -84.4643 v 3999.9999 h -3999.9999 z"
             id="path48960"
             style="stroke-width:1.33333" /></g></g></clipPath></defs><sodipodi:namedview
     id="namedview54"
     pagecolor="#ffffff"
     bordercolor="#000000"
     borderopacity="0.25"
     inkscape:showpageshadow="2"
     inkscape:pageopacity="0.0"
     inkscape:pagecheckerboard="0"
     inkscape:deskcolor="#d1d1d1"
     showgrid="false"
     inkscape:zoom="0.28573998"
     inkscape:cx="344.719"
     inkscape:cy="626.44366"
     inkscape:window-width="1190"
     inkscape:window-height="788"
     inkscape:window-x="0"
     inkscape:window-y="61"
     inkscape:window-maximized="1"
     inkscape:current-layer="svg52"
     inkscape:document-units="pt" /><path
     id="rect6077"
     style="fill:#ffffff;stroke-width:5.66929;stroke-linecap:round;stroke-linejoin:round"
     d="M 0,0 H 793.70074 V 1122.5197 H 0 Z" /><!-- Header section --><path
     id="rect2"
     style="fill:#005991;stroke-width:0.257094"
     d="M 45.067407,255.53065 H 748.63325 c 3.07429,0 5.54926,2.47497 5.54926,5.54927 0,3.07429 -2.47497,5.54926 -5.54926,5.54926 H 45.067407 c -3.07429,0 -5.54926,-2.47497 -5.54926,-5.54926 0,-3.0743 2.47497,-5.54927 5.54926,-5.54927 z" /><!-- Left column --><!-- Right column --><path
     id="rect1368"
     style="fill:#005991;stroke-width:0.257094"
     transform="rotate(-90)"
     d="m -1052.6127,304.67432 h 703.56582 c 3.07429,0 5.54926,2.47497 5.54926,5.54926 0,3.07429 -2.47497,5.54926 -5.54926,5.54926 h -703.56582 c -3.0743,0 -5.5493,-2.47497 -5.5493,-5.54926 0,-3.07429 2.475,-5.54926 5.5493,-5.54926 z" /></svg>
