<?xml version="1.0" encoding="UTF-8" standalone="no"?>
<svg
   viewBox="0 0 793.70077 1122.5197"
   version="1.1"
   id="svg33566"
   sodipodi:docname="5.svg"
   width="595.27557pt"
   height="841.88977pt"
   inkscape:version="1.4 (1:1.4+202410161351+e7c3feb100)"
   xml:space="preserve"
   xmlns:inkscape="http://www.inkscape.org/namespaces/inkscape"
   xmlns:sodipodi="http://sodipodi.sourceforge.net/DTD/sodipodi-0.dtd"
   xmlns:xlink="http://www.w3.org/1999/xlink"
   xmlns="http://www.w3.org/2000/svg"
   xmlns:svg="http://www.w3.org/2000/svg"><defs
     id="defs33570"><linearGradient
       inkscape:collect="always"
       id="linearGradient12593"><stop
         style="stop-color:#69d8e1;stop-opacity:1;"
         offset="0"
         id="stop12589" /><stop
         style="stop-color:#75c3e4;stop-opacity:1;"
         offset="1"
         id="stop12591" /></linearGradient><linearGradient
       inkscape:collect="always"
       id="linearGradient9768"><stop
         style="stop-color:#6cd2e0;stop-opacity:1;"
         offset="0"
         id="stop9764" /><stop
         style="stop-color:#8ce5c8;stop-opacity:1;"
         offset="1"
         id="stop9766" /></linearGradient><linearGradient
       inkscape:collect="always"
       id="linearGradient1223"><stop
         style="stop-color:#50d1db;stop-opacity:1;"
         offset="0"
         id="stop1219" /><stop
         style="stop-color:#2a9fce;stop-opacity:1;"
         offset="1"
         id="stop1221" /></linearGradient><linearGradient
       inkscape:collect="always"
       id="linearGradient1213"><stop
         style="stop-color:#71dae2;stop-opacity:1;"
         offset="0"
         id="stop1209" /><stop
         style="stop-color:#45aed9;stop-opacity:1;"
         offset="1"
         id="stop1211" /></linearGradient><linearGradient
       inkscape:collect="always"
       id="linearGradient1012"><stop
         style="stop-color:#9ee6eb;stop-opacity:1;"
         offset="0"
         id="stop1008" /><stop
         style="stop-color:#75c3e4;stop-opacity:1;"
         offset="1"
         id="stop1010" /></linearGradient><inkscape:path-effect
       effect="spiro"
       id="path-effect426"
       is_visible="true"
       lpeversion="1" /><inkscape:path-effect
       effect="spiro"
       id="path-effect415"
       is_visible="true"
       lpeversion="1" /><linearGradient
       inkscape:collect="always"
       xlink:href="#linearGradient1012"
       id="linearGradient1018"
       x1="0"
       y1="403.26056"
       x2="109.2201"
       y2="403.26056"
       gradientUnits="userSpaceOnUse"
       gradientTransform="matrix(1.3228346,0,0,1.3195605,-2.8770805e-7,215.8617)" /><linearGradient
       inkscape:collect="always"
       xlink:href="#linearGradient1012"
       id="linearGradient1026"
       x1="411.09213"
       y1="109.65722"
       x2="600"
       y2="109.65722"
       gradientUnits="userSpaceOnUse"
       gradientTransform="scale(1.3228346,1.3195605)" /><linearGradient
       inkscape:collect="always"
       xlink:href="#linearGradient1213"
       id="linearGradient1207"
       gradientUnits="userSpaceOnUse"
       x1="411.09213"
       y1="109.65722"
       x2="600"
       y2="109.65722"
       gradientTransform="matrix(1.3228346,0,0,1.3195605,24.307086,-26.360282)" /><linearGradient
       inkscape:collect="always"
       xlink:href="#linearGradient1223"
       id="linearGradient1217"
       gradientUnits="userSpaceOnUse"
       gradientTransform="matrix(1.3228346,0,0,1.3195605,54.347311,-71.260463)"
       x1="411.09213"
       y1="109.65722"
       x2="600"
       y2="109.65722" /><linearGradient
       inkscape:collect="always"
       xlink:href="#linearGradient1012"
       id="linearGradient1233"
       gradientUnits="userSpaceOnUse"
       x1="0"
       y1="403.26056"
       x2="109.2201"
       y2="403.26056"
       gradientTransform="matrix(1.2388504,0,0,1.2690481,-25.311748,231.10106)" /><linearGradient
       inkscape:collect="always"
       xlink:href="#linearGradient12593"
       id="linearGradient1237"
       gradientUnits="userSpaceOnUse"
       gradientTransform="matrix(1.2388504,0,0,1.2972359,-58.00389,215.38652)"
       x1="0"
       y1="403.26056"
       x2="109.2201"
       y2="403.26056" /><clipPath
       clipPathUnits="userSpaceOnUse"
       id="clipPath40161"><ellipse
         style="opacity:0.306192;fill:#ececec;fill-opacity:1;stroke-width:2.82993;stroke-linecap:round;stroke-linejoin:round"
         id="ellipse40163"
         cx="620.7652"
         cy="243.13797"
         rx="100"
         ry="100.00001" /></clipPath><clipPath
       clipPathUnits="userSpaceOnUse"
       id="clipPath48958"><g
         id="g48964"><g
           id="g48962"
           transform="matrix(0.0559921,0,0,0.0559921,-60.675085,493.44951)"><path
             d="M -4084.4642,-451.8516 H -84.4643 v 3999.9999 h -3999.9999 z"
             id="path48960"
             style="stroke-width:1.33333" /></g></g></clipPath><linearGradient
       inkscape:collect="always"
       xlink:href="#linearGradient9768"
       id="linearGradient9770"
       x1="37.05172"
       y1="155.76137"
       x2="200.74841"
       y2="155.76137"
       gradientUnits="userSpaceOnUse"
       gradientTransform="matrix(1.3211986,0,0,1.3211986,-191.52748,50.80484)" /></defs><sodipodi:namedview
     id="namedview33568"
     pagecolor="#ffffff"
     bordercolor="#000000"
     borderopacity="0.25"
     inkscape:showpageshadow="2"
     inkscape:pageopacity="0.0"
     inkscape:pagecheckerboard="0"
     inkscape:deskcolor="#d1d1d1"
     showgrid="false"
     showguides="false"
     inkscape:zoom="0.33194409"
     inkscape:cx="408.20127"
     inkscape:cy="608.53621"
     inkscape:window-width="1190"
     inkscape:window-height="788"
     inkscape:window-x="50"
     inkscape:window-y="61"
     inkscape:window-maximized="1"
     inkscape:current-layer="svg33566"
     inkscape:document-units="pt" /><path
     id="path703"
     style="fill:#a2ffe0"
     d="M 3.024069e-7,0 H 793.70099 V 1122.5197 H 3.024069e-7 Z" /><path
     id="path676"
     style="fill:url(#linearGradient1026);fill-opacity:1;stroke-width:21.9672;stroke-linecap:round;stroke-linejoin:round"
     d="m 591.86,0 c -7.46551,3.1784724 -14.85374,6.5390431 -22.05156,10.301334 -11.5193,4.534883 -20.73722,14.531408 -24.30707,26.360282 -3.56986,11.828874 -1.41625,25.237891 5.67888,35.362674 7.66339,10.935716 20.07122,17.441656 32.18466,23.100041 12.11343,5.658379 24.78766,11.138159 33.92089,20.886169 8.25323,8.80874 12.85348,20.29937 18.53261,30.94265 2.83956,5.32166 6.00589,10.51348 10.01685,15.0229 4.01097,4.50941 8.91492,8.33214 14.56411,10.47401 5.11151,1.93801 10.67779,2.44748 16.14013,2.19325 5.46235,-0.25422 10.86066,-1.25072 16.23832,-2.23965 5.37766,-0.98893 10.77528,-1.97488 16.23831,-2.21386 5.46301,-0.23899 11.02922,0.29377 16.12979,2.26026 5.55603,2.14208 10.39022,5.93335 14.20756,10.49462 3.81732,4.56129 6.65396,9.87613 8.83095,15.40691 4.35395,11.06153 6.10983,22.95098 9.46911,34.35238 5.74906,19.51225 16.33419,37.64725 30.85409,51.92419 1.67568,1.64764 3.41641,3.23066 5.19316,4.77052 V 0 Z" /><path
     id="path679"
     style="fill:url(#linearGradient1018);fill-opacity:1;stroke-width:21.9672;stroke-linecap:round;stroke-linejoin:round"
     d="M 29.898129,544.57014 C 19.8391,544.11322 9.6834544,545.24705 0,547.92831 v 391.51514 c 8.9394653,-1.64285 18.179866,-0.53495 27.027683,1.54378 8.847814,2.07873 17.442784,5.11304 26.239665,7.39676 8.796881,2.28372 17.935618,3.81769 26.968258,2.80149 9.03264,-1.01622 18.010217,-4.8149 23.875614,-11.74203 3.84136,-4.5367 6.19748,-10.23238 7.11282,-16.10019 0.91533,-5.86781 0.42972,-11.90324 -0.9818,-17.67231 -2.82302,-11.53816 -9.20897,-21.84536 -15.605303,-31.86274 -6.396336,-10.0174 -12.985617,-20.15318 -16.297739,-31.56121 -1.65606,-5.70402 -2.458234,-11.69382 -1.91966,-17.60788 0.538573,-5.91407 2.454705,-11.75185 5.895914,-16.5976 3.993267,-5.62314 9.847345,-9.69423 16.021289,-12.78582 6.173929,-3.0916 12.744399,-5.30575 19.119089,-7.96117 6.3747,-2.65543 12.6532,-5.81768 17.72909,-10.49206 5.07589,-4.67437 8.87674,-11.04455 9.26242,-17.92489 0.37531,-6.69517 -2.50792,-13.27053 -6.76402,-18.46095 -4.25611,-5.19044 -9.80694,-9.16069 -15.47872,-12.76006 -5.67178,-3.59935 -11.55676,-6.90846 -16.82222,-11.07709 -5.26547,-4.16862 -9.955641,-9.31654 -12.404157,-15.56153 -1.813721,-4.62592 -2.327653,-9.6979 -1.929994,-14.64918 0.39766,-4.95129 1.684186,-9.79794 3.36393,-14.47393 3.359477,-9.35199 8.298791,-18.10027 11.303521,-27.5716 4.78602,-15.08626 4.39526,-31.71406 -0.84744,-46.64852 C 99.625524,582.74025 89.59388,569.55948 76.734744,560.29404 63.157063,550.51086 46.66318,545.33168 29.898129,544.57014 Z" /><path
     id="path682"
     style="fill:url(#linearGradient1207);fill-opacity:1;stroke-width:21.9672;stroke-linecap:round;stroke-linejoin:round"
     d="m 574.69156,0 c -2.08368,3.1988184 -3.77975,6.6452641 -4.88312,10.301334 -3.56985,11.828863 -1.41624,25.237901 5.67889,35.362675 7.66338,10.935704 20.07124,17.441659 32.18467,23.100039 12.11342,5.658378 24.78767,11.138171 33.92089,20.886168 8.25322,8.808736 12.85349,20.299384 18.53261,30.942664 2.83956,5.32165 6.0059,10.51347 10.01685,15.02289 4.01097,4.5094 8.91491,8.33214 14.56411,10.47401 5.11149,1.93801 10.67779,2.44748 16.14013,2.19325 5.46234,-0.25422 10.86067,-1.25072 16.2383,-2.23965 5.37767,-0.98893 10.7753,-1.97488 16.23832,-2.21386 5.46302,-0.23899 11.02924,0.29377 16.1298,2.26026 5.55602,2.14208 10.39023,5.93336 14.20755,10.49462 3.81731,4.56129 6.65397,9.87613 8.83096,15.4069 4.35394,11.06153 6.10983,22.95101 9.46911,34.35239 2.7967,9.49196 6.75835,18.64593 11.74016,27.20047 V 0 Z" /><path
     id="path685"
     style="fill:url(#linearGradient1217);fill-opacity:1;stroke-width:21.9672;stroke-linecap:round;stroke-linejoin:round"
     d="m 605.05733,0 c 0.1659,0.24879448 0.29853,0.51785413 0.47023,0.76287089 7.66338,10.93570511 20.07126,17.44166111 32.18468,23.10003911 12.11342,5.658378 24.78766,11.138171 33.92089,20.886168 8.2532,8.808738 12.85348,20.299389 18.5326,30.942662 2.83956,5.32165 6.00589,10.513476 10.01686,15.022887 4.01096,4.509408 8.91492,8.332142 14.56409,10.474013 5.11151,1.93801 10.67779,2.44748 16.14012,2.19325 5.46234,-0.25422 10.86068,-1.25071 16.23833,-2.23964 5.37766,-0.98893 10.77529,-1.974889 16.23831,-2.213875 5.46302,-0.238985 11.02923,0.293777 16.12981,2.260265 5.556,2.14208 10.39021,5.93336 14.20754,10.49463 V 0 Z" /><path
     id="path688"
     style="fill:url(#linearGradient1233);fill-opacity:1;stroke-width:20.8475;stroke-linecap:round;stroke-linejoin:round"
     d="m 0,547.21055 v 381.2576 c 8.286076,1.99915 16.334828,4.91696 24.573204,7.11327 8.238376,2.1963 16.798707,3.67312 25.257875,2.69582 8.459166,-0.97732 16.865995,-4.63163 22.359006,-11.29359 3.597473,-4.36302 5.803458,-9.84103 6.660679,-15.48421 0.85722,-5.6432 0.402115,-11.44628 -0.919784,-16.9945 -2.643801,-11.09646 -8.622953,-21.00979 -14.61319,-30.64369 -5.990236,-9.63396 -12.162432,-19.38117 -15.26427,-30.35248 -1.55092,-5.48566 -2.30261,-11.24755 -1.798229,-16.93521 0.504378,-5.68769 2.298553,-11.30076 5.521284,-15.96102 3.739738,-5.40787 9.223942,-9.32291 15.005905,-12.29613 5.781965,-2.97326 11.934807,-5.10329 17.904774,-7.65707 5.969971,-2.55378 11.848985,-5.59455 16.602606,-10.08999 4.75363,-4.49545 8.31474,-10.62239 8.67594,-17.23934 0.35147,-6.43888 -2.34925,-12.76306 -6.33514,-17.75478 -3.98589,-4.99174 -9.185241,-8.80881 -14.496925,-12.27037 -5.311684,-3.46158 -10.821417,-6.64539 -15.752583,-10.65442 -4.931163,-4.00906 -9.32566,-8.95769 -11.618725,-14.96362 -1.698572,-4.44883 -2.178393,-9.32816 -1.80598,-14.08991 0.372413,-4.76174 1.576386,-9.42281 3.149484,-13.91982 3.146194,-8.99399 7.771299,-17.40615 10.585261,-26.51492 4.482169,-14.50875 4.116669,-30.5023 -0.793184,-44.86505 C 67.988152,583.93435 58.595134,571.26017 46.552412,562.3494 33.836765,552.94072 18.387662,547.95839 2.687008,547.22601 1.7921248,547.18431 0.89605947,547.22501 0,547.21051 Z" /><path
     id="path691"
     style="fill:url(#linearGradient1237);fill-opacity:1;stroke-width:21.0778;stroke-linecap:round;stroke-linejoin:round"
     d="m 0,545.77758 v 391.57957 c 5.6738257,1.06682 11.425035,1.58697 17.137427,0.91236 8.459167,-0.99904 16.865996,-4.73365 22.359006,-11.54359 3.597474,-4.45994 5.806042,-10.05845 6.663262,-15.82699 0.857221,-5.76854 0.402117,-11.7019 -0.919783,-17.37336 -2.6438,-11.34294 -8.625537,-21.4762 -14.615772,-31.32409 -5.990239,-9.84794 -12.159851,-19.8127 -15.261689,-31.02771 -1.550919,-5.6075 -2.302609,-11.49492 -1.798229,-17.30893 0.504381,-5.81401 2.298556,-11.55288 5.521284,-16.31667 3.73974,-5.52799 9.221359,-9.53005 15.003323,-12.56932 5.781964,-3.03929 11.93739,-5.21665 17.907357,-7.82716 5.96997,-2.6105 11.848984,-5.71892 16.602609,-10.31423 4.753625,-4.59529 8.312153,-10.85684 8.673351,-17.62076 0.351475,-6.5819 -2.349253,-13.04651 -6.335138,-18.14912 -3.985886,-5.10263 -9.182655,-9.00509 -14.49434,-12.54355 -5.311684,-3.53847 -10.824003,-6.79346 -15.755169,-10.89154 -4.931162,-4.09809 -9.323075,-9.15932 -11.616141,-15.29865 -1.69857,-4.54764 -2.180976,-9.53167 -1.808562,-14.39918 0.372413,-4.86751 1.578969,-9.63221 3.152067,-14.22909 3.146194,-9.19376 7.771301,-17.79403 10.585261,-27.10511 4.482168,-14.83101 4.11667,-31.17811 -0.793185,-45.85988 C 35.297085,576.05878 25.901482,563.10001 13.85876,553.99133 9.5292231,550.71663 4.8649937,548.01008 0,545.77758 Z" /><path
     id="path706"
     style="fill:url(#linearGradient9770);stroke-width:21.2384;stroke-linecap:round;stroke-linejoin:round"
     transform="matrix(0.70798242,-0.70623006,0.70798242,0.70623006,0,0)"
     d="M 73.701042,256.59653 A 108.13792,108.11832 0 0 1 -34.436874,364.71484 108.13792,108.11832 0 0 1 -142.57479,256.59653 108.13792,108.11832 0 0 1 -34.436874,148.47821 108.13792,108.11832 0 0 1 73.701042,256.59653 Z" /><path
     style="color:#000000;fill:#44c2d7;stroke-linecap:round;stroke-linejoin:round;-inkscape-stroke:none"
     d="m 282.91602,290.3125 c -52.16985,0 -94.41993,42.24812 -94.41993,94.41797 v 549.66406 c 0,52.16985 42.25008,94.41797 94.41993,94.41797 h 376.00585 c 52.16986,0 94.41797,-42.24812 94.41797,-94.41797 V 384.73047 c 0,-52.16985 -42.24811,-94.41797 -94.41797,-94.41797 z m 0,15.93945 h 376.00585 c 43.61466,0 78.47852,34.86386 78.47852,78.47852 v 549.66406 c 0,43.61466 -34.86386,78.47657 -78.47852,78.47657 H 282.91602 c -43.61466,0 -78.47852,-34.86191 -78.47852,-78.47657 V 384.73047 c 0,-43.61466 34.86386,-78.47852 78.47852,-78.47852 z"
     id="path673" /></svg>
