<?xml version="1.0" encoding="UTF-8" standalone="no"?>
<!-- Created with Inkscape (http://www.inkscape.org/) -->

<svg
   width="210mm"
   height="297mm"
   viewBox="0 0 210 297"
   version="1.1"
   id="svg16309"
   inkscape:version="1.2.2 (b0a8486541, 2022-12-01)"
   sodipodi:docname="cvv.svg"
   xmlns:inkscape="http://www.inkscape.org/namespaces/inkscape"
   xmlns:sodipodi="http://sodipodi.sourceforge.net/DTD/sodipodi-0.dtd"
   xmlns="http://www.w3.org/2000/svg"
   xmlns:svg="http://www.w3.org/2000/svg">
  <sodipodi:namedview
     id="namedview16311"
     pagecolor="#ffffff"
     bordercolor="#000000"
     borderopacity="0.25"
     inkscape:showpageshadow="2"
     inkscape:pageopacity="0.0"
     inkscape:pagecheckerboard="0"
     inkscape:deskcolor="#d1d1d1"
     inkscape:document-units="mm"
     showgrid="false"
     inkscape:zoom="0.23162177"
     inkscape:cx="28.062992"
     inkscape:cy="537.51423"
     inkscape:window-width="1366"
     inkscape:window-height="699"
     inkscape:window-x="0"
     inkscape:window-y="32"
     inkscape:window-maximized="1"
     inkscape:current-layer="layer1" />
  <defs
     id="defs16306">
    <clipPath
       clipPathUnits="userSpaceOnUse"
       id="clipPath6583">
      <g
         id="g6599"
         transform="matrix(4.2596569,0,0,4.2596569,-6031.1132,-312.4321)">
        <g
           id="g6597">
          <g
             id="g6595"
             transform="translate(-259.8648,-46.465673)">
            <g
               id="g6593">
              <g
                 id="g6591"
                 transform="translate(1.2810575e-5)">
                <g
                   id="g6589"
                   transform="translate(1.2810575e-5)">
                  <g
                     id="g6587"
                     transform="translate(1.2810575e-5)">
                    <path
                       d="m 1675.7331,383.33594 h 186.3297 V 119.81245 h -186.3297 z"
                       id="path6585"
                       style="stroke-width:0.313014" />
                  </g>
                </g>
              </g>
            </g>
          </g>
        </g>
      </g>
    </clipPath>
    <clipPath
       clipPathUnits="userSpaceOnUse"
       id="clipPath6547">
      <g
         id="g6563"
         transform="matrix(4.2596569,0,0,4.2596569,-6031.1132,-312.4321)">
        <g
           id="g6561">
          <g
             id="g6559"
             transform="translate(-259.8648,-46.465673)">
            <g
               id="g6557">
              <g
                 id="g6555"
                 transform="translate(1.2810575e-5)">
                <g
                   id="g6553"
                   transform="translate(1.2810575e-5)">
                  <g
                     id="g6551"
                     transform="translate(1.2810575e-5)">
                    <path
                       d="m 1675.7331,383.33594 h 186.3297 V 119.81245 h -186.3297 z"
                       id="path6549"
                       style="stroke-width:0.313014" />
                  </g>
                </g>
              </g>
            </g>
          </g>
        </g>
      </g>
    </clipPath>
    <clipPath
       clipPathUnits="userSpaceOnUse"
       id="clipPath6529">
      <g
         id="g6545"
         transform="matrix(4.2596569,0,0,4.2596569,-6031.1132,-312.4321)">
        <g
           id="g6543">
          <g
             id="g6541"
             transform="translate(-259.8648,-46.465673)">
            <g
               id="g6539">
              <g
                 id="g6537"
                 transform="translate(1.2810575e-5)">
                <g
                   id="g6535"
                   transform="translate(1.2810575e-5)">
                  <g
                     id="g6533"
                     transform="translate(1.2810575e-5)">
                    <path
                       d="m 1675.7331,383.33594 h 186.3297 V 119.81245 h -186.3297 z"
                       id="path6531"
                       style="stroke-width:0.313014" />
                  </g>
                </g>
              </g>
            </g>
          </g>
        </g>
      </g>
    </clipPath>
    <clipPath
       clipPathUnits="userSpaceOnUse"
       id="clipPath6565">
      <g
         id="g6581"
         transform="matrix(4.2596569,0,0,4.2596569,-6031.1132,-312.4321)">
        <g
           id="g6579">
          <g
             id="g6577"
             transform="translate(-259.8648,-46.465673)">
            <g
               id="g6575">
              <g
                 id="g6573"
                 transform="translate(1.2810575e-5)">
                <g
                   id="g6571"
                   transform="translate(1.2810575e-5)">
                  <g
                     id="g6569"
                     transform="translate(1.2810575e-5)">
                    <path
                       d="m 1675.7331,383.33594 h 186.3297 V 119.81245 h -186.3297 z"
                       id="path6567"
                       style="stroke-width:0.313014" />
                  </g>
                </g>
              </g>
            </g>
          </g>
        </g>
      </g>
    </clipPath>
    <clipPath
       clipPathUnits="userSpaceOnUse"
       id="clipPath6511">
      <g
         id="g6527"
         transform="matrix(4.2596569,0,0,4.2596569,-6031.1132,-312.4321)">
        <g
           id="g6525">
          <g
             id="g6523"
             transform="translate(-259.8648,-46.465673)">
            <g
               id="g6521">
              <g
                 id="g6519"
                 transform="translate(1.2810575e-5)">
                <g
                   id="g6517"
                   transform="translate(1.2810575e-5)">
                  <g
                     id="g6515"
                     transform="translate(1.2810575e-5)">
                    <path
                       d="m 1675.7331,383.33594 h 186.3297 V 119.81245 h -186.3297 z"
                       id="path6513"
                       style="stroke-width:0.313014" />
                  </g>
                </g>
              </g>
            </g>
          </g>
        </g>
      </g>
    </clipPath>
    <clipPath
       clipPathUnits="userSpaceOnUse"
       id="clipPath6493">
      <g
         id="g6509"
         transform="matrix(4.2596569,0,0,4.2596569,-6031.1132,-312.4321)">
        <g
           id="g6507">
          <g
             id="g6505"
             transform="translate(-259.8648,-46.465673)">
            <g
               id="g6503">
              <g
                 id="g6501"
                 transform="translate(1.2810575e-5)">
                <g
                   id="g6499"
                   transform="translate(1.2810575e-5)">
                  <g
                     id="g6497"
                     transform="translate(1.2810575e-5)">
                    <path
                       d="m 1675.7331,383.33594 h 186.3297 V 119.81245 h -186.3297 z"
                       id="path6495"
                       style="stroke-width:0.313014" />
                  </g>
                </g>
              </g>
            </g>
          </g>
        </g>
      </g>
    </clipPath>
  </defs>
  <g
     inkscape:label="Layer 1"
     inkscape:groupmode="layer"
     id="layer1">
    <g
       id="g16015"
       transform="matrix(0.67970338,0,0,0.67970338,-302.82203,-146.58095)"
       style="fill:none;stroke:none">
      <rect
         style="fill:#d5e5ff;fill-opacity:1;stroke:none;stroke-width:3.85846;stroke-linecap:round;stroke-linejoin:round;stroke-dasharray:none;stroke-opacity:1"
         id="rect4161"
         width="277.65256"
         height="368.06552"
         x="461.17374"
         y="250.0992"
         ry="0" />
      <g
         id="g1969"
         transform="matrix(0.53219769,0,0,-0.53219769,316.42047,618.16471)"
         clip-path="url(#clipPath6583)"
         style="fill:#5599ff;fill-opacity:1">
        <path
           d="m 640.90148,2e-5 c -5.65163,2.40873 -11.24475,4.95547 -16.6937,7.80664 -8.72044,3.43666 -15.69869,11.01231 -18.40119,19.97656 -2.70247,8.96426 -1.07211,19.12598 4.29909,26.79883 5.80144,8.28739 15.19454,13.21778 24.36474,17.50586 9.17024,4.28808 18.765,8.44081 25.67913,15.82813 6.24794,6.67551 9.73048,15.38343 14.02972,23.44921 2.14964,4.03291 4.54667,7.96741 7.58308,11.38477 3.03641,3.41737 6.74884,6.31433 11.02546,7.9375 3.86957,1.46868 8.0834,1.85478 12.21856,1.66212 4.13514,-0.19264 8.22183,-0.94784 12.29287,-1.69728 4.07106,-0.74944 8.15721,-1.49662 12.29288,-1.67773 4.1357,-0.18111 8.34947,0.22263 12.21074,1.71289 4.2061,1.62333 7.86573,4.49647 10.75554,7.95313 2.88983,3.45666 5.03727,7.4844 6.6853,11.67579 3.29609,8.38274 4.62532,17.3929 7.16838,26.0332 4.35219,14.78692 12.36544,28.53015 23.35747,39.34962 1.26849,1.24862 2.58629,2.44827 3.93138,3.61521 V 2e-5 Z"
           style="fill:#5599ff;fill-opacity:1;fill-rule:nonzero;stroke:none"
           id="path1971" />
      </g>
      <g
         id="g1977"
         transform="matrix(0.53219769,0,0,-0.53219769,316.42047,618.16471)"
         clip-path="url(#clipPath6547)"
         style="fill:#0066ff;fill-opacity:1">
        <path
           d="m 627.90447,2e-5 c -1.57741,2.42415 -2.8614,5.03597 -3.69669,7.80664 -2.70247,8.96425 -1.07212,19.12599 4.29909,26.79883 5.80141,8.28738 15.19454,13.21778 24.36475,17.50586 9.17023,4.28808 18.76499,8.44082 25.67912,15.82813 6.24794,6.67551 9.73048,15.38344 14.02973,23.44922 2.14964,4.03289 4.54667,7.9674 7.58308,11.38476 3.0364,3.41735 6.74884,6.31433 11.02544,7.9375 3.86955,1.46869 8.08341,1.85478 12.21858,1.66211 4.13513,-0.19267 8.22182,-0.94782 12.29287,-1.69727 4.07105,-0.74943 8.15721,-1.49661 12.29287,-1.67772 4.1357,-0.18113 8.34948,0.22261 12.21074,1.71288 4.2061,1.62333 7.86574,4.49647 10.75558,7.95312 2.88975,3.45667 5.03726,7.48441 6.68526,11.67579 3.29606,8.38273 4.62531,17.39292 7.16837,26.03321 2.11718,7.19326 5.11621,14.13041 8.88767,20.61328 V 2e-5 Z"
           style="fill:#0066ff;fill-opacity:1;fill-rule:nonzero;stroke:none"
           id="path1979" />
      </g>
      <g
         id="g1981"
         transform="matrix(0.53219769,0,0,-0.53219769,316.42047,618.16471)"
         clip-path="url(#clipPath6529)"
         style="fill:#0055d4;fill-opacity:1">
        <path
           d="m 650.89226,2e-5 c 0.12566,0.18856 0.22595,0.39244 0.35578,0.57813 5.8014,8.28738 15.19453,13.21777 24.36473,17.50586 9.17025,4.28808 18.765,8.44081 25.67913,15.82812 6.24795,6.6755 9.73048,15.38344 14.02973,23.44921 2.14964,4.0329 4.54663,7.96741 7.58307,11.38477 3.03642,3.41736 6.74885,6.31433 11.02546,7.93751 3.86954,1.46867 8.0834,1.85477 12.21853,1.6621 4.13518,-0.19268 8.22186,-0.94783 12.29291,-1.69726 4.07106,-0.74944 8.15721,-1.49662 12.29287,-1.67774 4.13568,-0.18111 8.34941,0.22261 12.21067,1.7129 4.20606,1.62332 7.86571,4.49647 10.75562,7.95312 V 2e-5 Z"
           style="fill:#0055d4;fill-opacity:1;fill-rule:nonzero;stroke:none"
           id="path1983" />
      </g>
      <path
         id="rect8514"
         style="fill:#466fcd;fill-opacity:1;stroke:none;stroke-width:7.66799;stroke-linecap:round;stroke-linejoin:round"
         d="m 680.7583,250.10011 58.06792,58.06792 -9e-5,-58.06784 z" />
      <g
         id="g1973"
         transform="matrix(0.46208451,0,0,-0.46208451,398.97384,663.76272)"
         clip-path="url(#clipPath6565)"
         style="fill:#aaccff;fill-opacity:1">
        <path
           d="m 176.80192,778.69677 c -1.32682,-8e-4 -2.65308,0.1145 -3.9568,0.336 -5.21489,0.8862 -10.12519,3.3128 -14.83165,5.998 -4.70649,2.6852 -9.30071,5.6635 -14.22924,7.7813 -2.94627,1.266 -6.04806,2.2032 -9.17712,2.5566 v 99.8261 l 0.0234,0.015 H 294.0586 c -0.0367,-0.1266 -0.0669,-0.2547 -0.1056,-0.3809 -1.52786,-4.981 -4.43445,-9.3575 -8.03488,-12.7149 -3.60041,-3.3572 -7.87554,-5.7243 -12.34177,-7.2656 -8.9323,-3.0828 -18.46129,-2.8951 -27.79737,-2.5683 -9.33609,0.3265 -18.82945,0.7471 -27.86974,-1.9043 -4.52017,-1.3257 -8.88966,-3.4321 -12.67233,-6.5234 -3.78269,-3.0915 -6.96308,-7.1974 -8.86027,-12.0137 -2.20152,-5.5891 -2.60785,-11.891 -2.22387,-17.9923 0.38395,-6.1011 1.52127,-12.1058 2.28059,-18.1621 0.75931,-6.0562 1.13582,-12.2689 0.01,-18.2519 -1.12619,-5.9829 -3.90924,-11.7645 -8.40649,-15.1777 -3.28212,-2.4912 -7.25426,-3.5556 -11.23474,-3.5586 z"
           style="fill:#aaccff;fill-opacity:1;fill-rule:nonzero;stroke:none"
           id="path1975" />
      </g>
      <g
         id="g1985"
         transform="matrix(0.46208451,0,0,-0.46208451,398.97384,663.76272)"
         clip-path="url(#clipPath6511)"
         style="fill:#80b3ff;fill-opacity:1">
        <path
           d="m 159.70142,802.48977 c -1.26737,-0.019 -2.53381,0.076 -3.77686,0.2675 -4.97228,0.7707 -9.63698,2.9992 -14.10601,5.4728 -2.41155,1.3348 -4.79475,2.7399 -7.21144,4.0644 v 82.8984 l 0.0254,0.019 h 120.57001 c -0.70268,-0.296 -1.40954,-0.5781 -2.12412,-0.8301 -8.56184,-3.0188 -17.66085,-2.9629 -26.57492,-2.7715 -8.9141,0.1913 -17.97671,0.4709 -26.63752,-2.1425 -4.33037,-1.3067 -8.52832,-3.3479 -12.17162,-6.3105 -3.64332,-2.9628 -6.71928,-6.8735 -8.57861,-11.4395 -2.15756,-5.2986 -2.60704,-11.247 -2.30014,-16.9961 0.30691,-5.7492 1.33307,-11.3995 1.99893,-17.1016 0.66583,-5.7021 0.96618,-11.5544 -0.1682,-17.211 -1.13435,-5.6565 -3.85064,-11.1466 -8.17961,-14.4219 -3.15936,-2.3902 -6.96323,-3.4434 -10.76532,-3.4961 h 3e-5 z"
           style="fill:#80b3ff;fill-opacity:1;fill-rule:nonzero;stroke:none"
           id="path1987" />
      </g>
      <g
         id="g1989"
         transform="matrix(0.46208451,0,0,-0.46208451,398.97384,663.76272)"
         clip-path="url(#clipPath6493)"
         style="fill:#5599ff;fill-opacity:1">
        <path
           d="m 143.61212,825.37057 c -1.28833,-0.03 -2.5757,0.048 -3.8375,0.2287 -1.76119,0.2512 -3.4804,0.6892 -5.16751,1.246 v 68.3476 l 0.0254,0.019 h 29.31124 c -2.2388,-5.353 -2.74819,-11.3401 -2.48596,-17.1191 0.26224,-5.7791 1.25605,-11.452 1.88354,-17.1797 0.62749,-5.7279 0.88308,-11.6126 -0.31882,-17.3144 -1.2019,-5.702 -4.00943,-11.2481 -8.43778,-14.5899 -3.23189,-2.4389 -7.1077,-3.5421 -10.97265,-3.6367 h 4e-5 z"
           style="fill:#5599ff;fill-opacity:1;fill-rule:nonzero;stroke:none"
           id="path1991" />
      </g>
      <ellipse
         style="fill:#a8caff;fill-opacity:1;stroke-width:58.0758;stroke-linecap:round;stroke-linejoin:round;stroke-opacity:0"
         id="ellipse4169"
         cx="532.75824"
         cy="311.31506"
         rx="39.695545"
         ry="38.9632" />
      <path
         id="path4171"
         style="fill:#002255;fill-opacity:1;stroke-width:78.3575;stroke-linecap:round;stroke-linejoin:round;stroke-opacity:0"
         d="m 532.75813,279.58547 a 16.351417,16.067277 0 0 0 -16.35118,16.06741 16.351417,16.067277 0 0 0 16.35118,16.06742 16.351417,16.067277 0 0 0 16.35132,-16.06742 16.351417,16.067277 0 0 0 -16.35132,-16.06741 z m 0,32.99544 a 29.064151,26.301945 0 0 0 -29.01665,25.31679 39.695549,38.9632 0 0 0 29.01665,12.38061 39.695549,38.9632 0 0 0 29.01665,-12.38061 29.064151,26.301945 0 0 0 -29.01665,-25.31679 z" />
      <rect
         style="fill:none;fill-opacity:1;stroke:#0066ff;stroke-width:4.9197;stroke-linecap:round;stroke-linejoin:round;stroke-dasharray:none;stroke-opacity:1"
         id="rect4163"
         width="225.93745"
         height="140.6259"
         x="488.561"
         y="360.48602"
         ry="15.207239" />
      <rect
         style="fill:#0066ff;fill-opacity:1;stroke-width:94.6748;stroke-linecap:round;stroke-linejoin:round;stroke-opacity:0"
         id="rect4165"
         width="129.59465"
         height="13.027613"
         x="587.36365"
         y="304.80127"
         ry="3.7482853" />
      <rect
         style="fill:#0066ff;fill-opacity:1;stroke-width:97.7643;stroke-linecap:round;stroke-linejoin:round;stroke-opacity:0"
         id="rect4173"
         width="138.19109"
         height="13.027613"
         x="578.76721"
         y="335.70773"
         ry="3.7482853" />
      <rect
         style="fill:#0066ff;fill-opacity:1;stroke-width:107.169;stroke-linecap:round;stroke-linejoin:round;stroke-opacity:0"
         id="rect4175"
         width="199.9409"
         height="10.819839"
         x="509.17706"
         y="377.3096"
         ry="3.1130683" />
      <rect
         style="fill:#0066ff;fill-opacity:1;stroke-width:101.798;stroke-linecap:round;stroke-linejoin:round;stroke-opacity:0"
         id="rect4177"
         width="180.40154"
         height="10.819839"
         x="528.71649"
         y="403.01587"
         ry="3.1130683" />
      <rect
         style="fill:#0066ff;fill-opacity:1;stroke-width:111.177;stroke-linecap:round;stroke-linejoin:round;stroke-opacity:0"
         id="rect4179"
         width="215.17683"
         height="10.819839"
         x="493.94116"
         y="428.72205"
         ry="3.1130683" />
      <rect
         style="fill:#0066ff;fill-opacity:1;stroke-width:111.177;stroke-linecap:round;stroke-linejoin:round;stroke-opacity:0"
         id="rect4181"
         width="215.17683"
         height="10.819839"
         x="493.94116"
         y="454.42828"
         ry="3.1130683" />
      <rect
         style="fill:#0066ff;fill-opacity:1;stroke-width:111.177;stroke-linecap:round;stroke-linejoin:round;stroke-opacity:0"
         id="rect4183"
         width="215.17683"
         height="10.819839"
         x="493.94116"
         y="480.13449"
         ry="3.1130683" />
      <rect
         style="fill:none;fill-opacity:1;stroke:#0066ff;stroke-width:2.82866;stroke-linecap:round;stroke-linejoin:round;stroke-dasharray:none;stroke-opacity:1"
         id="rect10251"
         width="146.53137"
         height="71.680717"
         x="485.69391"
         y="520.94287"
         ry="7.7515292" />
      <rect
         style="fill:#0066ff;fill-opacity:1;stroke-width:65.7918;stroke-linecap:round;stroke-linejoin:round;stroke-opacity:0"
         id="rect10253"
         width="67.310287"
         height="12.112853"
         x="561.42523"
         y="529.51831"
         ry="3.4850919" />
      <rect
         style="fill:#0066ff;fill-opacity:1;stroke-width:63.1873;stroke-linecap:round;stroke-linejoin:round;stroke-opacity:0"
         id="rect10255"
         width="67.310852"
         height="11.172703"
         x="561.42493"
         y="552.32666"
         ry="3.2145932" />
      <rect
         style="fill:#0066ff;fill-opacity:1;stroke-width:66.7316;stroke-linecap:round;stroke-linejoin:round;stroke-opacity:0"
         id="rect10261"
         width="67.310959"
         height="12.461263"
         x="561.42493"
         y="574.9848"
         ry="3.5853355" />
      <rect
         style="fill:#0066ff;fill-opacity:1;stroke-width:62.4403;stroke-linecap:round;stroke-linejoin:round;stroke-opacity:0"
         id="rect10263"
         width="60.62706"
         height="12.112853"
         x="492.50223"
         y="529.51831"
         ry="3.4850919" />
      <rect
         style="fill:#0066ff;fill-opacity:1;stroke-width:59.9683;stroke-linecap:round;stroke-linejoin:round;stroke-opacity:0"
         id="rect10265"
         width="60.627567"
         height="11.172703"
         x="492.50208"
         y="552.32666"
         ry="3.2145932" />
      <rect
         style="fill:#0066ff;fill-opacity:1;stroke-width:63.3323;stroke-linecap:round;stroke-linejoin:round;stroke-opacity:0"
         id="rect10267"
         width="60.627674"
         height="12.461263"
         x="492.50208"
         y="574.9848"
         ry="3.5853355" />
    </g>
  </g>
</svg>
