<?xml version="1.0" encoding="UTF-8" standalone="no"?>
<!-- Created with Inkscape (http://www.inkscape.org/) -->

<svg
   width="210mm"
   height="297mm"
   viewBox="0 0 210 297"
   version="1.1"
   id="svg5982"
   inkscape:version="1.2.2 (b0a8486541, 2022-12-01)"
   sodipodi:docname="2.svg"
   inkscape:export-filename="2.png"
   inkscape:export-xdpi="500"
   inkscape:export-ydpi="500"
   xml:space="preserve"
   xmlns:inkscape="http://www.inkscape.org/namespaces/inkscape"
   xmlns:sodipodi="http://sodipodi.sourceforge.net/DTD/sodipodi-0.dtd"
   xmlns="http://www.w3.org/2000/svg"
   xmlns:svg="http://www.w3.org/2000/svg"><sodipodi:namedview
     id="namedview5984"
     pagecolor="#ffffff"
     bordercolor="#000000"
     borderopacity="0.25"
     inkscape:showpageshadow="2"
     inkscape:pageopacity="0.0"
     inkscape:pagecheckerboard="0"
     inkscape:deskcolor="#d1d1d1"
     inkscape:document-units="mm"
     showgrid="false"
     inkscape:zoom="0.46324356"
     inkscape:cx="390.72319"
     inkscape:cy="432.81768"
     inkscape:window-width="1366"
     inkscape:window-height="699"
     inkscape:window-x="0"
     inkscape:window-y="32"
     inkscape:window-maximized="1"
     inkscape:current-layer="layer1" /><defs
     id="defs5979"><clipPath
       clipPathUnits="userSpaceOnUse"
       id="clipPath3703"><g
         id="g3709"><g
           id="g3707"><path
             d="M 0,768 H 1024 V 0 H 0 Z"
             id="path3705" /></g></g></clipPath><clipPath
       clipPathUnits="userSpaceOnUse"
       id="clipPath3718"><g
         id="g3724"><g
           id="g3722"><path
             d="M 0,768 H 1024 V 0 H 0 Z"
             id="path3720" /></g></g></clipPath><clipPath
       clipPathUnits="userSpaceOnUse"
       id="clipPath3750"><g
         id="g3756"><g
           id="g3754"><path
             d="M 0,768 H 1024 V 0 H 0 Z"
             id="path3752" /></g></g></clipPath><clipPath
       clipPathUnits="userSpaceOnUse"
       id="clipPath3735"><g
         id="g3741"
         transform="scale(1,-1)"><g
           id="g3739"
           transform="matrix(1,0,0,0.69999951,0,104.60321)"><path
             d="M 0,768 H 1024 V 0 H 0 Z"
             id="path3737" /></g></g></clipPath><clipPath
       clipPathUnits="userSpaceOnUse"
       id="clipPath2871"><g
         id="g2875"
         transform="translate(-750.7344,-440.1104)"><path
           d="M 0,768 H 1024 V 0 H 0 Z"
           id="path2873" /></g></clipPath><clipPath
       clipPathUnits="userSpaceOnUse"
       id="clipPath2865"><g
         id="g2869"
         transform="translate(-887.7236,-457.8501)"><path
           d="M 0,768 H 1024 V 0 H 0 Z"
           id="path2867" /></g></clipPath><clipPath
       clipPathUnits="userSpaceOnUse"
       id="clipPath2847"><g
         id="g2851"
         transform="translate(-745.7969,-455.1206)"><path
           d="M 0,768 H 1024 V 0 H 0 Z"
           id="path2849" /></g></clipPath><clipPath
       clipPathUnits="userSpaceOnUse"
       id="clipPath2835"><g
         id="g2839"
         transform="translate(-785.8184,-493.3306)"><path
           d="M 0,768 H 1024 V 0 H 0 Z"
           id="path2837" /></g></clipPath><clipPath
       clipPathUnits="userSpaceOnUse"
       id="clipPath2829"><g
         id="g2833"
         transform="translate(-842.2432,-493.3306)"><path
           d="M 0,768 H 1024 V 0 H 0 Z"
           id="path2831" /></g></clipPath><clipPath
       clipPathUnits="userSpaceOnUse"
       id="clipPath2817"><g
         id="g2821"
         transform="translate(-833.1377,-438.7451)"><path
           d="M 0,768 H 1024 V 0 H 0 Z"
           id="path2819" /></g></clipPath><clipPath
       clipPathUnits="userSpaceOnUse"
       id="clipPath5106"><g
         id="g5104"
         transform="translate(-833.1377,-438.7451)"><path
           d="M 0,768 H 1024 V 0 H 0 Z"
           id="path5102" /></g></clipPath><clipPath
       clipPathUnits="userSpaceOnUse"
       id="clipPath2823"><g
         id="g2827"
         transform="translate(-816.7598,-348.6768)"><path
           d="M 0,768 H 1024 V 0 H 0 Z"
           id="path2825" /></g></clipPath><clipPath
       clipPathUnits="userSpaceOnUse"
       id="clipPath2943"><g
         id="g2947"
         transform="translate(-443.0757,-345.2539)"><path
           d="M 0,768 H 1024 V 0 H 0 Z"
           id="path2945" /></g></clipPath><clipPath
       clipPathUnits="userSpaceOnUse"
       id="clipPath2925"><g
         id="g2929"
         transform="translate(-510.2251,-370.4609)"><path
           d="M 0,768 H 1024 V 0 H 0 Z"
           id="path2927" /></g></clipPath><clipPath
       clipPathUnits="userSpaceOnUse"
       id="clipPath2919"><g
         id="g2923"
         transform="translate(-446.0342,-348.2129)"><path
           d="M 0,768 H 1024 V 0 H 0 Z"
           id="path2921" /></g></clipPath><clipPath
       clipPathUnits="userSpaceOnUse"
       id="clipPath2913"><g
         id="g2917"
         transform="translate(-539.2988,-330.4473)"><path
           d="M 0,768 H 1024 V 0 H 0 Z"
           id="path2915" /></g></clipPath><clipPath
       clipPathUnits="userSpaceOnUse"
       id="clipPath2907"><g
         id="g2911"
         transform="translate(-546.9922,-360.5957)"><path
           d="M 0,768 H 1024 V 0 H 0 Z"
           id="path2909" /></g></clipPath></defs><g
     inkscape:label="Layer 1"
     inkscape:groupmode="layer"
     id="layer1"><g
       id="g12109"
       transform="matrix(2.8336977,0,0,2.8336977,396.53089,-208.73569)"><g
         id="g10823"
         transform="translate(0.01378125,-0.00657196)"
         style="fill:#ee9091;fill-opacity:1"><path
           id="rect10814"
           style="fill:#ee9091;fill-opacity:1;stroke:none;stroke-width:1.86088;stroke-linecap:round;stroke-linejoin:round"
           d="m -111.46555,111.58492 v 5.59966 1.85208 h 2.10168 14.662674 v -1.85208 h -14.662674 v -5.59966 z" /><rect
           style="fill:#ee9091;fill-opacity:1;stroke:none;stroke-width:2.63622;stroke-linecap:round;stroke-linejoin:round"
           id="rect10818"
           width="16.968855"
           height="1.8520246"
           x="-93.627296"
           y="117.18468" /></g><rect
         style="fill:#fda0a0;fill-opacity:1;stroke:none;stroke-width:1.64626;stroke-linecap:round;stroke-linejoin:round"
         id="rect11015"
         width="33.595364"
         height="5.9041529"
         x="-110.22582"
         y="111.6867"
         ry="0.76528764" /><path
         id="path11306"
         style="fill:#53586c;fill-opacity:1;stroke-width:0.0508"
         d="m -101.30751,102.00411 c -0.33915,-0.002 -0.82283,0.11159 -1.12241,0.27182 -0.56867,0.30416 -1.05342,0.94175 -1.2051,1.58491 -0.0854,0.36214 -0.0386,0.90268 0.11679,1.35238 0.77409,2.24107 2.43926,4.12306 4.637961,5.24154 0.276493,0.14065 0.61736,0.29931 0.757059,0.35191 0.251474,0.0948 0.188294,0.0956 -6.35,0.12093 -6.27264,0.0243 -6.61622,0.0305 -6.84713,0.11989 -0.36729,0.14217 -0.76489,0.53502 -0.97616,0.96428 -0.32532,0.66034 -0.33587,0.79048 -0.31937,3.83749 l 0.0145,2.72386 0.13178,0.27906 c 0.2549,0.54127 0.59368,0.81291 1.17202,0.93844 0.26918,0.0584 3.06621,0.0704 17.111101,0.0734 11.317817,0.002 16.89479,-0.0137 17.112651,-0.0491 0.831864,-0.13498 1.315267,-0.64877 1.437121,-1.52807 0.02935,-0.21182 0.04231,-1.3859 0.03101,-2.85616 -0.02111,-2.74526 -0.02215,-2.75483 -0.351917,-3.43235 -0.197998,-0.40681 -0.519687,-0.7336 -0.896069,-0.91002 l -0.289388,-0.13539 -6.983036,-0.014 -6.983036,-0.0139 0.53175,-0.26716 c 2.135216,-1.07392 3.732664,-2.9535 4.525305,-5.32423 0.197138,-0.58947 0.206852,-0.64868 0.188102,-1.10846 -0.01696,-0.41563 -0.04303,-0.53546 -0.181384,-0.83044 -0.438256,-0.93435 -1.494783,-1.52293 -2.438611,-1.35857 -0.686534,0.11956 -1.831578,0.61722 -2.603458,1.13171 -1.462775,0.97499 -2.644574,2.44077 -3.256132,4.03852 -0.06684,0.17463 -0.135663,0.31729 -0.152963,0.31729 -0.0173,0 -0.06906,-0.0975 -0.114721,-0.21704 -0.126389,-0.33095 -0.702903,-1.26558 -1.084172,-1.757 -0.677794,-0.87363 -1.666586,-1.76386 -2.607593,-2.34818 -0.904962,-0.56194 -2.22514,-1.10897 -2.86908,-1.18907 -0.0416,-0.005 -0.0869,-0.008 -0.13539,-0.008 z m -0.047,1.25264 c 0.43485,0 1.745238,0.56458 2.545584,1.09657 2.04363,1.35841 3.399989,3.41068 3.698999,5.59707 v 5.2e-4 l 0.04289,0.31678 -0.181901,-0.005 c -0.278613,-0.007 -0.94402,-0.13418 -1.452108,-0.2775 -2.441368,-0.68867 -4.474364,-2.41213 -5.412584,-4.58835 -0.10705,-0.24831 -0.23157,-0.59318 -0.27647,-0.76636 -0.0732,-0.28325 -0.074,-0.34124 -0.005,-0.57775 0.12999,-0.44716 0.5862,-0.79581 1.04076,-0.79581 z m 13.228653,0.0119 c 0.217155,-10e-6 0.395765,0.058 0.558105,0.17053 0.24844,0.17218 0.49351,0.6059 0.49351,0.87334 0,0.45058 -0.613687,1.86003 -1.176672,2.70267 -0.39247,0.58742 -1.184448,1.42149 -1.768368,1.86191 -0.82378,0.62132 -2.013885,1.12743 -3.093351,1.31568 -0.686541,0.11972 -0.676471,0.12293 -0.640271,-0.19224 0.06467,-0.56297 0.232724,-1.35865 0.383956,-1.81901 0.637881,-1.94174 1.998623,-3.55141 3.729488,-4.41213 0.68246,-0.33937 1.151678,-0.50073 1.513603,-0.50075 z m -22.732983,8.92866 h 7.29568 7.295164 l -1.601452,1.86707 c -1.017975,1.18663 -1.618225,1.92697 -1.647445,2.03191 -0.148502,0.5334 0.458824,0.98566 0.920874,0.68575 0.0751,-0.0487 0.916941,-1.0032 1.871204,-2.1208 0.954263,-1.1176 1.778619,-2.07707 1.831929,-2.13217 0.09542,-0.0986 0.09715,-0.0514 0.09715,2.98483 v 3.08457 h -8.155574 -8.15609 l -0.11989,-0.11989 c -0.17567,-0.17564 -0.19106,-0.46045 -0.16846,-3.08044 0.0222,-2.58057 0.0365,-2.70044 0.36897,-3.03289 z m 30.773836,0.005 c 3.309136,0.004 2.886433,0.0714 3.061312,0.44441 l 0.134875,0.28784 v 2.72852 c 0,2.55171 -0.0061,2.73456 -0.09095,2.81946 -0.08623,0.0863 -0.495697,0.0914 -8.293034,0.10387 l -8.202084,0.0134 v -2.97605 -2.97553 l 1.395781,1.62678 c 0.767717,0.8947 1.440329,1.65018 1.494999,1.67948 0.05467,0.0293 0.182173,0.0532 0.283187,0.0532 0.450306,0 0.721806,-0.36019 0.603581,-0.8015 -0.01709,-0.0638 -0.585504,-0.76142 -1.262972,-1.54978 l -1.231967,-1.43299 7.393864,-0.0129 c 2.092694,-0.004 3.610362,-0.01 4.713408,-0.008 z" /></g><g
       id="g12329"
       transform="matrix(2.8336977,0,0,2.8336977,399.53888,-219.55882)"><path
         style="fill:#53586c;fill-opacity:1;stroke-width:0.0508"
         d="m -109.31047,141.86986 c -0.7206,-0.17446 -1.61565,-0.83104 -2.14597,-1.57422 -0.28855,-0.40437 -0.65081,-1.16872 -0.79633,-1.68025 l -0.11351,-0.39899 -0.0138,-7.43244 c -0.0151,-8.17173 -0.0341,-7.65706 0.28898,-7.8479 0.1375,-0.0812 1.20148,-0.0866 16.928279,-0.0865 16.52714,2.1e-4 16.784015,0.002 16.943421,0.0989 0.08902,0.0543 0.186613,0.14495 0.216875,0.20149 0.03896,0.0728 0.0509,2.30073 0.04092,7.63542 l -0.0141,7.53262 -0.115666,0.381 c -0.390048,1.28474 -1.323254,2.4712 -2.314001,2.94198 -0.702839,0.33397 0.475411,0.30965 -14.772622,0.30498 -11.743686,-0.004 -13.880546,-0.0151 -14.132516,-0.0761 z"
         id="path11300" /><path
         id="path11304"
         style="fill:#fd7e7e;fill-opacity:1;stroke-width:0.0508"
         d="m -111.13672,124.06678 v 6.92619 c 0,6.72298 0.003,6.93736 0.10025,7.31687 0.28479,1.1135 1.18019,2.13554 2.05879,2.34921 0.19207,0.0467 1.82393,0.0628 6.69313,0.0661 l 6.439401,0.004 -0.01292,-8.31784 -0.01292,-8.31835 -7.632611,-0.0129 z m 16.613454,0 -0.01344,1.28261 c -0.0075,0.70557 -0.0077,4.45513 -5.17e-4,8.3323 l 0.01292,7.0497 6.565491,-0.0139 6.56549,-0.0134 0.27957,-0.11368 c 0.76433,-0.31101 1.466736,-1.17552 1.785937,-2.1978 l 0.119373,-0.38086 v -6.95978 -6.95926 l -7.657414,-0.0129 z" /><path
         id="rect12123"
         style="fill:#fd6465;fill-opacity:1;stroke:none;stroke-width:1.86893;stroke-linecap:round;stroke-linejoin:round"
         d="m -111.13689,124.06685 v 6.92619 c 0,6.72296 0.003,6.93735 0.10026,7.31686 0.28479,1.1135 1.18019,2.13554 2.05879,2.34921 0.0636,0.0155 0.30653,0.0273 0.75085,0.0367 v -14.15107 h 12.359457 l -0.0036,-2.45153 -7.632607,-0.0129 z m 16.597441,0 v 2.47788 h 15.330847 v -2.47788 z" /></g><g
       id="g12623"
       transform="matrix(2.8336977,0,0,2.8336977,408.24624,-293.56707)"><path
         style="fill:#53586c;fill-opacity:1;stroke-width:0.0508"
         d="m -104.10113,180.87655 c -1.03925,-0.0925 -2.09607,-0.3639 -3.90272,-1.00237 -1.56897,-0.55447 -19.20406,-6.42713 -19.22806,-6.40313 -0.0106,0.0106 -0.1801,0.59602 -0.37663,1.3009 -0.37654,1.35051 -0.43034,1.49498 -0.62159,1.66893 -0.31534,0.28684 -0.0611,0.27265 -4.88381,0.27265 h -4.43953 l -0.22389,-0.11824 c -0.14705,-0.0777 -0.2762,-0.20271 -0.37629,-0.36432 l -0.1524,-0.24607 v -12.75479 c 0,-7.01513 0.0177,-12.81823 0.0394,-12.89577 0.0605,-0.21644 0.37344,-0.52917 0.62616,-0.62568 0.20145,-0.0769 0.36426,-0.0829 1.43187,-0.0522 3.18538,0.0915 6.47671,0.36775 8.59598,0.72142 2.73828,0.45697 4.41325,1.12999 4.805,1.93071 l 0.13657,0.27912 -0.0621,0.62021 c -0.0341,0.34111 -0.11511,0.98597 -0.17996,1.43301 -0.0648,0.44704 -0.11152,0.81943 -0.10374,0.82754 0.008,0.008 5.21197,1.16926 11.56487,2.58034 9.14694,2.03167 11.704007,2.61665 12.287316,2.81096 2.926848,0.97496 4.445916,2.59837 4.896499,5.23281 0.04504,0.26337 0.0819,0.53197 0.0819,0.5969 0,0.0649 0.02257,0.11805 0.05016,0.11805 0.02759,0 2.147855,-0.52349 4.7117,-1.1633 3.217516,-0.80294 4.829918,-1.18282 5.205101,-1.22629 1.494765,-0.17323 3.113934,0.0947 4.509334,0.74604 1.540408,0.71908 3.056042,2.18422 3.822192,3.69487 0.267543,0.52752 0.209896,0.97628 -0.171257,1.33309 -0.279466,0.26162 -14.408801,6.65248 -17.038642,7.70677 -5.380546,2.15704 -7.507373,2.81906 -9.572183,2.97955 -0.70432,0.0547 -0.798,0.0546 -1.43128,-0.002 z"
         id="path10703" /><g
         id="g12548"><path
           style="fill:#4f78fc;fill-opacity:1;stroke-width:0.0508"
           d="m -129.40816,173.53853 c 0.23211,-0.82961 0.31278,-1.20072 0.31304,-1.44015 3e-4,-0.26716 0.0256,-0.36322 0.1476,-0.55942 0.1115,-0.17936 0.27261,-0.7178 0.66353,-2.21745 1.89292,-7.26182 3.0017,-12.35653 3.44092,-15.81066 l 0.0339,-0.26647 -0.24603,-0.10609 c -0.13532,-0.0583 -0.50893,-0.18182 -0.83024,-0.27438 -1.9375,-0.55818 -5.04174,-0.92166 -9.5885,-1.12273 l -0.7747,-0.0343 v 11.48767 11.48768 l 3.2639,-0.0131 3.2639,-0.0131 z"
           id="path11298" /><path
           style="fill:#eefdb1;fill-opacity:1;stroke-width:0.0508"
           d="m -101.93325,178.72294 c 1.7145,-0.30603 3.675727,-0.96782 7.950196,-2.68271 1.665792,-0.6683 3.70245,-1.56737 8.9154,-3.93563 3.71602,-1.6882 6.773601,-3.08609 6.794627,-3.10643 0.04984,-0.0482 -0.426121,-0.62326 -0.778368,-0.94043 -1.331311,-1.19876 -3.148858,-1.79901 -4.866945,-1.60732 -0.376712,0.042 -2.586268,0.57322 -7.744925,1.86192 -4.284846,1.07041 -7.445754,1.83514 -7.778714,1.88194 -0.414322,0.0582 -0.799801,0.0719 -1.475271,0.0522 l -0.9144,-0.0266 -6.09357,-1.22303 c -5.74882,-1.15383 -6.10377,-1.23124 -6.2738,-1.36813 -0.37931,-0.30537 -0.50983,-0.78599 -0.33021,-1.21588 0.15133,-0.36218 0.5166,-0.61792 0.88589,-0.62025 0.0974,-6.1e-4 2.86347,0.53546 6.1468,1.19128 4.38516,0.8759 6.11127,1.20124 6.50309,1.22571 0.81308,0.0508 1.442113,-0.0444 3.190337,-0.4827 l 1.559459,-0.39099 -0.01039,-0.42931 c -0.0062,-0.25626 -0.06059,-0.62601 -0.134923,-0.9173 -0.418388,-1.63955 -1.498186,-2.60552 -3.639283,-3.25562 -0.5179,-0.15725 -23.31713,-5.23959 -23.35131,-5.20541 -0.0112,0.0112 -0.11189,0.4749 -0.22366,1.03034 -0.58749,2.91952 -1.76613,7.87718 -2.76341,11.62365 -0.18461,0.69351 -0.32903,1.26623 -0.32094,1.27269 0.008,0.006 4.39241,1.47454 9.74292,3.2624 5.35051,1.78786 10.10496,3.38081 10.56545,3.53989 0.72638,0.25093 1.63943,0.47835 2.23615,0.55698 0.35394,0.0466 1.76318,-0.0116 2.2098,-0.0913 z"
           id="path11296" /></g></g></g></svg>
