<?xml version="1.0" encoding="UTF-8" standalone="no"?>
<!-- Created with Inkscape (http://www.inkscape.org/) -->

<svg
   version="1.1"
   id="svg1"
   width="190.31537"
   height="78.431732"
   viewBox="0 0 190.31536 78.431732"
   sodipodi:docname="s1.svg"
   inkscape:export-filename="/home/ziad-elaraby/StudioProjects/flutter_cv_maker/assets/png/i.png"
   inkscape:export-xdpi="96"
   inkscape:export-ydpi="96"
   inkscape:version="1.4 (1:1.4+202410161351+e7c3feb100)"
   xmlns:inkscape="http://www.inkscape.org/namespaces/inkscape"
   xmlns:sodipodi="http://sodipodi.sourceforge.net/DTD/sodipodi-0.dtd"
   xmlns="http://www.w3.org/2000/svg"
   xmlns:svg="http://www.w3.org/2000/svg">
  <defs
     id="defs1">
    <clipPath
       clipPathUnits="userSpaceOnUse"
       id="clipPath1746">
      <path
         d="M 0,595 H 842 V 0 H 0 Z"
         transform="translate(-172.9551,-453.90481)"
         id="path1746" />
    </clipPath>
    <clipPath
       clipPathUnits="userSpaceOnUse"
       id="clipPath1748">
      <path
         d="M 0,595 H 842 V 0 H 0 Z"
         transform="translate(-211.82811,-453.52151)"
         id="path1748" />
    </clipPath>
    <clipPath
       clipPathUnits="userSpaceOnUse"
       id="clipPath1750">
      <path
         d="M 0,595 H 842 V 0 H 0 Z"
         transform="translate(-194.37261,-454.00101)"
         id="path1750" />
    </clipPath>
    <clipPath
       clipPathUnits="userSpaceOnUse"
       id="clipPath1752">
      <path
         d="M 0,595 H 842 V 0 H 0 Z"
         transform="translate(-241.01901,-452.16361)"
         id="path1752" />
    </clipPath>
    <clipPath
       clipPathUnits="userSpaceOnUse"
       id="clipPath1754">
      <path
         d="M 0,595 H 842 V 0 H 0 Z"
         transform="translate(-181.68021,-452.15821)"
         id="path1754" />
    </clipPath>
    <clipPath
       clipPathUnits="userSpaceOnUse"
       id="clipPath1756">
      <path
         d="M 0,595 H 842 V 0 H 0 Z"
         transform="translate(-222.26221,-451.57131)"
         id="path1756" />
    </clipPath>
    <clipPath
       clipPathUnits="userSpaceOnUse"
       id="clipPath1758">
      <path
         d="M 0,595 H 842 V 0 H 0 Z"
         transform="translate(-172.4355,-448.88531)"
         id="path1758" />
    </clipPath>
    <clipPath
       clipPathUnits="userSpaceOnUse"
       id="clipPath1760">
      <path
         d="M 0,595 H 842 V 0 H 0 Z"
         transform="translate(-182.2065,-427.31301)"
         id="path1760" />
    </clipPath>
    <clipPath
       clipPathUnits="userSpaceOnUse"
       id="clipPath1762">
      <path
         d="M 0,595 H 842 V 0 H 0 Z"
         transform="translate(-157.94481,-449.08501)"
         id="path1762" />
    </clipPath>
    <clipPath
       clipPathUnits="userSpaceOnUse"
       id="clipPath1764">
      <path
         d="M 0,595 H 842 V 0 H 0 Z"
         transform="translate(-220.50831,-434.06251)"
         id="path1764" />
    </clipPath>
    <clipPath
       clipPathUnits="userSpaceOnUse"
       id="clipPath1766">
      <path
         d="M 0,595 H 842 V 0 H 0 Z"
         transform="translate(-193.855,-446.71481)"
         id="path1766" />
    </clipPath>
    <clipPath
       clipPathUnits="userSpaceOnUse"
       id="clipPath1768">
      <path
         d="M 0,595 H 842 V 0 H 0 Z"
         transform="translate(-231.40771,-446.02391)"
         id="path1768" />
    </clipPath>
    <clipPath
       clipPathUnits="userSpaceOnUse"
       id="clipPath1770">
      <path
         d="M 0,595 H 842 V 0 H 0 Z"
         transform="translate(-238.73341,-444.85791)"
         id="path1770" />
    </clipPath>
    <clipPath
       clipPathUnits="userSpaceOnUse"
       id="clipPath1772">
      <path
         d="M 0,595 H 842 V 0 H 0 Z"
         transform="translate(-194.7178,-443.16021)"
         id="path1772" />
    </clipPath>
    <clipPath
       clipPathUnits="userSpaceOnUse"
       id="clipPath1774">
      <path
         d="M 0,595 H 842 V 0 H 0 Z"
         transform="translate(-158.72901,-443.89261)"
         id="path1774" />
    </clipPath>
    <clipPath
       clipPathUnits="userSpaceOnUse"
       id="clipPath1776">
      <path
         d="M 0,595 H 842 V 0 H 0 Z"
         transform="translate(-250.80711,-443.86231)"
         id="path1776" />
    </clipPath>
    <clipPath
       clipPathUnits="userSpaceOnUse"
       id="clipPath1778">
      <path
         d="M 0,595 H 842 V 0 H 0 Z"
         transform="translate(-149.84811,-442.85601)"
         id="path1778" />
    </clipPath>
    <clipPath
       clipPathUnits="userSpaceOnUse"
       id="clipPath1780">
      <path
         d="M 0,595 H 842 V 0 H 0 Z"
         transform="translate(-258.7354,-438.04201)"
         id="path1780" />
    </clipPath>
    <clipPath
       clipPathUnits="userSpaceOnUse"
       id="clipPath1782">
      <path
         d="M 0,595 H 842 V 0 H 0 Z"
         transform="translate(-187.02981,-436.35891)"
         id="path1782" />
    </clipPath>
    <clipPath
       clipPathUnits="userSpaceOnUse"
       id="clipPath1784">
      <path
         d="M 0,595 H 842 V 0 H 0 Z"
         transform="translate(-227.95171,-437.96141)"
         id="path1784" />
    </clipPath>
    <clipPath
       clipPathUnits="userSpaceOnUse"
       id="clipPath1786">
      <path
         d="M 0,595 H 842 V 0 H 0 Z"
         transform="translate(-135.63621,-436.04001)"
         id="path1786" />
    </clipPath>
    <clipPath
       clipPathUnits="userSpaceOnUse"
       id="clipPath1788">
      <path
         d="M 0,595 H 842 V 0 H 0 Z"
         transform="translate(-267.59911,-435.10891)"
         id="path1788" />
    </clipPath>
    <clipPath
       clipPathUnits="userSpaceOnUse"
       id="clipPath1790">
      <path
         d="M 0,595 H 842 V 0 H 0 Z"
         transform="translate(-260.20171,-430.64261)"
         id="path1790" />
    </clipPath>
    <clipPath
       clipPathUnits="userSpaceOnUse"
       id="clipPath1792">
      <path
         d="M 0,595 H 842 V 0 H 0 Z"
         transform="translate(-152.9766,-423.20071)"
         id="path1792" />
    </clipPath>
    <clipPath
       clipPathUnits="userSpaceOnUse"
       id="clipPath1794">
      <path
         d="M 0,595 H 842 V 0 H 0 Z"
         transform="translate(-168.98391,-417.64551)"
         id="path1794" />
    </clipPath>
    <clipPath
       clipPathUnits="userSpaceOnUse"
       id="clipPath1796">
      <path
         d="M 0,595 H 842 V 0 H 0 Z"
         transform="translate(-139.3926,-416.50201)"
         id="path1796" />
    </clipPath>
    <clipPath
       clipPathUnits="userSpaceOnUse"
       id="clipPath1798">
      <path
         d="M 0,595 H 842 V 0 H 0 Z"
         transform="translate(-135.3423,-415.92871)"
         id="path1798" />
    </clipPath>
    <clipPath
       clipPathUnits="userSpaceOnUse"
       id="clipPath1800">
      <path
         d="M 0,595 H 842 V 0 H 0 Z"
         transform="translate(-193.249,-414.97851)"
         id="path1800" />
    </clipPath>
    <clipPath
       clipPathUnits="userSpaceOnUse"
       id="clipPath1802">
      <path
         d="M 0,595 H 842 V 0 H 0 Z"
         transform="translate(-266.01321,-413.47511)"
         id="path1802" />
    </clipPath>
    <clipPath
       clipPathUnits="userSpaceOnUse"
       id="clipPath1804">
      <path
         d="M 0,595 H 842 V 0 H 0 Z"
         transform="translate(-257.82321,-409.97851)"
         id="path1804" />
    </clipPath>
    <clipPath
       clipPathUnits="userSpaceOnUse"
       id="clipPath1806">
      <path
         d="M 0,595 H 842 V 0 H 0 Z"
         transform="translate(-214.89991,-406.05571)"
         id="path1806" />
    </clipPath>
    <clipPath
       clipPathUnits="userSpaceOnUse"
       id="clipPath1808">
      <path
         d="M 0,595 H 842 V 0 H 0 Z"
         transform="translate(-204.64791,-408.69681)"
         id="path1808" />
    </clipPath>
    <clipPath
       clipPathUnits="userSpaceOnUse"
       id="clipPath1810">
      <path
         d="M 0,595 H 842 V 0 H 0 Z"
         transform="translate(-146.5005,-401.68161)"
         id="path1810" />
    </clipPath>
    <clipPath
       clipPathUnits="userSpaceOnUse"
       id="clipPath1812">
      <path
         d="M 0,595 H 842 V 0 H 0 Z"
         transform="translate(-151.5537,-407.49661)"
         id="path1812" />
    </clipPath>
    <clipPath
       clipPathUnits="userSpaceOnUse"
       id="clipPath1814">
      <path
         d="M 0,595 H 842 V 0 H 0 Z"
         transform="translate(-264.14841,-404.47751)"
         id="path1814" />
    </clipPath>
    <clipPath
       clipPathUnits="userSpaceOnUse"
       id="clipPath1816">
      <path
         d="M 0,595 H 842 V 0 H 0 Z"
         transform="translate(-170.5332,-400.61331)"
         id="path1816" />
    </clipPath>
    <clipPath
       clipPathUnits="userSpaceOnUse"
       id="clipPath1818">
      <path
         d="M 0,595 H 842 V 0 H 0 Z"
         transform="translate(-240.81691,-401.34861)"
         id="path1818" />
    </clipPath>
    <clipPath
       clipPathUnits="userSpaceOnUse"
       id="clipPath1820">
      <path
         d="M 0,595 H 842 V 0 H 0 Z"
         transform="translate(-194.34231,-402.70461)"
         id="path1820" />
    </clipPath>
    <clipPath
       clipPathUnits="userSpaceOnUse"
       id="clipPath1822">
      <path
         d="M 0,595 H 842 V 0 H 0 Z"
         transform="translate(-219.04,-402.10791)"
         id="path1822" />
    </clipPath>
    <clipPath
       clipPathUnits="userSpaceOnUse"
       id="clipPath1824">
      <path
         d="M 0,595 H 842 V 0 H 0 Z"
         transform="translate(-188.9863,-401.92771)"
         id="path1824" />
    </clipPath>
    <clipPath
       clipPathUnits="userSpaceOnUse"
       id="clipPath1826">
      <path
         d="M 0,595 H 842 V 0 H 0 Z"
         transform="translate(-221.96041,-400.25881)"
         id="path1826" />
    </clipPath>
  </defs>
  <sodipodi:namedview
     id="namedview1"
     pagecolor="#ffffff"
     bordercolor="#000000"
     borderopacity="0.25"
     inkscape:showpageshadow="2"
     inkscape:pageopacity="0.0"
     inkscape:pagecheckerboard="0"
     inkscape:deskcolor="#d1d1d1"
     inkscape:zoom="1.3648399"
     inkscape:cx="104.40785"
     inkscape:cy="156.06226"
     inkscape:window-width="1190"
     inkscape:window-height="788"
     inkscape:window-x="50"
     inkscape:window-y="61"
     inkscape:window-maximized="1"
     inkscape:current-layer="svg1">
    <inkscape:page
       x="0"
       y="0"
       width="190.31535"
       height="78.431732"
       id="page2"
       margin="0"
       bleed="0" />
  </sodipodi:namedview>
  <path
     id="path1745"
     clip-path="url(#clipPath1746)"
     style="fill:#231f20;fill-opacity:1;fill-rule:nonzero;stroke:none"
     d="M -2.1726821 3.1870051 C -2.8026821 2.1860051 -1.800643 1.1096066 -2.257643 0.078606564 C -2.676643 -0.31639344 -3.1799907 0.37548157 -3.6389907 0.12548157 C -4.2499907 -0.11651843 -4.547397 -0.76679972 -4.705397 -1.3627997 C -4.478397 -1.1947997 -4.2904009 -0.97794815 -4.0594009 -0.81494815 C -3.6304009 -0.53894815 -3.2285923 -1.0695028 -2.7805923 -0.95850284 C -2.2555923 -0.81150284 -1.9859516 -0.28141687 -1.8489516 0.20458313 C -1.6269516 -0.17641687 -1.3556547 -0.52242862 -1.0696547 -0.85742862 C -1.1056547 -1.0184286 -1.1368696 -1.1802919 -1.1648696 -1.3422919 C -1.0078696 -1.2442919 -0.85630314 -1.1354911 -0.70930314 -1.0214911 C 0.33069686 -1.0414911 1.3543844 -0.71837391 2.2203844 -0.15137391 C 2.7753844 0.23462609 2.9506384 0.95771988 2.9806384 1.5947199 C 2.8606384 2.2637199 2.0296227 2.6153097 1.4396227 2.2993097 C 0.52762269 1.8403097 -0.010775795 0.91932531 -0.54377579 0.090325315 C -1.8567758 0.57032531 -1.2896821 2.3510051 -2.1726821 3.1870051 z M 35.576342 1.5507746 C 35.434342 1.1607746 35.1646 0.74777063 35.3156 0.32177063 C 35.4506 -0.23722937 35.750549 -0.87025285 35.463549 -1.4272528 C 34.926549 -1.7442528 34.326698 -1.1176474 33.790698 -1.4316474 C 33.256698 -1.7156474 32.941956 -2.2709677 32.779956 -2.8349677 C 33.078956 -2.6489677 33.348159 -2.4025107 33.688159 -2.2915107 C 34.115159 -2.2555107 34.508206 -2.5657997 34.936206 -2.4877997 C 35.399206 -2.3517997 35.578674 -1.854663 35.791674 -1.472663 C 36.030674 -1.783663 36.294225 -2.0767099 36.581225 -2.3457099 C 36.556225 -2.5427099 36.531448 -2.7380419 36.509448 -2.9360419 C 36.685448 -2.8000419 36.857397 -2.6648154 37.032397 -2.5288154 C 37.929397 -2.6238154 38.840241 -2.429499 39.622241 -1.979499 C 40.302241 -1.563499 40.63037 -0.69025281 40.42937 0.072747189 C 40.24837 0.52474719 39.741397 0.72251674 39.282397 0.68651674 C 38.281397 0.30651674 37.675639 -0.62559269 37.105639 -1.4755927 C 35.784639 -1.0425927 36.275342 0.63077457 35.576342 1.5507746 z M 1.7150133 1.3881769 C 1.9910712 1.3897927 2.2681735 1.2782082 2.5221423 1.0014582 C 1.8951423 0.33445815 0.88368125 0.106505 -0.00031875001 -0.00049500001 C 0.308025 0.63703625 1.0095321 1.3840476 1.7150133 1.3881769 z M 21.752611 0.28807923 C 21.631582 0.2811676 21.516225 0.22649719 21.417162 0.09618469 C 20.758162 -0.72281531 20.867307 -1.8499677 20.765307 -2.8349677 C 20.273307 -1.8729677 19.856963 -0.64230751 18.737963 -0.25830751 C 18.131963 -0.11230751 18.128967 -0.92971378 18.091967 -1.3247138 C 18.466967 -1.6067138 18.861588 -1.8606591 19.253588 -2.1186591 C 19.317588 -2.0666591 19.45033 -1.9621865 19.51433 -1.9091865 C 20.06933 -2.6661865 20.340111 -3.573124 20.815111 -4.370124 C 21.513111 -3.211124 20.618061 -1.5571786 21.713061 -0.57617861 C 21.982061 -0.70517861 22.249795 -0.84287002 22.515795 -0.98487002 C 22.522795 -0.68387002 22.52319 -0.38252625 22.52019 -0.082526252 C 22.312565 0.084536248 22.018875 0.30328479 21.752611 0.28807923 z M 64.530445 0.061028439 C 63.929445 -0.98797156 65.145406 -1.8305185 64.990406 -2.8745185 C 64.684406 -3.5035185 64.031323 -2.7552529 63.556323 -2.9272529 C 62.911323 -3.1782529 62.574519 -3.8603818 62.381519 -4.4843818 C 62.639519 -4.2623818 62.852788 -3.9638506 63.182788 -3.8398506 C 63.641788 -3.7258506 64.058866 -4.1857724 64.512866 -4.0097724 C 64.942866 -3.8067724 65.0143 -3.2802373 65.1823 -2.8862373 C 65.3863 -3.2372373 65.637398 -3.5582881 65.907398 -3.8632881 C 65.907398 -4.0502881 65.913906 -4.2392529 65.927906 -4.4272529 C 66.058906 -4.2922529 66.192413 -4.1555615 66.323413 -4.0185615 C 67.712413 -4.1135615 69.699531 -3.5731161 69.818531 -1.9121161 C 70.084531 -1.0501161 68.959613 -0.41497549 68.252613 -0.79297549 C 67.407613 -1.2569755 66.930304 -2.1376748 66.411304 -2.9096748 C 65.989304 -2.9176748 65.657441 -2.4685732 65.551441 -2.0805732 C 65.365441 -1.3085732 65.102445 -0.51397156 64.530445 0.061028439 z M 39.198901 -0.32715516 C 39.548729 -0.33409266 39.928979 -0.52514346 39.966479 -0.85889346 C 39.292479 -1.3148935 38.457702 -1.5562997 37.644702 -1.5502997 C 37.904702 -1.0392997 38.363706 -0.63381923 38.873706 -0.38281923 C 38.969456 -0.34306923 39.082292 -0.32484266 39.198901 -0.32715516 z M 68.432788 -1.6572333 C 68.800945 -1.6513271 69.156738 -1.8606943 69.424488 -2.1171943 C 68.769488 -2.7751943 67.774011 -3.0591435 66.861011 -3.0151435 C 67.175011 -2.5231435 67.560648 -2.0487294 68.063648 -1.7407294 C 68.186398 -1.6847294 68.31007 -1.6592021 68.432788 -1.6572333 z M 8.7257557 -1.7465888 C 8.7267557 -2.1415888 8.4666073 -2.7130146 8.8986073 -2.9580146 C 9.6416073 -3.4560146 10.332779 -4.04621 10.849779 -4.78321 C 11.164779 -5.22721 11.427654 -5.710503 11.646654 -6.208503 C 12.126654 -7.251503 11.956572 -8.4131202 12.087572 -9.5161202 C 12.643572 -8.3821202 12.412435 -7.0524053 12.197435 -5.8584053 C 12.083435 -5.5914053 11.98617 -5.3187412 11.87517 -5.0527412 C 11.22517 -3.6447412 10.114756 -2.4465888 8.7257557 -1.7465888 z M 49.307788 -2.3339912 C 49.245788 -2.6639912 49.201557 -2.9960849 49.171557 -3.3300849 C 51.195557 -4.5820849 52.427651 -7.0136085 52.042651 -9.3916085 C 52.378651 -9.1256085 52.343397 -8.6331007 52.407397 -8.2461007 C 52.681397 -5.8691007 51.337788 -3.5239912 49.307788 -2.3339912 z M 0.48161486 -2.5009833 C 0.11261486 -3.3259833 -0.24187345 -4.1580498 -0.51887345 -5.0190498 C -0.33887345 -5.3310498 -0.20231094 -5.6701866 -0.16731094 -6.0341866 C -0.024310942 -7.4441866 0.14129845 -8.8537257 0.30729845 -10.261726 C 0.77529845 -14.037726 1.4133727 -17.789531 1.9083727 -21.561531 C 2.6023727 -26.588531 3.5101501 -31.619015 3.4801501 -36.708015 C 4.0091501 -36.420015 4.1050525 -35.77989 4.2550525 -35.25489 C 4.9890525 -31.96389 4.5280056 -28.561332 4.1320056 -25.257332 C 3.5740056 -20.894332 2.868693 -16.553968 2.186693 -12.209968 C 2.023693 -10.922968 1.6726188 -9.6453155 1.7106188 -8.3413155 C 2.2176188 -8.8103155 2.5282751 -9.4524445 3.0582751 -9.8984445 C 3.3602751 -9.7574445 3.2389001 -9.3751476 3.1989001 -9.1191476 C 2.9219001 -8.1291476 2.4925211 -7.1892647 2.1105211 -6.2392647 C 1.8765211 -5.6152647 1.5970836 -5.0090264 1.3370836 -4.3950264 C 1.0470836 -3.7660264 0.80961486 -3.1129833 0.48161486 -2.5009833 z M -7.3377213 -2.7002021 C -7.7647213 -3.3222021 -8.0155065 -4.2187373 -8.3675065 -4.9487373 C -8.1435065 -5.5477373 -7.9827994 -6.1667647 -7.9177994 -6.8017647 C -7.1117994 -13.002765 -5.8632056 -19.131812 -4.8592056 -25.299812 C -4.7452056 -25.896812 -4.6548736 -26.501359 -4.6438736 -27.110359 C -5.7348736 -27.807359 -7.1139166 -28.347589 -8.4129166 -27.996589 C -9.2509166 -27.539589 -9.4545729 -26.483453 -10.135573 -25.856453 C -10.377573 -26.716453 -10.652229 -27.584129 -10.733229 -28.474129 C -9.8142292 -30.092129 -8.842694 -31.739293 -8.484694 -33.592293 C -10.234694 -35.424293 -12.310229 -36.91848 -14.483229 -38.20948 C -16.171229 -39.25848 -18.031577 -40.053535 -19.989577 -40.415535 C -21.311577 -40.611535 -22.716472 -40.506488 -23.931472 -39.917488 C -25.311472 -39.202488 -26.255077 -37.79507 -26.552077 -36.28907 C -27.205077 -33.59507 -26.400105 -30.847496 -26.530105 -28.125496 C -24.380105 -28.583496 -22.245858 -27.706656 -20.352858 -26.764656 C -17.982858 -25.612656 -15.685706 -24.317015 -13.296706 -23.208015 C -12.170706 -22.719015 -10.989346 -22.166812 -9.7283463 -22.299812 C -9.4123463 -21.456812 -9.1900768 -20.583617 -8.9270768 -19.724617 C -13.258077 -19.271617 -17.291999 -17.550015 -21.471999 -16.458015 C -23.268999 -16.028015 -25.462261 -15.791562 -26.940261 -17.143562 C -28.058261 -18.115562 -28.48489 -19.615257 -28.68489 -21.031257 C -29.10589 -20.983257 -29.548683 -20.980038 -29.922683 -21.207038 C -32.670683 -22.589038 -35.332882 -24.145187 -37.851882 -25.909187 C -38.508882 -26.397187 -39.16216 -26.930054 -39.61116 -27.623054 C -39.83016 -27.944054 -39.794292 -28.424515 -40.147292 -28.645515 C -41.249292 -29.378515 -42.306144 -30.268691 -42.945144 -31.450691 C -43.618144 -32.775691 -43.909761 -34.267219 -44.002761 -35.741219 C -44.036761 -37.858219 -43.525925 -39.929637 -43.120925 -41.994637 C -42.195925 -46.485637 -41.376214 -51.033727 -41.442214 -55.636727 C -41.037214 -55.390727 -41.001871 -54.882317 -40.914871 -54.466317 C -40.529871 -52.008317 -40.632535 -49.495094 -40.970535 -47.038094 C -41.454535 -43.042094 -42.382726 -39.121211 -43.066726 -35.158211 C -43.288726 -34.199211 -42.579164 -33.395332 -41.965164 -32.757332 C -41.286164 -32.104332 -40.571796 -31.442621 -39.688796 -31.078621 C -39.212796 -31.723621 -38.659941 -32.35016 -37.911941 -32.68116 C -36.967941 -33.12816 -35.929714 -33.397453 -34.879714 -33.356453 C -34.623714 -31.347453 -35.612265 -29.136968 -37.544265 -28.334968 C -35.916265 -26.880968 -33.969257 -25.834496 -32.086257 -24.750496 C -31.219257 -24.350496 -30.378874 -23.6323 -29.393874 -23.6753 C -28.492874 -24.5563 -28.688636 -26.042652 -27.924636 -27.035652 C -27.522636 -27.487652 -27.409843 -28.082418 -27.436843 -28.670418 C -27.324843 -30.142418 -27.363308 -31.622246 -27.438308 -33.094246 C -27.463308 -35.183246 -27.590726 -37.332594 -26.941726 -39.350594 C -26.570726 -40.546594 -25.843616 -41.655805 -24.779616 -42.341805 C -23.239616 -43.403805 -21.233304 -43.53841 -19.459304 -43.08741 C -16.903304 -42.48741 -14.701987 -40.996504 -12.534987 -39.583504 C -13.627987 -42.108504 -14.733596 -44.78227 -14.509596 -47.59327 C -14.503596 -49.34727 -13.732135 -51.340028 -11.987135 -52.020028 C -9.9641355 -52.882028 -7.6988931 -52.107512 -5.9138931 -51.041512 C -2.2748931 -48.965512 0.72669697 -45.99516 3.790697 -43.18116 C 6.891697 -40.41616 10.002271 -37.62923 13.454271 -35.30323 C 13.834271 -35.08323 14.183287 -34.754023 14.620287 -34.666023 C 14.924287 -35.131023 15.187377 -35.623203 15.512377 -36.075203 C 14.383377 -38.409203 13.602643 -40.963273 13.584643 -43.572273 C 13.642643 -45.526273 14.163143 -47.774188 16.022143 -48.784188 C 17.287143 -49.418188 18.782002 -49.577176 20.153002 -49.222176 C 20.413002 -49.159176 20.672369 -49.087309 20.929369 -49.008309 C 24.041369 -47.923309 26.743272 -45.94 29.204272 -43.792 C 30.929272 -42.402 30.795018 -39.92816 30.694018 -37.93116 C 30.898018 -37.89216 31.104717 -37.853832 31.310717 -37.819832 C 32.415717 -37.574832 33.609862 -36.99559 34.033862 -35.87159 C 35.026862 -33.53759 35.06076 -30.949129 34.70476 -28.474129 C 33.94276 -22.870129 32.760643 -17.333359 31.959643 -11.735359 C 31.872643 -11.169359 31.764666 -10.597956 31.833666 -10.022956 C 32.369666 -10.466956 32.6681 -11.134816 33.2531 -11.528816 C 33.4391 -10.833816 33.068155 -10.171093 32.834155 -9.5380929 C 32.403155 -8.4190929 31.938131 -7.3133623 31.460131 -6.2143623 C 31.134131 -5.5713623 30.884069 -4.8947959 30.546069 -4.2587959 C 30.184069 -5.0507959 29.780834 -5.8411124 29.555834 -6.6831124 C 29.934834 -7.6051124 29.955616 -8.6128976 30.106616 -9.5878976 C 30.522616 -13.019898 31.075108 -16.434523 31.586108 -19.853523 C 32.076108 -22.406523 32.446299 -24.982164 32.932299 -27.535164 C 33.305299 -29.696164 33.719983 -31.856929 33.882983 -34.044929 C 33.218983 -34.588929 32.408319 -34.913152 31.577319 -35.098152 C 30.958319 -35.172152 30.180432 -35.310281 29.718432 -34.780281 C 29.224432 -34.189281 28.883889 -33.486027 28.386889 -32.895027 C 28.104889 -33.743027 27.842272 -34.616054 27.704272 -35.498054 C 28.702272 -37.085054 29.641116 -38.786488 29.919116 -40.667488 C 29.607116 -41.174488 29.090561 -41.507562 28.650561 -41.893562 C 25.837561 -44.145562 22.620998 -46.315274 18.923998 -46.572274 C 17.070998 -46.784274 15.180728 -45.558223 14.747728 -43.720223 C 14.188728 -41.278223 14.950799 -38.775051 15.869799 -36.519051 C 16.787799 -37.129051 17.82176 -37.624316 18.95476 -37.591316 C 19.09876 -35.962316 18.624201 -34.283609 17.582201 -33.016609 C 20.447201 -31.766609 23.39067 -30.714453 26.31267 -29.606453 C 27.36467 -29.219453 28.339182 -28.622336 29.437182 -28.361336 C 29.761182 -27.558336 30.096018 -26.756976 30.319018 -25.917976 C 27.249018 -25.002976 24.047283 -24.639515 20.891283 -24.145515 C 20.598283 -24.101515 20.306842 -24.057144 20.013842 -24.015144 C 18.687842 -23.834144 17.356072 -23.691253 16.025072 -23.552253 C 14.493072 -23.421253 12.954674 -23.287894 11.416674 -23.358894 C 10.486674 -23.412894 9.5017205 -23.734078 8.9147205 -24.497078 C 7.7727205 -25.859078 7.8045799 -28.172933 9.2955799 -29.273933 C 10.86258 -30.364933 12.612658 -31.221113 14.000658 -32.558113 C 8.5026582 -35.882113 3.964775 -40.493258 -0.87922502 -44.656258 C -3.347225 -46.650258 -5.9033932 -48.86882 -9.1013932 -49.50782 C -9.6743932 -49.61982 -10.267163 -49.627215 -10.840163 -49.512215 C -11.758163 -49.359215 -12.696108 -48.883399 -13.134108 -48.025399 C -13.657108 -47.036399 -13.762198 -45.87191 -13.651198 -44.77491 C -13.447198 -42.81891 -12.554296 -41.039422 -11.751296 -39.274422 C -11.465296 -38.555422 -10.722589 -38.216082 -10.176589 -37.726082 C -9.4635885 -37.101082 -8.7500221 -36.444863 -8.2210221 -35.651863 C -7.4830221 -34.170863 -7.5607486 -32.4585 -7.6907486 -30.8545 C -6.3787486 -30.6385 -4.935311 -30.095199 -4.292311 -28.846199 C -3.288311 -26.269199 -3.5617642 -23.424402 -3.9817642 -20.754402 C -4.4727642 -17.355402 -5.1620689 -13.988569 -5.7190689 -10.601569 C -5.8310689 -9.8705695 -6.0142056 -9.1453741 -5.9842056 -8.4013741 C -5.4042056 -8.8673741 -5.1388931 -9.6952921 -4.4138931 -9.9672921 C -4.4008931 -8.5932921 -5.2622095 -7.4093741 -5.7132095 -6.1513741 C -5.8522095 -5.8303741 -5.9870845 -5.5083662 -6.1350845 -5.1933662 C -6.5890845 -4.3963662 -6.8207213 -3.4222021 -7.3377213 -2.7002021 z M -11.153639 -3.2231513 C -12.461639 -3.6951513 -13.718573 -4.2998311 -15.010573 -4.8198311 C -15.439573 -5.0158311 -15.873819 -5.2044014 -16.312819 -5.3794014 C -16.959819 -5.6414014 -17.58344 -5.9574756 -18.22444 -6.2304756 C -20.87344 -7.4674756 -23.532612 -8.6816007 -26.175612 -9.9336007 C -26.505612 -10.089601 -26.831593 -10.250534 -27.155593 -10.415534 C -28.435593 -11.070534 -29.768749 -11.647288 -30.940749 -12.488288 C -31.463749 -12.835288 -31.673159 -13.455277 -31.736159 -14.051277 C -29.818159 -12.506277 -27.50089 -11.597933 -25.30989 -10.523933 C -21.14689 -8.4949328 -16.889964 -6.6687451 -12.660964 -4.7817451 C -12.293964 -4.6107451 -11.889866 -4.4994014 -11.560866 -4.2544014 C -11.343866 -3.9494014 -11.263639 -3.5741513 -11.153639 -3.2231513 z M 38.419604 -4.5327217 C 38.016604 -5.2987217 37.689846 -6.0998389 37.367846 -6.9028389 C 37.851846 -7.6388389 37.795557 -8.5458195 37.921557 -9.3828195 C 38.668557 -15.381819 39.621553 -21.354269 40.442553 -27.343269 C 39.899553 -27.880269 39.114702 -28.196652 38.769702 -28.910652 C 38.931702 -28.846652 39.094565 -28.781574 39.254565 -28.705574 C 39.674565 -28.445574 40.073542 -28.153164 40.505542 -27.910164 C 41.011542 -31.142164 41.469803 -34.396883 41.473803 -37.671883 C 42.024803 -37.099883 42.147792 -36.277816 42.286792 -35.528816 C 42.785792 -32.609816 42.317569 -29.651683 41.983569 -26.742683 C 43.870569 -25.256683 45.838874 -23.746746 47.095874 -21.656746 C 47.624874 -21.748746 48.145624 -21.994742 48.689624 -21.927742 C 49.249624 -21.425742 49.275401 -20.427495 48.761401 -19.875495 C 48.200401 -19.271495 47.535272 -18.759804 46.829272 -18.341804 C 46.551272 -18.164804 45.954858 -18.100742 45.929858 -18.552742 C 45.940858 -19.352742 45.331714 -20.034828 45.456714 -20.840828 C 45.630714 -21.321828 46.233702 -21.372601 46.644702 -21.558601 C 45.283702 -23.288601 43.589538 -24.736703 41.901538 -26.137703 C 41.219538 -21.644703 40.606913 -17.139886 39.885913 -12.650886 C 39.769913 -11.842886 39.587284 -11.033921 39.641284 -10.211921 C 40.191284 -10.615921 40.402717 -11.377609 41.060717 -11.641609 C 41.153717 -10.897609 40.778444 -10.226741 40.530444 -9.5527413 C 40.062444 -8.2797413 39.493104 -7.0474873 38.982104 -5.7924873 C 38.799104 -5.3694873 38.620604 -4.9467217 38.419604 -4.5327217 z M 27.067065 -4.9414131 C 24.977065 -5.5854131 22.950072 -6.4289483 20.900072 -7.1899483 C 20.641072 -7.2839483 20.379776 -7.3748741 20.120776 -7.4638741 C 17.571776 -8.5008741 15.054701 -9.6111359 12.519701 -10.682136 C 10.753701 -11.510136 8.9625174 -12.295148 7.2565174 -13.244148 C 6.5275174 -13.621148 6.03624 -14.526015 6.24724 -15.333015 C 6.67924 -15.905015 7.4048689 -16.146863 7.9918689 -16.526863 C 8.0568689 -16.205863 8.2035057 -15.855628 8.0695057 -15.536628 C 7.6825057 -15.167628 7.1579197 -14.986484 6.7189197 -14.688484 C 7.4489197 -14.079484 8.3202088 -13.678331 9.1652088 -13.257331 C 11.121209 -12.321331 13.092967 -11.420667 15.091967 -10.576667 C 16.612967 -9.9086671 18.141182 -9.2574679 19.687182 -8.6474679 C 20.021182 -8.5084679 20.352205 -8.3679874 20.686205 -8.2299874 C 22.593205 -7.4649874 24.525225 -6.7556944 26.456225 -6.0546944 C 26.935225 -5.9156944 26.935065 -5.3354131 27.067065 -4.9414131 z M 63.175464 -6.2568428 C 61.565464 -6.6928428 60.021808 -7.3283546 58.452808 -7.8813546 C 58.244808 -7.9543546 58.039108 -8.0308702 57.836108 -8.1098702 C 53.443108 -9.8118702 48.999069 -11.423878 44.796069 -13.567878 C 44.233069 -13.811878 44.022135 -14.417988 43.939135 -14.979988 C 48.291135 -12.554988 52.989425 -10.846456 57.635425 -9.0854562 C 57.994425 -8.9654562 58.348366 -8.8324132 58.700366 -8.6914132 C 59.967366 -8.2204132 61.231073 -7.7362921 62.525073 -7.3422921 C 63.007073 -7.2252921 63.021464 -6.6418428 63.175464 -6.2568428 z M 66.91814 -6.56446 C 66.41414 -7.32146 66.104491 -8.2023702 65.778491 -9.0473702 C 65.845491 -9.5033702 66.197351 -9.9122101 66.159351 -10.40821 C 66.722351 -18.99821 68.104324 -27.505527 68.806324 -36.082527 C 68.835324 -37.295527 68.890183 -38.508199 68.812183 -39.721199 C 69.053183 -39.429199 69.336995 -39.150375 69.444995 -38.776375 C 70.149995 -36.572375 70.145523 -34.224414 69.985523 -31.941414 C 69.541523 -25.670414 68.531812 -19.460062 67.931812 -13.206062 C 67.902812 -12.924062 67.918507 -12.633284 68.069507 -12.384284 C 68.494507 -12.867284 68.766847 -13.475511 69.242847 -13.916511 C 69.683847 -13.844511 69.440148 -13.286843 69.376148 -13.006843 C 68.644148 -10.828843 67.76614 -8.69946 66.91814 -6.56446 z M 22.807299 -8.336921 C 22.273299 -9.024921 22.021865 -9.9181242 21.762865 -10.745124 C 21.566865 -11.363124 21.706244 -12.338343 22.476244 -12.444343 C 23.121244 -12.209343 23.280612 -11.398675 23.252612 -10.784675 C 22.990612 -10.943675 22.937916 -11.283913 22.739916 -11.503913 C 21.594916 -10.703913 22.899299 -9.382921 22.807299 -8.336921 z M -14.225417 -10.012702 C -14.330417 -10.257702 -14.425386 -10.505378 -14.518386 -10.755378 C -14.341386 -11.475378 -13.966815 -12.259335 -14.333815 -12.986335 C -14.510815 -13.458335 -15.230452 -13.631808 -15.536452 -13.195808 C -16.000452 -12.381808 -15.187452 -11.26737 -15.911452 -10.54737 C -16.366452 -11.42937 -15.928487 -12.42673 -16.097487 -13.36573 C -16.007487 -13.87073 -15.615589 -14.388245 -15.051589 -14.344245 C -14.403589 -14.324245 -14.137702 -13.63703 -13.942702 -13.12403 C -13.694702 -13.81803 -12.706436 -14.434843 -12.120436 -13.756843 C -11.277436 -12.551843 -12.26485 -11.198097 -12.64485 -10.017097 C -13.23385 -10.996097 -12.475553 -11.98453 -12.240553 -12.93653 C -12.479553 -13.43653 -13.150327 -13.043183 -13.333327 -12.680183 C -13.741327 -11.832183 -13.613417 -10.779702 -14.225417 -10.012702 z M 77.851734 -10.041999 C 76.783734 -10.846999 76.95575 -12.388202 76.76775 -13.575202 C 76.37275 -12.406202 75.809933 -11.05412 74.530933 -10.64112 C 73.929933 -10.53112 73.90839 -11.369374 73.94939 -11.776374 C 74.30239 -12.100374 74.7398 -12.339632 75.1198 -12.640632 C 75.1898 -12.600632 75.328656 -12.519034 75.396656 -12.478034 C 75.956656 -13.204034 76.204066 -14.105113 76.567066 -14.933113 C 76.142066 -15.322113 75.781628 -15.823788 75.793628 -16.425788 C 76.162628 -15.998788 76.830511 -15.723757 77.173511 -16.343757 C 75.748511 -16.409757 74.695777 -18.013574 75.245777 -19.330574 C 76.080777 -21.865574 76.942652 -24.426964 77.167652 -27.105964 C 77.588652 -26.872964 77.454804 -26.293074 77.473804 -25.893074 C 77.252804 -23.314074 76.426453 -20.838933 75.613453 -18.398933 C 75.554453 -18.218933 75.506808 -17.9768 75.702808 -17.8628 C 76.372808 -17.3628 77.232769 -17.264675 78.037769 -17.159675 C 78.170769 -16.786675 78.457421 -16.317574 78.156421 -15.955574 C 77.819421 -15.533574 77.431601 -15.130632 76.940601 -14.890632 C 77.363601 -13.638632 76.952691 -12.129487 77.832691 -11.042487 C 78.181691 -11.201487 78.449711 -11.479288 78.727711 -11.738288 C 79.206711 -11.036288 78.663734 -10.011999 77.851734 -10.041999 z M -22.686354 -10.349616 C -22.961354 -10.469616 -22.985765 -10.807347 -23.106765 -11.048347 C -23.408765 -11.916347 -23.912312 -12.781405 -23.792312 -13.733405 C -23.746312 -14.127405 -23.284757 -14.552652 -22.898757 -14.285652 C -22.468757 -13.878652 -22.316323 -13.267226 -22.229323 -12.699226 C -22.618323 -12.744226 -22.572644 -13.292507 -22.882644 -13.437507 C -23.180644 -13.409507 -23.329448 -13.099597 -23.307448 -12.829597 C -23.279448 -11.963597 -22.739354 -11.213616 -22.686354 -10.349616 z M 86.419605 -13.566413 C 85.921605 -14.383413 85.492715 -15.25637 85.206715 -16.17237 C 84.994715 -16.82537 85.138273 -17.721933 85.829273 -18.023933 C 86.677273 -18.249933 87.822687 -17.821437 87.853687 -16.815437 C 88.174687 -15.740437 87.00957 -15.183882 86.23357 -14.796882 C 86.33457 -14.392882 86.492605 -13.987413 86.419605 -13.566413 z M 14.538256 -15.458991 C 14.181256 -16.290991 13.78708 -17.123144 13.60808 -18.015144 C 13.54008 -18.469144 13.454228 -19.028097 13.810228 -19.392097 C 14.185228 -19.750097 14.751084 -19.648089 15.212084 -19.559089 C 16.116084 -19.106089 16.302666 -17.551601 15.333666 -17.058601 C 15.027666 -16.917601 14.717209 -16.789585 14.415209 -16.642585 C 14.517209 -16.257585 14.634256 -15.858991 14.538256 -15.458991 z M 85.780933 -15.863288 C 86.396933 -15.971288 86.989668 -16.308804 87.333668 -16.841804 C 86.901668 -17.033804 86.351558 -17.19037 85.921558 -16.92237 C 85.559558 -16.68737 85.693933 -16.207288 85.780933 -15.863288 z M 56.607105 -15.911628 C 56.082105 -16.852628 56.792573 -17.783999 57.087573 -18.666999 C 56.690573 -18.982999 56.090331 -18.775945 55.889331 -18.335945 C 55.521331 -17.566945 55.550241 -16.629855 54.997241 -15.943855 C 54.476241 -16.874855 55.504272 -17.757831 55.079272 -18.694831 C 54.938272 -19.264831 53.99162 -19.298128 53.83562 -18.724128 C 53.64362 -18.004128 54.058565 -17.135679 53.504565 -16.513679 C 53.404565 -16.817679 53.212065 -17.139292 53.317065 -17.467292 C 53.609065 -18.269292 53.155272 -19.334765 53.954272 -19.926765 C 54.698272 -20.208765 55.196241 -19.506796 55.372241 -18.883796 C 55.675241 -19.453796 56.46839 -20.100738 57.07439 -19.573738 C 57.93839 -18.411738 57.029105 -17.051628 56.607105 -15.911628 z M -36.994949 -16.015632 C -37.291949 -16.616632 -37.534667 -17.244984 -37.756667 -17.875984 C -37.844667 -18.160984 -37.929324 -18.447706 -37.979324 -18.741706 C -37.965324 -19.141706 -37.875374 -19.628859 -37.456374 -19.797859 C -36.872374 -19.992859 -36.133679 -19.786359 -35.818679 -19.235359 C -35.517679 -18.676359 -35.583367 -17.865687 -36.123367 -17.471687 C -36.382367 -17.262687 -36.739441 -17.191527 -36.974441 -16.957527 C -36.996441 -16.643527 -36.978949 -16.328632 -36.994949 -16.015632 z M 14.075365 -17.546394 C 14.625365 -17.668394 15.116814 -17.969804 15.535814 -18.341804 C 15.202814 -18.720804 14.540424 -18.86198 14.135424 -18.52198 C 13.889424 -18.25198 14.036365 -17.863394 14.075365 -17.546394 z M -37.318679 -17.864265 C -36.830679 -18.016265 -36.323644 -18.220492 -36.007644 -18.646492 C -36.386644 -18.864492 -36.986581 -19.220441 -37.343581 -18.794441 C -37.586581 -18.518441 -37.443679 -18.155265 -37.318679 -17.864265 z M 94.644703 -18.795906 C 94.289703 -19.631906 93.922664 -20.464437 93.604664 -21.315437 C 94.112664 -21.991437 94.099211 -22.865792 94.290211 -23.654792 C 94.899211 -26.525792 95.938734 -29.276191 96.976734 -32.013191 C 97.123734 -32.514191 97.394621 -33.017277 97.335621 -33.551277 C 96.116621 -34.363277 94.284234 -34.104957 93.414234 -32.897957 C 92.880234 -32.304957 92.665496 -31.531539 92.507496 -30.769539 C 91.807496 -31.566539 91.79632 -32.714644 91.20232 -33.577644 C 90.53032 -34.845644 88.453918 -35.098797 87.614918 -33.883797 C 87.184918 -33.242797 87.872672 -32.583187 87.812672 -31.909187 C 86.766672 -32.222187 86.406281 -33.386621 85.662281 -34.078621 C 84.512281 -35.408621 82.235765 -35.674789 80.933765 -34.425789 C 80.151765 -33.766789 79.958554 -32.719215 79.442554 -31.887215 C 79.206554 -31.444215 78.636636 -31.52332 78.251636 -31.69532 C 75.233636 -33.14132 73.543457 -36.904383 74.592457 -40.109383 C 73.982457 -40.190383 73.372304 -40.27841 72.786304 -40.46241 C 69.216304 -41.65141 66.26039 -44.08782 63.44939 -46.50782 C 62.23439 -47.49482 60.985198 -48.513633 59.478198 -49.015633 C 58.498198 -49.387633 57.236003 -49.27902 56.528003 -48.43702 C 55.807003 -47.56502 55.767858 -46.320492 56.054858 -45.271492 C 56.552858 -43.466492 57.509378 -41.822828 58.637378 -40.340828 C 59.982378 -40.547828 61.539761 -40.394633 62.454761 -39.265633 C 63.262761 -38.167633 63.438011 -36.734699 63.486011 -35.408699 C 63.478011 -32.441699 61.440343 -29.969781 61.076343 -27.092781 C 61.495343 -27.309781 61.803585 -27.714992 62.274585 -27.833992 C 62.209585 -27.017992 61.650773 -26.37939 61.266773 -25.69239 C 60.768773 -24.93839 60.340054 -24.13246 59.755054 -23.43946 C 59.484054 -24.04846 59.275351 -24.681742 59.034351 -25.302742 C 58.951351 -25.541742 58.895683 -25.790488 58.874683 -26.042488 C 59.525683 -26.811488 59.412433 -27.898507 59.718433 -28.812507 C 60.296433 -31.633507 61.646296 -34.211574 62.453296 -36.955574 C 61.392296 -37.584574 60.073612 -37.866988 58.877612 -37.479988 C 58.611612 -37.374988 58.35364 -37.252777 58.10564 -37.113777 C 56.76464 -36.232777 56.295987 -34.570484 56.111987 -33.063484 C 55.769987 -30.026484 55.526612 -26.842078 54.002612 -24.122078 C 53.699612 -25.240078 52.841194 -26.39639 53.374194 -27.56739 C 53.979194 -29.68539 54.433702 -31.861832 54.519702 -34.069832 C 54.558702 -35.283832 54.258604 -36.571777 53.419604 -37.488777 C 52.279604 -38.790777 50.229413 -39.228402 48.698413 -38.379402 C 47.676413 -37.793402 47.158686 -36.629238 46.978686 -35.511238 C 46.557686 -33.188238 47.413507 -30.907316 47.444507 -28.591316 C 47.433507 -28.073316 47.379659 -27.504289 47.000659 -27.113289 C 46.370659 -27.501289 45.900858 -28.093265 45.554858 -28.739265 C 43.789858 -31.908265 44.086651 -35.689273 43.042651 -39.072273 C 42.784651 -39.691273 42.245495 -40.352812 41.507495 -40.299812 C 40.492495 -40.227812 39.774596 -39.358562 39.336596 -38.518562 C 38.466596 -36.560562 38.331753 -34.382933 38.246753 -32.273933 C 38.200753 -32.083933 38.145288 -31.621422 37.870288 -31.774422 C 37.666288 -32.482422 37.750635 -33.231039 37.751635 -33.957039 C 37.844635 -36.105039 38.087546 -38.327867 39.109546 -40.255867 C 39.589546 -41.201867 40.422674 -41.941437 41.416674 -42.315437 C 42.480674 -42.499437 43.314632 -41.61232 43.647632 -40.69532 C 44.621632 -38.10732 44.432323 -35.274355 45.181323 -32.631355 C 45.444323 -31.728355 45.715456 -30.7345 46.467456 -30.1045 C 46.093456 -32.5295 45.497788 -35.00141 45.932788 -37.46241 C 46.136788 -38.72641 46.72435 -39.986449 47.78435 -40.752449 C 49.36835 -42.012449 51.924651 -41.784398 53.167651 -40.150398 C 54.215651 -39.009398 54.557198 -37.477582 54.978198 -36.038582 C 55.466198 -37.708582 56.433144 -39.326539 58.022144 -40.144539 C 56.869144 -41.975539 55.64262 -43.909777 55.33562 -46.113777 C 55.31562 -46.613777 55.316085 -47.114242 55.337085 -47.615242 C 55.585085 -49.320242 56.719608 -50.934571 58.398608 -51.476571 C 59.275608 -51.675571 60.212355 -51.522078 61.013355 -51.122078 C 62.373355 -50.290078 63.602425 -49.252164 64.760425 -48.160164 C 66.710425 -46.410164 68.742949 -44.658699 71.196949 -43.658699 C 73.231949 -42.754699 75.613461 -42.712312 77.696461 -43.487312 C 78.412461 -43.754312 79.040058 -44.203492 79.734058 -44.521492 C 80.086058 -43.772492 80.115933 -42.930613 80.155933 -42.120613 C 80.240933 -41.491613 79.505597 -41.330109 79.086597 -41.079109 C 77.433597 -40.324109 75.749382 -39.181574 75.241382 -37.330574 C 75.005382 -36.783574 75.453585 -36.310394 75.774585 -35.921394 C 76.400585 -35.143394 77.255468 -34.454152 78.279468 -34.348152 C 78.637468 -34.313152 78.837339 -34.656625 78.972339 -34.932625 C 79.343339 -35.715625 79.691871 -36.55089 80.366871 -37.12989 C 81.237871 -37.94489 82.562207 -38.278367 83.686207 -37.818367 C 84.905207 -37.443367 85.59825 -36.30457 86.33025 -35.35157 C 86.52725 -35.90857 86.659394 -36.552094 87.178394 -36.913094 C 88.230394 -37.808094 89.960434 -37.594601 90.843434 -36.558601 C 91.475434 -35.858601 91.633309 -34.899902 92.015309 -34.066902 C 92.503309 -35.543902 93.783141 -36.832387 95.418141 -36.838387 C 96.453141 -36.848387 97.421539 -36.211918 97.776539 -35.232918 C 98.932539 -32.646918 98.487004 -29.688628 97.403004 -27.161628 C 96.938004 -25.643628 96.172289 -24.190035 95.995289 -22.603035 C 96.426289 -22.843035 96.755379 -23.273753 97.262379 -23.364753 C 97.066379 -22.103753 96.141652 -21.124628 95.542652 -20.036628 C 95.261652 -19.609628 95.036703 -19.133906 94.644703 -18.795906 z M -24.600905 -18.80616 C -23.320944 -18.767781 -21.995612 -19.126765 -20.784987 -19.458015 C -18.665987 -20.139015 -16.532987 -20.780343 -14.409987 -21.444343 C -16.643987 -22.479343 -18.855366 -23.561445 -21.123366 -24.523445 C -22.850366 -25.275445 -24.950972 -26.010043 -26.743972 -25.061043 C -26.985972 -23.551043 -27.352206 -22.064945 -27.734206 -20.585945 C -27.946206 -19.978945 -27.235144 -19.655492 -26.820144 -19.396492 C -26.120019 -18.995992 -25.368882 -18.829187 -24.600905 -18.80616 z M 46.593432 -19.468269 C 46.648702 -19.474779 46.706014 -19.490484 46.761889 -19.516609 C 47.126889 -19.763609 47.162663 -20.256257 47.104663 -20.656257 C 46.644663 -20.592257 46.209276 -20.428296 45.808276 -20.196296 C 45.854651 -19.823546 46.206546 -19.422701 46.593432 -19.468269 z M 47.552905 -19.841804 C 48.056905 -20.099804 48.528159 -20.534781 48.688159 -21.092781 C 48.255159 -21.029781 47.837534 -20.896585 47.422534 -20.767585 C 47.450534 -20.456585 47.493905 -20.146804 47.552905 -19.841804 z M 87.670582 -23.030769 C 87.512865 -23.036347 87.363492 -23.104339 87.247242 -23.262214 C 86.437242 -24.238214 86.693047 -25.584472 86.547047 -26.751472 C 86.112047 -25.533472 85.455136 -24.122996 84.064136 -23.812996 C 83.386136 -23.688996 83.465918 -24.580703 83.489918 -25.012703 C 83.936918 -25.270703 84.342191 -25.594285 84.770191 -25.884285 C 84.912191 -25.862285 85.000289 -25.722445 85.120289 -25.648445 C 85.683289 -26.319445 85.93284 -27.168644 86.28484 -27.952644 C 86.32084 -28.119644 86.484148 -28.127722 86.626148 -28.157722 C 87.279148 -26.931722 86.529808 -25.403871 87.327808 -24.234871 C 87.759808 -23.853871 88.155191 -24.523734 88.520191 -24.719734 C 88.592191 -24.287734 88.820215 -23.711656 88.394215 -23.389656 C 88.21734 -23.185281 87.933443 -23.021472 87.670582 -23.030769 z M 11.766771 -26.074714 C 12.974771 -26.091714 14.1844 -26.095199 15.3864 -26.221199 C 18.6774 -26.561199 21.995826 -26.847152 25.222826 -27.598152 C 24.816826 -27.881152 24.323705 -27.986836 23.873705 -28.173836 C 21.258705 -29.108836 18.638049 -30.051488 16.151049 -31.292488 C 15.974049 -31.406488 15.789732 -31.508035 15.601732 -31.603035 C 14.185732 -29.850035 12.342326 -28.499242 10.410326 -27.365242 C 10.016326 -27.119242 9.5806346 -26.929804 9.2516346 -26.591804 C 9.9956346 -26.117804 10.911771 -26.091714 11.766771 -26.074714 z M -18.836745 -30.494148 C -19.22687 -30.498898 -19.617358 -30.572121 -19.977858 -30.703621 C -20.214858 -30.989621 -20.321073 -31.357179 -20.448073 -31.701179 C -19.775073 -31.503179 -19.036417 -31.327554 -18.350417 -31.560554 C -19.257417 -32.250554 -20.251429 -33.01023 -20.537429 -34.17823 C -20.665429 -34.97423 -19.768022 -35.413137 -19.096022 -35.432137 C -17.320022 -35.487137 -15.469425 -34.392711 -14.808425 -32.720711 C -15.964425 -33.787711 -17.485108 -34.787437 -19.134108 -34.440437 C -19.617108 -34.378437 -20.247288 -33.838847 -19.793288 -33.360847 C -19.059288 -32.518847 -17.683561 -32.005226 -17.698561 -30.699226 C -18.057561 -30.553726 -18.44662 -30.489398 -18.836745 -30.494148 z M -3.9715103 -36.259773 C -4.3845103 -37.066773 -4.7726939 -37.887035 -5.1096939 -38.728035 C -4.2186939 -39.295035 -3.295393 -39.852601 -2.351393 -40.308601 C -1.790393 -39.568601 -1.5028696 -38.641605 -1.1648696 -37.787605 C -2.1018696 -37.280605 -3.0195103 -36.735773 -3.9715103 -36.259773 z M -33.56282 -37.402351 C -33.93182 -38.134351 -34.321566 -38.858152 -34.677566 -39.598152 C -34.844566 -39.839152 -34.519624 -39.959297 -34.362624 -40.071297 C -33.631624 -40.491297 -32.934925 -40.966109 -32.245925 -41.454109 C -31.670925 -40.719109 -31.364777 -39.817426 -30.918777 -39.003426 C -31.785777 -38.449426 -32.61582 -37.801351 -33.56282 -37.402351 z M 21.781908 -37.929695 C 21.529778 -37.931537 21.265193 -37.977504 21.053881 -37.989754 C 20.557881 -38.007754 20.443627 -38.555789 20.293627 -38.925789 C 20.856627 -38.791789 21.509115 -38.641691 22.044115 -38.950691 C 21.372115 -39.590691 20.432283 -40.045148 20.141283 -40.994148 C 19.910283 -41.469148 20.054401 -42.177324 20.636401 -42.299324 C 22.249401 -42.730324 24.185471 -41.771344 24.758471 -40.194344 C 24.090471 -40.893344 23.218475 -41.431703 22.237475 -41.512703 C 21.682475 -41.562703 20.987428 -41.566504 20.614428 -41.083504 C 20.567428 -40.618504 20.980229 -40.285281 21.310229 -40.030281 C 21.862229 -39.592281 22.461416 -39.047555 22.552416 -38.310555 C 22.410104 -37.99893 22.106075 -37.927327 21.781908 -37.929695 z M -37.613113 -37.97657 C -37.702113 -38.13557 -37.79032 -38.293039 -37.87532 -38.457039 C -38.20032 -39.119039 -38.556257 -39.768156 -38.836257 -40.452156 C -38.310257 -40.938156 -37.668234 -41.271555 -37.087234 -41.685555 C -36.740234 -41.905555 -36.402839 -42.236602 -35.957839 -42.183602 C -35.658839 -41.351602 -35.117191 -40.630371 -34.818191 -39.797371 C -35.758191 -39.203371 -36.669113 -38.56357 -37.613113 -37.97657 z M 93.058277 -40.430184 C 92.967277 -40.558184 92.87907 -40.688297 92.79607 -40.821297 C 92.72207 -40.936297 92.652527 -41.055254 92.589527 -41.177254 C 92.302527 -41.751254 91.933691 -42.284656 91.707691 -42.889656 C 92.591691 -43.499656 93.468539 -44.125188 94.401539 -44.659188 C 94.954539 -43.892188 95.388395 -43.050109 95.803395 -42.204109 C 94.923395 -41.560109 93.978277 -41.013184 93.058277 -40.430184 z M 85.984547 -42.426766 C 85.263547 -42.476766 84.927336 -43.297766 84.868336 -43.926766 C 85.079336 -43.749766 85.228808 -43.507758 85.452808 -43.343758 C 85.782808 -43.241758 86.04391 -43.542223 86.28191 -43.720223 C 85.82591 -43.962223 85.243984 -43.957754 84.882984 -44.364754 C 84.299984 -44.993754 84.161105 -45.921801 84.357105 -46.737801 C 84.720105 -48.464801 85.140816 -50.187645 85.285816 -51.952645 C 85.336816 -52.302645 85.287359 -52.691473 85.492359 -53.001473 C 86.023359 -50.403473 85.093722 -47.820211 84.664722 -45.283211 C 85.190722 -44.759211 85.953305 -44.668063 86.661305 -44.706063 C 87.225305 -44.832063 87.673047 -44.032824 87.297047 -43.611824 C 86.953047 -43.136824 86.575547 -42.589766 85.984547 -42.426766 z M 50.541186 -44.707527 C 47.630186 -45.624527 44.787483 -46.739617 41.945483 -47.849617 C 40.246483 -48.523617 38.545069 -49.210813 36.921069 -50.049813 C 36.383069 -50.289813 36.235772 -50.888582 36.141772 -51.413582 C 38.147772 -50.205582 40.337096 -49.335051 42.524096 -48.519051 C 44.949096 -47.467051 47.455319 -46.607637 49.952319 -45.744637 C 50.310319 -45.530637 50.394186 -45.069527 50.541186 -44.707527 z M 31.785327 -45.205574 C 31.754373 -45.205339 31.723698 -45.206348 31.693041 -45.208504 C 31.535041 -45.427504 31.356952 -45.630063 31.175952 -45.831063 C 31.141952 -46.085063 31.115526 -46.340641 31.089526 -46.598641 C 31.442526 -46.062641 32.101198 -45.966582 32.478198 -46.538582 C 31.739198 -46.707582 30.882901 -46.959359 30.573901 -47.735359 C 30.019901 -48.924359 30.628323 -50.183594 30.931323 -51.350594 C 31.306323 -52.512594 31.359205 -53.739602 31.561205 -54.933602 C 31.919205 -54.290602 31.750479 -53.514438 31.716479 -52.815438 C 31.639479 -51.249438 30.989229 -49.80107 30.685229 -48.28907 C 31.210229 -47.43207 32.397213 -47.513766 33.269213 -47.301766 C 33.819463 -46.347547 32.74488 -45.21287 31.785327 -45.205574 z M -34.326003 -45.454598 C -35.25606 -45.506277 -36.146968 -46.355723 -35.921218 -47.329598 C -35.629218 -48.104598 -34.899195 -48.620504 -34.172195 -48.958504 C -34.252195 -49.501504 -34.453839 -50.152891 -34.082839 -50.629891 C -33.742839 -50.846891 -33.365335 -50.561785 -33.041335 -50.446785 C -33.066335 -51.234785 -33.244363 -52.488887 -32.269363 -52.775887 C -31.619363 -52.528887 -31.500726 -51.541586 -30.691726 -51.517586 C -30.668726 -51.652586 -30.640273 -51.786813 -30.627273 -51.924813 C -31.635273 -52.803813 -32.955558 -53.186082 -34.094558 -53.851082 C -32.790558 -53.671082 -31.527546 -53.095746 -30.407546 -52.406746 C -29.871546 -53.056746 -28.98223 -52.994074 -28.35823 -52.518074 C -28.54523 -53.424074 -27.441148 -53.622856 -26.924148 -53.068856 C -26.825148 -53.321856 -26.759398 -53.655824 -26.455398 -53.736824 C -25.531398 -54.067824 -24.818343 -52.681336 -25.374343 -51.986336 C -25.944343 -51.311336 -27.04289 -51.413301 -27.55989 -50.675301 C -27.34589 -50.498301 -27.141515 -50.311406 -26.950515 -50.108406 C -26.680515 -50.069406 -26.410991 -50.01743 -26.138991 -49.98243 C -26.268991 -50.41643 -26.689355 -50.686938 -26.811355 -51.127938 C -26.174355 -50.753938 -25.627007 -50.044656 -25.805007 -49.264656 C -26.231007 -49.167656 -26.688003 -49.339746 -26.826003 -49.781746 C -26.806003 -49.456746 -26.727968 -49.060668 -27.014968 -48.826668 C -27.298968 -48.486668 -28.041859 -48.442871 -27.852859 -47.859871 C -28.197859 -47.817871 -28.513683 -47.678871 -28.797683 -47.484871 C -28.791683 -47.767871 -28.780921 -48.05241 -28.766921 -48.33741 C -28.287921 -48.88941 -27.579265 -49.124106 -27.044265 -49.600106 C -27.697265 -50.114106 -28.44546 -50.533051 -29.24446 -50.769051 C -28.90846 -49.816051 -28.692972 -48.76884 -28.993972 -47.77784 C -29.146972 -47.12184 -29.548062 -46.379754 -30.261062 -46.239754 C -30.760062 -46.357754 -30.827101 -46.963797 -30.926101 -47.383797 C -30.764101 -47.221797 -30.610421 -47.05275 -30.454421 -46.88575 C -28.925421 -47.41775 -28.821487 -49.551473 -29.597487 -50.751473 C -29.964487 -50.291473 -29.61971 -49.722035 -29.52571 -49.228035 C -29.30971 -48.565035 -29.679995 -47.700914 -30.367995 -47.503914 C -30.949995 -47.703914 -31.11421 -48.560438 -30.83821 -49.065438 C -30.51021 -49.430438 -30.011046 -49.151863 -29.845046 -48.776863 C -29.471046 -49.257863 -30.099913 -49.621426 -30.433913 -49.878426 C -31.040913 -50.339426 -31.948038 -50.813637 -32.637038 -50.244637 C -32.277038 -49.809637 -31.69523 -49.632301 -31.35823 -49.175301 C -31.15823 -48.784301 -31.186952 -48.25607 -31.473952 -47.91407 C -31.783952 -47.66107 -32.192077 -47.592926 -32.552077 -47.440926 C -32.582077 -47.278926 -32.611968 -47.119457 -32.639968 -46.960457 C -32.879968 -46.912457 -33.119206 -46.860508 -33.359206 -46.812508 C -33.489206 -47.901508 -32.20832 -48.201902 -31.50032 -48.691902 C -31.88832 -49.012902 -32.312761 -49.284863 -32.752761 -49.526863 C -32.717761 -49.219863 -32.67332 -48.914801 -32.62532 -48.612801 C -33.59332 -48.371801 -34.646378 -48.080652 -35.310378 -47.285652 C -35.662378 -46.899652 -35.671906 -46.168266 -35.100906 -45.989266 C -33.751906 -45.447266 -32.400972 -46.351527 -31.243972 -46.957527 C -31.899972 -46.170527 -32.923031 -45.656895 -33.929031 -45.483895 C -34.060406 -45.45677 -34.193138 -45.447215 -34.326003 -45.454598 z M -21.401686 -46.408211 C -21.464686 -46.723211 -21.51789 -47.043754 -21.55989 -47.364754 C -20.28689 -48.582754 -19.179577 -50.082035 -18.864577 -51.853035 C -18.646577 -52.670035 -18.792323 -53.508481 -18.854323 -54.334481 C -18.531323 -53.917481 -18.499589 -53.369637 -18.426589 -52.869637 C -18.144589 -50.374637 -19.480686 -47.918211 -21.401686 -46.408211 z M 98.731617 -46.758309 C 96.168617 -47.484309 93.702531 -48.532254 91.193531 -49.427254 C 90.353531 -49.721254 89.360883 -50.128024 89.303883 -51.166024 C 92.000883 -49.898024 94.838281 -48.954285 97.662281 -48.009285 C 98.328281 -47.955285 98.599617 -47.327309 98.731617 -46.758309 z M 11.476732 -47.152352 C 6.7397323 -48.942352 2.0852945 -50.978512 -2.4217055 -53.291512 C -2.9277055 -53.485512 -3.0014048 -54.098391 -3.0384048 -54.567391 C 1.4515952 -52.179391 6.1015253 -50.093125 10.839525 -48.245125 C 11.295525 -48.092125 11.353732 -47.548352 11.476732 -47.152352 z M 79.561207 -47.695809 C 75.558207 -49.039809 71.615499 -50.61316 67.861499 -52.55616 C 67.119499 -52.81916 66.584409 -53.397758 66.594409 -54.218758 C 68.620409 -52.992758 70.774085 -51.9975 72.962085 -51.1045 C 74.978085 -50.2195 77.042726 -49.444906 79.143726 -48.795906 C 79.324726 -48.474906 79.485898 -48.141094 79.594898 -47.788094 L 79.561207 -47.695809 z M -30.526198 -48.20118 C -30.3292 -48.205883 -30.236667 -48.376109 -30.350417 -48.579109 C -30.460417 -48.535109 -30.568077 -48.491738 -30.677077 -48.448738 C -30.662077 -48.389738 -30.632019 -48.268504 -30.617019 -48.208504 C -30.584894 -48.202004 -30.554341 -48.200508 -30.526198 -48.20118 z M -34.006667 -49.050789 C -33.624667 -49.067789 -33.261921 -49.19377 -32.891921 -49.28077 C -32.816921 -49.83577 -33.51996 -49.955813 -33.93196 -50.049813 C -34.12196 -49.743813 -34.051667 -49.385789 -34.006667 -49.050789 z M -30.014968 -50.150887 C -30.022968 -50.520887 -30.010909 -50.893703 -29.954909 -51.262703 C -30.008909 -51.314703 -30.112847 -51.418711 -30.165847 -51.470711 C -30.231847 -51.268711 -30.292882 -51.068195 -30.351882 -50.867195 C -31.278882 -50.739195 -31.518898 -51.878875 -32.267898 -52.088875 C -32.839898 -51.947875 -32.870245 -51.267094 -32.899245 -50.788094 C -31.973245 -51.628094 -30.734968 -50.888887 -30.014968 -50.150887 z M -27.829421 -50.796883 C -27.976421 -51.619883 -27.10178 -51.901879 -26.52278 -52.192879 C -26.80678 -52.493879 -27.190245 -52.92625 -27.649245 -52.69825 C -28.000245 -52.50625 -27.830054 -52.045918 -27.803054 -51.732918 C -28.474054 -52.070918 -29.350093 -52.566317 -29.968093 -51.841317 C -29.876093 -51.722317 -29.785702 -51.602824 -29.692702 -51.486824 C -29.005702 -51.479824 -28.417421 -51.101883 -27.829421 -50.796883 z M 21.387865 -51.199715 C 20.924865 -51.625715 20.451932 -52.212891 20.530932 -52.879891 C 20.732932 -53.100891 21.019537 -53.213895 21.276537 -53.358895 C 21.159537 -53.812895 20.810338 -54.217692 20.847338 -54.700692 C 21.123338 -55.126692 21.734697 -55.031293 22.165697 -54.967293 C 22.453697 -54.876293 22.681514 -54.667711 22.902514 -54.470711 C 22.421514 -54.359711 21.806951 -54.484797 21.425951 -54.133797 C 21.369951 -53.680797 21.876412 -53.240633 21.698412 -52.765633 C 21.488412 -52.512633 21.168932 -52.385738 20.905932 -52.198738 C 21.187932 -51.947738 21.528463 -51.701606 21.550463 -51.287606 C 21.510463 -51.265606 21.428865 -51.221715 21.387865 -51.199715 z M 46.363452 -51.231942 C 46.248452 -51.407942 46.157132 -51.598371 46.085132 -51.797371 C 45.788132 -51.959371 45.631518 -51.720965 45.506518 -51.480965 C 45.358518 -51.708965 45.273596 -52.069242 44.961596 -52.115242 C 44.576596 -52.200242 44.329846 -51.835504 44.117846 -51.583504 C 43.986846 -51.939504 43.946819 -52.329813 44.139819 -52.674813 C 44.511819 -53.456813 44.600835 -54.332426 44.930835 -55.128426 C 45.193835 -54.411426 44.999815 -53.651203 44.785815 -52.950203 C 44.963815 -52.815203 45.142018 -52.681371 45.319018 -52.547371 C 46.128018 -52.797371 46.545452 -51.906942 46.363452 -51.231942 z M 16.307787 -51.598153 C 16.214787 -51.723153 16.120932 -51.849547 16.030932 -51.977547 C 16.120932 -52.772547 16.471627 -53.514438 16.543627 -54.315438 C 16.581627 -54.580438 16.625322 -54.846848 16.681322 -55.110848 C 17.347322 -54.038848 16.671787 -52.685153 16.307787 -51.598153 z M -26.453933 -52.223641 C -26.083933 -52.375641 -25.687151 -52.572781 -25.528151 -52.967781 C -26.065151 -53.140781 -26.660933 -52.860641 -26.453933 -52.223641 z M 49.316577 -52.994149 C 49.206577 -53.209149 49.10603 -53.427004 49.00603 -53.646004 C 49.21603 -53.863004 49.463987 -54.036418 49.736987 -54.170418 C 49.840987 -53.952418 49.941745 -53.735633 50.038745 -53.515633 C 49.808745 -53.326633 49.566577 -53.152149 49.316577 -52.994149 z "
     transform="matrix(1.3333333,0,0,-1.3333333,58.6723,4.24934)" />
</svg>
