<?xml version="1.0" encoding="UTF-8" standalone="no"?>
<!-- Created with Inkscape (http://www.inkscape.org/) -->

<svg
   version="1.1"
   id="svg1"
   width="88.022514"
   height="96.662323"
   viewBox="0 0 88.022511 96.662323"
   sodipodi:docname="s10.svg"
   inkscape:version="1.4 (1:1.4+202410161351+e7c3feb100)"
   xmlns:inkscape="http://www.inkscape.org/namespaces/inkscape"
   xmlns:sodipodi="http://sodipodi.sourceforge.net/DTD/sodipodi-0.dtd"
   xmlns="http://www.w3.org/2000/svg"
   xmlns:svg="http://www.w3.org/2000/svg">
  <defs
     id="defs1">
    <clipPath
       clipPathUnits="userSpaceOnUse"
       id="clipPath10112">
      <path
         d="M 0,595 H 842 V 0 H 0 Z"
         transform="translate(-120.6987,-269.29691)"
         id="path10112" />
    </clipPath>
    <clipPath
       clipPathUnits="userSpaceOnUse"
       id="clipPath10114">
      <path
         d="M 0,595 H 842 V 0 H 0 Z"
         transform="translate(-119.9146,-268.77341)"
         id="path10114" />
    </clipPath>
    <clipPath
       clipPathUnits="userSpaceOnUse"
       id="clipPath10116">
      <path
         d="M 0,595 H 842 V 0 H 0 Z"
         transform="translate(-113.77731,-266.80471)"
         id="path10116" />
    </clipPath>
    <clipPath
       clipPathUnits="userSpaceOnUse"
       id="clipPath10118">
      <path
         d="M 0,595 H 842 V 0 H 0 Z"
         transform="translate(-124.6509,-264.86621)"
         id="path10118" />
    </clipPath>
    <clipPath
       clipPathUnits="userSpaceOnUse"
       id="clipPath10120">
      <path
         d="M 0,595 H 842 V 0 H 0 Z"
         transform="translate(-109.7695,-264.0488)"
         id="path10120" />
    </clipPath>
    <clipPath
       clipPathUnits="userSpaceOnUse"
       id="clipPath10122">
      <path
         d="M 0,595 H 842 V 0 H 0 Z"
         transform="translate(-107.30271,-263.84371)"
         id="path10122" />
    </clipPath>
    <clipPath
       clipPathUnits="userSpaceOnUse"
       id="clipPath10124">
      <path
         d="M 0,595 H 842 V 0 H 0 Z"
         transform="translate(-114.72411,-263.33981)"
         id="path10124" />
    </clipPath>
    <clipPath
       clipPathUnits="userSpaceOnUse"
       id="clipPath10126">
      <path
         d="M 0,595 H 842 V 0 H 0 Z"
         transform="translate(-130.2612,-261.24611)"
         id="path10126" />
    </clipPath>
    <clipPath
       clipPathUnits="userSpaceOnUse"
       id="clipPath10128">
      <path
         d="M 0,595 H 842 V 0 H 0 Z"
         transform="translate(-126.582,-261.54301)"
         id="path10128" />
    </clipPath>
    <clipPath
       clipPathUnits="userSpaceOnUse"
       id="clipPath10130">
      <path
         d="M 0,595 H 842 V 0 H 0 Z"
         transform="translate(-124.0327,-261.2432)"
         id="path10130" />
    </clipPath>
    <clipPath
       clipPathUnits="userSpaceOnUse"
       id="clipPath10132">
      <path
         d="M 0,595 H 842 V 0 H 0 Z"
         transform="translate(-104.8672,-261.02441)"
         id="path10132" />
    </clipPath>
    <clipPath
       clipPathUnits="userSpaceOnUse"
       id="clipPath10134">
      <path
         d="M 0,595 H 842 V 0 H 0 Z"
         transform="translate(-109.4707,-260.77051)"
         id="path10134" />
    </clipPath>
    <clipPath
       clipPathUnits="userSpaceOnUse"
       id="clipPath10136">
      <path
         d="M 0,595 H 842 V 0 H 0 Z"
         transform="translate(-104.4702,-258.79201)"
         id="path10136" />
    </clipPath>
    <clipPath
       clipPathUnits="userSpaceOnUse"
       id="clipPath10138">
      <path
         d="M 0,595 H 842 V 0 H 0 Z"
         transform="translate(-136.4146,-256.6475)"
         id="path10138" />
    </clipPath>
    <clipPath
       clipPathUnits="userSpaceOnUse"
       id="clipPath10140">
      <path
         d="M 0,595 H 842 V 0 H 0 Z"
         transform="translate(-108.64011,-257.90821)"
         id="path10140" />
    </clipPath>
    <clipPath
       clipPathUnits="userSpaceOnUse"
       id="clipPath10142">
      <path
         d="M 0,595 H 842 V 0 H 0 Z"
         transform="translate(-133.9653,-257.27341)"
         id="path10142" />
    </clipPath>
    <clipPath
       clipPathUnits="userSpaceOnUse"
       id="clipPath10144">
      <path
         d="M 0,595 H 842 V 0 H 0 Z"
         transform="translate(-100.9155,-254.18461)"
         id="path10144" />
    </clipPath>
    <clipPath
       clipPathUnits="userSpaceOnUse"
       id="clipPath10146">
      <path
         d="M 0,595 H 842 V 0 H 0 Z"
         transform="translate(-133.9912,-251.3408)"
         id="path10146" />
    </clipPath>
    <clipPath
       clipPathUnits="userSpaceOnUse"
       id="clipPath10148">
      <path
         d="M 0,595 H 842 V 0 H 0 Z"
         transform="translate(-122.5923,-252.83501)"
         id="path10148" />
    </clipPath>
    <clipPath
       clipPathUnits="userSpaceOnUse"
       id="clipPath10150">
      <path
         d="M 0,595 H 842 V 0 H 0 Z"
         transform="translate(-101.72511,-252.19531)"
         id="path10150" />
    </clipPath>
    <clipPath
       clipPathUnits="userSpaceOnUse"
       id="clipPath10152">
      <path
         d="M 0,595 H 842 V 0 H 0 Z"
         transform="translate(-141.4585,-251.19241)"
         id="path10152" />
    </clipPath>
    <clipPath
       clipPathUnits="userSpaceOnUse"
       id="clipPath10154">
      <path
         d="M 0,595 H 842 V 0 H 0 Z"
         transform="translate(-98.7217,-242.39941)"
         id="path10154" />
    </clipPath>
    <clipPath
       clipPathUnits="userSpaceOnUse"
       id="clipPath10156">
      <path
         d="M 0,595 H 842 V 0 H 0 Z"
         transform="translate(-139.3779,-250.05761)"
         id="path10156" />
    </clipPath>
    <clipPath
       clipPathUnits="userSpaceOnUse"
       id="clipPath10158">
      <path
         d="M 0,595 H 842 V 0 H 0 Z"
         transform="translate(-128.87211,-248.2598)"
         id="path10158" />
    </clipPath>
    <clipPath
       clipPathUnits="userSpaceOnUse"
       id="clipPath10160">
      <path
         d="M 0,595 H 842 V 0 H 0 Z"
         transform="translate(-143.6353,-246.03031)"
         id="path10160" />
    </clipPath>
    <clipPath
       clipPathUnits="userSpaceOnUse"
       id="clipPath10162">
      <path
         d="M 0,595 H 842 V 0 H 0 Z"
         transform="translate(-126.8154,-247.2764)"
         id="path10162" />
    </clipPath>
    <clipPath
       clipPathUnits="userSpaceOnUse"
       id="clipPath10164">
      <path
         d="M 0,595 H 842 V 0 H 0 Z"
         transform="translate(-132.01221,-244.5215)"
         id="path10164" />
    </clipPath>
    <clipPath
       clipPathUnits="userSpaceOnUse"
       id="clipPath10166">
      <path
         d="M 0,595 H 842 V 0 H 0 Z"
         transform="translate(-116.0664,-244.9199)"
         id="path10166" />
    </clipPath>
    <clipPath
       clipPathUnits="userSpaceOnUse"
       id="clipPath10168">
      <path
         d="M 0,595 H 842 V 0 H 0 Z"
         transform="translate(-136.0371,-243.63961)"
         id="path10168" />
    </clipPath>
    <clipPath
       clipPathUnits="userSpaceOnUse"
       id="clipPath10170">
      <path
         d="M 0,595 H 842 V 0 H 0 Z"
         transform="translate(-112.10451,-244.81351)"
         id="path10170" />
    </clipPath>
    <clipPath
       clipPathUnits="userSpaceOnUse"
       id="clipPath10172">
      <path
         d="M 0,595 H 842 V 0 H 0 Z"
         transform="translate(-124.86081,-244.6826)"
         id="path10172" />
    </clipPath>
    <clipPath
       clipPathUnits="userSpaceOnUse"
       id="clipPath10174">
      <path
         d="M 0,595 H 842 V 0 H 0 Z"
         transform="translate(-146.2363,-242.1953)"
         id="path10174" />
    </clipPath>
    <clipPath
       clipPathUnits="userSpaceOnUse"
       id="clipPath10176">
      <path
         d="M 0,595 H 842 V 0 H 0 Z"
         transform="translate(-94.194302,-243.41891)"
         id="path10176" />
    </clipPath>
    <clipPath
       clipPathUnits="userSpaceOnUse"
       id="clipPath10178">
      <path
         d="M 0,595 H 842 V 0 H 0 Z"
         transform="translate(-122.27931,-244.1807)"
         id="path10178" />
    </clipPath>
    <clipPath
       clipPathUnits="userSpaceOnUse"
       id="clipPath10180">
      <path
         d="M 0,595 H 842 V 0 H 0 Z"
         transform="translate(-103.4907,-244.01761)"
         id="path10180" />
    </clipPath>
    <clipPath
       clipPathUnits="userSpaceOnUse"
       id="clipPath10182">
      <path
         d="M 0,595 H 842 V 0 H 0 Z"
         transform="translate(-102.9619,-243.041)"
         id="path10182" />
    </clipPath>
    <clipPath
       clipPathUnits="userSpaceOnUse"
       id="clipPath10184">
      <path
         d="M 0,595 H 842 V 0 H 0 Z"
         transform="translate(-136.10841,-241.77731)"
         id="path10184" />
    </clipPath>
    <clipPath
       clipPathUnits="userSpaceOnUse"
       id="clipPath10186">
      <path
         d="M 0,595 H 842 V 0 H 0 Z"
         transform="translate(-94.2529,-241.0088)"
         id="path10186" />
    </clipPath>
    <clipPath
       clipPathUnits="userSpaceOnUse"
       id="clipPath10188">
      <path
         d="M 0,595 H 842 V 0 H 0 Z"
         transform="translate(-100.6885,-239.2373)"
         id="path10188" />
    </clipPath>
    <clipPath
       clipPathUnits="userSpaceOnUse"
       id="clipPath10190">
      <path
         d="M 0,595 H 842 V 0 H 0 Z"
         transform="translate(-142.9663,-240.81151)"
         id="path10190" />
    </clipPath>
    <clipPath
       clipPathUnits="userSpaceOnUse"
       id="clipPath10192">
      <path
         d="M 0,595 H 842 V 0 H 0 Z"
         transform="translate(-105.9849,-240.83591)"
         id="path10192" />
    </clipPath>
    <clipPath
       clipPathUnits="userSpaceOnUse"
       id="clipPath10194">
      <path
         d="M 0,595 H 842 V 0 H 0 Z"
         transform="translate(-139.71831,-238.88671)"
         id="path10194" />
    </clipPath>
    <clipPath
       clipPathUnits="userSpaceOnUse"
       id="clipPath10196">
      <path
         d="M 0,595 H 842 V 0 H 0 Z"
         transform="translate(-145.7847,-240.16991)"
         id="path10196" />
    </clipPath>
    <clipPath
       clipPathUnits="userSpaceOnUse"
       id="clipPath10198">
      <path
         d="M 0,595 H 842 V 0 H 0 Z"
         transform="translate(-109.1235,-239.07811)"
         id="path10198" />
    </clipPath>
    <clipPath
       clipPathUnits="userSpaceOnUse"
       id="clipPath10200">
      <path
         d="M 0,595 H 842 V 0 H 0 Z"
         transform="translate(-106.3687,-238.05271)"
         id="path10200" />
    </clipPath>
    <clipPath
       clipPathUnits="userSpaceOnUse"
       id="clipPath10202">
      <path
         d="M 0,595 H 842 V 0 H 0 Z"
         transform="translate(-95.9302,-235.9463)"
         id="path10202" />
    </clipPath>
    <clipPath
       clipPathUnits="userSpaceOnUse"
       id="clipPath10204">
      <path
         d="M 0,595 H 842 V 0 H 0 Z"
         transform="translate(-150.0288,-234.9092)"
         id="path10204" />
    </clipPath>
    <clipPath
       clipPathUnits="userSpaceOnUse"
       id="clipPath10206">
      <path
         d="M 0,595 H 842 V 0 H 0 Z"
         transform="translate(-110.1943,-236.0234)"
         id="path10206" />
    </clipPath>
    <clipPath
       clipPathUnits="userSpaceOnUse"
       id="clipPath10208">
      <path
         d="M 0,595 H 842 V 0 H 0 Z"
         transform="translate(-130.52781,-234.48241)"
         id="path10208" />
    </clipPath>
    <clipPath
       clipPathUnits="userSpaceOnUse"
       id="clipPath10210">
      <path
         d="M 0,595 H 842 V 0 H 0 Z"
         transform="translate(-135.00291,-236.1074)"
         id="path10210" />
    </clipPath>
    <clipPath
       clipPathUnits="userSpaceOnUse"
       id="clipPath10212">
      <path
         d="M 0,595 H 842 V 0 H 0 Z"
         transform="translate(-101.1235,-234.74221)"
         id="path10212" />
    </clipPath>
    <clipPath
       clipPathUnits="userSpaceOnUse"
       id="clipPath10214">
      <path
         d="M 0,595 H 842 V 0 H 0 Z"
         transform="translate(-124.1323,-235.07231)"
         id="path10214" />
    </clipPath>
    <clipPath
       clipPathUnits="userSpaceOnUse"
       id="clipPath10216">
      <path
         d="M 0,595 H 842 V 0 H 0 Z"
         transform="translate(-98.752405,-233.66111)"
         id="path10216" />
    </clipPath>
    <clipPath
       clipPathUnits="userSpaceOnUse"
       id="clipPath10218">
      <path
         d="M 0,595 H 842 V 0 H 0 Z"
         transform="translate(-138.5557,-234.22661)"
         id="path10218" />
    </clipPath>
    <clipPath
       clipPathUnits="userSpaceOnUse"
       id="clipPath10220">
      <path
         d="M 0,595 H 842 V 0 H 0 Z"
         transform="translate(-145.9971,-232.57711)"
         id="path10220" />
    </clipPath>
    <clipPath
       clipPathUnits="userSpaceOnUse"
       id="clipPath10222">
      <path
         d="M 0,595 H 842 V 0 H 0 Z"
         transform="translate(-102.2427,-233.55371)"
         id="path10222" />
    </clipPath>
    <clipPath
       clipPathUnits="userSpaceOnUse"
       id="clipPath10224">
      <path
         d="M 0,595 H 842 V 0 H 0 Z"
         transform="translate(-113.0518,-231.2441)"
         id="path10224" />
    </clipPath>
    <clipPath
       clipPathUnits="userSpaceOnUse"
       id="clipPath10226">
      <path
         d="M 0,595 H 842 V 0 H 0 Z"
         transform="translate(-99.3667,-232.62301)"
         id="path10226" />
    </clipPath>
    <clipPath
       clipPathUnits="userSpaceOnUse"
       id="clipPath10228">
      <path
         d="M 0,595 H 842 V 0 H 0 Z"
         transform="translate(-122.94681,-232.10351)"
         id="path10228" />
    </clipPath>
    <clipPath
       clipPathUnits="userSpaceOnUse"
       id="clipPath10230">
      <path
         d="M 0,595 H 842 V 0 H 0 Z"
         transform="translate(-145.3413,-226.05571)"
         id="path10230" />
    </clipPath>
    <clipPath
       clipPathUnits="userSpaceOnUse"
       id="clipPath10232">
      <path
         d="M 0,595 H 842 V 0 H 0 Z"
         transform="translate(-94.499005,-232.43651)"
         id="path10232" />
    </clipPath>
    <clipPath
       clipPathUnits="userSpaceOnUse"
       id="clipPath10234">
      <path
         d="M 0,595 H 842 V 0 H 0 Z"
         transform="translate(-122.7046,-230.31251)"
         id="path10234" />
    </clipPath>
    <clipPath
       clipPathUnits="userSpaceOnUse"
       id="clipPath10236">
      <path
         d="M 0,595 H 842 V 0 H 0 Z"
         transform="translate(-91.0288,-231.8018)"
         id="path10236" />
    </clipPath>
    <clipPath
       clipPathUnits="userSpaceOnUse"
       id="clipPath10238">
      <path
         d="M 0,595 H 842 V 0 H 0 Z"
         transform="translate(-152.0728,-230.3711)"
         id="path10238" />
    </clipPath>
    <clipPath
       clipPathUnits="userSpaceOnUse"
       id="clipPath10240">
      <path
         d="M 0,595 H 842 V 0 H 0 Z"
         transform="translate(-149.605,-230.6387)"
         id="path10240" />
    </clipPath>
    <clipPath
       clipPathUnits="userSpaceOnUse"
       id="clipPath10242">
      <path
         d="M 0,595 H 842 V 0 H 0 Z"
         transform="translate(-113.77341,-229.7783)"
         id="path10242" />
    </clipPath>
    <clipPath
       clipPathUnits="userSpaceOnUse"
       id="clipPath10244">
      <path
         d="M 0,595 H 842 V 0 H 0 Z"
         transform="translate(-102.6201,-227.7422)"
         id="path10244" />
    </clipPath>
    <clipPath
       clipPathUnits="userSpaceOnUse"
       id="clipPath10246">
      <path
         d="M 0,595 H 842 V 0 H 0 Z"
         transform="translate(-129.064,-229.625)"
         id="path10246" />
    </clipPath>
    <clipPath
       clipPathUnits="userSpaceOnUse"
       id="clipPath10248">
      <path
         d="M 0,595 H 842 V 0 H 0 Z"
         transform="translate(-143.7246,-227.45701)"
         id="path10248" />
    </clipPath>
    <clipPath
       clipPathUnits="userSpaceOnUse"
       id="clipPath10250">
      <path
         d="M 0,595 H 842 V 0 H 0 Z"
         transform="translate(-91.309105,-228.16991)"
         id="path10250" />
    </clipPath>
    <clipPath
       clipPathUnits="userSpaceOnUse"
       id="clipPath10252">
      <path
         d="M 0,595 H 842 V 0 H 0 Z"
         transform="translate(-131.3379,-228.31451)"
         id="path10252" />
    </clipPath>
    <clipPath
       clipPathUnits="userSpaceOnUse"
       id="clipPath10254">
      <path
         d="M 0,595 H 842 V 0 H 0 Z"
         transform="translate(-136.6821,-225.05861)"
         id="path10254" />
    </clipPath>
    <clipPath
       clipPathUnits="userSpaceOnUse"
       id="clipPath10256">
      <path
         d="M 0,595 H 842 V 0 H 0 Z"
         transform="translate(-107.8242,-226.2803)"
         id="path10256" />
    </clipPath>
    <clipPath
       clipPathUnits="userSpaceOnUse"
       id="clipPath10258">
      <path
         d="M 0,595 H 842 V 0 H 0 Z"
         transform="translate(-95.7061,-225.58201)"
         id="path10258" />
    </clipPath>
    <clipPath
       clipPathUnits="userSpaceOnUse"
       id="clipPath10260">
      <path
         d="M 0,595 H 842 V 0 H 0 Z"
         transform="translate(-150.90381,-226.01071)"
         id="path10260" />
    </clipPath>
    <clipPath
       clipPathUnits="userSpaceOnUse"
       id="clipPath10262">
      <path
         d="M 0,595 H 842 V 0 H 0 Z"
         transform="translate(-95.330605,-213.7949)"
         id="path10262" />
    </clipPath>
    <clipPath
       clipPathUnits="userSpaceOnUse"
       id="clipPath10264">
      <path
         d="M 0,595 H 842 V 0 H 0 Z"
         transform="translate(-104.2173,-212.8652)"
         id="path10264" />
    </clipPath>
    <clipPath
       clipPathUnits="userSpaceOnUse"
       id="clipPath10266">
      <path
         d="M 0,595 H 842 V 0 H 0 Z"
         transform="translate(-125.8281,-223.7021)"
         id="path10266" />
    </clipPath>
    <clipPath
       clipPathUnits="userSpaceOnUse"
       id="clipPath10268">
      <path
         d="M 0,595 H 842 V 0 H 0 Z"
         transform="translate(-101.0835,-223.66801)"
         id="path10268" />
    </clipPath>
    <clipPath
       clipPathUnits="userSpaceOnUse"
       id="clipPath10270">
      <path
         d="M 0,595 H 842 V 0 H 0 Z"
         transform="translate(-102.3594,-223.74221)"
         id="path10270" />
    </clipPath>
    <clipPath
       clipPathUnits="userSpaceOnUse"
       id="clipPath10272">
      <path
         d="M 0,595 H 842 V 0 H 0 Z"
         transform="translate(-131.58501,-222.57911)"
         id="path10272" />
    </clipPath>
    <clipPath
       clipPathUnits="userSpaceOnUse"
       id="clipPath10274">
      <path
         d="M 0,595 H 842 V 0 H 0 Z"
         transform="translate(-142.61721,-221.20411)"
         id="path10274" />
    </clipPath>
    <clipPath
       clipPathUnits="userSpaceOnUse"
       id="clipPath10276">
      <path
         d="M 0,595 H 842 V 0 H 0 Z"
         transform="translate(-148.3521,-220.334)"
         id="path10276" />
    </clipPath>
    <clipPath
       clipPathUnits="userSpaceOnUse"
       id="clipPath10278">
      <path
         d="M 0,595 H 842 V 0 H 0 Z"
         transform="translate(-100.7622,-221.5889)"
         id="path10278" />
    </clipPath>
    <clipPath
       clipPathUnits="userSpaceOnUse"
       id="clipPath10280">
      <path
         d="M 0,595 H 842 V 0 H 0 Z"
         transform="translate(-131.41461,-222.2861)"
         id="path10280" />
    </clipPath>
    <clipPath
       clipPathUnits="userSpaceOnUse"
       id="clipPath10282">
      <path
         d="M 0,595 H 842 V 0 H 0 Z"
         transform="translate(-126.2847,-220.208)"
         id="path10282" />
    </clipPath>
    <clipPath
       clipPathUnits="userSpaceOnUse"
       id="clipPath10284">
      <path
         d="M 0,595 H 842 V 0 H 0 Z"
         transform="translate(-152.2329,-219.74801)"
         id="path10284" />
    </clipPath>
    <clipPath
       clipPathUnits="userSpaceOnUse"
       id="clipPath10286">
      <path
         d="M 0,595 H 842 V 0 H 0 Z"
         transform="translate(-136.0444,-211.67771)"
         id="path10286" />
    </clipPath>
    <clipPath
       clipPathUnits="userSpaceOnUse"
       id="clipPath10288">
      <path
         d="M 0,595 H 842 V 0 H 0 Z"
         transform="translate(-122.8965,-219.9668)"
         id="path10288" />
    </clipPath>
    <clipPath
       clipPathUnits="userSpaceOnUse"
       id="clipPath10290">
      <path
         d="M 0,595 H 842 V 0 H 0 Z"
         transform="translate(-113.1831,-219.95611)"
         id="path10290" />
    </clipPath>
    <clipPath
       clipPathUnits="userSpaceOnUse"
       id="clipPath10292">
      <path
         d="M 0,595 H 842 V 0 H 0 Z"
         transform="translate(-100.28271,-218.11331)"
         id="path10292" />
    </clipPath>
    <clipPath
       clipPathUnits="userSpaceOnUse"
       id="clipPath10294">
      <path
         d="M 0,595 H 842 V 0 H 0 Z"
         transform="translate(-132.1201,-216.78911)"
         id="path10294" />
    </clipPath>
    <clipPath
       clipPathUnits="userSpaceOnUse"
       id="clipPath10296">
      <path
         d="M 0,595 H 842 V 0 H 0 Z"
         transform="translate(-99.2773,-213.35741)"
         id="path10296" />
    </clipPath>
    <clipPath
       clipPathUnits="userSpaceOnUse"
       id="clipPath10298">
      <path
         d="M 0,595 H 842 V 0 H 0 Z"
         transform="translate(-150.31251,-211.9658)"
         id="path10298" />
    </clipPath>
    <clipPath
       clipPathUnits="userSpaceOnUse"
       id="clipPath10300">
      <path
         d="M 0,595 H 842 V 0 H 0 Z"
         transform="translate(-89.5474,-212.3564)"
         id="path10300" />
    </clipPath>
    <clipPath
       clipPathUnits="userSpaceOnUse"
       id="clipPath10302">
      <path
         d="M 0,595 H 842 V 0 H 0 Z"
         transform="translate(-144.8589,-212.70511)"
         id="path10302" />
    </clipPath>
    <clipPath
       clipPathUnits="userSpaceOnUse"
       id="clipPath10304">
      <path
         d="M 0,595 H 842 V 0 H 0 Z"
         transform="translate(-100.624,-211.02151)"
         id="path10304" />
    </clipPath>
    <clipPath
       clipPathUnits="userSpaceOnUse"
       id="clipPath10306">
      <path
         d="M 0,595 H 842 V 0 H 0 Z"
         transform="translate(-146.63871,-210.5381)"
         id="path10306" />
    </clipPath>
    <clipPath
       clipPathUnits="userSpaceOnUse"
       id="clipPath10308">
      <path
         d="M 0,595 H 842 V 0 H 0 Z"
         transform="translate(-120.0981,-211.57711)"
         id="path10308" />
    </clipPath>
    <clipPath
       clipPathUnits="userSpaceOnUse"
       id="clipPath10310">
      <path
         d="M 0,595 H 842 V 0 H 0 Z"
         transform="translate(-98.256805,-211.37501)"
         id="path10310" />
    </clipPath>
    <clipPath
       clipPathUnits="userSpaceOnUse"
       id="clipPath10312">
      <path
         d="M 0,595 H 842 V 0 H 0 Z"
         transform="translate(-117.14601,-210.11131)"
         id="path10312" />
    </clipPath>
    <clipPath
       clipPathUnits="userSpaceOnUse"
       id="clipPath10314">
      <path
         d="M 0,595 H 842 V 0 H 0 Z"
         transform="translate(-143.0566,-210.58111)"
         id="path10314" />
    </clipPath>
    <clipPath
       clipPathUnits="userSpaceOnUse"
       id="clipPath10316">
      <path
         d="M 0,595 H 842 V 0 H 0 Z"
         transform="translate(-133.8096,-209.6885)"
         id="path10316" />
    </clipPath>
    <clipPath
       clipPathUnits="userSpaceOnUse"
       id="clipPath10318">
      <path
         d="M 0,595 H 842 V 0 H 0 Z"
         transform="translate(-114.16551,-208.0508)"
         id="path10318" />
    </clipPath>
    <clipPath
       clipPathUnits="userSpaceOnUse"
       id="clipPath10320">
      <path
         d="M 0,595 H 842 V 0 H 0 Z"
         transform="translate(-131.5234,-210.05081)"
         id="path10320" />
    </clipPath>
    <clipPath
       clipPathUnits="userSpaceOnUse"
       id="clipPath10322">
      <path
         d="M 0,595 H 842 V 0 H 0 Z"
         transform="translate(-95.6875,-208.46581)"
         id="path10322" />
    </clipPath>
    <clipPath
       clipPathUnits="userSpaceOnUse"
       id="clipPath10324">
      <path
         d="M 0,595 H 842 V 0 H 0 Z"
         transform="translate(-139.64991,-205.79791)"
         id="path10324" />
    </clipPath>
    <clipPath
       clipPathUnits="userSpaceOnUse"
       id="clipPath10326">
      <path
         d="M 0,595 H 842 V 0 H 0 Z"
         transform="translate(-146.293,-204.55471)"
         id="path10326" />
    </clipPath>
    <clipPath
       clipPathUnits="userSpaceOnUse"
       id="clipPath10328">
      <path
         d="M 0,595 H 842 V 0 H 0 Z"
         transform="translate(-105.7305,-203.91991)"
         id="path10328" />
    </clipPath>
    <clipPath
       clipPathUnits="userSpaceOnUse"
       id="clipPath10330">
      <path
         d="M 0,595 H 842 V 0 H 0 Z"
         transform="translate(-137.4922,-202.11521)"
         id="path10330" />
    </clipPath>
    <clipPath
       clipPathUnits="userSpaceOnUse"
       id="clipPath10332">
      <path
         d="M 0,595 H 842 V 0 H 0 Z"
         transform="translate(-139.6221,-201.7979)"
         id="path10332" />
    </clipPath>
    <clipPath
       clipPathUnits="userSpaceOnUse"
       id="clipPath10334">
      <path
         d="M 0,595 H 842 V 0 H 0 Z"
         transform="translate(-135.0576,-201.41801)"
         id="path10334" />
    </clipPath>
    <clipPath
       clipPathUnits="userSpaceOnUse"
       id="clipPath10336">
      <path
         d="M 0,595 H 842 V 0 H 0 Z"
         transform="translate(-133.0264,-200.90231)"
         id="path10336" />
    </clipPath>
    <clipPath
       clipPathUnits="userSpaceOnUse"
       id="clipPath10338">
      <path
         d="M 0,595 H 842 V 0 H 0 Z"
         transform="translate(-134.80221,-200.7812)"
         id="path10338" />
    </clipPath>
    <clipPath
       clipPathUnits="userSpaceOnUse"
       id="clipPath10340">
      <path
         d="M 0,595 H 842 V 0 H 0 Z"
         transform="translate(-126.2622,-200.29591)"
         id="path10340" />
    </clipPath>
    <clipPath
       clipPathUnits="userSpaceOnUse"
       id="clipPath10342">
      <path
         d="M 0,595 H 842 V 0 H 0 Z"
         transform="translate(-135.5083,-199.64161)"
         id="path10342" />
    </clipPath>
  </defs>
  <sodipodi:namedview
     id="namedview1"
     pagecolor="#ffffff"
     bordercolor="#000000"
     borderopacity="0.25"
     inkscape:showpageshadow="2"
     inkscape:pageopacity="0.0"
     inkscape:pagecheckerboard="0"
     inkscape:deskcolor="#d1d1d1"
     inkscape:zoom="1.4276504"
     inkscape:cx="-5.9538387"
     inkscape:cy="65.142"
     inkscape:window-width="1190"
     inkscape:window-height="788"
     inkscape:window-x="50"
     inkscape:window-y="61"
     inkscape:window-maximized="1"
     inkscape:current-layer="svg1">
    <inkscape:page
       x="0"
       y="0"
       width="88.022514"
       height="96.662323"
       id="page2"
       margin="0"
       bleed="0" />
  </sodipodi:namedview>
  <path
     id="path10111"
     clip-path="url(#clipPath10112)"
     style="fill:#00a651;fill-opacity:1;fill-rule:nonzero;stroke:none"
     d="M 0.13538532 0.63699002 C 0.047385316 0.43599002 0.010619688 0.21878297 0.00061968752 -0.00021703126 C 0.36461969 -0.15121703 0.68724862 -0.37970533 0.99524862 -0.62570533 C 1.0062486 -0.050705328 0.52938532 0.30799002 0.13538532 0.63699002 z M -0.78453658 -0.52316626 C -0.81753658 -0.94416626 -0.74468891 -1.4470686 -0.34068891 -1.6730686 C 0.23631109 -1.8780686 0.87426034 -1.4391077 0.93226034 -0.83810768 C 0.36526034 -1.2761077 -0.51853658 -1.3121663 -0.78453658 -0.52316626 z M -6.9207672 -2.4919163 C -6.9827672 -2.8619163 -6.9328024 -3.2329281 -6.7318024 -3.5539281 C -6.6348024 -3.5549281 -6.5387633 -3.5567874 -6.4417633 -3.5597874 C -6.3707633 -3.4867874 -6.2998961 -3.4139906 -6.2278961 -3.3429906 C -6.2198961 -3.2689906 -6.2041344 -3.1249515 -6.1971344 -3.0529515 C -6.3391344 -3.0509515 -6.4800094 -3.050557 -6.6190094 -3.048557 C -6.7170094 -2.860557 -6.8167672 -2.6759163 -6.9207672 -2.4919163 z M 5.4967136 -2.7057835 C 4.6464267 -2.7193663 4.1215182 -3.682307 3.9527682 -4.4313695 C 4.3557682 -3.8923695 4.864198 -3.1944593 5.643198 -3.4484593 C 5.208198 -4.2644593 4.322819 -4.648639 3.429819 -4.482639 C 3.251819 -4.302639 3.0716862 -4.1250413 2.8936862 -3.9450413 C 2.7846862 -3.9430413 2.6764908 -3.941182 2.5684908 -3.939182 C 2.3504908 -4.199182 2.2017408 -4.5034125 2.0997408 -4.8254125 C 2.3077408 -4.6854125 2.5208073 -4.5503695 2.7428073 -4.4313695 C 3.0388073 -4.7073695 3.2955612 -5.0746664 3.6905612 -5.2106664 C 4.9435612 -5.2346664 5.89403 -3.9080374 5.67103 -2.7160374 C 5.6114675 -2.7081624 5.5533994 -2.704878 5.4967136 -2.7057835 z M -10.404166 -4.3361546 C -10.701166 -4.5581546 -10.83858 -4.9007523 -10.92858 -5.2487523 C -10.60958 -5.0647523 -10.243076 -5.0514789 -9.8870759 -5.0934789 C -9.8300759 -4.7154789 -10.086166 -4.4801546 -10.404166 -4.3361546 z M -13.395377 -5.4538304 C -13.415377 -5.7378304 -13.468631 -6.0292289 -13.405631 -6.3122289 C -13.173631 -6.8122289 -12.591963 -6.9277367 -12.120963 -7.0827367 C -11.747963 -7.4717367 -11.537396 -7.9837602 -11.290396 -8.4567602 C -11.246396 -8.2707602 -11.197306 -8.0865844 -11.148306 -7.9015844 C -11.809306 -7.0175844 -12.218377 -5.7958304 -13.395377 -5.4538304 z M -5.5496734 -5.7614476 C -5.7026734 -5.8004476 -5.9064781 -5.7797367 -5.9744781 -5.9577367 C -6.3234781 -6.5757367 -6.5667164 -7.2577836 -6.6937164 -7.9557836 C -6.3007164 -7.7697836 -5.8038336 -7.8938266 -5.6888336 -8.3498266 C -4.9508336 -10.553827 -5.0293218 -12.909506 -4.8143218 -15.196506 C -4.7843218 -17.237506 -4.6890914 -19.273624 -4.6780914 -21.316624 C -4.3350914 -21.285624 -3.9572085 -21.286741 -3.6732085 -21.061741 C -3.8262085 -17.800741 -4.1311656 -14.545768 -4.4041656 -11.289768 C -4.7061656 -9.4387681 -4.6446734 -7.4554476 -5.5496734 -5.7614476 z M 10.229624 -6.5407445 C 9.9246238 -7.0037445 9.7781199 -7.5449985 9.5631199 -8.0509985 C 9.4481199 -8.3609985 9.2548191 -8.7079087 9.4298191 -9.0339087 C 9.7648191 -9.7429087 9.7585535 -10.538487 9.8575535 -11.301487 C 10.067554 -14.143487 10.562807 -16.963089 10.617807 -19.818089 C 10.728807 -20.821089 10.847143 -21.827202 10.937143 -22.834202 C 11.448143 -22.344202 11.9713 -21.865429 12.4723 -21.366429 C 12.0113 -18.094429 11.637932 -14.814538 11.320932 -11.528538 C 11.900932 -11.527538 12.123163 -12.211756 12.582163 -12.477756 C 12.588163 -12.096756 12.448124 -11.741096 12.292124 -11.401096 C 11.629124 -9.7710962 11.041624 -8.1057445 10.229624 -6.5407445 z M 6.0943698 -7.746311 C 6.0433698 -7.748311 5.9364323 -7.7516352 5.8834323 -7.7536352 C 5.8834323 -7.9136352 5.8838972 -8.0745688 5.8848972 -8.2355688 C 7.1868972 -9.3525688 7.6852488 -11.024987 8.1202488 -12.613987 C 8.1512488 -10.820987 7.3603698 -9.014311 6.0943698 -7.746311 z M 3.5338229 -8.0509985 C 3.4838229 -8.0519985 3.3846041 -8.0539282 3.3346041 -8.0539282 C 3.1486041 -8.8079282 2.5299557 -9.6071001 2.9449557 -10.3801 C 3.1949557 -10.9581 3.2574088 -11.591366 3.3844088 -12.202366 C 3.7364088 -14.896366 5.3493933 -17.274151 5.5933933 -19.982151 C 4.7383933 -20.948151 3.2700533 -20.797421 2.1700533 -20.408421 C 0.94005334 -19.936421 0.46677204 -18.543432 0.30677204 -17.345432 C 0.029772039 -15.471432 0.022025927 -13.559178 -0.43297407 -11.710178 C -0.69897407 -10.658178 -0.80757175 -9.5359477 -1.3455718 -8.5739477 C -1.6545718 -9.4549477 -2.2487905 -10.379573 -1.9197905 -11.339573 C -1.5107905 -13.290573 -1.1987007 -15.266147 -1.0277007 -17.253147 C -1.0417007 -18.223147 -1.1171772 -19.257112 -1.7161772 -20.067112 C -2.4611772 -21.016112 -3.6010836 -21.774104 -4.8450836 -21.734104 C -6.0260836 -21.802104 -7.0425407 -20.786534 -7.2635407 -19.674534 C -7.7635407 -17.543534 -7.2457281 -15.379194 -7.0057281 -13.251194 C -6.8867281 -12.566194 -6.9409 -11.866694 -7.0819 -11.188694 C -7.2709 -11.267694 -7.4878493 -11.328424 -7.6048493 -11.512424 C -8.8778493 -13.190424 -9.3011774 -15.308362 -9.5911774 -17.348362 C -9.8531774 -18.936362 -9.5504626 -20.699147 -10.433463 -22.128147 C -10.896463 -22.859147 -11.963904 -22.716483 -12.435904 -22.072483 C -13.820904 -20.311483 -13.94058 -17.975081 -14.30358 -15.860081 C -14.50258 -17.980081 -14.123888 -20.171018 -13.144888 -22.071018 C -12.786888 -22.764018 -12.279998 -23.422983 -11.556998 -23.759983 C -11.235998 -23.927983 -10.812677 -23.921347 -10.528677 -23.682347 C -9.9346775 -23.195347 -9.6868688 -22.414046 -9.6248688 -21.674046 C -9.4378688 -19.692046 -9.4415563 -17.659217 -8.8045563 -15.750217 C -8.5685563 -15.054217 -8.4328258 -14.182721 -7.7308258 -13.791721 C -7.6648258 -13.836721 -7.5326891 -13.928362 -7.4656891 -13.973362 C -7.7206891 -16.578362 -8.2364938 -19.282011 -7.5154938 -21.863011 C -7.0874938 -23.519011 -5.022314 -24.507081 -3.481314 -23.735081 C -2.443314 -23.147081 -1.6672319 -22.135077 -1.2972319 -21.006077 C -1.0422319 -20.291077 -0.99588814 -19.524487 -0.76988814 -18.801487 C -0.58188814 -18.810487 -0.37235298 -18.823018 -0.39635298 -19.071018 C -0.22735298 -20.400018 0.28735019 -21.789347 1.4493502 -22.557347 C 2.4593502 -23.139347 3.7984636 -23.309409 4.8404636 -22.721409 C 5.6174636 -22.118409 5.8150847 -21.099159 6.0020847 -20.190159 C 6.2350847 -19.234159 6.2651745 -18.230542 6.1441745 -17.257542 C 5.6091745 -15.099542 4.6242331 -13.054596 4.3292331 -10.838596 C 4.5912331 -10.825596 4.8547839 -10.834991 5.1187839 -10.842991 C 4.6067839 -9.9029907 4.0598229 -8.9839985 3.5338229 -8.0509985 z M -15.831412 -8.2721899 C -16.117412 -8.7411899 -15.839197 -9.3195571 -16.111197 -9.7985571 C -15.715197 -9.5335571 -15.279181 -9.6272524 -14.945181 -9.9362524 C -14.872181 -9.8102524 -14.798525 -9.6837876 -14.722525 -9.5597876 C -14.444525 -9.6067876 -14.196158 -9.7351509 -13.946158 -9.8571509 C -14.305158 -9.0891509 -14.976412 -8.4271899 -15.831412 -8.2721899 z M -11.227408 -8.5270727 C -11.331408 -8.7910727 -11.438349 -9.0511587 -11.542349 -9.3151587 C -11.244349 -9.2891587 -10.943935 -9.2747915 -10.642935 -9.2887915 C -10.633935 -9.3887915 -10.625568 -9.4895493 -10.616568 -9.5905493 C -11.167568 -9.7265493 -11.691451 -9.9668501 -11.996451 -10.47385 C -11.424451 -10.30685 -10.842681 -10.191667 -10.257681 -10.085667 C -9.9526814 -9.9606665 -10.043588 -9.5659751 -10.011588 -9.3019751 C -10.335588 -8.9379751 -10.712408 -8.5670727 -11.227408 -8.5270727 z M -13.809928 -10.412327 C -14.600928 -10.579327 -15.430385 -10.642612 -16.228385 -10.504612 C -16.134385 -10.837612 -15.960846 -11.137885 -15.750846 -11.409885 C -16.878846 -12.703885 -18.815385 -13.127405 -19.603385 -14.742405 C -18.954385 -14.133405 -18.22915 -13.614288 -17.48815 -13.122288 C -16.71515 -12.578288 -16.085689 -11.857979 -15.340689 -11.280979 C -14.832689 -11.000979 -13.779928 -11.247327 -13.809928 -10.412327 z M 16.45814 -11.217991 C 15.775699 -11.219442 15.707714 -12.124081 15.715464 -12.649143 C 15.841464 -12.403143 15.919468 -12.090596 16.194468 -11.963596 C 16.462468 -12.011596 16.709046 -12.140057 16.962046 -12.236057 C 16.968046 -12.042057 16.976019 -11.847049 16.984019 -11.653049 C 16.831019 -11.509049 16.677522 -11.36492 16.525522 -11.22092 C 16.50221 -11.219045 16.480154 -11.217944 16.45814 -11.217991 z M -12.057974 -11.389377 C -12.190974 -12.090377 -11.831861 -12.733284 -11.666861 -13.393284 C -11.624861 -12.701284 -11.922974 -12.057377 -12.057974 -11.389377 z M 13.266245 -12.023655 C 13.256245 -12.274655 13.256386 -12.526049 13.260386 -12.778049 C 13.569386 -12.991049 13.902452 -13.177081 14.278452 -13.235081 C 14.801452 -13.675081 14.921128 -14.393452 15.396128 -14.865452 C 15.428128 -14.583452 15.441862 -14.298842 15.448862 -14.015842 C 15.372862 -14.017842 15.22071 -14.023561 15.14271 -14.027561 C 14.72671 -13.233561 14.317245 -12.072655 13.266245 -12.023655 z M -16.358756 -14.450901 C -17.353756 -15.111901 -18.60656 -15.54601 -19.78356 -15.11301 C -19.80456 -15.42601 -19.79635 -15.840393 -19.41735 -15.930393 C -18.19835 -16.209393 -17.048756 -15.388901 -16.358756 -14.450901 z M 19.187144 -14.943088 C 17.285144 -16.063088 15.314612 -17.071272 13.292612 -17.956272 C 14.779612 -17.812272 16.04387 -16.795323 17.53187 -16.683323 C 17.16387 -17.512323 16.352522 -18.00451 15.775522 -18.67551 C 13.366522 -20.90351 10.979268 -23.156202 8.6402683 -25.459202 C 8.7992683 -25.729202 8.9598777 -25.99919 9.1148777 -26.27219 C 10.205878 -25.46219 11.10785 -24.43544 12.13685 -23.55344 C 13.66585 -22.03544 15.267147 -20.585577 16.666147 -18.943577 C 17.473147 -18.012577 18.069804 -16.927745 18.763804 -15.915745 C 18.964804 -15.620745 19.120144 -15.295088 19.187144 -14.943088 z M 1.8931979 -16.462132 C 1.8551979 -16.807132 1.9519947 -17.135647 2.1099947 -17.440647 C 2.4219947 -17.471647 2.6550573 -17.330335 2.6490573 -16.995335 C 2.4960573 -16.917335 2.3416315 -16.840354 2.1876315 -16.765354 C 2.1856315 -16.695354 2.1842369 -16.558964 2.1832369 -16.489964 C 2.1102369 -16.482964 1.9651979 -16.469132 1.8931979 -16.462132 z M -18.973502 -17.102268 C -18.977502 -17.914268 -18.762057 -18.70626 -18.742057 -19.51926 C -17.453057 -20.30026 -16.874881 -21.784979 -15.936881 -22.905979 C -14.325881 -24.821979 -12.797447 -26.805323 -11.142447 -28.683323 C -10.028447 -29.829323 -8.9160133 -30.976257 -7.8480133 -32.165257 C -6.3260133 -33.713257 -4.753064 -35.21071 -3.200064 -36.72971 C -3.994064 -38.04971 -5.0326187 -39.312191 -5.2186187 -40.897191 C -5.3566187 -41.952191 -5.5176773 -43.162269 -4.9036773 -44.102269 C -4.5176773 -44.706269 -3.7009898 -44.645226 -3.0989898 -44.458226 C -2.9059898 -44.403226 -2.7109116 -44.334542 -2.5189116 -44.257542 C -1.3049116 -43.767542 -0.18173187 -42.856777 0.015268125 -41.497777 C 0.065268125 -40.519777 0.080658748 -39.52537 -0.084341252 -38.55637 C -0.26734125 -37.72037 -0.79521628 -37.025413 -1.2562163 -36.325413 C -1.4022163 -36.107413 -1.1718842 -35.889222 -1.0408842 -35.729222 C 1.0841158 -33.434222 3.436073 -31.367878 5.690073 -29.201878 C 5.683073 -28.898878 5.6747058 -28.59714 5.6637058 -28.29514 C 4.9797058 -28.67314 4.5051042 -29.31328 3.8971042 -29.78928 C 1.8821042 -31.59728 -0.016060049 -33.528632 -1.97106 -35.399632 L -2.5189116 -34.881077 C -4.9659116 -32.561077 -7.3383649 -30.160936 -9.7083649 -27.761936 C -11.491365 -25.776936 -13.373533 -23.868089 -14.930533 -21.693089 C -15.203533 -21.266089 -15.709971 -20.928194 -15.703971 -20.376194 C -15.282971 -20.479194 -14.860697 -20.596288 -14.423697 -20.622288 C -14.426697 -20.560288 -14.432416 -20.438194 -14.435416 -20.376194 C -15.856416 -19.166194 -17.364502 -18.047268 -18.973502 -17.102268 z M 20.760386 -18.104221 C 20.760386 -18.210221 20.761316 -18.317557 20.763316 -18.423557 C 21.699316 -19.314557 22.565698 -20.377132 22.705698 -21.712132 C 22.795698 -20.307132 21.830351 -19.117729 20.949351 -18.124729 C 20.901351 -18.119729 20.807386 -18.109221 20.760386 -18.104221 z M -21.528189 -18.804417 C -21.688277 -18.802835 -21.837682 -18.847014 -21.976432 -18.920139 C -22.306432 -19.095139 -22.57542 -19.436198 -22.78942 -19.730198 C -23.44442 -20.685198 -23.856037 -21.840194 -23.847037 -23.001194 C -23.740037 -24.019194 -22.772432 -24.458858 -21.976432 -24.931858 C -21.874432 -24.993858 -21.775533 -25.054893 -21.680533 -25.117893 C -21.697533 -25.433893 -21.823432 -25.7248 -21.976432 -25.9968 L -22.045279 -26.115452 C -23.556279 -28.778452 -25.856565 -30.866128 -28.137565 -32.858128 C -28.831565 -33.524128 -29.640104 -34.103644 -30.115104 -34.961644 C -29.477104 -34.562644 -28.966924 -33.99362 -28.330924 -33.58762 C -26.685924 -32.46162 -25.187643 -31.135698 -23.842643 -29.667698 C -23.127643 -28.807698 -22.534432 -27.862679 -21.976432 -26.897679 C -21.750432 -26.506679 -21.530928 -26.112944 -21.309928 -25.719944 C -20.816928 -25.354944 -20.338607 -26.107206 -19.906607 -26.313206 C -19.787607 -25.458206 -19.571627 -24.416733 -20.426627 -23.853733 C -20.323627 -22.950733 -19.831232 -22.078096 -20.047232 -21.151096 C -20.124232 -20.288096 -20.370361 -19.261081 -21.229361 -18.860081 C -21.333236 -18.822956 -21.432137 -18.805366 -21.528189 -18.804417 z M 7.9913425 -19.173557 C 7.9213425 -19.794557 7.7919832 -20.485839 8.1729832 -21.036839 C 8.6099832 -21.036839 8.8050691 -20.628839 8.9610691 -20.286839 C 8.6910691 -20.300839 8.4147996 -20.301272 8.1597996 -20.206272 C 8.1237996 -19.859272 8.0543425 -19.515557 7.9913425 -19.173557 z M 18.678843 -19.239475 C 18.388843 -19.843475 18.068753 -20.429374 17.786753 -21.035374 C 18.205753 -22.086374 18.118081 -23.235667 18.273081 -24.335667 C 18.357081 -25.613667 18.574901 -26.877726 18.738901 -28.145726 C 19.189901 -27.719726 19.622655 -27.27755 20.061655 -26.84055 C 20.023655 -25.72555 19.750991 -24.633143 19.630991 -23.524143 C 20.204991 -23.566143 20.357687 -24.297897 20.893687 -24.471897 C 20.495687 -22.645897 19.521851 -20.99494 18.886851 -19.24094 C 18.835851 -19.23994 18.730843 -19.239475 18.678843 -19.239475 z M -21.976432 -20.806858 C -21.943432 -20.806858 -21.910822 -20.810182 -21.876822 -20.814182 C -20.762822 -20.958182 -20.542326 -22.559081 -21.043326 -23.360081 C -21.368326 -23.289081 -21.683432 -23.155686 -21.976432 -22.980686 C -22.438432 -22.704686 -22.84842 -22.323026 -23.16442 -21.904026 L -23.16442 -21.524632 C -22.87142 -21.157632 -22.468432 -20.801858 -21.976432 -20.806858 z M 25.245738 -21.810276 C 24.422738 -22.207276 23.738144 -22.828331 22.937144 -23.266331 C 22.347144 -23.682331 21.677894 -23.995194 21.155894 -24.501194 C 21.845894 -24.426194 22.459362 -24.0653 23.136362 -23.9343 C 22.571362 -24.8313 21.746128 -25.519444 21.021128 -26.282444 C 18.810128 -28.455444 16.478491 -30.502386 14.193491 -32.597386 C 14.193491 -32.696386 14.193956 -32.795214 14.194956 -32.896214 C 14.381956 -33.048214 14.568851 -33.198921 14.761851 -33.345921 C 16.716851 -31.468921 18.813175 -29.750659 20.769175 -27.877659 C 22.178175 -26.606659 23.447749 -25.168257 24.432749 -23.540257 C 24.757749 -22.994257 25.130738 -22.448276 25.245738 -21.810276 z M 6.1163425 -22.021214 C 5.8653425 -22.757214 5.645737 -23.504128 5.370737 -24.233128 C 5.570737 -24.524128 5.7344714 -24.841136 5.7984714 -25.191136 C 6.0944714 -26.913136 6.2367605 -28.653796 6.3697605 -30.392796 C 6.4977605 -33.082796 6.8303347 -35.760042 7.0333347 -38.445042 C 7.5523347 -38.207042 7.9067644 -37.741214 8.3487644 -37.396214 C 8.1997644 -34.392214 7.794198 -31.405862 7.518198 -28.410862 C 7.614198 -28.317862 7.7097722 -28.226007 7.8067722 -28.134007 C 9.2817722 -29.803007 10.372823 -31.852874 12.158823 -33.222874 C 12.055823 -32.633874 11.920882 -32.051202 11.843882 -31.459202 C 11.762882 -30.866202 11.799917 -30.173913 11.279917 -29.762913 C 9.2859168 -27.698913 7.8970378 -25.166405 6.6290378 -22.617405 C 6.5160378 -22.374405 6.3453425 -22.163214 6.1163425 -22.021214 z M 12.730112 -23.571018 C 12.192112 -23.867018 11.668608 -24.29112 11.313608 -24.77512 C 11.527608 -27.09912 12.000768 -29.398804 12.202768 -31.725804 C 12.721768 -36.204804 13.033136 -40.703085 12.979136 -45.214085 C 13.071136 -45.227085 13.164456 -45.241101 13.257456 -45.255101 C 13.894456 -42.752101 14.321276 -40.154925 14.098276 -37.574925 C 14.069276 -35.893925 14.209858 -34.196257 13.844858 -32.540257 C 13.475858 -29.550257 13.165112 -26.553018 12.730112 -23.571018 z M 15.180796 -24.113011 C 14.948796 -24.630011 14.984999 -25.208956 15.338999 -25.656956 C 15.741999 -25.675956 15.862108 -25.286128 16.001108 -24.983128 C 15.796108 -24.988128 15.590804 -24.9951 15.388804 -25.0051 C 15.272804 -24.7191 15.213796 -24.418011 15.180796 -24.113011 z M -3.6673492 -24.252171 C -3.9923492 -24.262171 -4.3166812 -24.302682 -4.6326812 -24.376682 C -4.5886812 -26.440682 -4.7075992 -28.53962 -4.3235992 -30.58762 C -4.1615992 -31.37462 -3.7009976 -32.160593 -2.9319976 -32.484593 C -1.6189976 -32.974593 0.079174388 -32.317858 0.51917439 -30.931858 C 1.2391744 -28.899858 0.89579546 -26.559526 -0.19420454 -24.716526 C -0.29220454 -24.578526 -0.36069673 -24.37778 -0.54869673 -24.35178 C -0.76569673 -25.05278 -1.0219311 -25.757339 -1.1639311 -26.474339 C -0.65693112 -27.496339 -0.019989681 -28.475132 0.27601032 -29.587132 C -0.47198968 -30.219132 -1.5584312 -30.427319 -2.4764312 -30.079319 C -3.0184312 -29.855319 -3.2486343 -29.255269 -3.3846343 -28.727269 C -3.7346343 -27.263269 -3.6533492 -25.745171 -3.6673492 -24.252171 z M -8.5936188 -24.483616 C -8.5936188 -24.563616 -8.5946188 -24.722487 -8.5936188 -24.801487 C -7.8236188 -25.327487 -7.2961656 -26.099054 -6.6541656 -26.757054 C -7.0561656 -25.837054 -7.7076188 -24.980616 -8.5936188 -24.483616 z M 4.4010104 -24.507054 C 4.3171225 -24.506374 4.2359909 -24.534925 4.1622409 -24.613987 C 3.8482409 -24.944987 3.8265651 -25.432034 3.7945651 -25.862034 C 3.9585651 -25.323034 4.4561159 -25.183972 4.9591159 -25.322972 C 4.9551159 -25.119972 4.9547214 -24.918991 4.9547214 -24.717991 C 4.7849089 -24.653366 4.5855639 -24.508549 4.4010104 -24.507054 z M 25.922495 -24.507054 C 25.621495 -25.309054 25.063241 -26.269292 25.537241 -27.101292 C 26.088241 -27.619292 26.406085 -26.662979 26.627085 -26.280979 C 26.342085 -26.479979 25.969191 -26.665151 25.685191 -26.357151 C 25.607191 -25.720151 25.887495 -25.131054 25.922495 -24.507054 z M -25.982779 -24.627171 C -26.246779 -24.998171 -26.449264 -25.421147 -26.504264 -25.878147 C -26.296264 -25.477147 -26.101779 -25.065171 -25.982779 -24.627171 z M 1.5811861 -25.116429 C 1.2601861 -25.768429 1.8515612 -26.57062 2.5655612 -26.46262 C 2.9795612 -26.87962 3.116737 -27.47421 3.495737 -27.91721 C 3.512737 -27.69821 3.5242174 -27.479425 3.5382174 -27.262425 C 3.4362174 -27.220425 3.3345299 -27.178913 3.2335299 -27.137913 C 2.9415299 -26.305913 2.4101861 -25.487429 1.5811861 -25.116429 z M -17.058951 -25.265843 C -17.107505 -25.266365 -17.157896 -25.270901 -17.208365 -25.279026 C -17.206365 -25.444026 -17.203576 -25.609608 -17.199576 -25.775608 C -16.787576 -25.910608 -16.396631 -26.101714 -16.030631 -26.333714 C -16.057365 -25.763995 -16.486013 -25.259679 -17.058951 -25.265843 z M -17.737174 -26.256077 C -17.774174 -26.731077 -17.748506 -27.389253 -17.202506 -27.561253 C -16.643506 -27.701253 -16.226451 -27.182671 -16.121451 -26.689671 C -16.500451 -26.830671 -16.88951 -27.031089 -17.30651 -26.943089 C -17.57851 -26.823089 -17.626174 -26.497077 -17.737174 -26.256077 z M -26.745963 -26.865452 C -26.781963 -27.349452 -26.82767 -27.918815 -26.44567 -28.287815 C -26.05367 -28.460815 -25.883475 -28.058655 -25.745475 -27.773655 C -25.950475 -27.774655 -26.154244 -27.77605 -26.359244 -27.77805 C -26.530244 -27.49405 -26.647963 -27.181452 -26.745963 -26.865452 z M 15.564585 -26.918186 C 15.413585 -27.083186 15.435311 -27.314237 15.409311 -27.520237 C 15.733311 -27.669237 16.04746 -27.837101 16.36146 -28.005101 C 16.36046 -28.090101 16.36046 -28.175913 16.36146 -28.262913 C 16.00946 -28.517913 15.594358 -28.663222 15.157358 -28.604222 C 15.049358 -28.424222 14.941093 -28.247089 14.835093 -28.068089 C 14.591093 -28.555089 14.822644 -29.049249 15.249644 -29.332249 C 16.159644 -29.301249 16.650069 -28.377464 16.461069 -27.552464 C 16.200069 -27.293464 15.925585 -27.029186 15.564585 -26.918186 z M -20.077994 -28.030003 C -20.063994 -28.703003 -20.173611 -29.414276 -20.010611 -30.060276 C -18.596611 -31.148276 -17.847728 -32.819136 -16.755728 -34.191136 C -15.511728 -36.004136 -13.967408 -37.58898 -12.727408 -39.40598 C -12.206408 -40.04298 -11.52881 -40.54171 -11.06481 -41.22971 C -9.4738103 -43.12171 -7.8436383 -44.983242 -6.1136383 -46.749242 C -5.4336383 -47.442242 -4.7073804 -48.097195 -4.1243804 -48.876195 C -4.5623804 -49.520195 -5.1142086 -50.079293 -5.5482086 -50.726293 C -6.4692086 -52.095293 -6.9585094 -53.788695 -6.8065094 -55.438695 C -6.7295094 -56.102695 -6.4392125 -56.98084 -5.6522125 -57.03684 C -5.0332125 -57.05684 -4.4067632 -56.957125 -3.8167632 -56.754125 C -3.3607632 -56.597125 -2.9270249 -56.379199 -2.5350249 -56.105199 C -1.5300249 -55.406199 -1.1611538 -54.130039 -1.0921538 -52.966039 C -1.1391538 -52.252039 -0.87339206 -51.539226 -1.0613921 -50.833226 C -1.2603921 -50.071226 -1.4979351 -49.285582 -2.0179351 -48.672582 C -2.0199351 -48.585582 -2.0217944 -48.499304 -2.0237944 -48.413304 C -0.46279443 -46.814304 1.351026 -45.492093 2.942026 -43.922093 C 4.502026 -42.429093 6.2366746 -41.130976 7.8316746 -39.676976 C 8.8426746 -38.626976 10.072163 -37.820261 11.082163 -36.769261 C 11.451163 -36.377261 11.868503 -36.034839 12.255503 -35.661839 C 12.251503 -35.281839 12.245108 -34.902655 12.251108 -34.523655 C 12.151108 -34.528655 12.051745 -34.534769 11.953745 -34.539769 C 10.401745 -36.112769 8.6654363 -37.488347 7.1124363 -39.057347 C 4.5784363 -41.323347 1.943272 -43.46823 -0.63072798 -45.68723 C -1.381728 -46.33123 -1.9938413 -47.188289 -2.8968413 -47.622289 C -3.1828413 -47.326289 -3.5237632 -47.082187 -3.8167632 -46.793187 C -3.9347632 -46.675187 -4.0444937 -46.551328 -4.1404937 -46.412328 C -5.2074937 -45.190328 -6.3325602 -44.020347 -7.4085602 -42.807347 C -9.3185602 -40.979347 -11.057521 -38.992226 -12.743521 -36.958226 C -14.234521 -35.077226 -15.626615 -33.113151 -17.114615 -31.232151 C -17.107615 -31.129151 -17.100642 -31.030929 -17.092642 -30.928929 C -16.576642 -30.990929 -16.085486 -31.205487 -15.557486 -31.176487 C -16.829486 -29.836487 -18.492994 -28.946003 -20.077994 -28.030003 z M -14.713736 -28.460667 C -14.789736 -28.895667 -14.748306 -29.341222 -14.523306 -29.729222 C -14.427306 -29.728222 -14.330267 -29.727757 -14.233267 -29.727757 C -14.143267 -29.559757 -14.054666 -29.391386 -13.966666 -29.222386 C -14.115666 -29.216386 -14.264908 -29.211272 -14.414908 -29.206272 C -14.510908 -28.955272 -14.606736 -28.705667 -14.713736 -28.460667 z M 22.26771 -28.485569 C 22.13371 -28.727569 22.02012 -28.979823 21.93812 -29.245823 C 22.05712 -29.203823 22.29373 -29.117437 22.41273 -29.074437 C 22.75073 -29.403437 22.818902 -29.881343 22.863902 -30.328343 C 22.950902 -29.866343 22.93696 -29.393022 22.92396 -28.925022 C 22.80596 -28.783022 22.688327 -28.639358 22.575327 -28.494358 C 22.471327 -28.490358 22.36971 -28.488569 22.26771 -28.485569 z M 20.331187 -28.681858 C 19.848187 -29.201858 18.827151 -29.558374 19.020151 -30.410374 C 19.160151 -31.672374 19.337155 -32.929671 19.499155 -34.189671 C 19.741155 -36.521671 20.323245 -38.815722 20.391245 -41.166722 C 20.567245 -41.933722 20.105023 -42.627406 19.713023 -43.242406 C 17.663023 -46.257406 14.2463 -47.87921 11.7223 -50.41721 C 12.8023 -50.00221 13.801573 -49.399875 14.877573 -48.972875 C 16.042573 -48.408875 17.345355 -48.129703 18.428355 -47.396703 C 19.415355 -46.646703 20.028288 -45.508828 20.410288 -44.349828 C 21.040288 -42.116828 21.385476 -39.796386 21.277476 -37.472386 C 21.061476 -34.534386 20.639187 -31.609858 20.331187 -28.681858 z M 26.240366 -28.99387 C 25.8512 -28.992896 25.463632 -29.028733 25.08607 -29.127171 C 24.64307 -29.225171 24.448573 -29.672444 24.252573 -30.032444 C 23.991573 -30.566444 23.64246 -31.064702 23.48646 -31.646702 C 24.51346 -30.834702 25.924808 -31.161929 27.117808 -31.303929 C 26.022808 -32.481929 24.403155 -33.027515 23.249155 -34.154515 C 24.095155 -33.872515 24.94073 -33.587835 25.78773 -33.307835 C 27.11573 -32.824835 28.041347 -31.683405 28.720347 -30.492405 C 28.852347 -30.230405 28.987484 -29.949655 28.985484 -29.648655 C 28.706484 -29.250655 28.173507 -29.202382 27.734507 -29.118382 C 27.243445 -29.055944 26.740723 -28.995123 26.240366 -28.99387 z M -11.574576 -30.21848 C -11.866576 -30.60948 -12.017056 -31.08446 -11.992056 -31.57346 C -11.779056 -30.95346 -11.164638 -30.818526 -10.613638 -31.091526 C -10.633638 -30.773526 -10.764623 -30.482339 -10.947623 -30.224339 C -11.157623 -30.220339 -11.366576 -30.21648 -11.574576 -30.21848 z M -14.329947 -31.24387 C -14.516947 -31.94387 -13.957428 -32.587933 -13.247428 -32.532933 C -12.784428 -32.984933 -12.48006 -33.561878 -12.09606 -34.076878 C -12.08306 -33.859878 -12.071369 -33.645882 -12.062369 -33.430882 C -12.817369 -32.723882 -13.115947 -31.30987 -14.329947 -31.24387 z M -20.026725 -31.53098 C -21.686725 -31.89098 -23.195424 -32.732316 -24.768424 -33.350316 C -25.917424 -33.910316 -27.114877 -34.38014 -28.207877 -35.04514 C -28.532877 -35.20614 -28.550541 -35.600933 -28.638541 -35.907933 C -26.011541 -34.433933 -23.228135 -33.255917 -20.447135 -32.116917 C -20.228135 -31.993917 -20.158725 -31.72798 -20.026725 -31.53098 z M 29.1598 -32.704319 C 29.0338 -33.257319 28.735722 -33.995425 29.329722 -34.387425 C 29.512722 -34.223425 29.686601 -34.049335 29.855601 -33.870335 C 29.257601 -33.780335 29.0938 -33.237319 29.1598 -32.704319 z M 9.6510106 -33.113011 C 9.5060106 -33.684011 9.3167215 -34.364159 9.8297215 -34.815159 C 10.088721 -34.607159 10.248503 -34.318214 10.380503 -34.021214 C 10.178503 -34.032214 9.9765223 -34.041511 9.7755223 -34.050511 C 9.7045223 -33.742511 9.6790106 -33.427011 9.6510106 -33.113011 z M 14.304819 -33.189183 C 14.274819 -33.970183 14.330862 -34.750933 14.323862 -35.532933 C 14.305862 -35.783933 14.488874 -35.979816 14.635874 -36.162816 C 15.504874 -37.150816 16.387796 -38.142398 17.055796 -39.284398 C 17.887796 -40.468398 18.621655 -41.756347 18.936655 -43.182347 C 18.972655 -43.346347 19.096933 -43.468292 19.195933 -43.601292 C 19.261933 -42.074292 19.393433 -40.435163 18.633433 -39.044163 C 18.102433 -37.885163 17.297272 -36.891972 16.619272 -35.822972 C 15.931272 -34.872972 15.008819 -34.124183 14.304819 -33.189183 z M -10.503775 -33.274144 C -10.864775 -33.800144 -11.243166 -34.319796 -11.529166 -34.892796 C -11.590166 -35.016796 -11.64708 -35.19798 -11.49108 -35.28098 C -10.95408 -35.74698 -10.350861 -36.128042 -9.791861 -36.570042 C -9.637861 -36.706042 -9.3387126 -36.83848 -9.2147126 -36.59348 C -8.8607126 -36.06848 -8.4625485 -35.562898 -8.2215485 -34.971898 C -8.9495485 -34.362898 -9.6707751 -33.738144 -10.503775 -33.274144 z M -19.739615 -33.345921 C -19.772615 -33.742921 -19.909553 -34.242417 -19.575553 -34.554417 C -19.166553 -34.694417 -19.056869 -34.221069 -18.999869 -33.923069 C -19.177869 -33.925069 -19.353143 -33.926929 -19.530143 -33.928929 C -19.597143 -33.733929 -19.669615 -33.537921 -19.739615 -33.345921 z M 3.3214206 -33.546605 C 3.2204206 -33.795605 3.1702135 -34.063827 3.4342135 -34.224827 C 4.4372135 -35.085827 5.0988776 -36.271741 5.3648776 -37.561741 C 5.3558776 -36.005741 4.5514206 -34.492605 3.3214206 -33.546605 z M -22.254752 -33.742894 C -22.434752 -34.344894 -22.77767 -35.384472 -21.94567 -35.635472 C -21.78067 -35.416472 -21.637682 -35.18553 -21.507682 -34.94553 C -21.683682 -34.94953 -21.859025 -34.957109 -22.035025 -34.963109 C -22.104025 -34.884109 -22.173104 -34.806734 -22.240104 -34.728734 C -22.242104 -34.400734 -22.238752 -34.071894 -22.254752 -33.742894 z M 17.394175 -33.893773 C 17.350175 -34.302773 17.271065 -35.053042 17.857065 -35.070042 C 18.084065 -34.901042 18.104499 -34.604339 18.151499 -34.349339 C 17.971499 -34.354339 17.794366 -34.359523 17.615366 -34.362523 C 17.542366 -34.206523 17.468175 -34.049773 17.394175 -33.893773 z M 32.581675 -34.617405 C 30.086675 -35.037405 27.709472 -35.972456 25.298472 -36.719456 C 24.293472 -37.067456 23.25705 -37.352245 22.31605 -37.853245 C 22.30305 -38.005245 22.290894 -38.156812 22.280894 -38.308812 C 25.456894 -37.017812 28.718937 -35.954214 32.049937 -35.146214 C 32.321937 -35.094214 32.434675 -34.819405 32.581675 -34.617405 z M -18.399283 -35.742405 C -18.417973 -35.742225 -18.4376 -35.743245 -18.456412 -35.74387 C -18.828412 -36.17287 -18.925596 -36.74514 -18.844596 -37.29514 C -18.745596 -36.69714 -18.257916 -36.149519 -17.622916 -36.508519 C -17.622916 -36.336519 -17.621521 -36.165823 -17.618521 -35.995823 C -17.852896 -35.837386 -18.11893 -35.745112 -18.399283 -35.742405 z M -4.3426421 -36.430882 C -5.4826421 -36.889882 -6.5623297 -37.478464 -7.6473297 -38.052464 C -8.2443297 -38.382464 -8.9707907 -38.532249 -9.4197907 -39.082249 C -8.1187907 -38.850249 -7.0131734 -37.964433 -5.7371734 -37.595433 C -5.1951734 -37.334433 -4.2526421 -37.222882 -4.3426421 -36.430882 z M 28.008433 -36.656468 C 26.655433 -38.716468 25.342222 -40.859941 24.642222 -43.240941 C 24.310222 -44.318941 24.248101 -45.516769 24.793101 -46.539769 C 25.004101 -46.979769 25.442863 -47.355222 25.948863 -47.354222 C 26.635863 -47.182222 27.031323 -46.536296 27.346323 -45.955296 C 27.767323 -45.130296 28.193038 -44.288242 28.379038 -43.374242 C 27.722038 -43.761242 27.642109 -44.711781 26.876109 -44.976781 C 26.293109 -45.209781 25.794374 -44.632734 25.698374 -44.103734 C 25.294374 -42.616734 25.988519 -41.152417 26.546519 -39.804417 C 26.998519 -38.740417 27.739433 -37.794468 28.008433 -36.656468 z M -21.3319 -36.674046 C -21.2559 -36.987046 -21.250295 -37.37232 -20.961295 -37.57932 C -20.662295 -37.86032 -20.17231 -37.650882 -19.87731 -37.930882 C -19.43031 -38.349882 -19.202385 -38.934952 -18.853385 -39.427952 C -18.844385 -39.102952 -18.84606 -38.779296 -18.84606 -38.455296 C -18.97206 -38.450296 -19.095596 -38.445113 -19.219596 -38.442113 C -19.724596 -37.694113 -20.3609 -36.766046 -21.3319 -36.674046 z M 2.4322604 -36.6843 C 2.2532604 -36.7943 2.2806901 -37.014066 2.2476901 -37.194066 C 2.6316901 -37.383066 3.003901 -37.596273 3.363901 -37.831273 C 3.329901 -37.283273 2.8922604 -36.9073 2.4322604 -36.6843 z M -26.199576 -36.860081 C -26.532576 -37.492081 -26.821201 -38.145859 -27.090201 -38.806859 C -26.349201 -39.255859 -25.637315 -39.757542 -24.856315 -40.132542 C -24.551315 -39.485542 -24.204506 -38.854835 -23.952506 -38.182835 C -24.704506 -37.749835 -25.390576 -37.191081 -26.199576 -36.860081 z M 1.7833346 -36.947972 C 1.5213346 -37.602972 1.3649908 -38.488105 2.0059908 -38.984105 C 2.6219908 -39.024105 3.1357018 -38.594702 3.3097018 -38.021702 C 2.8997018 -38.272702 2.2740846 -38.574749 1.8770846 -38.144749 C 1.5240846 -37.814749 1.8073346 -37.350972 1.7833346 -36.947972 z M -2.3665679 -37.47678 C -1.6265679 -38.20678 -0.86707173 -38.961421 -0.40807173 -39.908421 C -0.22007173 -40.321421 -0.46097408 -40.755941 -0.80797408 -40.990941 C -1.3279741 -41.370941 -1.9039116 -41.710187 -2.5189116 -41.918187 C -2.9049116 -42.049187 -3.3061538 -42.128449 -3.7171538 -42.136449 C -4.1201538 -42.163449 -4.4521343 -41.922613 -4.6971343 -41.629613 C -4.6901343 -40.323613 -3.9979234 -39.089691 -3.2059234 -38.084691 C -3.0079234 -37.863691 -2.8059116 -37.607472 -2.5189116 -37.510472 C -2.4709116 -37.494472 -2.4205679 -37.48378 -2.3665679 -37.47678 z M -29.669791 -37.495823 C -29.962791 -38.133823 -30.376342 -38.774827 -30.459342 -39.474827 C -29.824342 -39.974827 -29.166912 -40.588878 -28.393912 -40.826878 C -28.040912 -40.206878 -27.753158 -39.549003 -27.446158 -38.905003 C -28.251158 -38.535003 -28.865791 -37.853823 -29.669791 -37.495823 z M 31.822886 -37.916234 C 31.811867 -37.916506 31.800351 -37.91698 31.789195 -37.917698 C 31.559195 -38.209698 31.418644 -38.556511 31.374644 -38.925511 C 31.700644 -38.566511 32.166601 -38.612202 32.480601 -38.959202 C 32.528601 -38.962202 32.622566 -38.968851 32.669566 -38.973851 C 32.672566 -38.758851 32.678749 -38.544249 32.682749 -38.332249 C 32.440562 -38.110405 32.164464 -37.907799 31.822886 -37.916234 z M 29.269663 -38.645726 C 29.146663 -38.649726 29.027382 -38.654909 28.906382 -38.658909 C 28.908382 -38.918909 28.80464 -39.230812 29.02064 -39.433812 C 29.29864 -39.811812 29.887019 -39.762531 30.109019 -40.195531 C 30.415019 -40.698531 30.544773 -41.284804 30.681773 -41.850804 C 30.916773 -41.545804 30.998956 -41.165652 31.069956 -40.794652 C 30.943956 -40.800652 30.818956 -40.806695 30.694956 -40.813695 C 30.398956 -39.989695 29.999663 -39.172726 29.269663 -38.645726 z M -6.6570953 -39.326878 C -6.7240953 -39.374878 -6.8581617 -39.469773 -6.9251617 -39.518773 C -6.9471617 -39.605773 -6.9666852 -39.693909 -6.9866852 -39.783909 C -6.8446852 -39.824909 -6.7010211 -39.867886 -6.5560211 -39.909886 C -6.4890211 -40.143886 -6.4248727 -40.375081 -6.3538727 -40.610081 C -6.2958727 -40.157081 -6.2560953 -39.639878 -6.6570953 -39.326878 z M -17.088248 -39.534886 C -17.503248 -40.163886 -17.730482 -40.889906 -18.078482 -41.554906 C -18.980482 -41.307906 -19.660014 -40.502031 -20.598014 -40.383031 C -20.986014 -41.017031 -21.239838 -41.72212 -21.542838 -42.40012 C -20.744838 -42.89912 -19.953338 -43.418343 -19.105338 -43.828343 C -18.696338 -43.155343 -18.379271 -42.43339 -18.087271 -41.70139 C -17.117271 -41.83339 -16.399877 -42.700519 -15.457877 -42.883519 C -15.135877 -42.232519 -14.922201 -41.532667 -14.715201 -40.835667 C -15.492201 -40.374667 -16.284248 -39.942886 -17.088248 -39.534886 z M 8.6417332 -39.655003 C 8.5487332 -39.660003 8.4558777 -39.665581 8.3648777 -39.672581 C 8.0198777 -39.999581 7.6617253 -40.311124 7.3087253 -40.629124 C 7.3967253 -41.733124 7.4655808 -42.835206 7.5855808 -43.938206 C 7.7895808 -48.666206 8.3124637 -53.377246 8.5904637 -58.103246 C 8.7494637 -58.985246 8.7884129 -59.887445 8.7384129 -60.782445 C 8.2814129 -61.593445 7.5656511 -62.236535 6.8326511 -62.799535 C 3.3096511 -65.800535 -1.0339312 -67.975383 -5.6639312 -68.493383 C -7.0859312 -68.503383 -8.5900134 -68.203141 -9.7230134 -67.295141 C -11.054013 -66.386141 -11.77076 -64.798523 -11.96276 -63.237523 C -12.11276 -60.753523 -11.451002 -58.296519 -10.536002 -56.008519 C -10.266002 -55.085519 -9.7149235 -54.252699 -9.5809235 -53.292699 C -10.109924 -54.051699 -10.339474 -54.962398 -10.745474 -55.784398 C -11.984474 -58.835398 -13.362982 -62.125269 -12.640982 -65.477269 C -12.132982 -67.968269 -10.207779 -70.312621 -7.6077789 -70.712621 C -3.8237789 -71.490621 -0.012911485 -69.939051 3.1060885 -67.903051 C 5.0510885 -66.857051 6.642616 -65.295344 8.146616 -63.703344 C 9.156616 -62.590344 9.3374637 -61.020289 9.7154637 -59.622289 C 10.186464 -57.078289 9.7356863 -54.501043 9.6436863 -51.945043 C 9.3536863 -47.845043 9.0287332 -43.749003 8.6417332 -39.655003 z M 23.515757 -39.694554 C 22.962757 -40.253554 22.756499 -41.09455 23.026499 -41.84055 C 23.130499 -41.84255 23.233511 -41.844339 23.338511 -41.849339 C 23.465511 -41.712339 23.593765 -41.576577 23.723765 -41.443577 C 23.520765 -41.394577 23.320249 -41.344628 23.120249 -41.295628 C 23.061249 -40.724628 23.324757 -40.211554 23.515757 -39.694554 z M 10.63978 -40.982152 C 10.55778 -41.453152 10.550554 -42.014878 10.982554 -42.326878 C 11.483554 -42.428878 11.595651 -41.758562 11.707651 -41.402562 C 11.500651 -41.528562 11.275753 -41.624699 11.036753 -41.667699 C 10.972753 -41.586699 10.909858 -41.505929 10.844858 -41.428929 C 10.781858 -41.275929 10.70278 -41.130152 10.63978 -40.982152 z M -29.170279 -41.080296 C -29.225279 -41.092296 -29.336006 -41.115171 -29.390006 -41.127171 C -30.620006 -43.095171 -31.601112 -45.223945 -32.198112 -47.469945 C -32.662112 -48.974945 -32.962916 -50.672121 -32.247916 -52.150121 C -31.962916 -52.742121 -31.387237 -53.428316 -30.651237 -53.225316 C -29.912237 -52.925316 -29.66033 -52.096699 -29.39733 -51.417699 C -29.17633 -50.682699 -28.813026 -49.973066 -28.785026 -49.194066 C -29.057026 -49.516066 -29.25233 -49.891375 -29.39733 -50.285375 C -29.57633 -50.730375 -30.110049 -50.834566 -30.534049 -50.881566 C -31.182049 -50.370566 -31.614272 -49.582359 -31.587272 -48.744359 C -31.714272 -45.966359 -29.887279 -43.662296 -29.170279 -41.080296 z M 16.194468 -41.248753 C 15.724468 -42.097753 15.02653 -43.488499 15.98353 -44.238499 C 16.41053 -44.067499 16.591882 -43.646011 16.718882 -43.238011 C 16.496882 -43.297011 16.277843 -43.359863 16.053843 -43.410863 C 15.563843 -42.719863 16.048468 -41.956753 16.194468 -41.248753 z M -12.950064 -41.588597 C -13.232064 -42.031597 -13.116892 -42.58482 -12.873892 -43.01682 C -12.481892 -43.02682 -12.376615 -42.641316 -12.239615 -42.350316 C -12.447615 -42.307316 -12.655103 -42.263269 -12.865103 -42.227269 C -12.892103 -42.013269 -12.917064 -41.798597 -12.950064 -41.588597 z M -25.1361 -41.761449 C -25.3001 -42.411449 -25.475545 -43.15355 -24.992545 -43.71555 C -24.502545 -43.82055 -24.370361 -43.314691 -24.229361 -42.959691 C -24.461361 -42.970691 -24.694627 -42.981128 -24.926627 -42.983128 C -25.126627 -42.605128 -25.1191 -42.176449 -25.1361 -41.761449 z M 30.983531 -42.301976 C 30.494299 -42.299297 30.310824 -42.864038 30.205699 -43.286351 C 30.402699 -43.197351 30.598425 -43.108074 30.800425 -43.027074 C 31.436425 -43.686074 31.061386 -44.633656 30.885386 -45.398656 C 31.435386 -44.513656 31.775128 -43.240019 31.146128 -42.321019 C 31.088753 -42.3078 31.034141 -42.302253 30.983531 -42.301976 z M -21.409537 -42.833714 C -21.839537 -43.150714 -22.036643 -43.66562 -22.342643 -44.08762 C -22.846643 -44.93262 -23.451764 -45.709316 -24.066764 -46.475316 C -24.298764 -46.738316 -24.507779 -47.063906 -24.857779 -47.179906 C -25.042779 -47.072906 -25.210545 -46.944441 -25.367545 -46.803441 C -25.721545 -46.481441 -26.016623 -46.09271 -26.322623 -45.72971 C -26.039623 -45.61571 -25.735393 -45.618734 -25.436393 -45.603734 C -26.185393 -44.834734 -27.055502 -44.185519 -27.973502 -43.633519 C -28.191502 -44.410519 -28.216416 -45.222749 -28.310416 -46.019749 C -27.664416 -46.623749 -27.196463 -47.387218 -26.558463 -48.000218 C -26.389463 -48.239218 -25.94469 -48.522644 -26.21569 -48.836644 C -27.08969 -49.955644 -27.898069 -51.210027 -28.054069 -52.654027 C -28.219069 -53.673027 -28.332389 -54.89055 -27.582389 -55.71555 C -27.582389 -55.94055 -27.58067 -56.165773 -27.57067 -56.393773 C -27.52467 -56.228773 -27.484693 -56.065121 -27.444693 -55.900121 C -26.754693 -55.855121 -26.037545 -55.733683 -25.367545 -55.501683 C -24.498545 -55.201683 -23.707236 -54.713668 -23.151236 -53.960668 C -22.601236 -52.846668 -22.65526 -51.548644 -22.65026 -50.336644 C -22.77226 -49.371644 -23.465076 -48.606273 -24.137076 -47.956273 C -23.225076 -46.263273 -21.640537 -44.842714 -21.409537 -42.833714 z M -12.639517 -44.521214 C -14.125517 -44.750214 -14.889939 -46.281062 -15.246939 -47.590062 C -15.533939 -48.526062 -15.364486 -49.742753 -14.432486 -50.248753 C -13.182486 -50.919753 -11.68556 -50.412234 -10.40856 -51.041234 C -10.42456 -50.253234 -10.82983 -49.537335 -11.20983 -48.870335 C -11.86983 -47.902335 -13.231263 -48.487894 -14.129263 -47.992894 C -14.572263 -47.705894 -14.260916 -47.101953 -13.872916 -46.927953 C -13.169916 -46.529953 -12.357994 -46.934859 -11.827994 -47.431859 C -10.634994 -48.536859 -9.9708181 -50.221433 -10.147818 -51.845433 C -10.263818 -52.328433 -10.758912 -52.575414 -11.143912 -52.825414 C -11.729912 -53.118414 -12.302178 -53.496808 -12.966178 -53.579808 C -13.508178 -52.062808 -14.755803 -50.446156 -16.481803 -50.461156 C -16.602803 -50.462156 -16.724478 -50.470988 -16.849478 -50.488988 C -18.309478 -51.063988 -19.071975 -52.712437 -19.182975 -54.199437 C -19.321975 -55.107437 -18.710697 -56.08705 -17.798697 -56.27805 C -17.362697 -56.39505 -16.922803 -56.435859 -16.481803 -56.431859 C -15.537803 -56.423859 -14.586119 -56.209226 -13.656119 -56.083226 C -13.534119 -56.408226 -13.303279 -56.754011 -13.420279 -57.113011 C -13.867279 -57.876011 -14.594318 -58.411097 -15.210318 -59.026097 C -15.613318 -59.432097 -16.040803 -59.81007 -16.481803 -60.17307 C -17.148803 -60.72207 -17.846373 -61.237242 -18.541373 -61.749242 C -19.940373 -62.674242 -21.411221 -63.619363 -23.110221 -63.848363 C -24.239221 -63.975363 -25.475854 -63.932652 -26.458854 -63.294652 C -27.286854 -62.737652 -27.789209 -61.816336 -28.048209 -60.870336 C -28.237209 -59.307336 -27.807209 -57.755132 -27.673209 -56.212132 C -28.504209 -58.464132 -29.020053 -60.934906 -28.388053 -63.304906 C -27.969053 -64.075906 -27.618799 -64.930226 -26.877799 -65.458226 C -25.570799 -66.605226 -23.656943 -66.468289 -22.100943 -65.997289 C -19.921943 -65.445289 -18.142803 -63.999906 -16.481803 -62.554906 L -16.385123 -62.47141 C -15.447123 -61.66441 -14.595775 -60.749406 -13.878775 -59.742406 C -13.053775 -58.612406 -12.897728 -57.183316 -12.630728 -55.850316 C -12.585728 -55.431316 -12.12567 -55.312218 -11.82067 -55.125218 C -10.68767 -54.555218 -9.8692048 -53.468406 -9.5692048 -52.242406 C -9.0752048 -50.320406 -9.0811149 -48.132398 -10.177115 -46.409398 C -10.719115 -45.517398 -11.556517 -44.640214 -12.639517 -44.521214 z M 6.823862 -44.950413 C 6.216862 -45.039413 5.6950378 -45.381945 5.1290378 -45.594945 C 3.3460378 -46.285945 1.5828463 -47.087015 0.032846251 -48.217015 C 0.021846251 -48.346015 0.011084531 -48.474199 0.0020845313 -48.605199 C 2.2630845 -47.528199 4.5023542 -46.395374 6.8033542 -45.410374 C 6.8093542 -45.256374 6.815862 -45.103413 6.823862 -44.950413 z M -18.339225 -45.555394 C -18.425225 -46.020394 -18.263705 -46.457132 -18.006705 -46.837132 C -18.021705 -46.390132 -18.183225 -45.969394 -18.339225 -45.555394 z M -19.393912 -45.612523 C -19.448912 -45.616523 -19.559103 -45.624636 -19.615103 -45.628636 C -19.559103 -46.082636 -19.410471 -46.52132 -19.266471 -46.95432 C -19.220471 -46.49932 -19.342912 -46.059523 -19.393912 -45.612523 z M 11.859995 -45.731175 C 11.421995 -45.930175 11.123874 -46.31448 10.885874 -46.71848 C 11.306874 -46.47248 11.807362 -46.351503 12.261362 -46.592503 C 12.259362 -46.351503 12.259968 -46.111335 12.256968 -45.870335 C 12.123968 -45.823335 11.989995 -45.778175 11.859995 -45.731175 z M 21.897105 -46.044652 C 21.578105 -46.696652 21.441077 -47.479503 21.919077 -48.092503 C 22.055077 -48.093503 22.190769 -48.095828 22.327769 -48.099828 C 22.470769 -47.873828 22.589585 -47.635914 22.689585 -47.387914 C 22.492585 -47.389914 22.298648 -47.395703 22.103648 -47.396703 C 22.032648 -47.310703 21.96364 -47.226285 21.89564 -47.143285 C 21.89764 -46.777285 21.906105 -46.410652 21.897105 -46.044652 z M 28.635386 -46.692113 C 28.094386 -47.329113 27.740941 -48.129621 27.653941 -48.962621 C 27.614941 -49.424621 27.813402 -49.997425 28.301402 -50.137425 C 29.141402 -50.231425 29.789046 -49.337394 29.712046 -48.555394 C 29.780046 -47.930394 29.14898 -47.596785 28.69398 -47.330785 C 28.60598 -47.568785 28.549058 -47.817531 28.524058 -48.070531 C 28.863058 -48.253531 29.192714 -48.456089 29.496714 -48.693089 C 29.497714 -48.756089 29.500574 -48.880578 29.502574 -48.943578 C 29.200574 -49.241578 28.797644 -49.391085 28.374644 -49.339085 C 28.265644 -49.233085 28.157449 -49.126214 28.049449 -49.021214 C 27.878449 -48.171214 28.347386 -47.445113 28.635386 -46.692113 z M -19.22399 -46.882542 C -19.34099 -47.230542 -19.463904 -47.744714 -19.935904 -47.708714 C -20.293904 -47.791714 -20.510061 -47.473289 -20.721061 -47.247289 C -20.728061 -47.684289 -20.629982 -48.261585 -20.140982 -48.401585 C -19.633982 -48.398585 -19.509428 -47.843749 -19.247428 -47.519749 C -19.031428 -47.797749 -18.8161 -48.273718 -18.3861 -48.187718 C -18.0671 -48.087718 -18.010338 -47.748621 -17.980338 -47.462621 C -18.512338 -47.722621 -19.10399 -47.478542 -19.22399 -46.882542 z M 10.715952 -47.011449 C 10.574952 -47.490449 10.839593 -47.845121 11.272593 -48.025121 C 11.094593 -48.232121 10.921827 -48.443257 10.762827 -48.665257 C 11.208827 -48.589257 11.579436 -48.317843 11.987436 -48.140843 C 12.529436 -47.869843 13.272886 -47.785339 13.447886 -47.099339 C 12.986886 -47.188339 12.561835 -47.409945 12.095835 -47.469945 C 11.586835 -47.525945 11.158952 -47.201449 10.715952 -47.011449 z M 5.5245456 -47.721898 C 5.4295456 -48.172898 5.375069 -48.657597 5.586069 -49.088597 C 5.920069 -49.075597 6.0618659 -48.802027 6.1778659 -48.529027 C 5.6728659 -48.581027 5.5075456 -48.150898 5.5245456 -47.721898 z M 31.636851 -48.12473 C 31.397851 -48.56973 31.248312 -49.084558 31.534312 -49.548558 C 31.636312 -49.543558 31.739394 -49.540304 31.843394 -49.538304 C 31.962394 -49.412304 32.080816 -49.286839 32.200816 -49.161839 C 32.014816 -49.086839 31.830035 -49.010929 31.650035 -48.928929 C 31.649035 -48.659929 31.645851 -48.39173 31.636851 -48.12473 z M 17.06019 -48.805882 C 16.477206 -48.783617 15.881073 -48.831652 15.346323 -49.044652 C 15.206323 -49.099652 15.070561 -49.1668 14.940561 -49.2468 C 14.498561 -49.9038 14.264194 -50.714265 14.164194 -51.498265 C 14.554194 -51.425265 14.950323 -51.382683 15.346323 -51.376683 C 15.997323 -51.366683 16.645733 -51.457652 17.266733 -51.669652 C 17.800733 -51.667652 18.368413 -51.885875 18.863413 -51.597875 C 20.410413 -52.136875 22.001378 -52.543113 23.552378 -53.067113 C 23.053378 -53.370113 22.473937 -53.482375 21.924937 -53.660375 C 20.873937 -53.967375 19.836366 -54.3848 18.740366 -54.4968 C 18.291366 -53.4168 17.599409 -52.352574 16.509409 -51.839574 C 16.151409 -51.648574 15.745323 -51.578988 15.346323 -51.613988 C 14.702323 -51.670988 14.077698 -51.997515 13.705698 -52.529515 C 13.138698 -53.319515 12.806858 -54.264687 12.719858 -55.230687 C 12.472858 -56.231687 13.190351 -57.344281 14.199351 -57.539281 C 14.582351 -57.625281 14.965323 -57.641847 15.346323 -57.619847 C 16.238323 -57.568847 17.126409 -57.302578 18.009409 -57.193578 C 18.093409 -57.529578 18.223112 -57.936476 17.980112 -58.239476 C 17.244112 -59.319476 16.271323 -60.200965 15.346323 -61.114965 L 15.072397 -61.390355 C 12.971397 -63.195355 10.457003 -64.923894 7.5680027 -64.867894 C 6.8030027 -65.278894 6.2303347 -66.006887 5.5333347 -66.534887 C 6.3443347 -67.261887 7.5095613 -67.520211 8.5655613 -67.292211 C 10.944561 -66.901211 13.077304 -65.64375 14.826304 -64.01975 C 15.000304 -63.87075 15.175323 -63.719719 15.346323 -63.562719 C 17.300323 -61.786719 19.039269 -59.543859 19.140269 -56.806859 C 23.114269 -54.933859 27.574933 -54.251824 31.945933 -54.370824 C 32.410933 -53.653824 32.902394 -52.952898 33.343394 -52.221898 C 32.550394 -52.164898 31.757558 -52.091457 30.961558 -52.094457 C 29.230558 -51.920457 27.546999 -51.456773 25.838999 -51.143773 C 23.004999 -50.755773 20.475874 -49.217363 17.635874 -48.848363 C 17.447374 -48.829113 17.254519 -48.813304 17.06019 -48.805882 z M 2.4058932 -49.312718 C 2.3371549 -49.315193 2.2678854 -49.320671 2.1978854 -49.330296 C 1.4098854 -49.427296 0.92721736 -50.137125 0.53821736 -50.754125 C 0.031217357 -51.624125 -0.40388032 -52.644629 -0.18688032 -53.670629 C -0.11888032 -54.374629 0.25397909 -55.11982 0.94397909 -55.39182 C 2.2529791 -55.83182 3.8771315 -55.211949 5.0001315 -56.198949 C 5.0941315 -56.204949 5.1883112 -56.211922 5.2843112 -56.220922 C 5.2143112 -55.046922 4.7356549 -53.646511 3.5616549 -53.175511 C 2.6396549 -53.072511 1.3468736 -53.580461 0.76087361 -52.573461 C 0.70887361 -51.869461 1.5311783 -51.545371 2.1231783 -51.681371 C 3.5941783 -51.926371 4.4736276 -53.306675 5.0836276 -54.543675 C 5.3746276 -55.258675 5.713069 -56.166918 5.211069 -56.866918 C 3.942069 -58.747918 2.2102799 -60.277121 0.32727985 -61.525121 C -1.2577201 -62.538121 -2.951732 -63.518527 -4.859732 -63.716527 C -6.649732 -64.029527 -8.6449743 -62.887019 -9.0579743 -61.071019 C -9.6489743 -58.972019 -8.8944391 -56.842714 -8.3094391 -54.833714 C -8.0994391 -54.172714 -7.7396852 -53.542738 -7.7366852 -52.832738 C -7.7896852 -52.861738 -7.8956227 -52.920461 -7.9476227 -52.948461 C -8.9266227 -55.271461 -9.606904 -57.739031 -9.810904 -60.258031 C -9.854904 -61.626031 -9.7357868 -63.096519 -8.9407868 -64.258519 C -8.4607868 -65.010519 -7.6996813 -65.548566 -6.8826813 -65.881566 C -5.5126813 -66.435566 -3.9623101 -66.183586 -2.6273101 -65.651586 C -0.72631007 -64.849586 0.87976819 -63.521457 2.4527682 -62.219457 C 2.8667682 -61.878457 3.2091393 -61.439039 3.7081393 -61.216039 C 3.7401393 -62.310039 3.6343776 -63.44457 4.0523776 -64.48557 C 4.4223776 -64.26857 4.7889675 -64.04391 5.1319675 -63.78391 C 4.3919675 -63.05291 4.1921979 -61.97134 4.1431979 -60.97434 C 4.0881979 -60.43334 4.5801823 -60.091207 4.8521823 -59.688207 C 6.6701823 -57.116207 6.8510026 -53.359492 4.9430026 -50.780492 C 4.3223776 -50.016429 3.4369674 -49.275603 2.4058932 -49.312718 z M -7.5154938 -49.34055 C -7.7514938 -49.87255 -7.6649469 -50.461156 -7.2049469 -50.836156 C -6.9949469 -50.630156 -6.8279274 -50.389496 -6.6849274 -50.134496 C -6.8929274 -50.138496 -7.0990211 -50.145539 -7.3060211 -50.153539 C -7.4570211 -49.908539 -7.4824938 -49.61955 -7.5154938 -49.34055 z M -25.31774 -49.410863 C -25.267209 -49.409878 -25.214967 -49.426707 -25.162467 -49.469457 C -24.521467 -50.063457 -23.920865 -50.706445 -23.395865 -51.407445 C -23.270865 -51.569445 -23.147779 -51.854636 -23.357779 -52.003636 C -23.929779 -52.523636 -24.621545 -52.941328 -25.367545 -53.162328 C -25.813545 -53.294328 -26.278428 -53.35632 -26.747428 -53.32932 C -27.048428 -53.33532 -27.277104 -53.118207 -27.490104 -52.938207 C -27.547104 -51.652207 -26.553815 -50.692074 -25.793815 -49.777074 C -25.679815 -49.668074 -25.532545 -49.457187 -25.367545 -49.418187 C -25.351045 -49.414187 -25.334584 -49.411191 -25.31774 -49.410863 z M -20.439811 -49.755101 C -20.569811 -50.227101 -20.679373 -50.734324 -20.416373 -51.183324 C -20.295373 -51.182324 -20.175021 -51.182324 -20.056021 -51.183324 C -19.931021 -50.981324 -19.815529 -50.773625 -19.701529 -50.566625 C -19.881529 -50.564625 -20.061127 -50.562765 -20.239127 -50.560765 C -20.312127 -50.293765 -20.380811 -50.024101 -20.439811 -49.755101 z M -3.4300445 -49.916234 C -3.1833355 -49.879539 -3.0332437 -50.225164 -2.8748687 -50.387914 C -2.3018687 -51.210914 -1.7194819 -52.099988 -1.5784819 -53.113988 C -2.1904819 -53.714988 -2.9777632 -54.15857 -3.8167632 -54.36057 C -4.1847632 -54.44957 -4.5642281 -54.492222 -4.9432281 -54.479222 C -5.3682281 -54.490222 -5.7380016 -54.249922 -6.0360016 -53.970922 C -6.1050016 -53.353922 -5.9440406 -52.744871 -5.5760406 -52.243871 C -5.0580406 -51.504871 -4.5057632 -50.763976 -3.8167632 -50.176976 C -3.7277632 -50.100976 -3.6358374 -50.02825 -3.5428374 -49.95725 C -3.5033374 -49.93475 -3.4652886 -49.921476 -3.4300445 -49.916234 z M 11.854136 -52.492894 C 11.709136 -52.497894 11.566007 -52.502543 11.422007 -52.507543 C 11.325007 -52.682543 11.231827 -52.860351 11.137827 -53.036351 C 11.295827 -53.031351 11.452972 -53.027168 11.610972 -53.023168 C 11.723972 -53.238168 11.826702 -53.456953 11.934702 -53.677953 C 11.956702 -53.280953 11.983136 -52.874894 11.854136 -52.492894 z M -16.884635 -52.728734 C -16.750807 -52.726609 -16.615553 -52.740535 -16.481803 -52.768285 C -15.818803 -52.906285 -15.196846 -53.390191 -15.000846 -54.022191 C -15.476846 -54.184191 -15.981803 -54.199914 -16.481803 -54.137914 C -16.855803 -54.091914 -17.225971 -54.002609 -17.578971 -53.900609 C -17.910971 -53.824609 -17.971295 -53.513992 -17.961295 -53.217992 C -17.673295 -52.884242 -17.286119 -52.735109 -16.884635 -52.728734 z M 14.937632 -53.921117 C 15.075757 -53.924492 15.212323 -53.943316 15.346323 -53.975316 C 15.919323 -54.114316 16.442745 -54.496859 16.828745 -54.931859 C 16.355745 -55.078859 15.850323 -55.181925 15.346323 -55.199925 C 14.843323 -55.217925 14.342085 -55.146578 13.877085 -54.943578 C 13.801085 -54.493578 14.065686 -54.061668 14.518686 -53.960668 C 14.659186 -53.930168 14.799507 -53.917742 14.937632 -53.921117 z M -21.611686 -54.602269 C -21.654686 -55.056269 -21.703256 -55.544672 -21.421256 -55.939672 C -20.983256 -56.003672 -20.854088 -55.570125 -20.699088 -55.254125 C -20.880088 -55.263125 -21.06301 -55.275816 -21.24401 -55.287816 C -21.41001 -55.084816 -21.514686 -54.841269 -21.611686 -54.602269 z M 29.671031 -55.859105 C 29.380031 -56.312105 29.316902 -56.864273 29.613902 -57.331273 C 29.749902 -57.336273 29.887988 -57.341851 30.026988 -57.348851 C 30.174988 -57.147851 30.310538 -56.940222 30.441538 -56.729222 C 30.264538 -56.724222 30.093054 -56.721504 29.920054 -56.717504 C 29.847054 -56.643504 29.774722 -56.569312 29.704722 -56.496312 C 29.696722 -56.284312 29.684031 -56.068105 29.671031 -55.859105 z M -30.488639 -56.056859 C -30.903639 -56.169859 -31.045748 -56.56916 -31.150748 -56.94016 C -30.847748 -56.92116 -30.429858 -56.819367 -30.312858 -57.202367 C -29.812858 -58.058367 -30.556713 -58.914492 -30.589713 -59.780492 C -29.987713 -58.693492 -29.509639 -57.055859 -30.488639 -56.056859 z M 24.160288 -56.591527 C 24.116288 -56.988527 24.157058 -57.391386 24.399058 -57.722386 C 24.577058 -57.560386 24.732484 -57.37507 24.860484 -57.17307 C 24.538484 -57.09807 24.314288 -56.872527 24.160288 -56.591527 z M -19.427603 -57.196508 C -19.871603 -57.377508 -19.967064 -57.863097 -20.075064 -58.276097 C -19.690064 -57.842097 -19.167709 -58.077133 -18.860709 -58.462133 C -18.809709 -58.196133 -18.759408 -57.928398 -18.727408 -57.659398 C -18.953408 -57.494398 -19.185603 -57.338508 -19.427603 -57.196508 z M 27.278941 -57.455785 C 26.576938 -57.460866 25.894573 -57.994121 25.940073 -58.759496 C 26.318073 -58.323496 26.882468 -58.16066 27.444468 -58.25266 C 27.442468 -58.37666 27.443003 -58.502125 27.443003 -58.629125 C 26.932003 -59.267125 26.357476 -60.038957 26.527476 -60.906957 C 26.772476 -61.372957 27.379511 -61.404902 27.838511 -61.325902 C 28.858511 -61.071902 29.725699 -60.332492 30.205699 -59.405492 C 29.667699 -59.801492 29.161226 -60.276066 28.496226 -60.444066 C 27.913226 -60.602066 27.167003 -60.767074 26.693003 -60.277074 C 27.022003 -59.368074 27.987409 -58.572281 27.759409 -57.539281 C 27.603972 -57.480593 27.440941 -57.454612 27.278941 -57.455785 z M -0.36998579 -57.646215 C -0.44507878 -57.646884 -0.52165376 -57.668269 -0.59996626 -57.719457 C -1.0709663 -58.119457 -1.1642241 -58.802449 -1.0892241 -59.386449 C -0.99222409 -59.084449 -1.0250288 -58.705176 -0.76402877 -58.481176 C -0.38002877 -58.327176 -0.027892025 -58.57716 0.25110798 -58.81516 C 0.31610798 -58.56516 0.3474361 -58.309441 0.3624361 -58.053441 C 0.14446735 -57.90891 -0.10179655 -57.643823 -0.36998579 -57.646215 z M -22.442252 -57.921605 C -22.425252 -58.167605 -22.467389 -58.437422 -22.332389 -58.658422 C -22.069389 -59.041422 -21.49001 -59.016816 -21.24401 -59.412816 C -21.00001 -59.783816 -20.823791 -60.196058 -20.669791 -60.611058 C -20.629791 -60.623058 -20.551588 -60.646469 -20.511588 -60.656469 C -20.469588 -60.449469 -20.420357 -60.244304 -20.375357 -60.038304 C -21.146357 -59.433304 -21.255252 -57.954605 -22.442252 -57.921605 z M -3.5223296 -58.199926 C -3.5803296 -58.519926 -3.7480913 -58.878765 -3.5530913 -59.185765 C -3.3590913 -59.560765 -2.9223648 -59.660804 -2.5833648 -59.850804 C -2.1073648 -60.342804 -1.9122046 -61.028887 -1.6942046 -61.659887 C -1.6492046 -61.661887 -1.5604936 -61.664746 -1.5154936 -61.665746 C -1.3464936 -61.096746 -1.2193882 -60.503863 -1.3323882 -59.910863 C -1.3883882 -60.178863 -1.4058139 -60.452781 -1.4188139 -60.726781 C -1.5118139 -60.726781 -1.6041343 -60.728176 -1.6971343 -60.731176 C -2.0511343 -59.753176 -2.5033296 -58.644926 -3.5223296 -58.199926 z M 22.849253 -58.523656 C 22.682112 -58.532328 22.51528 -58.591301 22.35853 -58.715551 C 21.46953 -59.527551 21.009972 -60.805476 20.985972 -61.989476 C 21.317972 -61.561476 21.48146 -60.973808 21.98646 -60.704808 C 22.34846 -60.486808 22.848515 -60.621664 23.067515 -60.981664 C 23.421515 -61.558664 23.375355 -62.278512 23.303355 -62.925512 C 22.870355 -64.833512 21.966706 -66.591156 21.413706 -68.461156 C 21.374706 -68.621156 21.388339 -68.784949 21.387339 -68.948949 C 22.514339 -67.102949 23.202183 -65.026867 23.977183 -63.014867 C 24.451183 -61.873867 24.520706 -60.550097 24.038706 -59.401097 C 23.848206 -58.924097 23.350675 -58.49764 22.849253 -58.523656 z M 13.840464 -58.569066 C 13.810239 -58.571156 13.780054 -58.578074 13.748179 -58.589574 C 13.353179 -58.773574 13.263972 -59.246105 13.110972 -59.609105 C 13.474972 -59.198105 14.009288 -59.215906 14.410288 -59.554906 C 14.409288 -59.316906 14.409823 -59.079527 14.408823 -58.841527 C 14.226823 -58.748777 14.052036 -58.554437 13.840464 -58.569066 z M -6.6395172 -59.086156 C -6.8015172 -59.785156 -7.2005836 -60.686801 -6.5325836 -61.246801 C -6.1405836 -61.313801 -6.0231344 -60.836875 -5.8221344 -60.597875 C -6.0251344 -60.603875 -6.2280445 -60.611777 -6.4300445 -60.622777 C -6.5570445 -60.384777 -6.6566617 -60.133172 -6.7376617 -59.877172 C -6.6366617 -59.625172 -6.6215172 -59.353156 -6.6395172 -59.086156 z M 10.82435 -59.245824 C 10.80235 -59.562824 10.796378 -59.881902 10.802378 -60.200902 C 11.120378 -60.493902 11.505081 -60.691476 11.898081 -60.864476 C 12.383081 -61.295476 12.404722 -62.017312 12.829722 -62.496312 C 12.865722 -62.186312 12.874315 -61.874672 12.888315 -61.564672 C 12.791315 -61.554672 12.695206 -61.544375 12.601206 -61.535375 C 12.253206 -60.658375 11.84735 -59.485824 10.82435 -59.245824 z M -25.099479 -59.348363 C -25.323479 -59.811363 -25.294588 -60.395785 -25.011588 -60.830785 C -24.872588 -60.829785 -24.734572 -60.829785 -24.595572 -60.830785 C -24.475572 -60.618785 -24.36094 -60.402719 -24.24694 -60.187719 C -24.42494 -60.190719 -24.601678 -60.195367 -24.778678 -60.202367 C -24.851678 -60.128367 -24.924475 -60.056105 -24.995475 -59.984105 C -25.007475 -59.769105 -25.029479 -59.552363 -25.099479 -59.348363 z M 18.908823 -61.570531 C 18.720823 -62.190531 18.389304 -62.96873 18.951304 -63.49973 C 19.360304 -63.55273 19.445878 -63.037844 19.614878 -62.765844 C 19.414878 -62.773844 19.214292 -62.782281 19.014292 -62.789281 C 18.882292 -62.394281 18.926823 -61.977531 18.908823 -61.570531 z M 25.818491 -62.702855 C 25.530491 -63.329855 25.23237 -64.083918 25.59437 -64.741918 C 25.72537 -64.736918 25.859808 -64.735129 25.992808 -64.733129 C 26.136808 -64.483129 26.269499 -64.22741 26.401499 -63.97141 C 26.200499 -64.02641 26.001378 -64.084402 25.802378 -64.138402 C 25.564378 -63.678402 25.757491 -63.177855 25.818491 -62.702855 z M -15.381705 -63.395726 C -15.615705 -64.023726 -15.938619 -65.27966 -14.968619 -65.37766 C -14.825619 -65.12266 -14.694787 -64.860363 -14.565787 -64.598363 C -14.772787 -64.609363 -14.980881 -64.623984 -15.186881 -64.634984 C -15.352881 -64.240984 -15.372705 -63.815726 -15.381705 -63.395726 z M 16.793589 -67.182348 C 16.783589 -67.279348 16.764038 -67.470137 16.754038 -67.566137 C 17.237038 -68.034137 17.567843 -68.623789 17.928843 -69.184789 C 17.906843 -68.383789 17.324589 -67.729348 16.793589 -67.182348 z M 18.923472 -67.498754 C 18.918472 -67.668754 18.914753 -67.839449 18.911753 -68.011449 C 19.083753 -68.007449 19.256773 -68.00466 19.431773 -68.00266 C 19.430773 -67.83366 19.430773 -67.667684 19.431773 -67.501684 C 19.260773 -67.499684 19.091472 -67.497754 18.923472 -67.498754 z M 14.325327 -67.878148 C 14.218614 -67.889739 14.125944 -68.023227 14.199351 -68.118383 C 14.342351 -68.242383 14.558018 -67.935613 14.359018 -67.879613 C 14.347862 -67.87802 14.336366 -67.876949 14.325327 -67.878148 z M 12.32728 -68.395238 C 12.30828 -69.079238 12.942722 -69.531289 13.204722 -70.122289 C 13.197722 -69.444289 12.75228 -68.882238 12.32728 -68.395238 z M 14.353159 -68.508031 C 14.269254 -68.508155 14.184854 -68.51273 14.104136 -68.515355 C 14.103136 -68.619355 14.101206 -68.827371 14.101206 -68.931371 C 14.393206 -68.939371 14.686112 -68.940301 14.980112 -68.934301 C 14.939487 -68.561645 14.652821 -68.507591 14.353159 -68.508031 z M 5.5640964 -69.001684 C 5.5600964 -69.211684 5.5624206 -69.419566 5.5714206 -69.631566 C 5.4834206 -69.775566 5.394819 -69.922625 5.304819 -70.066625 C 5.610819 -70.037625 5.9187409 -70.043555 6.2247409 -70.069555 C 6.2517409 -69.999555 6.3061394 -69.860234 6.3331394 -69.791234 C 6.4931394 -69.951234 6.6531433 -70.115027 6.8121433 -70.279027 C 6.8141433 -70.404027 6.8169324 -70.531887 6.8209324 -70.659887 C 6.2779324 -70.628887 5.7409558 -70.507926 5.1949558 -70.574926 C 5.2919558 -70.731926 5.3908542 -70.89107 5.4908542 -71.04807 C 5.0808542 -71.35907 4.6147487 -71.583129 4.1827487 -71.858129 C 4.8257487 -71.890129 5.3321198 -71.482313 5.8131198 -71.121313 C 6.1721198 -71.010313 6.5680495 -71.116805 6.9410495 -71.100805 C 7.3850495 -70.246805 6.4960964 -69.014684 5.5640964 -69.001684 z M 14.81019 -69.655004 C 14.81319 -69.754004 14.818909 -69.951512 14.821909 -70.050512 C 15.252909 -70.247512 15.688331 -70.039469 15.929331 -69.656469 C 15.555331 -69.656469 15.18319 -69.675004 14.81019 -69.655004 z "
     transform="matrix(1.3333333,0,0,-1.3333333,43.56558,0.84932)" />
</svg>
