<?xml version="1.0" encoding="UTF-8" standalone="no"?>
<!-- Created with Inkscape (http://www.inkscape.org/) -->

<svg
   version="1.1"
   id="svg1"
   width="102.81921"
   height="88.611389"
   viewBox="0 0 102.81921 88.611389"
   sodipodi:docname="s12.svg"
   inkscape:version="1.4 (1:1.4+202410161351+e7c3feb100)"
   xmlns:inkscape="http://www.inkscape.org/namespaces/inkscape"
   xmlns:sodipodi="http://sodipodi.sourceforge.net/DTD/sodipodi-0.dtd"
   xmlns="http://www.w3.org/2000/svg"
   xmlns:svg="http://www.w3.org/2000/svg">
  <defs
     id="defs1">
    <clipPath
       clipPathUnits="userSpaceOnUse"
       id="clipPath2092">
      <path
         d="M 0,595 H 842 V 0 H 0 Z"
         transform="translate(-790.83692,-582.53171)"
         id="path2092" />
    </clipPath>
    <clipPath
       clipPathUnits="userSpaceOnUse"
       id="clipPath2094">
      <path
         d="M 0,595 H 842 V 0 H 0 Z"
         transform="translate(-824.73055,-583.65091)"
         id="path2094" />
    </clipPath>
    <clipPath
       clipPathUnits="userSpaceOnUse"
       id="clipPath2096">
      <path
         d="M 0,595 H 842 V 0 H 0 Z"
         transform="translate(-768.92874,-576.33741)"
         id="path2096" />
    </clipPath>
    <clipPath
       clipPathUnits="userSpaceOnUse"
       id="clipPath2098">
      <path
         d="M 0,595 H 842 V 0 H 0 Z"
         transform="translate(-778.97754,-583.07181)"
         id="path2098" />
    </clipPath>
    <clipPath
       clipPathUnits="userSpaceOnUse"
       id="clipPath2100">
      <path
         d="M 0,595 H 842 V 0 H 0 Z"
         transform="translate(-827.44435,-570.10501)"
         id="path2100" />
    </clipPath>
    <clipPath
       clipPathUnits="userSpaceOnUse"
       id="clipPath2102">
      <path
         d="M 0,595 H 842 V 0 H 0 Z"
         transform="translate(-798.70412,-571.75391)"
         id="path2102" />
    </clipPath>
    <clipPath
       clipPathUnits="userSpaceOnUse"
       id="clipPath2104">
      <path
         d="M 0,595 H 842 V 0 H 0 Z"
         transform="translate(-827.12215,-563.44581)"
         id="path2104" />
    </clipPath>
    <clipPath
       clipPathUnits="userSpaceOnUse"
       id="clipPath2106">
      <path
         d="M 0,595 H 842 V 0 H 0 Z"
         transform="translate(-778.48929,-562.85061)"
         id="path2106" />
    </clipPath>
    <clipPath
       clipPathUnits="userSpaceOnUse"
       id="clipPath2108">
      <path
         d="M 0,595 H 842 V 0 H 0 Z"
         transform="translate(-806.22272,-562.05221)"
         id="path2108" />
    </clipPath>
    <clipPath
       clipPathUnits="userSpaceOnUse"
       id="clipPath2110">
      <path
         d="M 0,595 H 842 V 0 H 0 Z"
         transform="translate(-788.57034,-559.13181)"
         id="path2110" />
    </clipPath>
    <clipPath
       clipPathUnits="userSpaceOnUse"
       id="clipPath2112">
      <path
         d="M 0,595 H 842 V 0 H 0 Z"
         transform="translate(-804.59672,-562.83111)"
         id="path2112" />
    </clipPath>
    <clipPath
       clipPathUnits="userSpaceOnUse"
       id="clipPath2114">
      <path
         d="M 0,595 H 842 V 0 H 0 Z"
         transform="translate(-802.6309,-558.33111)"
         id="path2114" />
    </clipPath>
    <clipPath
       clipPathUnits="userSpaceOnUse"
       id="clipPath2116">
      <path
         d="M 0,595 H 842 V 0 H 0 Z"
         transform="translate(-794.37992,-558.01861)"
         id="path2116" />
    </clipPath>
    <clipPath
       clipPathUnits="userSpaceOnUse"
       id="clipPath2118">
      <path
         d="M 0,595 H 842 V 0 H 0 Z"
         transform="translate(-826.95122,-555.50541)"
         id="path2118" />
    </clipPath>
    <clipPath
       clipPathUnits="userSpaceOnUse"
       id="clipPath2120">
      <path
         d="M 0,595 H 842 V 0 H 0 Z"
         transform="translate(-778.32812,-554.88231)"
         id="path2120" />
    </clipPath>
    <clipPath
       clipPathUnits="userSpaceOnUse"
       id="clipPath2122">
      <path
         d="M 0,595 H 842 V 0 H 0 Z"
         transform="translate(-793.74324,-550.83841)"
         id="path2122" />
    </clipPath>
    <clipPath
       clipPathUnits="userSpaceOnUse"
       id="clipPath2124">
      <path
         d="M 0,595 H 842 V 0 H 0 Z"
         transform="translate(-810.5107,-551.00541)"
         id="path2124" />
    </clipPath>
    <clipPath
       clipPathUnits="userSpaceOnUse"
       id="clipPath2126">
      <path
         d="M 0,595 H 842 V 0 H 0 Z"
         transform="translate(-831.4717,-550.31931)"
         id="path2126" />
    </clipPath>
    <clipPath
       clipPathUnits="userSpaceOnUse"
       id="clipPath2128">
      <path
         d="M 0,595 H 842 V 0 H 0 Z"
         transform="translate(-769.82814,-525.12351)"
         id="path2128" />
    </clipPath>
    <clipPath
       clipPathUnits="userSpaceOnUse"
       id="clipPath2130">
      <path
         d="M 0,595 H 842 V 0 H 0 Z"
         transform="translate(-831.43652,-542.09571)"
         id="path2130" />
    </clipPath>
    <clipPath
       clipPathUnits="userSpaceOnUse"
       id="clipPath2132">
      <path
         d="M 0,595 H 842 V 0 H 0 Z"
         transform="translate(-789.27249,-540.47311)"
         id="path2132" />
    </clipPath>
    <clipPath
       clipPathUnits="userSpaceOnUse"
       id="clipPath2134">
      <path
         d="M 0,595 H 842 V 0 H 0 Z"
         transform="translate(-812.11622,-540.14161)"
         id="path2134" />
    </clipPath>
  </defs>
  <sodipodi:namedview
     id="namedview1"
     pagecolor="#ffffff"
     bordercolor="#000000"
     borderopacity="0.25"
     inkscape:showpageshadow="2"
     inkscape:pageopacity="0.0"
     inkscape:pagecheckerboard="0"
     inkscape:deskcolor="#d1d1d1"
     inkscape:zoom="1.1012211"
     inkscape:cx="96.710824"
     inkscape:cy="148.92559"
     inkscape:window-width="1190"
     inkscape:window-height="788"
     inkscape:window-x="50"
     inkscape:window-y="61"
     inkscape:window-maximized="1"
     inkscape:current-layer="svg1">
    <inkscape:page
       x="0"
       y="0"
       width="102.81921"
       height="88.611389"
       id="page2"
       margin="0"
       bleed="0" />
  </sodipodi:namedview>
  <path
     id="path2091"
     clip-path="url(#clipPath2092)"
     style="fill:#231f20;fill-opacity:1;fill-rule:nonzero;stroke:none"
     d="m 33.893776,1.119201 c -2.127,-2.572 -4.619418,-4.8823244 -7.378418,-6.7573244 0.99,-0.28 2.195847,-0.7692422 2.318847,-1.9482422 0.046,-1.89 0.0089,-3.7867344 0.06592,-5.6777344 0.117,-0.868 0.302641,-1.816192 0.931641,-2.471192 1.076,1.339 2.589543,2.449762 4.331543,2.655762 -0.092,0.305 -0.198754,0.611106 -0.197754,0.933106 -0.007,3.8979997 -0.03163,7.7973125 0.02637,11.69531249 -0.021,0.523 0.08486,1.06731254 -0.09814,1.57031251 z m 2.838867,-0.061523 c -0.252,-4.474 0.0075,-8.9948871 -0.124512,-13.483887 -0.309,-1.537 -2.099808,-0.891305 -3.153808,-1.362305 -4.005,-1.14 -5.886266,-6.394485 -3.697266,-9.896485 1.208,1.265 2.698887,2.397535 4.483887,2.623535 -0.528,0.709 -0.379305,1.865336 0.512695,2.194336 1.109,0.224 2.28011,0.312836 3.28711,0.881836 2.331,1.169 3.703136,3.807071 3.640136,6.372071 -0.001,1.354 -0.03903,2.7104769 0.02197,4.0634769 0.177,1.182 1.306848,1.8279571 2.318848,2.2309571 -2.291,1.189 -4.048899,3.1205626 -5.920899,4.85156261 -0.554,0.417 -0.914164,1.01390238 -1.368164,1.52490239 z M 19.517799,0.95660337 c -0.371641,-0.0125312 -0.742457,-0.0583008 -1.105957,-0.13330079 -1.699,-0.314 -3.115383,-1.36109771 -4.567383,-2.22509768 -0.909,-0.521 -2.261996,-0.5256602 -2.895996,0.42333983 -0.392,-1.12200003 -1.9209651,-1.27729303 -2.8139651,-0.67529303 -0.749,0.5 -1.5238478,0.94823445 -2.3188478,1.36523445 -1.676,1.162 -4.0484298,1.37857425 -5.81542978749,0.288574225002 C -1.6187797,-0.78593962 -2.7807329,-2.2219124 -3.6267329,-3.7719124 c 0.269,-0.343 0.6874492,-0.4707266 1.0854492,-0.5947266 0.929,2.106 2.99180877,3.95665249 5.4038088,3.86865249 1.448,-0.267 2.9728126,-0.94067979 3.6328126,-2.34667979 1.043,-1.545 1.0176914,-4.0899532 -0.7163086,-5.1269532 -0.63,-0.223 -1.0543634,-0.9977305 -1.7973634,-0.6987305 -0.363,0.464 -0.398,1.0718321 0,1.5278321 -0.519,0.22 -0.8292266,-0.4240547 -1.1572266,-0.7060547 -0.579,0.078 -0.3923398,0.8409062 -0.4233398,1.2539062 -0.209,0.602 -0.3380742,1.2658595 -0.1010742,1.8808595 0.257,0.757 1.2251289,1.1497187 1.9321289,0.7617187 0.019,0.144 0.093574,0.3298321 -0.086426,0.4028321 -0.957,0.56 -2.250379,0.3224453 -2.963379,-0.5185547 -1.01999995,-1.232 -1.01650776,-3.1606447 -0.020508,-4.4106447 -0.62699996,-0.38 -1.31832031,-0.8607383 -1.40332031,-1.6567385 -0.355,-1.397 0.34508984,-2.870398 -0.23291016,-4.233398 -0.303,0.504 -0.82977343,1.071492 -1.46777343,0.729492 -1.108,-0.501 -0.792375,-2.140578 0.140625,-2.642578 0.611,-0.243 1.34995312,-0.06065 1.75195312,0.464355 0.749,0.952 0.62225394,2.255012 1.13525398,3.312012 0.339,0.871 1.0118711,1.568879 1.8178711,2.025879 1.089,0.7009999 2.5468516,0.5166015 3.5478516,1.3916015 1.201,0.905 1.6818985,2.4315118 1.7958985,3.8745118 1.402,0.164 2.3169806,1.449879 2.4799806,2.775879 0.231,0.433 0.382016,-0.2861172 0.416016,-0.4951172 0.2,-1.164 1.195231,-2.0623321 2.386231,-2.0903321 -0.257,-2.2 1.461011,-4.4317227 3.687011,-4.6157227 1.53,-0.207 3.268004,-0.8838943 3.854004,-2.4418943 0.577,-1.148 0.189043,-2.663207 1.144043,-3.637207 0.889,-0.911 2.665504,-0.09066 2.541504,1.173339 0.018,0.628 -0.519722,1.523329 -1.240722,1.236329 -0.505,-0.132 -0.620903,-0.697606 -0.774903,-1.120606 -0.699,0.723 -0.268371,1.872512 -0.130371,2.749512 0.355,1.283 -0.103066,2.8787773 -1.393066,3.4467773 1.166,1.595 0.764007,4.4336837 -1.291993,5.0756837 -0.778,0.283 -2.193992,0.2107344 -2.416992,-0.6972656 0.457,0.526 1.273055,0.3694687 1.831055,0.1054687 0.876,-0.533 0.866957,-1.7520391 0.355957,-2.5400391 0.132,-0.5 0.196559,-1.3785899 -0.502441,-1.4545899 0.014,0.728 -0.594004,0.9855235 -1.229004,0.8115235 0.834,-0.528 0.22348,-1.8948907 -0.70752,-1.5878907 -0.498,0.47 -1.258781,0.5355625 -1.675781,1.1015625 -1.219,1.33 -1.032074,3.4355353 -0.101074,4.8735353 0.97,1.68500002 3.087215,2.58298054 4.970215,2.10498054 2.117,-0.32 3.665023,-2.09499624 4.374023,-4.02099624 0.406,0.116 0.803988,0.2637071 1.187988,0.4497071 -0.681,1.645 -1.674898,3.30887509 -3.295898,4.17187509 -0.95925,0.582 -2.082832,0.83300393 -3.197754,0.79541018 z M -14.432886,0.55816586 c -1.846,-2.86299996 -4.741097,-4.82192986 -7.475097,-6.75292986 1.145,-0.152 2.337484,-0.9437305 2.396484,-2.1987305 0.143,-2.6500005 -0.420426,-5.5345235 1.038574,-7.9365235 1.042,1.308 2.502157,2.298351 4.160157,2.610351 -0.061,0.179 -0.115133,0.358993 -0.161133,0.541993 -0.175,4.5719997 0.191015,9.1768399 0.04101,13.73583986 z m 2.573731,-0.0175781 c -0.049,-3.96000006 -0.14068,-7.91881286 -0.09668,-11.88281276 -0.038,-0.966 0.122469,-2.37902 -1.019531,-2.77002 -0.926,-0.037 -1.874426,-0.07327 -2.711426,-0.530273 -3.469,-1.546 -4.806164,-6.286907 -2.868164,-9.503907 1.021,1.344 2.527129,2.276028 4.182129,2.603028 -0.492,0.838 -0.08716,2.150984 0.98584,2.208984 2.399,0.168 4.660129,1.711907 5.682129,3.878907 1.124,2.335 0.620875,4.953011 0.796875,7.4370115 0.163,1.264 1.4689532,1.744375 2.5019532,2.109375 -2.995,1.444 -5.2821252,3.9917072 -7.4531252,6.44970726 z M 10.749244,-9.6034555 C 9.689369,-9.6402055 8.6448963,-10.03176 7.8678963,-10.77826 c -2.412,-2.038 -2.6228594,-6.432891 -0.00586,-8.337891 0.825,1.068 1.7179024,2.081129 2.6499017,3.057129 -0.7879993,0.416 -1.0141047,1.62298 -0.183105,2.10498 0.987,0.512 1.985793,-0.895246 1.237793,-1.677246 -1.555,-1.662 -3.0239178,-3.398824 -4.5659178,-5.069824 0.866,-0.994 1.7211407,-1.996379 2.6191407,-2.963379 1.5879991,1.805 3.2021561,3.594227 4.9101561,5.282227 1.998,2.227 1.642476,6.08466 -0.811524,7.82666 -0.8355,0.6715 -1.909363,0.9888985 -2.969237,0.9521485 z m 29.868165,-6.7778325 c -0.985,-1.451 -2.606543,-2.425101 -4.331543,-2.704101 0.261,-0.485 0.510781,-1.106653 0.175781,-1.618653 -0.391,-0.833 -1.444125,-0.736301 -2.203125,-0.883301 -2.916,-0.412 -5.127895,-3.106449 -5.441895,-5.960449 -0.24,-1.503 0.276559,-3.006641 0.997559,-4.306641 1.166,1.37 2.75075,2.511086 4.59375,2.663086 -0.688,0.752 -0.50057,2.070891 0.56543,2.337891 1.739,0.306 3.556855,0.78825 4.776855,2.15625 2.117,2.132 2.522188,5.804918 0.867188,8.315918 z m -48.6533217,-0.666504 c -1.189,-1.207 -2.5890353,-2.341789 -4.3110353,-2.633789 0.547,-0.937 0.103703,-2.451004 -1.154297,-2.354004 -4.789,0.039 -7.701652,-6.332027 -4.993652,-10.103027 1.063,1.269 2.478972,2.336351 4.146972,2.610351 -0.598,0.785 -0.256968,2.174887 0.832032,2.233887 2.263,0.069 4.2729686,1.446883 5.5429686,3.254883 1.292,2.124 1.1820117,4.870699 -0.062988,6.991699 z m 27.4672857,-1.457519 c -1.553097,-0.0065 -3.123648,-0.698016 -4.045898,-1.97461 0.96,-0.961 1.901445,-1.944574 2.856445,-2.913574 0.351,0.215 0.607012,0.643094 1.062012,0.621094 0.846,0.151 1.406156,-1.110641 0.785156,-1.681641 -1.539,-1.762 -3.266957,-3.34657 -4.855957,-5.05957 0.963,-0.976 1.934785,-1.944039 2.904785,-2.915039 1.558,1.404 2.802262,3.122269 4.343262,4.551269 2.252,1.85 2.375965,5.526122 0.563965,7.724122 -0.885938,1.126406 -2.24339,1.653656 -3.61377,1.647949 z M 2.7013923,-18.70746 c -2.42760942,-0.07875 -4.7827853,-2.180894 -4.9672853,-4.691894 -0.254,-1.747 0.5191094,-3.494852 1.78710939,-4.672852 1.028,0.914 1.97551571,1.932676 2.85351571,2.992676 -0.707,0.414 -0.8904297,1.557105 -0.1904297,2.058105 0.404,0.151 0.9027071,0.106161 1.1997071,-0.235839 1.574,-1.493 2.9351798,-3.189786 4.4091798,-4.779786 0.882,0.986 1.820168,1.943719 2.5971677,3.011719 -1.8859997,1.779 -3.439453,3.882086 -5.314453,5.663086 -0.74725,0.4835 -1.5653086,0.681035 -2.3745117,0.654785 z m 11.0581057,-0.993164 c -0.831,-1.082 -1.879274,-1.972676 -2.780274,-2.992676 1.777,-1.671 3.399715,-3.494082 5.157715,-5.184082 0.989,1.008 2.043688,1.972707 2.929688,3.074707 -1.537,1.478 -3.039902,2.993438 -4.524902,4.523438 -0.224,0.238 -0.430227,0.534613 -0.782227,0.578613 z m -1.96582,-4.5 c -1.578,-1.821 -3.2478559,-3.559316 -4.7768559,-5.424316 0.874,-0.986 1.7513945,-1.970661 2.6293945,-2.951661 1.5770004,1.733 3.1091254,3.513376 4.8281254,5.109376 0.245,0.162 0.262324,0.441515 0.0073,0.603515 -0.968,0.817 -1.684988,1.888086 -2.687988,2.663086 z m 28.754883,-0.09521 c -0.981,-1.506 -2.673082,-2.471468 -4.434082,-2.730468 0.664,-0.606 0.592582,-1.828958 -0.253418,-2.230958 -0.779,-0.252 -1.608625,-0.301386 -2.390625,-0.546386 -1.493,-0.42 -2.668781,-1.545344 -3.550781,-2.777344 -1.406,-2.092 -1.42902,-4.92059 -0.14502,-7.07959 1.213,1.341 2.810949,2.397055 4.647949,2.581055 -0.473,0.554 -0.439765,1.265648 -0.134765,1.889648 0.622,0.434 1.36698,0.593266 2.10498,0.697266 3.259,0.584 5.851477,3.989922 5.188477,7.294922 -0.104,1.027 -0.411715,2.065855 -1.032715,2.901855 z M 3.7385017,-24.424745 c -0.075832,-0.0051 -0.1464493,-0.03202 -0.1948243,-0.08789 -1.594,-1.887 -3.35414462,-3.628164 -4.9731446,-5.493164 -0.724,-1.162 -1.057918,-2.594148 -0.815918,-3.952148 0.435,-1.753 1.72404695,-3.377485 3.498047,-3.896485 1.859,-0.616 4.0498673,0.238465 5.0888673,1.876465 -0.962,0.863 -1.6911134,1.940895 -2.6411134,2.816895 -0.371,-0.397 -0.8787735,-0.86984 -1.4677735,-0.61084 -0.661,0.171 -0.6954062,1.106129 -0.3164062,1.557129 1.461,1.737 3.0203829,3.384992 4.5673829,5.041992 -0.855,0.82 -1.5942032,1.747422 -2.4082032,2.607422 -0.070625,0.09438 -0.2105273,0.149082 -0.336914,0.140625 z M -8.071069,-25.003358 c -1.256,-1.167 -2.634012,-2.416508 -4.437012,-2.645508 0.297,-0.674 0.330957,-1.667078 -0.394043,-2.080078 -1.061,-0.242 -2.206344,-0.256188 -3.152344,-0.867188 -3.228,-1.722 -4.576902,-6.174379 -2.649902,-9.338379 1.081,1.326 2.584035,2.382422 4.311035,2.607422 -0.46,0.837 -0.116738,2.127293 0.968262,2.175293 2.297,0.106 4.301758,1.529113 5.551758,3.391113 1.123,2.098 0.988246,4.716325 -0.197754,6.757325 z m 30.61963,-3.533203 c -1.057,-0.828 -1.894489,-2.028747 -2.875489,-2.989747 0.465,-0.357 1.018012,-0.938453 0.687012,-1.564453 -0.182,-0.65 -1.024566,-0.973078 -1.580566,-0.580078 -1.73,1.598 -3.303188,3.362442 -4.992188,5.002442 -0.829,-1.059 -1.799313,-1.993211 -2.695313,-2.991211 1.766,-1.743 3.422434,-3.592075 5.169434,-5.351075 1.283,-1.007 3.084864,-1.242258 4.609864,-0.864258 2.328,0.804 3.714172,3.396063 3.451172,5.789063 -0.235,1.314 -0.752926,2.646317 -1.773926,3.549317 z M 5.6149665,-28.694765 c -0.899,-0.999 -1.8034961,-1.998535 -2.7084961,-2.998535 1.637,-1.72 3.226547,-3.485394 4.810547,-5.254394 0.937,0.966 1.8314532,1.977789 2.6894536,3.008789 -1.6790004,1.673 -3.2485045,3.44814 -4.7915045,5.24414 z m 35.0200205,-3.517089 c -0.945,-1.517 -2.611883,-2.575754 -4.379883,-2.822754 0.243,-0.473 0.569699,-1.035665 0.241699,-1.555665 -0.354,-0.855 -1.419828,-0.751878 -2.173828,-0.900878 -2.671,-0.321 -4.929391,-2.522446 -5.525391,-5.106446 -0.267,-3.706 0.111641,-7.441137 -0.193359,-11.140137 -0.046,-1.333 0.211551,-2.663164 0.03955,-3.993164 -0.036,-0.585 0.161351,-1.302402 -0.389649,-1.712402 -0.566,-0.781 -1.969511,-0.315512 -1.999511,0.625488 -0.057,2.33 -0.06456,4.661699 0.02344,6.991699 -1.614,0.237 -3.276465,-0.232597 -4.876465,0.212403 -1.353,-0.174 -2.763184,-0.288403 -4.138184,-0.212403 -0.435,3.684 -0.01,7.41177 -0.188965,11.11377 -1.144,1.043 -2.128617,2.274672 -3.307617,3.263672 -0.836,-1.1 -1.944387,-1.96327 -2.796387,-3.05127 0.274,-0.393 0.718457,-0.684281 0.918457,-1.113281 0.163,-5.234 -0.150843,-10.46666 0.03516,-15.70166 3.123,0.011 6.24707,0.171144 9.37207,0.09814 -0.186,-2.215 0.298258,-4.612176 1.989258,-6.180176 2.015,-2.027 5.476629,-2.092707 7.744629,-0.449707 1.759,1.193 2.741743,3.302696 2.885743,5.387696 0.126,3.897 0.0087,7.794847 0.05566,11.693847 0.067,1.159 -0.2662,2.433047 0.3208,3.498047 0.907,0.783 2.232856,0.546899 3.276856,1.045899 3.826,1.429 5.454918,6.679278 3.065918,10.009278 z M -8.1487057,-32.8183 c -1.179,-1.282 -2.6502503,-2.359297 -4.4062503,-2.654297 0.531,-0.806 0.193246,-2.27059 -0.947754,-2.20459 -3.395,-0.114 -6.218387,-3.265488 -6.171387,-6.625488 -0.44,-0.081 -0.888472,-0.159883 -1.334472,-0.254883 -1.108,-0.236 -2.199102,-0.574965 -3.079102,-1.313965 -2.168,-1.598 -3.130484,-4.383488 -3.146484,-7.000488 0.043,-1.605 -0.275696,-3.204036 -0.887696,-4.686036 2.37,0.087 4.741282,0.128415 7.113282,0.149415 2.82,0.024 5.640473,0.01804 8.459473,0.01904 0.031,-1.313 0.02539,-2.680669 0.546386,-3.909669 1.098,-3.087 4.8946372,-4.901418 7.9526372,-3.628418 2.363,0.799 3.9943439,3.111434 4.2773439,5.544434 0.039,0.656 -0.0588438,1.315285 0.0351563,1.967285 1.873,0.242 3.8206798,0.03834 5.7216798,0.152344 1.17,0.23 2.363711,-0.02461 3.553711,0.0044 -0.041,5.234 -0.035789,10.474914 -0.00879,15.711914 1.6079998,1.962 3.5046878,3.669942 5.1796878,5.564942 -0.966,0.954 -1.855375,1.982461 -2.859375,2.897461 -2.3040002,-2.677 -4.8196762,-5.181887 -7.1176762,-7.858887 -0.054,-2.923 0.023055,-5.854274 -0.043945,-8.780274 -0.206,-0.709 -0.057773,-1.423672 0.032227,-2.138672 -3.087,-0.51 -6.2844221,0.269129 -9.3574221,-0.317871 -0.03,-2.382 0.1181211,-4.780508 -0.1508789,-7.145508 -0.412,-1.018 -2.1570313,-0.925387 -2.3320313,0.203613 -0.121,4.656 -0.087832,9.31854 -0.027832,13.97754 0.062,1.561 -0.2285195,3.195367 -1.0825195,4.526367 -1.112,-1.328 -2.613672,-2.512383 -4.388672,-2.692383 0.343,-1.232 0.184219,-2.520621 0.199219,-3.786621 -0.151,-1.649 0.003,-3.306496 -0.08496,-4.958496 -0.736,-10e-4 -1.472985,1.68e-4 -2.208985,-0.02783 -0.11,2.599 0.171778,5.18618 0.07178,7.78418 -0.092,0.79 0.701109,1.314078 1.412109,1.330078 2.208,0.208 4.1757503,1.604172 5.3437503,3.451172 1.126,2.083 0.9027929,4.682195 -0.2622071,6.700195 z m 48.9580087,-7.576172 c -0.053,-0.012 -0.156472,-0.03002 -0.209472,-0.04102 -1.041,-1.384 -2.627586,-2.368886 -4.350586,-2.608886 0.691,-1.02 0.202757,-2.258719 0.301757,-3.386719 0.119,-3.536 -0.0017,-7.072793 0.133301,-10.612793 2.075,0.073 4.150586,0.03079 6.225586,0.112793 2.013,0.281 4.054032,0.155949 6.082032,0.147949 -1.797,2.491 -3.627563,5.004844 -4.851563,7.839844 -0.779,-0.894 -1.51418,-1.883602 -2.53418,-2.516602 0.21,2.608 -0.01231,5.229703 0.03369,7.845703 0.066,1.128 -0.225567,2.269727 -0.830567,3.219727 z m -17.912109,-1.444336 c -0.58222,0.0027 -1.165782,-0.180937 -1.617188,-0.550781 -0.859,-0.637 -1.436004,-1.763727 -1.229004,-2.844727 0.075,-1.695 1.876879,-3.032605 3.525879,-2.620605 0.284,0.675 0.839988,1.360023 0.437988,2.124023 -0.416,1.026 -1.95523,0.91859 -2.38623,-0.04541 -0.786,0.357 -0.841125,1.317641 -0.703125,2.056641 0.089,0.406 0.155152,0.993531 0.681152,1.019531 -0.067,-0.549 -0.171722,-1.208949 0.259278,-1.647949 0.669,-0.546 1.852632,-0.481957 2.223632,0.394043 1.213,-0.974 0.810219,-2.776395 -0.175781,-3.754395 0.438,-0.238 0.752953,0.252203 1.001953,0.533203 1.158,1.248 1.125836,3.520004 -0.243164,4.604004 -0.459,0.486094 -1.115542,0.729359 -1.77539,0.732422 z m -23.9824229,-0.175781 c -0.037477,-4.7e-5 -0.075387,-0.0014 -0.112793,-0.0029 -0.123,-0.005 -0.245211,-0.01902 -0.366211,-0.04102 -1.93,-0.312 -3.1512969,-2.657575 -2.2792969,-4.413575 0.452,-1.036 1.5335079,-1.727023 2.6455079,-1.749023 0.276,-0.005 0.5532422,0.03033 0.8232422,0.111328 1.757,0.427 2.625961,2.615145 1.959961,4.223145 -0.3264688,1.150875 -1.50863869,1.873527 -2.6704102,1.87207 z m -1.3022462,-0.887695 c -0.382,-0.833 0.1567891,-1.989977 1.1337891,-2.000977 l 0.055664,-0.0088 c 0.57,-0.088 1.03401175,0.259629 1.43701175,0.619629 0.715,-0.926 0.76912895,-2.361082 0.0571289,-3.309082 -0.076,0.03 -0.22915235,0.09158 -0.30615235,0.121582 0.398,0.674 0.2618867,1.581062 -0.3911133,2.039062 -0.259,0.12 -0.53287501,0.161766 -0.796875,0.134766 -0.492,-0.049 -0.9480313,-0.334945 -1.2070313,-0.793945 -1.045,0.692 -0.9718555,2.27657 -0.2768555,3.18457 0.072,0.004 0.2214336,0.01118 0.2944336,0.01318 z m -17.3847659,-6.732422 c 0.071,-0.834 -0.07707,-1.658305 -0.101074,-2.487305 -0.379,-0.007 -0.757254,-0.0063 -1.135254,-0.0073 -0.418,0 -0.835907,-0.0036 -1.253907,-0.01758 -0.046,0.89 0.494907,1.743407 1.253907,2.191407 0.374,0.22 0.800328,0.342801 1.236328,0.320801 z"
     transform="matrix(1.3333333,0,0,-1.3333333,37.4958,1.492268)" />
</svg>
