<?xml version="1.0" encoding="UTF-8" standalone="no"?>
<!-- Created with Inkscape (http://www.inkscape.org/) -->

<svg
   version="1.1"
   id="svg1"
   width="532.07623"
   height="510.13281"
   viewBox="0 0 532.07623 510.13281"
   sodipodi:docname="s13.svg"
   inkscape:version="1.4 (1:1.4+202410161351+e7c3feb100)"
   xmlns:inkscape="http://www.inkscape.org/namespaces/inkscape"
   xmlns:sodipodi="http://sodipodi.sourceforge.net/DTD/sodipodi-0.dtd"
   xmlns="http://www.w3.org/2000/svg"
   xmlns:svg="http://www.w3.org/2000/svg">
  <defs
     id="defs1">
    <clipPath
       clipPathUnits="userSpaceOnUse"
       id="clipPath92">
      <path
         d="M 0,1920 H 1920 V 0 H 0 Z"
         transform="translate(-494.75001,-1415)"
         id="path92" />
    </clipPath>
  </defs>
  <sodipodi:namedview
     id="namedview1"
     pagecolor="#ffffff"
     bordercolor="#000000"
     borderopacity="0.25"
     inkscape:showpageshadow="2"
     inkscape:pageopacity="0.0"
     inkscape:pagecheckerboard="0"
     inkscape:deskcolor="#d1d1d1"
     inkscape:zoom="1.0820711"
     inkscape:cx="265.69417"
     inkscape:cy="255.06641"
     inkscape:window-width="1190"
     inkscape:window-height="788"
     inkscape:window-x="50"
     inkscape:window-y="61"
     inkscape:window-maximized="1"
     inkscape:current-layer="svg1">
    <inkscape:page
       x="0"
       y="0"
       width="532.07623"
       height="510.13281"
       id="page2"
       margin="0"
       bleed="0" />
  </sodipodi:namedview>
  <path
     id="path91"
     clip-path="url(#clipPath92)"
     style="fill:#333333;fill-opacity:1;fill-rule:evenodd;stroke:none"
     d="m -142.2002,382.3501 0.44971,-0.3999 c -28.167,-0.167 -52.36613,-6.75049 -72.59913,-19.75049 -12.3,-8.067 -20.9171,-17.05019 -25.8501,-26.95019 -6.8,-1.267 -12.6829,-4.94932 -17.6499,-11.04932 -3.233,-3.534 -5.56749,-7.48359 -7.00049,-11.85059 h -24.19922 c -1.967,-15.3 -2.95019,-31.21651 -2.95019,-47.74951 0,-30 3.25,-58.08349 9.75,-84.25049 7.633,-31.833 20.23183,-60.833 37.79883,-87.000001 9.07946,-13.561296 18.70191,-25.161623 28.85889,-34.829591 -2.64782,0.575476 -5.75777,0.383556 -9.35743,-0.619628 -6.067,-1.7 -10.60107,-5.017684 -13.60107,-9.950684 -1.967,3.667 -4.43293,6.767293 -7.39893,9.300293 -3.4,2.433 -8.13419,2.867781 -14.20019,1.300781 -4.4,-1.7 -7.45088,-4.667391 -9.15088,-8.900391 -2.133,-4.667 -2.83212,-8.984684 -2.09912,-12.950684 -10.2,-1.434 -17.0671,-6.599512 -20.6001,-15.499512 -3.4,-7.767 -2.96769,-14.9167072 1.29931,-21.44970722 3.8,4.40000002 8.25059,7.44941432 13.35059,9.14941432 4.8,1.6999999 9.1829,2.5502929 13.1499,2.5502929 1,9.333 5.31622,14.566196 12.94922,15.700196 9.9,1.7 21.35059,-0.783196 34.35059,-7.450196 12.6,-6.633 29.0832,-7.266902 49.4502,-1.899902 6.43017,1.731598 12.16844,3.869945 17.23681,6.404297 2.64738,-0.452894 5.31501,-0.833336 8.0127,-1.104492 1.20216,0.128198 2.38414,0.333621 3.57568,0.502441 4.46438,-2.066604 9.38727,-3.871143 14.87403,-5.352539 20.533,-5.533 37.083876,-4.966316 49.650876,1.700684 12.733,6.767 24.132708,9.299609 34.199708,7.599609 7.767,-1.133 12.082219,-6.367196 12.949219,-15.700196 4.1,0 8.683489,-0.916511 13.750489,-2.7495113 4.6999999,-1.567 9.0997072,-4.6010745 13.19970721874,-9.10107448126 C 4.0995092,6.1995092 4.5174858,13.267193 1.2504858,21.200193 c -3.967,9.2 -10.7510747,14.366512 -20.3510748,15.499512 0.567,4.1 -0.148926,8.482903 -2.148926,13.149903 -2.1,4.367 -5.217098,7.333391 -9.350098,8.900391 -6.2,1.567 -10.867977,1.150488 -14.000977,-1.249512 -3.367,-2.4 -5.983097,-5.517098 -7.850097,-9.350098 -2.967,5.1 -7.549024,8.499708 -13.749024,10.199708 -2.251573,0.543483 -4.34029,0.781737 -6.275391,0.732422 9.363534,9.553826 18.239752,20.970362 26.625001,34.26709 11.867,18.967001 21.350196,39.550491 28.450196,61.750491 10.5999997,33.1 15.8994142,69.6 15.8994142,109.5 -0.133,16.533 -1.0495118,32.44951 -2.7495118,47.74951 H -26.54932 c -1.7,4.367 -3.968269,8.31659 -6.801269,11.85059 -4.8,6.1 -10.382024,9.78232 -16.749024,11.04932 -4.667,9.9 -12.667001,18.88319 -24.000001,26.95019 -19.067,13 -41.767586,19.71639 -68.100586,20.15039 z m -0.19922,-21.65039 c 23.9,-0.133 44.416806,-6.06631 61.549806,-17.79931 10.3,-7.1 17.58261,-15.03379 21.84961,-23.80079 5.8,-1.267 10.816805,-4.517 15.049805,-9.75 2.7,-3.233 4.750879,-6.69892 6.150879,-10.39892 h 20.399415 v -0.65039 c 1.7,-13.567 2.550293,-27.63469 2.550293,-42.20069 0,-14.567 -0.850293,-28.64902 -2.550293,-42.24902 C -22.366905,172.11759 -34.967199,135.416 -55.200199,103.75 -73.36174,75.547933 -93.965498,56.82459 -116.9961,47.517577 c -2.64035,0.986713 -5.3061,2.180231 -8.00537,3.631348 1.95309,6.02441 2.33737,12.012617 1.15723,17.964844 0.75102,4.286474 -0.19139,8.334013 -2.85645,12.136231 -2.967,4.667 -7.13251,7.783097 -12.49951,9.350097 -2.62044,0.561552 -5.15406,0.648049 -7.6084,0.303223 -1.46756,-0.01003 -2.96277,-0.182653 -4.49121,-0.553711 -5.8,-1.533 -10.1839,-4.699512 -13.1499,-9.499512 -2.50781,-3.566935 -3.49113,-7.322445 -2.99414,-11.261719 -0.91011,-6.210346 -0.3018,-12.353705 1.8999,-18.42627 -1.9719,-1.085592 -3.93136,-2.077062 -5.86817,-2.913574 -23.87357,9.53354 -45.19544,27.999969 -63.9375,55.501466 -28.7,42.166 -43.05029,92.94961 -43.05029,152.34961 -0.167,14.7 0.68329,28.98408 2.55029,42.85108 h 21.84961 c 1.533,3.7 3.6501,7.16592 6.3501,10.39892 4.533,5.233 9.98359,8.483 16.35059,9.75 4.367,8.767 12.21582,16.70079 23.54882,23.80079 17.967,11.733 39.75108,17.66631 65.35108,17.79931 z M 51.687987,186.45069 c -0.74175,0.0334 -1.570805,-0.16709 -2.487305,-0.60059 -2.667,-1.267 -7.833977,-2.68251 -15.500977,-4.24951 -7.2,-1.7 -11.716805,-6.4332 -13.549805,-14.2002 -4.267,1.7 -8.082219,2.48261 -11.4492187,2.34961 -4.1,-0.3 -7.5673909,-2.84941 -10.4003909,-7.64941 -2.4,-3.967 -3.1173907,-8.217 -2.1503907,-12.75 1.433,-4.367 3.84951194749,-7.617 7.2495119,-9.75 -3.39999995251,-0.833 -6.5170978,-3.23418 -9.3500978,-7.20118 -2.567,-3.7 -3.0670001,-7.88231 -1.5000001,-12.54931 1.7,-4.8 5.1011722,-7.76739 10.2011722,-8.90039 5.233,-1 10.0324141,0.0677 14.3994141,3.20068 1.7,-4.1 2.416391,-8.91768 2.150391,-14.450683 -0.433,-5.5 -1.216609,-10.299414 -2.349609,-14.399414 -3.1,-8.933 -7.3500008,-17.066903 -12.7500008,-24.399903 -5.367,-7.667 -11.1678793,-13.750489 -17.4008792,-18.250489 -0.4,-1.7 -0.666805,-2.766219 -0.799805,-3.199219 1.833,0 3.599805,-0.217391 5.299805,-0.650391 5.933,5.1 12.0827075,11.467099 18.4497075,19.100099 5.7999995,7.633 10.2505865,16.332121 13.3505865,26.099121 3.533,13.167 4.25039,25.049899 2.15039,35.649899 -2.434,11.333 -3.000683,20.25098 -1.700683,26.75098 1.266,5.933 5.367293,8.61632 12.300293,8.04932 5.8,11.333 11.383489,20.31719 16.750489,26.95019 1.567,2.267 1.915828,3.68252 1.048828,4.24952 -0.5665,0.5 -1.219676,0.76789 -1.961426,0.80127 z m -394.300787,-0.3252 c -0.70825,-0.0334 -1.23643,-0.25879 -1.58643,-0.67529 -1.267,-0.7 -0.91817,-2.11651 1.04883,-4.24951 5.8,-7.934 11.25058,-16.9172 16.35058,-26.9502 7.2,0.567 11.45,-2.11778 12.75,-8.05078 1.133,-6.534 0.4833,-15.44951 -1.9497,-26.74951 -2.4,-10.767 -1.61739,-22.649907 2.34961,-35.649907 2.7,-9.767 6.95,-18.467587 12.75,-26.100587 6.367,-7.767 12.51671,-14.199317 18.44971,-19.299317 1.833,0.567 3.5998,0.849609 5.2998,0.849609 -0.133,0.4 -0.19922,1.450879 -0.19922,3.150879 -6.367,4.667 -12.3838,10.682806 -18.0498,18.049806 -5.367,7.5 -9.40108,15.699121 -12.10108,24.599121 -1.533,4.1 -2.51573,8.850001 -2.94873,14.250001 -0.134,5.632995 0.71483,10.516905 2.54883,14.649905 4.367,-3.133 9.03398,-4.26691 14.00098,-3.39991 5.1,1.133 8.70029,4.16808 10.80029,9.10108 1.133,4.533 0.43241,8.63183 -2.10059,12.29883 -2.833,3.966 -5.95009,6.45019 -9.35009,7.45019 3.533,2.1 5.9327,5.28378 7.1997,9.55078 1,4.533 0.51581,8.84922 -1.45019,12.94922 -3.267,4.667 -6.8831,7.13339 -10.8501,7.40039 -3.533,0.3 -7.4169,-0.40058 -11.6499,-2.10058 -1.7,7.633 -6.23261,12.30098 -13.59961,14.00098 -7.5,1.7 -12.51681,3.18319 -15.04981,4.45019 -1.067,0.35 -1.95483,0.50799 -2.66308,0.47461 z m 378.824712,-34.1499 c -0.958375,0.25 -2.494828,-0.54248 -4.611328,-2.37598 -2.967,-2.433 -4.599902,-5.0501 -4.899902,-7.8501 -0.7,-2.833 -0.417391,-7.29892 0.849609,-13.39892 1.433,-5.5 2.433,-11.08349 3,-16.75049 l 6.799805,36.49951 c 0.2,2.3335 -0.179809,3.62598 -1.138184,3.87598 z m -363.386732,-0.33838 c -0.88337,-0.24163 -1.10879,-1.48682 -0.67529,-3.73682 l 6.79981,-36.49951 c 0.134,5.5 0.8998,11.08202 2.2998,16.74902 1.3,5.933 1.8,10.38359 1.5,13.35059 -0.567,2.833 -2.3328,5.4501 -5.2998,7.8501 -2.2,1.7665 -3.74114,2.52824 -4.62452,2.28662 z M -7.8505886,110.29932 c -0.167,-7.9 -2.2164144,-16.232027 -6.1494144,-24.999027 -3.7,-8.933 -10.067098,-16.433001 -19.100098,-22.500001 2.233,0.267 4.632707,-0.08329 7.199707,-1.050293 13.433,11.733 21.0006844,26.866904 22.7006844,45.399901 -2.533,1.133 -4.083879,2.18342 -4.650879,3.14942 z M -283.29981,110.1001 c -0.433,-0.7 -1.85098,-1.74942 -4.25098,-3.14942 1.433,-18.699996 9.00068,-33.851169 22.70068,-45.451169 2.267,1 4.60049,1.367097 7.00049,1.100097 -9.2,5.933 -15.5661,13.350978 -19.1001,22.250978 -3.667,8.933 -5.78309,17.349514 -6.35009,25.249514 z m 298.999515,-1.8999 c -4.1,-2.967 -8.567391,-3.8173 -13.400391,-2.5503 -2.10000004,-8.899998 -5.1326096,-17.600584 -9.0996096,-26.100584 -4.2670004,-8.5 -9.6499024,-15.214926 -16.1499024,-20.148926 5.533,-3.833 8.233586,-8.650684 8.100586,-14.450684 9.7329998,8.2 17.6495121,18.384782 23.7495121,30.550782 5.6669999,12.334 7.9328049,23.232708 6.7998049,32.699712 z m -322.149915,-0.20069 c -1.4,-9.632998 0.9503,-20.532706 7.0503,-32.699706 5.8,-12.3 13.71651,-22.482317 23.74951,-30.549317 -0.567,5.367 1.90039,10.100196 7.40039,14.200196 -6.5,4.966 -11.73319,11.766414 -15.70019,20.399414 -3.966,8.467 -6.9334,17.166587 -8.9004,26.100583 -5.1,-1.267 -9.63261,-0.41817 -13.59961,2.54883 z m 162.23438,-28.114745 c 0.44757,-0.02892 0.89013,-0.158922 1.33448,-0.247558 4.48182,-1.783969 6.48964,-5.203399 5.98095,-10.287598 -0.79342,1.535616 -1.86685,2.735957 -3.19629,3.628418 -1.01492,0.827111 -2.2402,1.29051 -3.63281,1.467773 -0.26419,0.05904 -0.49408,0.159251 -0.77051,0.203613 -4.19733,0.673906 -7.12845,-0.825429 -8.82861,-4.441406 -0.26335,-0.396545 -0.50911,-0.810035 -0.7207,-1.258301 -1.133,6.066 1.33192,9.667293 7.39892,10.800293 0.81675,0.14175 1.62831,0.18686 2.43457,0.134766 z m 13.12207,-23.581055 c -0.59074,-2.554679 -1.54084,-5.109318 -2.8916,-7.664063 -0.40753,0.334571 -0.82424,0.662824 -1.21435,1.010742 -1.18579,-0.280078 -2.38976,-0.429385 -3.60352,-0.5083 0.79828,1.266663 1.52938,2.563828 2.15332,3.908203 -2.90209,-1.635842 -5.72105,-2.765434 -8.46533,-3.448242 -3.04741,0.635767 -6.17429,1.837517 -9.38525,3.647461 0.70879,-1.506238 1.57111,-2.945709 2.50488,-4.354981 -1.26865,0.06513 -2.52312,0.214829 -3.7544,0.505371 -0.31517,-0.280157 -0.65188,-0.541463 -0.97705,-0.812988 -1.40083,2.407276 -2.40226,4.814368 -3.06445,7.22168 3.53776,-2.235352 8.12937,-2.598683 13.7915,-1.059082 0.33684,0.08994 0.61844,0.205276 0.9375,0.303222 0.11022,-0.03161 0.19991,-0.0717 0.31202,-0.102539 5.61686,-1.477903 10.16285,-1.014664 13.65673,1.353516 z m -73.67138,-7.168946 c 1.79429,-1.415714 3.609,-2.757815 5.43457,-4.060547 -0.18943,0.0449 -0.3808,0.07819 -0.56983,0.125977 0.267,-1.3 0.33369,-3.000586 0.20069,-5.100586 2.64214,-0.762802 5.73582,-1.048256 9.25488,-0.886231 1.35915,-0.812812 2.73624,-1.562429 4.11182,-2.315918 -4.68627,-0.589428 -9.27667,-0.730497 -13.76661,-0.396972 -0.3,-3.7 -1.58407,-6.817098 -3.85107,-9.350098 11.80875,-3.762794 23.98772,-3.247864 36.52588,1.439941 2.16,-0.728645 4.33817,-1.392462 6.53467,-1.989258 -2.17292,-0.822032 -4.40796,-1.575095 -6.76026,-2.200195 -16.133,-4.533 -30.41661,-3.551269 -42.84961,2.948731 4.1,3.4 6.56739,7.782902 7.40039,13.149902 0.22031,3.103605 -0.34144,5.980389 -1.66552,8.635254 z m 40.95996,-2.069824 c 0.29732,-0.618647 0.63831,-1.235825 0.96826,-1.853027 -0.92027,0.278454 -1.82916,0.598498 -2.74219,0.902343 0.59771,0.310594 1.19486,0.622572 1.77393,0.950684 z m 37.20849,-0.09375 c 1.08442,-0.613512 2.21226,-1.18671 3.37208,-1.72998 -1.30151,-0.422583 -2.61809,-0.788379 -3.93458,-1.152832 -0.25005,0.134945 -0.49999,0.270346 -0.7456,0.408691 0.33721,0.585221 0.69925,1.178034 1.00488,1.753418 0.11147,0.240539 0.19672,0.48028 0.30322,0.720703 z m 39.14649,-1.195312 c -0.31404,-1.629395 -0.401157,-3.315939 -0.199219,-5.075684 0.567,-5.233 2.966707,-9.533879 7.199707,-12.900879 -12.167,-6.667 -26.449608,-7.732219 -42.849608,-3.199219 -1.3678,0.37809 -2.69026,0.797224 -3.9917,1.236328 2.28474,0.591034 4.54764,1.264829 6.79101,2.01416 11.28092,-3.599778 22.366877,-3.732818 33.250494,-0.300293 -2.1,2 -3.366805,5.117098 -3.799805,9.350098 -3.162415,-0.230453 -6.352013,-0.225677 -9.563969,-0.0088 1.509935,0.877501 3.019897,1.754904 4.508793,2.712891 1.74362,0.106298 3.372602,0.327652 4.854492,0.6958 -0.130125,0.925187 -0.179047,1.730905 -0.196289,2.493165 1.342232,0.954192 2.671478,1.960828 3.996094,2.982422 z m 46.500001,-22.876466 c -7.5,0 -14.932317,-1.549414 -22.299317,-4.649414 -7.367,-3.133 -14.800782,-5.333586 -22.300782,-6.600586 8.367,-1.8330001 17.283978,-2.1818283 26.750978,-1.048828 9.067,0.833 18.048731,1.31573 26.948731,1.44873 1.267,7.233 -1.76661,10.850098 -9.09961,10.850098 z M -249.54981,22.700193 c -7.8,-0.167 -11.05,-3.849316 -9.75,-11.049316 8.767,-0.134 17.75019,-0.634 26.95019,-1.5 9.467,-1.1340003 18.36671,-0.7683675 26.69971,1.098632 -7.633,1.266 -15.133,3.516001 -22.5,6.750001 -7.467,2.967 -14.5999,4.533683 -21.3999,4.700683 z"
     transform="matrix(1.3333333,0,0,-1.3333333,459.92558,509.80013)"
     inkscape:export-filename="/home/ziad-elaraby/StudioProjects/flutter_cv_maker/assets/png/s13.png"
     inkscape:export-xdpi="96"
     inkscape:export-ydpi="96" />
</svg>
