<?xml version="1.0" encoding="UTF-8" standalone="no"?>
<!-- Created with Inkscape (http://www.inkscape.org/) -->

<svg
   version="1.1"
   id="svg1"
   width="388.93164"
   height="503.93359"
   viewBox="0 0 388.93164 503.93359"
   sodipodi:docname="s14.svg"
   inkscape:version="1.4 (1:1.4+202410161351+e7c3feb100)"
   xmlns:inkscape="http://www.inkscape.org/namespaces/inkscape"
   xmlns:sodipodi="http://sodipodi.sourceforge.net/DTD/sodipodi-0.dtd"
   xmlns="http://www.w3.org/2000/svg"
   xmlns:svg="http://www.w3.org/2000/svg">
  <defs
     id="defs1">
    <clipPath
       clipPathUnits="userSpaceOnUse"
       id="clipPath66">
      <path
         d="M 0,1920 H 1920 V 0 H 0 Z"
         transform="translate(-1724.2002,-1668.3501)"
         id="path66" />
    </clipPath>
  </defs>
  <sodipodi:namedview
     id="namedview1"
     pagecolor="#ffffff"
     bordercolor="#000000"
     borderopacity="0.25"
     inkscape:showpageshadow="2"
     inkscape:pageopacity="0.0"
     inkscape:pagecheckerboard="0"
     inkscape:deskcolor="#d1d1d1"
     inkscape:zoom="1.0953824"
     inkscape:cx="194.9091"
     inkscape:cy="251.9668"
     inkscape:window-width="1190"
     inkscape:window-height="788"
     inkscape:window-x="50"
     inkscape:window-y="61"
     inkscape:window-maximized="1"
     inkscape:current-layer="svg1">
    <inkscape:page
       x="0"
       y="0"
       width="388.93164"
       height="503.93359"
       id="page2"
       margin="0"
       bleed="0" />
  </sodipodi:namedview>
  <path
     id="path65"
     clip-path="url(#clipPath66)"
     style="fill:#515151;fill-opacity:1;fill-rule:evenodd;stroke:none"
     d="m -124.79151,84.499511 a 0.50005,0.50005 0 0 1 -0.43945,-0.421875 c -27.93638,-0.229546 -51.95525,-6.816131 -71.99122,-19.807617 a 0.50005,0.50005 0 0 1 -0.003,-0.0029 c -12.26851,-8.047003 -20.98518,-17.025827 -26.14746,-26.942872 -6.65771,-1.333142 -12.5591,-5.123105 -17.6543,-11.34375 -0.002,-0.0018 -9.3e-4,-0.0041 -0.003,-0.0059 -3.05159,-3.48017 -5.3479,-7.316634 -6.93457,-11.474122 h -23.68652 a 0.50005,0.50005 0 0 1 -0.49512,-0.432129 c -2.10232,-15.2911662 -3.15381,-31.231232 -3.15381,-47.81836 0,-30.166708 3.31932,-58.289178 9.96241,-84.364746 0.001,-0.002 0.002,-0.004 0.003,-0.006 1.5e-4,-10e-4 -1.6e-4,-0.002 0,-0.003 7.64697,-32.0174 20.26906,-61.07269 37.86914,-87.15381 3.70058,-5.52746 7.49563,-10.72083 11.37744,-15.60498 -0.54783,0.20842 -1.07789,0.46727 -1.57031,0.83203 -1.4,0.567 -2.31652,0.6999 -2.74952,0.3999 -0.866,0 -1.366,-0.28261 -1.5,-0.84961 -0.133,-0.7 -0.19921,-1.40058 -0.19921,-2.10058 0,-1 0.0662,-1.78261 0.19921,-2.34961 0.7,-1.4 1.5503,-2.3832 2.5503,-2.9502 1.132,-0.433 2.61719,-0.933 4.45019,-1.5 -0.567,-1.7 -1.48397,-2.61551 -2.75097,-2.74951 -1.133,-0.433 -2.4833,-0.433 -4.0503,0 -1.267,0.433 -2.68251,0.99922 -4.24951,1.69922 -1.399,0.7 -2.88319,1.26768 -4.45019,1.70068 -1.4,0.267 -2.09912,0.0496 -2.09912,-0.65039 -0.433,-0.7 -0.1504,-1.55029 0.8496,-2.55029 1.267,-1.4 2.2502,-2.31551 2.9502,-2.74951 0.867,-0.566 1.15007,-1.48252 0.85107,-2.74952 -0.134,-0.7 -0.83505,-1.2 -2.10205,-1.5 -1.433,-0.133 -2.78182,0.0167 -4.04882,0.44971 -1.4,0.267 -2.81698,0.83222 -4.25098,1.69922 -1.266,0.833 -1.96712,1.75098 -2.09912,2.75098 -0.134,0.833 -0.0678,1.53312 0.19922,2.09912 0.301,0.867 0.73278,1.58339 1.30078,2.15039 0.266,0.4 0.61729,0.88319 1.05029,1.45019 0.701,0.567 1.11651,1.28339 1.24951,2.15039 0.433,0.833 0.58317,1.74952 0.45117,2.74952 0,0.833 -0.21785,1.68429 -0.65185,2.55029 -0.433,0.7 -0.99922,1.26622 -1.69922,1.69922 -0.267,0.567 -0.83368,0.63368 -1.70068,0.20068 -1.833,-0.7 -3.09981,-2.4668 -3.79981,-5.2998 -0.7,-2.7 -0.98261,-5.38378 -0.84961,-8.05078 0.567,-5.1 2.40049,-8.91522 5.50049,-11.44922 3.267,-2.567 6.79961,-4.48398 10.59961,-5.75098 0.867,0 1.58339,0.28507 2.15039,0.85107 0.267,0.7 0.68251,1.48261 1.24951,2.34961 0.433,0.834 0.7843,1.6833 1.0503,2.5503 0.567,0.567 1.3496,0.63222 2.3496,0.19922 -0.433,-2.833 -0.50021,-5.4501 -0.19921,-7.8501 0,-2.267 0.28361,-4.31542 0.84961,-6.14942 0.7,-1.567 1.68419,-2.76758 2.95019,-3.60058 1.267,-0.733 2.83268,-0.94893 4.70068,-0.64893 1.132,-2.967 2.39834,-5.16658 3.79834,-6.60058 1.267,-1.966 3.10049,-3.23281 5.50049,-3.79981 1.567,-0.133 3.0492,0.0844 4.4502,0.65039 1.299,0.567 2.23231,1.76612 2.79931,3.59912 1.133,-0.7 2.46749,-0.98261 4.00049,-0.84961 1.267,0.267 2.46612,0.83322 3.59912,1.69922 1.3,0.967 2.3,2.16759 3,3.60059 1,1.567 1.5,3.1999 1.5,4.8999 0,5.8 -1.84882,8.96651 -5.54882,9.49951 0.3,-1.4 -0.11798,-2.1668 -1.25098,-2.2998 -0.867,0 -1.71583,0.5 -2.54883,1.5 -1.266,1.533 -1.70031,3.71778 -1.29931,6.55078 0.0299,0.14948 0.0746,0.29875 0.10693,0.44824 5.45679,-4.93604 11.06237,-9.33916 16.82519,-13.18066 -0.94211,-1.29964 -1.65698,-2.8943 -2.083,-4.86768 -1.133,-4.233 -1.41761,-8.13271 -0.84961,-11.69971 0.732,-3.933 2.01661,-7.683 3.84961,-11.25 -0.867,-1.267 -2.15061,-1.96658 -3.84961,-2.10058 -1.667,-0.267 -3.06817,0.0166 -4.20117,0.84961 0,-1.966 0.35029,-3.51642 1.05029,-4.64942 0.833,-1.3 1.74951,-2.08261 2.74951,-2.34961 1.401,-0.433 2.75029,-0.36778 4.05029,0.19922 1.267,0.567 2.46659,1.6999 3.60059,3.3999 3.666,-2.967 7.76729,-4.58309 12.30029,-4.85009 4.534,0 8.56661,0.7668 12.09961,2.2998 3.667,1.267 6.70008,3.2502 9.10108,5.9502 2.399,2.4 4.31551,5.1668 5.74951,8.2998 0.36685,0.81289 0.70109,1.64857 1.01074,2.50049 3.05301,-0.55585 6.12754,-1.03413 9.24756,-1.34766 a 0.50005,0.50005 0 0 1 0.10107,0 c 0.17873,0.0191 0.35324,0.0547 0.53174,0.0747 0.18549,-0.40939 0.35595,-0.8276 0.55811,-1.22754 1.267,-3.133 3.03327,-5.8998 5.30127,-8.2998 2.566,-2.7 5.61494,-4.6832 9.14795,-5.9502 3.8,-1.533 8.03319,-2.2998 12.700192,-2.2998 4.401,0.267 8.301172,1.88309 11.701172,4.85009 1.133,-1.7 2.399805,-2.8329 3.799805,-3.3999 1.401,-0.567 2.748828,-0.63222 4.048828,-0.19922 0.833,0.267 1.684293,1.04961 2.550293,2.34961 0.834,1.133 1.250977,2.68342 1.250977,4.64942 -1.267,-0.833 -2.683977,-1.11661 -4.250977,-0.84961 -1.533,0.134 -2.799805,0.83358 -3.799805,2.10058 1.833,3.567 3.100805,7.317 3.799805,11.25 0.567,3.567 0.351074,7.46671 -0.648926,11.69971 -0.158268,0.64599 -0.367115,1.2221 -0.577148,1.7959 1.616656,1.04129 3.212703,2.15991 4.804688,3.2959 -0.105505,-0.84495 -0.178711,-1.74002 -0.178711,-2.74219 0,-1.7 0.434781,-3.3329 1.300781,-4.8999 0.833,-1.433 1.883414,-2.63359 3.149414,-3.60059 1.133,-0.866 2.41661,-1.43222 3.84961,-1.69922 1.4,-0.133 2.668269,0.14961 3.801269,0.84961 0.567,-1.833 1.482512,-3.03212 2.749512,-3.59912 1.267,-0.566 2.682512,-0.78339 4.249512,-0.65039 2.533,0.567 4.517195,1.83381 5.950195,3.79981 1.134,1.434 2.200684,3.63358 3.200684,6.60058 4.1,-0.566 6.85,0.84951 8.25,4.24951 1.133,3.533 1.282707,8.19952 0.449707,13.99952 0.833,0.433 1.533121,0.36778 2.099121,-0.19922 0.434,-0.867 0.851977,-1.7163 1.250977,-2.5503 0.434,-0.867 0.999219,-1.64961 1.699219,-2.34961 0.434,-0.566 1.000683,-0.85107 1.700683,-0.85107 3.967,1.267 7.516415,3.18398 10.649415,5.75098 3.099999,2.534 4.933488,6.34922 5.500488,11.44922 0.267,2.667 -0.01661,5.35078 -0.849609,8.05078 -0.7,2.833 -1.966805,4.5998 -3.799805,5.2998 -0.733,0.433 -1.384172,0.36632 -1.951172,-0.20068 -0.566,-0.433 -1.050195,-0.99922 -1.450195,-1.69922 -0.3,-0.866 -0.449707,-1.71729 -0.449707,-2.55029 -0.267,-1 -0.198317,-1.91652 0.200683,-2.74952 0.167,-0.867 0.532098,-1.58339 1.100098,-2.15039 0.566,-0.567 1.050195,-1.05019 1.450195,-1.45019 0.567001,-0.567 0.999782,-1.28339 1.300782,-2.15039 0.266,-0.566 0.266,-1.26612 0,-2.09912 -0.134,-1.133 -0.851856,-2.05098 -2.151856,-2.75098 -1.133,-0.867 -2.466024,-1.43222 -3.999024,-1.69922 -1.433,-0.433 -2.783293,-0.58271 -4.050293,-0.44971 -1.4,0.3 -2.100586,0.8 -2.100586,1.5 -0.3,1.267 -0.166097,2.18352 0.399903,2.74952 0.867,0.434 1.934683,1.34951 3.200683,2.74951 0.833,1 1.11661,1.85029 0.84961,2.55029 -0.167,0.7 -0.94961,0.91739 -2.34961,0.65039 -1.4,-0.567 -2.816511,-1.13368 -4.249511,-1.70068 -1.567,-0.7 -3.049196,-1.26622 -4.450196,-1.69922 -1.566,-0.433 -2.766121,-0.50068 -3.599121,-0.20068 -1.434,0.267 -2.434,1.25019 -3,2.95019 2,0.567 3.415512,1.067 4.249512,1.5 1.132,0.567 2.066316,1.5502 2.799316,2.9502 0.267,0.567 0.399903,1.34961 0.399903,2.34961 0,0.7 -0.132903,1.40058 -0.399903,2.10058 -0.247056,0.4685 -0.608871,0.6951 -1.038574,0.77637 3.359603,4.55195 6.65297,9.35734 9.868653,14.45654 12.0233,19.00383 21.591769,39.62626 28.70507839,61.86475 10.61686361,33.15579 15.92145761,69.7083 15.92145761,109.652577 a 0.50005,0.50005 0 0 0 0,0.0015 0.50005,0.50005 0 0 0 0,0.0015 0.50005,0.50005 0 0 0 0,0.0015 c -0.133127,16.581879 -1.051866,32.5154488 -2.753907,47.800783 a 0.50005,0.50005 0 0 1 -0.495117,0.445312 H -9.0336963 c -1.5747787,4.148866 -3.7337467,7.978917 -6.5214847,11.456544 l -0.0044,0.0059 c -4.792134,6.221088 -10.411697,10.01643 -16.806153,11.355469 -4.726595,9.912198 -12.807215,18.894189 -24.246095,26.941407 a 0.50005,0.50005 0 0 1 -0.0044,0.0015 C -75.63544,77.354275 -98.377854,84.098286 -124.79151,84.499511 Z m -0.20801,-22.149902 c 23.767,-0.133 44.282807,-6.066317 61.549807,-17.799317 10.167,-7.067 17.449145,-14.984977 21.848145,-23.750977 5.667,-1.433 10.68427,-4.699805 15.05127,-9.799805 2.533,-3.2330004 4.583879,-6.6831217 6.150879,-10.3491217 H -4.6875e-6 V -2.34375e-6 C 1.6669953,-13.600002 2.5004837,-27.684492 2.5004837,-42.250492 c 0,-14.567 -0.8334884,-28.632219 -2.5004883875,-42.199219 C -5.1010047,-126.18371 -17.700299,-162.9001 -37.800299,-194.6001 c -5.474976,-8.53162 -11.184558,-16.15072 -17.102051,-22.9585 -3.342345,1.65524 -6.884583,3.19308 -10.806152,4.50879 -5.533,1.4 -11.049806,2.09912 -16.549806,2.09912 -5.8,0 -11.315805,-1.26681 -16.549805,-3.79981 -5.399997,-2.4 -10.282907,-6.21622 -14.649907,-11.44922 0.4,1.833 0.53291,3.66603 0.39991,5.49903 -0.567,1.833 -1.33234,3.53358 -2.29834,5.10058 -0.868,1.133 -2.08486,1.9833 -3.65186,2.5503 -1.4,0.7 -2.94941,0.76622 -4.64941,0.19922 1.267,-1.833 2.11629,-3.59981 2.55029,-5.29981 0.699,-1.7 1.05029,-3.4668 1.05029,-5.2998 0,-2.7 -0.35129,-5.38232 -1.05029,-8.04932 -1,-2.7 -1.85029,-5.46827 -2.55029,-8.30127 -1.133,-2.667 -2.11573,-5.34932 -2.94873,-8.04932 -0.734,-2.967 -1.10157,-5.7328 -1.10157,-8.2998 0,-0.31228 0.0313,-0.59514 0.0352,-0.90381 -1.2845,0.15783 -2.57526,0.29399 -3.84668,0.49658 6e-4,0.13997 0.0117,0.26653 0.0117,0.40723 0,2.567 -0.28361,5.3328 -0.84961,8.2998 -1,2.7 -1.91651,5.38232 -2.74951,8.04932 -1,2.833 -1.85029,5.60127 -2.55029,8.30127 -0.866,2.667 -1.30079,5.34932 -1.30079,8.04932 0,1.833 0.28308,3.5998 0.85108,5.2998 0.566,1.7 1.566,3.46681 3,5.29981 -2,0.567 -3.70059,0.50078 -5.10059,-0.19922 -1.267,-0.567 -2.46758,-1.4173 -3.60058,-2.5503 -0.867,-1.567 -1.58339,-3.26758 -2.15039,-5.10058 -0.267,-1.833 -0.11483,-3.66603 0.45117,-5.49903 -4.4,5.233 -9.28291,9.04922 -14.64991,11.44922 -5.233,2.533 -10.75127,3.79981 -16.55127,3.79981 -5.667,0 -11.11512,-0.69912 -16.34912,-2.09912 -2.89288,-0.93979 -5.57299,-1.98663 -8.11963,-3.09961 -5.80507,6.4504 -11.40413,13.60378 -16.77246,21.54932 -28.7,42.166 -43.05029,92.94961 -43.05029,152.349608 -0.167,14.733 0.68329,29.03388 2.55029,42.9008803 h 21.84815 c 1.401,3.666 3.51856,7.1161213 6.35156,10.3491217 4.533,5.1 9.8991,8.366805 16.1001,9.799805 4.533,8.766 12.4001,16.683977 23.6001,23.750977 18.1,11.733 39.94929,17.666317 65.55029,17.799317 z m -57.86719,-277.927739 c 2.08125,-0.0563 4.1332,-0.34658 6.1582,-0.87158 -4.8,-1.7 -8.96651,-4.25088 -12.49951,-7.65088 -0.70966,-0.70967 -1.37464,-1.44471 -2.0332,-2.18262 -2.06146,1.91332 -4.10352,3.89255 -6.11426,5.97949 1.43474,1.02844 2.94428,1.83348 4.54834,2.35401 2.534,1.3 5.14863,2.0826 7.84863,2.3496 0.7,0.0333 1.39805,0.0408 2.0918,0.022 z m 106.8252,0 c 0.68125,0.0188 1.358203,0.0113 2.033203,-0.022 2.7,-0.267 5.317098,-1.0496 7.850098,-2.3496 2.374916,-0.8243 4.684029,-2.29484 6.928711,-4.39307 -2.11595,-2.24483 -4.257198,-4.38824 -6.427735,-6.42041 -1.263052,1.61147 -2.61274,3.17524 -4.100098,4.6626 -3.533,3.4 -7.700977,5.95088 -12.500977,7.65088 2.1,0.525 4.173048,0.81529 6.216798,0.87158 z m -94.91602,-6.17139 c 0.567,0 0.85108,-0.28407 0.85108,-0.85107 0,-0.7 -0.28408,-1.0503 -0.85108,-1.0503 -0.733,0 -1.1001,0.3503 -1.1001,1.0503 0,0.567 0.3671,0.85107 1.1001,0.85107 z m 12.20654,-1.75635 c 2.3625,-0.0124 4.44317,-0.49408 6.24317,-1.44433 2.401,-1.267 4.23449,-3.10049 5.50049,-5.50049 -1.266,0.133 -2.68398,0.133 -4.25098,0 -1.4,0 -2.6668,-0.21593 -3.7998,-0.64893 -1.266,-0.7 -2.11683,-1.40058 -2.54883,-2.10058 -0.701,-1 -0.91639,-2.20059 -0.65039,-3.60059 2.567,0.7 5.18409,0.7 7.85009,0 2.7,-0.433 5.24942,-1.5669 7.64942,-3.3999 2.401,-1.833 4.44988,-4.16603 6.15088,-6.99903 1.68602,-2.67938 2.53155,-5.6392 2.54443,-8.87695 -16.27363,2.999 -31.46303,9.7074 -45.56396,20.14307 0.8375,0.75532 1.71861,1.6245 2.51953,2.28369 1.399,1.7 3.08331,3.18319 5.04931,4.45019 1.433,1.434 2.99969,2.56691 4.70069,3.39991 1.833,1.133 3.88241,1.84892 6.14941,2.14892 0.85,0.1 1.66904,0.14916 2.45654,0.14502 z m 58.6128,0 c 0.770828,0.004 1.56387,-0.045 2.38037,-0.14502 2.267,-0.3 4.250196,-1.01592 5.950196,-2.14892 1.833,-0.833 3.599805,-1.96591 5.299805,-3.39991 1.7,-1.267 3.401586,-2.75019 5.100586,-4.45019 l 4.514648,-4.51465 c -14.793099,-10.93613 -30.745155,-17.35509 -47.871095,-19.20264 -0.0326,0.41344 -0.14355,0.78756 -0.14355,1.21729 0,3.267 0.84929,6.25019 2.55029,8.95019 1.666,2.833 3.71641,5.16603 6.14941,6.99903 2.233,1.833 4.76707,2.9669 7.60108,3.3999 2.833,0.7 5.31573,0.7 7.44873,0 0.433,1.4 0.36678,2.60059 -0.19922,3.60059 -0.568,0.7 -1.41629,1.40058 -2.55029,2.10058 -1.133,0.433 -2.41708,0.64893 -3.85108,0.64893 -1.533,0.133 -2.94951,0.133 -4.24951,0 1.133,2.4 2.98429,4.23349 5.55029,5.50049 1.89975,0.95025 4.00686,1.43191 6.31934,1.44433 z m 15.331054,-0.59472 c 0.701,0 1.048828,-0.3503 1.048828,-1.0503 0,-0.7 -0.347828,-1.04883 -1.048828,-1.04883 -0.567,0 -0.851074,0.34883 -0.851074,1.04883 0,0.7 0.284074,1.0503 0.851074,1.0503 z m -93.799804,-0.84961 c -0.868,-1.833 -1.78351,-3.59981 -2.74951,-5.29981 -0.45131,-1.04527 -0.9967,-2.09079 -1.58643,-3.13623 -1.59632,1.26319 -3.1827,2.56053 -4.75049,3.92139 0.41993,0.36317 0.79103,0.77563 1.23486,1.11474 2.4,2.267 5.01757,3.39991 7.85157,3.39991 z m 98.25,0 c 2.833,0 5.382414,-1.13291 7.649414,-3.39991 1.409249,-1.0198 2.632595,-2.17466 3.742676,-3.41162 -1.841911,-1.6129 -3.703744,-3.14774 -5.583985,-4.61133 -0.156876,0.33539 -0.229955,0.63278 -0.5083,1.02247 -1,1.7 -1.851294,3.40058 -2.550294,5.10058 -1.134,1.7 -2.050511,3.46681 -2.749511,5.29981 z m -125.9502,-7.31397 c 2.27796,-2.46057 4.57837,-4.84237 6.91406,-7.09717 -1.15833,-3.20666 -1.95442,-6.59933 -2.36425,-10.18945 -0.566,-4.8 -0.19991,-9.61622 1.10009,-14.44922 0.533,-1.7 0.0992,-2.75088 -1.30078,-3.15088 -1.566,-0.3 -2.8328,0.33437 -3.7998,1.90137 -1.3,1.967 -2.23232,4.51641 -2.79932,7.64941 -0.533,2.967 -0.66837,6.14932 -0.40137,9.54932 0,3.4 0.3513,6.71768 1.0503,9.95068 0.44341,2.15368 0.98378,4.0835 1.60107,5.83594 z m 154.624517,-3.91113 c 0.132773,-0.62763 0.263936,-1.25882 0.375,-1.92481 1,-3.233 1.5,-6.55068 1.5,-9.95068 0.133,-3.4 -0.08339,-6.58232 -0.650391,-9.54932 -0.433,-3.133 -1.283293,-5.68241 -2.550293,-7.64941 -0.566,-0.867 -1.199902,-1.50137 -1.899902,-1.90137 -0.699,-0.133 -1.332903,-0.19922 -1.899903,-0.19922 -0.567,0.4 -1.000316,0.7503 -1.299316,1.0503 -0.268,0.7 -0.333684,1.4668 -0.200684,2.2998 1.267,4.833 1.617293,9.64922 1.050293,14.44922 -0.254372,2.23226 -0.671042,4.38035 -1.208496,6.46436 2.289508,2.19553 4.551014,4.49843 6.783692,6.91113 z m -11.947266,-11.63379 c -0.214664,-0.80444 -0.529894,-1.53853 -1.02832,-2.1416 -0.699,-1 -1.550293,-1.5 -2.550293,-1.5 -0.207231,0.0243 -0.36979,0.0944 -0.534668,0.16113 1.382859,1.11483 2.749827,2.29131 4.113281,3.48047 z m -99.253421,-17.28662 c 5.72583,-2.71704 11.58385,-4.95894 17.58399,-6.68848 -1.37507,-0.0362 -2.79385,0.30195 -4.25831,1.03418 -0.7,0.133 -1.3329,0.133 -1.8999,0 -0.7,-0.166 -1.26768,-0.5331 -1.70068,-1.1001 -0.267,-0.566 -0.3999,-1.1999 -0.3999,-1.8999 0,-0.833 0.1329,-1.68329 0.3999,-2.55029 0.567,-1.4 1.41776,-2.73349 2.55176,-4.00049 1.132,-1.3 2.48182,-2.23232 4.04882,-2.79932 -3.7,-2.967 -7.45,-4.65078 -11.25,-5.05078 -3.966,-0.167 -7.49961,0.68329 -10.59961,2.55029 -3.267,1.667 -5.75119,4.2831 -7.45019,7.8501 -1.401,3.533 -1.68408,7.6333 -0.85108,12.3003 3.101,-2.833 6.21757,-3.96591 9.35157,-3.39991 1.533,0.267 2.7998,1.1173 3.7998,2.5503 0.25699,0.3856 0.47501,0.78937 0.67383,1.2041 z m 80.175295,-0.35449 c 1.134,-4.667 0.851391,-8.7673 -0.849609,-12.3003 -1.4,-3.567 -3.667805,-6.1831 -6.799805,-7.8501 -3.101,-1.867 -6.700293,-2.71729 -10.800291,-2.55029 -3.833,0.4 -7.51778,2.08378 -11.05078,5.05078 1.434,0.567 2.71707,1.49932 3.85107,2.79932 1.132,1.267 1.98329,2.60049 2.55029,4.00049 0.4,0.867 0.59912,1.71729 0.59912,2.55029 0,0.69589 -0.19793,1.32617 -0.59326,1.88965 3.92383,1.19178 7.781052,2.63886 11.581058,4.3081 0.809192,-0.67327 1.675491,-1.12324 2.613281,-1.29785 3.232,-0.566 6.198926,0.56691 8.898926,3.39991 z"
     transform="matrix(1.3333333,0,0,-1.3333333,367.0664,112.66601)" />
</svg>
