<?xml version="1.0" encoding="UTF-8" standalone="no"?>
<!-- Created with Inkscape (http://www.inkscape.org/) -->

<svg
   version="1.1"
   id="svg1"
   width="629.70801"
   height="509.09009"
   viewBox="0 0 629.70801 509.09009"
   sodipodi:docname="s15.svg"
   inkscape:version="1.4 (1:1.4+202410161351+e7c3feb100)"
   xmlns:inkscape="http://www.inkscape.org/namespaces/inkscape"
   xmlns:sodipodi="http://sodipodi.sourceforge.net/DTD/sodipodi-0.dtd"
   xmlns="http://www.w3.org/2000/svg"
   xmlns:svg="http://www.w3.org/2000/svg">
  <defs
     id="defs1">
    <clipPath
       clipPathUnits="userSpaceOnUse"
       id="clipPath2">
      <path
         d="M -2.1001,1309.3 H 1920.05 V 712.2 H -2.1001 Z"
         transform="translate(1.6001001,-1308.7998)"
         id="path2" />
    </clipPath>
    <clipPath
       clipPathUnits="userSpaceOnUse"
       id="clipPath4">
      <path
         d="M 0,1920 H 1920 V 0 H 0 Z"
         transform="matrix(1.3333333,0,0,-1.3333333,0,2560)"
         id="path4" />
    </clipPath>
    <clipPath
       clipPathUnits="userSpaceOnUse"
       id="clipPath18">
      <path
         d="M 0,1920 H 1920 V 0 H 0 Z"
         transform="translate(-1466.5996,-874.29985)"
         id="path18" />
    </clipPath>
  </defs>
  <sodipodi:namedview
     id="namedview1"
     pagecolor="#ffffff"
     bordercolor="#000000"
     borderopacity="0.25"
     inkscape:showpageshadow="2"
     inkscape:pageopacity="0.0"
     inkscape:pagecheckerboard="0"
     inkscape:deskcolor="#d1d1d1"
     inkscape:zoom="0.095838378"
     inkscape:cx="307.80988"
     inkscape:cy="730.39634"
     inkscape:window-width="1190"
     inkscape:window-height="788"
     inkscape:window-x="50"
     inkscape:window-y="61"
     inkscape:window-maximized="1"
     inkscape:current-layer="svg1">
    <inkscape:page
       x="0"
       y="0"
       width="629.70801"
       height="509.09009"
       id="page2"
       margin="0"
       bleed="0" />
  </sodipodi:namedview>
  <path
     id="path17"
     clip-path="url(#clipPath18)"
     style="fill:#000000;fill-opacity:1;fill-rule:evenodd;stroke:none"
     d="m -63.698209,317.89989 c -2.401,0 -4.651001,-0.3671 -6.750001,-1.1001 -6.101,-1.534 -11.701758,-4.21631 -16.801758,-8.04931 -5.1,-3.833 -9.199293,-8.71691 -12.300293,-14.64991 -3.232999,-5.8 -5.281949,-12.4497 -6.147949,-19.9497 -1,-7.333 -0.36856,-15.25098 1.89844,-23.75098 2.267,-7.933 5.516997,-14.51503 9.749997,-19.74903 4.533,-5.233 10.049805,-9.33329 16.549805,-12.30029 6.367,-2.667 13.733099,-4.4328 22.100099,-5.2998 3.534,-0.267 7.133293,-0.39991 10.800293,-0.39991 1.340828,0.0836 2.827888,0.0948 4.274414,0.12598 -0.210967,-1.50309 -0.420588,-3.00702 -0.60791,-4.52637 -0.440406,-0.16579 -0.90423,-0.31663 -1.316895,-0.50097 -1.133,-0.3 -2.049511,-0.71652 -2.749511,-1.24952 -2.967,-1 -5.51788,-2.2826 -7.65088,-3.8496 -2.4,-1.4 -4.16634,-3.66681 -5.29834,-6.79981 -1.568,-3.233 -2.201367,-6.41778 -1.901367,-9.55078 0,-2.833 0.484196,-5.36661 1.450196,-7.59961 1,-2.566 2.132902,-5.0502 3.399902,-7.4502 0.867,-1.267 1.717758,-2.68251 2.551758,-4.24951 0.432,-0.833 0.864851,-1.75097 1.297851,-2.75097 0.967,-2.267 1.817294,-4.59903 2.550294,-6.99903 0.267,-2.4 -0.01514,-5.0171 -0.848145,-7.8501 2.685997,0.35985 4.921995,1.28038 6.757324,2.69971 1.229287,-21.61724 4.794656,-42.17722 10.763672,-61.646485 a 0.50005,0.50005 0 0 0 0.0015,-0.0015 c 6.71129,-21.687357 16.442548,-42.011992 29.0800792,-61.018068 -3.2546689,0.338659 -6.4907938,0.515625 -9.7045902,0.515625 -16.399,0 -31.250294,-4.315219 -44.550294,-12.949219 -13.433,-8.1999996 -20.148926,-19.4500004 -20.148926,-33.75 0,-10.2 4.316219,-19.750415 12.949219,-28.649415 8.901,-8.768 20.134196,-13.368758 33.700196,-13.801758 3.267,-0.267 6.733391,0.45039 10.400391,2.15039 3.533,1.401 5.017195,4.151 4.450195,8.25 -1.1,4.533 -3.717098,7.433708 -7.850098,8.699708 -4.233,1 -8.750805,1.285074 -13.549805,0.851074 -12.3,-0.566 -20.932903,1.549098 -25.899903,6.350098 -4.366,5.099 -6.550781,10.482903 -6.550781,16.149903 -0.299,12.9999996 5.567098,22.9659261 17.600098,29.898926 12,7.1 25.149708,10.650879 39.449708,10.650879 4.7359715,0 9.5740159,-0.445053 14.5063481,-1.302246 1.2786677,-1.786815 2.5255276,-3.588873 3.8583985,-5.351074 -5.42360294,1.017594 -10.7642949,1.616541 -16.0136726,1.753418 -12.301,0.433 -24.334075,-2.250317 -36.101075,-8.049317 -11.733,-5.4009998 -17.949926,-13.117391 -18.648926,-23.150391 -0.134,-8.5 2.481633,-14.583489 7.848633,-18.250489 -0.7,4.533 0.434367,9.549805 3.401367,15.049805 2.833,7.1010003 8.565731,12.5495866 17.198731,16.35058665 9.334,4.09899995 19.434759,5.66621885 30.3017588,4.69921885 C 2.4812886,4.9720965 11.386569,2.9255093 20.514195,-0.57472736 22.72442,-3.0031128 24.961314,-5.3564071 27.224644,-7.6367393 17.010452,-2.9293545 7.925459,-0.36297796 5.2265626e-4,-5.0859376e-4 0.13452266,-0.96750859 0.55103441,-2.2995321 1.2500344,-3.9995321 c 9.6339996,-0.566 20.3167816,-4.183098 32.0507816,-10.8500979 1.626167,-0.916266 3.194271,-1.887532 4.729981,-2.888672 4.021736,-3.512623 8.12141,-6.806076 12.298828,-9.883301 3.845146,-3.77907 7.301999,-7.922883 10.319825,-12.479004 0.769884,1.625804 1.580442,2.905408 2.427246,3.875976 22.2531,-13.568728 46.548084,-21.412518 72.884764,-23.474121 a 0.50005,0.50005 0 0 1 0.0791,0 c 20.30557,1.702332 39.34823,7.379824 57.15088,16.924805 0.30442,-0.573186 0.61893,-1.207404 0.958,-1.976074 0.9306,1.404751 1.9073,2.766267 2.91651,4.097168 11.97918,6.876785 23.37686,15.565713 34.19238,26.059571 7.93118,3.504381 15.30276,5.4885245 22.09277,5.8930662 0.399,1.268 1.09913,2.616293 2.09913,4.050293 -5.65069,-0.247742 -11.70715,-1.5408508 -18.14063,-3.8085938 1.83398,1.9342632 3.64582,3.9355351 5.44482,5.9780275 6.37828,1.82470427 12.66094,2.93757978 18.84669,3.33105475 10.333,0.99999995 20.09834,-0.55041418 29.29834,-4.64941415 8.901,-3.833 14.98448,-9.2845865 18.25048,-16.3505865 2.534,-5.934 3.45052,-10.95027 2.74952,-15.05127 5.368,3.667 7.91688,9.750489 7.65088,18.250489 -0.568,10.033 -6.71671,17.73358647 -18.44971,23.1005865 -11.901,5.7999995 -24.0003,8.5001215 -36.3003,8.0991215 -3.02296,-0.07975 -6.07752,-0.320592 -9.15966,-0.70166 1.22873,1.68684 2.41716,3.394474 3.60058,5.10498 2.86465,0.286181 5.70356,0.448242 8.50928,0.448242 14,0 27.01681,-3.533074 39.04981,-10.6010741 12.033,-6.932 18.05126,-16.8989265 18.05126,-29.8989269 0,-5.667 -2.33348,-11.050902 -7.00048,-16.149902 -4.967,-4.8 -13.38352,-6.917098 -25.24952,-6.350098 -5.234,0.399 -9.984,0.115926 -14.25,-0.851074 -4.368,-1.266 -6.83385,-4.166708 -7.40185,-8.699708 -0.866,-4.099 0.55097,-6.867269 4.25097,-8.301269 3.533,-1.7 7.06661,-2.399122 10.59961,-2.099122 13.3,0.432 24.3993,5.033294 33.3003,13.800294 8.632,8.9 12.95068,18.450879 12.95068,28.650879 0,14.2670004 -6.5,25.4997317 -19.5,33.698732 -13.734,8.634 -28.66678,12.949219 -44.80078,12.949219 -1.38843,0 -2.77879,-0.04884 -4.16895,-0.108399 8.48648,13.108187 15.71922,26.870411 21.63135,41.320314 a 0.50005,0.50005 0 0 1 10e-4,0.0044 c 10.33516,26.099739 16.31348,54.472611 18.0747,85.040041 1.59783,-1.0825 3.53975,-1.79725 5.86084,-2.10498 -0.867,2.833 -1.08339,5.4501 -0.65039,7.8501 0.567,2.4 1.41776,4.73203 2.55176,6.99903 0.432,1 0.84851,1.91797 1.24951,2.75097 0.732,1.567 1.51661,2.98251 2.34961,4.24951 1.267,2.4 2.54961,4.8842 3.84961,7.4502 0.834,2.233 1.3172,4.76661 1.4502,7.59961 0,3.133 -0.70059,6.31778 -2.10059,9.55078 -1.266,3.133 -3.11683,5.39981 -5.54883,6.79981 -2.101,1.567 -4.50017,2.8496 -7.20117,3.8496 -1,0.533 -1.98173,0.94952 -2.94873,1.24952 -0.15079,0.0621 -0.31837,0.0909 -0.47021,0.15088 -0.19883,1.62872 -0.42587,3.23855 -0.65186,4.84863 1.07313,-0.0334 2.18833,-0.0327 3.22119,-0.0982 3.7,0 7.3171,0.13291 10.8501,0.39991 8.467,0.867 15.88251,2.6328 22.24951,5.2998 6.367,2.967 11.81759,7.06729 16.35059,12.30029 4.4,5.234 7.65,11.81603 9.75,19.74903 2.4,8.5 3.18407,16.41798 2.35107,23.75098 -1,7.5 -3.11856,14.1497 -6.35156,19.9497 -3.267,5.933 -7.3831,10.81691 -12.3501,14.64991 -5.233,3.833 -10.88271,6.51531 -16.94971,8.04931 -2.133,0.733 -4.3998,1.1001 -6.7998,1.1001 -2.4,0 -4.73349,-0.28261 -7.00049,-0.84961 -2.266,-0.567 -4.44885,-1.34961 -6.54785,-2.34961 -2,-1.133 -3.5,-2.55098 -4.5,-4.25098 -0.701,-1.133 -1.18466,-2.3998 -1.45166,-3.7998 -0.167,-1.3 -0.167,-2.71651 0,-4.24951 0.267,-1.266 0.83268,-2.54961 1.70068,-3.84961 0.699,-0.967 1.68173,-1.73427 2.94873,-2.30127 2.267,-1.3 4.3841,-1.73332 6.3501,-1.29932 1.867,0.3 3.28498,1.01739 4.25098,2.15039 0.701,0.833 1.201,1.88242 1.5,3.14942 0,1 -0.56769,2 -1.70069,3 -0.266,0.4 -0.68251,0.75029 -1.24951,1.05029 -0.433,0.133 -0.933,0.133 -1.5,0 h -1.30078 c -0.567,0 -0.98251,0.1329 -1.24951,0.3999 -1,0.733 -1.21639,1.80069 -0.65039,3.20069 0.3,1.567 0.9339,2.63222 1.8999,3.19922 1.567,1.133 3.55066,1.61719 5.95166,1.45019 2.699,-0.267 5.31563,-0.75019 7.84863,-1.45019 6.8,-2.133 12.5332,-5.66661 17.2002,-10.59961 4.534,-4.967 7.84968,-10.7002 9.95068,-17.2002 2.266,-6.5 3.04961,-13.43378 2.34961,-20.80078 -0.7,-7.633 -2.9668,-15.06632 -6.7998,-22.29932 0,5.1 -0.6329,9.63261 -1.8999,13.59961 -1.566,4.1 -3.33281,7.63408 -5.29981,10.60108 -2.133,3.267 -4.33312,6.09902 -6.59912,8.49902 -2.534,2.533 -4.784,4.7998 -6.75,6.7998 -2,2.1 -3.63437,4.00118 -4.90137,5.70118 -1.266,1.833 -1.83368,3.53212 -1.70068,5.09912 -2.533,-2.267 -3.66644,-4.18251 -3.39844,-5.74951 0.299,-1.667 1.01593,-3.06671 2.14893,-4.19971 1.134,-1 2.3998,-1.93378 3.7998,-2.80078 1.134,-0.833 1.35039,-1.59981 0.65039,-2.29981 -0.433,-0.867 -1.0659,-1.14961 -1.8999,-0.84961 -1,0.267 -2.1329,0.7502 -3.3999,1.4502 -1.133,0.567 -2.33359,1.2157 -3.60059,1.9497 -1.433,0.7 -2.78329,1.1832 -4.05029,1.4502 -1.833,0.566 -3.8162,0.64902 -5.9502,0.24902 -1.833,-0.3 -3.66502,-1.08261 -5.49902,-2.34961 1.267,-8.767 6.98339,-12.73339 17.15039,-11.90039 -1.667,-1.833 -2.93427,-3.95009 -3.80127,-6.35009 -0.7,-2.133 0.0841,-4.11574 2.35108,-5.94874 0.434,1.133 1.35051,2.19922 2.74951,3.19922 1.134,1 2.48329,1.8503 4.05029,2.5503 1.267,0.7 2.7502,1.11551 4.4502,1.24951 1.533,0.133 3.08241,10e-5 4.64941,-0.3999 1.433,-0.433 2.78429,-1.433 4.05029,-3 1.133,-1.533 2.18388,-3.5172 3.15088,-5.9502 0.732,-2.4 1.232,-4.79971 1.5,-7.19971 0.132,-2.533 -0.0834,-5.00039 -0.65039,-7.40039 -1.266,-3.967 -4.16817,-7.2328 -8.70117,-9.7998 -4.5,-2.1 -9.8661,-3.7171 -16.1001,-4.8501 -6.233,-0.867 -12.66585,-1.01671 -19.29785,-0.44971 -6.934,0.733 -13.16766,2.01661 -18.70166,3.84961 -4.933,1.7 -10.2991,4.03349 -16.1001,7.00049 -1.699,0.967 -3.4668,2.01641 -5.2998,3.14941 -4.533,3 -8.99993,5.9832 -13.39893,8.9502 1.132,0.133 2.26544,0.20068 3.39844,0.20068 3.533,0.7 6.71778,1.96681 9.55078,3.79981 2.834,2 5.23271,4.7668 7.19971,8.2998 2.267,3.8 3.61729,7.61769 4.05029,11.45069 0.567,3.667 0.41629,7.0667 -0.44971,10.1997 -0.834,3.4 -2.16602,6.3674 -3.99902,8.9004 -1.834,2.4 -4.10127,4.38173 -6.80127,5.94873 -1,0.567 -2.1329,0.98397 -3.3999,1.25097 -1.133,0.567 -2.26591,0.84961 -3.39991,0.84961 -1.133,0.133 -2.33358,1e-4 -3.60058,-0.3999 -1.133,-0.3 -2.04851,-0.86768 -2.74951,-1.70068 -0.433,-0.3 -0.78283,-0.8 -1.04883,-1.5 -0.301,-0.567 -0.51886,-1.19991 -0.65186,-1.89991 0,-0.7 0.13337,-1.41592 0.40137,-2.14892 0.166,-0.567 0.53263,-1.13369 1.09863,-1.70069 0.833,-0.834 1.75098,-1.24951 2.75098,-1.24951 1,0 1.84883,0.13291 2.54883,0.39991 0.267,0.433 0.61729,0.86631 1.05029,1.29931 0.134,0.567 1e-4,1.13369 -0.3999,1.70069 -0.167,0.433 -0.38339,0.65039 -0.65039,0.65039 -0.133,0.133 -0.28271,0.19921 -0.44971,0.19921 h -0.84961 c -0.133,0.133 -0.2659,0.26691 -0.3999,0.39991 -0.433,0.567 -0.433,1.2167 0,1.9497 0.267,0.566 0.767,0.98398 1.5,1.25098 0.834,0.3 1.81719,0.1671 2.95019,-0.3999 1.267,-0.3 2.46659,-0.86769 3.60059,-1.70069 2.966,-1.7 5.29949,-4.03348 7.00049,-7.00048 1.432,-3 2.28283,-6.18232 2.54883,-9.54932 0.133,-3.567 -0.367,-7.11641 -1.5,-10.64941 -1.4,-3.533 -3.45088,-6.78301 -6.15088,-9.75001 0.567,2.4 0.71817,4.66681 0.45117,6.79981 -0.133,2.133 -0.41761,4.04951 -0.84961,5.74951 -0.568,1.833 -1.28339,3.51632 -2.15039,5.04932 -0.833,1.433 -1.53312,2.85097 -2.09912,4.25097 -0.868,1.134 -1.50037,2.19922 -1.90137,3.19922 -0.433,1 -0.51649,1.8503 -0.25049,2.5503 -1.533,-0.7 -2.2998,-1.41739 -2.2998,-2.15039 -0.133,-0.834 0.0834,-1.59981 0.65039,-2.29981 0.267,-0.7 0.75019,-1.26622 1.45019,-1.69922 0.3,-0.567 0.3,-1.00078 0,-1.30078 -0.566,-0.4 -0.98397,-0.5339 -1.25097,-0.3999 -0.566,0.433 -0.99932,0.85098 -1.29932,1.25098 -0.566,0.567 -1.05019,0.99931 -1.45019,1.29931 -0.733,0.566 -1.30069,0.98251 -1.70069,1.24951 -1.133,0.566 -2.06631,0.9173 -2.79931,1.0503 -1.1,0 -2.14942,-0.13291 -3.14942,-0.39991 -0.568,-4.4 1.61632,-7.08331 6.54932,-8.04931 -0.966,-0.567 -1.73234,-1.4163 -2.29834,-2.5503 -0.568,-0.866 -0.568,-1.866 0,-3 0.566,0.3 1.19844,0.58261 1.89844,0.84961 0.7,0.433 1.39958,0.71661 2.10058,0.84961 0.866,0.167 1.64961,0.167 2.34961,0 0.833,0 1.61661,-0.28261 2.34961,-0.84961 0.7,-0.267 1.1832,-0.83321 1.4502,-1.69921 0.3,-0.967 0.51739,-2.16759 0.65039,-3.60059 0.3,-1.133 0.3,-2.2669 0,-3.3999 -0.266,-1.4 -0.61683,-2.60059 -1.04883,-3.60059 -1.268,-1.833 -3.18498,-2.9669 -5.75098,-3.3999 -2.401,-0.567 -5.21668,-0.6999 -8.45068,-0.3999 h -0.44971 c -1,0.7 -1.78361,1.3329 -2.34961,1.8999 -0.0636,0.0561 -0.41821,0.22749 -0.50537,0.29297 -5.15077,4.7627 -11.4371,9.26593 -18.94922,13.49267 a 0.50005,0.50005 0 0 1 -0.003,0 c -10.31534,5.74239 -21.56775,10.14494 -33.66211,13.34034 -0.10062,2.34855 0.46022,3.87577 1.76953,4.47363 1.7,0.867 3.96681,1.15107 6.79981,0.85107 2.7,-0.267 5.8171,-0.55107 9.3501,-0.85107 3.534,-0.4 6.99892,-0.0329 10.39892,1.1001 1.834,0.4 3.4501,1.0339 4.8501,1.8999 1.433,0.7 3.00115,1.40058 4.70215,2.10058 1.699,0.7 3.59824,1.48261 5.69824,2.34961 1.867,0.566 3.9999,1.26759 6.3999,2.10059 v 1.1001 c -2.967,0.833 -6.14931,1.31719 -9.54931,1.45019 -4.1,0.3 -7.91769,0.58261 -11.45069,0.84961 0.567,1.133 0.84961,2.33359 0.84961,3.60059 0.134,1.433 0.134,2.78183 0,4.04883 -0.433,1.267 -1.08224,2.3999 -1.94824,3.3999 -0.834,1 -1.88388,1.63537 -3.15088,1.90137 -0.167,-2.134 -0.7999,-3.90127 -1.8999,-5.30127 -1.433,-1.267 -2.933,-2.39991 -4.5,-3.39991 -1.833,-0.833 -3.66649,-1.68282 -5.50049,-2.54882 -1.967,-0.833 -3.51641,-1.6833 -4.64941,-2.5503 -0.167,1.433 -0.5331,2.49922 -1.1001,3.19922 -0.699,1.267 -1.46681,2.11729 -2.29981,2.55029 -1.133,-3.133 -2.61619,-5.8998 -4.45019,-8.2998 -2,-2.534 -4.41698,-4.43271 -7.25098,-5.69971 -1.267,-0.567 -2.59902,-0.93309 -3.99902,-1.10009 -1.267,0 -2.6163,-0.0677 -4.0503,-0.20069 -3.533,0.133 -7.49992,0.41808 -11.89892,0.85108 -3.667,0.433 -7.55137,0.99921 -11.65137,1.69921 -0.833,0.133 -1.68329,0.20069 -2.55029,0.20069 -1.4,0.3 -2.94942,0.58361 -4.64942,0.84961 -0.866,0.167 -1.71729,0.3167 -2.55029,0.4497 -7.933,-0.133 -12.3159,-0.2827 -13.1499,-0.4497 -1.699,-0.266 -3.26722,-0.54961 -4.69922,-0.84961 -0.834,0 -1.60127,-0.0677 -2.30127,-0.20069 -4.267,-0.7 -8.23193,-1.26621 -11.89893,-1.69921 -4.399997,-0.433 -8.2829,-0.71808 -11.6499,-0.85108 -1.566,0.133 -2.917293,0.20069 -4.050293,0.20069 -1.566,0.167 -2.832805,0.53309 -3.799805,1.10009 -3.133,1.267 -5.617195,3.16571 -7.450195,5.69971 -1.967,2.4 -3.450196,5.1668 -4.450196,8.2998 -1,-0.433 -1.850293,-1.28329 -2.550293,-2.55029 -0.433,-0.7 -0.65039,-1.76622 -0.65039,-3.19922 -1.4,0.867 -3.015633,1.7173 -4.848633,2.5503 -2,0.866 -3.849293,1.71582 -5.550293,2.54882 -1.7,1 -3.117977,2.13291 -4.250977,3.39991 -1.4,1.4 -2.16634,3.16727 -2.29834,5.30127 -1.268,-0.266 -2.333683,-0.90137 -3.200683,-1.90137 -0.833,-1 -1.333001,-2.1329 -1.500001,-3.3999 -0.4,-1.267 -0.532902,-2.61583 -0.399902,-4.04883 0,-1.267 0.349828,-2.46759 1.048828,-3.60059 -3.666,-0.267 -7.481754,-0.54961 -11.447754,-0.84961 -3.534,-0.133 -6.784,-0.61719 -9.75,-1.45019 v -1.1001 c 2.399,-0.833 4.515633,-1.53459 6.348633,-2.10059 2.267,-0.867 4.183512,-1.64961 5.749512,-2.34961 1.7,-0.7 3.317097,-1.40058 4.850097,-2.10058 1.267,-0.866 2.967587,-1.4999 5.100587,-1.8999 3.1,-1.133 6.432023,-1.5001 9.999023,-1.1001 3.534,0.3 6.717782,0.58407 9.550782,0.85107 2.667,0.3 4.849316,0.0159 6.549316,-0.85107 1.567,-0.7 2.283391,-2.59971 2.150391,-5.69971 -0.567,-0.166 -1.132219,-0.44961 -1.699219,-0.84961 -2.268042,-1.06581 -3.746771,-1.84316 -5.783203,-2.82422 -6.741975,-2.40819 -13.182803,-5.20781 -19.297852,-8.43164 -2.654178,-1.37818 -5.116586,-2.79552 -7.488282,-4.23047 -1.748295,-0.82883 -2.649369,-1.18154 -4.582031,-2.11377 -8.633,-3.966 -13.516903,-6.45019 -14.649903,-7.45019 l -1.899902,-1.8999 h -0.849609 c -3.266,-0.3 -6.100489,-0.1671 -8.500489,0.3999 -2.533,0.433 -4.2983399,1.5669 -5.2983399,3.3999 -0.701,1 -1.1175118,2.20059 -1.2495118,3.60059 -0.434,1.133 -0.5184883,2.2669 -0.2504883,3.3999 0.166,1.433 0.3819258,2.63359 0.6489258,3.60059 0.434,0.866 0.9340001,1.43221 1.5000001,1.69921 0.7,0.567 1.4668047,0.84961 2.2998047,0.84961 0.7330004,0.167 1.5166094,0.167 2.3496094,0 0.867,-0.133 1.583391,-0.41661 2.150391,-0.84961 0.7,-0.267 1.333902,-0.54961 1.899902,-0.84961 0.567,1.134 0.633684,2.134 0.200684,3 -0.7,1.134 -1.548828,1.9833 -2.548828,2.5503 5.099,0.966 7.36534,3.64931 6.79834,8.04931 -1.133,0.267 -2.117196,0.39991 -2.950196,0.39991 -1,-0.133 -1.932316,-0.4843 -2.799316,-1.0503 -0.7,-0.267 -1.332903,-0.68351 -1.899903,-1.24951 -0.566,-0.3 -1.066,-0.73231 -1.5,-1.29931 -0.399,-0.4 -0.883195,-0.81798 -1.4501951,-1.25098 -0.3,-0.134 -0.650293,-1e-4 -1.050293,0.3999 -0.433,0.3 -0.433,0.73378 0,1.30078 0.533,0.433 1.0824141,0.99922 1.6494141,1.69922 0.3,0.7 0.451172,1.46581 0.451172,2.29981 -0.134,0.733 -0.9832931,1.45039 -2.5502931,2.15039 0.301,-0.7 0.301,-1.5503 0,-2.5503 -0.567,-1 -1.1332188,-2.06522 -1.6992188,-3.19922 -0.834,-1.4 -1.6180743,-2.81797 -2.3510743,-4.25097 -0.967,-1.533 -1.7328048,-3.21632 -2.2998048,-5.04932 -0.433,-1.7 -0.7176093,-3.61651 -0.8496093,-5.74951 -0.30100005,-2.133 -0.10087894,-4.39981 0.5991211,-6.79981 -2.8,2.967 -4.7663908,6.21701 -5.9003908,9.75001 -1.433,3.533 -2.0822422,7.08241 -1.9482422,10.64941 0.299,3.367 1.2323164,6.54932 2.7993164,9.54932 1.534,2.967 3.86602364,5.30048 6.9990236,7.00048 0.967,0.833 2.0999025,1.40069 3.3999025,1.70069 1.134,0.567 2.2500977,0.6999 3.3500977,0.3999 0.433,-0.267 0.800098,-0.68498 1.100098,-1.25098 0.4,-0.733 0.4,-1.3827 0,-1.9497 -0.167,-0.133 -0.315707,-0.26691 -0.449707,-0.39991 h -0.399903 c -0.433,0 -0.7156091,-0.0662 -0.8496091,-0.19921 -0.166,0 -0.317707,-0.21739 -0.449707,-0.65039 -0.568,-0.567 -0.767586,-1.13369 -0.600586,-1.70069 0.4,-0.433 0.8165118,-0.86631 1.2495118,-1.29931 0.5670003,-0.267 1.3510743,-0.39991 2.3510743,-0.39991 0.966,0 1.94873,0.41551 2.94873,1.24951 0.433,0.567 0.783758,1.13369 1.051758,1.70069 0.166,0.733 0.250489,1.44892 0.250489,2.14892 -0.167,0.7 -0.318172,1.33291 -0.451172,1.89991 -0.433,0.7 -0.850977,1.2 -1.250977,1.5 -0.733,0.833 -1.665852,1.40068 -2.797852,1.70068 -1.134,0.4 -2.3350504,0.5329 -3.6020504,0.3999 -1.133,0 -2.1819493,-0.28261 -3.1479493,-0.84961 -1.434,-0.267 -2.5683673,-0.68397 -3.4013673,-1.25097 -2.83299995,-1.567 -5.1674884,-3.54873 -7.0004884,-5.94873 -1.867,-2.533 -3.2172931,-5.5004 -4.0502931,-8.9004 -0.833,-3.133 -0.9659025,-6.5327 -0.3999023,-10.1997 0.4,-3.833 1.7334883,-7.65069 4.0004883,-11.45069 2,-3.533 4.3997073,-6.2998 7.1997073,-8.2998 2.833,-1.833 6.0177814,-3.09981 9.5507812,-3.79981 1.3,0 2.515926,-0.0677 3.648926,-0.20068 -4.533,-2.967 -9.0666096,-5.9502 -13.5996096,-8.9502 -1.83299999,-1.133 -3.5998048,-2.18241 -5.2998048,-3.14941 -5.667,-2.967 -11.0494376,-5.30049 -16.1484376,-7.00049 -5.5,-1.833 -11.717856,-3.11661 -18.651856,-3.84961 -6.667,-0.567 -13.032634,-0.41729 -19.098634,0.44971 -6.368,1.133 -11.750367,2.7501 -16.151367,4.8501 -4.667,2.567 -7.565707,5.8328 -8.699707,9.7998 -0.7,2.4 -0.899586,4.86739 -0.600586,7.40039 0.133,2.4 0.61766,4.79971 1.45166,7.19971 0.866,2.433 1.999437,4.4172 3.398437,5.9502 1,1.567 2.283075,2.567 3.851075,3 1.399,0.4 2.949414,0.5329 4.649414,0.3999 1.567,-0.134 3.050195,-0.54951 4.450195,-1.24951 1.434,-0.7 2.783293,-1.5503 4.050293,-2.5503 1.267,-1 2.183512,-2.06622 2.749512,-3.19922 2.134,1.833 2.832586,3.81574 2.100586,5.94874 -0.834,2.4 -2.033586,4.51709 -3.600586,6.35009 10.2,-0.833 15.866512,3.13339 16.999512,11.90039 -1.833,1.267 -3.681828,2.04961 -5.548828,2.34961 -1.967,0.4 -3.933391,0.31698 -5.900391,-0.24902 -1.3,-0.267 -2.650293,-0.7502 -4.050293,-1.4502 -1.267,-0.734 -2.398437,-1.3827 -3.398437,-1.9497 -1.401,-0.7 -2.534368,-1.1832 -3.401368,-1.4502 -1,-0.3 -1.700121,-0.0174 -2.099121,0.84961 -0.734,0.7 -0.384172,1.46681 1.048828,2.29981 1.133,0.867 2.266903,1.80078 3.399903,2.80078 1.134,1.133 1.916609,2.53271 2.349609,4.19971 0.133,1.567 -1.081926,3.48251 -3.648926,5.74951 0.167,-1.567 -0.316195,-3.26612 -1.450195,-5.09912 -1.3,-1.7 -3.000586,-3.60118 -5.100586,-5.70118 -2,-2 -4.132903,-4.2668 -6.399903,-6.7998 -2.533,-2.4 -4.866488,-5.23202 -7.000488,-8.49902 -1.967,-2.967 -3.581633,-6.50108 -4.848633,-10.60108 -1.566,-3.967 -2.283391,-8.49961 -2.150391,-13.59961 -3.933,7.233 -6.183,14.66632 -6.75,22.29932 -0.866,7.367 -0.166879,14.30078 2.099121,20.80078 2.133,6.5 5.534172,12.2332 10.201172,17.2002 4.533,4.933 10.182708,8.46661 16.949708,10.59961 2.567,0.7 5.183098,1.18319 7.850098,1.45019 2.4,0.167 4.382195,-0.31719 5.950195,-1.45019 1,-0.567 1.78361,-1.63222 2.34961,-3.19922 0.267,-1.4 -0.01661,-2.46769 -0.84961,-3.20069 -0.434,-0.267 -0.867781,-0.3999 -1.300781,-0.3999 h -1.249512 c -0.567,0.133 -1.067,0.133 -1.5,0 -0.699,-0.3 -1.199,-0.65029 -1.5,-1.05029 -1.1,-1 -1.58273,-2 -1.44873,-3 0.132,-1.267 0.61573,-2.31642 1.44873,-3.14942 0.867,-1.133 2.282512,-1.85039 4.249512,-2.15039 1.867,-0.434 3.999903,-6.8e-4 6.399903,1.29932 1.133,0.567 2.117195,1.33427 2.950195,2.30127 0.701,1.3 1.201,2.58361 1.5,3.84961 0.133,1.533 0.133,2.94951 0,4.24951 -0.299,1.4 -0.799,2.6668 -1.5,3.7998 -1,1.7 -2.483196,3.11798 -4.450196,4.25098 -1.967,1 -4.082633,1.78261 -6.348633,2.34961 -2.268,0.567 -4.683511,0.84961 -7.249511,0.84961 z m 118.647952,-24 v -0.19922 h -0.449707 z m 150.000007,0 0.20068,-0.19922 h -0.20068 z m -69.39844,-31.19971 c 11.60165,-0.10854 22.50856,-1.16312 32.79492,-3.06445 1.14065,-1.60985 2.20492,-3.25642 3.104,-4.98487 -0.167,-0.134 -0.25048,-0.41807 -0.25048,-0.85107 -1.133,-2.7 -1.76644,-5.3171 -1.89844,-7.8501 -0.134,-2.833 -0.0678,-5.45009 0.19922,-7.85009 0.433,-2.4 0.86678,-4.59913 1.30078,-6.59913 0.266,-0.967 0.39844,-2.01788 0.39844,-3.15088 0.167,-1 0.25048,-1.93231 0.25048,-2.79931 -0.167,-1.833 -0.667,-3.59981 -1.5,-5.29981 -1,-1.533 -2.7668,-3.08388 -5.2998,-4.65088 3.1,0 5.7171,0.8503 7.8501,2.5503 1.834,1.4 3.38341,3.10058 4.64941,5.10058 1.133,1.967 2.33359,3.66612 3.60059,5.09912 0.867,1.534 1.93222,2.16591 3.19922,1.89991 0.134,-0.567 0.20068,-1.19991 0.20068,-1.89991 0.133,-2.966 -0.367,-5.94873 -1.5,-8.94873 -1.266,-3.533 -3.16671,-6.85068 -5.69971,-9.95068 -2.833,-2.833 -6.29992,-5.16749 -10.39892,-7.00049 -3.967,-1.434 -8.41805,-2.0659 -13.35205,-1.8999 6.367,-2.267 12.01817,-2.54961 16.95117,-0.84961 4.667,1.7 8.63239,4.45 11.90039,8.25 3.099,4.1 5.43249,8.76651 7.00049,13.99951 0.432,2.133 0.78283,4.2669 1.04883,6.3999 0.267,3.1 0.267,6.00118 0,8.70118 -0.7,4.8 -2.25088,8.96551 -4.65088,12.49951 -0.866,1.567 -1.79932,2.98251 -2.79932,4.24951 -0.81691,1.11094 -1.65923,2.1676 -2.52393,3.17432 10.34662,-2.75725 20.00176,-6.45613 28.87354,-11.22364 12.301,-6.8 21.06827,-14.45117 26.30127,-22.95117 6.633,-1.133 12.56632,-4.23183 17.79932,-9.29883 3,-3 5.33349,-6.2668 7.00049,-9.7998 h 24.4497 c 0,-0.133 0.0672,-0.33359 0.19922,-0.60059 0.96761,-6.806 1.66279,-13.75105 2.11963,-20.81689 -1.94777,-0.70456 -4.06984,-1.35301 -6.56836,-1.88233 1.132,-2.567 2.39834,-4.41729 3.79834,-5.55029 0.433,-0.133 0.78429,-0.35039 1.05029,-0.65039 0.7,-0.267 1.41786,-0.46759 2.15186,-0.60059 0.003,-0.002 0.008,-0.001 0.0102,-0.003 0.12164,-3.50208 0.1875,-7.03271 0.1875,-10.59668 0,-14.033 -0.91551,-27.48358 -2.74951,-40.35058 C 279.1148,84.904379 265.07155,51.408753 242.83056,22.055574 237.36704,20.668494 231.8895,18.84574 226.3994,16.549227 c -14,-5.932 -27.01534,-12.5822432 -39.04834,-19.9482432 l 0.64893,-2.5517579 c 1.134,0 2.53271,-0.5662187 4.19971,-1.6992187 11.333,6.93299995 23.65168,13.100977 36.95068,18.5009768 2.30154,0.94227 4.57994,1.77385 6.84815,2.554688 -1.73822,-2.05374 -3.49453,-4.0502738 -5.26905,-5.9912113 -0.39367,-0.1425873 -0.78465,-0.2675105 -1.1792,-0.4145508 -12.301,-4.099 -23.61622,-10.7497076 -33.94922,-19.9497079 1.61608,-1.795941 2.6122,-4.259006 3.01905,-7.356445 -19.30269,-12.64341 -40.32065,-19.955112 -63.06885,-21.893555 -28.99268,2.299556 -55.253849,12.15948 -78.802739,29.523926 0.567625,1.744481 1.375296,3.2297748 2.452148,4.4252932 C 50.76707,-0.86102538 41.840845,4.8550652 32.439488,8.9540815 30.633531,10.858638 28.848981,12.822583 27.08109,14.8325 39.900663,9.6239195 51.945225,3.6995623 63.199743,-2.950704 c 1.434,1.134 2.851977,1.7006837 4.250977,1.7006837 v 2.550293 c -11.866,7.334 -24.884271,13.9827073 -39.051271,19.9497073 -3.212245,1.330787 -6.403221,2.490182 -9.578613,3.515625 -30.241544,38.835354 -45.370607,84.911345 -45.370607,138.234375 0,3.67596 0.07979,7.30955 0.224121,10.9087 0.277307,0.0981 0.486379,0.16171 0.826172,0.2915 0.301,0.3 0.732781,0.51739 1.300781,0.65039 1.399,1.133 2.66534,2.98329 3.79834,5.55029 -2.051509,0.41681 -3.871533,0.88811 -5.463867,1.41358 0.528534,7.45988 1.34691,14.76623 2.515137,21.88623 H 2.4995462 c 1.868,3.533 4.4845627,6.7998 7.8515628,9.7998 5.399,5.067 11.69895,8.16583 18.89795,9.29883 5.534,8.5 14.868489,16.15117 28.000489,22.95117 6.29899,3.20779 13.018456,5.90396 20.066895,8.20166 -0.03706,-0.0532 -0.07881,-0.0989 -0.115723,-0.15234 -1.133,-1.267 -2.116195,-2.68251 -2.950195,-4.24951 -2.4,-3.534 -3.882731,-7.69951 -4.448731,-12.49951 -0.434,-2.7 -0.434,-5.60118 0,-8.70118 0.132,-2.133 0.481828,-4.2669 1.048828,-6.3999 1.4,-5.233 3.666805,-9.89951 6.799805,-13.99951 3.234,-3.8 7.26661,-6.55 12.09961,-8.25 4.801,-1.7 10.384493,-1.41739 16.750493,0.84961 -4.967,-0.166 -9.416591,0.4659 -13.350591,1.8999 -4.133,1.833 -7.532707,4.16749 -10.199707,7.00049 -2.7,3.1 -4.683196,6.41768 -5.950196,9.95068 -1.133,3 -1.633,5.98273 -1.5,8.94873 0,0.7 0.08449,1.33291 0.250489,1.89991 1.267,0.266 2.316414,-0.36591 3.149414,-1.89991 h 0.449707 c 0.967,-1.433 2.017879,-3.13212 3.150879,-5.09912 1.433,-2 3.133121,-3.70058 5.099121,-5.10058 1.833,-1.7 4.31766,-2.5503 7.45166,-2.5503 -2.401,1.567 -4.034367,3.11788 -4.901367,4.65088 -1.133,1.7 -1.699219,3.46681 -1.699219,5.29981 -0.133,0.867 -0.133,1.79931 0,2.79931 0,1.133 0.215926,2.18388 0.648926,3.15088 0.267,2 0.617293,4.19913 1.050293,6.59913 0.3,2.4 0.367684,5.01709 0.200684,7.85009 -0.133,2.533 -0.617196,5.1501 -1.450196,7.8501 -0.3,0.433 -0.51639,0.71707 -0.65039,0.85107 0.495945,0.96585 1.067205,1.89687 1.645019,2.82569 13.934024,3.30137 29.122854,5.07959 45.656254,5.22363 z M -10.541958,217.84081 c -0.122459,-0.23295 -0.266203,-0.45435 -0.383789,-0.68995 h -0.886231 c 0.424137,0.23431 0.844932,0.45038 1.27002,0.68995 z"
     transform="matrix(1.3333333,0,0,-1.3333333,141.5437,423.86651)"
     inkscape:export-filename="/home/ziad-elaraby/StudioProjects/flutter_cv_maker/assets/png/s15.png"
     inkscape:export-xdpi="96"
     inkscape:export-ydpi="96" />
</svg>
