<?xml version="1.0" encoding="UTF-8" standalone="no"?>
<!-- Created with Inkscape (http://www.inkscape.org/) -->

<svg
   version="1.1"
   id="svg1"
   width="102.48121"
   height="100.69513"
   viewBox="0 0 102.4812 100.69513"
   sodipodi:docname="s2.svg"
   inkscape:export-filename="/home/ziad-elaraby/StudioProjects/flutter_cv_maker/assets/png/i.png"
   inkscape:export-xdpi="96"
   inkscape:export-ydpi="96"
   inkscape:version="1.4 (1:1.4+202410161351+e7c3feb100)"
   xmlns:inkscape="http://www.inkscape.org/namespaces/inkscape"
   xmlns:sodipodi="http://sodipodi.sourceforge.net/DTD/sodipodi-0.dtd"
   xmlns="http://www.w3.org/2000/svg"
   xmlns:svg="http://www.w3.org/2000/svg">
  <defs
     id="defs1">
    <clipPath
       clipPathUnits="userSpaceOnUse"
       id="clipPath2536">
      <path
         d="M 0,595 H 842 V 0 H 0 Z"
         transform="translate(-524.19041,-86.7314)"
         id="path2536" />
    </clipPath>
    <clipPath
       clipPathUnits="userSpaceOnUse"
       id="clipPath2538">
      <path
         d="M 0,595 H 842 V 0 H 0 Z"
         transform="translate(-511.57421,-86.8076)"
         id="path2538" />
    </clipPath>
    <clipPath
       clipPathUnits="userSpaceOnUse"
       id="clipPath2540">
      <path
         d="M 0,595 H 842 V 0 H 0 Z"
         transform="translate(-531.79792,-84.069305)"
         id="path2540" />
    </clipPath>
    <clipPath
       clipPathUnits="userSpaceOnUse"
       id="clipPath2542">
      <path
         d="M 0,595 H 842 V 0 H 0 Z"
         transform="translate(-525.58591,-83.928702)"
         id="path2542" />
    </clipPath>
    <clipPath
       clipPathUnits="userSpaceOnUse"
       id="clipPath2544">
      <path
         d="M 0,595 H 842 V 0 H 0 Z"
         transform="translate(-501.09082,-83.8271)"
         id="path2544" />
    </clipPath>
    <clipPath
       clipPathUnits="userSpaceOnUse"
       id="clipPath2546">
      <path
         d="M 0,595 H 842 V 0 H 0 Z"
         transform="translate(-507.57712,-83.794902)"
         id="path2546" />
    </clipPath>
    <clipPath
       clipPathUnits="userSpaceOnUse"
       id="clipPath2548">
      <path
         d="M 0,595 H 842 V 0 H 0 Z"
         transform="translate(-535.02052,-78.181602)"
         id="path2548" />
    </clipPath>
    <clipPath
       clipPathUnits="userSpaceOnUse"
       id="clipPath2550">
      <path
         d="M 0,595 H 842 V 0 H 0 Z"
         transform="translate(-501.16601,-77.858404)"
         id="path2550" />
    </clipPath>
    <clipPath
       clipPathUnits="userSpaceOnUse"
       id="clipPath2552">
      <path
         d="M 0,595 H 842 V 0 H 0 Z"
         transform="translate(-537.68161,-77.631799)"
         id="path2552" />
    </clipPath>
    <clipPath
       clipPathUnits="userSpaceOnUse"
       id="clipPath2554">
      <path
         d="M 0,595 H 842 V 0 H 0 Z"
         transform="translate(-531.84862,-77.549802)"
         id="path2554" />
    </clipPath>
    <clipPath
       clipPathUnits="userSpaceOnUse"
       id="clipPath2556">
      <path
         d="M 0,595 H 842 V 0 H 0 Z"
         transform="translate(-494.75101,-77.279299)"
         id="path2556" />
    </clipPath>
    <clipPath
       clipPathUnits="userSpaceOnUse"
       id="clipPath2558">
      <path
         d="M 0,595 H 842 V 0 H 0 Z"
         transform="translate(-503.83201,-77.317399)"
         id="path2558" />
    </clipPath>
    <clipPath
       clipPathUnits="userSpaceOnUse"
       id="clipPath2560">
      <path
         d="M 0,595 H 842 V 0 H 0 Z"
         transform="translate(-538.29881,-74.995099)"
         id="path2560" />
    </clipPath>
    <clipPath
       clipPathUnits="userSpaceOnUse"
       id="clipPath2562">
      <path
         d="M 0,595 H 842 V 0 H 0 Z"
         transform="translate(-498.00291,-74.687502)"
         id="path2562" />
    </clipPath>
    <clipPath
       clipPathUnits="userSpaceOnUse"
       id="clipPath2564">
      <path
         d="M 0,595 H 842 V 0 H 0 Z"
         transform="translate(-540.97951,-74.452099)"
         id="path2564" />
    </clipPath>
    <clipPath
       clipPathUnits="userSpaceOnUse"
       id="clipPath2566">
      <path
         d="M 0,595 H 842 V 0 H 0 Z"
         transform="translate(-490.99121,-73.515604)"
         id="path2566" />
    </clipPath>
    <clipPath
       clipPathUnits="userSpaceOnUse"
       id="clipPath2568">
      <path
         d="M 0,595 H 842 V 0 H 0 Z"
         transform="translate(-541.59371,-71.815399)"
         id="path2568" />
    </clipPath>
    <clipPath
       clipPathUnits="userSpaceOnUse"
       id="clipPath2570">
      <path
         d="M 0,595 H 842 V 0 H 0 Z"
         transform="translate(-535.08892,-71.763702)"
         id="path2570" />
    </clipPath>
    <clipPath
       clipPathUnits="userSpaceOnUse"
       id="clipPath2572">
      <path
         d="M 0,595 H 842 V 0 H 0 Z"
         transform="translate(-501.21292,-71.472702)"
         id="path2572" />
    </clipPath>
    <clipPath
       clipPathUnits="userSpaceOnUse"
       id="clipPath2574">
      <path
         d="M 0,595 H 842 V 0 H 0 Z"
         transform="translate(-494.79001,-71.423802)"
         id="path2574" />
    </clipPath>
    <clipPath
       clipPathUnits="userSpaceOnUse"
       id="clipPath2576">
      <path
         d="M 0,595 H 842 V 0 H 0 Z"
         transform="translate(-531.85252,-71.190402)"
         id="path2576" />
    </clipPath>
    <clipPath
       clipPathUnits="userSpaceOnUse"
       id="clipPath2578">
      <path
         d="M 0,595 H 842 V 0 H 0 Z"
         transform="translate(-503.88481,-70.915002)"
         id="path2578" />
    </clipPath>
    <clipPath
       clipPathUnits="userSpaceOnUse"
       id="clipPath2580">
      <path
         d="M 0,595 H 842 V 0 H 0 Z"
         transform="translate(-538.36621,-68.565402)"
         id="path2580" />
    </clipPath>
    <clipPath
       clipPathUnits="userSpaceOnUse"
       id="clipPath2582">
      <path
         d="M 0,595 H 842 V 0 H 0 Z"
         transform="translate(-498.02251,-68.236302)"
         id="path2582" />
    </clipPath>
    <clipPath
       clipPathUnits="userSpaceOnUse"
       id="clipPath2584">
      <path
         d="M 0,595 H 842 V 0 H 0 Z"
         transform="translate(-528.67681,-62.143602)"
         id="path2584" />
    </clipPath>
    <clipPath
       clipPathUnits="userSpaceOnUse"
       id="clipPath2586">
      <path
         d="M 0,595 H 842 V 0 H 0 Z"
         transform="translate(-507.45121,-61.253899)"
         id="path2586" />
    </clipPath>
    <clipPath
       clipPathUnits="userSpaceOnUse"
       id="clipPath2588">
      <path
         d="M 0,595 H 842 V 0 H 0 Z"
         transform="translate(-507.00781,-31.585001)"
         id="path2588" />
    </clipPath>
    <clipPath
       clipPathUnits="userSpaceOnUse"
       id="clipPath2590">
      <path
         d="M 0,595 H 842 V 0 H 0 Z"
         transform="translate(-528.68951,-57.386704)"
         id="path2590" />
    </clipPath>
    <clipPath
       clipPathUnits="userSpaceOnUse"
       id="clipPath2592">
      <path
         d="M 0,595 H 842 V 0 H 0 Z"
         transform="translate(-542.67292,-53.936501)"
         id="path2592" />
    </clipPath>
    <clipPath
       clipPathUnits="userSpaceOnUse"
       id="clipPath2594">
      <path
         d="M 0,595 H 842 V 0 H 0 Z"
         transform="translate(-492.27641,-53.835004)"
         id="path2594" />
    </clipPath>
    <clipPath
       clipPathUnits="userSpaceOnUse"
       id="clipPath2596">
      <path
         d="M 0,595 H 842 V 0 H 0 Z"
         transform="translate(-538.46482,-49.794904)"
         id="path2596" />
    </clipPath>
    <clipPath
       clipPathUnits="userSpaceOnUse"
       id="clipPath2598">
      <path
         d="M 0,595 H 842 V 0 H 0 Z"
         transform="translate(-496.69821,-49.991201)"
         id="path2598" />
    </clipPath>
    <clipPath
       clipPathUnits="userSpaceOnUse"
       id="clipPath2600">
      <path
         d="M 0,595 H 842 V 0 H 0 Z"
         transform="translate(-540.63181,-47.343799)"
         id="path2600" />
    </clipPath>
    <clipPath
       clipPathUnits="userSpaceOnUse"
       id="clipPath2602">
      <path
         d="M 0,595 H 842 V 0 H 0 Z"
         transform="translate(-497.35641,-46.188499)"
         id="path2602" />
    </clipPath>
    <clipPath
       clipPathUnits="userSpaceOnUse"
       id="clipPath2604">
      <path
         d="M 0,595 H 842 V 0 H 0 Z"
         transform="translate(-535.08791,-42.674801)"
         id="path2604" />
    </clipPath>
    <clipPath
       clipPathUnits="userSpaceOnUse"
       id="clipPath2606">
      <path
         d="M 0,595 H 842 V 0 H 0 Z"
         transform="translate(-501.28912,-42.765604)"
         id="path2606" />
    </clipPath>
    <clipPath
       clipPathUnits="userSpaceOnUse"
       id="clipPath2608">
      <path
         d="M 0,595 H 842 V 0 H 0 Z"
         transform="translate(-536.77151,-39.654303)"
         id="path2608" />
    </clipPath>
    <clipPath
       clipPathUnits="userSpaceOnUse"
       id="clipPath2610">
      <path
         d="M 0,595 H 842 V 0 H 0 Z"
         transform="translate(-501.29591,-38.550798)"
         id="path2610" />
    </clipPath>
    <clipPath
       clipPathUnits="userSpaceOnUse"
       id="clipPath2612">
      <path
         d="M 0,595 H 842 V 0 H 0 Z"
         transform="translate(-548.36231,-37.755903)"
         id="path2612" />
    </clipPath>
    <clipPath
       clipPathUnits="userSpaceOnUse"
       id="clipPath2614">
      <path
         d="M 0,595 H 842 V 0 H 0 Z"
         transform="translate(-485.02641,-37.895501)"
         id="path2614" />
    </clipPath>
    <clipPath
       clipPathUnits="userSpaceOnUse"
       id="clipPath2616">
      <path
         d="M 0,595 H 842 V 0 H 0 Z"
         transform="translate(-541.91891,-32.204103)"
         id="path2616" />
    </clipPath>
    <clipPath
       clipPathUnits="userSpaceOnUse"
       id="clipPath2618">
      <path
         d="M 0,595 H 842 V 0 H 0 Z"
         transform="translate(-494.80761,-32.065398)"
         id="path2618" />
    </clipPath>
    <clipPath
       clipPathUnits="userSpaceOnUse"
       id="clipPath2620">
      <path
         d="M 0,595 H 842 V 0 H 0 Z"
         transform="translate(-504.55571,-28.898403)"
         id="path2620" />
    </clipPath>
    <clipPath
       clipPathUnits="userSpaceOnUse"
       id="clipPath2622">
      <path
         d="M 0,595 H 842 V 0 H 0 Z"
         transform="translate(-519.25681,-20.594703)"
         id="path2622" />
    </clipPath>
    <clipPath
       clipPathUnits="userSpaceOnUse"
       id="clipPath2624">
      <path
         d="M 0,595 H 842 V 0 H 0 Z"
         transform="translate(-541.17481,-20.673798)"
         id="path2624" />
    </clipPath>
    <clipPath
       clipPathUnits="userSpaceOnUse"
       id="clipPath2626">
      <path
         d="M 0,595 H 842 V 0 H 0 Z"
         transform="translate(-484.25491,-20.506803)"
         id="path2626" />
    </clipPath>
    <clipPath
       clipPathUnits="userSpaceOnUse"
       id="clipPath2628">
      <path
         d="M 0,595 H 842 V 0 H 0 Z"
         transform="translate(-510.65722,-17.838903)"
         id="path2628" />
    </clipPath>
    <clipPath
       clipPathUnits="userSpaceOnUse"
       id="clipPath2630">
      <path
         d="M 0,595 H 842 V 0 H 0 Z"
         transform="translate(-519.35551,-14.620098)"
         id="path2630" />
    </clipPath>
    <clipPath
       clipPathUnits="userSpaceOnUse"
       id="clipPath2632">
      <path
         d="M 0,595 H 842 V 0 H 0 Z"
         transform="translate(-549.42091,-14.479503)"
         id="path2632" />
    </clipPath>
    <clipPath
       clipPathUnits="userSpaceOnUse"
       id="clipPath2634">
      <path
         d="M 0,595 H 842 V 0 H 0 Z"
         transform="translate(-486.01951,-14.391603)"
         id="path2634" />
    </clipPath>
    <clipPath
       clipPathUnits="userSpaceOnUse"
       id="clipPath2636">
      <path
         d="M 0,595 H 842 V 0 H 0 Z"
         transform="translate(-489.14161,-14.393598)"
         id="path2636" />
    </clipPath>
    <clipPath
       clipPathUnits="userSpaceOnUse"
       id="clipPath2638">
      <path
         d="M 0,595 H 842 V 0 H 0 Z"
         transform="translate(-519.93952,-13.842798)"
         id="path2638" />
    </clipPath>
  </defs>
  <sodipodi:namedview
     id="namedview1"
     pagecolor="#ffffff"
     bordercolor="#000000"
     borderopacity="0.25"
     inkscape:showpageshadow="2"
     inkscape:pageopacity="0.0"
     inkscape:pagecheckerboard="0"
     inkscape:deskcolor="#d1d1d1"
     inkscape:zoom="0.96907107"
     inkscape:cx="51.079845"
     inkscape:cy="182.64914"
     inkscape:window-width="1190"
     inkscape:window-height="788"
     inkscape:window-x="50"
     inkscape:window-y="61"
     inkscape:window-maximized="1"
     inkscape:current-layer="svg1">
    <inkscape:page
       x="0"
       y="0"
       width="102.4812"
       height="100.69513"
       id="page2"
       margin="0"
       bleed="0" />
  </sodipodi:namedview>
  <path
     id="path2535"
     clip-path="url(#clipPath2536)"
     style="fill:#231f20;fill-opacity:1;fill-rule:nonzero;stroke:none"
     d="M 1.6646588,0.48249001 C 1.0875689,0.47273415 0.51059625,0.27305641 5.9625001e-4,5.5640626e-4 -1.4394037,0.65355641 -3.0564351,0.27525954 -4.5814351,0.34625954 c -0.008,-0.086 -0.014508,-0.17227735 -0.020508,-0.25927735 0.087,-1.40199999 -0.2764727,-2.97075009 0.5405273,-4.21875009 -0.576,-0.791 -0.6727422,-1.8478634 -0.2607422,-2.7348634 0.664,0.913 1.6734298,1.5353555 2.8154298,1.5893555 0.004,0.805 0.00235,1.6114571 -0.014648,2.4184571 -0.303,0.178 -0.5266133,0.4575235 -0.5786133,0.8115235 0.33,0.002 0.7795078,-0.1143438 0.7705078,-0.5273438 0.041,-1.123 0.01793,-2.2480704 0.00293,-3.3720704 -0.097,-1.688 -1.5633595,-3.0413907 -3.1933595,-3.2753907 0.021,-0.46 0.033437,-0.9208829 0.023437,-1.3798829 0.017,-4.745 0.1053555,-9.487957 0.089355,-14.230957 0.041,-0.557 -0.6412344,-0.401485 -0.9902344,-0.521485 -1.546,-0.312 -2.5114454,-2.032203 -2.1064454,-3.533203 0.773,0.29 1.5895274,0.463188 2.4155274,0.492188 -0.124,0.675 0.6062227,0.597265 1.0532227,0.697265 1.253,0.287 2.1769259,1.503668 2.1489259,2.784668 0.022,3.104 -0.07427,6.208477 -0.05127,9.313477 -0.016,1.467 -0.033902,2.936785 -0.024902,4.404785 -0.034,0.238 0.1998164,0.331848 0.3618164,0.443848 1.52699999,0.938 2.54394928,2.6148126 2.7729493,4.3828126 0.169,1.45 -0.056703,2.9132345 0.029297,4.3652345 0.105,0.951 0.7931172,1.72492584 1.6201172,2.14892584 -0.033,0.031 -0.098301,0.0910469 -0.1333008,0.12304688 -0.33075,0.156375 -0.6776719,0.21972071 -1.0239253,0.21386719 z M -11.567275,0.39459938 c -0.367506,-0.019998 -0.728203,-0.1213711 -1.048828,-0.3178711 1.263,-0.586 1.773679,-2.02091418 1.596679,-3.33691418 0.039,-0.897 0.02266,-1.7968477 0.05567,-2.6938477 0.075,-1.571 0.808171,-3.0808321 1.9511714,-4.1528324 0.394,-0.361 0.8377813,-0.663711 1.3007813,-0.928711 0.022,-2.568 0.047551,-5.135148 0.039551,-7.702148 0.005,-1.463 0.036508,-2.928602 0.020508,-4.391602 0.079,-1.094 -0.1383789,-2.263461 0.4116211,-3.272461 0.511,0.69 1.281418,1.151668 2.128418,1.284668 -0.095,4.873 -0.1110039,9.749536 -0.1040039,14.623536 -0.029,0.431 -0.020043,0.8633863 -0.019043,1.2963863 -1.517,0.174 -2.8704845,1.3369102 -3.1464845,2.8579102 -0.173,1.162 -0.1180898,2.3446251 -0.1420898,3.5156251 -0.022,0.438 0.4502422,0.6369102 0.8232422,0.6079102 -0.049,-0.366 -0.3329258,-0.5884922 -0.6489258,-0.7294922 0.034,-0.791 -0.00901,-1.5849767 0.062988,-2.3759767 1.099,-0.035 2.1461876,-0.5959024 2.7421876,-1.5249024 0.418,0.851 0.3049375,1.8483673 -0.1640625,2.6513673 0.685,1.389 0.325043,3.0199025 0.394043,4.52490246 -1.5,-0.116 -3.1515079,0.32171483 -4.5205079,-0.46728517 -0.4900002,0.370625 -1.1204002,0.56506837 -1.7329102,0.53173829 z M 13.296983,-2.6405569 c -1.896,-10e-4 -3.793453,0.00603 -5.689453,-0.021973 -0.054,-1.912 0.011297,-3.8277228 0.029297,-5.7407228 2.135,-0.003 4.272691,0.015043 6.408691,0.019043 0.017,-0.181 0.03427,-0.3633868 0.05127,-0.5463868 0.824,-0.013 1.650121,-0.00635 2.474121,0.014648 0.016,1.02 3.52e-4,2.0415235 -0.01465,3.0615235 -2.148,0.055 -4.298778,-0.063578 -6.446778,-0.017578 l -0.0059,0.6796875 c 0.233,0.001 0.46573,-0.00325 0.69873,-0.010254 0.004,-0.18 0.0091,-0.3575977 0.01611,-0.5375977 0.826,-0.044 1.654445,-0.00739 2.481445,-0.00439 10e-4,1.035 0.01707,2.069004 -0.0029,3.104004 z M 6.7842878,-2.7548148 c -1.796,0.005 -3.5931603,-0.03734 -5.3891603,-0.04834 0.018,-0.831 -0.023195,-1.6641641 0.049805,-2.4931641 0.961,-0.002 1.9237423,-0.00121 2.8857423,0.00879 0.078,-5.1320001 0.069934,-10.2635081 0.1069336,-15.3955081 0.116,-0.652 -0.256832,-1.508934 0.347168,-1.981934 0.943,-0.919 1.8920078,-1.831441 2.8330078,-2.752441 0.277,-0.237 0.035418,-0.571805 -0.121582,-0.799805 0.589,-0.557 1.1568829,-1.1385 1.7548829,-1.6875 0.281,0.333 0.6516953,0.589078 0.8876949,0.955078 0.057,0.83 0.08325,1.677883 0.01025,2.504883 -1.0549997,1.082 -2.1822615,2.104543 -3.2182615,3.206543 -0.082,6.161 -0.092484,12.324399 -0.1464844,18.483399 z M -23.09999,-2.9042288 c 0.011,-1.042 0.0091,-2.0854415 0.01611,-3.1274415 0.814,0.014 1.628895,-0.00689 2.441895,0.016113 0.017,0.181 0.0328,0.3639219 0.0498,0.5449219 0.256,-0.003 0.509649,-0.00718 0.764649,-0.013184 -0.015,-0.226 -0.02848,-0.4512227 -0.04248,-0.6782227 -2.125,0.013 -4.247605,-0.049551 -6.370605,-0.039551 -0.026,-1.017 0.0026,-2.0351993 -0.0044,-3.0541993 0.813,-0.009 1.626895,-0.00793 2.441895,-0.00293 l 0.02051,0.5698243 c 1.606,0.022 3.212336,0.039297 4.819336,0.029297 0.523,0 1.047312,-0.00189 1.570312,0.016113 0.031,1.564 -0.01675,3.1308244 0.01025,4.6948244 -0.012,0.347 -0.02248,0.694039 -0.04248,1.040039 -1.892,0.009 -3.783805,0.00339 -5.674805,0.00439 z m 11.853516,-0.013184 c -1.789,-0.018 -3.578188,-0.017043 -5.367188,-0.019043 -0.049,-1.116 0.01168,-2.2340274 -0.0073,-3.3530274 0.067,-4.9489998 0.106019,-9.8995858 0.145019,-14.8505858 0.049,-0.288 -0.162492,-0.490899 -0.354492,-0.670899 -0.943,-0.899 -1.798414,-1.8963 -2.774414,-2.7583 -0.129,-0.845 -0.05627,-1.710547 -0.05127,-2.560547 0.233,-0.396 0.63529,-0.657235 0.94629,-0.990235 0.573,0.554 1.137105,1.118219 1.683105,1.699219 -0.166,0.245 -0.346918,0.612609 -0.06592,0.849609 1.021,1.019 2.023594,2.057989 3.058594,3.062989 0.006,5.702 -0.09971,11.40591 -0.07471,17.10791 0.976,-10e-4 1.954152,-0.013746 2.931152,0.010254 0.012,0.583 -0.02795,1.1640938 -0.04395,1.7460938 -0.005,0.242 -0.0139,0.4845625 -0.0249,0.7265625 z m 23.002442,-5.6088869 c -0.308801,-0.00234 -0.617157,-0.00956 -0.925782,-0.023437 0,-1.177 0.01041,-2.3567383 0.04541,-3.5317383 0.759,-0.157 1.627711,-0.01774 2.428711,-0.05274 0.03,1.198 -0.0104,2.3952624 -0.0044,3.5932624 -0.514375,0.00938 -1.029277,0.018555 -1.543945,0.014648 z m -33.57715,-0.3017578 c -0.40175,-0.002 -0.802136,-0.01241 -1.202636,-0.04541 0,-1.1879995 0.01283,-2.3774295 0.02783,-3.5654295 0.799,-10e-4 1.597484,0.04951 2.396484,0.02051 0.04,1.193 0.0099,2.390937 -0.01611,3.5859372 -0.4015,10e-4 -0.803817,0.00639 -1.205567,0.00439 z m 39.353029,-0.2182617 c -1.347,-0.031 -2.692039,-0.060734 -4.040039,-0.052734 -0.006,-0.828 0.0029,-1.6563748 0.0029,-2.4843748 1.284,-0.037 2.568075,0.02039 3.851075,0.0044 0.013,-0.177 0.02702,-0.354273 0.04102,-0.530273 0.116,0.003 0.233563,0.0058 0.351563,0.0088 0.695,0.016 1.392402,0.0063 2.087402,0.0293 0.005,1.002 0.04256,2.006324 -0.02344,3.0073241 -0.756,0.01 -1.514508,-0.014422 -2.270508,0.017578 z m -8.3833013,-0.09668 c -0.497625,-0.00175 -0.9947461,-0.012086 -1.4897461,-0.038086 -0.123,-1.8759998 -0.00444,-3.7722268 -0.023437,-5.6572268 1.83,10e-4 3.6596984,0.0603 5.4916994,0.0293 0.056,-0.003 0.169586,-0.01118 0.225586,-0.01318 0.189999,0.006 0.380288,0.02162 0.571289,0.03662 0.021,0.821 -0.0061,1.642867 0.0059,2.463867 -1.269,0.041 -2.5372,-0.01739 -3.804199,-0.0044 -0.001,0.229 -0.0033,0.456082 -0.0073,0.684082 0.179,0.011 0.356133,0.0213 0.536133,0.0293 0.007,0.82 0.01035,1.6370783 -0.01465,2.4550783 -0.496499,0.009 -0.9935858,0.016398 -1.4912108,0.014648 z M -18.774307,-9.353936 c -0.4795,10e-4 -0.959476,-0.00523 -1.438476,-0.032227 -0.037,-0.007 -0.10902,-0.020832 -0.14502,-0.027832 -0.033,-0.805 -0.02921,-1.610527 0.0088,-2.415527 0.184,-0.011 0.369176,-0.02076 0.555176,-0.03076 -0.002,-0.246 -0.0029,-0.493211 -0.0029,-0.741211 -1.259,-0.03 -2.519367,0.0228 -3.776367,-0.0542 0.012,-0.819 -0.0075,-1.638543 0.04248,-2.456543 2.066,0.022 4.131289,0.05071 6.196289,0.07471 0.015,1.893 0.0025,3.783805 -0.0015,5.6748045 -0.479,-0.001 -0.958977,0.00779 -1.438477,0.00879 z m -5.513672,-0.067383 c -1.07775,8.906e-4 -2.15516,-0.010219 -3.23291,-0.011719 -0.115,0 -0.231238,-4.648e-4 -0.344238,-0.00146 -0.525,0.002 -1.050707,0.012422 -1.574707,-0.017578 -0.006,-0.324 -0.0043,-0.649586 -0.01025,-0.975586 0.044,-0.69 0.02237,-1.381753 0.02637,-2.072753 0.817,0.029 1.634149,-0.02582 2.452149,0.01318 0.015,0.202 0.03087,0.402516 0.04687,0.603516 1.245,0.017 2.490816,-0.01789 3.736816,0.01611 0.005,0.813 -0.008,1.62843 -0.02197,2.4404293 -0.35925,0.00375 -0.718875,0.00556 -1.078125,0.00586 z m 40.250978,-2.308594 c -0.618844,-0.0034 -1.236492,-0.01861 -1.854492,-0.0059 -0.016,-1.194 0.0063,-2.390938 0.01025,-3.585938 0.823,-0.023 1.646726,0.0029 2.469726,0.0059 0.013,1.194 0.02314,2.389008 -0.0059,3.583008 -0.2065,0.003 -0.413348,0.0041 -0.619629,0.0029 z m -40.371095,-0.291504 c -0.592969,-5.15e-4 -1.186535,-0.02047 -1.779785,-0.02197 -0.071,-1.199 -0.01111,-2.401051 -0.01611,-3.602051 0.816,-0.008 1.633219,-0.01089 2.449219,0.01611 -0.029,1.2 -0.0011,2.400586 -0.06006,3.600586 -0.19775,0.0058 -0.395606,0.0075 -0.593262,0.0073 z m 47.147462,-0.18457 c -1.726,-0.031 -3.455152,-0.05599 -5.181152,-0.06299 -0.257,-0.003 -0.513043,-0.0083 -0.769043,-0.01025 -0.031,-0.833 -0.0038,-1.666024 0.01318,-2.499024 1.678,0.025 3.357133,0.03455 5.036133,0.03955 0.315,0.043 0.521098,-0.222551 0.725098,-0.414551 1.317,-1.297 2.632965,-2.593879 3.938965,-3.900879 1.276,-1.201 2.491465,-2.462152 3.751465,-3.681152 0.235,-0.191 0.204078,-0.511691 0.205078,-0.783691 -0.021,-5.889 0.148598,-11.776552 0.162598,-17.664552 -0.003,-0.649 0.01465,-1.296777 0.01465,-1.946777 0.068,-1.525 0.02527,-3.051637 0.05127,-4.577637 -0.022,-1.369 0.03211,-2.736957 0.01611,-4.105957 -0.175,-0.007 -0.349484,-0.01444 -0.521484,-0.02344 -0.027,-0.827 -0.004,-1.655375 0,-2.484375 1.014,0.006 2.030945,-0.04142 3.043945,0.01758 -0.008,1.962 -0.05102,3.922742 -0.04102,5.885742 -0.012,0.585 0.0055,1.169418 -0.0015,1.753418 -0.041,1.907 -0.02906,3.81568 -0.06006,5.72168 -0.075,6.303 -0.191106,12.603738 -0.183106,18.906738 0.024,0.361 -0.338781,0.548297 -0.550781,0.779297 -3.035,2.933 -6.038172,5.896684 -9.076172,8.825684 -0.146,0.167 -0.353219,0.247586 -0.574219,0.225586 z m -50.104981,-0.448242 c -0.962391,-0.0015 -1.924957,-0.04468 -2.887207,-0.01318 -0.976,-0.181 -2.263801,0.391149 -2.945801,-0.547851 -0.124,-0.125 -0.244676,-0.253395 -0.367676,-0.379395 -1.556,-1.607 -3.138586,-3.188137 -4.725586,-4.765137 -0.115,-0.111 -0.230238,-0.218519 -0.344238,-0.332519 -1.211,-1.275 -2.546379,-2.433 -3.713379,-3.75 0.088,-7.284 -0.133383,-14.56854 -0.06738,-21.85254 0.036,-3.417 -0.02468,-6.835442 0.0073,-10.252442 1.014,0.011 2.025551,-6.75e-4 3.039551,0.0073 0.007,0.808 0.01825,1.618246 0.01025,2.427246 -0.18,0.013 -0.360063,0.02562 -0.539063,0.03662 0.055,9.564 0.125668,19.13129 0.159668,28.69629 0.27,0.259 0.542594,0.518691 0.808594,0.783691 0.112,0.11 0.222449,0.22152 0.335449,0.33252 0.058,0.06 0.117317,0.118246 0.174317,0.177246 1.668,1.665 3.327187,3.340766 4.992187,5.009766 0.112,0.112 0.221985,0.224843 0.333985,0.339843 0.5,0.514 0.976113,1.058227 1.516113,1.532227 0.733,0.11 1.482703,0.0087 2.220703,0.07471 0.986,0.058 1.977844,-0.0034 2.964844,0.05859 -0.006,0.8 -0.0053,1.599879 -0.01025,2.400879 -0.3205,0.01275 -0.641605,0.01663 -0.962402,0.01611 z m 45.379395,-2.254395 c -0.203437,-6.4e-4 -0.40759,-0.0026 -0.61084,-0.0073 -0.014,-0.18 -0.02416,-0.359062 -0.03516,-0.539062 -0.553,-0.011 -1.106203,-0.03772 -1.658203,-0.01172 -0.703,-0.043 -1.40977,-0.02576 -2.11377,-0.03076 -0.05,-0.837 -0.01807,-1.677137 0.0029,-2.515137 2.08,0.008 4.160699,0.02069 6.241699,0.03369 0.027,0.656 -0.01403,1.313215 0.02197,1.970215 -0.023,0.365 -0.02058,0.732168 -0.01758,1.097168 -0.60975,-0.006 -1.220742,0.0049 -1.831055,0.0029 z m -5.901855,-0.05127 c -0.404375,0.0016 -0.807891,0.0012 -1.212891,-0.0073 -0.015,-2.179 0.02497,-4.358133 0.02197,-6.536133 0.028,-6.196 0.130722,-12.394868 0.115722,-18.588868 -0.727,-0.908 -1.6552614,-1.673067 -2.4682614,-2.518067 -0.304,-0.346 -0.8283243,-0.630015 -0.7573243,-1.166015 0.063,-0.671 0.1028047,-1.347485 0.049805,-2.021485 0.306,-0.337 0.5969805,-0.710472 0.9799805,-0.959472 0.585,0.527 1.1348516,1.099781 1.6728512,1.675781 -0.17,0.26 -0.317551,0.652555 -0.03955,0.893555 0.97,0.948 1.911996,1.923445 2.895996,2.856445 0.246,0.197 0.180965,0.535988 0.188965,0.812988 -0.123,8.515 -0.06438,17.041341 -0.234375,25.548341 -0.4045,0.004 -0.808515,0.0086 -1.21289,0.01025 z m -33.880372,-0.28711 c -0.40275,-0.0039 -0.805496,-0.01022 -1.208496,-0.01172 -0.017,-8.681 0.08835,-17.365317 0.08935,-26.049317 1.031,-1.02 2.054399,-2.049946 3.108399,-3.043946 0.29,-0.241 0.117265,-0.63123 -0.05274,-0.88623 0.559,-0.562 1.146571,-1.095711 1.684571,-1.678711 0.399,0.435 1.124812,0.773703 1.007812,1.470703 -0.056,0.666 0.08097,1.363836 -0.08203,2.006836 -0.994,1.03 -2.021551,2.031086 -3.039551,3.038086 -0.213,0.172 -0.153063,0.464125 -0.164063,0.703125 0.026,5.184 -0.06527,10.367317 -0.05127,15.549317 -0.077,2.966 -0.0045,5.935391 -0.0835,8.900391 -0.403,0.007 -0.805746,0.0053 -1.208496,0.0015 z m -5.182618,-0.04395 c -0.816,-0.003 -1.633218,-0.01411 -2.449218,-0.01611 -0.076,-1.006 0.0022,-2.017438 0.01318,-3.023438 0.176,-0.001 0.353274,-0.0024 0.530274,-0.0044 1.891,0.067 3.784804,-0.0079 5.674804,0.06006 0.055,0.817 -0.02856,1.632754 0.02344,2.447754 -1.256,0.03 -2.512113,-0.01175 -3.766113,0.01025 -0.009,0.176 -0.01737,0.350879 -0.02637,0.525879 z m 36.8671888,-0.241699 c -0.7510781,-0.0011 -1.5028945,-0.02004 -2.2543945,-0.0088 0.006,-1.812 0.00869,-3.624035 0.033691,-5.436035 0.02,-0.215 -0.099543,-0.399684 -0.206543,-0.575684 0.575,-0.573 1.1468125,-1.15543 1.7578125,-1.69043 0.567,0.484 1.1667112,1.031281 0.9287112,1.863281 0.008,1.111 -0.045,2.222055 0,3.331055 0.163,-0.009 0.325258,-0.01737 0.489258,-0.02637 0.073,0.843 0.02693,1.69211 0.0029,2.53711 -0.25025,0.0053 -0.501106,0.0062 -0.7514656,0.0059 z m -28.3432628,-0.272461 c -0.625654,0.0015 -1.254179,-0.02484 -1.877929,-0.01172 -0.044,-0.819 -0.01493,-1.640937 -0.0029,-2.460937 0.187,-0.004 0.375035,-0.0082 0.561035,-0.01318 0.006,-1.411 -0.01824,-2.824399 0.03076,-4.233399 0.253,-0.352 0.60598,-0.721246 0.97998,-0.927246 0.62,0.495 1.159106,1.105614 1.683106,1.703614 -0.108,0.159 -0.231473,0.323414 -0.209473,0.524414 0.002,1.791 -0.0019,3.582582 -0.04395,5.371582 -0.370875,0.0345 -0.745213,0.046 -1.120606,0.04687 z m 34.461915,-2.342285 c -0.619781,0.0046 -1.239386,-0.0093 -1.858886,-0.01904 0.003,-4.659 0.05182,-9.319004 0.09082,-13.979004 -0.031,-0.295 0.224621,-0.481504 0.411621,-0.666504 1.367,-1.277 2.629899,-2.68795 4.045899,-3.89795 0.622,0.495 1.200148,1.08436 1.702148,1.69336 -1.136,1.299 -2.525109,2.40259 -3.662109,3.70459 -0.055,4.382 -0.07186,8.768832 -0.109864,13.152832 -0.2065,0.0063 -0.413035,0.01019 -0.619629,0.01172 z m -40.987794,-0.333985 c -0.405,-1.25e-4 -0.809355,-0.0032 -1.214355,-0.01318 -0.028,-4.304 0.05304,-8.608133 0.01904,-12.911133 -0.116,-0.479 -0.636106,-0.725239 -0.933106,-1.094239 -0.287,-0.288 -0.565074,-0.584511 -0.851074,-0.874511 -0.599,-0.647 -1.283633,-1.219043 -1.848633,-1.894043 0.535,-0.603 1.094953,-1.258473 1.751953,-1.709473 1.343,1.228 2.589836,2.559285 3.881836,3.842285 0.199,0.214 0.512145,0.409141 0.473145,0.744141 -0.042,4.633 -0.02899,9.266902 -0.06299,13.899902 -0.405,0.0065 -0.810821,0.01038 -1.215821,0.01025 z m 30.4277355,-5.085937 c -0.339,-0.326 -0.7297696,-0.634996 -0.9887696,-1.020996 -0.027,-0.811 -0.053168,-1.638895 0.027832,-2.441895 1.014,-1.124 2.2050782,-2.098051 3.2050782,-3.227051 0.056,-3.501 0.055566,-7.007254 0.080566,-10.510254 -0.075,-0.634 0.6254453,-0.926727 0.9814453,-1.344727 0.575,0.555 1.1693594,1.100149 1.6933586,1.702149 -0.303,0.525 -0.15457,1.183785 -0.18457,1.779785 -0.027,3.165 -0.02464,6.333117 -0.07764,9.495117 -1.0089992,1.086 -2.1262024,2.07795 -3.1582024,3.14795 -0.216,0.232 -0.00438,0.540535 0.140625,0.748535 -0.562,0.568 -1.1527266,1.107387 -1.7197266,1.671387 z m -20.5034185,-0.159668 c -0.579,-0.574 -1.154938,-1.153489 -1.710938,-1.750489 0.17,-0.179 0.40684,-0.427546 0.23584,-0.685546 -1.045,-1.068 -2.151273,-2.086895 -3.155273,-3.191895 -0.036,-3.583 0.02379,-7.172348 0.0088,-10.756348 -0.014,-0.158 -0.129219,-0.283875 -0.199219,-0.421875 0.566,-0.562 1.102613,-1.159106 1.703613,-1.683106 0.365,0.252 0.719586,0.595868 0.975586,0.963868 0.019,3.61 -0.07237,7.224449 -0.02637,10.835449 0.99,1.165 2.193078,2.152223 3.205078,3.303223 0.072,0.618 -0.01482,1.247605 0.01318,1.870605 0.132,0.719 -0.643293,1.061114 -1.050293,1.516114 z m 12.7939456,-2.989746 c -0.505,-0.647 -1.2251328,-1.102582 -2.0361328,-1.246582 -0.058,-0.315 -0.2402344,-0.652516 -0.6152344,-0.603516 -3.522,-0.019 -6.7920124,-2.55918 -7.8120124,-5.90918 -0.643,-2.067 -0.423882,-4.354688 0.495118,-6.304688 -0.67,-1.37 -0.959457,-2.897433 -0.918457,-4.419433 -0.012,-4.27 0.035,-8.542524 0,-12.811524 -0.058,-0.493 -0.878536,-0.329867 -0.748536,0.161133 -0.069,9.483 -0.04129,18.97059 -0.09228,28.45459 -0.282,0.381 -0.66084,0.679996 -0.98584,1.020996 -0.592,-0.553 -1.125937,-1.164121 -1.710937,-1.724121 0.288,-0.249 0.257699,-0.628121 0.241699,-0.974121 -0.008,-5.802 0.04551,-11.606668 0.02051,-17.409668 -0.028,-0.712 -0.682063,-1.112571 -1.289063,-1.309571 -1.481,-0.639 -2.080015,-2.348257 -1.916015,-3.864257 -0.146,-1.328 0.432664,-2.976024 -0.694336,-3.999024 1.293,0.029 2.587371,0.03376 3.880371,0.03076 -0.02,-0.396 -0.336152,-0.640184 -0.681152,-0.763184 0.084,-0.481 0.512515,-0.796004 0.978515,-0.854004 0.916,-2.204 4.411282,-2.124601 5.238282,0.108399 0.411,0.106 0.778386,0.362832 0.9213863,0.777832 -0.3470003,0.12 -0.7053363,0.355043 -0.6943363,0.769043 4.0210004,0.032 8.0410593,0.04904 12.0600593,0.01904 -0.074,-0.386 -0.3997891,-0.606196 -0.7587891,-0.700196 0.152,-0.525 0.6266055,-0.787133 1.1206055,-0.911133 0.481,-0.779 1.2375313,-1.355691 2.1445313,-1.533691 0.008,4.734 -0.022762,9.466196 -0.030762,14.200196 0.013,1.95 -0.099672,3.977117 -1.0136719,5.745117 0.916,1.863 1.1293164,4.067453 0.5493164,6.064453 -0.717,2.564 -2.71223841,4.732325 -5.2192384,5.632325 -0.291,-0.938 -1.0388751,-1.632625 -1.9218751,-2.015625 1.826,-0.298 3.4974025,-1.481231 4.3374025,-3.136231 0.896,-1.684 0.9152969,-3.79191 0.0292969,-5.48291 -0.204,-0.412 -0.4861133,-0.776649 -0.7661133,-1.139649 0.754,-0.988 1.3152344,-2.165805 1.3652344,-3.424805 0.143,-3.602 0.1705976,-7.207476 0.1625976,-10.813476 -4.018,-0.007 -8.0357346,-0.0058 -12.0527341,-0.0088 -0.015,3.406 -0.02197,6.813215 -0.02197,10.220215 -0.031,1.16 0.270047,2.321011 0.8730467,3.312011 0.167,0.269 0.3480899,0.527411 0.5170899,0.795411 -1.2499996,1.503 -1.6713086,3.637418 -1.0913086,5.503418 0.7159999,2.494 3.1722306,4.294019 5.7612306,4.270019 2.048,0.033 3.4765117,2.516415 2.3745117,4.274415 z m 7.6684573,-1.523438 c -0.283,-0.387 -0.8145704,-0.630492 -0.9345704,-1.104492 0.149,-10.455 0.1156992,-20.91463 0.2416992,-31.36963 0.895,0.175 1.6346993,0.74586 2.1166993,1.50586 0.431,0.15 0.8736993,0.394441 0.9916993,0.877441 -0.223,0.203 -0.6072071,0.289855 -0.6372071,0.651855 -0.217,9.11 -0.1450234,18.231169 -0.2490234,27.347169 0.044,0.142 0.1497968,0.254254 0.2167968,0.385254 -0.552,0.598 -1.1580937,1.146543 -1.7460937,1.706543 z m 15.2578131,-3.558106 c -0.834218,0.01957 -1.673203,-0.303281 -2.208985,-0.996093 0.553,-0.579 1.137008,-1.125035 1.708008,-1.686035 0.257,0.361 0.958,0.188425 0.75,-0.288575 -0.771,-0.897 -1.671726,-1.680617 -2.469726,-2.557617 0.575,-0.568 1.13691,-1.150824 1.73291,-1.694824 0.848,0.748 1.605922,1.605949 2.419922,2.397949 0.932,0.873 1.110058,2.397074 0.435058,3.476074 -0.482375,0.863813 -1.42174,1.326944 -2.367187,1.349121 z m -50.610353,-0.304687 c -0.731,-0.0061 -1.467617,-0.281945 -1.995117,-0.793945 -0.946,-0.96 -1.14525,-2.592434 -0.28125,-3.669434 0.812,-0.956 1.736,-1.812777 2.625,-2.696777 0.586,0.581 1.211488,1.124488 1.750488,1.750488 -0.815,0.82 -1.674641,1.603656 -2.431641,2.472656 -0.217,0.491 0.469746,0.597223 0.739746,0.303223 0.492,0.487 0.969633,0.986914 1.473633,1.461914 0.067,0.11 0.235102,0.241027 0.0791,0.353027 -0.5035,0.5625 -1.228961,0.824973 -1.959961,0.818848 z m 46.335939,-2.671875 c -0.702,-0.734 -1.458067,-1.41211 -2.143067,-2.16211 1.474,-1.391 2.863699,-2.868539 4.366699,-4.227539 0.845,-0.805 2.177629,-1.111289 3.244629,-0.571289 0.708,0.342 1.244676,0.979657 1.492676,1.722657 0.295,1.037 -0.0058,2.290125 -0.881836,2.953125 -0.61,-0.508 -1.121472,-1.125133 -1.709472,-1.661133 0.376,-0.281 0.262101,-1.02293 -0.295899,-0.75293 -0.926,0.807 -1.77348,1.713082 -2.66748,2.559082 0.112,0.137 0.230336,0.26934 0.319336,0.42334 -0.508,0.629 -1.122586,1.176797 -1.725586,1.716797 z m -42.166994,-0.246094 c -0.611,-0.542 -1.175699,-1.132726 -1.741699,-1.719726 0.104,-0.135 0.209941,-0.268832 0.314941,-0.402832 -0.871,-0.834 -1.685168,-1.735461 -2.597168,-2.522461 -0.467,-0.223 -0.6278,0.37832 -0.3208,0.65332 -0.555,0.58 -1.129289,1.140473 -1.696289,1.709473 -0.787,-0.638 -1.052711,-1.7072 -0.928711,-2.6792 0.362,-1.612 2.231507,-2.643863 3.770507,-1.984863 0.815,0.293 1.35054,1.015707 1.97754,1.574707 1.089,1.086 2.24639,2.118348 3.27539,3.256348 -0.557,0.769 -1.384711,1.406234 -2.053711,2.115234 z m 42.191896,-4.366699 c -0.71,-0.686 -1.453008,-1.363629 -2.083008,-2.119629 -0.064,-2.178 0.0193,-4.360063 0.0293,-6.539063 0.053,-2.04 0.09248,-4.081582 0.04248,-6.121582 -0.001,-0.033 -0.0024,-0.101301 -0.0044,-0.133301 2.997,0.039 5.994746,-0.07793 8.989746,-0.0029 0.053,1.904 0.0036,3.81182 -0.02637,5.71582 -1.912,0.01 -3.825793,-9.3e-4 -5.737793,-0.0029 -0.061,-1.013 0.02693,-2.026015 0.0029,-3.041015 0.81,-0.009 1.622105,-0.01 2.433105,0 0.007,0.179 0.01783,0.356203 0.02783,0.533203 0.257,0.005 0.513043,0.0069 0.769043,0.0059 0.008,-0.249 0.0065,-0.5 -0.0015,-0.75 -1.332,0.025 -2.665094,-0.0037 -3.996094,-0.01172 -0.057,2.904 -0.01096,5.806962 -0.08496,8.709962 -0.203,0.987 1.116446,1.350093 1.356446,2.121093 -0.538,0.568 -1.089797,1.186231 -1.716797,1.636231 z m -42.224122,-0.115723 c -0.352,-0.345 -0.699758,-0.694039 -1.051758,-1.040039 -0.251,-0.24 -0.488914,-0.494184 -0.711914,-0.763184 0.457,-0.444 0.908375,-0.893726 1.359375,-1.344726 0.085,-3.103 0.06004,-6.219196 0.01904,-9.325196 -1.317,0.005 -2.635614,-0.0249 -3.953614,-0.0249 0,0.247 -9.29e-4,0.493746 -0.0029,0.739746 0.239,0.007 0.477773,0.01111 0.717773,0.01611 0.004,-0.185 0.0077,-0.369175 0.01172,-0.555175 0.834,-0.003 1.669418,-0.01149 2.503418,0.02051 -0.005,1.009 -9.3e-4,2.017832 -0.0029,3.027832 -1.91,-0.006 -3.820004,-0.0012 -5.729004,-0.03516 -0.016,-1.631 0.0041,-3.262043 -0.0029,-4.894043 0.015,-0.259 0.02523,-0.521226 0.03223,-0.782226 2.977,0.037 5.953688,0.01817 8.929688,0.07617 0.068,4.241 0.0322,8.484563 0.0542,12.726563 -0.726,0.719 -1.444363,1.442715 -2.172363,2.157715 z m 38.339356,-2.916504 c -0.569,-0.528 -1.113668,-1.08423 -1.659668,-1.63623 0.14,-0.221 0.250262,-0.456563 0.218262,-0.726563 -1.055,-1.045 -2.1103713,-2.090457 -3.1303713,-3.168457 -0.096,-0.097 -0.070566,-0.245141 -0.080566,-0.369141 0.021,-6.864 0.1002578,-13.724844 0.1142578,-20.589844 -0.229,0.005 -0.4575469,0.0063 -0.6855469,0.0073 -0.367,1.664 -1.6558477,2.859 -2.6938477,4.125 -0.396,0.415 -0.5632891,0.986805 -0.5712891,1.549805 -0.964,-0.45 -1.5608867,-1.499617 -1.4838867,-2.557617 -0.452,-0.155 -0.8613868,-0.498559 -0.9213868,-0.997559 2.642,0.119 4.4249493,-3.280793 2.7729493,-5.362793 -1.259,-1.937 -4.29401182,-1.766293 -5.5620118,0.07471 0.83399998,-2.014 3.3454845,-3.066836 5.3964845,-2.381836 1.434,0.411 2.5630001,1.607578 3.0000001,3.017578 1.082,0.017 2.1640938,-0.0096 3.2460936,0.0044 -0.053,7.129 -0.126133,14.256254 -0.161133,21.385254 0.037,0.391 -0.153781,0.890735 0.199219,1.177735 1.012,1.015 2.026226,2.02641 3.032226,3.04541 0,0.798 0.009,1.598485 -0.01904,2.396485 -0.285,0.37 -0.626742,0.739347 -1.010742,1.006347 z m -34.470704,-0.109863 c -0.36,-0.451 -1.089305,-0.758547 -0.987305,-1.435547 0.054,-0.675 -0.0829,-1.380668 0.0791,-2.034668 0.889,-0.959 1.84502,-1.857274 2.77002,-2.780274 0.13,-0.128 0.261043,-0.256789 0.394043,-0.383789 0.043,-0.796 -0.03159,-1.59709 0.04541,-2.39209 0.465,1.032 1.295598,1.891801 2.412598,2.195801 0.243,1.011 -0.271012,1.778356 -1.062012,2.339356 -0.68,0.661 -1.361344,1.321652 -2.027344,1.993652 -0.276,0.24 -0.02728,0.580383 0.115723,0.817383 -0.591,0.55 -1.132235,1.150176 -1.740235,1.680176 z m 34.494142,-4.546875 c -0.577,-0.567 -1.146149,-1.141981 -1.702149,-1.729981 0.087,-0.133 0.235418,-0.246086 0.253418,-0.413086 0.022,-7.365 0.105766,-14.731703 0.134766,-22.095703 0.028,-0.462 -0.36993,-0.758133 -0.75293,-0.911133 0.102,-0.539 0.591871,-0.803938 1.067871,-0.960938 0.424,-0.856 1.301746,-1.429269 2.239746,-1.551269 -0.046,8.902 -0.177375,17.807891 -0.234375,26.712891 -0.34,0.312 -0.631347,0.678219 -1.006347,0.949219 z m -34.457521,-0.130371 c -0.368,-0.294 -0.707066,-0.620121 -1.018066,-0.974121 0.007,-6.938 -0.04002,-13.875966 -0.04102,-20.813966 -0.173,0.003 -0.34509,0.0058 -0.51709,0.0088 -0.261,1.448 -1.262859,2.575332 -2.255859,3.590332 -0.544,0.541 -0.922375,1.248485 -0.984375,2.021485 -0.995,-0.398 -1.626012,-1.481434 -1.437012,-2.544434 -0.448,-0.188 -0.866547,-0.491148 -1.060547,-0.952148 1.488,-0.055 2.879219,-1.10845 3.199219,-2.58545 0.486,-1.818 -0.831988,-3.851761 -2.687988,-4.155761 -1.249,-0.276 -2.494196,0.321863 -3.325196,1.234863 0.856,-1.884 3.215829,-2.830649 5.173829,-2.264649 1.522,0.383 2.741066,1.598594 3.268066,3.058594 1.036,0.01 2.070934,0.03355 3.106934,0.03955 0.078,7.111 0.0368,14.223915 0.0498,21.336915 0.021,0.423 -0.128273,0.931695 0.219727,1.262695 -0.518,0.62 -1.09443,1.192305 -1.69043,1.737305 z m 49.721193,-1.362305 c -1.153203,0.0013 -2.316231,-0.0349 -3.464356,-0.0249 -0.246,0.051 -0.210007,-0.22286 -0.208007,-0.38086 0.031,-1.774 6.64e-4,-3.552172 0.05566,-5.326172 1.011,-0.003 2.023156,-0.0279 3.035156,-0.0249 -0.02,0.82 -0.0323,1.638543 -0.0293,2.456543 -0.184,0.003 -0.367316,0.0034 -0.549316,0.0044 0,0.255 4.65e-4,0.512114 0.0015,0.766114 0.257,0.006 0.517832,2.7e-5 0.777832,-0.02197 -10e-4,-1.32 0.02297,-2.640938 0.02197,-3.960938 -2.37,-0.04 -4.738887,-0.0099 -7.108887,-0.0029 -0.052,-0.827 -0.02189,-1.652981 0.01611,-2.479981 1.323,-0.034 2.648191,-0.0047 3.971191,-0.05273 1.882,0.083 3.763508,-0.03389 5.645508,0.01611 0.009,0.517 -0.0059,1.032805 -0.0059,1.549805 -0.053,2.472 -0.0086,4.949899 -0.09961,7.420899 -0.679125,0.04612 -1.367648,0.06077 -2.05957,0.06152 z m -62.522463,-0.225586 c -1.256578,3.75e-4 -2.513507,-0.0087 -3.770507,-0.01172 -0.239,-0.009 -0.476844,-0.0163 -0.714844,-0.0293 -0.08,-2.972 0.022,-5.944504 0,-8.916504 3.191,0.019 6.382289,0.02443 9.571289,0.08643 -0.005,0.814 0.04772,1.628895 0.01172,2.441895 -2.358,-0.015 -4.717196,-0.0099 -7.075196,-0.0249 -0.015,0.458 -0.0077,0.915559 0.0073,1.372559 -0.023,0.856 -0.02689,1.715801 0.01611,2.570801 0.242,10e-4 0.485562,0.0039 0.726562,0.0059 0.004,-0.238 0.0077,-0.477773 0.01172,-0.717773 -0.194,-0.02 -0.386613,-0.04199 -0.578613,-0.06299 0.015,-0.698 -9.3e-4,-1.396726 -0.0029,-2.094726 0.012,-0.117 0.02416,-0.234492 0.03516,-0.354492 0.998,0.05 1.998606,-0.01801 2.995606,0.06299 0.038,1.888 0.01844,3.77848 0.02344,5.66748 -0.41875,0.0025 -0.837976,0.0043 -1.256836,0.0044 z m 18.276856,-3.161133 c 0.03,-1.07 0.0041,-2.139937 -0.0059,-3.210937 -0.258,0.005 -0.515902,0.01051 -0.774902,0.02051 0.158,1.017 -0.546239,2.81243 0.780761,3.19043 z M 18.325792,-54.518 c -0.198953,-0.0011 -0.398906,-0.0035 -0.597656,-0.0088 -0.149,-1.218 -0.0022,-2.504535 -0.0542,-3.748535 -0.255,-0.002 -0.509649,-0.0053 -0.764649,-0.0073 -0.005,0.235 -0.0069,0.46966 -0.0059,0.70166 0.166,0.003 0.334441,0.0044 0.502441,0.0044 0.04,0.828 0.02091,1.658839 -0.03809,2.485839 -0.974,-0.014 -1.945969,0.0073 -2.917969,0.01025 -0.062,-1.896 0.0589,-3.794383 0.0249,-5.692383 1.9,0.017 3.801172,-0.06616 5.701172,-0.03516 0.005,2.089 -0.0071,4.179067 -0.06006,6.268067 -0.597,0.01275 -1.19318,0.02525 -1.790039,0.02197 z m -45.840821,-0.146484 c -0.622079,0.002 -1.245176,-0.01796 -1.867676,-0.0015 -0.042,-2.096 -0.03809,-4.192039 -0.03809,-6.290039 1.915,0.01 3.830582,0.02465 5.746582,0.01465 0.009,1.913 0.03983,3.826258 0.02783,5.739258 -0.987,0.015 -1.978844,0.02363 -2.964844,-0.02637 -0.145,-0.8 -0.03689,-1.652191 -0.08789,-2.471191 h 0.517089 c 0,-0.227 -0.001,-0.453153 0,-0.681153 -0.235,-0.004 -0.469125,-0.0049 -0.703125,-0.0029 -0.011,1.237 0.01721,2.471519 -0.0088,3.707519 -0.20725,0.0078 -0.413734,0.01105 -0.621093,0.01172 z m 9.117187,-3.14209 c -0.412625,0.0015 -0.824328,-0.0039 -1.236328,-0.02637 -0.065,-4.521 -0.03892,-9.043454 -0.06592,-13.564454 0.015,-0.443 -0.37593,-0.71782 -0.75293,-0.84082 0.112,-0.507 0.54377,-0.775613 0.98877,-0.953613 0.458,-0.824 1.300254,-1.448606 2.260254,-1.495606 0.041,5.623 0.03595,11.243212 0.04395,16.866212 -0.4125,0.0045 -0.825168,0.01315 -1.237793,0.01465 z m 16.6069343,-0.884766 c -1.098,-0.447 -1.844129,-1.552609 -1.932129,-2.724609 -0.552,-0.039 -1.056168,-0.476039 -1.097168,-1.040039 1.566,0.082 3.1053751,-0.933852 3.6093751,-2.422852 0.42800004,-1.323 0.43351179,-2.810769 1.24951179,-3.988769 -0.583,-0.012 -1.16702349,-0.02475 -1.74902349,0.01025 -0.026,1.026 0.028012,2.052707 -0.062988,3.074707 -0.134,1.334 -1.2851133,2.502476 -2.6411133,2.563476 -1.433,0.121 -2.8097892,-1.015176 -3.0087892,-2.430176 -0.117,-1.061 0.0088,-2.133754 -0.054199,-3.197754 -0.128,-0.092 -0.3176797,-0.0332 -0.4716797,-0.0542 -0.514,3.22 -4.5952065,3.810579 -5.5122065,6.767579 -0.896,-1.253 -0.709195,-3.104508 0.424805,-4.145508 -0.332001,-0.207 -0.633915,-0.489161 -0.711915,-0.889161 1.569,0.243 3.16927,-0.901656 3.42627,-2.472656 0.4019996,-1.831 -1.192707,-3.753109 -3.074707,-3.662109 -1.531,-0.005 -2.707621,1.254875 -3.036621,2.671875 -0.004,-2.388 2.436742,-4.312192 4.760742,-3.971192 1.549,0.192 2.9642302,1.268328 3.5112302,2.736328 0.079,0.162 0.095238,0.450832 0.3442383,0.402832 3.039,0.022 6.0801174,0.02258 9.1201174,0.01758 0.763,0.839 1.6360313,1.58898 2.3320313,2.47998 -1.18,-0.156 -2.3254806,0.620559 -2.66748055,1.747559 -0.376,1.4 -0.33357425,2.922144 -1.03857425,4.223144 -0.755,1.341 -2.0047266,2.630711 -1.7197266,4.303711 z M 33.270128,-58.747 c -1.361,-0.24 -2.301218,-1.502078 -2.449218,-2.830078 -0.177,-0.15 -0.337469,-0.318976 -0.480469,-0.500976 0.271,-0.181 0.529511,-0.433016 0.499511,-0.791016 0.056,-3.007 0.08179,-6.017367 0.112793,-9.026367 0.084,-0.517 -0.782648,-0.549551 -0.764648,-0.03955 -0.099,4.367 -0.07143,8.739957 -0.19043,13.105957 -0.444,-0.757 -1.050761,-1.476066 -1.905761,-1.768066 -0.312,-0.131 -0.650586,-0.169953 -0.975586,-0.251953 0.214,-0.303 0.422761,-0.636461 0.405761,-1.022461 0.019,-2.373 0.03741,-4.746141 0.04541,-7.119141 -0.236,0.004 -0.471519,0.0025 -0.707519,-0.0015 -0.037,2.983 -0.05658,5.965266 -0.121582,8.947266 -0.693,-1.018 -1.730492,-1.824258 -2.979492,-1.989258 0.3,-0.333 0.453004,-0.761102 0.479004,-1.204102 0.084,-1.382 0.06034,-2.770762 0.04834,-4.155762 -0.008,-0.521 0.0084,-1.043918 0.0044,-1.565918 -0.247,-0.003 -0.494211,-0.003 -0.741211,0 -0.036,2.726 -0.06021,5.452758 -0.09521,8.176758 -0.943,-1.151 -2.135125,-2.336148 -3.703125,-2.452148 1.723,-1.403 1.152836,-3.77575 1.256836,-5.71875 -0.252,-0.004 -0.505324,-0.0068 -0.757324,-0.0088 -0.13,1.577 0.347097,3.416375 -0.774903,4.734375 -0.697,0.805 -2.05014,1.000238 -2.24414,2.219238 -0.566,-0.242 -0.826852,-0.817137 -0.922852,-1.390137 -1.071,-0.468 -1.816758,-1.563652 -1.801758,-2.743652 -0.005,-2.244 -0.01077,-4.486957 0.03223,-6.730957 0.036,-0.622 -0.08768,-1.241828 -0.367676,-1.798828 1.064,-0.021 2.098645,0.598172 2.535645,1.576172 0.474,0.067 0.933574,0.357539 1.038574,0.852539 -0.354,0.133 -0.651789,0.386324 -0.758789,0.757324 3.548,0.016 7.099949,-0.01727 10.647949,-0.05127 -0.099,-0.386 -0.424437,-0.610929 -0.773437,-0.752929 0.147,-0.486 0.599773,-0.810047 1.092773,-0.873047 0.737,-1.565 2.910219,-2.204621 4.324219,-1.161621 0.41,0.287 0.707754,0.697394 0.947754,1.129394 0.445,0.096 0.831672,0.368481 1.013672,0.792481 -0.333,0.185 -0.72293,0.42075 -0.75293,0.84375 -0.123,4.268 -0.0218,8.547988 -0.216797,12.812988 z m -65.815431,-0.13916 c -1.186,-0.339 -2.041668,-1.508793 -2.034668,-2.737793 -0.479,-0.143 -0.887137,-0.508488 -1.015137,-1.000488 0.806,0.006 1.628367,-0.192942 2.276367,-0.689942 1.892,-1.37 1.132637,-4.11982 2.702637,-5.71582 -0.956,-0.03 -1.910699,-0.01697 -2.866699,-0.02197 0.094,0.915 -0.362594,2.254118 0.691406,2.745118 -0.125,0.44 -0.498429,0.75275 -0.940429,0.84375 -0.246,1.124 -1.042926,2.140742 -2.148926,2.510742 -0.155,-2.013 -0.0763,-4.074934 -0.133301,-6.106934 -0.252,0 -0.50093,-0.0019 -0.75293,-0.0029 -0.134,1.409 0.295801,2.943653 -0.429199,4.243653 -0.556,1.167 -2.295629,1.209859 -2.494629,2.630859 -0.536,-0.187 -0.892332,-0.704836 -0.965332,-1.256836 -0.009,-0.051 -0.02616,-0.154543 -0.03516,-0.206543 -0.759,-0.356 -1.388782,-0.990179 -1.675782,-1.784179 -0.099,-0.327 -0.154937,-0.665418 -0.210937,-1.003418 0.011,-1.38 0.002,-2.761114 0,-4.141114 -0.037,-0.457 0.510551,-0.585355 0.789551,-0.839355 -0.155,-0.244 -0.322512,-0.481914 -0.499512,-0.711914 -0.094,0.035 -0.19018,0.06954 -0.28418,0.102539 -0.015,-0.179 -0.03248,-0.359528 -0.04248,-0.540528 -0.002,-0.033 -0.0039,-0.100765 -0.0059,-0.134765 0.598,-0.433 0.956364,-1.114844 1.047364,-1.839844 0.525,0.297 0.920722,0.754371 1.240722,1.255371 0.431,0.155 0.86377,0.399442 0.98877,0.877442 -0.298,0.137 -0.552293,0.354039 -0.675293,0.665039 3.466,0.11 6.938715,0.09077 10.407715,0.134765 0.748,0.829 1.589367,1.580008 2.276367,2.458008 -0.864,0.028 -1.660234,0.527977 -2.115234,1.250977 -1.018,1.521 -0.412531,3.549797 -1.394531,5.091797 -0.752,1.216 -1.971684,2.345316 -1.700684,3.924316 z m 49.88672,-6.861328 c 0.176875,-0.0083 0.353781,-0.12302 0.363281,-0.33252 0.081,-0.94 0.03969,-1.892937 0.03369,-2.835937 -0.241,0.002 -0.480703,0.0039 -0.720703,0.0029 0.01,0.953 -0.04569,1.903981 -0.03369,2.854981 0.004,0.2195 0.180547,0.318797 0.357422,0.310547 z m -21.8847662,-0.03955 c 0.1086621,-0.0036 0.2077735,-0.06347 0.2490235,-0.199219 0.082,-0.959 0.03734,-1.925672 0.04834,-2.888672 -0.239,-0.003 -0.4773789,-0.0029 -0.7133789,-0.0029 0.002,0.913 -0.019633,1.827722 0.026367,2.740722 0.00312,0.206875 0.2085449,0.356065 0.3896484,0.350098 z m -35.0610358,-0.149414 c 0.1605,-0.0014 0.323238,-0.09864 0.344238,-0.285644 0.035,-0.95 0.02347,-1.906911 0.0015,-2.857911 -0.251,0 -0.50193,-9.29e-4 -0.75293,-0.0029 0.017,0.952 -0.01483,1.90991 0.07617,2.85791 0.012,0.1955 0.170555,0.289949 0.331055,0.288574 z m 26.377442,-2.919434 c -0.0986,8.64e-4 -0.200371,-0.01092 -0.306152,-0.03662 -0.794,-0.125 -1.313504,-1.046969 -1.041504,-1.792969 0.275,-0.84 1.395797,-1.227671 2.091797,-0.638671 1.036187,0.715375 0.419358,2.458066 -0.744141,2.46826 z m 8.3920899,-3.254883 c -0.011,-0.266 0.01032,-0.571054 0.2783203,-0.706054 0.027,0.275 0.02468,0.593054 -0.2783203,0.706054 z m 30.4746101,-0.07178 c -0.133973,9.59e-4 -0.270941,-0.02072 -0.408691,-0.06885 -0.741,-0.216 -1.156243,-1.128125 -0.823243,-1.828125 0.356,-1.045 2.005895,-1.137793 2.441895,-0.112793 0.49525,0.889 -0.272152,2.003053 -1.209961,2.009766 z m -60.288576,-0.0835 c -0.128341,1.8e-4 -0.262418,-0.02256 -0.399902,-0.07178 -0.759,-0.177 -1.216359,-1.05725 -0.943359,-1.78125 0.296,-0.958 1.630113,-1.218848 2.266113,-0.443848 0.796219,0.791766 0.122212,2.29541 -0.922852,2.296875 z m -3.221191,-0.03662 c -0.09655,1.86e-4 -0.196699,-0.01115 -0.300293,-0.03662 -0.853,-0.12 -1.409602,-1.160594 -1.016602,-1.933594 0.329,-0.797 1.462727,-1.016242 2.094727,-0.448242 0.966125,0.738422 0.361502,2.416261 -0.777832,2.418457 z m 34.7636726,-0.01465 c 0.252,-0.649 -0.3934258,-0.767446 -0.8364258,-0.981446 -0.034,0.044 -0.098836,0.130781 -0.131836,0.175781 0.139,0.131 0.2688594,0.273664 0.3808594,0.430664 -0.051,0.017 -0.1550781,0.05038 -0.2050781,0.06738 0.024,0.597 -0.6885625,0.125328 -0.3515625,-0.263672 -0.166,-0.217 -0.3438399,-0.439597 -0.6108399,-0.537597 0.103,0.367 -0.066867,0.701461 -0.2138672,1.022461 -0.031,-0.009 -0.093512,-0.02855 -0.1245117,-0.03955 -0.007,-0.189 -0.041793,-0.378641 -0.112793,-0.556641 0.055,-0.022 0.1652618,-0.06596 0.2182618,-0.08496 -0.313,-0.207 -0.7062227,-0.327652 -1.0532227,-0.118652 0.154,0.193 0.3760508,0.301324 0.6020508,0.382324 0.003,0.047 0.00632,0.140965 0.00732,0.188965 -0.371,-0.008 -0.9615313,-0.442707 -0.6445313,-0.824707 0.377,-0.186 0.7931563,-0.02746 1.1601563,0.102539 0.024,-0.101 0.046777,-0.206547 0.071777,-0.310547 0.356,-0.036 0.5199023,0.350809 0.7749023,0.528809 0.043,-0.149 0.087371,-0.300637 0.1303711,-0.452637 0.211,0.003 0.4120508,0.05888 0.6020508,0.150879 0.038,-0.08 0.073793,-0.160164 0.112793,-0.243164 0.721,0.087 1.0129726,0.888867 0.3969726,1.338867 -0.044,0.005 -0.1298515,0.0179 -0.1728515,0.0249 z"
     transform="matrix(1.3333333,0,0,-1.3333333,56.82733,0.64332)" />
</svg>
