<?xml version="1.0" encoding="UTF-8" standalone="no"?>
<!-- Created with Inkscape (http://www.inkscape.org/) -->

<svg
   version="1.1"
   id="svg1"
   width="94.739105"
   height="109.02666"
   viewBox="0 0 94.739101 109.02666"
   sodipodi:docname="s4.svg"
   inkscape:export-filename="/home/ziad-elaraby/StudioProjects/flutter_cv_maker/assets/png/i.png"
   inkscape:export-xdpi="96"
   inkscape:export-ydpi="96"
   inkscape:version="1.4 (1:1.4+202410161351+e7c3feb100)"
   xmlns:inkscape="http://www.inkscape.org/namespaces/inkscape"
   xmlns:sodipodi="http://sodipodi.sourceforge.net/DTD/sodipodi-0.dtd"
   xmlns="http://www.w3.org/2000/svg"
   xmlns:svg="http://www.w3.org/2000/svg">
  <defs
     id="defs1">
    <clipPath
       clipPathUnits="userSpaceOnUse"
       id="clipPath1828">
      <path
         d="M 0,595 H 842 V 0 H 0 Z"
         transform="translate(-334.83251,-466.40671)"
         id="path1828" />
    </clipPath>
    <clipPath
       clipPathUnits="userSpaceOnUse"
       id="clipPath1830">
      <path
         d="M 0,595 H 842 V 0 H 0 Z"
         transform="translate(-338.30571,-467.01661)"
         id="path1830" />
    </clipPath>
    <clipPath
       clipPathUnits="userSpaceOnUse"
       id="clipPath1832">
      <path
         d="M 0,595 H 842 V 0 H 0 Z"
         transform="translate(-332.14941,-461.89111)"
         id="path1832" />
    </clipPath>
    <clipPath
       clipPathUnits="userSpaceOnUse"
       id="clipPath1834">
      <path
         d="M 0,595 H 842 V 0 H 0 Z"
         transform="translate(-341.81451,-460.42481)"
         id="path1834" />
    </clipPath>
    <clipPath
       clipPathUnits="userSpaceOnUse"
       id="clipPath1836">
      <path
         d="M 0,595 H 842 V 0 H 0 Z"
         transform="translate(-328.44581,-455.08981)"
         id="path1836" />
    </clipPath>
    <clipPath
       clipPathUnits="userSpaceOnUse"
       id="clipPath1838">
      <path
         d="M 0,595 H 842 V 0 H 0 Z"
         transform="translate(-350.09671,-453.04981)"
         id="path1838" />
    </clipPath>
    <clipPath
       clipPathUnits="userSpaceOnUse"
       id="clipPath1840">
      <path
         d="M 0,595 H 842 V 0 H 0 Z"
         transform="translate(-320.95121,-453.24661)"
         id="path1840" />
    </clipPath>
    <clipPath
       clipPathUnits="userSpaceOnUse"
       id="clipPath1842">
      <path
         d="M 0,595 H 842 V 0 H 0 Z"
         transform="translate(-343.62891,-453.13091)"
         id="path1842" />
    </clipPath>
    <clipPath
       clipPathUnits="userSpaceOnUse"
       id="clipPath1844">
      <path
         d="M 0,595 H 842 V 0 H 0 Z"
         transform="translate(-316.19921,-447.25781)"
         id="path1844" />
    </clipPath>
    <clipPath
       clipPathUnits="userSpaceOnUse"
       id="clipPath1846">
      <path
         d="M 0,595 H 842 V 0 H 0 Z"
         transform="translate(-349.61281,-443.24271)"
         id="path1846" />
    </clipPath>
    <clipPath
       clipPathUnits="userSpaceOnUse"
       id="clipPath1848">
      <path
         d="M 0,595 H 842 V 0 H 0 Z"
         transform="translate(-320.75241,-441.35351)"
         id="path1848" />
    </clipPath>
    <clipPath
       clipPathUnits="userSpaceOnUse"
       id="clipPath1850">
      <path
         d="M 0,595 H 842 V 0 H 0 Z"
         transform="translate(-343.92291,-442.56691)"
         id="path1850" />
    </clipPath>
    <clipPath
       clipPathUnits="userSpaceOnUse"
       id="clipPath1852">
      <path
         d="M 0,595 H 842 V 0 H 0 Z"
         transform="translate(-358.54931,-439.92531)"
         id="path1852" />
    </clipPath>
    <clipPath
       clipPathUnits="userSpaceOnUse"
       id="clipPath1854">
      <path
         d="M 0,595 H 842 V 0 H 0 Z"
         transform="translate(-330.28561,-440.46631)"
         id="path1854" />
    </clipPath>
    <clipPath
       clipPathUnits="userSpaceOnUse"
       id="clipPath1856">
      <path
         d="M 0,595 H 842 V 0 H 0 Z"
         transform="translate(-315.18071,-439.54101)"
         id="path1856" />
    </clipPath>
    <clipPath
       clipPathUnits="userSpaceOnUse"
       id="clipPath1858">
      <path
         d="M 0,595 H 842 V 0 H 0 Z"
         transform="translate(-357.86911,-436.09231)"
         id="path1858" />
    </clipPath>
    <clipPath
       clipPathUnits="userSpaceOnUse"
       id="clipPath1860">
      <path
         d="M 0,595 H 842 V 0 H 0 Z"
         transform="translate(-318.74461,-399.38961)"
         id="path1860" />
    </clipPath>
    <clipPath
       clipPathUnits="userSpaceOnUse"
       id="clipPath1862">
      <path
         d="M 0,595 H 842 V 0 H 0 Z"
         transform="translate(-319.92241,-431.45511)"
         id="path1862" />
    </clipPath>
    <clipPath
       clipPathUnits="userSpaceOnUse"
       id="clipPath1864">
      <path
         d="M 0,595 H 842 V 0 H 0 Z"
         transform="translate(-350.83641,-433.92291)"
         id="path1864" />
    </clipPath>
    <clipPath
       clipPathUnits="userSpaceOnUse"
       id="clipPath1866">
      <path
         d="M 0,595 H 842 V 0 H 0 Z"
         transform="translate(-343.34081,-431.14161)"
         id="path1866" />
    </clipPath>
    <clipPath
       clipPathUnits="userSpaceOnUse"
       id="clipPath1868">
      <path
         d="M 0,595 H 842 V 0 H 0 Z"
         transform="translate(-308.08691,-428.43511)"
         id="path1868" />
    </clipPath>
    <clipPath
       clipPathUnits="userSpaceOnUse"
       id="clipPath1870">
      <path
         d="M 0,595 H 842 V 0 H 0 Z"
         transform="translate(-335.98881,-423.06841)"
         id="path1870" />
    </clipPath>
    <clipPath
       clipPathUnits="userSpaceOnUse"
       id="clipPath1872">
      <path
         d="M 0,595 H 842 V 0 H 0 Z"
         transform="translate(-355.85501,-420.20211)"
         id="path1872" />
    </clipPath>
    <clipPath
       clipPathUnits="userSpaceOnUse"
       id="clipPath1874">
      <path
         d="M 0,595 H 842 V 0 H 0 Z"
         transform="translate(-325.03561,-420.25341)"
         id="path1874" />
    </clipPath>
    <clipPath
       clipPathUnits="userSpaceOnUse"
       id="clipPath1876">
      <path
         d="M 0,595 H 842 V 0 H 0 Z"
         transform="translate(-341.99801,-422.24851)"
         id="path1876" />
    </clipPath>
    <clipPath
       clipPathUnits="userSpaceOnUse"
       id="clipPath1878">
      <path
         d="M 0,595 H 842 V 0 H 0 Z"
         transform="translate(-310.24221,-420.86961)"
         id="path1878" />
    </clipPath>
    <clipPath
       clipPathUnits="userSpaceOnUse"
       id="clipPath1880">
      <path
         d="M 0,595 H 842 V 0 H 0 Z"
         transform="translate(-334.86281,-416.79931)"
         id="path1880" />
    </clipPath>
    <clipPath
       clipPathUnits="userSpaceOnUse"
       id="clipPath1882">
      <path
         d="M 0,595 H 842 V 0 H 0 Z"
         transform="translate(-336.41061,-409.91021)"
         id="path1882" />
    </clipPath>
    <clipPath
       clipPathUnits="userSpaceOnUse"
       id="clipPath1884">
      <path
         d="M 0,595 H 842 V 0 H 0 Z"
         transform="translate(-358.81491,-409.48881)"
         id="path1884" />
    </clipPath>
    <clipPath
       clipPathUnits="userSpaceOnUse"
       id="clipPath1886">
      <path
         d="M 0,595 H 842 V 0 H 0 Z"
         transform="translate(-348.91551,-410.47411)"
         id="path1886" />
    </clipPath>
    <clipPath
       clipPathUnits="userSpaceOnUse"
       id="clipPath1888">
      <path
         d="M 0,595 H 842 V 0 H 0 Z"
         transform="translate(-368.36081,-411.60891)"
         id="path1888" />
    </clipPath>
    <clipPath
       clipPathUnits="userSpaceOnUse"
       id="clipPath1890">
      <path
         d="M 0,595 H 842 V 0 H 0 Z"
         transform="translate(-304.67381,-409.55961)"
         id="path1890" />
    </clipPath>
    <clipPath
       clipPathUnits="userSpaceOnUse"
       id="clipPath1892">
      <path
         d="M 0,595 H 842 V 0 H 0 Z"
         transform="translate(-355.17531,-409.15721)"
         id="path1892" />
    </clipPath>
    <clipPath
       clipPathUnits="userSpaceOnUse"
       id="clipPath1894">
      <path
         d="M 0,595 H 842 V 0 H 0 Z"
         transform="translate(-316.22021,-406.74711)"
         id="path1894" />
    </clipPath>
    <clipPath
       clipPathUnits="userSpaceOnUse"
       id="clipPath1896">
      <path
         d="M 0,595 H 842 V 0 H 0 Z"
         transform="translate(-323.34471,-405.26761)"
         id="path1896" />
    </clipPath>
    <clipPath
       clipPathUnits="userSpaceOnUse"
       id="clipPath1898">
      <path
         d="M 0,595 H 842 V 0 H 0 Z"
         transform="translate(-361.88621,-403.83591)"
         id="path1898" />
    </clipPath>
    <clipPath
       clipPathUnits="userSpaceOnUse"
       id="clipPath1900">
      <path
         d="M 0,595 H 842 V 0 H 0 Z"
         transform="translate(-304.66021,-398.71241)"
         id="path1900" />
    </clipPath>
    <clipPath
       clipPathUnits="userSpaceOnUse"
       id="clipPath1902">
      <path
         d="M 0,595 H 842 V 0 H 0 Z"
         transform="translate(-334.47021,-398.82031)"
         id="path1902" />
    </clipPath>
    <clipPath
       clipPathUnits="userSpaceOnUse"
       id="clipPath1904">
      <path
         d="M 0,595 H 842 V 0 H 0 Z"
         transform="translate(-345.99511,-395.64011)"
         id="path1904" />
    </clipPath>
    <clipPath
       clipPathUnits="userSpaceOnUse"
       id="clipPath1906">
      <path
         d="M 0,595 H 842 V 0 H 0 Z"
         transform="translate(-314.40671,-395.96581)"
         id="path1906" />
    </clipPath>
    <clipPath
       clipPathUnits="userSpaceOnUse"
       id="clipPath1908">
      <path
         d="M 0,595 H 842 V 0 H 0 Z"
         transform="translate(-306.27441,-394.79251)"
         id="path1908" />
    </clipPath>
    <clipPath
       clipPathUnits="userSpaceOnUse"
       id="clipPath1910">
      <path
         d="M 0,595 H 842 V 0 H 0 Z"
         transform="translate(-337.12261,-396.82811)"
         id="path1910" />
    </clipPath>
    <clipPath
       clipPathUnits="userSpaceOnUse"
       id="clipPath1912">
      <path
         d="M 0,595 H 842 V 0 H 0 Z"
         transform="translate(-360.91651,-395.00201)"
         id="path1912" />
    </clipPath>
    <clipPath
       clipPathUnits="userSpaceOnUse"
       id="clipPath1914">
      <path
         d="M 0,595 H 842 V 0 H 0 Z"
         transform="translate(-329.29641,-388.49371)"
         id="path1914" />
    </clipPath>
    <clipPath
       clipPathUnits="userSpaceOnUse"
       id="clipPath1916">
      <path
         d="M 0,595 H 842 V 0 H 0 Z"
         transform="translate(-363.11331,-392.92291)"
         id="path1916" />
    </clipPath>
    <clipPath
       clipPathUnits="userSpaceOnUse"
       id="clipPath1918">
      <path
         d="M 0,595 H 842 V 0 H 0 Z"
         transform="translate(-355.07131,-391.34181)"
         id="path1918" />
    </clipPath>
    <clipPath
       clipPathUnits="userSpaceOnUse"
       id="clipPath1920">
      <path
         d="M 0,595 H 842 V 0 H 0 Z"
         transform="translate(-320.66111,-390.93551)"
         id="path1920" />
    </clipPath>
    <clipPath
       clipPathUnits="userSpaceOnUse"
       id="clipPath1922">
      <path
         d="M 0,595 H 842 V 0 H 0 Z"
         transform="translate(-336.72121,-392.14211)"
         id="path1922" />
    </clipPath>
    <clipPath
       clipPathUnits="userSpaceOnUse"
       id="clipPath1924">
      <path
         d="M 0,595 H 842 V 0 H 0 Z"
         transform="translate(-351.76761,-390.41501)"
         id="path1924" />
    </clipPath>
    <clipPath
       clipPathUnits="userSpaceOnUse"
       id="clipPath1926">
      <path
         d="M 0,595 H 842 V 0 H 0 Z"
         transform="translate(-331.77981,-390.58251)"
         id="path1926" />
    </clipPath>
  </defs>
  <sodipodi:namedview
     id="namedview1"
     pagecolor="#ffffff"
     bordercolor="#000000"
     borderopacity="0.25"
     inkscape:showpageshadow="2"
     inkscape:pageopacity="0.0"
     inkscape:pagecheckerboard="0"
     inkscape:deskcolor="#d1d1d1"
     inkscape:zoom="3.580069"
     inkscape:cx="59.077074"
     inkscape:cy="88.266456"
     inkscape:window-width="1190"
     inkscape:window-height="788"
     inkscape:window-x="50"
     inkscape:window-y="61"
     inkscape:window-maximized="1"
     inkscape:current-layer="svg1">
    <inkscape:page
       x="0"
       y="0"
       width="94.739098"
       height="109.02666"
       id="page2"
       margin="0"
       bleed="0" />
  </sodipodi:namedview>
  <path
     id="path1827"
     clip-path="url(#clipPath1828)"
     style="fill:#231f20;fill-opacity:1;fill-rule:nonzero;stroke:none"
     d="M 1.1203453 2.0520076 C 0.73534534 1.3750076 0.35073984 0.69576141 -0.00026015626 -0.00023859376 C -0.17026016 -0.25623859 0.040419534 -0.54057846 0.096419534 -0.79857846 C 0.32941953 -2.3695785 0.08555235 -3.9763911 0.25755235 -5.5563911 C 0.35955235 -7.2243911 0.36356017 -8.8947623 0.46556017 -10.561762 C 0.50056017 -14.034762 0.8055758 -17.499407 0.8815758 -20.972407 C -0.8114242 -20.971407 -2.2394633 -19.484036 -2.4084633 -17.842036 C -2.5714633 -16.083036 -2.2311469 -14.323079 -1.8591469 -12.611079 C -1.7301469 -11.527079 -1.3262993 -10.379504 -1.7902993 -9.3225045 C -2.2682993 -9.2795045 -2.6176235 -9.6477115 -2.9226235 -9.9597115 C -3.5556235 -10.610711 -3.950522 -11.438868 -4.343522 -12.244868 C -5.359522 -14.618868 -5.6856548 -17.20602 -6.3796548 -19.67602 C -6.6226548 -20.43702 -6.9547643 -21.367587 -7.7917643 -21.631587 C -8.6777643 -21.737587 -9.3664713 -20.967704 -9.7414713 -20.251704 C -10.564471 -18.423704 -10.580628 -16.371583 -10.526628 -14.402583 C -10.548628 -14.063583 -10.435284 -13.627911 -10.749284 -13.388911 C -11.050284 -14.183911 -11.028592 -15.04661 -11.090592 -15.88061 C -11.145592 -17.99561 -10.973393 -20.210618 -9.9113932 -22.088618 C -9.5093932 -22.855618 -8.8126002 -23.557368 -7.9236002 -23.682368 C -7.0596002 -23.773368 -6.4427291 -23.016134 -6.1057291 -22.317134 C -5.3217291 -20.674134 -5.2014673 -18.823387 -4.7624673 -17.077387 C -4.3484673 -15.325387 -3.9185298 -13.458665 -2.6765298 -12.086665 C -3.2085298 -14.850665 -3.9483813 -17.732489 -3.2243813 -20.531489 C -2.7613813 -22.413489 -0.86240075 -23.978294 1.1305992 -23.581294 C 1.1725992 -25.527294 1.3679469 -27.466837 1.3869469 -29.412837 C -0.26605309 -29.842837 -2.0389048 -29.744732 -3.6609048 -29.229732 C -4.7719048 -28.874732 -5.6554673 -28.050946 -6.2624673 -27.074946 C -6.3894673 -27.269946 -6.5106783 -27.467743 -6.6286783 -27.666743 C -9.6146783 -26.464743 -12.987788 -27.457364 -15.540788 -29.203364 C -17.460788 -30.452364 -19.075593 -32.093837 -20.840593 -33.537837 C -21.650593 -34.181837 -22.541894 -34.803579 -23.598894 -34.923579 C -24.822894 -35.071579 -25.972097 -34.000767 -26.007097 -32.790767 C -26.171097 -30.574767 -24.988772 -28.54688 -23.749772 -26.80688 C -23.239772 -26.03088 -22.478464 -25.35772 -22.283464 -24.41772 C -22.828464 -24.69272 -23.168229 -25.220415 -23.543229 -25.680415 C -24.847229 -27.425415 -26.088144 -29.32131 -26.505144 -31.49731 C -26.725144 -32.82531 -26.625023 -34.269204 -25.906023 -35.439204 C -25.349023 -36.323204 -24.430616 -37.085337 -23.339616 -37.100337 C -22.252616 -37.064337 -21.302847 -36.424189 -20.475847 -35.773189 C -18.349847 -34.064189 -16.427604 -32.065337 -14.027604 -30.725337 C -11.986604 -29.525337 -9.3499947 -29.294095 -7.1779947 -30.277095 C -7.2169947 -31.922095 -6.4625454 -33.628068 -4.9675454 -34.424068 C -4.3615454 -33.723068 -4.1331821 -32.808903 -3.9201821 -31.930903 C -2.1501821 -32.398903 -0.25804918 -32.355251 1.4909508 -31.812251 C 1.5509508 -33.261251 1.432275 -34.712907 1.498275 -36.159907 C 1.705275 -35.990907 1.8947165 -35.791743 2.0007165 -35.541743 C 2.6207165 -34.190743 2.7858337 -32.689919 2.8708337 -31.221919 C 3.6308337 -30.833919 4.3523845 -30.357087 5.1603845 -30.069087 C 5.1303845 -30.768087 5.2657205 -31.540427 5.8547205 -31.992427 C 6.9877205 -32.835427 8.6666229 -32.554806 9.6296229 -31.580806 C 10.214623 -31.086806 10.52049 -30.374724 10.96849 -29.771724 C 10.95749 -30.483724 11.128701 -31.271474 11.709701 -31.740474 C 12.639701 -32.416474 14.047721 -32.298732 14.854721 -31.479732 C 15.388721 -30.940732 15.626311 -30.202095 15.934311 -29.527095 C 16.336311 -30.478095 17.024799 -31.392204 18.059799 -31.689204 C 19.095799 -32.042204 20.418682 -31.690997 20.939682 -30.676997 C 21.512682 -29.507997 21.759276 -28.188306 21.748276 -26.893306 C 21.746276 -25.684306 21.26751 -24.554274 20.86351 -23.436274 C 20.42651 -22.291274 19.983858 -21.148313 19.619858 -19.976313 C 19.532858 -19.711313 19.541729 -19.430466 19.562729 -19.157466 C 19.926729 -19.412466 20.248361 -19.73386 20.661361 -19.91186 C 20.732361 -19.24786 20.278025 -18.716485 19.967025 -18.177485 C 19.456025 -17.278485 18.904471 -16.401161 18.323471 -15.545161 C 17.978471 -16.329161 17.658717 -17.122927 17.375717 -17.929927 C 17.514717 -18.170927 17.643658 -18.422899 17.690658 -18.701899 C 17.940658 -20.067899 18.236752 -21.432727 18.686752 -22.750727 C 19.252752 -24.767727 20.239197 -26.639442 20.793197 -28.658442 C 19.999197 -29.326442 18.777822 -29.3757 17.933822 -28.7727 C 17.085822 -28.2597 16.706275 -27.291356 16.498275 -26.370356 C 15.789275 -27.164356 15.943377 -28.448235 15.077377 -29.146235 C 14.224377 -29.976235 12.545506 -29.714974 12.134506 -28.552974 C 11.874506 -27.948974 12.423053 -27.432571 12.445053 -26.840571 C 11.406053 -27.190571 11.100197 -28.426712 10.293197 -29.084712 C 9.2851971 -30.113712 7.2967673 -30.352657 6.3527673 -29.128657 C 5.9177673 -28.625657 6.2843455 -27.997157 6.3703455 -27.441157 C 5.1603455 -27.737157 4.1321188 -28.50272 2.9631188 -28.91772 C 2.9801188 -27.08772 2.9273532 -25.257415 2.8283532 -23.430415 C 2.7923532 -23.108415 2.7917438 -22.756087 3.1037438 -22.569087 C 4.4207438 -21.400087 4.7780642 -19.614098 5.2570642 -18.006098 C 5.5970642 -19.354098 5.9636228 -20.800114 7.0046228 -21.797114 C 8.3846228 -23.282114 11.104658 -23.362466 12.440658 -21.782466 C 13.199658 -20.695466 13.419826 -19.33086 13.537826 -18.03686 C 13.579826 -16.47386 12.932162 -15.008594 12.357162 -13.589594 C 12.167162 -13.098594 12.013381 -12.594102 11.806381 -12.110102 C 11.527381 -11.400102 11.198006 -10.679583 11.197006 -9.9025826 C 11.585006 -10.156583 11.916697 -10.503485 12.355697 -10.677485 C 12.397697 -10.137485 12.013041 -9.7023755 11.758041 -9.2653755 C 11.150041 -8.3483755 10.587592 -7.399188 9.9225917 -6.523188 C 9.5985917 -7.330188 9.2778534 -8.1404771 9.0158534 -8.9694771 C 9.6218534 -9.7924771 9.5300252 -10.878133 9.8420252 -11.817133 C 10.146025 -13.141133 10.645002 -14.412645 11.093002 -15.691645 C 11.516002 -16.973645 12.28835 -18.162169 12.47435 -19.503169 C 11.34735 -20.497169 9.5546854 -20.654434 8.2936854 -19.825434 C 7.5526854 -19.327434 7.1619158 -18.468493 6.9299158 -17.635493 C 6.5419158 -16.040493 6.4756658 -14.387423 6.2736658 -12.763423 C 6.2526658 -12.613423 6.228283 -12.464645 6.206283 -12.316645 C 5.936283 -10.362645 5.5564314 -8.3651645 4.5334314 -6.6491645 C 4.2574314 -7.3651645 3.9801462 -8.082231 3.6911462 -8.792231 C 3.5331462 -9.145231 3.7503063 -9.5043834 3.8303063 -9.8483834 C 4.2313063 -11.112383 4.4024509 -12.43036 4.6784509 -13.72436 C 4.9144509 -15.16436 5.0398571 -16.6652 4.6198571 -18.0852 C 4.3118571 -19.1172 3.6265446 -20.058294 2.6745446 -20.581294 C 2.6015446 -19.275294 2.5500719 -17.971231 2.4650719 -16.667231 C 2.3160719 -12.437231 1.8547282 -8.2196137 1.9377282 -3.9846137 C 2.4357282 -4.3956137 2.5497907 -5.2712309 3.2267907 -5.4172309 C 3.3287907 -4.6752309 2.9866618 -3.9804887 2.7946618 -3.2814887 C 2.3786618 -1.8684887 1.9158102 -0.47034404 1.4968102 0.94165596 C 1.3818102 1.315656 1.2483453 1.6830076 1.1203453 2.0520076 z M 3.4728845 0.61060127 C 3.4428845 0.36960127 3.4168532 0.12750359 3.3908532 -0.11449641 C 4.5758532 -1.0184964 5.280572 -2.6012934 4.902572 -4.0812934 C 5.306572 -3.7582934 5.186697 -3.0787308 5.230697 -2.6047308 C 5.304697 -1.2947308 4.5018845 -0.12539873 3.4728845 0.61060127 z M -3.9040688 -2.6369574 C -4.1950688 -2.8189574 -4.3177485 -3.1352699 -4.3757485 -3.4572699 C -4.1157485 -4.2172699 -5.0500884 -4.7319106 -4.7990884 -5.5139106 C -4.5190884 -5.6789106 -4.2359438 -5.8398442 -3.9509438 -5.9958442 C -4.1529438 -6.3188442 -4.4877642 -6.5128716 -4.7917642 -6.7238716 C -6.4597642 -7.8578716 -8.2005378 -8.8836763 -10.009538 -9.7736763 C -10.752538 -10.148676 -11.541592 -10.453016 -12.215592 -10.947016 C -11.646592 -10.819016 -11.119432 -10.562754 -10.576432 -10.353754 C -8.0624323 -9.2857545 -5.4033071 -8.2477817 -3.4983071 -6.2067817 C -2.9493071 -6.4167817 -2.4059907 -6.6549575 -1.8239907 -6.7619575 C -1.4489907 -6.3589575 -1.2545336 -5.8089575 -1.2805336 -5.2619575 C -1.6145336 -4.4649575 -2.2466352 -3.8566996 -2.8596352 -3.2726996 C -3.1766352 -3.0116996 -3.5350688 -2.8099574 -3.9040688 -2.6369574 z M 7.0134119 -3.5803168 C 6.4194119 -4.3443168 7.3426502 -5.1821958 6.9826502 -5.9811958 C 6.8016502 -6.4371958 6.0701306 -6.3942934 5.9001306 -5.9562934 C 5.7641306 -5.3102934 6.1129001 -4.6102621 5.7639001 -3.9992621 C 5.4949001 -4.4402621 5.6143455 -4.9444848 5.6203455 -5.4274848 C 5.5653455 -5.9744848 5.5340994 -6.7613872 6.1930994 -6.9523872 C 6.8020994 -7.0933872 7.0605603 -6.3995044 7.2155603 -5.9475044 C 7.4665603 -6.3205044 7.8323494 -6.8032778 8.3493494 -6.6652778 C 8.8333494 -6.3722778 8.899283 -5.7196879 8.831283 -5.2106879 C 8.640283 -4.6776879 8.4133143 -4.1571645 8.1633143 -3.6491645 C 7.6903143 -4.4741645 8.4107674 -5.2183794 8.6027674 -5.9943794 C 8.2607674 -6.0183794 7.8326619 -6.0530434 7.6696619 -5.6750434 C 7.3626619 -5.0080434 7.4024119 -4.2243168 7.0134119 -3.5803168 z M -3.5905923 -4.1281684 C -3.1035923 -4.3241684 -3.1282016 -4.9624262 -3.3152016 -5.3674262 C -3.6662016 -5.2214262 -4.0698579 -5.0900512 -4.2878579 -4.7580512 C -4.2758579 -4.4130512 -3.9215923 -4.1341684 -3.5905923 -4.1281684 z M -2.6823891 -4.5148871 C -2.2293891 -4.8988871 -1.7489125 -5.3562934 -1.6189125 -5.9562934 C -2.1129125 -5.9122934 -2.6408384 -5.7595278 -3.0178384 -5.4465278 C -2.9178384 -5.1335278 -2.7843891 -4.8288871 -2.6823891 -4.5148871 z M -6.2243814 -11.28393 C -6.2773912 -11.286169 -6.3323541 -11.297122 -6.3869791 -11.317622 C -6.7119791 -11.569622 -6.8262252 -11.99238 -6.9392252 -12.36938 C -7.1162252 -13.02938 -7.078983 -13.722005 -7.240983 -14.385005 C -7.527983 -13.691005 -7.6821471 -12.91159 -8.2341471 -12.36059 C -8.5651471 -12.08459 -8.9529948 -11.665626 -9.4279948 -11.796626 C -9.5049948 -11.942626 -9.5481276 -12.101516 -9.5891276 -12.259516 C -9.7981276 -12.828516 -9.0979987 -12.98909 -8.7819987 -13.29809 C -8.6889987 -13.25409 -8.5952135 -13.20879 -8.5022135 -13.16479 C -7.9352135 -13.89779 -7.7259752 -14.813278 -7.4079752 -15.665278 C -6.8479752 -14.795278 -7.0100494 -13.699661 -6.7590494 -12.732661 C -6.6930494 -12.472661 -6.6287916 -12.030622 -6.2697916 -12.067622 C -5.9747916 -12.117622 -5.8388384 -12.44577 -5.6428384 -12.64477 C -5.5988384 -12.43677 -5.5514673 -12.231676 -5.5124673 -12.023676 C -5.5387173 -11.666676 -5.853313 -11.268262 -6.2243814 -11.28393 z M 15.670639 -12.293208 C 15.491639 -12.629208 15.373877 -12.991684 15.264877 -13.356684 C 15.037877 -14.108684 14.674201 -14.896575 14.897201 -15.694575 C 14.977201 -15.993575 15.266045 -16.349411 15.612045 -16.201411 C 16.090045 -15.935411 16.307701 -15.343598 16.209701 -14.818598 C 16.082701 -15.039598 15.965279 -15.265891 15.852279 -15.493891 C 15.600279 -15.460891 15.338553 -15.349665 15.257553 -15.086665 C 15.101553 -14.303665 15.486061 -13.563622 15.653061 -12.817622 C 15.665061 -12.642622 15.667639 -12.467208 15.670639 -12.293208 z M -13.45778 -12.616938 C -13.68978 -12.708938 -13.76312 -12.964395 -13.88112 -13.160395 C -14.32212 -14.003395 -14.928487 -14.808466 -15.032487 -15.782466 C -15.090487 -16.224466 -14.855858 -16.68904 -14.412858 -16.82104 C -13.868858 -16.58404 -13.461811 -15.977169 -13.539811 -15.378169 C -13.751811 -15.589169 -13.86903 -15.879321 -14.11403 -16.059321 C -14.31803 -15.928321 -14.567624 -15.767497 -14.547624 -15.489497 C -14.481624 -14.432497 -13.63278 -13.641938 -13.45778 -12.616938 z M 8.7961268 -13.276118 C 8.5031268 -14.184118 7.9607049 -15.071391 8.0637049 -16.056391 C 8.0957049 -16.406391 8.3979822 -16.621473 8.6979822 -16.740473 C 9.0459822 -16.524473 9.2647362 -16.160774 9.2707362 -15.748774 C 9.2547362 -15.633774 9.2340721 -15.519001 9.2150721 -15.406001 C 9.1030721 -15.616001 8.9978768 -15.826348 8.8898768 -16.037348 C 8.6848768 -15.930348 8.448576 -15.817458 8.381576 -15.574458 C 8.236576 -14.774458 8.9051268 -14.063118 8.7961268 -13.276118 z M -17.096452 -19.016841 C -17.611339 -19.01602 -18.125323 -19.058302 -18.633073 -19.148677 C -18.925073 -19.167677 -19.033882 -19.469809 -19.161882 -19.684809 C -19.482882 -20.297809 -19.795604 -20.917528 -20.027604 -21.571528 C -18.676604 -21.300528 -17.261182 -21.25129 -15.920182 -21.60229 C -17.278182 -22.61629 -19.070183 -22.915392 -20.420183 -23.931392 C -19.367183 -23.816392 -18.330952 -23.582231 -17.283952 -23.417231 C -16.497952 -23.324231 -15.90753 -22.733536 -15.42653 -22.154536 C -14.87553 -21.460536 -14.327971 -20.728169 -14.053971 -19.878169 C -13.925971 -19.547169 -14.311553 -19.42322 -14.550553 -19.35522 C -15.379303 -19.139595 -16.238307 -19.018208 -17.096452 -19.016841 z M 15.18724 -21.284419 C 14.80824 -22.124419 14.482232 -22.993122 14.229232 -23.880122 C 14.238232 -24.255122 14.215568 -24.711571 14.548568 -24.965571 C 15.031568 -25.318571 15.702713 -25.130509 16.146713 -24.801509 C 16.478713 -24.484509 16.484697 -23.976532 16.480697 -23.550532 C 16.273697 -22.933532 15.639955 -22.667602 15.094955 -22.422602 C 15.144955 -22.044602 15.22224 -21.665419 15.18724 -21.284419 z M -12.700456 -22.416743 C -13.238456 -23.246743 -13.826339 -24.085462 -14.080339 -25.053462 C -14.181339 -25.497462 -14.080487 -26.207606 -13.532487 -26.276606 C -12.895487 -26.172606 -12.578792 -25.398227 -12.644792 -24.813227 C -12.841792 -25.004227 -12.959639 -25.252985 -13.088639 -25.489985 C -13.366639 -25.503985 -13.645815 -25.3227 -13.643815 -25.0227 C -13.643815 -24.0537 -12.755456 -23.371743 -12.700456 -22.416743 z M 14.780014 -23.163813 C 15.329014 -23.231813 15.778572 -23.587942 16.152572 -23.970942 C 15.822572 -24.328942 15.178478 -24.483048 14.781478 -24.154048 C 14.534478 -23.871048 14.693014 -23.478813 14.780014 -23.163813 z M 9.4304041 -23.680903 C 9.3099354 -23.678684 9.1905604 -23.724856 9.0905604 -23.839106 C 8.4885604 -24.509106 8.6310604 -25.485228 8.5280604 -26.313228 C 8.0970604 -25.438228 7.5398299 -24.462177 6.5168299 -24.211177 C 6.2688299 -24.472177 6.2588767 -24.833114 6.2648767 -25.172114 C 6.5838767 -25.369114 6.9073494 -25.564306 7.2243494 -25.768306 C 7.2973494 -25.723306 7.3705408 -25.679935 7.4455408 -25.637935 C 7.9345408 -26.182935 8.1286932 -26.902259 8.5016932 -27.520259 C 8.8856932 -26.740259 8.7167635 -25.84777 8.8737635 -25.01977 C 8.9307635 -24.76977 9.0752049 -24.439622 9.3762049 -24.442622 C 9.6022049 -24.504622 9.7692831 -24.692411 9.9562831 -24.826411 C 9.9832831 -24.720411 10.008385 -24.613075 10.035385 -24.507075 C 10.161385 -24.132825 9.7918104 -23.687559 9.4304041 -23.680903 z M 24.701401 -24.007563 C 24.223401 -24.750563 23.938026 -25.627685 23.717026 -26.481685 C 23.599026 -27.033685 23.67519 -27.851052 24.33519 -28.008052 C 24.93919 -27.867052 25.13626 -27.11804 25.08226 -26.57104 C 24.88826 -26.72204 24.834498 -26.974118 24.676498 -27.151118 C 24.340498 -27.261118 24.052334 -26.884899 24.058334 -26.576899 C 24.012334 -25.665899 24.667401 -24.906563 24.701401 -24.007563 z M 0.12278672 -24.280024 C -1.4672133 -24.719024 -3.0341353 -25.274692 -4.5471353 -25.939692 C -4.9551353 -26.073692 -5.0211431 -26.547095 -5.1301431 -26.902095 C -3.5651431 -26.179095 -1.9374828 -25.602321 -0.30348282 -25.059321 C -0.04548282 -24.897321 0.0017867218 -24.542024 0.12278672 -24.280024 z M -19.308366 -26.677974 C -19.429637 -26.68307 -19.54764 -26.737505 -19.65114 -26.865474 C -20.31714 -27.688474 -20.149038 -28.825415 -20.322038 -29.805415 C -20.803038 -28.901415 -21.15221 -27.639196 -22.27321 -27.356196 C -22.33021 -27.385196 -22.444261 -27.440989 -22.500261 -27.468989 C -22.607261 -27.736989 -22.681382 -28.019415 -22.724382 -28.305415 C -22.397382 -28.561415 -22.068769 -28.819544 -21.770769 -29.112544 C -21.682769 -29.038544 -21.594167 -28.964817 -21.504167 -28.892817 C -21.067167 -29.541817 -20.784311 -30.273544 -20.477311 -30.987544 L -20.341081 -30.999263 C -19.900081 -30.087263 -20.169921 -29.018364 -19.826921 -28.078364 C -19.732921 -27.849364 -19.595339 -27.590837 -19.330339 -27.537837 C -19.051339 -27.632837 -18.877975 -27.894899 -18.657975 -28.076899 C -18.607975 -27.803899 -18.48835 -27.528263 -18.51735 -27.249263 C -18.669007 -26.979013 -18.998452 -26.664948 -19.308366 -26.677974 z M 24.23558 -29.931392 C 23.83058 -29.986392 23.270873 -29.895716 23.035873 -30.313716 C 22.631873 -30.992716 22.211998 -31.665751 21.863998 -32.374751 C 23.299998 -32.054751 24.820951 -32.148052 26.240951 -32.508052 C 24.997951 -33.309052 23.600295 -33.831154 22.268295 -34.462154 C 22.022295 -34.585154 21.741596 -34.706427 21.651596 -34.992427 C 22.895596 -34.762427 24.168553 -34.590173 25.382553 -34.232173 C 26.686553 -33.368173 27.605717 -31.978853 28.250717 -30.578853 C 27.007717 -29.993853 25.58558 -29.963392 24.23558 -29.931392 z M 29.075424 -32.046626 C 28.735424 -32.735626 28.459221 -33.452396 28.167221 -34.160396 C 27.930221 -34.664396 28.468553 -35.117888 28.382553 -35.639888 C 28.427553 -42.072888 28.932686 -48.485513 29.293686 -54.905513 C 29.396686 -56.337513 29.401862 -57.773295 29.473862 -59.206295 C 29.550862 -59.754295 29.563737 -60.307639 29.520737 -60.858639 C 29.536737 -61.127639 29.554541 -61.395767 29.570541 -61.665767 C 29.656541 -62.409767 29.654416 -63.158514 29.617416 -63.905514 C 29.557416 -64.560514 29.863409 -65.541416 29.034409 -65.805416 C 26.080409 -67.155416 22.747412 -67.362494 19.763412 -68.635494 C 17.645412 -69.546494 15.791877 -70.969811 14.139877 -72.559811 C 13.024877 -73.558811 11.919021 -74.651881 10.488021 -75.181881 C 9.6200214 -75.507881 8.536951 -75.416244 7.865951 -74.729244 C 7.181951 -74.067244 7.0535721 -73.048795 7.1525721 -72.143795 C 7.4475721 -69.470795 9.0740135 -67.222307 10.655014 -65.143307 C 12.382014 -66.573307 14.706686 -67.172357 16.918686 -66.870357 C 22.626686 -66.055357 27.77817 -61.26642 28.31517 -55.40942 C 28.47317 -53.72642 28.401471 -51.838994 27.323471 -50.447994 C 26.393471 -49.289994 24.832635 -49.035189 23.441635 -48.898189 C 22.328635 -48.742189 21.195143 -48.831771 20.087143 -48.644771 C 19.007143 -48.462771 18.008865 -47.762474 17.577865 -46.740474 C 17.410865 -47.037474 17.236322 -47.337224 16.996322 -47.584224 C 16.427322 -48.175224 16.045982 -48.918662 15.447982 -49.482662 C 14.596982 -50.345662 13.27449 -50.764529 12.09349 -50.446529 C 11.69249 -50.345529 11.354807 -50.083685 11.142807 -49.731685 C 11.995807 -48.610685 12.988791 -47.585361 14.101791 -46.724361 C 14.505791 -47.090361 14.787705 -47.567322 15.188705 -47.934322 C 15.486705 -47.314322 15.27149 -46.623658 15.09349 -46.003658 C 17.62249 -44.358658 20.453666 -43.264392 23.148666 -41.931392 C 24.077666 -41.488392 24.970194 -40.964962 25.939194 -40.615962 C 26.259194 -39.847962 26.499377 -39.041591 26.702377 -38.235591 C 23.173377 -37.549591 19.563186 -37.409833 15.981186 -37.183833 C 13.881186 -37.099833 11.752639 -36.939486 9.6706385 -37.302486 C 7.2406385 -37.754486 6.4517322 -41.449654 8.4167322 -42.899654 C 9.8257322 -43.947654 11.485209 -44.601759 12.855209 -45.707759 C 11.995209 -46.567759 11.259318 -47.535822 10.517318 -48.496822 C 10.336318 -48.205822 10.155678 -47.916494 9.9606776 -47.635494 C 9.6736776 -48.388494 9.4338182 -49.159369 9.2048182 -49.932369 C 9.0908182 -50.221369 9.3388416 -50.467666 9.4538416 -50.711666 C 8.3408416 -52.956666 7.8872166 -55.465388 7.8132166 -57.952388 C 7.5192166 -58.239388 7.1028103 -58.364763 6.7468103 -58.561763 C 6.6068103 -52.775763 6.0093298 -47.016775 5.5793298 -41.248775 C 5.5193298 -40.414775 5.4114392 -39.577427 5.4914392 -38.742427 C 5.9934392 -39.126427 6.2017791 -39.766087 6.6647791 -40.194087 C 6.9667791 -39.679087 6.7122556 -39.069419 6.6032556 -38.534419 C 6.0482556 -36.588419 5.5078923 -34.631173 4.8058923 -32.732173 C 4.3528923 -33.485173 3.9353376 -34.259697 3.5373376 -35.043697 C 3.6473376 -35.301697 3.7721931 -35.559572 3.8141931 -35.840572 C 3.9371931 -43.593572 4.8227478 -51.31181 5.0827478 -59.05981 C 5.1787478 -59.44781 4.745697 -59.535142 4.480697 -59.650142 C 2.953697 -60.221142 1.3866461 -60.768232 -0.24635391 -60.917232 C -0.11535391 -57.766232 -0.37856095 -54.61892 -0.50856095 -51.47192 C -0.69656095 -48.20392 -0.95985394 -44.941509 -1.1838539 -41.676509 C -1.2288539 -40.926509 -1.3587289 -40.16865 -1.2307289 -39.42065 C -0.76872894 -39.88365 -0.50788125 -40.504201 -0.036881251 -40.960201 C 0.26611875 -40.285201 -0.10586173 -39.565095 -0.26686173 -38.902095 C -0.87586173 -37.081095 -1.3805649 -35.218622 -2.1125649 -33.442622 C -2.5425649 -34.167622 -2.9174556 -34.923396 -3.3254556 -35.660396 C -3.1284556 -36.121396 -2.9786118 -36.60745 -2.9856118 -37.11645 C -2.7626118 -45.08545 -1.9393696 -53.031193 -1.7873696 -61.002193 C -2.8533696 -60.996193 -3.9763032 -60.877279 -4.8943032 -60.290279 C -3.6313032 -58.251279 -2.9256548 -55.846134 -3.0046548 -53.442134 C -3.0566548 -51.971134 -3.5884751 -50.327455 -4.9704751 -49.595455 C -7.1744751 -48.461455 -10.061725 -49.387591 -12.001725 -47.610591 C -12.406725 -47.242591 -12.629503 -46.737498 -12.823503 -46.239498 C -12.918503 -45.994498 -13.114159 -45.684494 -13.421159 -45.760494 C -14.320159 -45.975494 -15.047862 -46.617115 -15.641862 -47.297115 C -16.910862 -48.839115 -17.480514 -51.033525 -16.885514 -52.967525 C -16.819514 -53.179525 -16.747972 -53.392732 -16.678972 -53.604732 C -18.960972 -53.830732 -21.067616 -54.870685 -22.964616 -56.106685 C -22.817616 -53.437685 -21.58719 -50.928837 -19.87819 -48.912837 C -19.16819 -48.112837 -18.377382 -47.371603 -17.474382 -46.797603 C -17.166382 -47.140603 -16.893643 -47.512572 -16.567643 -47.840572 C -16.280643 -47.265572 -16.480995 -46.628025 -16.552995 -46.030025 C -15.019995 -45.055025 -13.409561 -44.197646 -11.758561 -43.441646 C -10.385561 -42.787646 -9.018901 -42.116865 -7.681901 -41.390865 C -7.064901 -41.067865 -6.4953228 -40.613634 -5.7893228 -40.504634 C -5.4803228 -39.722634 -5.2597173 -38.908431 -5.0437173 -38.096431 C -7.6767173 -37.556431 -10.375948 -37.409654 -13.054948 -37.274654 C -15.303948 -37.087654 -17.564132 -37.15672 -19.818132 -37.16772 C -21.011132 -37.26972 -22.337433 -37.268767 -23.326433 -38.040767 C -24.689433 -39.296767 -24.886882 -41.838009 -23.286882 -42.989009 C -23.013882 -43.194009 -22.726878 -43.378509 -22.432878 -43.551509 C -21.230878 -44.246509 -19.904897 -44.753166 -18.827897 -45.649166 C -20.041897 -46.869166 -21.081561 -48.260955 -21.883561 -49.782955 C -22.359561 -50.691955 -22.759507 -51.640752 -23.052507 -52.624752 C -23.419507 -53.878752 -23.652421 -55.167502 -23.764421 -56.468502 C -23.755421 -56.828502 -24.09464 -56.999599 -24.33864 -57.193599 C -26.26364 -58.635599 -27.874472 -60.490557 -29.991472 -61.674557 C -30.853472 -62.088557 -31.930042 -62.289814 -32.801042 -61.788814 C -33.722042 -61.277814 -33.927913 -60.110236 -33.868913 -59.146236 C -33.730913 -57.354236 -32.849249 -55.732896 -31.938249 -54.222896 C -31.344249 -54.242896 -30.822433 -53.925685 -30.451433 -53.481685 C -30.014433 -52.896685 -29.683394 -52.24067 -29.411394 -51.56567 C -29.223394 -51.01867 -28.980327 -50.444662 -29.143327 -49.857662 C -29.558327 -50.246662 -29.75132 -50.792052 -30.06032 -51.258052 C -30.73532 -52.050052 -32.016323 -51.212298 -32.039323 -50.310298 C -32.135323 -48.634298 -31.097038 -47.197802 -30.447038 -45.726802 C -29.942038 -44.491802 -29.115722 -43.300744 -29.147722 -41.916744 C -29.472722 -42.455744 -29.73753 -43.028482 -30.05153 -43.573482 C -31.26053 -45.785482 -32.655116 -47.957021 -33.277116 -50.426021 C -33.613116 -51.690021 -33.361421 -53.12165 -32.389421 -54.04565 C -33.365421 -55.64265 -34.289316 -57.358564 -34.456316 -59.257564 C -34.597316 -60.810564 -34.073804 -62.502611 -32.831804 -63.505611 C -32.120804 -64.076611 -31.161468 -64.342607 -30.262468 -64.151607 C -29.145468 -63.872607 -28.245218 -63.118486 -27.356218 -62.427486 C -26.171218 -61.494486 -25.113976 -60.410658 -23.907976 -59.503658 C -23.695976 -60.863658 -23.377519 -62.249256 -22.614519 -63.416256 C -22.233519 -64.032256 -21.735327 -64.561545 -21.268327 -65.112545 C -22.388327 -66.216545 -23.28019 -67.530604 -24.00319 -68.922604 C -24.87819 -70.663604 -25.321054 -72.70224 -24.863054 -74.62524 C -24.625054 -75.69224 -23.956956 -76.664338 -23.012956 -77.225338 C -22.835956 -77.323338 -22.652569 -77.412405 -22.466569 -77.493405 C -21.706569 -77.756405 -20.856046 -77.70551 -20.155046 -77.30151 C -18.816046 -76.54151 -17.787112 -75.372737 -16.673112 -74.333737 C -15.081112 -72.746737 -13.193323 -71.430615 -11.039323 -70.734615 C -9.6923229 -70.251615 -8.3332955 -69.791385 -6.9362955 -69.473385 C -5.5712955 -69.073385 -4.1236079 -68.860658 -2.8816079 -68.128658 C -1.3266079 -67.176658 -0.90720939 -65.240572 -0.52320939 -63.590572 C 1.4927906 -63.285572 3.4267829 -62.613588 5.2687829 -61.756588 C 5.4077829 -64.168588 5.3755251 -66.590846 5.1545251 -68.995846 C 5.1805251 -69.116846 5.2094158 -69.238127 5.2424158 -69.359127 C 5.8714158 -68.719127 6.0597088 -67.801037 6.2927088 -66.967037 C 6.8167088 -65.001037 6.8512361 -62.952881 6.8332361 -60.931881 C 7.1972361 -60.680881 7.5846736 -60.466631 7.9816736 -60.275631 C 8.2956736 -61.988631 9.0945643 -63.608268 10.319564 -64.853268 C 8.5555643 -66.891268 6.9928181 -69.259873 6.5798181 -71.973873 C 6.3018181 -73.699873 6.8865721 -75.582276 8.2775721 -76.686276 C 9.3005721 -77.517276 10.811514 -77.790741 11.967514 -77.062741 C 13.395514 -76.221741 14.402666 -74.860674 15.648666 -73.794674 C 16.578666 -72.891674 17.658502 -72.156447 18.780502 -71.512447 C 21.378502 -70.102447 24.36383 -69.756361 27.14183 -68.849361 C 28.12383 -68.544361 29.13067 -68.041549 29.62767 -67.091549 C 30.66267 -65.199549 30.989541 -63.012541 31.070541 -60.883541 C 31.324541 -53.453541 30.259659 -46.060747 30.065659 -38.645747 C 31.795659 -42.364747 33.352717 -46.199619 34.250717 -50.213619 C 35.137717 -54.469619 35.570448 -58.927318 34.574448 -63.205318 C 34.070448 -65.550318 33.230963 -67.813108 32.177963 -69.964108 C 32.071963 -70.156108 32.037916 -70.371596 32.054916 -70.589596 C 32.456916 -70.342596 32.736416 -69.9556 32.992416 -69.5686 C 34.824416 -66.6626 35.93546 -63.317674 36.38646 -59.919674 C 37.11846 -53.699674 35.655092 -47.42765 33.360092 -41.67065 C 31.998092 -38.43465 30.542424 -35.235626 29.075424 -32.046626 z M -8.3733072 -32.327876 C -10.587307 -33.106876 -12.78144 -33.958411 -14.90944 -34.951411 C -15.32644 -35.092411 -15.3868 -35.568716 -15.4778 -35.938716 C -13.3928 -34.918716 -11.235671 -34.043954 -9.0456705 -33.282954 C -9.4526705 -33.976954 -10.052128 -34.679349 -9.9641276 -35.537349 C -9.9521276 -35.846349 -9.6056666 -36.132322 -9.3166666 -35.934322 C -8.9706666 -35.647322 -8.7792526 -35.184079 -8.7922526 -34.736079 C -8.9402526 -34.900079 -9.0664518 -35.082915 -9.2214518 -35.242915 C -9.5064518 -35.318915 -9.5890416 -34.937361 -9.5510416 -34.724361 C -9.3980416 -33.817361 -8.5333072 -33.237876 -8.3733072 -32.327876 z M 16.004623 -32.48315 C 15.549623 -33.20915 15.084572 -33.930626 14.652572 -34.671626 C 15.365572 -35.282626 16.152447 -35.846505 16.949447 -36.322505 C 17.473447 -35.646505 17.908979 -34.900325 18.343979 -34.163325 C 17.586979 -33.574325 16.804623 -33.01215 16.004623 -32.48315 z M 13.132064 -33.13354 C 11.551064 -33.75154 9.9830174 -34.418888 8.5090174 -35.264888 C 8.1090174 -35.445888 8.0567439 -35.917138 7.9787439 -36.296138 C 9.4627439 -35.428138 11.01651 -34.679603 12.61351 -34.047603 C 12.99851 -33.923603 13.005064 -33.45154 13.132064 -33.13354 z M -26.404069 -37.832759 C -26.519518 -37.829909 -26.635409 -37.870669 -26.745378 -37.971919 C -27.453378 -38.749919 -27.368101 -39.886408 -27.611101 -40.847408 C -27.925101 -40.206408 -28.154183 -39.503056 -28.670183 -38.987056 C -28.952183 -38.698056 -29.33321 -38.324247 -29.77321 -38.458247 C -29.89021 -38.617247 -29.969995 -38.800267 -30.052995 -38.978267 C -30.031995 -39.127267 -30.013402 -39.275974 -29.994402 -39.427974 C -29.773402 -39.590974 -29.549898 -39.752767 -29.327898 -39.915767 C -29.250898 -39.972767 -29.174452 -40.031083 -29.096452 -40.090083 C -29.016452 -40.016083 -28.934288 -39.945286 -28.853288 -39.873286 C -28.301288 -40.498286 -28.081276 -41.309017 -27.791276 -42.072017 C -27.087276 -41.112017 -27.512015 -39.738259 -26.823015 -38.770259 C -26.480015 -38.395259 -26.101288 -38.919048 -25.853288 -39.154048 C -25.796288 -38.895048 -25.735648 -38.637611 -25.671648 -38.380611 C -25.821148 -38.126892 -26.109033 -37.840043 -26.404069 -37.832759 z M 11.843002 -39.65649 C 14.896002 -39.62049 17.951951 -39.795872 20.990951 -40.098872 C 21.357951 -40.157872 21.754908 -40.129556 22.096908 -40.299556 C 19.376908 -41.507556 16.630768 -42.740236 14.227768 -44.521236 C 12.626768 -42.684236 10.323869 -41.742267 8.306869 -40.478267 C 9.260869 -39.613267 10.652002 -39.76649 11.843002 -39.65649 z M -17.007097 -39.685786 C -14.480112 -39.696099 -11.952788 -39.794419 -9.4470377 -40.128169 C -12.191038 -41.432169 -14.99062 -42.694447 -17.44362 -44.512447 C -18.98062 -42.769447 -21.178538 -41.884826 -23.134538 -40.725826 C -23.318538 -40.681826 -23.278284 -40.465744 -23.124284 -40.416744 C -22.031284 -39.818744 -20.754487 -39.72297 -19.532487 -39.69897 C -18.690987 -39.68822 -17.849425 -39.682349 -17.007097 -39.685786 z M 2.1984704 -41.031978 C 1.7854704 -41.765978 1.4279664 -42.539642 1.1569664 -43.337642 C 0.98696644 -43.830642 1.0835368 -44.653919 1.7165368 -44.721919 C 2.2445368 -44.617919 2.4086501 -43.981818 2.4826501 -43.517818 C 2.1866501 -43.527818 2.1938258 -43.963751 1.9128258 -43.999751 C 1.6518258 -43.946751 1.5021344 -43.661814 1.5041344 -43.413814 C 1.5461344 -42.568814 2.2164704 -41.886978 2.1984704 -41.031978 z M 27.317612 -43.605708 C 25.171612 -44.340708 23.059178 -45.200341 21.023178 -46.204341 C 20.553178 -46.362341 20.448858 -46.86765 20.369858 -47.29565 C 22.473858 -46.10565 24.758135 -45.279978 27.004135 -44.406978 C 27.175135 -44.171978 27.234612 -43.878708 27.317612 -43.605708 z M -3.9787759 -43.756587 C -5.9537759 -44.459587 -7.8911354 -45.279072 -9.7971354 -46.153072 C -10.264135 -46.307072 -10.383288 -46.824775 -10.478288 -47.248775 C -8.4502878 -46.232775 -6.3445181 -45.385673 -4.2395181 -44.544673 C -4.1345181 -44.288673 -4.0437759 -44.024587 -3.9787759 -43.756587 z M 7.1657556 -44.157955 C 7.1477556 -44.448955 6.8951814 -44.875904 7.2521814 -45.055904 C 8.3071814 -45.838904 9.1148846 -47.048142 9.0978846 -48.400142 C 9.3408846 -48.188142 9.2987518 -47.835603 9.3117518 -47.547603 C 9.3167518 -46.120603 8.3277556 -44.882955 7.1657556 -44.157955 z M -24.263933 -45.404537 C -24.372011 -45.406583 -24.482343 -45.446337 -24.590593 -45.537837 C -25.350593 -46.285837 -25.18678 -47.457396 -25.45778 -48.410396 C -25.79078 -47.367396 -26.35578 -45.78681 -27.70778 -45.93481 C -27.74178 -46.25481 -27.757585 -46.577142 -27.757585 -46.900142 C -27.462585 -47.091142 -27.172398 -47.291658 -26.890398 -47.503658 C -26.792398 -47.454658 -26.694964 -47.406103 -26.595964 -47.360103 C -26.134964 -48.015103 -25.759069 -48.772087 -25.654069 -49.569087 C -25.963069 -49.923087 -26.290362 -50.289908 -26.329362 -50.784908 C -26.136362 -50.595908 -25.966776 -50.372521 -25.728776 -50.238521 C -25.450776 -50.282521 -25.27771 -50.527736 -25.08571 -50.708736 C -25.56471 -50.855736 -26.154101 -50.870068 -26.486101 -51.299068 C -26.901101 -51.844068 -27.066804 -52.593775 -26.831804 -53.248775 C -26.292804 -54.651775 -25.949034 -56.120334 -25.843034 -57.621334 C -25.547034 -55.948334 -26.054597 -54.273529 -26.569597 -52.696529 C -26.630597 -52.424529 -26.818554 -52.054201 -26.550554 -51.835201 C -25.977554 -51.387201 -25.209815 -51.407072 -24.518815 -51.403072 C -23.891815 -50.603072 -24.821964 -49.871705 -25.470964 -49.501705 C -25.034964 -48.429705 -25.304647 -47.129623 -24.546647 -46.192623 C -24.158647 -46.155623 -23.908812 -46.466107 -23.664812 -46.714107 C -23.637812 -46.610107 -23.61178 -46.50656 -23.58278 -46.40356 C -23.54778 -46.26856 -23.508058 -46.135658 -23.467058 -46.003658 C -23.635058 -45.728408 -23.939698 -45.398396 -24.263933 -45.404537 z M 1.2199547 -47.267818 C 0.72695472 -47.963818 0.41050156 -48.826173 0.030501563 -49.607173 C 0.85150156 -50.131173 1.6797516 -50.665341 2.5617516 -51.079341 C 2.9297516 -50.303341 3.3592868 -49.554494 3.6852868 -48.760494 C 2.8802868 -48.237494 2.0619547 -47.729818 1.2199547 -47.267818 z M -13.825456 -48.347408 C -13.545005 -48.326435 -13.444678 -48.71199 -13.331803 -48.93774 C -12.974803 -49.83374 -12.243096 -50.549478 -11.382096 -50.969478 C -10.185096 -51.454478 -8.8745885 -51.455728 -7.6115885 -51.625728 C -8.6055885 -54.586728 -9.1632174 -58.094697 -7.4812174 -60.918697 C -8.1032174 -61.484697 -8.7834479 -61.985346 -9.4924479 -62.433346 C -11.674448 -63.835346 -14.308768 -64.50033 -16.895768 -64.26733 L -16.816667 -64.230709 C -19.754667 -63.906709 -22.330104 -61.540357 -22.840104 -58.620357 C -20.574104 -56.969357 -17.694593 -55.622482 -14.840593 -56.323482 C -13.654593 -56.551482 -12.645272 -57.246803 -11.562272 -57.726803 C -11.331272 -56.847803 -11.341475 -55.924236 -11.345475 -55.021236 C -11.821475 -54.554236 -12.488186 -54.384564 -13.024186 -54.007564 C -14.392186 -53.437564 -15.797225 -52.472775 -16.314225 -50.998775 C -16.444225 -50.657775 -16.169284 -50.357107 -15.999284 -50.089107 C -15.475284 -49.371107 -14.805292 -48.691564 -13.957292 -48.382564 C -13.909292 -48.361314 -13.86552 -48.350404 -13.825456 -48.347408 z M 16.858627 -49.977779 C 16.903627 -51.700779 17.751041 -53.401744 19.258041 -54.291744 C 19.457041 -54.389744 19.809264 -54.695056 19.936264 -54.362056 C 20.385264 -53.448056 20.596315 -52.415677 20.538315 -51.398677 C 21.925315 -51.496677 23.329612 -51.505763 24.692612 -51.811763 C 26.019612 -52.116763 27.189662 -53.129595 27.544662 -54.464595 C 27.858662 -55.510595 27.389666 -56.573174 26.898666 -57.482174 C 25.358666 -60.262174 22.840104 -62.5636 19.797104 -63.5686 C 18.502104 -64.0056 17.141318 -64.321709 15.767318 -64.230709 C 12.868318 -64.161709 10.050842 -62.226291 9.0788416 -59.477291 C 9.7678416 -58.914291 10.614814 -58.441713 10.975814 -57.584713 C 11.601814 -56.220713 11.846803 -54.695435 11.788803 -53.200435 C 13.134803 -53.402435 14.598631 -52.941103 15.462631 -51.860103 C 15.984631 -51.273103 16.237627 -50.477779 16.858627 -49.977779 z M -7.1355142 -51.725338 C -5.2115142 -51.769338 -3.5414048 -53.62165 -3.8484048 -55.54565 C -4.2364048 -57.03365 -5.0823072 -58.386658 -6.1233072 -59.503658 C -6.8373072 -58.850658 -7.3564049 -57.982115 -7.5984049 -57.047115 C -8.0204049 -55.275115 -7.6865142 -53.430338 -7.1355142 -51.725338 z M 9.9548182 -51.84106 C 10.462818 -53.01206 10.77715 -54.269396 10.92015 -55.535396 C 11.00115 -55.851396 10.671303 -56.014576 10.476303 -56.194576 C 9.8823026 -56.633576 9.3066697 -57.12151 8.6276697 -57.42651 C 8.5296697 -55.49851 8.9808182 -53.51106 9.9548182 -51.84106 z M 2.614486 -53.439205 C 2.208486 -54.432205 1.6383766 -55.404334 1.5773766 -56.496334 C 1.5263766 -56.942334 1.9164508 -57.601002 2.4284508 -57.406002 C 2.8104508 -57.052002 2.9966266 -56.502033 2.9836266 -55.988033 C 2.7266266 -56.070033 2.7281462 -56.390506 2.5661462 -56.572506 C 2.2861462 -56.669506 2.0823102 -56.382982 2.0593102 -56.135982 C 1.8853102 -55.180982 2.736486 -54.374205 2.614486 -53.439205 z M 24.828842 -54.492427 C 23.999842 -54.969427 24.172162 -56.111209 23.982162 -56.918209 C 23.623162 -56.135209 23.283076 -55.205017 22.444076 -54.822017 C 21.933076 -54.585017 21.794252 -55.329416 21.874252 -55.680416 C 22.144252 -55.883416 22.442889 -56.051213 22.701889 -56.272213 C 22.780889 -56.228213 22.861123 -56.185306 22.942123 -56.143306 C 23.458123 -56.761306 23.507244 -57.626724 23.916244 -58.271724 C 24.429244 -57.400724 24.072338 -56.304068 24.537338 -55.424068 C 24.787338 -55.108068 25.128369 -55.496541 25.369369 -55.633541 C 25.609369 -55.131541 25.418842 -54.567427 24.828842 -54.492427 z M 14.794662 -54.592037 C 14.213662 -54.722037 14.114748 -55.435369 14.082748 -55.932369 C 14.241748 -55.778369 14.381963 -55.604619 14.552963 -55.463619 C 14.821963 -55.395619 15.037467 -55.627279 15.219467 -55.790279 C 14.135467 -55.978279 13.488627 -57.191736 13.858627 -58.208736 C 14.390627 -59.787736 15.038439 -61.341959 15.241439 -63.011959 C 15.584439 -61.092959 14.713467 -59.252638 14.094467 -57.483638 C 13.930467 -57.109638 14.392756 -56.890865 14.665756 -56.765865 C 15.086756 -56.540865 15.579666 -56.589361 16.023666 -56.474361 C 16.145666 -56.212361 16.241533 -55.92747 16.237533 -55.63647 C 15.892533 -55.15047 15.393662 -54.711037 14.794662 -54.592037 z M 33.528549 -54.797115 C 33.078549 -55.905115 32.406905 -57.020076 32.492905 -58.257076 C 32.510905 -58.682076 32.896995 -59.307205 33.384995 -59.064205 C 33.831995 -58.727205 34.069014 -58.085232 33.905014 -57.542232 C 33.736014 -57.791232 33.699741 -58.204627 33.374741 -58.296627 C 32.826741 -58.146627 32.792428 -57.472283 32.929428 -57.019283 C 33.057428 -56.260283 33.621549 -55.587115 33.528549 -54.797115 z M -29.16823 -54.999263 C -29.53423 -55.593263 -29.864464 -56.212431 -30.158464 -56.846431 C -30.282464 -57.188431 -30.32405 -57.551908 -30.38405 -57.909908 C -30.29005 -58.252908 -30.063007 -58.75392 -29.615007 -58.59692 C -29.173007 -58.30892 -29.003632 -57.749869 -29.005632 -57.244869 C -29.171632 -57.429869 -29.299788 -57.645498 -29.415788 -57.864498 C -29.847788 -57.930498 -30.032175 -57.459385 -29.962175 -57.098385 C -29.844175 -56.346385 -29.30023 -55.749263 -29.16823 -54.999263 z M 20.34349 -57.249263 C 19.86349 -58.156263 20.505553 -59.060939 20.882553 -59.866939 C 20.490553 -60.249939 19.873467 -59.87974 19.719467 -59.43774 C 19.362467 -58.79174 19.524397 -57.885521 18.972397 -57.363521 C 18.457397 -58.260521 19.390369 -59.177596 18.994369 -60.089596 C 18.830369 -60.531596 18.165471 -60.522541 17.948471 -60.133541 C 17.541471 -59.435541 18.012611 -58.550103 17.567611 -57.860103 C 17.474611 -58.171103 17.222463 -58.498295 17.365463 -58.831295 C 17.608463 -59.458295 17.26933 -60.168467 17.57933 -60.782467 C 17.75133 -61.153467 18.211326 -61.387201 18.600326 -61.210201 C 19.050326 -60.984201 19.197803 -60.45331 19.288803 -59.99731 C 19.573803 -60.40631 19.913115 -60.93233 20.484115 -60.89233 C 21.208115 -60.82433 21.356002 -59.879439 21.218002 -59.304439 C 20.950002 -58.611439 20.67349 -57.912263 20.34349 -57.249263 z M -17.63112 -57.819088 C -17.99912 -58.408088 -18.316565 -59.030931 -18.612565 -59.658931 C -18.843565 -60.156931 -18.972768 -60.947611 -18.395768 -61.255611 C -17.817768 -61.310611 -17.554905 -60.573849 -17.535905 -60.099849 C -17.712905 -60.249849 -17.82139 -60.523924 -18.05739 -60.575924 C -18.40239 -60.466924 -18.462472 -60.037568 -18.366472 -59.736568 C -18.149472 -59.087568 -17.66012 -58.526088 -17.63112 -57.819088 z M -11.966569 -58.511959 C -12.464569 -59.425959 -11.756565 -60.286424 -11.487565 -61.138424 C -11.906565 -61.247424 -12.477257 -61.194873 -12.646257 -60.723873 C -12.878257 -60.011873 -12.852405 -59.223974 -13.223405 -58.552974 C -13.850405 -59.384974 -12.879987 -60.329299 -13.344987 -61.185299 C -13.569987 -61.658299 -14.327776 -61.562365 -14.478776 -61.078365 C -14.695776 -60.407365 -14.321132 -59.696724 -14.568132 -59.021724 C -15.127132 -59.713724 -14.706608 -60.6901 -14.881608 -61.5061 C -14.811608 -62.0951 -14.224069 -62.530775 -13.654069 -62.248775 C -13.315069 -61.959775 -13.166089 -61.533381 -13.049089 -61.119381 C -12.821089 -61.709381 -12.045522 -62.378998 -11.468522 -61.801998 C -10.669522 -60.737998 -11.608569 -59.548959 -11.966569 -58.511959 z M 27.66185 -61.649654 C 27.36185 -61.880654 27.23894 -62.254041 27.05394 -62.571041 C 26.78494 -63.110041 26.409104 -63.683205 26.547104 -64.314205 C 26.595104 -64.579205 26.892155 -64.799471 27.149155 -64.636471 C 27.496155 -64.356471 27.723823 -63.904877 27.683823 -63.452877 C 27.536823 -63.621877 27.453412 -63.859686 27.263412 -63.981686 C 26.956412 -63.967686 26.915655 -63.600986 26.961655 -63.364986 C 27.074655 -62.748986 27.55785 -62.271654 27.66185 -61.649654 z M -6.3474283 -62.235592 C -5.1104283 -63.375592 -3.3585219 -63.753689 -1.7185219 -63.710689 C -1.6705219 -64.199689 -1.6765805 -64.703322 -1.7785805 -65.184322 C -2.6305805 -65.955322 -3.8064009 -66.186979 -4.8694009 -66.531979 C -7.2724009 -67.152979 -9.6931901 -67.731607 -12.00319 -68.651607 C -14.26019 -69.638607 -16.150694 -71.295545 -17.919694 -72.987545 L -17.956315 -72.969967 C -18.749315 -73.746967 -19.621175 -74.456565 -20.587175 -75.007565 C -21.157175 -75.302565 -21.846612 -75.578662 -22.485612 -75.357662 C -22.823612 -75.389662 -23.125577 -75.205807 -23.424577 -75.080807 L -23.420183 -75.045651 C -24.448183 -74.441651 -24.598151 -73.096748 -24.463151 -72.020748 C -24.097151 -69.470748 -22.56644 -67.250893 -20.90944 -65.368893 C -19.53544 -66.414893 -17.816175 -67.009842 -16.087175 -67.016842 C -12.349175 -66.920842 -8.8384283 -64.951592 -6.3474283 -62.235592 z M -23.579851 -64.949947 C -25.822851 -65.748947 -27.991648 -66.7386 -30.171648 -67.6936 C -30.840648 -67.8976 -31.457245 -68.316596 -31.459245 -69.089596 C -30.918245 -68.794596 -30.391015 -68.471873 -29.823015 -68.223873 C -27.950015 -67.372873 -26.058167 -66.553713 -24.129167 -65.834713 C -23.767167 -65.702713 -23.731851 -65.253947 -23.579851 -64.949947 z M 4.4792321 -65.644283 C 2.8252321 -66.176283 1.1979234 -66.815666 -0.36207657 -67.586666 C -0.77307657 -67.746666 -0.81106877 -68.230803 -0.90406877 -68.601803 C 0.62293123 -67.761803 2.2642946 -67.151303 3.8932946 -66.539303 C 4.2922946 -66.437303 4.3472321 -65.968283 4.4792321 -65.644283 z M 12.46849 -67.966061 C 11.89149 -68.818061 11.338314 -69.738842 11.163314 -70.766842 C 11.082314 -71.258842 11.305525 -72.006916 11.904525 -71.992916 C 12.407525 -71.776916 12.799381 -71.042932 12.556381 -70.533932 C 12.410381 -70.764932 12.31108 -71.049533 12.04808 -71.175533 C 11.81508 -71.006533 11.639853 -70.75576 11.640853 -70.45776 C 11.643853 -69.54876 12.39549 -68.857061 12.46849 -67.966061 z M -19.220475 -68.140377 C -19.715475 -68.851377 -20.150042 -69.617182 -20.426042 -70.440182 C -20.595042 -70.941182 -20.613651 -71.613549 -20.150651 -71.966549 C -19.858651 -72.112549 -19.58737 -71.904369 -19.41237 -71.682369 C -19.21237 -71.362369 -19.080288 -70.997498 -19.103288 -70.614498 C -19.260288 -70.832498 -19.40746 -71.057932 -19.55446 -71.283932 C -20.20946 -71.120932 -20.133374 -70.316596 -19.891374 -69.839596 C -19.674374 -69.270596 -19.325475 -68.750377 -19.220475 -68.140377 z M -27.29323 -68.828854 C -27.76423 -69.729854 -28.32939 -70.611522 -28.55739 -71.613522 C -28.55639 -71.946522 -28.535444 -72.28001 -28.513444 -72.61401 C -28.320444 -72.79101 -28.083347 -73.093697 -27.788347 -72.918697 C -27.297347 -72.601697 -27.062464 -71.953471 -27.158464 -71.386471 C -27.302464 -71.647471 -27.414452 -71.931627 -27.596452 -72.171627 C -27.964452 -72.271627 -28.177628 -71.869858 -28.151628 -71.557858 C -28.131628 -70.574858 -27.34223 -69.809854 -27.29323 -68.828854 z M 2.2907555 -69.578854 C 1.9017555 -70.326854 1.589236 -71.11394 1.208236 -71.86694 C 0.24223597 -71.44494 -0.6777016 -70.921619 -1.6277016 -70.463619 C -1.9347016 -71.311619 -2.3430766 -72.122151 -2.6120766 -72.983151 C -1.6860766 -73.454151 -0.75501406 -73.918147 0.17698594 -74.379147 C 0.59798594 -73.643147 0.83048987 -72.820553 1.2184899 -72.070553 C 2.0824899 -72.510553 2.9356423 -72.977084 3.7746423 -73.465084 C 4.3076423 -72.743084 4.5849548 -71.867276 4.9699548 -71.061276 C 4.4899548 -70.763276 3.9967165 -70.49092 3.5007165 -70.22192 C 3.0997165 -70.00192 2.6977555 -69.784854 2.2907555 -69.578854 z M 26.084213 -71.404049 C 25.976213 -71.646049 26.01403 -72.052541 25.69603 -72.133541 C 25.44503 -72.226541 25.327264 -71.927373 25.186264 -71.786373 C 25.102264 -72.165373 25.060397 -72.695115 24.597397 -72.797115 C 24.190397 -72.948115 23.854865 -72.613381 23.577865 -72.369381 C 23.506865 -72.809381 23.535694 -73.276244 23.876694 -73.604244 C 24.500694 -74.371244 24.892342 -75.28317 25.391342 -76.12817 C 25.614342 -75.27917 24.971104 -74.502334 24.672104 -73.746334 C 24.893104 -73.531334 25.089971 -73.29335 25.260971 -73.03735 C 25.565971 -72.96735 25.99151 -72.979334 26.11351 -72.621334 C 26.23851 -72.230334 26.225213 -71.790049 26.084213 -71.404049 z M 28.425034 -72.675533 C 28.356034 -72.940533 28.274479 -73.206127 28.281479 -73.484127 C 28.506479 -73.686127 28.849483 -73.703744 29.135483 -73.791744 C 29.204483 -73.522744 29.263983 -73.254151 29.322983 -72.983151 C 29.029983 -72.863151 28.727034 -72.767533 28.425034 -72.675533 z M -9.3855143 -72.698971 C -10.153737 -72.707256 -10.965077 -73.161787 -11.002702 -73.998287 C -11.027702 -74.895287 -10.080741 -75.274729 -9.4177409 -75.625729 C -9.2957409 -76.059729 -9.5866784 -76.607682 -9.2536784 -77.002682 C -8.9496784 -77.275682 -8.5679088 -76.963014 -8.2649088 -76.843014 C -8.2559088 -77.504014 -8.3067018 -78.398565 -7.6277018 -78.757565 C -7.0617018 -78.517565 -6.9293814 -77.665467 -6.2243814 -77.657467 C -6.1893814 -77.776467 -6.152983 -77.897284 -6.115983 -78.019284 C -6.970983 -78.842284 -8.1822096 -79.080502 -9.1482096 -79.718502 C -8.0512096 -79.381502 -6.8471744 -79.181819 -5.9621744 -78.392819 C -5.5311744 -78.685819 -4.9695142 -78.802893 -4.5105142 -78.493893 C -4.4655142 -78.471893 -4.3738735 -78.427002 -4.3288735 -78.406002 C -4.3228735 -79.109002 -3.5080102 -79.248608 -3.0940102 -78.776608 C -2.8620102 -79.497608 -1.8403774 -79.377619 -1.6203774 -78.713619 C -1.5113774 -78.350619 -1.4751743 -77.877819 -1.8371743 -77.642819 C -2.4141743 -77.251819 -3.2405259 -77.346729 -3.6975259 -76.750729 C -3.4275259 -76.456729 -3.1910376 -76.129846 -3.0720376 -75.745846 C -3.0970376 -75.241846 -3.543479 -75.005389 -3.949479 -74.827389 C -3.978479 -74.708389 -4.0083696 -74.590362 -4.0373696 -74.474362 C -4.2943696 -74.400362 -4.5490884 -74.317803 -4.7990884 -74.226803 C -4.8830884 -75.113803 -3.9057954 -75.351342 -3.3737954 -75.829342 C -3.8747954 -76.188342 -4.3965025 -76.520604 -4.9485025 -76.797604 C -4.7275025 -75.844604 -4.6796236 -74.790397 -5.1726236 -73.910397 C -5.3816236 -73.555397 -5.6203892 -73.126885 -6.0573892 -73.035885 C -6.4943892 -73.183885 -6.5809049 -73.714615 -6.6609049 -74.109615 C -6.4819049 -73.953615 -6.3090259 -73.790612 -6.1350259 -73.630612 C -5.0470259 -74.257612 -4.6455142 -75.84944 -5.2605142 -76.92944 C -5.7695142 -76.53144 -5.31194 -75.889776 -5.34694 -75.373776 C -5.31394 -74.862776 -5.5554205 -74.166545 -6.1394205 -74.112545 C -6.7034205 -74.334545 -6.8626353 -75.406026 -6.2346353 -75.655026 C -5.9896353 -75.605026 -5.8189361 -75.393983 -5.6179361 -75.260983 C -5.6029361 -75.334983 -5.5743423 -75.485811 -5.5593423 -75.559811 C -6.1243423 -76.198811 -6.9570494 -77.038428 -7.8840494 -76.617428 C -7.5530494 -76.146428 -6.7788267 -75.960237 -6.8308267 -75.271237 C -6.7678267 -74.613237 -7.4917291 -74.408522 -7.9807291 -74.238522 C -8.0187291 -74.110522 -8.0545924 -73.983662 -8.0905924 -73.857662 C -8.3125924 -73.817662 -8.5356315 -73.772826 -8.7556315 -73.725826 C -8.8836315 -74.722826 -7.655526 -74.792237 -7.072526 -75.271237 C -7.336526 -75.525237 -7.6295025 -75.746557 -7.9485025 -75.924557 C -7.9255025 -75.712557 -7.8964713 -75.501744 -7.8664713 -75.291744 C -8.6984713 -75.179744 -9.5664049 -74.988346 -10.223405 -74.433346 C -10.454405 -74.233346 -10.687659 -73.936498 -10.608659 -73.614498 C -10.354659 -73.130498 -9.7358893 -73.058463 -9.2448893 -73.053463 C -8.3628893 -73.046463 -7.5738111 -73.466717 -6.7898111 -73.813717 C -6.9778111 -73.621717 -7.2007369 -73.465967 -7.4387369 -73.344967 C -7.9517369 -73.071967 -8.4917838 -72.840408 -9.0617838 -72.722408 C -9.1674088 -72.705158 -9.2757682 -72.697787 -9.3855143 -72.698971 z M 21.007065 -73.030026 C 20.452065 -73.542026 20.255486 -74.335694 20.239486 -75.064694 C 20.243486 -75.581694 20.90144 -75.493561 21.24144 -75.653561 C 21.23244 -76.203561 20.870674 -76.787694 21.106674 -77.314694 C 21.801674 -77.777694 22.551772 -77.122018 22.956772 -76.572018 C 22.430772 -76.671018 21.79633 -76.834241 21.32933 -76.500241 C 21.25433 -75.959241 21.699459 -75.382334 21.386459 -74.871334 C 21.129459 -74.681334 20.783045 -74.686549 20.487045 -74.591549 C 20.616045 -74.045549 21.210065 -73.668026 21.007065 -73.030026 z M -13.40651 -74.053951 C -13.71551 -74.494951 -13.923159 -74.99592 -14.171159 -75.47192 C -14.306159 -75.74192 -14.429764 -76.015627 -14.541764 -76.296627 C -14.848764 -76.971627 -15.049241 -78.210694 -14.105241 -78.439694 C -13.444241 -78.322694 -13.242335 -77.484537 -13.226335 -76.904537 C -13.447335 -77.081537 -13.56003 -77.346787 -13.73903 -77.560787 C -14.07703 -77.688787 -14.278979 -77.235737 -14.261979 -76.958737 C -14.245979 -75.921737 -13.46051 -75.084951 -13.40651 -74.053951 z M 1.8893883 -74.264889 C 1.8503883 -74.534889 1.8121305 -74.805412 1.7751305 -75.076412 C 2.5651305 -75.740412 3.2993806 -76.546971 3.5563806 -77.573971 C 3.7273806 -78.171971 3.5680993 -78.792166 3.5680993 -79.399166 C 3.6400993 -79.309166 3.7100368 -79.217705 3.7790368 -79.126705 C 4.1710368 -77.916705 3.9972829 -76.516147 3.2062829 -75.504147 C 2.8232829 -75.038147 2.4213883 -74.566889 1.8893883 -74.264889 z M -5.9826822 -74.789303 C -5.9896822 -74.854303 -6.0020494 -74.98358 -6.0090494 -75.04858 C -6.1480494 -75.02058 -6.2730494 -74.955334 -6.3840494 -74.871334 C -6.2540494 -74.828334 -6.1196822 -74.804303 -5.9826822 -74.789303 z M 16.857162 -74.789303 C 16.798162 -75.187303 16.684799 -75.63294 16.934799 -75.99194 C 17.403799 -76.80294 17.654096 -77.727233 18.089096 -78.542233 C 18.262096 -77.190233 17.462162 -75.941303 16.857162 -74.789303 z M -2.4714516 -75.296139 C -2.7531384 -75.312411 -2.9741821 -75.53667 -3.0529946 -75.823483 C -3.0439946 -75.871483 -3.0273735 -75.968842 -3.0163735 -76.016842 C -2.8363735 -75.964842 -2.6539868 -75.914823 -2.4699868 -75.871823 C -2.5989868 -76.198823 -2.7883149 -76.495463 -2.9563149 -76.803463 C -2.7033149 -76.603463 -2.4920805 -76.353576 -2.3410805 -76.069576 C -2.2790805 -75.823576 -2.2648383 -75.571576 -2.2678383 -75.319576 C -2.3383383 -75.299326 -2.406447 -75.292384 -2.4714516 -75.296139 z M -9.1775065 -75.694576 C -8.8235065 -75.739576 -8.4677486 -75.790514 -8.1257486 -75.905514 C -8.2257486 -76.331514 -8.7721823 -76.569393 -9.1701823 -76.431393 C -9.2241823 -76.187393 -9.2245065 -75.937576 -9.1775065 -75.694576 z M -5.6794595 -76.330319 C -5.7214595 -76.698319 -5.7013853 -77.072557 -5.5783853 -77.424557 C -5.6433853 -77.508557 -5.7087447 -77.591975 -5.7717447 -77.677975 C -5.8667447 -77.454975 -5.9256431 -77.212401 -6.0676431 -77.014401 C -6.7076431 -77.031401 -6.9513971 -77.721764 -7.3903971 -78.061764 C -7.9423971 -78.267764 -8.0451275 -77.482686 -8.0891275 -77.106686 C -7.2271275 -77.813686 -6.3074595 -76.905319 -5.6794595 -76.330319 z M -4.0095376 -76.854733 C -4.0405376 -77.463733 -3.4916391 -77.799096 -2.9636391 -77.902096 C -2.5316391 -78.025096 -1.9174555 -78.06401 -1.8254555 -78.61401 C -2.2674555 -78.85601 -2.8144048 -78.560537 -2.7234048 -78.029537 C -3.0264048 -78.191537 -3.3229204 -78.61851 -3.7019204 -78.42651 C -4.0129204 -78.29251 -3.8499946 -77.906326 -3.8029946 -77.663326 C -4.3529946 -77.869326 -4.9529048 -78.32635 -5.5359048 -77.91235 C -5.3099048 -77.27635 -4.4465376 -77.327733 -4.0095376 -76.854733 z "
     transform="matrix(1.3333333,0,0,-1.3333333,45.97105,2.73601)" />
</svg>
