<?xml version="1.0" encoding="UTF-8" standalone="no"?>
<!-- Created with Inkscape (http://www.inkscape.org/) -->

<svg
   version="1.1"
   id="svg1"
   width="274.51648"
   height="73.250519"
   viewBox="0 0 274.51647 73.250519"
   sodipodi:docname="s5.svg"
   inkscape:version="1.4 (1:1.4+202410161351+e7c3feb100)"
   xmlns:inkscape="http://www.inkscape.org/namespaces/inkscape"
   xmlns:sodipodi="http://sodipodi.sourceforge.net/DTD/sodipodi-0.dtd"
   xmlns="http://www.w3.org/2000/svg"
   xmlns:svg="http://www.w3.org/2000/svg">
  <defs
     id="defs1">
    <clipPath
       clipPathUnits="userSpaceOnUse"
       id="clipPath688">
      <path
         d="M 0,595 H 842 V 0 H 0 Z"
         transform="translate(-644.13872,-174.32521)"
         id="path688" />
    </clipPath>
    <clipPath
       clipPathUnits="userSpaceOnUse"
       id="clipPath690">
      <path
         d="M 0,595 H 842 V 0 H 0 Z"
         transform="translate(-543.76561,-206.29591)"
         id="path690" />
    </clipPath>
    <clipPath
       clipPathUnits="userSpaceOnUse"
       id="clipPath692">
      <path
         d="M 0,595 H 842 V 0 H 0 Z"
         transform="translate(-534.66701,-205.7852)"
         id="path692" />
    </clipPath>
    <clipPath
       clipPathUnits="userSpaceOnUse"
       id="clipPath694">
      <path
         d="M 0,595 H 842 V 0 H 0 Z"
         transform="translate(-538.17971,-174.98731)"
         id="path694" />
    </clipPath>
    <clipPath
       clipPathUnits="userSpaceOnUse"
       id="clipPath696">
      <path
         d="M 0,595 H 842 V 0 H 0 Z"
         transform="translate(-517.86521,-184.5518)"
         id="path696" />
    </clipPath>
    <clipPath
       clipPathUnits="userSpaceOnUse"
       id="clipPath698">
      <path
         d="M 0,595 H 842 V 0 H 0 Z"
         transform="translate(-525.92482,-207.47461)"
         id="path698" />
    </clipPath>
    <clipPath
       clipPathUnits="userSpaceOnUse"
       id="clipPath700">
      <path
         d="M 0,595 H 842 V 0 H 0 Z"
         transform="translate(-518.15821,-205.33111)"
         id="path700" />
    </clipPath>
    <clipPath
       clipPathUnits="userSpaceOnUse"
       id="clipPath702">
      <path
         d="M 0,595 H 842 V 0 H 0 Z"
         transform="translate(-556.55761,-205.6025)"
         id="path702" />
    </clipPath>
    <clipPath
       clipPathUnits="userSpaceOnUse"
       id="clipPath704">
      <path
         d="M 0,595 H 842 V 0 H 0 Z"
         transform="translate(-575.60351,-205.07321)"
         id="path704" />
    </clipPath>
    <clipPath
       clipPathUnits="userSpaceOnUse"
       id="clipPath706">
      <path
         d="M 0,595 H 842 V 0 H 0 Z"
         transform="translate(-568.58791,-206.65531)"
         id="path706" />
    </clipPath>
    <clipPath
       clipPathUnits="userSpaceOnUse"
       id="clipPath708">
      <path
         d="M 0,595 H 842 V 0 H 0 Z"
         transform="translate(-584.09861,-205.7207)"
         id="path708" />
    </clipPath>
    <clipPath
       clipPathUnits="userSpaceOnUse"
       id="clipPath710">
      <path
         d="M 0,595 H 842 V 0 H 0 Z"
         transform="translate(-587.56741,-205.7666)"
         id="path710" />
    </clipPath>
    <clipPath
       clipPathUnits="userSpaceOnUse"
       id="clipPath712">
      <path
         d="M 0,595 H 842 V 0 H 0 Z"
         transform="translate(-603.36622,-205.70311)"
         id="path712" />
    </clipPath>
    <clipPath
       clipPathUnits="userSpaceOnUse"
       id="clipPath714">
      <path
         d="M 0,595 H 842 V 0 H 0 Z"
         transform="translate(-608.10062,-206.6777)"
         id="path714" />
    </clipPath>
    <clipPath
       clipPathUnits="userSpaceOnUse"
       id="clipPath716">
      <path
         d="M 0,595 H 842 V 0 H 0 Z"
         transform="translate(-624.61042,-209.498)"
         id="path716" />
    </clipPath>
    <clipPath
       clipPathUnits="userSpaceOnUse"
       id="clipPath718">
      <path
         d="M 0,595 H 842 V 0 H 0 Z"
         transform="translate(-672.60251,-208.30471)"
         id="path718" />
    </clipPath>
    <clipPath
       clipPathUnits="userSpaceOnUse"
       id="clipPath720">
      <path
         d="M 0,595 H 842 V 0 H 0 Z"
         transform="translate(-640.39361,-205.2266)"
         id="path720" />
    </clipPath>
    <clipPath
       clipPathUnits="userSpaceOnUse"
       id="clipPath722">
      <path
         d="M 0,595 H 842 V 0 H 0 Z"
         transform="translate(-691.48832,-208.8926)"
         id="path722" />
    </clipPath>
    <clipPath
       clipPathUnits="userSpaceOnUse"
       id="clipPath724">
      <path
         d="M 0,595 H 842 V 0 H 0 Z"
         transform="translate(-509.01172,-208.73831)"
         id="path724" />
    </clipPath>
    <clipPath
       clipPathUnits="userSpaceOnUse"
       id="clipPath726">
      <path
         d="M 0,595 H 842 V 0 H 0 Z"
         transform="translate(-705.05862,-205.86131)"
         id="path726" />
    </clipPath>
    <clipPath
       clipPathUnits="userSpaceOnUse"
       id="clipPath728">
      <path
         d="M 0,595 H 842 V 0 H 0 Z"
         transform="translate(-700.09962,-206.07031)"
         id="path728" />
    </clipPath>
    <clipPath
       clipPathUnits="userSpaceOnUse"
       id="clipPath730">
      <path
         d="M 0,595 H 842 V 0 H 0 Z"
         transform="translate(-687.82421,-202.70801)"
         id="path730" />
    </clipPath>
    <clipPath
       clipPathUnits="userSpaceOnUse"
       id="clipPath732">
      <path
         d="M 0,595 H 842 V 0 H 0 Z"
         transform="translate(-600.03221,-202.86431)"
         id="path732" />
    </clipPath>
    <clipPath
       clipPathUnits="userSpaceOnUse"
       id="clipPath734">
      <path
         d="M 0,595 H 842 V 0 H 0 Z"
         transform="translate(-591.74411,-200.00201)"
         id="path734" />
    </clipPath>
    <clipPath
       clipPathUnits="userSpaceOnUse"
       id="clipPath736">
      <path
         d="M 0,595 H 842 V 0 H 0 Z"
         transform="translate(-543.47752,-186.7939)"
         id="path736" />
    </clipPath>
    <clipPath
       clipPathUnits="userSpaceOnUse"
       id="clipPath738">
      <path
         d="M 0,595 H 842 V 0 H 0 Z"
         transform="translate(-609.83692,-203.80661)"
         id="path738" />
    </clipPath>
    <clipPath
       clipPathUnits="userSpaceOnUse"
       id="clipPath740">
      <path
         d="M 0,595 H 842 V 0 H 0 Z"
         transform="translate(-637.67582,-200.123)"
         id="path740" />
    </clipPath>
    <clipPath
       clipPathUnits="userSpaceOnUse"
       id="clipPath742">
      <path
         d="M 0,595 H 842 V 0 H 0 Z"
         transform="translate(-625.45612,-203.43361)"
         id="path742" />
    </clipPath>
    <clipPath
       clipPathUnits="userSpaceOnUse"
       id="clipPath744">
      <path
         d="M 0,595 H 842 V 0 H 0 Z"
         transform="translate(-677.54102,-199.1074)"
         id="path744" />
    </clipPath>
    <clipPath
       clipPathUnits="userSpaceOnUse"
       id="clipPath746">
      <path
         d="M 0,595 H 842 V 0 H 0 Z"
         transform="translate(-700.20312,-198.2842)"
         id="path746" />
    </clipPath>
    <clipPath
       clipPathUnits="userSpaceOnUse"
       id="clipPath748">
      <path
         d="M 0,595 H 842 V 0 H 0 Z"
         transform="translate(-556.39162,-201.91411)"
         id="path748" />
    </clipPath>
    <clipPath
       clipPathUnits="userSpaceOnUse"
       id="clipPath750">
      <path
         d="M 0,595 H 842 V 0 H 0 Z"
         transform="translate(-518.22172,-197.01661)"
         id="path750" />
    </clipPath>
    <clipPath
       clipPathUnits="userSpaceOnUse"
       id="clipPath752">
      <path
         d="M 0,595 H 842 V 0 H 0 Z"
         transform="translate(-651.75682,-198.3271)"
         id="path752" />
    </clipPath>
    <clipPath
       clipPathUnits="userSpaceOnUse"
       id="clipPath754">
      <path
         d="M 0,595 H 842 V 0 H 0 Z"
         transform="translate(-556.23631,-200.501)"
         id="path754" />
    </clipPath>
    <clipPath
       clipPathUnits="userSpaceOnUse"
       id="clipPath756">
      <path
         d="M 0,595 H 842 V 0 H 0 Z"
         transform="translate(-685.36232,-198.8945)"
         id="path756" />
    </clipPath>
    <clipPath
       clipPathUnits="userSpaceOnUse"
       id="clipPath758">
      <path
         d="M 0,595 H 842 V 0 H 0 Z"
         transform="translate(-611.28712,-197.7998)"
         id="path758" />
    </clipPath>
    <clipPath
       clipPathUnits="userSpaceOnUse"
       id="clipPath760">
      <path
         d="M 0,595 H 842 V 0 H 0 Z"
         transform="translate(-548.89841,-197.1562)"
         id="path760" />
    </clipPath>
    <clipPath
       clipPathUnits="userSpaceOnUse"
       id="clipPath762">
      <path
         d="M 0,595 H 842 V 0 H 0 Z"
         transform="translate(-591.12701,-194.82421)"
         id="path762" />
    </clipPath>
    <clipPath
       clipPathUnits="userSpaceOnUse"
       id="clipPath764">
      <path
         d="M 0,595 H 842 V 0 H 0 Z"
         transform="translate(-537.84772,-199.24021)"
         id="path764" />
    </clipPath>
    <clipPath
       clipPathUnits="userSpaceOnUse"
       id="clipPath766">
      <path
         d="M 0,595 H 842 V 0 H 0 Z"
         transform="translate(-643.77251,-198.9785)"
         id="path766" />
    </clipPath>
    <clipPath
       clipPathUnits="userSpaceOnUse"
       id="clipPath768">
      <path
         d="M 0,595 H 842 V 0 H 0 Z"
         transform="translate(-679.07711,-194.84371)"
         id="path768" />
    </clipPath>
    <clipPath
       clipPathUnits="userSpaceOnUse"
       id="clipPath770">
      <path
         d="M 0,595 H 842 V 0 H 0 Z"
         transform="translate(-701.33502,-191.79391)"
         id="path770" />
    </clipPath>
    <clipPath
       clipPathUnits="userSpaceOnUse"
       id="clipPath772">
      <path
         d="M 0,595 H 842 V 0 H 0 Z"
         transform="translate(-681.44921,-164.1836)"
         id="path772" />
    </clipPath>
    <clipPath
       clipPathUnits="userSpaceOnUse"
       id="clipPath774">
      <path
         d="M 0,595 H 842 V 0 H 0 Z"
         transform="translate(-643.08011,-192.8506)"
         id="path774" />
    </clipPath>
    <clipPath
       clipPathUnits="userSpaceOnUse"
       id="clipPath776">
      <path
         d="M 0,595 H 842 V 0 H 0 Z"
         transform="translate(-590.43262,-188.28421)"
         id="path776" />
    </clipPath>
    <clipPath
       clipPathUnits="userSpaceOnUse"
       id="clipPath778">
      <path
         d="M 0,595 H 842 V 0 H 0 Z"
         transform="translate(-512.04791,-183.71)"
         id="path778" />
    </clipPath>
    <clipPath
       clipPathUnits="userSpaceOnUse"
       id="clipPath780">
      <path
         d="M 0,595 H 842 V 0 H 0 Z"
         transform="translate(-699.78422,-185.4844)"
         id="path780" />
    </clipPath>
    <clipPath
       clipPathUnits="userSpaceOnUse"
       id="clipPath782">
      <path
         d="M 0,595 H 842 V 0 H 0 Z"
         transform="translate(-686.63872,-184.7383)"
         id="path782" />
    </clipPath>
    <clipPath
       clipPathUnits="userSpaceOnUse"
       id="clipPath784">
      <path
         d="M 0,595 H 842 V 0 H 0 Z"
         transform="translate(-589.50292,-181.50781)"
         id="path784" />
    </clipPath>
    <clipPath
       clipPathUnits="userSpaceOnUse"
       id="clipPath786">
      <path
         d="M 0,595 H 842 V 0 H 0 Z"
         transform="translate(-558.60551,-179.543)"
         id="path786" />
    </clipPath>
    <clipPath
       clipPathUnits="userSpaceOnUse"
       id="clipPath788">
      <path
         d="M 0,595 H 842 V 0 H 0 Z"
         transform="translate(-652.59371,-176.543)"
         id="path788" />
    </clipPath>
    <clipPath
       clipPathUnits="userSpaceOnUse"
       id="clipPath790">
      <path
         d="M 0,595 H 842 V 0 H 0 Z"
         transform="translate(-602.37302,-174.25981)"
         id="path790" />
    </clipPath>
    <clipPath
       clipPathUnits="userSpaceOnUse"
       id="clipPath792">
      <path
         d="M 0,595 H 842 V 0 H 0 Z"
         transform="translate(-630.50981,-162.86911)"
         id="path792" />
    </clipPath>
    <clipPath
       clipPathUnits="userSpaceOnUse"
       id="clipPath794">
      <path
         d="M 0,595 H 842 V 0 H 0 Z"
         transform="translate(-692.10251,-175.38961)"
         id="path794" />
    </clipPath>
    <clipPath
       clipPathUnits="userSpaceOnUse"
       id="clipPath796">
      <path
         d="M 0,595 H 842 V 0 H 0 Z"
         transform="translate(-689.67382,-176.7344)"
         id="path796" />
    </clipPath>
    <clipPath
       clipPathUnits="userSpaceOnUse"
       id="clipPath798">
      <path
         d="M 0,595 H 842 V 0 H 0 Z"
         transform="translate(-624.28222,-173.3896)"
         id="path798" />
    </clipPath>
    <clipPath
       clipPathUnits="userSpaceOnUse"
       id="clipPath800">
      <path
         d="M 0,595 H 842 V 0 H 0 Z"
         transform="translate(-550.28911,-172.1396)"
         id="path800" />
    </clipPath>
    <clipPath
       clipPathUnits="userSpaceOnUse"
       id="clipPath802">
      <path
         d="M 0,595 H 842 V 0 H 0 Z"
         transform="translate(-667.80662,-172.63381)"
         id="path802" />
    </clipPath>
    <clipPath
       clipPathUnits="userSpaceOnUse"
       id="clipPath804">
      <path
         d="M 0,595 H 842 V 0 H 0 Z"
         transform="translate(-625.95311,-166.04)"
         id="path804" />
    </clipPath>
    <clipPath
       clipPathUnits="userSpaceOnUse"
       id="clipPath806">
      <path
         d="M 0,595 H 842 V 0 H 0 Z"
         transform="translate(-583.26371,-162.0098)"
         id="path806" />
    </clipPath>
    <clipPath
       clipPathUnits="userSpaceOnUse"
       id="clipPath808">
      <path
         d="M 0,595 H 842 V 0 H 0 Z"
         transform="translate(-589.00291,-161.2012)"
         id="path808" />
    </clipPath>
    <clipPath
       clipPathUnits="userSpaceOnUse"
       id="clipPath810">
      <path
         d="M 0,595 H 842 V 0 H 0 Z"
         transform="translate(-673.91021,-159.30181)"
         id="path810" />
    </clipPath>
    <clipPath
       clipPathUnits="userSpaceOnUse"
       id="clipPath812">
      <path
         d="M 0,595 H 842 V 0 H 0 Z"
         transform="translate(-693.73732,-163.1377)"
         id="path812" />
    </clipPath>
    <clipPath
       clipPathUnits="userSpaceOnUse"
       id="clipPath814">
      <path
         d="M 0,595 H 842 V 0 H 0 Z"
         transform="translate(-704.60552,-162.751)"
         id="path814" />
    </clipPath>
    <clipPath
       clipPathUnits="userSpaceOnUse"
       id="clipPath816">
      <path
         d="M 0,595 H 842 V 0 H 0 Z"
         transform="translate(-605.79491,-161.5244)"
         id="path816" />
    </clipPath>
    <clipPath
       clipPathUnits="userSpaceOnUse"
       id="clipPath818">
      <path
         d="M 0,595 H 842 V 0 H 0 Z"
         transform="translate(-608.43262,-160.4434)"
         id="path818" />
    </clipPath>
    <clipPath
       clipPathUnits="userSpaceOnUse"
       id="clipPath820">
      <path
         d="M 0,595 H 842 V 0 H 0 Z"
         transform="translate(-644.63092,-159.9658)"
         id="path820" />
    </clipPath>
    <clipPath
       clipPathUnits="userSpaceOnUse"
       id="clipPath822">
      <path
         d="M 0,595 H 842 V 0 H 0 Z"
         transform="translate(-651.81542,-159.08011)"
         id="path822" />
    </clipPath>
    <clipPath
       clipPathUnits="userSpaceOnUse"
       id="clipPath824">
      <path
         d="M 0,595 H 842 V 0 H 0 Z"
         transform="translate(-543.61621,-159.6895)"
         id="path824" />
    </clipPath>
    <clipPath
       clipPathUnits="userSpaceOnUse"
       id="clipPath826">
      <path
         d="M 0,595 H 842 V 0 H 0 Z"
         transform="translate(-632.08202,-158.9512)"
         id="path826" />
    </clipPath>
    <clipPath
       clipPathUnits="userSpaceOnUse"
       id="clipPath828">
      <path
         d="M 0,595 H 842 V 0 H 0 Z"
         transform="translate(-662.73142,-157.9766)"
         id="path828" />
    </clipPath>
    <clipPath
       clipPathUnits="userSpaceOnUse"
       id="clipPath830">
      <path
         d="M 0,595 H 842 V 0 H 0 Z"
         transform="translate(-560.12212,-159.3262)"
         id="path830" />
    </clipPath>
    <clipPath
       clipPathUnits="userSpaceOnUse"
       id="clipPath832">
      <path
         d="M 0,595 H 842 V 0 H 0 Z"
         transform="translate(-553.84282,-160.58791)"
         id="path832" />
    </clipPath>
    <clipPath
       clipPathUnits="userSpaceOnUse"
       id="clipPath834">
      <path
         d="M 0,595 H 842 V 0 H 0 Z"
         transform="translate(-577.11431,-160.4453)"
         id="path834" />
    </clipPath>
    <clipPath
       clipPathUnits="userSpaceOnUse"
       id="clipPath836">
      <path
         d="M 0,595 H 842 V 0 H 0 Z"
         transform="translate(-568.23142,-157.9834)"
         id="path836" />
    </clipPath>
    <clipPath
       clipPathUnits="userSpaceOnUse"
       id="clipPath838">
      <path
         d="M 0,595 H 842 V 0 H 0 Z"
         transform="translate(-587.82421,-160.35061)"
         id="path838" />
    </clipPath>
    <clipPath
       clipPathUnits="userSpaceOnUse"
       id="clipPath840">
      <path
         d="M 0,595 H 842 V 0 H 0 Z"
         transform="translate(-588.95801,-157.7441)"
         id="path840" />
    </clipPath>
    <clipPath
       clipPathUnits="userSpaceOnUse"
       id="clipPath842">
      <path
         d="M 0,595 H 842 V 0 H 0 Z"
         transform="translate(-585.42481,-156.48931)"
         id="path842" />
    </clipPath>
  </defs>
  <sodipodi:namedview
     id="namedview1"
     pagecolor="#ffffff"
     bordercolor="#000000"
     borderopacity="0.25"
     inkscape:showpageshadow="2"
     inkscape:pageopacity="0.0"
     inkscape:pagecheckerboard="0"
     inkscape:deskcolor="#d1d1d1"
     inkscape:zoom="0.47310455"
     inkscape:cx="39.103407"
     inkscape:cy="112.02598"
     inkscape:window-width="1190"
     inkscape:window-height="788"
     inkscape:window-x="50"
     inkscape:window-y="61"
     inkscape:window-maximized="1"
     inkscape:current-layer="svg1">
    <inkscape:page
       x="0"
       y="0"
       width="274.51648"
       height="73.250519"
       id="page2"
       margin="0"
       bleed="0" />
  </sodipodi:namedview>
  <path
     id="path687"
     clip-path="url(#clipPath688)"
     style="fill:#231f20;fill-opacity:1;fill-rule:nonzero;stroke:none"
     d="M 55.14165 37.102006 C 53.97165 35.576006 52.843716 34.013607 51.659716 32.493607 C 51.298716 33.528607 50.989927 34.585033 50.525927 35.580033 C 50.122927 34.654033 49.56822 33.775971 49.32622 32.790971 C 49.42622 31.783971 50.103251 30.605967 49.408251 29.686967 C 45.450251 24.797967 41.313044 20.056681 37.146044 15.344681 L 36.814989 15.659623 C 32.491989 19.782623 27.85513 23.634674 24.05913 28.261674 C 23.93813 28.408674 23.817778 28.556521 23.698778 28.705521 C 23.819778 28.671521 23.93913 28.632264 24.05913 28.591264 C 24.62413 28.397264 25.18118 28.157021 25.78618 28.143021 C 25.27618 28.736021 24.67513 29.228615 24.05913 29.701615 C 23.56813 30.080615 23.066751 30.448123 22.595751 30.847123 C 23.213751 31.743123 23.71413 32.726697 24.05913 33.760697 C 24.15013 34.034697 24.230829 34.312729 24.300829 34.592729 C 24.217829 34.516729 24.13813 34.437424 24.05913 34.355424 C 23.21113 33.486424 22.592395 32.424389 21.756395 31.544389 C 21.162395 32.012389 20.564102 32.473342 19.956102 32.921342 C 19.978102 31.813342 19.957602 30.699471 20.143602 29.603471 C 19.635602 28.909471 19.007508 28.321611 18.397508 27.722611 C 18.260508 28.506611 18.17154 29.296799 18.10454 30.089799 C 18.53454 29.723799 18.818235 29.15615 19.367235 28.95015 C 18.912235 31.23515 18.134415 33.549541 17.026415 35.600541 C 16.578415 34.458541 15.705161 33.234447 16.266161 31.979447 C 16.503161 30.032447 16.626731 28.066213 16.825731 26.114213 C 15.326731 24.316213 13.60011 22.676599 11.91411 21.035599 C 11.60911 23.946599 11.133372 26.849392 11.007372 29.773392 C 11.512372 29.220392 11.966582 28.619752 12.498582 28.091752 C 12.101582 30.837752 10.890641 33.417232 9.933641 36.009232 C 9.472641 35.141232 8.9931605 34.256342 8.7661605 33.296342 C 8.8531605 32.537342 9.2476996 31.833666 9.2436996 31.053666 C 9.4286996 27.183666 9.9676254 23.33747 10.267625 19.47847 C 8.7596254 17.82947 7.0548948 16.361548 5.4438948 14.808548 C 4.8798948 19.220548 4.2710549 23.622158 3.7080549 28.033158 C 3.6270549 28.688158 3.6156448 29.352232 3.6626448 30.009232 C 4.1856448 29.431232 4.6406331 28.788998 5.2256331 28.268998 C 4.6486331 30.869998 3.5803362 33.34276 2.5713362 35.79976 C 2.1243362 34.90276 1.7740119 33.961021 1.4390119 33.018021 C 1.8870119 31.844021 1.773508 30.569264 1.897508 29.341264 C 2.273508 23.941264 3.1656721 18.580685 3.6406721 13.198685 C 2.7236721 12.146685 1.6194455 11.267154 0.60844548 10.304154 L 0.00053531251 10.919388 C -2.3134647 13.242388 -4.6873633 15.507576 -7.0453633 17.786576 C -7.6463633 18.272576 -7.5602891 19.104552 -7.6942891 19.787552 C -8.1062891 23.125552 -8.7721524 26.444084 -8.9291524 29.807084 C -8.3911524 29.233084 -7.9196133 28.598174 -7.3266133 28.074174 C -7.6906133 30.863174 -9.3155587 33.297678 -10.370559 35.865678 C -11.037559 34.637678 -11.58168 33.147553 -10.96968 31.787553 C -10.69668 28.012553 -10.147277 24.270904 -9.6322774 20.522904 C -10.646277 21.404904 -11.517309 22.441467 -12.339309 23.499467 C -11.605309 23.386467 -10.896438 23.125439 -10.146438 23.146439 C -11.843438 25.132439 -14.14475 26.457326 -16.21675 28.005326 C -16.08875 26.783326 -16.467114 25.265838 -15.389114 24.379838 C -13.799114 22.298838 -12.135684 20.268443 -10.323684 18.375443 C -9.7896837 17.765443 -9.0405079 17.212197 -9.0185079 16.323197 C -8.2475079 10.630197 -7.1763555 4.9656104 -6.8373555 -0.77738955 C -6.5953555 -3.4103896 -6.5886289 -6.0793351 -6.9926289 -8.6963351 C -7.0276289 -8.9803351 -6.929836 -9.2596202 -6.879836 -9.5386202 C -5.225836 -7.4046202 -5.1163281 -4.5766747 -4.9843281 -1.9946747 C -5.1803281 3.6473253 -6.1304297 9.2280835 -6.9384297 14.807083 C -4.9574297 12.732083 -2.8543983 10.779122 -0.8563983 8.7221224 C -2.6883983 6.6051224 -3.5330624 3.700548 -3.1620624 0.93354799 C -3.0270624 0.012547992 -2.1203397 -0.7566161 -1.1713397 -0.4346161 C -0.77333972 -0.3246161 -0.37946469 -0.1785575 0.00053531251 0.00044250001 C 1.1845353 0.5604425 2.2346994 1.4454973 2.8686994 2.5814973 C 3.7556994 4.7624973 3.0515549 7.3039115 1.6455549 9.1059115 C 2.3985549 9.8139115 3.1345979 10.541146 3.9145979 11.221146 C 4.3615979 6.9111459 5.0464104 2.5669112 4.5474104 -1.7690888 C 5.6704104 -0.77208879 5.8347777 0.83639959 6.0737777 2.2313996 C 6.2997777 5.3313996 6.2140081 8.4554115 5.8350081 11.543412 C 5.8090081 12.161412 5.5207659 12.941072 6.1367659 13.370072 C 7.6107659 14.729072 9.0274653 16.150255 10.503465 17.508255 C 11.143465 11.363255 11.766747 5.218337 12.366747 -0.93266299 C 12.538747 -2.763663 12.746516 -4.6072647 12.605516 -6.4492647 C 12.606516 -6.9252647 12.107442 -7.1447491 11.754442 -7.3457491 C 10.603442 -7.8917491 9.2509339 -8.3745186 7.9839339 -7.9595186 C 6.6479339 -7.2335186 5.7734847 -5.8454834 5.3984847 -4.3984834 C 5.2054847 -3.7964834 5.0750901 -2.8901865 4.2690901 -2.8691865 C 2.5470901 -2.8701865 1.1045353 -3.8994561 0.00053531251 -5.1704561 C -0.32146469 -5.5404561 -0.61490612 -5.9308233 -0.87690612 -6.3218233 C -2.0849061 -8.1458233 -2.4395429 -10.374538 -3.5795429 -12.229538 C -3.9555429 -12.808538 -4.5364101 -13.426566 -5.2934101 -13.332566 C -6.3324101 -13.255566 -7.062168 -12.34589 -7.470168 -11.46489 C -8.108168 -9.9268898 -8.1731954 -8.1902413 -7.8231954 -6.5752413 C -7.6861954 -5.9692413 -7.6106875 -5.3393975 -7.8026875 -4.7353975 C -8.8506875 -7.8873975 -9.0436641 -11.611906 -7.1786641 -14.505906 C -6.6916641 -15.241906 -5.8224218 -16.154148 -4.8554218 -15.704148 C -3.5094218 -15.131148 -3.0270116 -13.635558 -2.5600116 -12.374558 C -1.8730116 -10.701558 -1.2624647 -8.8519952 0.00053531251 -7.5229952 C 0.22253531 -7.2899952 0.46256267 -7.0725342 0.72856267 -6.8755342 C 1.5955627 -6.3305342 2.6477307 -5.6622725 3.7007307 -5.9072725 C 4.7187307 -6.7712725 4.5254534 -8.350671 5.3164534 -9.390671 C 6.7324534 -11.758671 10.38054 -11.494835 12.10454 -9.6338351 C 13.37954 -8.0688351 13.923993 -6.0094131 14.043993 -4.0264131 C 14.238993 3.6785869 12.778188 11.290338 12.119188 18.942338 C 13.642188 20.738338 15.419512 22.341052 17.001512 24.100052 C 17.595512 20.537052 17.937411 16.937353 18.422411 13.358353 C 18.437411 13.178353 18.460391 12.967841 18.277391 12.858841 C 17.479391 12.164841 16.53768 11.633919 15.84868 10.813919 C 16.77468 11.345919 17.627063 11.994365 18.541063 12.545365 C 19.303063 6.1563647 20.19745 -0.2965147 19.46245 -6.7305147 C 20.88645 -5.0365147 21.083548 -2.7024247 21.312548 -0.5884247 C 21.483548 4.1275753 20.713493 8.8103296 20.231493 13.48433 C 21.492493 14.76833 22.99413 15.863404 24.05913 17.335404 C 24.24513 17.593404 24.418755 17.860462 24.574755 18.145462 C 24.853755 17.937462 25.131575 17.730298 25.415575 17.527298 C 25.674575 18.095298 25.564325 18.649287 25.134325 19.090287 C 25.436325 20.034287 25.529641 21.27556 24.558641 21.87056 C 24.385641 21.81056 24.21813 21.733045 24.05913 21.642045 C 23.33513 21.223045 22.799563 20.493701 22.853563 19.614701 C 23.065563 19.077701 23.58613 18.788306 24.05913 18.485306 C 24.15113 18.427306 24.241196 18.367595 24.327196 18.306595 C 24.239196 18.196595 24.14913 18.089865 24.05913 17.982865 C 22.89413 16.617865 21.512305 15.457263 20.114305 14.341263 C 19.598305 18.152263 19.09518 21.970017 18.66118 25.789017 C 19.33818 26.893017 20.35688 27.751834 21.15288 28.775834 C 22.06888 27.517834 23.04313 26.308697 24.05913 25.135697 C 27.63013 21.013697 31.724708 17.353279 35.701708 13.632279 C 34.242708 11.383279 33.161817 8.7254427 33.363817 6.0004427 C 33.390817 5.1934427 33.845966 4.3017942 34.690966 4.1107942 C 35.445966 4.0157942 36.159989 4.3679856 36.814989 4.7069856 L 36.898485 4.7494661 C 38.285485 5.5364661 39.669732 6.6367669 40.075732 8.2577669 C 40.649732 10.417767 39.71111 12.681708 38.16411 14.197708 C 42.17411 18.767708 46.08131 23.428545 49.84331 28.204545 C 50.27131 19.771545 51.409603 11.382454 51.643603 2.9374543 C 51.767603 -0.0065457078 51.563056 -2.9564248 50.958056 -5.8384248 C 52.265056 -4.7064248 52.639443 -2.9273818 53.004443 -1.3193818 C 53.562443 2.0626182 53.286521 5.4962982 53.209521 8.9022982 C 52.775521 14.771298 52.114728 20.624283 51.596728 26.486283 C 51.513728 27.499283 51.376654 28.516693 51.495654 29.531693 C 51.987654 28.992693 52.410666 28.389955 52.932666 27.874955 C 52.891666 29.034955 52.461619 30.127615 52.059619 31.201615 C 53.417619 32.960615 54.69365 34.893006 55.14165 37.102006 z M -99.973588 36.226029 C -100.11059 36.221529 -100.24449 36.197682 -100.37349 36.157182 C -101.18049 35.902182 -101.80664 35.00001 -101.97164 34.20601 C -101.72264 33.45101 -100.94649 33.090006 -100.37349 32.602006 L -100.32808 32.562455 L -100.37349 32.517045 C -103.04849 29.921045 -106.38887 28.173572 -109.33687 25.932572 C -108.56087 26.074572 -107.92247 26.560385 -107.24947 26.940385 C -104.83247 28.408385 -102.21549 29.773658 -100.37349 31.970658 C -100.26849 32.096658 -100.16541 32.226377 -100.06441 32.357377 C -99.705409 31.881377 -99.393174 31.370166 -99.074174 30.866166 C -98.467174 31.635166 -98.867315 32.548338 -99.443315 33.192338 C -99.010315 34.073338 -98.472178 35.562689 -99.553178 36.177689 C -99.696178 36.215189 -99.836588 36.230529 -99.973588 36.226029 z M -92.180619 36.057572 C -92.511619 35.128572 -92.92267 34.223045 -93.15767 33.267045 C -93.08067 32.752045 -92.77526 32.29358 -92.73726 31.76558 C -92.21026 24.05858 -90.803373 16.43456 -90.128373 8.7455599 C -91.706373 7.9325599 -94.203545 8.3126732 -94.704545 10.261673 C -95.104545 12.638673 -94.064389 14.935591 -93.169389 17.077591 C -92.799389 18.037591 -92.117291 18.907728 -92.069291 19.967728 C -93.631291 18.057728 -94.407889 15.641564 -95.231889 13.349564 C -95.859889 11.140564 -96.38869 8.4154466 -94.80269 6.4794466 C -93.52169 5.0284466 -91.393217 5.1035872 -89.718217 5.7235872 C -89.188217 1.4835872 -88.72035 -2.8612608 -89.50435 -7.0952608 C -88.76635 -6.9432608 -88.662674 -6.0311709 -88.386674 -5.4531709 C -86.970674 -1.5891709 -87.816713 2.55697 -87.926713 6.54097 C -85.267713 8.59997 -82.750932 10.878513 -80.625932 13.497513 C -79.859932 14.368513 -79.728615 15.552658 -79.326615 16.595658 C -79.155615 12.972658 -78.692072 8.9611536 -76.120072 6.1791536 C -74.885072 4.9411536 -73.359146 4.1159856 -71.721146 3.5819856 C -70.290146 3.1149856 -68.773923 2.8705324 -67.292923 2.7675324 C -67.184923 3.8105324 -67.189736 4.857763 -67.175736 5.903763 C -68.738736 6.176763 -70.372146 6.6707122 -71.721146 7.5517122 C -72.528146 8.0797122 -73.234138 8.7482396 -73.763138 9.5922396 C -73.119138 10.10124 -72.434146 10.536458 -71.721146 10.916458 C -69.457146 12.125458 -66.910396 12.795646 -64.502396 13.658646 C -65.390396 11.662646 -65.944564 9.5054075 -65.974564 7.3144075 C -66.128564 5.2954075 -65.700322 3.1521769 -64.401322 1.5531769 L -64.366166 1.5106964 C -62.747166 -0.49630356 -60.061626 -1.5167021 -57.513626 -1.2227021 C -57.469626 -1.7737021 -57.265466 -2.4422568 -57.749466 -2.8662568 C -59.696466 -5.0022568 -61.982166 -6.797339 -64.366166 -8.425339 C -64.672166 -8.634339 -64.979552 -8.8409679 -65.287552 -9.0449679 C -66.716552 -9.8939679 -68.226572 -10.811812 -69.932572 -10.884812 C -70.586572 -10.910812 -71.230146 -10.650773 -71.721146 -10.219773 C -72.305146 -9.7057726 -72.667431 -8.9504132 -72.563431 -8.1514132 C -72.289431 -7.9944132 -72.008146 -7.8536788 -71.721146 -7.7236788 C -70.733146 -7.2756788 -69.686455 -6.9497608 -68.687455 -6.5327608 C -68.113455 -6.2627608 -67.289462 -6.2281045 -67.020462 -5.5601045 C -66.634462 -4.7621045 -66.271759 -3.951788 -65.924759 -3.135788 C -67.894759 -3.734788 -69.802146 -4.5182764 -71.721146 -5.2612764 L -72.261674 -5.4692842 C -72.174674 -4.8042842 -71.966146 -4.1741982 -71.721146 -3.5561982 C -71.256146 -2.3861982 -70.655494 -1.2602059 -70.477494 -0.014205938 C -70.983494 -0.67820594 -71.381146 -1.4065966 -71.721146 -2.1645966 C -72.236146 -3.3145966 -72.617365 -4.5325889 -73.045365 -5.7065889 C -74.481365 -6.5035889 -76.203912 -7.1710459 -77.855912 -6.6250459 C -80.653912 -5.8210459 -83.090291 -3.4721591 -83.819291 -0.64115908 C -81.300291 1.0448409 -78.146994 1.5230753 -75.164994 1.4740753 C -73.937994 1.5010753 -72.828146 0.96227845 -71.721146 0.50727845 L -71.615677 0.46333314 C -71.650677 0.50733314 -71.686146 0.54877455 -71.721146 0.59077455 C -72.794146 1.8497745 -74.399924 2.4873176 -75.917924 3.0473176 C -77.825924 3.7683176 -80.053443 3.7585051 -81.875443 2.7895051 C -83.712443 1.9015051 -84.744682 -0.061448174 -85.219682 -1.9624482 C -85.543682 -3.2174482 -84.919307 -4.4392412 -84.235307 -5.4502412 C -83.367307 -6.8362412 -82.116709 -7.9427452 -80.697709 -8.7417452 C -81.948709 -9.2337452 -83.436775 -9.811378 -84.715775 -9.090378 C -85.796775 -8.420378 -86.201549 -7.0689053 -85.808549 -5.8809053 C -87.361549 -6.4319053 -87.878533 -8.1747023 -89.142533 -9.0977023 C -90.720533 -10.227702 -93.18026 -10.483191 -94.61226 -8.9731905 C -96.12526 -7.3441905 -96.105549 -4.956581 -96.308549 -2.873581 C -96.460549 2.391419 -97.415713 7.8806889 -100.67671 12.177689 C -100.81371 11.007689 -101.37236 9.8130912 -101.06636 8.6400912 C -99.343362 4.4770912 -98.246979 0.042063482 -97.998979 -4.4629365 C -97.950979 -5.1679365 -98.533495 -5.6557452 -98.977495 -6.1167452 C -101.09049 -8.1237452 -103.42694 -9.9114211 -105.95894 -11.359421 C -106.35194 -11.584421 -106.74886 -11.800347 -107.14986 -12.008347 C -108.68986 -12.692347 -110.61626 -13.224382 -112.13326 -12.194382 C -110.07126 -10.783382 -107.94994 -9.4431514 -105.95894 -7.9331514 C -105.22694 -7.3781514 -104.51266 -6.7985928 -103.82466 -6.1855928 C -99.633663 -2.8775928 -99.786413 4.5625286 -104.29341 7.5385286 C -104.77641 7.8995286 -105.37794 8.0318685 -105.95894 7.9618685 C -106.38094 7.9098685 -106.7926 7.7529778 -107.1396 7.4989778 C -108.6136 6.4299778 -109.41174 4.5475598 -109.27974 2.7455598 C -109.21674 1.9605598 -108.85009 1.0641066 -108.03609 0.80610658 C -107.36109 0.55410658 -106.65994 0.62055189 -105.95894 0.66255189 C -105.43494 0.69255189 -104.90942 0.7088722 -104.39742 0.5658722 C -103.33942 0.3048722 -102.1845 -0.24083097 -101.7065 -1.279831 C -102.1705 -2.176831 -102.99577 -2.8103779 -103.73677 -3.4653779 C -104.46277 -4.0443779 -105.20494 -4.6030889 -105.95894 -5.1440889 C -108.28894 -6.8160889 -110.73957 -8.3206281 -113.22457 -9.7466281 C -113.18557 -7.6436281 -112.09357 -5.7853779 -111.45357 -3.8403779 C -111.41357 -2.3503779 -110.83862 -0.87339342 -111.20162 0.61860658 C -111.50762 2.4846066 -112.70231 4.0430012 -113.11031 5.8730012 C -112.63631 5.5740012 -112.17713 5.2524739 -111.70113 4.9574739 C -112.31913 6.6974739 -113.48941 8.1911576 -114.58541 9.6581576 C -114.84241 8.8231576 -115.12966 7.9885833 -115.24166 7.1195833 C -114.75166 4.4215833 -113.74825 1.8446847 -112.67525 -0.67631533 C -112.43025 -1.3733153 -111.89597 -2.4074287 -112.68697 -2.9424287 C -115.22797 -4.9094287 -118.11322 -6.3693038 -120.94722 -7.8643038 C -126.71022 -10.705304 -132.56332 -13.407491 -138.65132 -15.481491 C -139.01032 -15.628491 -139.34493 -15.826597 -139.66793 -16.039597 C -136.09493 -15.446597 -132.52771 -14.785284 -128.96871 -14.094284 C -126.38171 -13.781284 -124.18812 -12.246694 -121.88912 -11.139694 C -118.56512 -9.4416945 -115.14741 -7.6974482 -112.54341 -4.9624482 C -113.16541 -6.5604482 -113.76734 -8.177464 -114.04634 -9.878464 C -114.06234 -10.305464 -114.47741 -10.486269 -114.79341 -10.678269 C -118.83741 -12.928269 -122.94354 -15.075523 -127.12154 -17.063523 C -126.10854 -17.078523 -125.19247 -16.596327 -124.22847 -16.363327 C -121.73147 -15.702327 -119.25112 -14.985281 -116.74312 -14.365281 C -115.77412 -14.133281 -114.86947 -13.709421 -113.99947 -13.234421 C -113.56847 -14.254421 -112.86176 -15.217609 -111.77876 -15.601609 C -110.16076 -16.333609 -108.31861 -15.776132 -106.86861 -14.913132 C -106.56261 -14.733132 -106.25994 -14.548421 -105.95894 -14.359421 C -103.32094 -12.703421 -100.88029 -10.728722 -98.715287 -8.4927218 C -97.873287 -7.7637218 -97.754936 -6.6301201 -97.604936 -5.6011201 C -97.358936 -6.9601201 -97.38967 -8.3725695 -96.90767 -9.6865695 C -96.51867 -11.048569 -95.497823 -12.207433 -94.213823 -12.796433 C -92.555823 -13.427433 -90.509283 -13.079523 -89.236283 -11.813523 C -88.368283 -10.993523 -87.880424 -9.8599405 -86.980424 -9.0669405 C -86.705424 -10.329941 -86.151416 -11.6913 -84.897416 -12.2603 C -83.526416 -12.8883 -82.061346 -12.166249 -80.775346 -11.658249 C -78.410346 -10.588249 -76.04281 -9.5233702 -73.65181 -8.5073702 C -73.86381 -10.34337 -73.323146 -12.444136 -71.721146 -13.517136 L -71.621537 -13.581589 C -70.251537 -14.395589 -68.562724 -13.931605 -67.238724 -13.247605 C -66.233724 -12.722605 -65.281166 -12.116101 -64.366166 -11.456101 C -62.432166 -10.061101 -60.66313 -8.4239678 -58.93013 -6.7949678 C -57.69713 -5.7199678 -57.418673 -4.0654443 -56.886673 -2.6084443 C -56.730673 -4.5674443 -56.544458 -6.7129405 -55.291458 -8.3169405 C -54.188458 -9.8939405 -52.0734 -10.198452 -50.3564 -9.5664523 C -50.2524 -11.444452 -49.449345 -13.26498 -48.150345 -14.60698 C -47.549345 -15.22798 -46.841829 -15.746628 -46.046829 -16.121628 C -45.577829 -16.304628 -45.060899 -16.670445 -44.543899 -16.483445 C -44.408899 -15.582445 -44.280731 -14.677554 -44.196731 -13.770554 C -45.396731 -12.532554 -46.809341 -11.209234 -46.921341 -9.3672335 C -46.514341 -7.8162335 -45.146048 -6.567253 -43.621048 -6.137253 C -42.972048 -5.911253 -42.866505 -6.6935577 -42.664505 -7.1245577 C -42.051505 -8.8935577 -40.048829 -10.255976 -38.171829 -9.6279757 C -36.312829 -9.0859757 -35.275536 -7.3128272 -34.496536 -5.6758272 C -34.307536 -6.3948272 -34.209954 -7.2093272 -33.624954 -7.7383272 C -32.452954 -9.0323272 -30.132809 -9.146171 -29.026809 -7.703171 C -27.567809 -5.738171 -27.316485 -2.898038 -28.644485 -0.79203799 C -29.145485 -2.263038 -29.80359 -3.9193076 -28.82759 -5.3433076 C -30.37259 -6.3853076 -32.807841 -5.6791357 -33.233841 -3.7671357 C -32.813841 -2.9551357 -32.420751 -2.109081 -32.341751 -1.186081 C -33.905751 -2.089081 -34.276954 -4.0395303 -35.499954 -5.2715303 C -36.758954 -6.7125303 -39.311013 -7.4444717 -40.810013 -5.9614717 C -41.715013 -5.2514717 -41.834173 -4.0415771 -42.449173 -3.1445771 C -43.633173 -3.0715771 -44.607579 -3.9054521 -45.390579 -4.6914521 C -47.124579 -6.5494521 -47.543083 -9.2073195 -47.557083 -11.65532 C -47.772083 -11.45332 -47.971345 -11.235464 -48.150345 -11.003464 C -48.625345 -10.395464 -48.978638 -9.6942179 -49.200638 -8.9512179 C -48.819638 -8.6702179 -48.463345 -8.3540694 -48.150345 -7.9990694 C -47.799345 -7.6010694 -47.503087 -7.1532022 -47.286087 -6.6602022 C -46.477087 -4.9262022 -45.720103 -3.0663036 -45.827103 -1.1143036 C -45.794103 0.39869638 -46.222985 1.8636106 -46.456985 3.3476106 C -47.064985 2.0056106 -47.634345 0.64409092 -48.150345 -0.73490908 C -48.874345 -2.6719091 -49.494286 -4.6472022 -49.965286 -6.6602022 C -51.271286 -6.9902022 -52.838489 -7.0235303 -53.873489 -6.0215303 C -55.195489 -4.7225303 -55.556896 -2.7623271 -55.689896 -0.98832706 C -53.042896 -0.10632706 -50.503345 1.1053996 -48.150345 2.6063996 C -46.871345 3.4233996 -45.6467 4.3245715 -44.4897 5.3075715 C -42.9147 6.9785715 -42.711595 9.5554037 -43.181595 11.710404 C -43.484595 13.398404 -44.687716 14.789189 -44.905716 16.490189 C -44.329716 16.402189 -43.806556 16.130224 -43.266556 15.926224 C -44.006556 17.500224 -45.25629 18.754353 -46.31929 20.108353 C -46.50229 19.132353 -46.900356 18.184314 -46.962356 17.193314 C -46.278356 15.466314 -46.009646 13.602115 -45.283646 11.889115 C -44.785646 10.592115 -44.126435 9.2822591 -44.167435 7.8622591 C -44.947435 7.0642591 -45.970439 6.5610325 -46.896439 5.9550325 C -47.313439 5.7140325 -47.729345 5.4737942 -48.150345 5.2357942 C -50.495345 3.9177942 -52.931525 2.7147472 -55.559525 2.1127472 C -55.952525 1.9007472 -56.067587 2.3494855 -56.098587 2.6444855 C -56.715587 6.9434855 -58.289341 11.233158 -61.171341 14.533158 C -61.338341 13.354158 -61.505544 12.128685 -61.329544 10.948685 C -60.035544 8.029685 -58.826595 5.0314855 -58.181595 1.8944855 C -60.750595 1.7564855 -63.266166 3.3060051 -64.366166 5.6020051 C -64.505166 5.8930051 -64.621333 6.1976731 -64.713333 6.5116731 C -65.428333 8.4976731 -65.012166 10.630521 -64.366166 12.580521 C -64.313166 12.742521 -64.257638 12.902455 -64.200638 13.062455 C -64.046638 13.446455 -63.89499 13.925716 -63.43599 14.030716 C -60.72599 14.929716 -58.054376 15.962443 -55.357376 16.875443 C -54.876376 17.749443 -54.685607 18.748478 -54.368607 19.686478 C -57.690607 19.320478 -61.027166 19.18281 -64.366166 19.15181 C -66.816166 19.12981 -69.270146 19.164474 -71.721146 19.207474 L -73.79683 19.24556 C -73.15583 19.83956 -72.458146 20.350689 -71.721146 20.802689 C -69.743146 22.011689 -67.479115 22.770392 -65.264115 23.398392 C -65.004115 22.754392 -64.785353 22.090869 -64.483353 21.461869 C -64.413353 21.797869 -64.379166 22.138006 -64.366166 22.477006 C -64.355166 22.740006 -64.357166 23.003092 -64.366166 23.265092 C -64.369166 23.384092 -64.373349 23.501584 -64.379349 23.619584 L -64.366166 23.623978 C -63.058166 23.999978 -61.683142 24.03547 -60.367142 24.35347 C -59.849142 25.19947 -59.445779 26.183435 -59.319779 27.167435 C -60.289779 28.578435 -61.725048 29.62624 -63.121048 30.59224 C -63.483048 30.83224 -63.924166 31.008525 -64.366166 31.059525 C -64.917166 31.124525 -65.469419 30.997084 -65.876419 30.557084 C -67.066419 29.275084 -67.033037 27.327072 -66.559037 25.745072 C -68.357037 25.111072 -70.084146 24.286572 -71.721146 23.307572 C -73.504146 22.242572 -75.180517 20.995236 -76.726517 19.613236 C -77.687517 18.861236 -77.581482 17.508146 -78.040482 16.471146 C -78.304482 18.203146 -78.269994 19.966174 -78.539994 21.699174 C -79.159994 26.272174 -80.447502 30.977518 -83.435502 34.601518 C -83.474502 33.157518 -84.278998 31.621396 -83.518998 30.252396 C -81.873998 26.359396 -80.485627 22.294615 -80.013627 18.076615 C -79.974627 17.589615 -79.824467 17.007138 -80.249467 16.638138 C -82.692467 14.033138 -85.251447 11.464044 -88.354447 9.6420443 C -89.128447 16.316044 -90.256498 22.954486 -90.831498 29.644486 C -90.255498 29.165486 -89.786424 28.578639 -89.230424 28.075639 C -89.175424 29.099639 -89.638608 30.035775 -89.993608 30.965775 C -90.690608 32.675775 -91.320619 34.418572 -92.180619 36.057572 z M -121.19625 35.946244 C -121.56225 35.011244 -122.02081 34.108533 -122.29781 33.142533 C -121.84681 31.402533 -121.8998 29.585248 -121.8188 27.800248 C -121.5588 23.396248 -120.93459 19.020259 -120.70259 14.612259 C -121.17159 14.394259 -121.64649 14.182912 -122.12349 13.980912 C -122.66849 15.398912 -123.63808 16.740263 -125.07808 17.341263 C -125.46508 17.506263 -125.87739 17.513435 -126.27339 17.417435 C -126.72039 17.310435 -127.14389 17.068044 -127.48189 16.767044 C -128.73189 15.665044 -129.30487 13.925017 -129.21187 12.289017 C -129.13987 11.226017 -128.17374 10.450111 -127.17574 10.285111 C -126.87574 10.239111 -126.57339 10.220517 -126.27339 10.226517 C -125.23439 10.247517 -124.20728 10.557122 -123.25728 10.972122 C -123.19428 10.465122 -122.80846 9.8232045 -123.27046 9.4062045 C -124.17346 8.4562045 -125.20339 7.649927 -126.27339 6.896927 C -127.05839 6.343927 -127.86509 5.8195286 -128.66109 5.2885286 C -130.92009 3.9095286 -133.29383 2.3048957 -136.04683 2.3148957 C -138.26983 2.3468957 -140.13364 4.28622 -140.32564 6.44722 C -140.44964 8.86822 -139.35785 11.103982 -138.33785 13.227982 C -137.99785 13.820982 -137.23978 13.983158 -136.84078 14.533158 C -135.85878 15.815158 -135.17766 17.643052 -135.69966 19.225052 C -136.25666 18.258052 -136.76594 17.260982 -137.18794 16.227982 C -138.01094 16.606982 -138.61516 17.383201 -138.67916 18.302201 C -138.89116 20.427201 -137.8351 22.400521 -136.8481 24.205521 C -136.4741 24.859521 -136.03386 25.520713 -136.02486 26.301713 C -137.68586 24.035713 -139.05284 21.500431 -139.90084 18.813431 C -140.46184 17.075431 -140.53271 14.642165 -138.71871 13.616165 C -140.03771 10.947165 -141.32769 8.08797 -141.19869 5.04097 C -141.23569 2.82997 -140.02719 0.39809093 -137.84419 -0.35990907 C -136.28019 -1.0889091 -134.47701 -0.74858875 -132.95601 -0.081588752 C -130.52401 1.0044112 -128.31539 2.5103332 -126.27339 4.2133332 C -125.39439 4.9473332 -124.54703 5.7168138 -123.72603 6.5058138 C -122.28003 7.7778138 -121.93618 9.7746811 -121.78218 11.594681 C -121.34918 11.814681 -120.91701 12.033677 -120.47701 12.240677 C -119.99001 8.0296772 -119.59021 3.8094269 -119.23921 -0.41557314 C -119.23021 -1.2275731 -119.02178 -2.1466943 -119.42378 -2.8896943 C -120.64878 -3.8956943 -122.32514 -4.4714326 -123.90914 -4.1714326 C -125.18514 -3.7804326 -125.90639 -2.5561005 -126.27339 -1.3311005 C -126.32239 -1.1691005 -126.36484 -1.0057724 -126.40084 -0.84477236 C -126.60684 -0.10677236 -126.89408 0.7969894 -127.70308 1.0609894 C -129.73608 0.4809894 -131.30612 -1.1800341 -132.38912 -2.9380341 C -133.44712 -4.7010341 -133.70714 -6.7936983 -134.61714 -8.6186983 C -135.04914 -9.3496983 -135.73593 -10.19653 -136.66793 -10.14653 C -137.72693 -9.7885304 -138.34073 -8.7094952 -138.69673 -7.7104952 C -139.42673 -5.6454952 -138.84618 -3.4471005 -138.82418 -1.3311005 C -138.91418 -1.3431005 -139.09453 -1.3722997 -139.18453 -1.3852997 C -139.89653 -4.1222997 -139.97149 -7.0952492 -138.99849 -9.7832492 C -138.60649 -10.849249 -137.9379 -11.954894 -136.7939 -12.318894 C -136.1049 -12.600894 -135.43728 -12.062866 -134.98628 -11.590866 C -133.55628 -10.040866 -133.37922 -7.8358116 -132.46822 -6.0098116 C -131.54622 -4.1928116 -130.04535 -2.6350224 -128.12935 -1.8760224 C -127.02435 -2.8520224 -127.02539 -4.4708975 -126.27339 -5.6728975 C -126.16539 -5.8448975 -126.04193 -6.0076905 -125.89693 -6.1606905 C -124.66593 -7.7116905 -122.30153 -7.4177569 -120.80953 -6.4287569 C -118.76553 -5.1107569 -118.05309 -2.5896395 -117.78609 -0.30863954 C -117.52909 4.2153605 -118.31905 8.7052202 -118.72505 13.19722 C -118.42705 13.32022 -118.13096 13.440501 -117.83296 13.560501 C -118.14296 11.729501 -116.18185 10.06679 -114.44185 10.75679 C -112.84185 11.16179 -112.38299 12.928287 -111.70699 14.215287 C -111.17199 12.492287 -108.88585 11.192994 -107.31685 12.414994 C -105.61785 14.197994 -105.25403 17.185591 -106.47603 19.327591 C -106.77703 17.950591 -107.66882 16.426447 -106.75582 15.104447 C -108.01382 14.501447 -109.72388 14.95515 -110.39888 16.20015 C -110.44088 17.10115 -109.94367 17.937193 -109.92867 18.844193 C -111.23667 17.752193 -111.62587 16.034869 -112.60787 14.711869 C -113.59187 13.393869 -116.04307 13.08322 -116.89107 14.69722 C -116.77507 15.33422 -116.47485 15.919318 -116.31685 16.547318 C -117.26185 16.365318 -118.13243 15.948658 -118.95943 15.470658 C -119.37843 20.307658 -120.11042 25.132795 -120.25142 29.985795 C -119.93042 29.560795 -119.63301 29.116041 -119.35201 28.663041 C -119.25201 28.663041 -119.05403 28.657717 -118.95503 28.655717 C -119.55703 31.126717 -120.35625 33.545244 -121.19625 35.946244 z M -108.97652 35.909623 C -109.15268 35.901635 -109.31789 35.859311 -109.47164 35.792436 C -110.20564 35.471436 -110.6892 34.55601 -110.9482 33.83101 C -110.5562 33.25101 -110.02864 32.79049 -109.47164 32.37349 L -109.28853 32.238725 C -109.34953 32.172725 -109.40964 32.107435 -109.47164 32.042435 C -112.21964 29.109435 -115.89301 27.283717 -119.08101 24.905717 C -115.56701 26.516717 -111.95264 28.411428 -109.47164 31.459428 C -109.31764 31.648428 -109.16693 31.844435 -109.02193 32.042435 C -108.78193 31.730435 -108.54615 31.409611 -108.30415 31.097611 C -107.73515 31.715611 -107.9013 32.489373 -108.5063 33.003373 C -108.0493 33.874373 -107.68339 35.216186 -108.64839 35.886186 C -108.76202 35.906811 -108.87082 35.914416 -108.97652 35.909623 z M -112.16255 35.831986 C -114.20655 35.000986 -116.20482 34.061857 -118.21382 33.149857 C -118.71882 32.984857 -118.86325 32.448139 -119.05025 32.013139 C -117.02525 32.826139 -115.10433 33.876775 -113.08833 34.715775 C -112.57533 34.874775 -112.35455 35.378986 -112.16255 35.831986 z M -125.63033 35.594682 C -125.74842 35.593182 -125.86567 35.577772 -125.98042 35.549272 C -126.77342 35.351272 -127.44212 34.547357 -127.34712 33.712357 C -127.12912 33.024357 -126.51242 32.60351 -125.98042 32.14351 C -125.89042 32.06551 -125.80315 31.985275 -125.72115 31.903275 C -125.80715 31.812275 -125.89342 31.720814 -125.98042 31.630814 C -128.64442 28.895814 -132.00165 26.976201 -135.01265 24.677201 C -131.67065 26.205201 -128.31042 28.103326 -125.98042 31.005326 C -125.79342 31.239326 -125.61097 31.482424 -125.43697 31.730424 C -125.18197 31.277424 -124.9389 30.819654 -124.6899 30.366654 C -124.1149 31.107654 -124.45864 31.960768 -124.95064 32.632768 C -124.51964 33.507768 -124.12492 34.762564 -125.04292 35.474564 C -125.23417 35.559564 -125.43351 35.597182 -125.63033 35.594682 z M -86.353471 35.543412 C -87.120471 34.312412 -88.14801 32.762787 -87.58101 31.277787 C -87.08801 30.430787 -86.30749 31.365334 -86.12349 31.963334 C -86.50049 32.021334 -87.045572 31.910674 -87.182572 32.386674 C -87.470572 33.518674 -86.544471 34.468412 -86.353471 35.543412 z M -75.708451 35.474564 C -76.362451 34.423564 -75.256248 33.382545 -75.550248 32.329545 C -75.827248 31.516545 -77.001506 31.816482 -77.164506 32.540482 C -77.368506 33.474482 -77.173002 34.480772 -77.623002 35.361772 C -78.104002 34.370772 -77.606455 33.31181 -77.687455 32.27681 C -77.773455 31.51781 -77.19349 30.68867 -76.37349 30.78267 C -75.87949 31.04467 -75.633494 31.570393 -75.352494 32.023393 C -74.969494 31.413393 -73.911521 30.727674 -73.455521 31.636674 C -72.634521 32.892674 -73.524533 34.235053 -74.142533 35.350053 C -74.509533 34.216053 -73.810564 33.237428 -73.474564 32.209428 C -75.372564 32.083428 -75.071451 34.308564 -75.708451 35.474564 z M -46.298782 35.396928 C -49.746782 34.146928 -53.177732 32.83585 -56.571732 31.44185 C -57.564732 30.98085 -58.871576 30.644295 -59.161576 29.423295 C -55.716576 31.195295 -52.028032 32.403955 -48.455032 33.874955 C -47.633032 34.213955 -46.594782 34.424928 -46.298782 35.396928 z M -68.037064 35.386674 C -68.208646 35.393031 -68.375736 35.362982 -68.535111 35.306107 C -69.204111 35.064107 -69.735865 34.329228 -69.857865 33.655228 C -70.031865 32.800228 -69.169111 32.443549 -68.535111 32.058549 C -68.441111 32.000549 -68.352904 31.941303 -68.272904 31.881303 C -68.358904 31.760303 -68.445111 31.641416 -68.535111 31.522416 C -70.472111 28.983416 -73.330244 27.350537 -75.446244 24.996537 C -72.934244 26.607537 -70.277111 28.273514 -68.535111 30.747514 C -68.336111 31.030514 -68.147611 31.324814 -67.972611 31.630814 C -67.723611 31.317814 -67.475681 31.00185 -67.219681 30.69185 C -66.865681 31.37785 -66.936537 32.122924 -67.496537 32.667924 C -67.125537 33.511924 -66.893587 34.681939 -67.723587 35.333939 C -67.828962 35.365439 -67.934115 35.382859 -68.037064 35.386674 z M -59.49849 35.354447 C -60.23149 34.274447 -61.470482 32.414975 -60.040482 31.394975 C -59.696482 31.731975 -59.382404 32.100424 -59.085404 32.480424 C -59.423404 32.565424 -59.769751 32.627998 -60.091751 32.768998 C -60.413751 33.685998 -59.73749 34.509447 -59.49849 35.354447 z M -100.28853 35.316361 C -99.44253 35.073361 -99.549416 34.033146 -99.522416 33.346146 C -99.809416 33.540146 -100.09949 33.737662 -100.37349 33.949662 C -100.68449 34.191662 -100.9761 34.453721 -101.2231 34.759721 C -101.2571 35.172721 -100.71449 35.242713 -100.37349 35.301713 L -100.28853 35.316361 z M -39.827102 35.307572 C -40.416102 34.092572 -41.285927 32.767396 -40.771927 31.377396 C -40.225927 22.654396 -38.732294 14.026728 -37.798294 5.3427278 C -39.813294 6.9847278 -40.011845 9.8336069 -40.087845 12.243607 C -40.123845 13.195607 -39.777016 14.179587 -40.164016 15.098587 C -40.821016 13.344587 -40.626751 11.426704 -40.591751 9.5937045 C -40.358751 7.0887045 -39.727423 4.2210949 -37.480423 2.7440949 C -37.175423 0.14709491 -37.347559 -2.4596904 -37.745559 -5.0356904 C -36.930559 -4.5066904 -36.607563 -3.5495732 -36.349563 -2.6655732 C -35.943563 -1.0675732 -35.638524 0.57154021 -35.684524 2.2255402 C -35.779524 2.9705402 -35.077434 3.4254817 -34.792434 4.0404817 C -32.864434 7.9994817 -33.761165 13.097584 -30.616165 16.494584 C -30.953165 14.020584 -31.767809 11.59715 -31.651809 9.0751498 C -31.611809 7.2301498 -30.876067 5.1916184 -29.141067 4.3056184 C -27.767067 3.4566184 -26.049801 3.6551301 -24.693801 4.4301301 C -24.124801 -0.69486989 -23.526278 -5.8849015 -24.257278 -11.026902 C -23.616278 -10.560902 -23.266473 -9.8296593 -23.082473 -9.0786593 C -21.734473 -4.6306593 -22.486395 0.065587146 -22.877395 4.5985871 C -23.464395 6.5765871 -21.979485 8.251681 -21.519485 10.094681 C -21.208485 8.589681 -20.89402 6.9255794 -19.64302 5.8905794 C -18.13102 4.4005794 -15.251086 4.1936262 -13.911086 6.0136262 C -12.460086 7.9826262 -12.037774 10.650607 -12.715774 12.993607 C -13.431774 15.435607 -14.480723 17.813701 -14.738723 20.364701 C -14.253723 20.089701 -13.783133 19.786205 -13.284133 19.531205 C -13.902133 21.280205 -14.948332 22.852556 -15.963332 24.391556 C -16.276332 23.399556 -16.700899 22.421373 -16.793899 21.378373 C -16.662899 20.783373 -16.357274 20.23742 -16.278274 19.62642 C -15.888274 16.78842 -15.091 14.024458 -14.248 11.291458 C -14.03 10.358458 -13.633938 9.4295208 -13.708938 8.4555208 C -15.213938 7.1825208 -17.69595 7.5777279 -18.89595 9.0927279 C -20.04895 10.445728 -20.17252 12.30049 -20.20552 13.99849 C -20.09952 17.39549 -20.521836 20.95392 -22.254836 23.93892 C -22.551836 22.86192 -23.026883 21.801291 -23.127883 20.694291 C -22.316883 18.200291 -21.809895 15.578267 -21.939895 12.945267 C -21.948895 11.262267 -22.024102 9.3464935 -23.327102 8.1024935 C -24.212102 14.910493 -25.189055 21.717248 -25.829055 28.550248 C -25.289055 27.993248 -24.854082 27.34976 -24.307082 26.79976 C -24.690082 29.66976 -26.025219 32.333818 -26.822219 35.109818 C -27.304219 34.190818 -27.71684 33.227541 -27.98384 32.225541 C -27.96284 31.652541 -27.681786 31.117971 -27.652786 30.540971 C -27.223786 22.672971 -25.838969 14.899314 -25.040969 7.0683138 C -27.001969 6.3023138 -29.457118 7.2292709 -30.118118 9.2992709 C -31.151118 12.939271 -29.104149 16.57347 -29.450149 20.22847 C -30.848149 19.80747 -31.592227 18.357271 -32.280227 17.174271 C -34.206227 13.537271 -33.568993 9.0432708 -35.789993 5.5492708 C -36.614993 13.051271 -37.956708 20.490396 -38.697708 28.002396 C -38.644708 28.268396 -38.893208 28.780357 -38.510208 28.837357 C -38.098208 28.327357 -37.780895 27.741369 -37.314895 27.274369 C -37.196895 27.882369 -37.431005 28.482619 -37.602005 29.055619 C -38.286005 31.158619 -39.043102 33.236572 -39.827102 35.307572 z M 28.478563 35.227006 C 28.329563 34.835006 28.103915 34.329959 28.463915 33.978959 C 29.082915 33.308959 29.276645 32.416221 29.537645 31.572221 C 29.630645 32.064221 29.683962 32.562432 29.711962 33.063432 C 32.875962 32.335432 35.823704 34.423303 38.972704 34.131303 C 38.418704 33.195303 37.547177 32.51056 36.932177 31.62056 C 38.087177 32.42156 39.419298 33.536873 39.406298 35.065873 C 36.320298 35.281873 33.370489 33.419607 30.252489 33.993607 C 29.518489 34.162607 29.038563 34.778006 28.478563 35.227006 z M -19.528762 35.172807 C -19.519762 34.690807 -19.660832 34.088037 -19.150832 33.809037 C -18.113832 33.110037 -17.751207 31.875287 -17.510207 30.715287 C -17.027207 32.450287 -17.948762 34.358807 -19.528762 35.172807 z M -28.45552 35.073197 C -30.98652 34.180197 -33.545552 33.351982 -36.037552 32.352982 C -36.391552 32.217982 -37.206942 31.624381 -36.687942 31.336381 C -34.334942 32.244381 -31.970676 33.123369 -29.615676 34.024369 C -29.083676 34.177369 -28.75652 34.640197 -28.45552 35.073197 z M -2.3227069 35.071732 C -3.1667069 33.863732 -3.8430702 32.404322 -3.7450702 30.901322 C -3.7380702 30.423322 -3.2112148 29.858814 -2.7182148 30.130814 C -2.3662148 30.445814 -2.1879608 30.898689 -1.9579608 31.302689 C -2.3889608 31.117689 -2.9526405 30.933978 -3.1796405 31.498978 C -3.4536405 32.761978 -2.5997069 33.884732 -2.3227069 35.071732 z M -109.24898 35.014604 C -108.57798 34.616604 -108.63211 33.782377 -108.66011 33.107377 C -108.94011 33.305377 -109.21064 33.51433 -109.47164 33.73433 C -109.76064 33.97933 -110.03681 34.237162 -110.29781 34.512162 C -110.03581 34.686162 -109.78364 34.926561 -109.47164 34.995561 C -109.40064 35.012561 -109.32598 35.018604 -109.24898 35.014604 z M 48.628954 34.849076 C 48.184954 34.855076 47.764146 34.712826 47.350146 34.567826 C 40.936146 32.399826 34.46238 30.231178 28.46538 27.053178 C 28.43238 26.802178 28.400559 26.550783 28.374559 26.298783 C 33.928559 29.264783 39.887314 31.382686 45.822314 33.448686 C 46.788314 33.835686 48.006954 33.891076 48.628954 34.849076 z M -132.5898 34.838822 C -133.45455 34.844197 -134.31541 34.716053 -135.12691 34.412553 C -135.93991 33.691553 -136.40905 32.659791 -136.99605 31.756791 C -135.54305 32.347791 -133.93891 32.550639 -132.39791 32.200639 C -133.68891 31.039639 -135.35144 30.389822 -136.62544 29.213822 C -135.06744 29.900822 -132.84161 29.723611 -131.99361 31.472611 C -131.39361 32.504611 -130.67272 33.461752 -130.03072 34.466752 C -130.85622 34.695752 -131.72505 34.833447 -132.5898 34.838822 z M -125.98042 34.651322 C -125.85242 34.656322 -125.72496 34.634826 -125.60396 34.567826 C -125.05896 34.159826 -125.13486 33.415408 -125.14986 32.814408 C -125.43586 33.042408 -125.71442 33.278252 -125.98042 33.529252 C -126.28342 33.815252 -126.56717 34.118244 -126.82417 34.446244 C -126.55617 34.508244 -126.26342 34.643322 -125.98042 34.651322 z M -68.743119 34.403764 C -68.671884 34.408514 -68.602361 34.40458 -68.535111 34.39058 C -67.973111 34.26958 -67.574923 33.526662 -67.667923 32.824662 C -67.965923 32.983662 -68.257111 33.156146 -68.535111 33.346146 C -68.848111 33.560146 -69.144947 33.795455 -69.416947 34.062455 C -69.185947 34.285955 -68.956822 34.389514 -68.743119 34.403764 z M 62.108447 34.236771 C 61.671447 33.357771 61.192459 32.4826 60.920459 31.5356 C 61.681459 28.4676 61.352174 25.231427 61.578174 22.084427 C 61.879174 14.344427 62.640998 6.6286261 62.897998 -1.1113739 C 62.833998 -3.8873739 63.033353 -6.7412218 62.237353 -9.4302218 C 62.294353 -9.5302218 62.406404 -9.731589 62.464404 -9.831589 C 63.893404 -7.685589 64.359451 -5.0682021 64.462451 -2.5352021 C 64.594451 1.3857979 64.45651 5.3106341 64.14751 9.2216341 C 63.72251 14.912634 63.407381 20.611248 62.965381 26.300248 C 62.914381 26.881248 62.940904 27.464482 63.026904 28.040482 C 63.592904 27.479482 64.077248 26.842361 64.679248 26.316361 C 64.190248 29.055361 63.201447 31.687771 62.108447 34.236771 z M 60.481006 33.502885 C 58.898006 33.146885 57.449498 32.362072 55.960498 31.745072 C 54.991498 31.283072 53.730486 30.971689 53.398486 29.802689 C 55.316486 30.790689 57.266271 31.728662 59.303271 32.449662 C 59.847271 32.593662 60.189006 33.052885 60.481006 33.502885 z M 45.166064 31.229447 L 44.996142 30.940873 C 44.507142 30.114873 43.996107 29.293256 43.685107 28.383256 C 43.496107 27.833256 43.545661 27.021197 44.203661 26.823197 C 44.473661 26.740197 44.743142 26.742084 44.996142 26.807084 C 45.874142 27.031084 46.548685 28.021967 46.327685 28.936967 C 46.181685 29.586967 45.60354 29.98533 45.10454 30.35933 C 45.12654 30.64933 45.145064 30.939447 45.166064 31.229447 z M -44.48677 31.069779 C -44.91277 30.206779 -44.464911 29.329529 -44.105911 28.538529 C -44.177911 28.450529 -44.32495 28.274967 -44.39595 28.186967 C -45.59095 28.579967 -45.422157 29.9539 -45.783157 30.9189 C -46.401157 30.1559 -45.732099 29.282428 -45.723099 28.459428 C -45.901099 27.723428 -47.099638 27.791357 -47.325638 28.462357 C -47.547638 29.123357 -47.449056 29.835603 -47.579056 30.514603 C -48.273056 30.195603 -47.938786 29.35051 -47.902786 28.76851 C -47.812786 28.11451 -47.868853 27.102271 -47.045853 26.924271 C -46.352853 26.713271 -45.970786 27.391955 -45.652786 27.874955 C -45.260786 27.553955 -44.600138 26.88615 -44.138138 27.45015 C -43.228138 28.54115 -43.95977 29.983779 -44.48677 31.069779 z M -52.055618 30.12056 C -52.170743 30.119185 -52.283497 30.102221 -52.393997 30.072221 C -53.236997 29.839221 -53.905599 28.823424 -53.785599 27.980424 C -53.476599 27.455424 -52.902997 27.183353 -52.393997 26.858353 C -52.285997 26.788353 -52.180986 26.717556 -52.081986 26.641556 C -52.183986 26.529556 -52.288997 26.420431 -52.393997 26.313431 C -54.913997 23.739431 -58.260482 22.215904 -61.165482 20.147904 C -57.943482 21.400904 -54.644997 22.982224 -52.393997 25.676224 C -52.184997 25.927224 -51.984411 26.188451 -51.793411 26.458451 C -51.419411 26.061451 -51.143728 25.586232 -50.842728 25.134232 C -50.413728 25.914232 -50.632025 26.776303 -51.247025 27.381303 C -50.884025 28.265303 -50.758986 29.50615 -51.706986 30.07515 C -51.823986 30.10765 -51.940493 30.121935 -52.055618 30.12056 z M 44.77788 29.878861 C 44.79488 29.751861 44.831193 29.497096 44.848193 29.369096 C 44.895193 29.334096 44.945142 29.298162 44.996142 29.262162 C 45.447142 28.947162 46.019837 28.594099 45.883837 27.973099 C 45.630837 27.858099 45.307142 27.758119 44.996142 27.743119 C 44.641142 27.728119 44.301658 27.823162 44.099658 28.137162 C 44.011658 28.792162 44.48088 29.338861 44.77788 29.878861 z M -95.933549 29.808549 C -97.175549 27.444549 -98.877916 25.375259 -100.45992 23.237259 L -100.6606 23.442338 C -101.1976 23.991338 -101.72981 24.55122 -102.15181 25.19722 C -101.65281 25.14422 -101.1596 25.047002 -100.6606 24.998002 C -100.5786 24.990002 -100.49797 24.983959 -100.41597 24.978959 C -100.49597 25.055959 -100.5776 25.13101 -100.6606 25.20601 C -101.8896 26.32901 -103.29486 27.244306 -104.62886 28.235306 C -104.51186 27.066306 -105.0224 25.580287 -103.9814 24.715287 C -103.1684 23.721287 -102.60649 22.542013 -101.76949 21.560013 C -103.61749 19.375013 -104.16607 16.422533 -104.24507 13.642533 C -104.30007 12.411533 -102.92411 11.519837 -101.80611 12.004837 C -101.43211 12.135837 -101.0446 12.290193 -100.6606 12.469193 C -98.7246 13.367193 -96.84942 14.878201 -97.00142 17.177201 C -96.74642 19.188201 -97.994959 20.909236 -99.353959 22.238236 C -97.572959 24.406236 -96.047549 26.922549 -95.933549 29.808549 z M -34.301712 29.481889 C -34.756712 28.593889 -35.216173 27.709916 -35.699173 26.834916 C -34.761173 26.087916 -33.904633 25.244236 -32.971633 24.488236 C -32.486633 25.367236 -32.051454 26.272857 -31.562454 27.149857 C -32.489454 27.910857 -33.361712 28.736889 -34.301712 29.481889 z M 1.3145002 29.2314 C -1.3284998 28.2084 -3.9133555 27.032806 -6.4623555 25.797806 C -7.0473555 25.579806 -7.3242969 25.006869 -7.5272969 24.461869 C -5.0502969 25.781869 -2.4916444 26.946412 0.091355627 28.043412 C 0.65535563 28.245412 1.0455002 28.7114 1.3145002 29.2314 z M -52.612259 29.14058 C -52.537665 29.141767 -52.463997 29.134142 -52.393997 29.117142 C -51.819997 28.978142 -51.417146 28.261295 -51.471146 27.548295 C -51.786146 27.737295 -52.092997 27.934021 -52.393997 28.143021 C -52.711997 28.364021 -53.024173 28.595752 -53.324173 28.841752 C -53.078173 29.047252 -52.83604 29.137017 -52.612259 29.14058 z M -18.682082 29.108353 C -18.977082 28.081353 -18.438371 27.148033 -18.128371 26.205033 C -19.664371 26.285033 -19.394977 28.029025 -19.998977 28.997025 C -20.277977 28.206025 -19.913309 27.437275 -19.839309 26.653275 C -19.733309 25.859275 -20.941887 25.520369 -21.356887 26.149369 C -21.827887 26.771369 -21.643059 27.625564 -21.808059 28.349564 C -21.938059 28.356564 -22.198079 28.373791 -22.328079 28.381791 C -22.011079 27.206791 -22.453926 25.567967 -21.271926 24.811967 C -20.476926 24.536967 -20.032063 25.406826 -19.662063 25.942826 C -19.379063 25.665826 -19.108563 25.34601 -18.724563 25.20601 C -18.074563 25.23801 -17.858231 25.993439 -17.759231 26.521439 C -17.745231 27.462439 -18.310082 28.279353 -18.682082 29.108353 z M -65.26558 28.141556 C -64.96658 28.168056 -64.663166 28.093881 -64.366166 27.961381 C -63.700166 27.664381 -63.066705 27.069697 -62.593705 26.635697 C -63.187705 26.537697 -63.777166 26.413599 -64.366166 26.285599 C -64.633166 26.226599 -64.900435 26.169748 -65.167435 26.112748 C -65.514435 26.635748 -65.893162 27.142146 -66.137162 27.721146 C -65.859162 27.988646 -65.56458 28.115056 -65.26558 28.141556 z M 41.039599 27.980424 C 38.394599 27.185424 35.878903 25.99867 33.401903 24.78267 C 32.335903 24.20567 30.979829 23.687607 30.675829 22.368607 C 33.561829 24.406607 36.88779 25.684951 40.13579 27.020951 C 40.56479 27.192951 40.798599 27.611424 41.039599 27.980424 z M 57.481005 27.892533 C 57.425005 27.772533 57.3629 27.654576 57.2979 27.536576 C 56.6849 26.413576 55.764502 25.297427 56.064502 23.959427 C 56.350502 23.453427 56.8349 23.351283 57.2979 23.486283 C 57.9259 23.671283 58.517045 24.293338 58.521045 24.942338 C 58.679045 25.821338 57.978466 26.451428 57.378466 26.959428 C 57.415466 27.271428 57.453005 27.580533 57.481005 27.892533 z M -87.746537 27.58931 C -87.799537 27.03931 -87.887279 26.392299 -87.257279 26.152299 C -85.025279 24.765299 -84.381572 21.99374 -84.557572 19.52974 C -83.530572 22.54274 -84.831537 26.17931 -87.746537 27.58931 z M -125.415 27.290482 C -125.58537 27.293982 -125.75494 27.264416 -125.91744 27.209916 C -126.65444 26.962916 -127.26662 26.183131 -127.32662 25.430131 C -127.23662 24.605131 -126.49444 24.113033 -125.91744 23.580033 C -125.85544 23.523033 -125.79573 23.463717 -125.73873 23.405717 L -125.91744 23.224076 C -128.52244 20.610076 -131.85698 18.891927 -134.74898 16.646927 C -131.39298 17.920927 -128.34244 20.040873 -125.91744 22.690873 C -125.76844 22.854873 -125.61859 23.02092 -125.47359 23.18892 C -125.24359 22.84992 -125.0259 22.503529 -124.7939 22.163529 C -124.2749 22.797529 -124.55399 23.51083 -124.83199 24.17183 C -124.55399 25.11983 -124.00476 26.389689 -124.90376 27.177689 C -125.07276 27.251189 -125.24462 27.286982 -125.415 27.290482 z M 6.3066878 26.846635 C 5.9226878 25.593635 7.359723 25.072908 7.617723 24.001908 C 7.786723 23.393908 7.6737269 22.755232 7.7217269 22.134232 C 8.4167269 23.826232 7.9036878 25.872635 6.3066878 26.846635 z M -125.77828 26.33101 C -125.64145 26.328994 -125.51149 26.281193 -125.39449 26.156693 C -124.91249 25.669693 -125.14155 24.924709 -125.18355 24.322709 C -125.43155 24.554709 -125.67944 24.790623 -125.91744 25.034623 C -126.21444 25.336623 -126.49561 25.653025 -126.74361 25.997025 C -126.49161 26.079025 -126.19744 26.267826 -125.91744 26.317826 C -125.87069 26.326076 -125.82389 26.331681 -125.77828 26.33101 z M 40.731982 26.219681 C 40.219982 25.644681 40.729169 24.944802 41.224169 24.568802 C 41.929169 24.027802 41.842392 23.089689 41.902392 22.302689 C 42.630392 23.684689 42.104982 25.466681 40.731982 26.219681 z M 56.835009 26.213822 C 56.989009 26.060822 57.1439 25.909326 57.2979 25.755326 C 57.6169 25.436326 57.927384 25.107654 58.194384 24.741654 C 57.928384 24.607654 57.6069 24.452783 57.2979 24.423783 C 57.0489 24.399783 56.808888 24.457806 56.610888 24.672806 C 56.109888 25.129806 56.650009 25.733822 56.835009 26.213822 z M -87.901811 26.175736 C -87.886811 25.709736 -88.020725 25.10542 -87.488725 24.87642 C -85.708725 23.79542 -85.075959 21.607209 -85.103959 19.635209 C -85.015959 19.665209 -84.843791 19.726326 -84.756791 19.755326 C -84.536791 22.232326 -85.497811 25.092736 -87.901811 26.175736 z M -31.303176 26.036576 C -31.844176 25.198576 -32.310516 24.312564 -32.851516 23.474564 C -33.714516 24.237564 -34.580122 24.995099 -35.472122 25.723099 C -36.004122 24.863099 -36.440598 23.953013 -36.910598 23.060013 C -36.029598 22.282013 -35.129005 21.524998 -34.227005 20.768998 C -33.781005 21.671998 -33.252837 22.531181 -32.754837 23.407181 C -31.925837 22.693181 -31.034387 22.055162 -30.169387 21.387162 C -29.699387 22.271162 -29.136063 23.103795 -28.662063 23.985795 C -29.543063 24.667795 -30.424176 25.353576 -31.303176 26.036576 z M -93.755326 25.891556 C -94.434326 24.980556 -94.949678 23.930498 -95.240678 22.831498 C -95.425678 22.223498 -95.079713 21.255517 -94.301713 21.476517 C -94.015713 21.756517 -93.83049 22.111709 -93.62349 22.447709 C -93.94049 22.518709 -94.319639 22.472916 -94.575639 22.709916 C -94.891639 23.860916 -93.790326 24.765556 -93.755326 25.891556 z M -41.530716 25.824174 C -45.359716 24.056174 -49.280161 22.473466 -53.012161 20.499466 C -53.519161 20.284466 -53.628036 19.711884 -53.809036 19.252884 C -50.107036 21.149884 -46.320063 22.880213 -42.537063 24.614213 C -42.000063 24.808213 -41.772716 25.356174 -41.530716 25.824174 z M -106.07466 24.973099 C -106.12731 24.970537 -106.19921 24.951756 -106.29146 24.914506 C -109.27046 23.790506 -112.25966 22.689802 -115.24166 21.568802 C -116.17466 21.100802 -117.5524 20.904759 -117.7524 19.674759 C -114.0864 21.338759 -110.21669 22.510349 -106.53169 24.129349 C -106.22982 24.255349 -105.70614 24.991037 -106.07466 24.973099 z M -0.36567563 24.653763 C -0.85867563 23.548763 -0.12339827 22.545224 0.26860173 21.551224 C -1.6033983 21.141224 -1.0479296 23.549588 -1.8759296 24.473588 C -2.1789296 23.587588 -1.6762147 22.758533 -1.5932147 21.892533 C -1.5732147 21.086533 -2.8098945 20.704799 -3.1898945 21.464799 C -3.5658945 22.332799 -3.3455585 23.334748 -3.6205585 24.237748 C -4.1675585 23.369748 -3.7997617 22.332232 -3.7787617 21.384232 C -3.7717617 20.790232 -3.4969062 19.931603 -2.7519062 20.014603 C -2.0609062 19.966603 -1.8117889 20.718802 -1.5067889 21.193802 C -1.2017889 20.898802 -0.93328501 20.4269 -0.46528501 20.4189 C 0.46371499 20.6049 0.76334392 21.736459 0.52934392 22.541459 C 0.28634392 23.266459 -0.075675634 23.947763 -0.36567563 24.653763 z M 36.261278 23.218217 C 35.807278 22.326217 35.373524 21.421509 34.938524 20.518509 C 35.867524 19.848509 36.751755 19.117658 37.699755 18.470658 C 38.238755 19.314658 38.629048 20.240841 39.125048 21.108841 C 38.181048 21.826841 37.248278 22.559217 36.261278 23.218217 z M 58.560595 20.943314 C 57.303595 20.277314 57.605826 18.621705 57.196826 17.468705 C 56.890826 18.700705 56.273392 19.982213 55.027392 20.489213 C 54.851392 20.212213 54.735123 19.904377 54.601123 19.607377 C 54.979123 19.135377 55.39074 18.6289 56.03374 18.5439 C 56.58074 17.8999 56.603248 16.967888 57.179248 16.356888 C 57.707248 17.516888 57.570849 18.868955 58.195849 19.999955 C 58.461849 19.837955 58.726189 19.671373 58.994189 19.503373 C 59.119189 19.798373 59.242654 20.095138 59.370654 20.388138 C 59.104654 20.581138 58.843595 20.780314 58.560595 20.943314 z M 24.218798 20.79683 C 24.273923 20.794455 24.332149 20.784103 24.391649 20.764603 C 24.851649 20.373603 24.797778 19.718783 24.823778 19.173783 C 24.560778 19.320783 24.30513 19.482181 24.05913 19.657181 C 23.79113 19.848181 23.536481 20.055275 23.294481 20.278275 C 23.525481 20.455275 23.76913 20.718181 24.05913 20.782181 C 24.11113 20.794181 24.163673 20.799205 24.218798 20.79683 z M -100.7441 20.398392 L -100.6606 20.319291 C -99.6466 19.357291 -98.598807 18.404087 -97.922807 17.161087 C -98.743807 16.473087 -99.6606 15.85122 -100.6606 15.44722 C -101.2186 15.22122 -101.80069 15.064443 -102.40669 15.000443 C -102.84069 14.956443 -103.52835 15.114384 -103.37935 15.690384 C -102.93235 17.456384 -101.7741 18.931392 -100.7441 20.398392 z M 45.647997 19.614701 C 45.351997 18.690701 44.923853 17.780384 44.799853 16.815384 C 45.332853 15.101384 45.467587 13.295708 45.977587 11.572708 C 46.388587 10.129708 47.028755 8.7156849 47.074755 7.1986849 C 45.216755 5.7676849 42.967099 4.9510988 40.852099 3.9730988 C 40.614099 3.8750988 40.372861 3.7747356 40.132861 3.6757356 C 39.206861 3.2977356 38.266107 2.9368371 37.310107 2.6298371 C 35.749107 2.1288371 34.148884 1.7768605 32.506884 1.7538605 C 32.355884 6.7968605 30.799438 11.855154 27.775438 15.929154 C 27.549438 14.479154 27.013806 12.875396 27.801806 11.502396 C 29.070806 8.4283959 30.168114 5.2551222 30.768114 1.9721222 C 28.111114 2.6221222 26.021751 5.0162669 25.595751 7.6952669 C 25.017751 10.598267 26.342985 13.33231 27.335985 15.96431 C 26.558985 15.34531 26.293579 14.34933 25.894579 13.48433 C 24.854579 10.82733 24.070899 7.9018997 24.672899 5.0438997 C 25.047899 2.8558997 26.425204 0.88136046 28.285204 -0.30863954 C 29.142204 -0.87763954 30.177958 -1.0281747 31.107958 -1.4321747 C 29.109958 -3.8891747 26.443192 -5.7126983 23.848192 -7.4936983 C 22.171192 -8.5286983 20.377704 -9.6492882 18.347704 -9.6982882 C 16.890704 -9.8182882 15.605938 -8.4879639 15.587938 -7.0659639 C 15.392938 -4.8629639 16.47784 -2.8452841 17.48784 -0.96928409 C 17.87784 -0.18728409 18.527751 0.54800504 18.470751 1.477005 C 17.525751 0.63500504 16.989926 -0.53106926 16.400926 -1.6240693 C 15.229926 -3.9960693 14.24009 -6.588878 14.39409 -9.277878 C 14.44709 -10.618878 15.287114 -11.883827 16.518114 -12.425827 C 18.217114 -13.248827 20.206958 -12.647237 21.732958 -11.721237 C 24.722958 -9.9522375 27.512872 -7.8219131 29.944872 -5.3389131 C 30.838872 -4.5069131 30.820032 -3.2049755 31.209032 -2.1279755 C 31.407032 -4.4799755 31.54236 -7.0791046 33.19536 -8.9351046 C 34.22636 -10.131105 35.826107 -10.416136 37.310107 -10.142136 C 37.588107 -10.091136 37.864419 -10.020198 38.130419 -9.9311984 C 38.356419 -11.529198 39.075861 -13.024261 40.132861 -14.220261 C 41.053861 -15.262261 42.23299 -16.078179 43.56499 -16.536179 C 43.81099 -15.617179 44.192411 -14.719089 44.297411 -13.769089 C 43.188411 -12.459089 41.809939 -11.031776 41.837939 -9.1987765 C 42.486939 -7.7267765 43.701306 -6.3790303 45.239306 -5.8340303 C 46.016306 -5.5420303 46.067361 -6.5894288 46.320361 -7.0674288 C 46.951361 -9.0364288 49.208841 -10.450023 51.237841 -9.7510226 C 52.836841 -9.2410226 53.669806 -7.6684561 54.426806 -6.2954561 C 54.774806 -7.7024561 55.820466 -9.1014796 57.378466 -9.1694796 C 58.695466 -9.3304796 59.819939 -8.3179522 60.212939 -7.1289522 C 61.035939 -5.1469522 61.539228 -2.5831083 60.034228 -0.7891083 C 59.798228 -1.6381083 59.607994 -2.4999091 59.418994 -3.3599091 C 59.174994 -4.2959091 59.818775 -5.1347842 59.969775 -6.0317842 C 58.420775 -6.6827842 56.474603 -5.9723584 55.768603 -4.4453584 C 55.941603 -3.4153584 56.566369 -2.5126122 56.653369 -1.4556122 C 55.381369 -2.4826122 54.790939 -4.0589131 53.837939 -5.3389131 C 53.055939 -6.2459131 51.888552 -6.8960967 50.666552 -6.8520967 C 49.093552 -6.9100967 47.670068 -5.7402685 47.145068 -4.3032685 C 46.929068 -3.8002685 46.818197 -3.2364521 46.452197 -2.8164521 C 44.893197 -2.9704521 43.75906 -4.2436045 42.81206 -5.3726045 C 41.57706 -7.1706045 41.107134 -9.4095695 41.038134 -11.56157 C 40.719134 -11.23657 40.405861 -10.893925 40.132861 -10.525925 C 39.832861 -10.121925 39.581946 -9.6875655 39.420946 -9.2075655 C 39.673946 -8.9715655 39.910861 -8.7228897 40.132861 -8.4648897 C 42.576861 -5.6308897 43.227806 -1.5671707 42.426806 2.0468293 C 44.000806 3.0958293 45.915322 3.7309348 47.155322 5.2299348 C 48.142322 6.3829348 48.433779 7.953642 48.448779 9.429642 C 48.323779 11.594642 47.258724 13.563103 46.992724 15.702103 C 47.587724 15.462103 48.156212 15.157974 48.743212 14.894974 C 47.976212 16.626974 46.777997 18.112701 45.647997 19.614701 z M -1.0585467 18.524857 C -1.1725467 17.904857 -1.1682889 17.242908 -0.56928892 16.876908 C 0.49771108 16.043908 0.73266033 14.679763 0.70366033 13.403763 C 1.5856603 15.301763 0.66445325 17.476857 -1.0585467 18.524857 z M -52.310501 16.563431 C -52.803501 15.710431 -53.352497 14.881939 -53.706497 13.958939 C -52.924497 13.080939 -51.848392 12.530494 -50.898392 11.852494 C -50.351392 12.715494 -49.826685 13.593353 -49.323685 14.483353 C -50.344685 15.140353 -51.321501 15.859431 -52.310501 16.563431 z M -74.896927 16.225052 C -73.838677 16.224302 -72.779646 16.208361 -71.721146 16.191361 C -69.604146 16.158361 -67.486048 16.118966 -65.371048 16.186966 C -67.460048 15.306966 -69.713146 14.761662 -71.721146 13.699662 C -72.018146 13.543662 -72.308728 13.37629 -72.592728 13.19429 C -74.208728 12.10329 -74.549154 10.052583 -74.554154 8.2445833 C -76.974154 10.114583 -77.726779 13.279459 -78.069779 16.166459 C -77.012279 16.210459 -75.955177 16.225802 -74.896927 16.225052 z M -126.77584 14.506791 C -126.60976 14.512712 -126.44139 14.49924 -126.27339 14.46724 C -125.58139 14.33524 -124.8959 13.907763 -124.4189 13.403763 C -125.0219 13.247763 -125.65439 13.179912 -126.27339 13.230912 C -126.92239 13.283912 -127.55742 13.465919 -128.12642 13.813919 C -127.75067 14.287169 -127.27407 14.489025 -126.77584 14.506791 z M -131.6523 14.08931 C -131.80727 14.092544 -131.95304 14.070537 -132.09029 14.027787 C -132.89629 13.772787 -133.39837 12.792091 -133.62837 12.015091 C -133.24437 11.395091 -132.66929 10.948415 -132.09029 10.522415 L -131.8105 10.315872 C -131.9035 10.210872 -131.99429 10.10879 -132.09029 10.00679 C -134.20029 7.7647904 -137.02831 6.3902707 -139.36031 4.4242707 C -136.69331 5.6572707 -133.95229 7.0562318 -132.09029 9.3842318 C -131.90729 9.6122318 -131.73527 9.8491459 -131.57027 10.096146 C -131.32727 9.7561459 -131.08213 9.4193334 -130.82613 9.0883334 C -130.43113 9.7363334 -130.55851 10.476013 -130.99751 11.060013 C -130.64151 12.038013 -130.4031 13.482591 -131.4941 14.077591 C -131.54785 14.084591 -131.60064 14.088232 -131.6523 14.08931 z M 57.292041 13.715775 C 56.685041 12.901775 56.176556 12.022622 55.645556 11.159622 C 56.389556 10.379622 57.218771 9.6885248 57.990771 8.9345248 C 57.438771 8.1035248 56.734017 7.3661927 56.293017 6.4691927 C 56.878017 5.6051927 57.791959 5.0496457 58.482959 4.2836457 C 57.999959 3.3566457 57.293314 2.5707043 56.697314 1.7187043 C 57.550314 0.91570426 58.395213 0.10145811 59.243213 -0.70854189 C 59.852213 0.025458107 60.42942 0.78485269 61.00542 1.5458527 C 60.25142 2.3888527 59.427838 3.167634 58.633838 3.971634 C 59.231838 4.861634 59.916252 5.6907981 60.658252 6.4647981 C 59.790252 7.1857981 58.949947 7.9387435 58.170947 8.7587435 C 58.718947 9.6267435 59.289252 10.480712 59.908252 11.301712 C 59.020252 12.090712 58.121041 12.864775 57.292041 13.715775 z M 43.828661 13.604447 C 43.162661 12.661447 42.644048 11.566552 42.500048 10.412552 C 42.414048 9.8915521 42.662626 9.1838568 43.267626 9.1498568 C 43.741626 9.3698568 43.968579 9.8895756 44.269579 10.286576 C 43.978579 10.212576 43.693251 10.13699 43.408251 10.06099 C 42.578251 11.21099 43.643661 12.429447 43.828661 13.604447 z M -132.29683 13.138626 C -132.22624 13.140626 -132.15704 13.132224 -132.09029 13.113724 C -131.47529 12.944724 -131.05476 11.96688 -131.27876 11.27388 C -131.54976 11.46588 -131.82729 11.655212 -132.09029 11.864212 C -132.42329 12.130212 -132.73234 12.425529 -132.96334 12.788529 C -132.73609 13.028529 -132.50861 13.132626 -132.29683 13.138626 z M 36.807665 12.552689 L 36.814989 12.5439 C 37.789989 11.5449 38.721114 10.486326 39.393114 9.2553255 C 38.645114 8.6763255 37.757989 8.0464778 36.814989 7.6864778 C 35.979989 7.3664778 35.101329 7.2597982 34.238329 7.5897982 C 34.280329 9.5197982 35.715665 11.072689 36.807665 12.552689 z M -45.94722 11.166947 C -48.89722 9.9599467 -51.727208 8.4825716 -54.635208 7.1825716 C -55.228208 7.0135716 -55.376212 6.41372 -55.489212 5.88472 C -52.618212 7.25072 -49.769579 8.6583959 -46.890579 10.002396 C -46.378579 10.192396 -46.18222 10.725947 -45.94722 11.166947 z M -78.561967 8.379349 C -80.922967 7.411349 -83.206158 6.2622161 -85.533158 5.2182161 C -86.164158 5.0242161 -86.477607 4.4511223 -86.618607 3.8471223 C -84.256607 4.9261223 -81.934709 6.1000364 -79.572709 7.1840364 C -79.049709 7.3880364 -78.803967 7.911349 -78.561967 8.379349 z M 0.23784001 7.5854036 C 1.04684 6.6724036 2.0068479 5.7667121 2.3208479 4.5517121 C 1.6628479 3.9077121 0.85653531 3.4207551 0.00053531251 3.0707551 C -0.32546469 2.9377551 -0.66055846 2.8234465 -0.99555846 2.7294465 C -1.5275585 2.5354465 -2.4848046 2.8123918 -2.2978046 3.5233918 C -2.0188046 5.0263918 -1.0094647 6.2271263 0.00053531251 7.3261263 L 0.23784001 7.5854036 z M 9.905809 5.6562044 C 9.186809 4.6342044 8.6516136 3.456216 8.4556136 2.218216 C 8.3486136 1.648216 8.8001723 0.89203237 9.4531723 1.0800324 C 9.8341723 1.3840324 10.009399 1.8584152 10.235399 2.2724152 C 9.8443988 2.2654152 9.2255238 1.8977316 9.0635238 2.4467316 C 8.6995238 3.5777316 9.581809 4.6142044 9.905809 5.6562044 z M -106.50386 4.9296418 C -106.32369 4.9332825 -106.14119 4.9134778 -105.95894 4.8739778 C -105.20394 4.7109778 -104.45964 4.2118332 -103.95064 3.6508332 C -104.59964 3.7478332 -105.28694 3.6647629 -105.95894 3.6537629 C -106.67194 3.6417629 -107.36471 3.7106692 -107.96871 4.1576692 C -107.56221 4.6969192 -107.04438 4.91872 -106.50386 4.9296418 z M -40.744095 3.8485871 C -41.463095 2.7235871 -42.244091 1.2845245 -41.765091 -0.06547547 C -41.201091 -0.82847547 -40.649602 0.22910267 -40.389602 0.70210267 C -40.703602 0.74710267 -41.050567 0.70567299 -41.328567 0.88667299 C -41.605567 1.930673 -40.799095 2.8295871 -40.744095 3.8485871 z M -13.398391 3.1659699 C -13.474977 3.1652248 -13.551246 3.1605988 -13.628371 3.1527863 C -13.740371 3.1417863 -13.85475 3.1226574 -13.96675 3.0956574 C -16.10775 2.2346574 -17.436192 -0.39037397 -16.719192 -2.611374 C -16.357192 -3.656374 -15.205434 -4.1259209 -14.167434 -4.0469209 C -13.991434 -4.0409209 -13.812371 -4.0320185 -13.628371 -4.0220185 C -12.133371 -3.9400185 -10.440695 -3.8040772 -9.5106954 -5.2070772 C -10.812695 -6.4640772 -12.187371 -7.6491397 -13.628371 -8.7461397 C -14.961371 -9.7601397 -16.352387 -10.696991 -17.794387 -11.543991 C -19.517387 -12.501991 -21.460235 -13.447613 -23.488235 -13.080613 C -25.199235 -12.803613 -26.718633 -11.443429 -26.971633 -9.6924288 C -27.442633 -6.8834288 -25.807809 -4.3588935 -24.901809 -1.8188935 C -25.666809 -2.4648935 -26.021079 -3.4283389 -26.453079 -4.3003389 C -27.409079 -6.5003389 -28.388364 -8.8556164 -28.045364 -11.309616 C -27.908364 -13.728616 -25.913332 -15.980589 -23.463332 -16.206589 C -22.017332 -16.446589 -20.583457 -15.919894 -19.291457 -15.318894 C -17.232457 -14.305894 -15.396371 -12.913101 -13.628371 -11.456101 C -13.252371 -11.145101 -12.878301 -10.831601 -12.506301 -10.518601 C -11.240301 -9.2676007 -9.5492969 -8.2376866 -9.0272969 -6.4316866 C -8.1802969 -3.7696866 -8.4942931 -0.5484559 -10.423293 1.5795441 C -11.170481 2.4167316 -12.249598 3.1771467 -13.398391 3.1659699 z M 49.088915 3.0209504 C 48.218915 2.8559504 48.093915 1.7809191 47.963915 1.0639191 C 48.177915 1.3719191 48.383869 1.6864894 48.590869 1.9984894 C 48.906869 1.8824894 49.22399 1.7437316 49.56499 1.6967316 C 49.88999 2.2467316 49.701915 2.8189504 49.088915 3.0209504 z M 45.535204 2.4086457 C 45.459204 1.8006457 45.379435 1.0666964 46.046435 0.76069643 C 47.092435 0.30469643 46.931806 -0.99921379 47.676806 -1.7222138 C 47.731806 -1.3452138 47.826177 -0.97088955 47.807177 -0.58988955 C 47.241177 0.53111045 46.920204 2.0216457 45.535204 2.4086457 z M -18.422805 2.2577668 C -19.025805 1.2587668 -19.581887 0.20140732 -19.856887 -0.93559268 C -20.025887 -1.4665927 -19.611024 -2.2198896 -18.997024 -2.0898896 C -18.685024 -1.8158896 -18.478024 -1.4479794 -18.247024 -1.1069794 C -18.561024 -1.0369794 -18.950848 -1.112956 -19.191848 -0.85795596 C -19.424848 0.26704404 -18.436805 1.1577668 -18.422805 2.2577668 z M 41.972704 1.7699738 C 41.310704 0.61197379 40.686861 -0.57120208 40.132861 -1.7852021 C 39.356861 -3.4862021 38.717341 -5.2461475 38.300341 -7.0791475 C 37.980341 -7.1901475 37.646107 -7.2581553 37.310107 -7.2871553 C 36.174107 -7.3821553 35.007286 -7.0092959 34.219286 -6.1562959 C 33.111286 -4.8542959 32.779974 -3.0950341 32.648974 -1.4380341 C 34.253974 -1.2480341 35.801107 -0.81390516 37.310107 -0.25590516 C 38.265107 0.096094837 39.204861 0.49789955 40.132861 0.91889955 C 40.749861 1.1978996 41.363704 1.4839738 41.972704 1.7699738 z M -92.243608 1.7597199 L -92.296342 1.6718293 C -93.018342 0.49682926 -93.940076 -0.74510443 -93.849076 -2.1851044 C -93.624076 -2.8441044 -92.939342 -3.0872334 -92.296342 -2.9922334 C -91.653342 -2.8972334 -91.052096 -2.4639482 -90.994096 -1.7749482 C -90.577096 -0.70094817 -91.430342 0.14100111 -92.296342 0.62300111 C -92.368342 0.66300111 -92.439209 0.70179408 -92.510209 0.73579408 C -92.440209 0.99779408 -92.360342 1.2560207 -92.296342 1.5180207 C -92.277342 1.5990207 -92.258608 1.6787199 -92.243608 1.7597199 z M 24.908739 0.91304018 C 24.296739 0.15604018 23.958016 -0.77445207 23.668016 -1.6914521 C 23.485016 -2.3354521 23.349321 -3.1581318 23.905321 -3.6631318 C 24.647321 -3.9471318 24.934032 -3.0639638 25.209032 -2.5659638 C 24.939032 -2.6469638 24.668438 -2.7300576 24.400438 -2.8120576 C 23.470438 -1.6120576 24.741739 -0.32195982 24.908739 0.91304018 z M -14.022414 0.23481751 C -13.888164 0.22706751 -13.756371 0.20293469 -13.628371 0.16743469 C -12.980371 -0.015565308 -12.418774 -0.52537003 -11.965774 -1.00737 C -12.509774 -1.00737 -13.074371 -1.0346513 -13.628371 -0.99565127 C -14.204371 -0.95565127 -14.76918 -0.84652236 -15.28218 -0.56352236 C -15.37218 -0.090522358 -14.7845 0.084450318 -14.4355 0.20845032 C -14.2945 0.23495032 -14.156664 0.24256751 -14.022414 0.23481751 z M -92.977494 -0.11088563 C -92.751494 -0.27088563 -92.522342 -0.42595986 -92.296342 -0.58695986 C -91.906342 -0.86595986 -91.528893 -1.1609247 -91.210893 -1.5259247 C -91.524893 -1.7249247 -91.913342 -1.8773193 -92.296342 -1.9053193 C -92.678342 -1.9323193 -93.054705 -1.8356435 -93.343705 -1.5376435 C -93.494705 -1.0346435 -93.148494 -0.56288563 -92.977494 -0.11088563 z M -47.467728 -0.49028017 C -47.229728 -1.8862802 -46.870446 -3.3213271 -47.104446 -4.7383271 C -47.349446 -5.1913271 -47.729345 -5.5308467 -48.150345 -5.8208467 C -48.513345 -6.0688467 -48.907415 -6.2816045 -49.272415 -6.4976045 C -48.971415 -5.1096045 -48.599345 -3.7304638 -48.150345 -2.3784638 C -47.939345 -1.7424638 -47.712728 -1.1122802 -47.467728 -0.49028017 z M 41.03081 -0.91801455 C 41.26281 -2.0820146 41.33313 -3.2676826 41.30913 -4.4526826 C 41.37113 -5.2796826 40.794861 -5.7629014 40.132861 -6.1519014 C 39.729861 -6.3879014 39.295661 -6.5880811 38.953661 -6.8110811 C 39.223661 -5.4720811 39.622861 -4.1601591 40.132861 -2.8911591 C 40.402861 -2.2201591 40.70381 -1.5620146 41.03081 -0.91801455 z M -16.97261 -5.1733858 C -18.05661 -5.8073858 -17.8655 -7.239714 -18.1855 -8.284714 C -18.5915 -7.046714 -19.274239 -5.8038154 -20.592239 -5.3638154 C -20.570239 -5.8778154 -20.786383 -6.539085 -20.315383 -6.915085 C -19.953383 -7.284085 -19.290899 -7.2472569 -19.043899 -7.7412569 C -18.725899 -8.3472569 -18.539895 -9.0149327 -18.189895 -9.6089327 C -17.869895 -8.5769327 -18.010176 -7.4025186 -17.428176 -6.4595186 C -17.175176 -6.0885186 -16.708164 -6.4218702 -16.366164 -6.4448702 C -16.247164 -6.1628702 -16.131207 -5.882585 -16.010207 -5.602585 C -16.323207 -5.441585 -16.62961 -5.2633858 -16.97261 -5.1733858 z M -59.791458 -10.269577 C -60.738057 -10.257556 -61.387912 -11.532245 -60.875443 -12.315964 C -60.385443 -13.152964 -59.477908 -13.594491 -58.626908 -13.981491 C -58.547908 -13.862491 -58.386572 -13.621488 -58.307572 -13.502488 C -59.388572 -12.957488 -60.914564 -12.345444 -60.724564 -10.858444 C -59.268564 -10.359444 -57.908794 -11.248952 -56.735794 -12.003952 C -57.458794 -11.094952 -58.512173 -10.346972 -59.699173 -10.273972 C -59.730298 -10.270847 -59.760923 -10.269965 -59.791458 -10.269577 z M -56.765091 -10.3853 C -56.528091 -11.1733 -56.276486 -11.977476 -56.394486 -12.815476 C -56.774486 -12.731476 -57.152275 -12.63755 -57.528275 -12.54155 C -57.904275 -12.98155 -58.186857 -13.556554 -58.024857 -14.145554 C -57.667857 -14.288554 -57.294154 -14.385906 -56.929154 -14.505906 C -57.637154 -14.833906 -58.415169 -15.260011 -59.220169 -15.064011 C -59.624169 -14.847011 -59.808892 -14.378691 -60.085892 -14.035691 C -60.360892 -15.093691 -59.358841 -15.868527 -58.358841 -15.667527 C -58.162841 -15.999527 -57.964212 -16.330577 -57.739212 -16.644577 C -57.398212 -16.178577 -57.065314 -15.710089 -56.693314 -15.269089 C -56.380314 -15.550089 -56.069138 -15.836023 -55.763138 -16.126023 L -55.136185 -15.724656 L -54.912064 -15.582566 C -54.494064 -15.914566 -54.008521 -15.907679 -53.580521 -15.598679 C -52.781521 -16.136679 -51.527712 -15.043503 -52.301712 -14.293503 C -53.101712 -14.029503 -54.013962 -14.201406 -54.832962 -13.943406 C -54.063962 -13.513406 -53.132083 -13.42928 -52.432083 -12.86528 C -53.282083 -12.92328 -54.332185 -12.411964 -55.136185 -12.690964 C -55.356185 -12.767964 -55.556911 -12.903023 -55.730911 -13.126023 C -55.532911 -13.124023 -55.334185 -13.123558 -55.136185 -13.124558 C -54.878185 -13.126558 -54.619282 -13.13239 -54.361282 -13.15239 C -54.573282 -13.31739 -54.862185 -13.504573 -55.136185 -13.540573 C -55.343185 -13.567573 -55.541755 -13.51155 -55.695755 -13.29155 C -56.579755 -12.52655 -55.760091 -11.0043 -56.765091 -10.3853 z M 31.364306 -11.048874 C 30.037306 -11.850874 30.16302 -13.692995 29.77202 -15.022995 C 29.52302 -13.627995 29.064157 -12.155816 27.787157 -11.363816 C 27.066157 -11.978816 27.514177 -12.912757 27.932177 -13.553757 C 28.139177 -13.478757 28.34713 -13.403636 28.55913 -13.329636 C 29.08013 -14.286636 29.107759 -15.4033 29.553759 -16.3853 C 30.348759 -15.0443 30.001126 -13.234687 31.080126 -12.056687 C 31.437126 -12.171687 31.737642 -12.404749 32.058642 -12.595749 C 32.569642 -11.941749 32.250306 -11.047874 31.364306 -11.048874 z M 49.598681 -11.188034 C 49.487681 -11.643034 49.258884 -12.11682 49.381884 -12.59282 C 49.696884 -13.19582 50.512974 -13.42237 50.648974 -14.13237 C 50.815974 -14.83837 50.81431 -15.571831 50.96831 -16.279831 C 51.82031 -15.091831 51.65522 -13.436023 52.70122 -12.376023 C 53.08522 -12.576023 53.468193 -12.783116 53.848193 -12.997116 C 53.995193 -12.708116 54.1449 -12.419788 54.2979 -12.135788 C 53.8479 -11.831788 53.288517 -11.068796 52.730517 -11.593796 C 51.805517 -12.487796 51.738126 -13.863206 51.330126 -15.014206 C 51.088126 -13.622206 50.884681 -12.041034 49.598681 -11.188034 z M -38.135208 -11.491257 C -38.245208 -11.915257 -38.456216 -12.355827 -38.343216 -12.800827 C -37.976216 -13.262827 -37.279407 -13.399745 -37.064407 -13.991745 C -36.740407 -14.826745 -36.741153 -15.761081 -36.304153 -16.561081 C -36.076153 -16.102081 -35.909907 -15.616394 -35.751907 -15.131394 C -35.929907 -15.080394 -36.105251 -15.03005 -36.279251 -14.97905 C -36.323251 -13.60405 -36.854208 -12.166257 -38.135208 -11.491257 z M 60.864795 -11.501511 C 60.767795 -11.518511 60.566357 -11.556753 60.466357 -11.574753 C 59.916357 -12.616753 59.203037 -13.634031 59.063037 -14.834031 C 59.017037 -15.269031 59.381533 -15.941066 59.896533 -15.770066 C 60.279533 -15.533066 60.493002 -15.114788 60.752002 -14.760788 C 60.305002 -14.784788 59.682736 -14.888347 59.679736 -14.258347 C 59.696736 -13.229347 60.399795 -12.376511 60.864795 -11.501511 z M -34.379348 -11.560105 C -35.460348 -11.718105 -35.493497 -13.047882 -35.706497 -13.881882 C -35.405497 -13.413882 -35.127872 -12.930308 -34.815872 -12.468308 C -34.530872 -12.659308 -34.250262 -12.854386 -33.966262 -13.048386 C -33.532262 -12.458386 -33.581348 -11.755105 -34.379348 -11.560105 z M 5.5669417 -12.093308 C 3.8309417 -12.743308 2.2037228 -13.651421 0.49272282 -14.359421 C -0.47127718 -14.848421 -1.9044022 -15.068144 -2.0854022 -16.350144 C 0.10459776 -15.333144 2.265844 -14.24707 4.466844 -13.24907 C 4.997844 -13.05107 5.3099417 -12.568308 5.5669417 -12.093308 z M 14.552293 -12.16655 C 12.257293 -13.18555 9.9513168 -14.185652 7.6763168 -15.245652 C 7.2133168 -15.427652 7.0996253 -15.956609 6.8926253 -16.351609 C 9.1106253 -15.283609 11.337032 -14.235097 13.584032 -13.227097 C 14.072032 -13.056097 14.371293 -12.62955 14.552293 -12.16655 z M -98.672807 -12.280808 C -99.279807 -13.073808 -99.925905 -13.836277 -100.5229 -14.636277 C -99.610905 -15.357277 -98.709619 -16.088359 -97.805619 -16.820359 C -97.183619 -16.057359 -96.617116 -15.251679 -96.014116 -14.473679 C -96.870116 -13.705679 -97.774807 -12.998808 -98.672807 -12.280808 z M -10.575637 -12.441941 C -11.231637 -13.316941 -11.847594 -14.284558 -12.056594 -15.374558 C -12.188594 -15.911558 -11.752629 -16.738445 -11.117629 -16.483445 C -10.747629 -16.189445 -10.543317 -15.752374 -10.297317 -15.361374 C -10.570317 -15.456374 -10.841305 -15.554343 -11.110305 -15.654343 C -12.017305 -14.611343 -10.867637 -13.479941 -10.575637 -12.441941 z M -56.280228 -12.957566 C -56.229228 -13.670566 -55.802185 -14.081566 -55.136185 -14.082566 C -55.087185 -14.082566 -55.036306 -14.081706 -54.985306 -14.076706 C -54.929306 -14.235706 -54.869989 -14.39571 -54.810989 -14.55571 C -53.943989 -14.73971 -52.962568 -14.491503 -52.203568 -15.043503 C -52.639568 -15.161503 -53.092321 -15.162433 -53.526321 -15.046433 C -53.784321 -15.188433 -54.044943 -15.326659 -54.312943 -15.453659 C -54.395943 -15.309659 -54.560532 -15.018581 -54.642532 -14.873581 C -54.808532 -15.021581 -54.973185 -15.172288 -55.136185 -15.323288 L -55.206497 -15.387741 C -55.359497 -15.099741 -55.517036 -14.813667 -55.684036 -14.536667 C -55.728036 -14.842667 -55.765294 -15.148589 -55.798294 -15.456589 C -56.053294 -15.219589 -56.305943 -14.98114 -56.562943 -14.74614 C -56.960943 -15.14514 -57.310208 -15.587921 -57.635208 -16.046921 C -57.781208 -15.883921 -57.925337 -15.720128 -58.067337 -15.559128 C -57.405337 -15.254128 -56.69345 -14.862128 -56.58345 -14.059128 C -57.11745 -13.830128 -58.325458 -13.713538 -57.541458 -12.979538 C -57.359458 -13.113538 -57.175677 -13.24737 -56.990677 -13.38237 C -56.753677 -13.24137 -56.517228 -13.100566 -56.280228 -12.957566 z M 19.608934 -13.33696 C 19.029934 -14.18296 18.019333 -15.280679 18.592333 -16.348679 C 19.140333 -16.497679 19.447899 -15.932652 19.797899 -15.620652 C 19.516899 -15.532652 19.237079 -15.44298 18.957079 -15.35698 C 19.078079 -14.65398 19.379934 -14.00596 19.608934 -13.33696 z M -82.729447 -13.537644 C -83.395447 -13.776644 -83.732045 -14.401558 -84.017045 -14.999558 C -83.747045 -15.164558 -83.474057 -15.330605 -83.204057 -15.497605 C -83.357057 -15.884605 -83.543943 -16.270382 -83.562943 -16.694382 C -82.975943 -16.765382 -82.408119 -16.569398 -81.868119 -16.360398 C -82.332119 -16.283398 -82.797186 -16.222855 -83.261186 -16.153855 C -82.813186 -15.547855 -82.746463 -14.917472 -83.520463 -14.586472 C -83.220463 -14.267472 -82.937447 -13.928644 -82.729447 -13.537644 z M -90.295365 -13.736863 C -90.084365 -14.750863 -89.73501 -15.728679 -89.45601 -16.723679 C -89.35601 -15.686679 -89.441365 -14.459863 -90.295365 -13.736863 z M -67.024857 -13.880417 C -66.866857 -14.823417 -66.411466 -15.69455 -66.374466 -16.66655 C -66.270466 -16.13955 -66.211908 -15.603265 -66.126908 -15.074265 C -65.592908 -14.978265 -65.052771 -14.814519 -64.736771 -14.334519 C -65.239771 -14.349519 -65.740517 -14.406738 -66.226517 -14.533738 C -66.488517 -14.310738 -66.753857 -14.091417 -67.024857 -13.880417 z M -76.227006 -13.933152 C -76.760006 -14.671152 -75.92767 -15.542355 -75.90767 -16.341355 C -75.66867 -15.523355 -75.879006 -14.685152 -76.227006 -13.933152 z M -56.313919 -13.974167 C -56.359919 -14.248167 -56.404825 -14.522339 -56.442825 -14.800339 C -56.204825 -14.761339 -55.964052 -14.725081 -55.725052 -14.686081 C -55.916052 -14.442081 -56.111919 -14.204167 -56.313919 -13.974167 z M -53.794388 -16.052781 C -54.293388 -16.120781 -54.88513 -16.077589 -55.18013 -16.581589 C -55.01213 -16.594589 -54.675302 -16.618394 -54.506302 -16.631394 C -54.496302 -16.849394 -54.484751 -17.066714 -54.466751 -17.284714 C -54.238751 -16.877714 -54.016388 -16.465781 -53.794388 -16.052781 z M -55.711868 -16.225632 C -56.785868 -16.607632 -57.707333 -17.308495 -58.713333 -17.835495 C -57.612333 -17.540495 -56.461868 -17.130632 -55.711868 -16.225632 z "
     transform="matrix(1.3333333,0,0,-1.3333333,188.27663,49.46934)" />
</svg>
