<?xml version="1.0" encoding="UTF-8" standalone="no"?>
<!-- Created with Inkscape (http://www.inkscape.org/) -->

<svg
   version="1.1"
   id="svg1"
   width="306.30579"
   height="79.254639"
   viewBox="0 0 306.30577 79.254638"
   sodipodi:docname="s6.svg"
   inkscape:version="1.4 (1:1.4+202410161351+e7c3feb100)"
   xmlns:inkscape="http://www.inkscape.org/namespaces/inkscape"
   xmlns:sodipodi="http://sodipodi.sourceforge.net/DTD/sodipodi-0.dtd"
   xmlns="http://www.w3.org/2000/svg"
   xmlns:svg="http://www.w3.org/2000/svg">
  <defs
     id="defs1">
    <clipPath
       clipPathUnits="userSpaceOnUse"
       id="clipPath4150">
      <path
         d="M 0,595 H 842 V 0 H 0 Z"
         transform="translate(-521.56451,-211.7207)"
         id="path4150" />
    </clipPath>
    <clipPath
       clipPathUnits="userSpaceOnUse"
       id="clipPath4152">
      <path
         d="M 0,595 H 842 V 0 H 0 Z"
         transform="translate(-529.49122,-208.71481)"
         id="path4152" />
    </clipPath>
    <clipPath
       clipPathUnits="userSpaceOnUse"
       id="clipPath4154">
      <path
         d="M 0,595 H 842 V 0 H 0 Z"
         transform="translate(-391.81301,-168.50491)"
         id="path4154" />
    </clipPath>
    <clipPath
       clipPathUnits="userSpaceOnUse"
       id="clipPath4156">
      <path
         d="M 0,595 H 842 V 0 H 0 Z"
         transform="translate(-561.08891,-204.77051)"
         id="path4156" />
    </clipPath>
    <clipPath
       clipPathUnits="userSpaceOnUse"
       id="clipPath4158">
      <path
         d="M 0,595 H 842 V 0 H 0 Z"
         transform="translate(-566.03122,-201.58111)"
         id="path4158" />
    </clipPath>
    <clipPath
       clipPathUnits="userSpaceOnUse"
       id="clipPath4160">
      <path
         d="M 0,595 H 842 V 0 H 0 Z"
         transform="translate(-393.20611,-201.38671)"
         id="path4160" />
    </clipPath>
    <clipPath
       clipPathUnits="userSpaceOnUse"
       id="clipPath4162">
      <path
         d="M 0,595 H 842 V 0 H 0 Z"
         transform="translate(-546.24611,-206.2148)"
         id="path4162" />
    </clipPath>
    <clipPath
       clipPathUnits="userSpaceOnUse"
       id="clipPath4164">
      <path
         d="M 0,595 H 842 V 0 H 0 Z"
         transform="translate(-444.26661,-205.4717)"
         id="path4164" />
    </clipPath>
    <clipPath
       clipPathUnits="userSpaceOnUse"
       id="clipPath4166">
      <path
         d="M 0,595 H 842 V 0 H 0 Z"
         transform="translate(-407.16021,-204.374)"
         id="path4166" />
    </clipPath>
    <clipPath
       clipPathUnits="userSpaceOnUse"
       id="clipPath4168">
      <path
         d="M 0,595 H 842 V 0 H 0 Z"
         transform="translate(-475.61721,-200.16601)"
         id="path4168" />
    </clipPath>
    <clipPath
       clipPathUnits="userSpaceOnUse"
       id="clipPath4170">
      <path
         d="M 0,595 H 842 V 0 H 0 Z"
         transform="translate(-388.56451,-203.54)"
         id="path4170" />
    </clipPath>
    <clipPath
       clipPathUnits="userSpaceOnUse"
       id="clipPath4172">
      <path
         d="M 0,595 H 842 V 0 H 0 Z"
         transform="translate(-493.62011,-194.11621)"
         id="path4172" />
    </clipPath>
    <clipPath
       clipPathUnits="userSpaceOnUse"
       id="clipPath4174">
      <path
         d="M 0,595 H 842 V 0 H 0 Z"
         transform="translate(-561.61331,-202.94731)"
         id="path4174" />
    </clipPath>
    <clipPath
       clipPathUnits="userSpaceOnUse"
       id="clipPath4176">
      <path
         d="M 0,595 H 842 V 0 H 0 Z"
         transform="translate(-526.07422,-196.4414)"
         id="path4176" />
    </clipPath>
    <clipPath
       clipPathUnits="userSpaceOnUse"
       id="clipPath4178">
      <path
         d="M 0,595 H 842 V 0 H 0 Z"
         transform="translate(-584.76172,-201.11041)"
         id="path4178" />
    </clipPath>
    <clipPath
       clipPathUnits="userSpaceOnUse"
       id="clipPath4180">
      <path
         d="M 0,595 H 842 V 0 H 0 Z"
         transform="translate(-459.53421,-196.9111)"
         id="path4180" />
    </clipPath>
    <clipPath
       clipPathUnits="userSpaceOnUse"
       id="clipPath4182">
      <path
         d="M 0,595 H 842 V 0 H 0 Z"
         transform="translate(-437.18361,-198.3662)"
         id="path4182" />
    </clipPath>
    <clipPath
       clipPathUnits="userSpaceOnUse"
       id="clipPath4184">
      <path
         d="M 0,595 H 842 V 0 H 0 Z"
         transform="translate(-442.65721,-197.62891)"
         id="path4184" />
    </clipPath>
    <clipPath
       clipPathUnits="userSpaceOnUse"
       id="clipPath4186">
      <path
         d="M 0,595 H 842 V 0 H 0 Z"
         transform="translate(-511.20611,-195.54391)"
         id="path4186" />
    </clipPath>
    <clipPath
       clipPathUnits="userSpaceOnUse"
       id="clipPath4188">
      <path
         d="M 0,595 H 842 V 0 H 0 Z"
         transform="translate(-577.25981,-191.3984)"
         id="path4188" />
    </clipPath>
    <clipPath
       clipPathUnits="userSpaceOnUse"
       id="clipPath4190">
      <path
         d="M 0,595 H 842 V 0 H 0 Z"
         transform="translate(-425.00591,-196.124)"
         id="path4190" />
    </clipPath>
    <clipPath
       clipPathUnits="userSpaceOnUse"
       id="clipPath4192">
      <path
         d="M 0,595 H 842 V 0 H 0 Z"
         transform="translate(-552.75391,-193.58011)"
         id="path4192" />
    </clipPath>
    <clipPath
       clipPathUnits="userSpaceOnUse"
       id="clipPath4194">
      <path
         d="M 0,595 H 842 V 0 H 0 Z"
         transform="translate(-517.28611,-191.97751)"
         id="path4194" />
    </clipPath>
    <clipPath
       clipPathUnits="userSpaceOnUse"
       id="clipPath4196">
      <path
         d="M 0,595 H 842 V 0 H 0 Z"
         transform="translate(-376.77391,-192.0059)"
         id="path4196" />
    </clipPath>
    <clipPath
       clipPathUnits="userSpaceOnUse"
       id="clipPath4198">
      <path
         d="M 0,595 H 842 V 0 H 0 Z"
         transform="translate(-593.59181,-192.0137)"
         id="path4198" />
    </clipPath>
    <clipPath
       clipPathUnits="userSpaceOnUse"
       id="clipPath4200">
      <path
         d="M 0,595 H 842 V 0 H 0 Z"
         transform="translate(-482.08791,-191.6504)"
         id="path4200" />
    </clipPath>
    <clipPath
       clipPathUnits="userSpaceOnUse"
       id="clipPath4202">
      <path
         d="M 0,595 H 842 V 0 H 0 Z"
         transform="translate(-417.82571,-187.6514)"
         id="path4202" />
    </clipPath>
    <clipPath
       clipPathUnits="userSpaceOnUse"
       id="clipPath4204">
      <path
         d="M 0,595 H 842 V 0 H 0 Z"
         transform="translate(-567.38281,-191.4824)"
         id="path4204" />
    </clipPath>
    <clipPath
       clipPathUnits="userSpaceOnUse"
       id="clipPath4206">
      <path
         d="M 0,595 H 842 V 0 H 0 Z"
         transform="translate(-590.08691,-190.9648)"
         id="path4206" />
    </clipPath>
    <clipPath
       clipPathUnits="userSpaceOnUse"
       id="clipPath4208">
      <path
         d="M 0,595 H 842 V 0 H 0 Z"
         transform="translate(-445.17581,-189.6436)"
         id="path4208" />
    </clipPath>
    <clipPath
       clipPathUnits="userSpaceOnUse"
       id="clipPath4210">
      <path
         d="M 0,595 H 842 V 0 H 0 Z"
         transform="translate(-529.87991,-189.2627)"
         id="path4210" />
    </clipPath>
    <clipPath
       clipPathUnits="userSpaceOnUse"
       id="clipPath4212">
      <path
         d="M 0,595 H 842 V 0 H 0 Z"
         transform="translate(-382.51811,-188.78221)"
         id="path4212" />
    </clipPath>
    <clipPath
       clipPathUnits="userSpaceOnUse"
       id="clipPath4214">
      <path
         d="M 0,595 H 842 V 0 H 0 Z"
         transform="translate(-425.44921,-182.7109)"
         id="path4214" />
    </clipPath>
    <clipPath
       clipPathUnits="userSpaceOnUse"
       id="clipPath4216">
      <path
         d="M 0,595 H 842 V 0 H 0 Z"
         transform="translate(-469.26561,-184.7012)"
         id="path4216" />
    </clipPath>
    <clipPath
       clipPathUnits="userSpaceOnUse"
       id="clipPath4218">
      <path
         d="M 0,595 H 842 V 0 H 0 Z"
         transform="translate(-376.40091,-185.1943)"
         id="path4218" />
    </clipPath>
    <clipPath
       clipPathUnits="userSpaceOnUse"
       id="clipPath4220">
      <path
         d="M 0,595 H 842 V 0 H 0 Z"
         transform="translate(-516.26071,-186.6611)"
         id="path4220" />
    </clipPath>
    <clipPath
       clipPathUnits="userSpaceOnUse"
       id="clipPath4222">
      <path
         d="M 0,595 H 842 V 0 H 0 Z"
         transform="translate(-586.84282,-181.3682)"
         id="path4222" />
    </clipPath>
    <clipPath
       clipPathUnits="userSpaceOnUse"
       id="clipPath4224">
      <path
         d="M 0,595 H 842 V 0 H 0 Z"
         transform="translate(-481.65531,-184.3457)"
         id="path4224" />
    </clipPath>
    <clipPath
       clipPathUnits="userSpaceOnUse"
       id="clipPath4226">
      <path
         d="M 0,595 H 842 V 0 H 0 Z"
         transform="translate(-444.94041,-183.9893)"
         id="path4226" />
    </clipPath>
    <clipPath
       clipPathUnits="userSpaceOnUse"
       id="clipPath4228">
      <path
         d="M 0,595 H 842 V 0 H 0 Z"
         transform="translate(-418.15481,-181.23241)"
         id="path4228" />
    </clipPath>
    <clipPath
       clipPathUnits="userSpaceOnUse"
       id="clipPath4230">
      <path
         d="M 0,595 H 842 V 0 H 0 Z"
         transform="translate(-382.89551,-182.05471)"
         id="path4230" />
    </clipPath>
    <clipPath
       clipPathUnits="userSpaceOnUse"
       id="clipPath4232">
      <path
         d="M 0,595 H 842 V 0 H 0 Z"
         transform="translate(-507.99121,-181.2275)"
         id="path4232" />
    </clipPath>
    <clipPath
       clipPathUnits="userSpaceOnUse"
       id="clipPath4234">
      <path
         d="M 0,595 H 842 V 0 H 0 Z"
         transform="translate(-458.66311,-179.83201)"
         id="path4234" />
    </clipPath>
    <clipPath
       clipPathUnits="userSpaceOnUse"
       id="clipPath4236">
      <path
         d="M 0,595 H 842 V 0 H 0 Z"
         transform="translate(-502.72751,-177.7627)"
         id="path4236" />
    </clipPath>
    <clipPath
       clipPathUnits="userSpaceOnUse"
       id="clipPath4238">
      <path
         d="M 0,595 H 842 V 0 H 0 Z"
         transform="translate(-547.87012,-173.9189)"
         id="path4238" />
    </clipPath>
    <clipPath
       clipPathUnits="userSpaceOnUse"
       id="clipPath4240">
      <path
         d="M 0,595 H 842 V 0 H 0 Z"
         transform="translate(-402.64261,-173.16211)"
         id="path4240" />
    </clipPath>
    <clipPath
       clipPathUnits="userSpaceOnUse"
       id="clipPath4242">
      <path
         d="M 0,595 H 842 V 0 H 0 Z"
         transform="translate(-458.80861,-167.4316)"
         id="path4242" />
    </clipPath>
    <clipPath
       clipPathUnits="userSpaceOnUse"
       id="clipPath4244">
      <path
         d="M 0,595 H 842 V 0 H 0 Z"
         transform="translate(-586.55761,-169.1221)"
         id="path4244" />
    </clipPath>
    <clipPath
       clipPathUnits="userSpaceOnUse"
       id="clipPath4246">
      <path
         d="M 0,595 H 842 V 0 H 0 Z"
         transform="translate(-385.19341,-168.8506)"
         id="path4246" />
    </clipPath>
    <clipPath
       clipPathUnits="userSpaceOnUse"
       id="clipPath4248">
      <path
         d="M 0,595 H 842 V 0 H 0 Z"
         transform="translate(-569.46001,-168.418)"
         id="path4248" />
    </clipPath>
    <clipPath
       clipPathUnits="userSpaceOnUse"
       id="clipPath4250">
      <path
         d="M 0,595 H 842 V 0 H 0 Z"
         transform="translate(-559.67872,-164.92291)"
         id="path4250" />
    </clipPath>
    <clipPath
       clipPathUnits="userSpaceOnUse"
       id="clipPath4252">
      <path
         d="M 0,595 H 842 V 0 H 0 Z"
         transform="translate(-568.62502,-164.1758)"
         id="path4252" />
    </clipPath>
    <clipPath
       clipPathUnits="userSpaceOnUse"
       id="clipPath4254">
      <path
         d="M 0,595 H 842 V 0 H 0 Z"
         transform="translate(-406.16061,-163.9375)"
         id="path4254" />
    </clipPath>
    <clipPath
       clipPathUnits="userSpaceOnUse"
       id="clipPath4256">
      <path
         d="M 0,595 H 842 V 0 H 0 Z"
         transform="translate(-529.19141,-164.61331)"
         id="path4256" />
    </clipPath>
    <clipPath
       clipPathUnits="userSpaceOnUse"
       id="clipPath4258">
      <path
         d="M 0,595 H 842 V 0 H 0 Z"
         transform="translate(-422.40431,-162.3701)"
         id="path4258" />
    </clipPath>
    <clipPath
       clipPathUnits="userSpaceOnUse"
       id="clipPath4260">
      <path
         d="M 0,595 H 842 V 0 H 0 Z"
         transform="translate(-530.14552,-157.0195)"
         id="path4260" />
    </clipPath>
    <clipPath
       clipPathUnits="userSpaceOnUse"
       id="clipPath4262">
      <path
         d="M 0,595 H 842 V 0 H 0 Z"
         transform="translate(-519.74321,-161.51761)"
         id="path4262" />
    </clipPath>
    <clipPath
       clipPathUnits="userSpaceOnUse"
       id="clipPath4264">
      <path
         d="M 0,595 H 842 V 0 H 0 Z"
         transform="translate(-443.46871,-155.09281)"
         id="path4264" />
    </clipPath>
    <clipPath
       clipPathUnits="userSpaceOnUse"
       id="clipPath4266">
      <path
         d="M 0,595 H 842 V 0 H 0 Z"
         transform="translate(-479.31351,-160.06741)"
         id="path4266" />
    </clipPath>
    <clipPath
       clipPathUnits="userSpaceOnUse"
       id="clipPath4268">
      <path
         d="M 0,595 H 842 V 0 H 0 Z"
         transform="translate(-476.31541,-159.63571)"
         id="path4268" />
    </clipPath>
    <clipPath
       clipPathUnits="userSpaceOnUse"
       id="clipPath4270">
      <path
         d="M 0,595 H 842 V 0 H 0 Z"
         transform="translate(-469.04101,-156.52441)"
         id="path4270" />
    </clipPath>
    <clipPath
       clipPathUnits="userSpaceOnUse"
       id="clipPath4272">
      <path
         d="M 0,595 H 842 V 0 H 0 Z"
         transform="translate(-464.81051,-157.1855)"
         id="path4272" />
    </clipPath>
  </defs>
  <sodipodi:namedview
     id="namedview1"
     pagecolor="#ffffff"
     bordercolor="#000000"
     borderopacity="0.25"
     inkscape:showpageshadow="2"
     inkscape:pageopacity="0.0"
     inkscape:pagecheckerboard="0"
     inkscape:deskcolor="#d1d1d1"
     inkscape:zoom="0.2998164"
     inkscape:cx="215.13166"
     inkscape:cy="146.75648"
     inkscape:window-width="1190"
     inkscape:window-height="788"
     inkscape:window-x="50"
     inkscape:window-y="61"
     inkscape:window-maximized="1"
     inkscape:current-layer="svg1">
    <inkscape:page
       x="6.8290621e-15"
       y="0"
       width="306.30576"
       height="79.254639"
       id="page2"
       margin="0"
       bleed="0" />
  </sodipodi:namedview>
  <path
     id="path4149"
     clip-path="url(#clipPath4150)"
     style="fill:#231f20;fill-opacity:1;fill-rule:nonzero;stroke:none"
     d="M 0.84340924 0.11646282 C 0.55440924 0.13446282 0.27165922 0.077275312 -0.00034078126 -0.00072468752 C -5.3293408 -1.4467247 -10.661333 -2.8775021 -15.917333 -4.5725021 C -25.443333 -7.4915021 -34.701486 -11.198409 -43.973486 -14.826409 C -51.896486 -18.179409 -59.80496 -21.602151 -67.43296 -25.587151 C -68.28596 -26.365151 -68.194643 -27.709296 -68.758643 -28.685296 C -68.550643 -28.774296 -68.372354 -28.565725 -68.187354 -28.500725 C -62.202354 -25.241725 -55.970197 -22.47921 -49.777197 -19.64721 C -42.228197 -16.42721 -34.46449 -13.746819 -26.82749 -10.746819 C -18.73349 -7.7298187 -10.497337 -5.0926076 -2.1463369 -2.8806076 C -1.6543369 -2.7196076 -1.0007197 -2.7554708 -0.71371971 -2.2404708 C -0.19071971 -1.4574708 0.33640924 -0.67653718 0.84340924 0.11646282 z M 7.9273938 -3.0065841 C 7.6273938 -4.6985841 6.6772102 -6.2666038 6.7892102 -8.0266038 C 6.9232102 -8.5436038 7.4011008 -9.1468187 8.0021008 -8.8718187 C 8.0341008 -8.8658187 8.0648508 -8.8583108 8.0958508 -8.8513108 C 9.2308508 -8.5623108 9.6823391 -7.1862795 9.4713391 -6.1442795 C 9.2083391 -5.5832795 8.5978508 -5.4391584 8.0958508 -5.1701584 C 7.9608508 -5.0981584 7.8323157 -5.0162756 7.7223157 -4.9152756 C 7.7413157 -4.3172756 8.3243938 -3.4485841 7.9273938 -3.0065841 z M 39.405422 -3.0959396 C 38.360422 -4.2559396 39.993074 -5.6619436 39.524074 -6.9499436 C 38.986074 -7.1709436 38.474254 -6.7306702 37.933254 -6.7946702 C 37.082254 -7.1706702 36.635395 -8.1051038 36.427395 -8.9641038 C 36.735395 -8.6891038 36.899777 -8.2797171 37.244777 -8.0427171 C 37.834777 -7.7577171 38.464606 -8.4405218 39.043606 -8.0925218 C 39.567606 -7.8065218 39.664102 -7.1790178 39.877102 -6.6760178 C 40.138102 -6.9580178 40.337973 -7.2918694 40.569973 -7.5988694 C 40.531973 -7.8118694 40.49032 -8.0236116 40.45132 -8.2346116 C 40.68132 -8.1726116 40.777113 -7.9165374 40.939113 -7.7585374 C 41.566113 -7.7215374 42.272004 -7.601846 42.902004 -7.349846 C 43.761004 -7.006846 44.477887 -6.41276 44.656887 -5.43676 C 45.186887 -4.51676 43.686926 -3.9900334 43.071926 -4.4670334 C 43.013926 -4.5160334 42.958004 -4.5663771 42.902004 -4.6193771 C 42.316004 -5.1613771 41.828859 -5.7996975 41.303859 -6.3976975 C 39.912859 -6.0036975 40.019422 -4.1719396 39.405422 -3.0959396 z M -82.331886 -3.0988693 C -83.499886 -3.2238693 -84.631902 -3.5061935 -85.747902 -3.8561935 C -86.264902 -4.0181935 -86.778382 -4.1947482 -87.290382 -4.3747482 C -87.946382 -4.6067482 -88.598808 -4.8464787 -89.251808 -5.0734787 C -94.953808 -7.2834787 -100.54373 -9.7678695 -106.02573 -12.47387 C -108.18973 -13.53987 -110.33519 -14.642627 -112.46519 -15.775627 C -113.75219 -16.495627 -115.0364 -17.223034 -116.3104 -17.967034 C -118.3444 -19.155034 -120.35175 -20.388964 -122.29575 -21.719964 C -123.03975 -22.208964 -122.92408 -23.165569 -123.05308 -23.965569 C -123.09408 -24.224569 -123.16085 -24.466159 -123.29185 -24.670159 C -124.04585 -20.250159 -124.48662 -15.76728 -125.50962 -11.39428 C -125.56962 -11.21328 -125.60631 -10.976022 -125.81431 -10.905022 C -126.26931 -11.726022 -126.50297 -12.697702 -126.61997 -13.626702 C -125.47397 -21.028702 -124.54873 -28.466144 -123.44273 -35.879144 C -123.38673 -36.620144 -122.91205 -37.534792 -123.55405 -38.143792 C -124.24405 -38.742792 -125.05917 -39.240999 -125.92417 -39.530999 C -126.90417 -38.322999 -128.08581 -36.759878 -129.75181 -36.681878 C -129.89481 -36.674878 -130.0398 -36.679062 -130.1898 -36.695062 C -131.6168 -37.364062 -132.07681 -39.14287 -132.10581 -40.59887 C -132.21981 -41.61487 -131.67187 -42.761288 -130.66587 -43.102288 C -130.35887 -43.188288 -130.05381 -43.220081 -129.75181 -43.215081 C -128.63681 -43.198081 -127.54745 -42.689366 -126.45445 -42.557366 C -126.02945 -43.064366 -126.65145 -43.519093 -126.93345 -43.902093 C -127.80545 -44.884093 -128.73981 -45.86482 -129.75181 -46.74682 C -131.59181 -48.35182 -133.68846 -49.63521 -136.14146 -50.02221 C -138.29946 -50.47621 -140.79476 -49.323554 -141.52476 -47.174554 C -141.90476 -45.769554 -141.95801 -44.242616 -141.53501 -42.838616 C -141.34301 -42.201616 -141.35513 -41.20362 -140.53013 -41.06762 C -137.29813 -40.03762 -134.38601 -38.228593 -131.68101 -36.214593 C -131.00301 -35.650593 -130.32181 -35.070257 -129.75181 -34.395257 C -129.64881 -34.273257 -129.54798 -34.149257 -129.45298 -34.020257 C -128.75298 -32.775257 -128.63401 -31.296257 -128.68101 -29.895257 C -128.75101 -28.739257 -129.27981 -27.720249 -129.75181 -26.687249 C -130.00381 -26.133249 -130.24023 -25.575495 -130.38023 -24.989495 C -130.16523 -25.102495 -129.96181 -25.234776 -129.75181 -25.352776 C -129.70481 -25.377776 -129.65772 -25.403483 -129.60972 -25.427483 C -129.63672 -25.243483 -129.68681 -25.06728 -129.75181 -24.89428 C -130.03481 -24.14628 -130.61816 -23.484538 -130.96616 -22.758538 C -131.35016 -22.306538 -131.50278 -21.549229 -132.02378 -21.292229 C -132.18778 -22.125229 -132.36393 -22.955717 -132.49693 -23.792717 C -132.30893 -24.272717 -132.06558 -24.735378 -131.96958 -25.244378 C -131.57158 -27.319378 -130.51581 -29.173401 -129.75181 -31.118401 L -129.71079 -31.22094 C -129.61379 -31.47394 -129.64781 -31.69012 -129.75181 -31.88012 C -129.97581 -32.29012 -130.52905 -32.587976 -130.84605 -32.906976 C -134.03105 -35.290976 -137.48826 -37.554702 -141.44126 -38.376702 C -143.54326 -38.894702 -145.98109 -38.529597 -147.63609 -37.068597 C -149.59309 -35.532597 -150.1228 -32.850448 -150.0648 -30.491448 C -149.8908 -29.087448 -149.67997 -27.646237 -149.01597 -26.375237 C -148.87097 -26.078237 -148.67377 -25.786132 -148.69077 -25.442132 C -149.13177 -25.425132 -149.24356 -25.955796 -149.44956 -26.247796 C -151.25356 -29.848796 -151.90383 -34.41328 -149.77183 -38.01928 C -148.18883 -40.82128 -144.67237 -41.935843 -141.62437 -41.370843 C -142.87137 -44.355843 -143.38308 -48.007031 -141.53208 -50.863031 C -140.69008 -52.099031 -139.26918 -52.934996 -137.75718 -52.926996 C -135.20918 -53.140996 -132.82752 -51.910792 -130.78452 -50.518792 C -130.43852 -50.232792 -130.09281 -49.941281 -129.75181 -49.644281 C -128.48481 -48.542281 -127.28613 -47.352366 -126.38413 -45.932366 C -125.58813 -44.783366 -125.57717 -43.333331 -125.44517 -41.996331 C -124.77517 -41.557331 -123.95457 -41.256136 -123.51157 -40.546136 C -123.26657 -40.181136 -123.14008 -39.772358 -123.05308 -39.349358 C -122.97908 -38.991358 -122.93397 -38.624769 -122.86997 -38.269769 C -122.82297 -38.286769 -122.72654 -38.319151 -122.67954 -38.337151 C -122.44354 -39.459151 -122.28125 -40.604109 -121.90025 -41.693109 C -121.70925 -42.172109 -122.30888 -42.404566 -122.62388 -42.611566 C -122.76688 -42.692566 -122.91008 -42.777448 -123.05308 -42.866448 C -124.60808 -43.846448 -126.08609 -45.360433 -125.88609 -47.325433 C -126.33909 -47.991433 -127.1238 -48.394644 -127.3978 -49.191644 C -127.8228 -49.847644 -127.86581 -51.05221 -126.85581 -51.14721 C -126.07481 -50.81421 -125.35557 -50.361277 -124.63657 -49.915277 C -124.58357 -50.737277 -125.04964 -51.665812 -124.80064 -52.538812 C -124.55564 -53.374812 -124.10399 -54.229749 -123.28599 -54.624749 C -123.24299 -54.818749 -123.20991 -55.012687 -123.18491 -55.210687 C -123.96591 -55.255687 -124.53992 -54.524171 -124.78892 -53.857171 C -124.94392 -53.496171 -124.71898 -52.886398 -125.22398 -52.764398 C -126.11898 -52.743398 -126.63341 -53.850394 -127.49741 -53.785394 C -127.97241 -52.907394 -127.20946 -51.99541 -126.87046 -51.20141 C -127.64746 -51.63341 -127.94089 -52.618972 -128.18589 -53.427972 C -128.28289 -53.892972 -128.37165 -54.723179 -127.73765 -54.815179 C -126.93765 -54.626179 -126.39729 -53.793097 -125.56529 -53.756097 C -125.27329 -54.355097 -125.26997 -55.108617 -124.74497 -55.588617 C -124.33397 -56.126617 -123.68408 -56.172667 -123.05308 -56.190667 C -122.84108 -56.195667 -122.63191 -56.197105 -122.43491 -56.214105 C -122.43191 -56.587105 -122.73408 -56.745382 -123.05308 -56.848382 C -123.19608 -56.894382 -123.3417 -56.930035 -123.4647 -56.967035 C -125.0467 -57.418035 -126.77097 -57.181097 -128.28697 -57.881097 C -128.66297 -58.054097 -129.16414 -58.227875 -129.21714 -58.702875 C -127.32514 -57.611875 -124.98408 -58.271191 -123.05308 -57.377191 C -122.98308 -57.346191 -122.91407 -57.312117 -122.84507 -57.276117 C -122.23507 -57.038117 -122.18981 -56.126335 -121.60581 -55.975335 C -121.40881 -56.326335 -121.33354 -56.957089 -120.80454 -56.923089 C -120.16854 -57.047089 -119.92731 -56.315425 -119.43931 -56.117425 C -119.25031 -57.205425 -117.64166 -57.137035 -117.27866 -56.217035 C -116.95266 -55.482035 -116.77438 -54.364636 -117.56138 -53.858636 C -118.22438 -53.429636 -119.04508 -53.577691 -119.78208 -53.439691 C -119.39108 -52.781691 -118.49736 -52.304023 -118.64536 -51.405023 C -119.59836 -51.043023 -120.6957 -51.549796 -121.6937 -51.372796 C -122.1687 -51.150796 -122.7079 -50.84032 -122.8729 -50.30932 C -122.2699 -50.19532 -121.70205 -50.605441 -121.09605 -50.533441 C -120.62805 -50.449441 -120.26052 -50.074605 -120.07652 -49.651605 C -120.54452 -49.676605 -121.01284 -49.719788 -121.47984 -49.664788 C -121.60984 -49.195788 -121.10512 -48.654835 -121.57212 -48.287835 C -121.99612 -47.913835 -122.54108 -47.969097 -123.05308 -48.131097 C -123.29408 -48.207097 -123.52616 -48.307699 -123.73716 -48.397699 C -123.57616 -47.613699 -123.34048 -46.847089 -123.26548 -46.048089 C -123.32948 -45.751089 -123.3232 -45.217468 -123.7562 -45.261468 C -124.2782 -45.496468 -124.86968 -46.039491 -124.81968 -46.635491 C -124.50868 -46.460491 -124.2014 -46.030265 -123.8104 -46.228265 C -123.7714 -47.100265 -123.95811 -47.977882 -124.26011 -48.785882 C -124.94411 -49.329882 -125.69691 -49.894988 -126.55991 -50.093988 C -127.28291 -50.155988 -127.22097 -49.210179 -126.89097 -48.815179 C -126.56197 -48.427179 -126.27979 -47.827941 -125.75279 -47.720941 C -125.53179 -48.162941 -125.39882 -48.65416 -125.08482 -49.04516 C -124.61382 -49.05716 -124.36236 -48.330894 -124.64536 -47.972894 C -125.22136 -47.025894 -125.44204 -45.708421 -124.74204 -44.763421 C -124.33304 -44.069421 -123.70908 -43.597347 -123.05308 -43.162347 C -122.64208 -42.890347 -122.21754 -42.632429 -121.82554 -42.346429 C -121.54554 -42.395429 -121.47335 -42.69507 -121.33335 -42.90307 C -120.78835 -43.83507 -119.80573 -44.410812 -118.77573 -44.663812 C -119.39273 -47.334812 -119.21593 -50.367519 -117.49693 -52.613519 C -117.17293 -53.050519 -116.7664 -53.410249 -116.3104 -53.687249 C -115.2034 -54.357249 -113.80201 -54.539999 -112.55601 -54.155999 C -110.08101 -53.521999 -107.94473 -52.124058 -106.02573 -50.466058 C -105.05773 -49.629058 -104.14483 -48.72655 -103.27183 -47.82055 C -101.98883 -46.56055 -101.45189 -44.720339 -101.56089 -42.954339 C -101.65989 -42.463339 -101.14512 -42.256472 -100.84312 -41.990472 C -100.31412 -41.635472 -99.903777 -41.096401 -99.294777 -40.868401 C -98.844777 -42.218401 -98.59482 -44.012062 -97.06382 -44.570062 C -95.34182 -45.265062 -93.676874 -44.112105 -92.144874 -43.464105 C -92.848874 -46.040105 -92.869038 -48.944402 -91.638038 -51.368402 C -90.755038 -53.052402 -89.119382 -54.288261 -87.290382 -54.749261 C -86.787382 -54.876261 -86.268902 -54.94548 -85.747902 -54.94848 C -85.442902 -54.95048 -85.135909 -54.929492 -84.830909 -54.885492 C -82.121909 -54.616492 -79.669405 -53.305124 -77.414405 -51.859124 C -74.580405 -49.997124 -72.129971 -47.599218 -69.994971 -44.980218 C -69.242971 -44.137218 -69.748128 -42.790484 -69.280128 -41.927484 C -68.924128 -44.474484 -68.450772 -47.242163 -66.565772 -49.149163 C -64.636772 -50.960163 -61.910233 -51.564273 -59.338233 -51.686273 C -58.906233 -51.699273 -58.474311 -51.704386 -58.043311 -51.702386 C -54.568311 -51.683386 -51.112838 -51.154171 -47.708838 -50.482171 C -41.351838 -49.180171 -35.105494 -47.397054 -28.806494 -45.862054 C -29.917494 -48.729054 -30.265181 -52.259167 -28.361181 -54.878167 C -26.984181 -56.819167 -24.26999 -57.180902 -22.13999 -56.430902 C -19.83099 -55.652902 -17.753107 -54.349765 -15.885107 -52.790765 C -14.816107 -51.898765 -13.814318 -50.921347 -12.876318 -49.912347 C -11.630318 -48.628347 -11.134974 -46.835363 -11.223974 -45.078363 C -10.479974 -44.579363 -9.7889465 -43.979249 -8.9959465 -43.562249 C -8.7809465 -44.604249 -8.353841 -45.737292 -7.312841 -46.206292 C -5.862841 -46.892292 -4.1118213 -45.986515 -3.4178213 -44.634515 C -2.9078213 -43.902515 -2.8430713 -42.789241 -2.1990713 -42.229241 C -1.9480713 -43.393241 -1.5620009 -44.777355 -0.32700095 -45.245355 C 1.0819991 -45.703355 2.6199523 -45.001085 3.6749523 -44.069085 C 4.7089523 -43.109085 4.5820031 -41.569929 4.6520031 -40.283929 C 4.6990031 -40.310929 4.7925031 -40.363862 4.8395031 -40.390862 C 5.1525031 -41.715862 5.8688156 -43.06707 7.1598156 -43.65307 C 7.8768156 -43.99607 8.6681829 -43.988288 9.4361829 -43.852288 C 9.7391829 -43.798288 10.037808 -43.72428 10.326808 -43.64428 C 11.845808 -43.15728 13.32791 -42.294374 14.15591 -40.890374 C 14.41591 -42.071374 14.839589 -43.211671 15.377589 -44.294671 C 15.971589 -45.538671 16.984226 -46.864421 18.455226 -47.013421 C 19.586226 -46.872421 20.075566 -45.650503 20.378566 -44.697503 C 20.567566 -43.989503 20.698511 -43.269183 20.797511 -42.544183 C 21.186511 -39.703183 21.089433 -36.775948 22.092433 -34.053948 C 22.175433 -33.916948 22.219132 -33.693663 22.334132 -33.586663 C 22.394132 -33.531663 22.473086 -33.507253 22.586086 -33.541253 C 22.567086 -34.790253 22.424132 -36.064663 22.334132 -37.336663 C 22.255132 -38.450663 22.216132 -39.566323 22.334132 -40.663323 C 22.423132 -41.489323 22.600605 -42.305218 22.918605 -43.105218 C 23.409605 -44.222218 24.311211 -45.214308 25.539211 -45.497308 C 27.528211 -46.137308 29.607019 -44.820148 30.568019 -43.108148 C 31.532019 -41.514148 31.727773 -39.617948 31.890773 -37.803948 C 32.210773 -37.963948 32.132844 -38.46614 32.262844 -38.77514 C 32.354844 -39.53614 32.915683 -40.316761 32.498683 -41.061761 C 31.131683 -44.420761 30.972148 -48.617214 33.250148 -51.626214 C 34.399148 -53.186214 36.334801 -54.026503 38.243801 -54.072503 C 41.251801 -54.229503 44.101629 -53.023433 46.792629 -51.825433 C 49.539629 -50.411433 52.217821 -48.790269 54.513821 -46.707269 C 55.595821 -45.842269 55.709508 -44.371218 55.943508 -43.105218 C 56.146508 -41.982218 55.568157 -40.694718 54.458157 -40.292718 C 53.145157 -39.667718 51.498801 -40.028296 50.243801 -39.560296 C 51.985801 -38.194296 52.579211 -35.930546 52.914211 -33.841546 C 52.956211 -33.848546 53.041133 -33.861913 53.084133 -33.867913 C 53.574133 -35.934913 54.412114 -38.170316 56.314114 -39.330316 C 57.705114 -40.318316 59.494731 -40.383401 61.121731 -40.118401 C 60.582731 -42.142401 59.904684 -44.234777 60.248684 -46.352777 C 60.316684 -47.974777 60.947419 -49.617152 62.176419 -50.712152 C 63.427419 -51.729152 65.17804 -51.989437 66.71304 -51.554437 C 69.52504 -50.868437 71.9167 -49.128238 74.1647 -47.375238 L 74.26138 -47.299066 C 75.50238 -46.244066 76.878017 -45.260921 77.714017 -43.825921 C 79.021017 -41.093921 79.06711 -37.44437 76.83511 -35.16137 C 76.21211 -34.37437 75.1787 -33.679561 74.1647 -33.882561 C 74.0047 -33.914561 73.845626 -33.969089 73.688626 -34.048089 C 72.215626 -35.280089 71.115766 -37.401062 71.807766 -39.320062 C 72.167766 -40.293062 73.2187 -40.406651 74.1647 -40.399651 C 74.3887 -40.397651 74.607696 -40.388073 74.810696 -40.382073 C 75.889696 -40.274073 77.196665 -40.593585 77.728665 -41.631585 C 77.382665 -42.410585 76.695954 -42.958148 76.049954 -43.483148 C 75.442954 -44.026148 74.8137 -44.545347 74.1647 -45.037347 C 72.4557 -46.333347 70.604055 -47.442441 68.629055 -48.283441 C 67.090055 -48.892441 65.324801 -49.147113 63.743801 -48.547113 C 62.569801 -48.132113 61.693684 -47.080281 61.373684 -45.894281 C 60.804684 -44.122281 61.018196 -42.211991 61.498196 -40.447991 C 61.560196 -40.241991 61.616477 -39.974464 61.861477 -39.907464 C 64.839477 -39.008464 67.406083 -37.117312 69.732083 -35.101312 C 70.750083 -34.395312 70.746184 -33.017347 70.936184 -31.912347 C 69.137184 -33.700347 67.001079 -35.141413 64.753079 -36.305413 C 63.763079 -36.772413 62.639817 -37.233647 61.534817 -36.920647 C 60.552817 -36.504647 59.801106 -35.704136 59.106106 -34.921136 C 57.985106 -33.408136 56.870407 -31.747382 56.614407 -29.848382 C 57.089407 -29.232382 57.873282 -28.983843 58.536282 -28.620843 C 61.312282 -27.385843 64.63686 -26.483557 67.55386 -27.778557 C 65.13986 -24.857557 60.030321 -24.486397 57.326321 -27.264397 C 56.317321 -28.294397 55.776649 -29.711401 55.562649 -31.118401 C 55.399649 -33.268401 56.449922 -35.239382 57.592922 -36.973382 C 55.675922 -36.513382 54.653532 -34.441444 54.317532 -32.637444 C 52.906532 -24.897444 52.361578 -16.951287 50.315578 -9.3522874 C 50.085578 -10.304287 49.681125 -11.212112 49.501125 -12.172112 C 49.755125 -14.068112 50.260215 -15.930452 50.393215 -17.845452 C 51.041215 -22.459452 51.751203 -27.073015 52.331203 -31.697015 C 52.607203 -33.339015 52.352485 -35.188757 51.194485 -36.457757 C 50.040485 -37.661757 48.553453 -38.507066 46.987453 -39.049066 C 45.606453 -39.373066 45.775692 -41.076788 45.456692 -42.164788 C 46.631692 -41.806788 47.826797 -42.287484 49.014797 -42.302484 C 50.383797 -42.469484 51.768079 -42.540487 53.128079 -42.781487 C 53.882079 -42.895487 54.69084 -43.278054 55.03384 -43.987054 C 52.39084 -46.571054 49.073996 -48.378062 45.693996 -49.820062 C 43.930996 -50.580062 42.065957 -51.117175 40.153957 -51.336175 C 37.422957 -51.731175 34.459879 -50.351171 33.198879 -47.857171 C 32.066879 -45.765171 32.200922 -43.258323 32.842922 -41.038323 C 33.448922 -41.912323 34.039117 -42.888171 35.043117 -43.357171 C 36.499117 -44.166171 38.586762 -43.723933 39.453762 -42.262933 C 40.225762 -40.893933 40.406734 -39.250733 40.225734 -37.708733 C 39.580734 -35.175733 38.226223 -32.887304 37.476223 -30.393304 C 37.911223 -30.386304 38.152656 -30.934628 38.520656 -31.150628 C 38.548656 -31.112628 38.606449 -31.039679 38.633449 -31.002679 C 37.918449 -29.301679 36.912812 -27.69344 35.930812 -26.15844 C 35.730812 -26.94944 35.464844 -27.726839 35.262844 -28.516839 C 36.193844 -31.941839 37.288023 -35.39278 38.922023 -38.58178 C 39.087023 -39.06378 39.600918 -39.716487 39.113918 -40.156487 C 38.039918 -41.167487 36.254977 -41.201511 35.048977 -40.405511 C 34.011977 -39.635511 33.412117 -38.391769 33.168117 -37.144769 C 32.481117 -33.760769 32.003859 -30.259815 30.428859 -27.142815 C 30.030859 -27.854815 29.849336 -28.766921 29.617336 -29.575921 C 30.055336 -31.437921 30.545035 -33.2983 30.984035 -35.1643 C 31.246035 -36.5433 31.582152 -37.994401 31.104152 -39.368401 C 30.596152 -41.415401 28.562695 -42.997601 26.435695 -42.797601 C 25.168695 -42.592601 24.063464 -41.630441 23.674464 -40.408441 C 22.918464 -38.371441 23.294047 -36.165343 23.421047 -34.058343 C 23.490047 -32.764343 23.816972 -31.400069 23.319972 -30.153069 C 22.872972 -30.183069 22.571132 -30.513307 22.334132 -30.872307 C 22.250132 -31.000307 22.175152 -31.131632 22.104152 -31.254632 C 21.484152 -32.442632 21.079511 -33.698519 20.797511 -34.988519 C 20.371511 -36.942519 20.226722 -38.972898 20.038722 -40.951898 C 19.852722 -42.283898 19.79175 -43.760058 18.89175 -44.841058 C 18.34275 -45.444058 17.392152 -45.226195 16.854152 -44.731195 C 15.595152 -43.637195 14.99798 -42.005851 14.52798 -40.453851 C 14.22098 -39.635851 14.609839 -38.786503 14.533839 -37.947503 C 14.615839 -36.426503 14.204937 -34.888171 13.383937 -33.607171 C 13.324937 -33.459171 13.123593 -33.300956 13.231593 -33.136956 C 15.864593 -31.417956 18.612816 -29.735483 20.659816 -27.302483 C 20.707816 -27.247483 20.754511 -27.190096 20.797511 -27.131096 C 21.127511 -26.672096 21.280089 -26.109772 21.565089 -25.623772 C 21.798089 -25.650772 22.073132 -25.777428 22.334132 -25.846428 C 22.633132 -25.924428 22.917894 -25.928702 23.114894 -25.626702 C 23.484894 -24.665702 23.254898 -23.463073 22.468898 -22.757073 L 22.334132 -22.623772 C 21.865132 -22.151772 21.381511 -21.602046 20.797511 -21.279046 C 20.551511 -21.145046 20.288171 -21.048838 19.999171 -21.016838 C 19.554171 -21.653838 19.853113 -22.495315 19.939113 -23.205315 C 19.862113 -23.770315 19.600828 -24.377366 19.846828 -24.932366 C 20.034828 -25.294366 20.421511 -25.384499 20.797511 -25.468499 C 20.923511 -25.497499 21.047722 -25.525249 21.163722 -25.562249 C 21.070722 -25.788249 20.943511 -25.998061 20.797511 -26.195061 C 20.439511 -26.678061 19.959929 -27.09021 19.550929 -27.52221 C 17.456929 -29.43921 15.287835 -31.307933 12.929835 -32.887933 C 12.039835 -31.934933 11.048796 -30.786472 9.6397962 -30.740472 C 9.5707962 -30.743472 9.5021829 -30.749515 9.4361829 -30.759515 C 8.2351829 -30.933515 7.516011 -32.133296 7.110011 -33.185296 C 6.694011 -34.356296 6.4590461 -35.86114 7.2960461 -36.90014 C 7.9240461 -37.42114 8.6671829 -37.502499 9.4361829 -37.468499 C 10.196183 -37.433499 10.977831 -37.287058 11.700831 -37.341058 C 12.620831 -37.328058 13.816839 -37.923175 13.783839 -38.961175 C 12.713839 -40.177175 11.078183 -40.997085 9.4361829 -41.069085 C 8.9481829 -41.091085 8.4570579 -41.04653 7.9830579 -40.92553 C 6.2700579 -40.39453 5.7511203 -38.484394 5.5221203 -36.910394 C 3.9421203 -28.110394 2.802128 -19.209248 0.48012798 -10.562248 C 0.33912798 -10.284248 0.34818266 -9.8030179 0.061182658 -9.6760179 C -0.19981734 -10.579018 -0.61280564 -11.460444 -0.75180564 -12.387444 C 1.0291944 -21.459444 2.4695851 -30.599105 4.0235851 -39.714105 C 4.0895851 -40.298105 4.3731945 -41.106101 3.7481945 -41.485101 C 2.6811945 -42.247101 1.2858975 -42.891109 -0.031102501 -42.443109 C -1.2711025 -41.861109 -1.6979541 -40.370335 -1.7039541 -39.100335 C -2.9679541 -39.956335 -2.9505401 -41.884476 -4.1795401 -42.844476 C -5.0725401 -43.870476 -6.847966 -43.788202 -7.640966 -42.689202 C -8.099966 -41.928202 -8.0482082 -41.013417 -8.0892082 -40.159417 C -9.4902082 -40.733417 -10.52999 -42.225788 -12.01499 -42.539788 C -12.94099 -41.319788 -14.258107 -39.938312 -15.885107 -39.976312 C -16.017107 -39.979312 -16.150939 -39.991398 -16.287939 -40.014398 C -17.759939 -40.699398 -18.365681 -42.471843 -18.423681 -43.995843 C -18.513681 -44.983843 -18.166787 -46.250179 -17.106787 -46.565179 C -16.695787 -46.662179 -16.289107 -46.688324 -15.885107 -46.663324 C -14.673107 -46.590324 -13.495411 -46.064652 -12.372411 -45.649652 C -12.170411 -45.955652 -11.991001 -46.36114 -12.327001 -46.65014 C -13.371001 -47.93414 -14.585107 -49.068058 -15.885107 -50.091058 C -16.534107 -50.602058 -17.203619 -51.084183 -17.884619 -51.544183 C -19.919619 -52.733183 -22.109052 -54.018679 -24.554052 -53.877679 C -26.199052 -53.924679 -27.790818 -52.923882 -28.438818 -51.410882 C -29.191818 -49.737882 -28.940369 -47.824613 -28.478369 -46.109613 C -28.418369 -45.946613 -28.403935 -45.697695 -28.183935 -45.668695 C -26.423935 -45.201695 -24.61913 -44.892968 -22.88413 -44.323968 C -22.27813 -43.232968 -21.958642 -42.011359 -21.508642 -40.849359 C -21.212642 -40.246359 -21.617052 -39.637491 -21.929052 -39.135491 C -22.929052 -37.768491 -24.249709 -36.541671 -25.901709 -36.044671 C -28.054709 -35.392671 -30.313463 -35.891706 -32.474463 -36.230706 C -37.380463 -37.213706 -42.292596 -38.214523 -47.260596 -38.842523 C -50.688596 -39.309523 -54.196831 -39.640374 -57.625831 -39.015374 C -57.760831 -38.955374 -57.904311 -38.89448 -58.043311 -38.82348 C -58.372311 -38.65748 -58.680002 -38.444847 -58.827002 -38.099847 C -58.629002 -37.697847 -58.351311 -37.35823 -58.043311 -37.04223 C -57.654311 -36.64423 -57.21542 -36.285397 -56.83042 -35.889397 C -53.94142 -33.360397 -50.735608 -31.129147 -47.197608 -29.608147 C -46.492608 -29.240147 -45.679264 -29.455206 -45.170264 -30.043206 C -44.744264 -29.694206 -44.64701 -29.050784 -44.41001 -28.560784 C -44.24801 -28.083784 -43.760217 -27.448417 -44.297217 -27.034417 C -44.980217 -26.567417 -45.838893 -26.945042 -46.539893 -27.175042 C -50.222893 -28.717042 -53.404756 -31.217249 -56.399756 -33.812249 C -56.987756 -34.341249 -57.550311 -34.934315 -58.043311 -35.580315 C -59.028311 -36.873315 -59.727643 -38.380327 -59.758643 -40.017327 C -59.837643 -40.988327 -58.847311 -41.467234 -58.043311 -41.646234 L -58.012549 -41.653558 C -56.178549 -42.031558 -54.286241 -42.076991 -52.421241 -41.947991 C -45.558241 -41.446991 -38.86149 -39.755108 -32.07749 -38.693108 C -30.14949 -38.461108 -28.029834 -38.112136 -26.229834 -39.046136 C -25.017834 -39.785136 -23.618111 -40.641163 -23.114111 -42.024163 C -30.800111 -43.717163 -38.401932 -45.782511 -46.079932 -47.530511 C -50.011932 -48.274511 -54.034311 -48.929769 -58.043311 -48.769769 C -59.018311 -48.731769 -59.995139 -48.644773 -60.967139 -48.498773 C -62.765139 -48.233773 -64.592268 -47.57921 -65.899268 -46.27221 C -67.208268 -44.80121 -67.756928 -42.839644 -68.100928 -40.941644 C -69.073928 -34.414644 -70.090897 -27.889206 -71.393897 -21.418206 C -71.962897 -18.658206 -72.553128 -15.900151 -73.405128 -13.212151 C -73.451128 -13.217151 -73.538839 -13.227659 -73.583839 -13.232659 C -73.821839 -14.150659 -74.471022 -15.01903 -74.347022 -15.98803 C -72.620022 -24.34803 -71.327288 -32.789343 -69.794288 -41.183343 C -69.516288 -42.074343 -70.366835 -42.639984 -70.854835 -43.239984 C -72.814835 -45.313984 -74.876089 -47.329085 -77.240089 -48.944085 C -79.788089 -50.575085 -82.610788 -52.135878 -85.731788 -52.056878 L -85.747902 -52.056878 C -86.264902 -52.060878 -86.785382 -51.997773 -87.290382 -51.873773 C -89.162382 -51.414773 -90.837398 -50.11382 -91.456398 -48.24682 C -91.946398 -46.51782 -92.01148 -44.600605 -91.39048 -42.901605 C -90.72748 -42.381605 -89.958804 -41.895163 -89.147804 -41.649163 C -88.708804 -42.706163 -88.252382 -43.862159 -87.290382 -44.545159 C -87.208382 -44.604159 -87.12257 -44.658222 -87.03257 -44.709222 C -86.67057 -44.979222 -86.201902 -45.127519 -85.747902 -45.113519 C -85.333902 -45.102519 -84.935015 -44.95398 -84.639015 -44.63598 C -83.694015 -43.53098 -83.469917 -41.997081 -83.538917 -40.590081 C -83.573917 -39.706081 -83.990163 -38.757421 -84.841163 -38.388421 C -85.133163 -38.236421 -85.437902 -38.158679 -85.747902 -38.127679 C -86.253902 -38.075679 -86.777382 -38.149612 -87.290382 -38.234612 C -87.543382 -38.276612 -87.794847 -38.32073 -88.041847 -38.35473 C -88.661847 -36.29973 -88.951866 -34.164436 -89.311866 -32.054436 C -89.329866 -31.738436 -89.479312 -31.338472 -89.168312 -31.115472 C -88.468312 -30.451472 -87.822382 -29.718347 -87.290382 -28.912347 C -86.941382 -28.383347 -86.641011 -27.822241 -86.410011 -27.229241 C -86.164011 -27.244241 -85.954902 -27.361124 -85.747902 -27.484124 C -85.561902 -27.595124 -85.376823 -27.713233 -85.167823 -27.771233 C -85.063823 -27.356233 -85.005636 -26.926284 -85.050636 -26.498284 C -85.212636 -26.253284 -85.492902 -26.163253 -85.747902 -26.041253 C -85.859902 -25.988253 -85.966984 -25.928428 -86.056984 -25.846428 C -86.154984 -25.169428 -86.007374 -24.448225 -86.332374 -23.813225 C -86.479374 -23.497225 -86.754054 -22.973569 -87.179054 -23.215569 C -87.217054 -23.231569 -87.253382 -23.247374 -87.290382 -23.265374 C -88.172382 -23.700374 -88.287988 -24.840522 -88.410988 -25.717522 C -88.400988 -26.378522 -87.818382 -26.584085 -87.290382 -26.819085 C -87.112382 -26.898085 -86.940195 -26.979757 -86.798195 -27.082757 C -86.926195 -27.404757 -87.093382 -27.706354 -87.290382 -27.995354 C -87.904382 -28.898354 -88.790031 -29.662136 -89.555031 -30.421136 C -90.233031 -26.643136 -90.857863 -22.843342 -91.457863 -19.058342 C -90.906863 -19.451342 -90.779222 -20.296413 -90.151222 -20.555413 C -90.554222 -18.211413 -91.720425 -16.030948 -92.559425 -13.803948 C -93.031425 -14.285948 -93.002117 -15.141331 -93.343117 -15.746331 C -93.737117 -16.421331 -93.192785 -17.092139 -93.127785 -17.775139 C -92.573785 -21.611139 -91.93055 -25.436628 -91.38755 -29.275628 C -91.26355 -30.117628 -90.985976 -30.969991 -91.098976 -31.822991 C -92.609976 -32.928991 -94.110007 -34.053944 -95.681007 -35.074944 C -96.366007 -35.613944 -97.219195 -36.019206 -97.673195 -36.793206 C -95.383195 -35.511206 -93.115152 -34.088487 -90.904152 -32.656487 C -90.537152 -34.815487 -90.203855 -36.981308 -89.749855 -39.122308 C -91.245855 -39.970308 -92.628109 -41.059909 -94.260109 -41.638909 C -95.205109 -41.972909 -96.416359 -42.070093 -97.166359 -41.277093 C -98.152359 -40.339093 -98.048335 -38.842394 -98.417335 -37.660394 C -99.688335 -38.344394 -100.7302 -39.40078 -102.0062 -40.08178 C -102.2202 -40.21178 -102.39239 -39.995616 -102.49839 -39.838616 C -103.23239 -38.778616 -104.18593 -37.704976 -105.49693 -37.406976 C -105.67793 -37.368976 -105.85573 -37.362073 -106.02573 -37.382073 C -106.92773 -37.485073 -107.64419 -38.320816 -107.96519 -39.142816 C -108.44019 -40.298816 -108.88465 -41.657448 -108.34165 -42.866448 C -108.11465 -43.506448 -107.4485 -43.874011 -106.8065 -43.968011 C -106.5455 -44.012011 -106.28573 -44.032464 -106.02573 -44.032464 C -104.91673 -44.034464 -103.82266 -43.671222 -102.82066 -43.209222 C -102.56266 -43.371222 -102.43716 -43.697378 -102.46616 -43.994378 C -102.98916 -44.885378 -103.81294 -45.53907 -104.51694 -46.27807 C -105.00494 -46.73807 -105.50773 -47.187402 -106.02573 -47.618402 C -107.75373 -49.059402 -109.6522 -50.304984 -111.7562 -51.114984 C -113.2102 -51.643984 -115.0034 -51.575124 -116.3104 -50.734124 C -116.7514 -50.450124 -117.13594 -50.079054 -117.43394 -49.612054 C -118.24794 -48.190054 -118.57619 -46.436339 -118.19419 -44.829339 C -117.54819 -44.768339 -116.9204 -44.632155 -116.3104 -44.441155 C -114.7884 -43.965155 -113.37152 -43.1493 -112.03452 -42.2893 C -110.90552 -41.4263 -109.58782 -40.550124 -109.16782 -39.109124 C -108.57682 -37.152124 -108.83787 -34.625671 -110.68687 -33.419671 C -112.45087 -32.154671 -114.4324 -31.212448 -116.3104 -30.116448 C -117.5414 -29.399448 -118.72715 -28.614073 -119.77915 -27.632073 C -119.81815 -27.559073 -119.89782 -27.414569 -119.93882 -27.340569 C -119.48882 -27.329569 -119.04581 -27.620053 -118.60581 -27.487053 C -119.61681 -26.087053 -121.80273 -26.018342 -122.90073 -24.683342 C -120.75373 -23.210342 -118.5524 -21.823073 -116.3104 -20.507073 C -112.9594 -18.539073 -109.51673 -16.724655 -106.02573 -15.003655 C -102.37373 -13.202655 -98.667839 -11.506475 -94.958839 -9.8444749 C -92.418839 -8.8014749 -89.896382 -7.6559514 -87.290382 -6.7829514 C -86.780382 -6.6119514 -86.265902 -6.4509475 -85.747902 -6.3039475 C -84.991902 -6.0889475 -84.227026 -5.9012366 -83.451026 -5.7502366 C -82.959026 -5.7112366 -82.274237 -5.5293733 -81.942237 -6.0153733 C -81.878237 -6.6513733 -82.48703 -7.0738538 -82.80503 -7.5578538 C -83.77603 -8.6308538 -84.774902 -9.6811429 -85.747902 -10.754143 C -86.272902 -11.333143 -86.790382 -11.919745 -87.290382 -12.520745 C -87.848382 -13.190745 -88.385991 -13.878963 -88.889991 -14.594963 C -89.570991 -15.679963 -90.40712 -16.907436 -90.44712 -18.179436 C -90.26412 -18.143436 -90.186515 -17.950014 -90.076515 -17.822014 C -89.233515 -16.532014 -88.280382 -15.321327 -87.290382 -14.142327 C -86.782382 -13.536327 -86.264902 -12.939034 -85.747902 -12.342034 L -85.715675 -12.303948 C -84.088675 -10.511948 -82.259261 -8.7660647 -81.441261 -6.4240647 C -81.161261 -5.5720647 -80.627366 -4.6907678 -80.874366 -3.7697678 C -81.030366 -3.1297678 -81.787886 -3.0588693 -82.331886 -3.0988693 z M 59.144192 -4.7849045 C 54.175192 -6.3439045 49.308457 -8.2209085 44.466457 -10.138909 C 43.870457 -10.331909 43.752328 -11.028202 43.659328 -11.564202 C 48.478328 -9.4422015 53.434489 -7.6235959 58.423489 -5.9435959 C 58.799489 -5.6765959 58.942192 -5.1869045 59.144192 -4.7849045 z M -127.90171 -5.1467209 C -128.06836 -5.1502268 -128.22124 -5.1956076 -128.35874 -5.2712326 C -128.79774 -5.5122326 -129.08983 -6.0605334 -129.25083 -6.5295334 C -129.54383 -7.1005334 -129.85764 -8.0156741 -129.13364 -8.3986741 C -128.95664 -8.5676741 -128.57074 -8.6578733 -128.35874 -8.8278733 C -128.22874 -8.9328733 -128.16281 -9.067721 -128.25181 -9.271721 L -128.35874 -9.393303 C -130.50174 -11.864303 -133.41968 -13.459342 -136.06968 -15.308342 C -137.37268 -16.419342 -139.02412 -17.02335 -140.32212 -18.14135 C -140.42112 -18.27335 -140.39581 -18.378292 -140.25181 -18.456292 C -137.26981 -16.787292 -134.15486 -15.280725 -131.47886 -13.125725 C -130.29586 -12.375725 -129.22574 -11.432733 -128.35874 -10.333733 C -128.07574 -9.9747328 -127.81498 -9.6001976 -127.57798 -9.2101976 C -126.97998 -9.2821976 -126.57088 -9.7578499 -126.10288 -10.07885 C -125.66188 -9.9378499 -125.69284 -9.2881155 -125.60484 -8.9011155 C -125.85484 -8.3271155 -126.588 -8.168385 -127.077 -7.827385 C -127.086 -6.950385 -126.87477 -5.8547365 -127.58677 -5.1877365 C -127.69739 -5.1569865 -127.80172 -5.1446174 -127.90171 -5.1467209 z M 24.682277 -5.5056076 C 24.556277 -6.0056076 24.277054 -6.6672014 24.754054 -7.0642014 C 26.502054 -8.9032014 27.774883 -11.464436 27.302883 -14.054436 C 22.959883 -16.014436 18.355148 -17.49303 14.125148 -19.73803 C 13.913148 -20.06803 13.782148 -20.458846 13.750148 -20.849846 C 20.768148 -17.783846 27.836684 -14.7976 35.123684 -12.4226 C 35.565684 -12.1766 35.672781 -11.583862 35.848781 -11.140862 C 33.036781 -11.826862 30.32609 -13.062842 27.56509 -13.995842 C 27.78709 -12.406842 27.981968 -10.717084 27.340968 -9.1940843 C 26.707968 -7.8160843 25.869277 -6.4666076 24.682277 -5.5056076 z M 43.293117 -5.5085373 C 43.513078 -5.5055002 43.734778 -5.5601584 43.947903 -5.6857834 C 43.709903 -5.9947834 43.320004 -6.1657913 42.902004 -6.2687913 C 42.549004 -6.3547913 42.176106 -6.3929944 41.856106 -6.4269944 C 42.086106 -6.0319944 42.471004 -5.7035256 42.902004 -5.5715256 C 43.029129 -5.5325256 43.161141 -5.5103596 43.293117 -5.5085373 z M 7.4820813 -5.7795334 C 7.4880813 -5.9205334 7.4930539 -6.0618733 7.5040539 -6.2028733 C 7.6670539 -6.3618733 7.8788508 -6.4662249 8.0958508 -6.5632249 C 8.4818508 -6.7342249 8.8845774 -6.8822796 9.0655774 -7.2692796 C 8.7745774 -7.4282796 8.4348508 -7.5917718 8.0958508 -7.6237718 C 7.8898508 -7.6437718 7.6844055 -7.6145843 7.4894055 -7.5065843 C 6.9604055 -7.1205843 7.0540813 -6.1605334 7.4820813 -5.7795334 z M -77.297218 -6.2482834 C -77.791218 -7.3132834 -76.920257 -8.1942679 -76.837257 -9.2072679 C -77.357257 -10.069268 -78.342562 -8.9710023 -78.949562 -9.6350023 C -79.586562 -10.220002 -80.126667 -10.99503 -80.257667 -11.86303 C -79.906667 -11.47303 -79.663487 -10.978577 -79.223487 -10.673577 C -78.627487 -10.384577 -78.01294 -10.9521 -77.41294 -10.7351 C -76.86094 -10.4261 -76.807378 -9.7582679 -76.686378 -9.2072679 C -76.426378 -9.4512679 -76.26244 -9.7745687 -76.10044 -10.090569 C -76.14744 -10.241569 -76.194065 -10.39267 -76.241065 -10.54467 C -76.068065 -10.39467 -75.866647 -10.202534 -75.612647 -10.279534 C -75.082647 -10.389534 -74.490585 -10.34767 -73.948585 -10.16967 C -73.032585 -9.8686703 -72.258405 -9.1786233 -72.164405 -8.1716233 C -71.849405 -7.3636233 -72.935995 -6.7126077 -73.618995 -7.0056077 C -73.735995 -7.0586077 -73.846585 -7.1216428 -73.948585 -7.1916428 C -74.595585 -7.6316428 -74.992632 -8.3764671 -75.571632 -8.8864671 C -76.785632 -8.6374671 -76.426218 -6.8432834 -77.297218 -6.2482834 z M -128.35874 -6.448967 C -128.23774 -6.440967 -128.11618 -6.4612795 -128.00718 -6.5192795 C -127.84418 -6.8432795 -127.77207 -7.2027835 -127.72007 -7.5607835 C -127.93407 -7.5047835 -128.15374 -7.4375217 -128.35874 -7.3425217 C -128.60774 -7.2275217 -128.83195 -7.0694749 -128.99595 -6.8444749 C -128.86795 -6.6194749 -128.61474 -6.466967 -128.35874 -6.448967 z M -114.20249 -6.7346116 C -114.41864 -6.7626663 -114.36439 -7.1622913 -114.40464 -7.3469163 C -114.53764 -8.3679163 -113.6261 -9.1331468 -113.5521 -10.108147 C -114.5031 -10.314147 -115.16273 -9.3839476 -115.29673 -8.5539476 C -115.49573 -8.0969476 -115.52434 -7.3318811 -116.04234 -7.1608811 C -116.55034 -8.2268811 -115.56701 -9.0451312 -115.55601 -10.067131 C -115.54301 -10.744131 -116.56864 -11.051752 -116.92564 -10.478752 C -117.38964 -9.7047523 -117.21515 -8.7466975 -117.42515 -7.8976975 C -117.92115 -8.0956975 -117.79896 -8.8200023 -117.78696 -9.2600023 C -117.55796 -10.211002 -117.7806 -11.557502 -116.7396 -12.072502 C -115.8806 -12.331502 -115.48088 -11.407186 -115.22788 -10.773186 C -114.82488 -11.175186 -114.23606 -11.749659 -113.63706 -11.357659 C -113.05806 -10.778659 -112.99276 -9.8380374 -113.12876 -9.0710374 C -113.48776 -8.3130374 -113.87863 -7.5643303 -114.09263 -6.7463303 C -114.13563 -6.7334553 -114.17161 -6.7306038 -114.20249 -6.7346116 z M -45.058936 -7.8610764 C -45.584936 -9.0010764 -46.166631 -10.265412 -45.946631 -11.555412 C -45.879631 -11.869412 -45.667971 -12.454213 -45.244971 -12.251213 C -44.645971 -11.828213 -44.44519 -11.040705 -44.31919 -10.355705 C -44.63719 -10.603705 -44.897736 -11.440096 -45.379736 -11.006096 C -46.109736 -10.027096 -45.162936 -8.8890764 -45.058936 -7.8610764 z M -132.66978 -8.1013108 C -132.78228 -8.1071858 -132.89437 -8.1379124 -132.99937 -8.1804124 C -138.49637 -10.081412 -143.78683 -12.517811 -149.02183 -15.038811 C -149.61883 -15.245811 -149.85938 -15.991319 -149.70738 -16.559319 C -149.32238 -16.528319 -148.99301 -16.311909 -148.66001 -16.138909 C -143.60701 -13.699909 -138.53638 -11.25501 -133.20738 -9.4680101 C -132.60638 -9.3540101 -132.48919 -8.6621585 -132.34019 -8.1701585 C -132.44519 -8.1141585 -132.55728 -8.0954358 -132.66978 -8.1013108 z M -73.563331 -8.1804124 C -73.347071 -8.1750022 -73.129444 -8.2246897 -72.923194 -8.3459397 C -73.075194 -8.7039397 -73.492585 -8.8926819 -73.948585 -8.9816819 C -74.303585 -9.0516819 -74.679975 -9.0615999 -74.973975 -9.0475999 C -74.740975 -8.6855999 -74.364585 -8.3773304 -73.948585 -8.2463304 C -73.82296 -8.2073304 -73.693087 -8.1836585 -73.563331 -8.1804124 z M -3.0252432 -8.1862718 C -11.562243 -10.660272 -19.786701 -14.098217 -27.943701 -17.605217 C -30.466701 -18.627217 -32.949799 -19.745792 -35.418799 -20.893792 C -36.012799 -21.136792 -36.059693 -21.879749 -36.360693 -22.374749 C -33.102693 -20.846749 -29.820927 -19.365417 -26.475927 -18.034417 C -19.899927 -15.171417 -13.237864 -12.515053 -6.4368644 -10.237053 C -5.2338644 -9.6520531 -3.3202432 -9.8342718 -3.0252432 -8.1862718 z M 40.048488 -8.7736741 C 39.795488 -9.5946741 39.510387 -10.403174 39.219387 -11.211174 C 39.009387 -11.756174 39.440777 -12.264065 39.494777 -12.799065 C 40.357777 -19.232065 41.49752 -25.623507 42.38052 -32.051507 C 42.95352 -36.059507 43.503891 -40.10437 43.260891 -44.16137 C 44.311891 -42.96637 44.42977 -41.250753 44.53677 -39.728753 C 44.74977 -35.035753 43.862465 -30.397116 43.174465 -25.776116 C 42.588465 -22.391116 42.050723 -19.001213 41.413723 -15.626213 C 41.359723 -15.252213 41.237254 -14.879213 41.308254 -14.501213 C 41.963254 -14.948213 42.18634 -15.898846 42.84634 -16.349846 C 42.81634 -15.444846 42.331508 -14.640694 42.068508 -13.793694 C 41.369508 -12.164694 40.788691 -10.490619 40.206691 -8.8176194 C 40.166691 -8.8076194 40.088488 -8.7856741 40.048488 -8.7736741 z M 20.421046 -9.0988694 C 14.984046 -10.791869 9.7149132 -12.983045 4.5099132 -15.279045 C 4.3629132 -15.652045 4.2100265 -16.028483 4.1510265 -16.427483 C 9.2580265 -14.179483 14.435316 -12.084647 19.722316 -10.295647 C 20.103316 -10.030647 20.268046 -9.5258694 20.421046 -9.0988694 z M 63.878567 -9.5808031 C 63.368567 -9.6418031 63.349415 -10.231588 63.197415 -10.610588 C 62.880415 -11.442588 62.991692 -12.359967 62.706692 -13.198967 C 62.182692 -12.214967 61.863571 -10.725885 60.607571 -10.264885 C 59.839571 -10.178885 60.183837 -11.250897 60.179837 -11.701897 C 60.629837 -12.136897 61.4257 -12.065608 61.7897 -12.630608 C 62.2287 -13.164608 62.295575 -13.87517 62.586575 -14.48217 C 63.307575 -13.61117 62.755419 -12.036588 63.301419 -10.985588 C 63.731419 -10.436588 64.208508 -11.12528 64.568508 -11.39428 C 65.060508 -10.67728 64.665567 -9.8248031 63.878567 -9.5808031 z M -61.265967 -11.359123 C -61.351733 -11.356752 -61.443542 -11.366202 -61.542823 -11.38842 C -62.265823 -12.33442 -61.929616 -13.688295 -62.030616 -14.810295 C -62.926616 -14.092295 -63.306807 -12.608155 -64.501807 -12.191155 C -65.138807 -12.455155 -64.901385 -13.459323 -64.894385 -14.038323 C -64.218385 -14.216323 -63.346456 -14.20992 -63.016456 -14.95092 C -62.574456 -15.36592 -62.510526 -16.299905 -61.888526 -16.409905 C -61.653526 -15.214905 -61.963686 -13.961276 -61.652686 -12.790276 C -61.268686 -12.332276 -60.838713 -12.972784 -60.505713 -13.185784 C -60.232026 -12.478909 -60.436895 -11.382044 -61.265967 -11.359123 z M -78.596534 -13.294182 C -78.898534 -13.421182 -78.824081 -13.828522 -78.907081 -14.092522 C -79.099081 -15.554522 -79.595241 -17.000518 -79.421241 -18.488518 C -79.366241 -19.010518 -79.182624 -19.574233 -78.738624 -19.896233 C -77.754624 -19.952233 -77.595511 -18.613213 -77.597511 -17.876213 C -77.798511 -18.396213 -78.51294 -18.992413 -78.91294 -18.305413 C -79.65094 -16.699413 -78.610534 -14.958182 -78.596534 -13.294182 z M -84.381202 -13.354241 C -84.564202 -14.575241 -85.431866 -15.801885 -84.811866 -17.014885 C -83.883866 -23.173885 -82.9053 -29.327015 -81.7313 -35.447015 C -80.9503 -39.638015 -80.340089 -43.876745 -80.240089 -48.145745 C -80.194089 -48.122745 -80.104448 -48.074531 -80.058448 -48.050531 C -79.253448 -46.391531 -79.126358 -44.499878 -79.166358 -42.681878 C -79.125358 -40.543878 -79.507976 -38.429851 -79.848976 -36.328851 C -80.839976 -30.514851 -82.151261 -24.747999 -82.941261 -18.905999 C -82.400261 -19.259999 -82.297269 -20.119487 -81.649269 -20.281487 C -82.195269 -17.897487 -83.349069 -15.707807 -84.220069 -13.434807 C -84.260069 -13.414807 -84.341202 -13.375241 -84.381202 -13.354241 z M -2.8245596 -13.41137 C -5.3785596 -14.21037 -7.8902512 -15.139995 -10.358251 -16.176995 C -15.129251 -18.131995 -19.870052 -20.158155 -24.554052 -22.316155 C -26.966052 -23.364155 -29.390928 -24.397913 -31.725928 -25.617913 C -32.487928 -26.016913 -33.33042 -26.327272 -33.95542 -26.936272 C -34.26342 -27.606272 -34.25226 -28.402679 -34.19126 -29.127679 C -33.85626 -30.008679 -32.849068 -30.309866 -32.095068 -30.744866 C -32.027068 -30.360866 -31.951443 -29.97378 -31.954443 -29.58178 C -32.534443 -29.09978 -33.283514 -28.860479 -33.826514 -28.323479 C -33.918514 -27.953479 -33.525986 -27.776987 -33.285986 -27.593987 C -30.479986 -25.835987 -27.38713 -24.616866 -24.38413 -23.244866 C -17.49413 -20.137866 -10.598935 -16.983483 -3.4339346 -14.552483 C -3.1349346 -14.239483 -2.9355596 -13.82837 -2.8245596 -13.41137 z M 71.96011 -13.916741 C 66.39011 -15.636741 61.00995 -17.929503 55.69595 -20.322503 C 55.06195 -20.519503 54.879895 -21.224585 54.614895 -21.756585 C 60.108895 -19.370585 65.59438 -16.916456 71.26138 -14.949456 C 71.69538 -14.807456 71.77611 -14.279741 71.96011 -13.916741 z M -95.746925 -15.321526 C -96.016878 -15.336385 -96.300449 -15.541416 -96.558449 -15.596916 C -102.91545 -18.134916 -109.16589 -20.982905 -115.16489 -24.284905 C -116.32189 -24.769905 -117.01804 -26.087159 -116.65904 -27.295159 C -116.24004 -27.828159 -115.62128 -28.358007 -114.96128 -28.489007 C -114.83528 -28.080007 -114.78801 -27.654241 -114.80601 -27.229241 C -115.21301 -26.767241 -115.96933 -26.645182 -116.20933 -26.044182 C -113.42933 -24.160182 -110.28422 -22.897585 -107.29722 -21.381585 C -103.63322 -19.538585 -99.778964 -18.100061 -96.036964 -16.445061 C -95.825964 -16.107061 -95.663253 -15.740049 -95.483253 -15.383049 C -95.568503 -15.333299 -95.656941 -15.316573 -95.746925 -15.321526 z M 31.189113 -18.139885 C 30.951113 -19.331885 31.692094 -20.299413 32.169094 -21.305413 C 32.196094 -22.070413 31.104762 -21.757131 30.828762 -21.317131 C 30.266762 -20.461131 30.220972 -19.367729 29.694972 -18.479729 C 29.032972 -19.497729 30.144801 -20.631893 29.993801 -21.722893 C 29.781801 -22.434893 28.731672 -22.46053 28.436672 -21.80053 C 28.143672 -20.97253 28.202094 -20.065756 28.044094 -19.207756 C 27.638094 -19.467756 27.75566 -20.122018 27.74966 -20.551018 C 28.04266 -21.453018 27.679234 -22.57153 28.413234 -23.30053 C 28.777234 -23.75953 29.520597 -23.694639 29.835597 -23.212639 C 30.161597 -22.885639 30.003164 -22.304749 30.291164 -21.999749 C 30.580164 -22.382749 30.795808 -22.930139 31.326808 -23.025139 C 32.000808 -23.207139 32.426965 -22.449561 32.486965 -21.882561 C 32.813965 -20.482561 31.815113 -19.279885 31.189113 -18.139885 z M -1.9646963 -18.826897 C -2.7436963 -19.109897 -3.5056846 -19.440889 -4.2776846 -19.743889 C -10.381685 -21.931889 -16.165943 -24.887511 -22.016943 -27.655511 C -23.133943 -28.262511 -24.314295 -28.755804 -25.377295 -29.455804 C -25.950295 -29.831804 -25.805705 -30.624616 -25.797705 -31.213616 C -25.683705 -32.328616 -24.420455 -32.555827 -23.641455 -33.079827 C -23.614455 -32.651827 -23.567693 -32.222624 -23.610693 -31.796624 C -24.151693 -31.403624 -24.853798 -31.22985 -25.293798 -30.70385 C -25.269798 -30.40785 -24.868521 -30.337901 -24.659521 -30.180901 C -17.433521 -26.473901 -10.092224 -22.955436 -2.5052237 -20.054436 C -2.0702237 -19.836436 -1.9646963 -19.268897 -1.9646963 -18.826897 z M -144.07652 -18.913323 C -144.43427 -18.928071 -144.77696 -19.333655 -144.7899 -19.714592 C -144.9329 -20.678592 -145.02934 -21.660421 -145.02134 -22.638421 C -145.72034 -21.668421 -146.27006 -20.434331 -147.38706 -19.871331 C -148.27506 -19.925331 -148.00301 -21.17326 -147.80601 -21.74926 C -147.36201 -22.02926 -146.7616 -21.991819 -146.3646 -22.371819 C -145.8206 -22.912819 -145.58766 -23.667342 -145.19566 -24.308342 C -145.13266 -24.452342 -144.89722 -24.638346 -144.79722 -24.412346 C -144.44322 -23.132346 -144.8714 -21.763143 -144.4354 -20.504143 C -143.9384 -20.056143 -143.60612 -20.765471 -143.21812 -20.990471 C -143.05212 -20.337471 -143.05229 -19.523823 -143.66929 -19.100823 C -143.79445 -18.962167 -143.93653 -18.907552 -144.07652 -18.913323 z M 72.185696 -19.691155 C 72.135546 -19.691811 72.082681 -19.697018 72.027493 -19.707268 C 71.475493 -20.092268 71.538329 -20.850714 71.409329 -21.438714 C 71.551329 -21.219714 71.689458 -20.997463 71.841458 -20.782463 C 72.239458 -20.699463 72.464028 -21.103116 72.776028 -21.276116 C 73.123841 -20.701428 72.937945 -19.681315 72.185696 -19.691155 z M -39.149756 -19.878655 C -39.270642 -19.888587 -39.384228 -19.945237 -39.476416 -20.070549 C -40.031416 -21.234549 -39.554412 -22.701057 -39.747412 -23.841057 C -40.576412 -22.922057 -41.298143 -21.374952 -42.696143 -21.407952 C -42.780143 -21.977952 -42.754873 -22.569003 -42.644873 -23.135003 C -41.076873 -23.011003 -40.318189 -24.464272 -39.444189 -25.436272 C -39.110189 -24.133272 -39.660811 -22.7456 -39.480811 -21.4226 C -39.145811 -20.8006 -38.474154 -21.442006 -38.133154 -21.739006 C -38.122154 -21.236006 -37.861107 -20.557288 -38.385107 -20.227288 C -38.581045 -20.057475 -38.883806 -19.856805 -39.149756 -19.878655 z M -94.728859 -20.133538 C -97.813859 -21.242538 -100.75111 -22.723573 -103.73911 -24.069573 C -106.81911 -25.574573 -109.9535 -26.988706 -112.9105 -28.730706 C -113.0035 -29.071706 -113.28923 -29.478296 -113.13023 -29.810296 C -113.07423 -29.799296 -112.96457 -29.780745 -112.90757 -29.770745 C -107.16857 -26.665745 -101.21691 -23.945936 -95.226906 -21.366936 C -94.948906 -21.019936 -94.779859 -20.572538 -94.728859 -20.133538 z M 45.818508 -20.239006 C 45.722508 -20.763006 45.444723 -21.432589 45.913723 -21.860589 C 46.713723 -22.795589 47.255821 -23.913651 47.763821 -25.024651 C 48.637821 -27.082651 48.090832 -29.366964 47.700832 -31.469964 C 48.295832 -30.129964 48.468824 -28.63962 48.617824 -27.19262 C 48.853824 -24.57362 47.552508 -22.108006 45.818508 -20.239006 z M 68.797513 -20.589104 C 68.686554 -20.583063 68.586622 -20.626346 68.522122 -20.756096 C 68.501122 -21.211096 68.526798 -21.668725 68.514798 -22.125725 C 69.067798 -22.357725 69.772622 -22.302862 70.209622 -22.765862 C 70.478622 -23.201862 70.760122 -23.630288 71.147122 -23.977288 C 71.173122 -24.153288 71.125774 -24.359702 71.265774 -24.501702 C 71.337774 -24.109702 71.524286 -23.691671 71.390286 -23.294671 C 71.297286 -23.258671 71.11561 -23.183721 71.02261 -23.146721 C 70.51661 -22.342721 70.128856 -21.416171 69.324856 -20.857171 C 69.197981 -20.745296 68.982444 -20.599172 68.797513 -20.589104 z M -76.204444 -22.058342 C -76.264349 -22.059429 -76.32564 -22.065948 -76.389015 -22.077385 C -77.243015 -23.143385 -76.743327 -24.6636 -76.834327 -25.9226 C -77.784327 -25.0856 -78.318987 -23.359725 -79.785987 -23.250725 C -80.074987 -23.695725 -79.906429 -24.279487 -79.913429 -24.781487 C -79.868429 -25.330487 -79.157851 -25.228889 -78.770851 -25.368889 C -77.573851 -25.448889 -77.535136 -27.118632 -76.613136 -27.504632 C -76.426136 -26.319632 -76.666206 -25.127202 -76.610206 -23.939202 C -76.610206 -23.674202 -76.481386 -23.25053 -76.144386 -23.30053 C -75.629386 -23.25053 -75.41344 -24.025639 -74.97544 -23.962639 C -74.805753 -23.144202 -75.305876 -22.042039 -76.204444 -22.058342 z M 8.3155774 -22.458245 C 7.8485774 -23.279245 7.3989641 -24.115128 6.9869641 -24.963128 C 7.9419641 -25.517128 8.8700032 -26.185061 9.9020032 -26.570061 C 10.410003 -25.782061 10.807784 -24.926432 11.202784 -24.075432 C 10.247784 -23.523432 9.2615774 -23.025245 8.3155774 -22.458245 z M -139.04624 -22.938714 C -139.43724 -23.725714 -139.80896 -24.547214 -140.07896 -25.376214 C -139.17796 -25.878214 -138.24058 -26.515503 -137.21958 -26.697503 C -136.86958 -26.222503 -136.72895 -25.609596 -136.49595 -25.068596 C -136.37395 -24.723596 -136.15564 -24.173655 -136.63364 -24.003655 C -137.41764 -23.619655 -138.17924 -23.094714 -139.04624 -22.938714 z M 20.848781 -23.152581 C 21.290781 -23.285581 21.479875 -23.834538 21.469875 -24.258538 C 21.244875 -24.245538 21.017511 -24.218182 20.797511 -24.169182 C 20.564511 -24.116182 20.338148 -24.039018 20.125148 -23.926018 C 20.226148 -23.592018 20.498511 -23.346413 20.797511 -23.180413 L 20.848781 -23.152581 z M 21.874171 -23.337151 C 22.039171 -23.475151 22.191132 -23.627323 22.334132 -23.788323 C 22.544132 -24.025323 22.733886 -24.281182 22.906886 -24.544182 C 22.711886 -24.558182 22.522132 -24.528589 22.334132 -24.485589 C 22.142132 -24.440589 21.951379 -24.38071 21.761379 -24.33471 C 21.779379 -23.99971 21.816171 -23.666151 21.874171 -23.337151 z M -95.172706 -23.621331 C -95.959706 -25.272331 -96.250601 -27.185491 -96.114601 -29.010491 C -96.103601 -29.561491 -95.626671 -30.395909 -94.986671 -30.013909 C -94.505671 -29.438909 -94.334617 -28.640464 -94.280617 -27.907464 C -94.642617 -28.064464 -94.559613 -28.606354 -94.926613 -28.745354 C -95.527613 -28.881354 -95.713093 -28.088932 -95.719093 -27.637932 C -95.890093 -26.259932 -95.298706 -24.965331 -95.172706 -23.621331 z M -53.092139 -23.798577 C -53.653139 -24.914577 -52.703194 -26.010768 -52.298194 -27.019768 C -52.799194 -27.264768 -53.467065 -27.095428 -53.741065 -26.596428 C -54.161065 -25.823428 -54.328967 -24.913987 -54.890967 -24.218987 C -55.173967 -25.234987 -54.688186 -26.13946 -54.340186 -27.05346 C -54.008186 -27.73546 -54.923143 -28.269194 -55.446143 -27.856194 C -56.249143 -27.262194 -55.800038 -25.939971 -56.388038 -25.302971 C -56.830038 -26.245971 -56.196577 -27.143104 -56.115577 -28.089104 C -56.052577 -28.692104 -55.628729 -29.422276 -54.921729 -29.290276 C -54.247729 -29.137276 -54.155569 -28.338163 -54.032569 -27.774163 C -53.670569 -28.082163 -53.317198 -28.546921 -52.777198 -28.450921 C -52.109198 -28.378921 -52.015533 -27.579136 -51.971533 -27.046136 C -51.764533 -25.811136 -52.830139 -24.928577 -53.092139 -23.798577 z M -87.290382 -24.530999 C -86.880382 -24.625999 -86.506667 -25.173085 -86.632667 -25.694085 C -86.834667 -25.610085 -87.069382 -25.549964 -87.290382 -25.469964 C -87.572382 -25.366964 -87.831999 -25.230522 -87.972999 -24.967522 C -87.802999 -24.581522 -87.540382 -24.472999 -87.290382 -24.530999 z M -144.52915 -24.608635 C -145.44415 -24.672635 -145.55543 -25.917116 -145.16343 -26.526116 C -145.03943 -26.365116 -144.90811 -26.209507 -144.78111 -26.051507 C -144.59211 -26.069507 -144.35588 -26.077487 -144.26988 -26.281487 C -144.72888 -26.593487 -145.36863 -26.756061 -145.59263 -27.320061 C -145.82663 -28.055061 -145.86918 -28.867682 -145.63218 -29.606682 C -144.91518 -32.232682 -143.98247 -34.805077 -143.47447 -37.486077 C -143.52847 -37.817077 -143.0319 -37.835077 -143.1229 -37.486077 C -143.1269 -34.264077 -144.61684 -31.303335 -145.31284 -28.225335 C -144.83284 -27.597335 -143.94406 -27.572975 -143.26206 -27.281975 C -142.71306 -27.135975 -142.85947 -26.440815 -142.72447 -26.017815 C -143.18947 -25.422815 -143.80915 -24.857635 -144.52915 -24.608635 z M -4.7317862 -24.674553 C -4.9804112 -24.675553 -5.2110753 -24.789307 -5.3030753 -25.059807 C -5.5630753 -26.167807 -5.3372901 -27.317132 -5.3982901 -28.442132 C -6.1702901 -27.501132 -6.7383605 -26.133792 -8.0203605 -25.768792 C -8.5773605 -26.154792 -8.2519425 -27.024733 -8.1419425 -27.583733 C -7.6829425 -27.875733 -7.1288995 -27.922034 -6.6228995 -28.092034 C -6.1388995 -28.697034 -5.6233565 -29.302979 -5.2913565 -30.010979 C -5.6973565 -30.499979 -5.8452081 -31.1051 -5.8392081 -31.7351 C -5.6912081 -31.6071 -5.5343175 -31.48696 -5.3763175 -31.36596 C -5.1303175 -31.41796 -4.8146573 -31.441296 -4.6746573 -31.685296 C -5.1386573 -31.899296 -5.732087 -32.024538 -5.990087 -32.508538 C -6.221087 -33.277538 -6.06763 -34.093175 -5.82163 -34.836175 C -5.11963 -36.973175 -4.082294 -39.053081 -4.002294 -41.340081 C -3.416294 -38.544081 -5.1574894 -35.994093 -5.8274894 -33.402093 C -5.1204894 -32.892093 -4.1824112 -32.757507 -3.3724112 -32.426507 C -3.2994112 -32.027507 -3.1676026 -31.617757 -3.2186026 -31.207757 C -3.8006026 -30.713757 -4.4841261 -30.36305 -5.1551261 -30.00805 C -5.0381261 -28.80005 -5.2828448 -27.583026 -5.1668448 -26.384026 C -5.0018448 -25.575026 -4.0841299 -26.078678 -3.7591299 -26.502678 C -3.7551299 -25.986678 -3.5615635 -25.318128 -4.0535635 -24.963128 C -4.2170635 -24.785628 -4.4831612 -24.673553 -4.7317862 -24.674553 z M 77.114896 -24.944085 C 73.115896 -26.530085 69.103958 -28.315288 65.278958 -30.352288 C 64.949958 -30.667288 64.888262 -31.170011 64.766262 -31.593011 C 68.616262 -29.652011 72.482899 -27.721085 76.468899 -26.069085 C 76.839899 -25.821085 76.924896 -25.326085 77.114896 -24.944085 z M -39.180518 -25.777581 C -39.848518 -25.940581 -39.875545 -26.816725 -39.908545 -27.375725 C -39.631545 -27.135725 -38.977771 -26.814272 -38.815771 -27.311272 C -39.208771 -27.551272 -39.76708 -27.701573 -39.90708 -28.194573 C -40.26308 -29.340573 -39.912189 -30.551589 -39.444189 -31.610589 C -38.843189 -33.267589 -37.890787 -34.82889 -37.731787 -36.61889 C -37.389787 -36.17689 -37.652771 -35.515237 -37.690771 -35.000237 C -38.013771 -32.887237 -39.423791 -31.081124 -39.710791 -28.984124 C -38.981791 -28.503124 -38.128517 -28.257565 -37.305517 -27.986565 C -37.138517 -27.613565 -37.094779 -27.201577 -37.148779 -26.798577 C -37.745779 -26.339577 -38.425518 -25.890581 -39.180518 -25.777581 z M -122.86558 -27.254143 C -121.78458 -28.103143 -120.9282 -29.200518 -119.9022 -30.113518 C -118.8132 -31.149518 -117.5854 -31.988491 -116.3104 -32.760491 C -114.7554 -33.700491 -113.12993 -34.539468 -111.60093 -35.511468 C -110.88293 -35.944468 -110.16714 -36.450065 -109.71714 -37.174065 C -109.58914 -37.356065 -109.59687 -37.628046 -109.76987 -37.779046 C -110.93387 -39.020046 -112.41809 -39.897241 -113.88609 -40.729241 C -114.62809 -41.115241 -115.4584 -41.489433 -116.3104 -41.700433 C -117.3274 -41.953433 -118.37663 -41.972214 -119.34263 -41.501214 C -120.60263 -40.971214 -120.94823 -39.533827 -121.21323 -38.329827 C -121.87823 -34.904827 -122.35768 -31.448468 -122.94468 -28.011468 C -122.90968 -27.770468 -123.11558 -27.402143 -122.86558 -27.254143 z M -76.330421 -27.700921 C -76.415505 -27.697016 -76.502038 -27.702893 -76.591163 -27.722893 L -76.62339 -27.731682 C -77.47439 -28.265682 -76.981476 -29.431409 -77.411476 -30.201409 C -78.125476 -31.884409 -77.128163 -33.553976 -76.591163 -35.156976 C -76.553163 -35.269976 -76.517229 -35.382354 -76.484229 -35.495354 C -75.847229 -37.812354 -74.95644 -40.130691 -74.97544 -42.564691 C -74.91244 -42.544691 -74.787952 -42.504124 -74.724952 -42.484124 C -74.252952 -40.488124 -75.007952 -38.483831 -75.474952 -36.558831 C -75.741952 -35.442831 -76.194163 -34.378089 -76.591163 -33.298089 C -76.876163 -32.521089 -77.132386 -31.735182 -77.269386 -30.919182 C -77.063386 -30.739182 -76.834163 -30.613745 -76.591163 -30.520745 C -75.960163 -30.280745 -75.233581 -30.258319 -74.594581 -30.059319 C -74.427581 -29.593319 -74.231784 -28.9188 -74.752784 -28.6018 C -75.232284 -28.285925 -75.734833 -27.728251 -76.330421 -27.700921 z M -102.08237 -27.886956 C -102.79337 -28.581956 -102.80352 -29.742518 -103.40952 -30.488518 C -104.28452 -30.084518 -105.14718 -29.652483 -105.98618 -29.177483 C -106.41618 -28.930483 -106.52845 -29.55069 -106.68345 -29.81469 C -106.89445 -30.43369 -107.41942 -30.943589 -107.45542 -31.610589 C -106.48042 -32.146589 -105.51596 -32.805448 -104.45396 -33.116448 C -103.86796 -32.355448 -103.71491 -31.32155 -103.10191 -30.57055 C -102.07491 -30.84255 -101.20529 -31.551948 -100.16929 -31.803948 C -99.600289 -31.130948 -99.338343 -30.221929 -99.000343 -29.408929 C -99.875343 -28.720929 -101.05837 -28.372956 -102.08237 -27.886956 z M -138.22154 -28.343987 C -138.51654 -28.717987 -138.53531 -29.221276 -138.66831 -29.665276 C -138.95931 -31.071276 -139.41582 -32.556776 -138.95982 -33.977776 C -138.80282 -34.479776 -138.06349 -34.775647 -137.72349 -34.295647 C -137.44549 -33.755647 -137.20905 -33.108749 -137.32505 -32.499749 C -137.65705 -32.520749 -137.6527 -32.964901 -137.8187 -33.180901 C -138.3317 -33.344901 -138.76665 -32.913604 -138.71665 -32.401604 C -138.92265 -31.013604 -138.33054 -29.705987 -138.22154 -28.343987 z M -76.468116 -28.959222 C -76.344507 -28.958706 -76.220733 -29.001561 -76.119483 -29.101311 C -76.229483 -29.259311 -76.403163 -29.347323 -76.591163 -29.413323 C -76.747163 -29.467323 -76.912913 -29.505413 -77.059913 -29.555413 C -77.074913 -29.268413 -76.849163 -29.03287 -76.591163 -28.97387 C -76.550663 -28.96437 -76.509319 -28.959393 -76.468116 -28.959222 z M -13.573583 -30.492913 C -13.860583 -31.321913 -14.372103 -32.061608 -14.656103 -32.880608 C -13.628103 -33.384608 -12.671579 -34.049597 -11.594579 -34.443597 C -11.132579 -33.642597 -10.746845 -32.797319 -10.416845 -31.934319 C -11.460845 -31.454319 -12.488583 -30.828913 -13.573583 -30.492913 z M -62.407081 -31.540276 C -62.598696 -31.545488 -62.776139 -31.646472 -62.900733 -31.888909 C -63.281733 -33.037909 -63.144588 -34.282312 -63.177588 -35.476312 C -63.886588 -34.699312 -64.36751 -33.710319 -65.22251 -33.059319 C -65.47251 -32.872319 -65.832292 -32.524097 -66.148292 -32.756097 C -66.500292 -33.266097 -66.212983 -33.910358 -66.181983 -34.474358 C -65.641983 -34.669358 -65.070077 -34.776999 -64.553077 -35.030999 C -63.869077 -35.588999 -63.587241 -36.502202 -62.921241 -37.064202 C -62.586241 -35.678202 -63.283006 -34.122339 -62.681006 -32.829339 C -62.148006 -32.713339 -61.794963 -33.205058 -61.536963 -33.591058 C -61.255963 -33.423058 -61.420323 -32.933979 -61.355323 -32.635979 C -61.340948 -32.141479 -61.917398 -31.526957 -62.407081 -31.540276 z M -17.626806 -31.544671 C -18.110806 -32.297671 -18.442767 -33.150269 -18.836767 -33.957269 C -17.971767 -34.590269 -16.910533 -34.99144 -15.971533 -35.53344 C -15.334533 -34.90444 -15.067021 -33.923011 -14.722021 -33.093011 C -15.580021 -32.416011 -16.669806 -32.074671 -17.626806 -31.544671 z M 27.32632 -32.773675 C 26.53832 -34.284675 26.184324 -36.094483 26.305324 -37.802483 C 26.270324 -38.268483 26.668133 -38.976011 27.209133 -38.718011 C 27.848133 -38.224011 28.037211 -37.361706 28.164211 -36.605706 C 27.715211 -36.671706 27.822207 -37.445218 27.310207 -37.480218 C 26.693207 -37.546218 26.569336 -36.785456 26.617336 -36.324456 C 26.569336 -35.089456 27.17332 -33.963675 27.32632 -32.773675 z M 8.9967298 -33.580804 C 9.1372923 -33.566257 9.2871829 -33.573311 9.4361829 -33.601311 C 9.9831829 -33.702311 10.535386 -34.069601 10.719386 -34.547601 C 10.296386 -34.529601 9.8651829 -34.567503 9.4361829 -34.572503 C 8.9991829 -34.579503 8.5669797 -34.55444 8.1529797 -34.40844 C 8.2264797 -33.87219 8.5750423 -33.624444 8.9967298 -33.580804 z M -118.47691 -34.247308 C -118.95491 -35.600308 -119.23422 -37.131343 -118.92222 -38.558343 C -118.84222 -39.034343 -118.26554 -39.656226 -117.80454 -39.188226 C -117.36554 -38.655226 -117.20499 -37.871038 -117.28599 -37.196038 C -117.54799 -37.438038 -117.60242 -37.873886 -117.95542 -38.014886 C -118.30442 -38.144886 -118.65528 -37.819007 -118.71128 -37.489007 C -119.03128 -36.401007 -118.41791 -35.338308 -118.47691 -34.247308 z M -58.043311 -36.327386 C -57.826311 -36.303386 -57.934311 -36.488437 -58.043311 -36.554437 C -58.126311 -36.604437 -58.208315 -36.584358 -58.147315 -36.349358 C -58.106315 -36.337358 -58.072311 -36.331386 -58.043311 -36.327386 z M 74.1647 -36.580804 C 74.7487 -36.675804 75.32147 -37.083858 75.52847 -37.661858 C 75.08447 -37.706858 74.6187 -37.719323 74.1647 -37.663323 C 73.6807 -37.606323 73.210466 -37.471476 72.799466 -37.219476 C 73.082466 -36.670476 73.6277 -36.493804 74.1647 -36.580804 z M -61.848975 -39.381585 C -62.516975 -40.892585 -62.868713 -42.623812 -62.755713 -44.288812 C -62.705713 -44.825812 -62.34801 -45.718683 -61.66001 -45.356683 C -61.09801 -44.837683 -60.900307 -43.990843 -60.939307 -43.245843 C -61.250307 -43.407843 -61.180581 -43.87948 -61.469581 -44.07348 C -61.769581 -44.31148 -62.259514 -44.080452 -62.326514 -43.720452 C -62.736514 -42.254452 -61.986975 -40.824585 -61.848975 -39.381585 z M -129.75181 -39.607171 C -129.31081 -39.660171 -128.86581 -39.906097 -128.62681 -40.256097 C -128.97581 -40.323097 -129.36781 -40.408484 -129.75181 -40.427484 C -130.15481 -40.446484 -130.54981 -40.391741 -130.87681 -40.166741 C -130.66481 -39.702741 -130.20981 -39.551171 -129.75181 -39.607171 z M 66.531399 -39.815179 C 65.380399 -40.158179 64.818313 -41.481382 64.993313 -42.598382 C 65.163313 -42.864382 65.515497 -42.949163 65.756497 -43.149163 C 65.380497 -44.118163 65.031762 -45.196054 65.328762 -46.237054 C 65.897762 -46.940054 66.963458 -46.753402 67.716458 -46.493402 C 69.032458 -45.903402 70.513462 -45.032796 70.820462 -43.497796 C 69.634462 -44.708796 67.917848 -45.94339 66.116848 -45.43139 C 65.338848 -45.18039 65.424137 -44.155902 65.938137 -43.680902 C 66.589137 -42.646902 68.211333 -42.286542 68.138333 -40.862542 C 67.597333 -41.198542 67.211009 -41.744769 66.631009 -42.019769 C 66.185009 -42.035769 65.693329 -41.83403 65.409329 -41.48803 C 65.739329 -41.11403 66.349786 -40.870589 66.702786 -41.360589 C 66.772786 -40.857589 67.194399 -40.087179 66.531399 -39.815179 z M -106.02573 -40.266351 C -105.55773 -40.328351 -105.08909 -40.628042 -104.88609 -41.050042 C -105.23809 -41.108042 -105.63773 -41.183132 -106.02573 -41.192132 C -106.44273 -41.201132 -106.84538 -41.13498 -107.16538 -40.88598 C -106.95438 -40.37498 -106.48973 -40.204351 -106.02573 -40.266351 z M -86.93003 -41.058831 C -86.56403 -41.037831 -86.137902 -41.072202 -85.747902 -41.189202 C -85.172902 -41.361202 -84.675773 -41.71071 -84.565773 -42.33471 C -84.957773 -42.39571 -85.370902 -42.314351 -85.747902 -42.141351 C -86.253902 -41.907351 -86.69503 -41.508831 -86.93003 -41.058831 z M -135.96714 -42.76098 C -136.09744 -42.764587 -136.23344 -42.798378 -136.37144 -42.869378 C -136.97644 -43.930378 -136.67581 -45.200777 -136.87681 -46.352777 C -137.60281 -45.418777 -138.18342 -44.264886 -139.22642 -43.639886 C -139.99542 -43.510886 -139.92439 -44.540066 -139.89439 -45.049066 C -139.92839 -45.929066 -138.81062 -45.791148 -138.25962 -46.108148 C -137.56962 -46.641148 -137.39433 -47.575452 -136.83433 -48.220452 C -136.75133 -48.215452 -136.58867 -48.20348 -136.50767 -48.19848 C -136.46767 -46.87548 -136.54942 -45.542218 -136.33042 -44.230218 C -135.78042 -43.993218 -135.43763 -44.556749 -135.09263 -44.874749 C -134.4075 -44.200124 -135.05508 -42.735728 -135.96714 -42.76098 z M -15.885107 -42.89721 C -15.392107 -42.94921 -14.88865 -43.19832 -14.59165 -43.55932 C -14.92565 -43.76732 -15.409107 -43.877585 -15.885107 -43.881585 C -16.378107 -43.884585 -16.866564 -43.772952 -17.178564 -43.532952 C -16.942564 -43.015952 -16.420107 -42.84021 -15.885107 -42.89721 z M 47.970364 -43.283929 C 47.949273 -43.285148 47.924407 -43.291409 47.895657 -43.302972 C 47.766657 -43.413972 47.640946 -43.612976 47.716946 -43.781976 C 47.957555 -43.914726 48.21923 -43.269548 47.970364 -43.283929 z M 39.00259 -43.97973 C 38.49759 -44.79673 38.407895 -45.868089 38.114895 -46.798089 C 37.930895 -47.784089 37.748414 -48.995527 38.447414 -49.821527 C 39.385414 -50.068527 39.624941 -48.72946 39.737941 -48.05346 C 39.392941 -48.21046 39.289527 -48.779273 38.838527 -48.686273 C 38.302527 -48.429273 38.236406 -47.749824 38.239406 -47.225824 C 38.361406 -46.114824 38.83259 -45.08073 39.00259 -43.97973 z M 47.670071 -44.114495 C 47.098071 -45.137495 46.758696 -46.383159 47.060696 -47.545159 C 47.138696 -47.890159 47.523192 -48.36846 47.894192 -48.05346 C 48.344192 -47.59946 48.486301 -46.921902 48.556301 -46.305902 C 48.303301 -46.579902 48.050223 -47.315937 47.601223 -46.866937 C 46.874223 -46.082937 47.506071 -44.992495 47.670071 -44.114495 z M -107.99448 -44.425042 C -110.57548 -45.202042 -113.03766 -46.468929 -115.40366 -47.783929 C -115.96766 -48.018929 -116.17279 -48.750788 -116.10679 -49.289788 C -113.76779 -47.963788 -111.37167 -46.73012 -108.86167 -45.75512 C -108.25767 -45.60812 -108.13548 -44.937042 -107.99448 -44.425042 z M 8.5982922 -44.997796 C 8.1052922 -45.604796 7.9451008 -46.406171 7.6271008 -47.107171 C 7.2271008 -48.302171 6.4733157 -49.864331 7.3473157 -50.996331 C 8.2913157 -51.262331 8.5818196 -49.827374 8.7638196 -49.140374 C 8.3838196 -49.209374 8.430425 -49.823808 8.009425 -49.809808 C 7.517425 -49.841808 7.38305 -49.23966 7.40005 -48.85766 C 7.48805 -47.49266 8.3142922 -46.315796 8.5982922 -44.997796 z M -98.410011 -47.599359 C -98.984011 -47.922359 -99.229011 -48.787312 -99.160011 -49.351312 C -98.893011 -49.053312 -98.276718 -48.69914 -98.109718 -49.27514 C -98.676718 -49.49914 -99.279558 -49.820015 -99.470558 -50.447015 C -99.949558 -51.709015 -99.449824 -53.017917 -99.042824 -54.221917 C -98.566824 -55.909917 -97.981042 -57.577039 -97.742042 -59.321039 C -97.328042 -58.876039 -97.613769 -58.186863 -97.586769 -57.640863 C -97.888769 -55.602863 -98.568941 -53.641089 -99.162941 -51.673089 C -99.222941 -51.413089 -99.371359 -51.01082 -99.041359 -50.87182 C -98.291359 -50.51682 -97.462636 -50.382933 -96.675636 -50.137933 C -96.530636 -49.774933 -96.460753 -49.38382 -96.420753 -48.99682 C -96.974753 -48.42182 -97.578011 -47.707359 -98.410011 -47.599359 z M 25.123195 -48.447503 C 19.503195 -50.232503 14.017714 -52.420921 8.5807141 -54.700921 C 7.9347141 -54.812921 7.6545344 -55.478042 7.5465344 -56.050042 C 13.134534 -53.695042 18.814554 -51.546773 24.566554 -49.623773 C 24.845554 -49.286773 24.998195 -48.863503 25.123195 -48.447503 z M -122.35435 -49.020257 C -122.13972 -49.081132 -121.9535 -49.212702 -121.827 -49.439202 C -122.279 -49.342202 -122.73408 -49.531824 -123.05308 -49.850824 C -123.50108 -50.297824 -123.68042 -50.998956 -123.20542 -51.511956 C -123.52142 -51.734956 -123.85305 -51.934218 -124.20005 -52.105218 C -124.31705 -51.245218 -124.3373 -50.314191 -124.0023 -49.502191 C -123.7623 -49.294191 -123.41108 -49.109117 -123.05308 -49.026117 C -122.81308 -48.970117 -122.56897 -48.959382 -122.35435 -49.020257 z M -1.8211416 -50.202386 C -2.3511416 -50.989386 -2.6666299 -51.904621 -3.1966299 -52.692621 C -4.2886299 -52.391621 -5.1768995 -51.444804 -6.2478995 -51.205804 C -6.7018995 -51.969804 -7.2649777 -52.715835 -7.5779777 -53.537835 C -6.6579777 -54.193835 -5.6741495 -54.782746 -4.6541495 -55.270746 C -3.9431495 -54.564746 -3.705751 -53.468031 -3.045751 -52.738031 C -2.055751 -53.130031 -1.1701377 -53.723761 -0.21713766 -54.186761 C 0.45586234 -53.576761 0.86532331 -52.567753 1.1803233 -51.728753 C 0.19932331 -51.193753 -0.76614161 -50.561386 -1.8211416 -50.202386 z M -65.83628 -51.220453 C -70.02328 -52.778453 -74.099558 -54.634191 -78.095558 -56.627191 C -78.449558 -56.942191 -78.509565 -57.47414 -78.678565 -57.90014 C -74.752565 -56.08614 -70.847303 -54.199574 -66.835303 -52.569574 C -66.217303 -52.410574 -66.04028 -51.743453 -65.83628 -51.220453 z M -39.744482 -51.384515 C -40.537482 -51.743515 -41.40183 -51.811581 -42.25083 -51.652581 C -42.16283 -52.026581 -42.064717 -52.411425 -41.859717 -52.742425 C -41.205717 -52.906425 -40.544361 -52.675789 -39.895361 -52.664789 C -39.667361 -54.109789 -39.030576 -55.611828 -38.115576 -56.704828 C -37.853576 -56.189828 -37.980373 -55.551218 -38.332373 -55.105218 C -39.088373 -53.991218 -39.486482 -52.692515 -39.744482 -51.384515 z M -119.5521 -51.636468 C -119.5631 -51.718468 -119.58605 -51.883058 -119.59605 -51.966058 C -119.50505 -52.075058 -119.40933 -52.182788 -119.31333 -52.289788 C -119.60333 -52.685788 -119.80593 -53.183804 -120.22593 -53.455804 C -121.14393 -53.522804 -122.14571 -53.219867 -122.75571 -52.494867 C -123.09471 -53.001867 -122.95538 -53.693374 -122.43638 -54.015374 C -121.30138 -54.652374 -119.96261 -54.460464 -118.71861 -54.532464 C -118.15861 -54.557464 -117.39237 -54.935687 -117.45737 -55.585687 C -117.92537 -56.306687 -119.14811 -55.946808 -119.11411 -55.059808 C -119.61711 -55.217808 -119.75063 -55.981589 -120.36363 -55.985589 C -120.90863 -56.030589 -121.13991 -55.538132 -121.10191 -55.067132 C -121.41691 -55.090132 -121.73027 -55.137191 -122.04527 -55.127191 C -122.26227 -54.760191 -122.45879 -54.375714 -122.75279 -54.063714 C -122.85279 -54.116714 -122.95408 -54.168382 -123.05308 -54.223382 L -123.12779 -54.267328 C -122.77279 -53.476328 -123.89863 -53.180894 -123.84263 -52.472894 L -123.05308 -52.386468 C -122.49908 -52.326468 -121.94495 -52.268433 -121.39195 -52.200433 C -120.75195 -52.165433 -119.9801 -52.214468 -119.5521 -51.636468 z M -45.249365 -52.08471 C -45.315365 -52.65771 -45.733647 -53.190128 -46.362647 -53.088128 C -46.915647 -53.178128 -47.102592 -52.553566 -47.531592 -52.361566 C -47.534592 -52.859566 -47.660807 -53.481566 -47.251807 -53.861566 C -46.181807 -54.986566 -45.570772 -56.49555 -45.190772 -57.94555 C -44.812772 -56.78755 -45.633803 -55.373945 -46.022803 -54.199945 C -45.239803 -53.849945 -45.038365 -52.84271 -45.249365 -52.08471 z M -50.812842 -52.847894 C -51.875842 -53.071894 -52.36578 -54.232039 -52.52378 -55.196039 C -52.47978 -55.898039 -51.585783 -55.915191 -51.127783 -56.252191 C -51.431783 -56.995191 -52.166014 -57.880972 -51.639014 -58.677972 C -50.771014 -59.304972 -49.312936 -59.036968 -49.183936 -57.823968 C -49.874936 -57.841968 -50.836397 -58.152605 -51.331397 -57.526605 C -51.221397 -56.774605 -50.573823 -56.15889 -50.667823 -55.36889 C -50.964823 -54.93489 -51.736026 -55.093593 -51.951026 -54.589593 C -51.927026 -54.118593 -51.343088 -54.001199 -50.990088 -53.835199 C -50.906088 -53.510199 -50.836842 -53.180894 -50.812842 -52.847894 z M -56.695655 -53.482171 C -56.982655 -53.677171 -56.882248 -54.234394 -56.754248 -54.535394 C -55.722248 -55.843394 -54.899885 -57.430398 -54.956885 -59.139398 L -54.817725 -59.190668 C -54.449725 -57.119668 -55.403655 -55.054171 -56.695655 -53.482171 z "
     transform="matrix(1.3333333,0,0,-1.3333333,201.47897,0.15919)" />
</svg>
