<?xml version="1.0" encoding="UTF-8" standalone="no"?>
<!-- Created with Inkscape (http://www.inkscape.org/) -->

<svg
   version="1.1"
   id="svg1"
   width="141.36288"
   height="187.43625"
   viewBox="0 0 141.36288 187.43625"
   sodipodi:docname="s8.svg"
   inkscape:version="1.4 (1:1.4+202410161351+e7c3feb100)"
   xmlns:inkscape="http://www.inkscape.org/namespaces/inkscape"
   xmlns:sodipodi="http://sodipodi.sourceforge.net/DTD/sodipodi-0.dtd"
   xmlns="http://www.w3.org/2000/svg"
   xmlns:svg="http://www.w3.org/2000/svg">
  <defs
     id="defs1">
    <clipPath
       clipPathUnits="userSpaceOnUse"
       id="clipPath10464">
      <path
         d="M 0,595 H 842 V 0 H 0 Z"
         transform="translate(-18.6211,-146.2676)"
         id="path10464" />
    </clipPath>
    <clipPath
       clipPathUnits="userSpaceOnUse"
       id="clipPath10466">
      <path
         d="M 0,595 H 842 V 0 H 0 Z"
         transform="translate(-64.192402,-212.9375)"
         id="path10466" />
    </clipPath>
    <clipPath
       clipPathUnits="userSpaceOnUse"
       id="clipPath10468">
      <path
         d="M 0,595 H 842 V 0 H 0 Z"
         transform="translate(-88.459,-191.7412)"
         id="path10468" />
    </clipPath>
    <clipPath
       clipPathUnits="userSpaceOnUse"
       id="clipPath10470">
      <path
         d="M 0,595 H 842 V 0 H 0 Z"
         transform="translate(-100.53171,-186.8359)"
         id="path10470" />
    </clipPath>
    <clipPath
       clipPathUnits="userSpaceOnUse"
       id="clipPath10472">
      <path
         d="M 0,595 H 842 V 0 H 0 Z"
         transform="translate(-99.938005,-184.1924)"
         id="path10472" />
    </clipPath>
    <clipPath
       clipPathUnits="userSpaceOnUse"
       id="clipPath10474">
      <path
         d="M 0,595 H 842 V 0 H 0 Z"
         transform="translate(-35.990201,-182.82031)"
         id="path10474" />
    </clipPath>
    <clipPath
       clipPathUnits="userSpaceOnUse"
       id="clipPath10476">
      <path
         d="M 0,595 H 842 V 0 H 0 Z"
         transform="translate(-99.645002,-183.5215)"
         id="path10476" />
    </clipPath>
    <clipPath
       clipPathUnits="userSpaceOnUse"
       id="clipPath10478">
      <path
         d="M 0,595 H 842 V 0 H 0 Z"
         transform="translate(-111.8853,-174.44431)"
         id="path10478" />
    </clipPath>
    <clipPath
       clipPathUnits="userSpaceOnUse"
       id="clipPath10480">
      <path
         d="M 0,595 H 842 V 0 H 0 Z"
         transform="translate(-83.981905,-178.9102)"
         id="path10480" />
    </clipPath>
    <clipPath
       clipPathUnits="userSpaceOnUse"
       id="clipPath10482">
      <path
         d="M 0,595 H 842 V 0 H 0 Z"
         transform="translate(-102.13671,-176.8291)"
         id="path10482" />
    </clipPath>
    <clipPath
       clipPathUnits="userSpaceOnUse"
       id="clipPath10484">
      <path
         d="M 0,595 H 842 V 0 H 0 Z"
         transform="translate(-39.772001,-176.2432)"
         id="path10484" />
    </clipPath>
    <clipPath
       clipPathUnits="userSpaceOnUse"
       id="clipPath10486">
      <path
         d="M 0,595 H 842 V 0 H 0 Z"
         transform="translate(-67.940402,-175.53421)"
         id="path10486" />
    </clipPath>
    <clipPath
       clipPathUnits="userSpaceOnUse"
       id="clipPath10488">
      <path
         d="M 0,595 H 842 V 0 H 0 Z"
         transform="translate(-64.440401,-166.07131)"
         id="path10488" />
    </clipPath>
    <clipPath
       clipPathUnits="userSpaceOnUse"
       id="clipPath10490">
      <path
         d="M 0,595 H 842 V 0 H 0 Z"
         transform="translate(-35.288601,-159.9229)"
         id="path10490" />
    </clipPath>
    <clipPath
       clipPathUnits="userSpaceOnUse"
       id="clipPath10492">
      <path
         d="M 0,595 H 842 V 0 H 0 Z"
         transform="translate(-104.8486,-148.33501)"
         id="path10492" />
    </clipPath>
    <clipPath
       clipPathUnits="userSpaceOnUse"
       id="clipPath10494">
      <path
         d="M 0,595 H 842 V 0 H 0 Z"
         transform="translate(-27.412101,-147.7588)"
         id="path10494" />
    </clipPath>
    <clipPath
       clipPathUnits="userSpaceOnUse"
       id="clipPath10496">
      <path
         d="M 0,595 H 842 V 0 H 0 Z"
         transform="translate(-115.4385,-146.33401)"
         id="path10496" />
    </clipPath>
    <clipPath
       clipPathUnits="userSpaceOnUse"
       id="clipPath10498">
      <path
         d="M 0,595 H 842 V 0 H 0 Z"
         transform="translate(-65.564501,-143.1982)"
         id="path10498" />
    </clipPath>
    <clipPath
       clipPathUnits="userSpaceOnUse"
       id="clipPath10500">
      <path
         d="M 0,595 H 842 V 0 H 0 Z"
         transform="translate(-92.158705,-145.43551)"
         id="path10500" />
    </clipPath>
    <clipPath
       clipPathUnits="userSpaceOnUse"
       id="clipPath10502">
      <path
         d="M 0,595 H 842 V 0 H 0 Z"
         transform="translate(-41.099101,-144.877)"
         id="path10502" />
    </clipPath>
    <clipPath
       clipPathUnits="userSpaceOnUse"
       id="clipPath10504">
      <path
         d="M 0,595 H 842 V 0 H 0 Z"
         transform="translate(-31.358901,-143.9551)"
         id="path10504" />
    </clipPath>
    <clipPath
       clipPathUnits="userSpaceOnUse"
       id="clipPath10506">
      <path
         d="M 0,595 H 842 V 0 H 0 Z"
         transform="translate(-78.864699,-143.9521)"
         id="path10506" />
    </clipPath>
    <clipPath
       clipPathUnits="userSpaceOnUse"
       id="clipPath10508">
      <path
         d="M 0,595 H 842 V 0 H 0 Z"
         transform="translate(-89.6245,-139.501)"
         id="path10508" />
    </clipPath>
    <clipPath
       clipPathUnits="userSpaceOnUse"
       id="clipPath10510">
      <path
         d="M 0,595 H 842 V 0 H 0 Z"
         transform="translate(-67.022902,-137.1299)"
         id="path10510" />
    </clipPath>
    <clipPath
       clipPathUnits="userSpaceOnUse"
       id="clipPath10512">
      <path
         d="M 0,595 H 842 V 0 H 0 Z"
         transform="translate(-26.8936,-135.374)"
         id="path10512" />
    </clipPath>
    <clipPath
       clipPathUnits="userSpaceOnUse"
       id="clipPath10514">
      <path
         d="M 0,595 H 842 V 0 H 0 Z"
         transform="translate(-46.484401,-137.33401)"
         id="path10514" />
    </clipPath>
  </defs>
  <sodipodi:namedview
     id="namedview1"
     pagecolor="#ffffff"
     bordercolor="#000000"
     borderopacity="0.25"
     inkscape:showpageshadow="2"
     inkscape:pageopacity="0.0"
     inkscape:pagecheckerboard="0"
     inkscape:deskcolor="#d1d1d1"
     inkscape:zoom="0.73625034"
     inkscape:cx="12.224103"
     inkscape:cy="252.63146"
     inkscape:window-width="1190"
     inkscape:window-height="788"
     inkscape:window-x="50"
     inkscape:window-y="61"
     inkscape:window-maximized="1"
     inkscape:current-layer="svg1">
    <inkscape:page
       x="0"
       y="0"
       width="141.36288"
       height="187.43625"
       id="page2"
       margin="0"
       bleed="0" />
  </sodipodi:namedview>
  <path
     id="path10463"
     clip-path="url(#clipPath10464)"
     style="fill:#00a651;fill-opacity:1;fill-rule:nonzero;stroke:none"
     d="m 52.315561,118.36923 c -0.097,0.004 -0.196899,-0.0435 -0.295899,-0.12745 -0.086,-0.071 -0.172277,-0.16964 -0.259277,-0.28564 -0.056,-0.074 -0.110992,-0.15716 -0.166992,-0.24316 -0.051,-0.079 -0.101809,-0.1621 -0.153809,-0.2461 -0.244,-0.405 -0.489957,-0.86048 -0.730957,-1.16748 -0.171,-0.22 -0.338441,-0.36474 -0.502441,-0.36474 -0.048,-0.462 0.246937,-40.51301 0.210937,-40.97901 l 0.0029,-0.08203 0.102539,-0.07178 0.186035,-0.127442 0.02783,-0.02051 -0.02783,-0.08643 c -0.131,-0.426 -0.173812,-0.870176 -0.257812,-1.305176 l -0.02637,-0.158203 c 10e-4,-0.06 0.0039,-0.1807 0.0059,-0.2417 l 0.01318,-0.169921 c 0.07,-1.422 0.145875,-2.853415 0.04687,-4.274415 l -0.0088,-0.118652 c 0.035,-0.816 0.05577,-1.632824 -0.03223,-2.444824 l -0.0088,-0.177246 c 0.004,-0.096 0.0078,-0.28486 0.0088,-0.38086 l 0.0791,-0.186035 c 0.14,-0.173 0.139184,-0.405867 0.01318,-0.588867 v -0.505371 c 0.137,-0.169 0.134395,-0.398219 0.0044,-0.574219 l -0.0542,-0.114258 0.03369,-0.13916 c 0.185,-0.645 0.216422,-1.352723 -0.01758,-1.990723 l -0.03223,-0.117187 c 0.425,-3.583 0.0079,-7.222661 0.23291,-10.826661 0.015,-0.242 0.03366,-0.483562 0.05566,-0.726562 0.038,-0.236 0.0093,-0.472195 -0.05566,-0.700195 -0.014,-0.051 -0.03134,-0.100879 -0.04834,-0.150879 -0.011,-0.053 -0.03294,-0.157473 -0.04394,-0.209473 0.037,-0.14 0.06728,-0.27941 0.09228,-0.42041 0.246,-1.375 0.0038,-2.813032 0.09082,-4.207032 -0.067,-0.66 0.142179,-1.396949 -0.09082,-2.022949 -0.029,-0.08 -0.06533,-0.15691 -0.111328,-0.23291 -0.402,0.558 -0.331258,1.294988 -0.489258,1.937988 l -0.02344,0.118653 c -0.367,1.183 -0.193817,2.428672 -0.361817,3.638672 -0.19,3.007 -0.661437,5.989519 -1.148437,8.957519 l -0.05274,0.140625 c -0.095,0.21 -0.166332,0.426926 -0.215332,0.648926 l -0.04395,0.137696 c -0.213,0.525 -0.361496,1.069511 -0.458496,1.624511 l -0.0293,0.101075 c -0.31,0.684 -0.590309,1.389812 -0.716309,2.132812 l -0.02783,0.133301 c -0.135,-0.009 -0.270296,-0.0047 -0.404296,0.0073 l -0.03369,-0.125977 c -0.232,-1.137 -0.830273,-2.136429 -1.280273,-3.190429 -0.103,-0.239 -0.195856,-0.480563 -0.276856,-0.726563 0.043,-0.382 0.171856,-0.746676 0.276856,-1.117676 0.045,-0.162 0.08579,-0.324722 0.112793,-0.490722 l 0.03516,-0.137696 c 0.066,-0.169 0.08252,-0.353132 0.06152,-0.536132 l 0.04981,-0.114258 c 0.409,-0.693 0.399359,-1.515762 0.568359,-2.280762 0.44,-2.283 0.683473,-4.598274 0.959473,-6.905274 -0.199,-1.512 0.196328,-3.171269 -0.638672,-4.551269 l -0.07617,-0.150879 c -0.008,-0.015 -0.02276,-0.04845 -0.03076,-0.06445 l -0.07178,-0.210938 c -0.042,-0.282 -0.168,-0.534492 -0.375,-0.729492 l -0.0835,-0.199219 c -0.073,-0.25 -0.205,-0.471504 -0.375,-0.666504 -0.033,-0.053 -0.09523,-0.148007 -0.13623,-0.208007 l -0.01465,-0.02344 c -0.652,-0.995 -1.611512,-1.886367 -2.749512,-2.276367 -0.078,-0.023 -0.236406,-0.07122 -0.316406,-0.09522 -0.015,-0.006 -0.04406,-0.01597 -0.06006,-0.02197 l -0.175782,-0.0791 -0.313476,-0.117188 c -0.088,-0.024 -0.267957,-0.06982 -0.355957,-0.09082 -0.176,-0.063 -0.362922,-0.07459 -0.544922,-0.05859 l -0.07178,0.0029 h -0.07764 c -0.208,0.003 -0.417488,0.0067 -0.625488,0.01172 -0.145,2.244 -0.04971,4.503929 -0.07471,6.752929 0.066,1.068 -0.230406,2.14329 0.05859,3.19629 -0.016,0.065 -0.05185,0.195742 -0.06885,0.260742 -0.266,1.242 -0.07514,2.540199 -0.09815,3.804199 0.006,0.246 0.0085,0.488957 0.0015,0.730957 -0.019,1.497 -0.104465,2.998211 -0.0015,4.491211 0.02,0.22 0.03541,0.438785 0.04541,0.654785 v 0.08203 c -0.005,0.131 -0.01597,0.397273 -0.02197,0.530273 0.002,0.062 0.0015,0.186023 0.0015,0.249023 -0.01,0.117 -0.02909,0.354145 -0.03809,0.473145 -0.277,0.802 -0.03153,1.665629 -0.165527,2.494629 0.028,3.966 -0.104633,7.936391 0.02637,11.900391 l 0.0088,0.172851 c -0.01,0.163 -0.01651,0.326793 -0.02051,0.487793 l -0.04102,0.14502 c -0.227,0.841 -0.234465,42.888056 -0.0015,43.727056 l 0.04102,0.11865 c -0.141,0.243 -0.186625,0.52727 -0.140625,0.80127 -0.649,0.147 -1.330188,-1.77308 -1.992188,-1.80908 0.083,-4.65 -0.06595,-48.536088 0.123047,-53.184088 0.015,-0.851 0.147023,-1.729152 -0.125977,-2.556152 -0.102,-0.423 -0.04926,-0.867598 0.05273,-1.287598 0.194,-0.674 0.09519,-1.378824 0.117187,-2.069824 0.027,-4.061 0.01651,-8.120641 0.02051,-12.181641 -0.064,-2.477 0.29061,-4.947758 0.09961,-7.426758 -0.248,-0.015 -0.473786,0.06884 -0.654786,0.23584 l -0.09668,0.06738 c -2.453,1.231 -3.170161,4.289848 -3.139161,6.818848 0.066,2.613 0.507082,5.210277 1.059082,7.759277 l 0.0249,0.120117 c 0.061,0.534 0.131715,1.066032 0.282715,1.582032 0.053,0.182 0.07531,0.368175 0.07031,0.555175 -0.054,0.945 -0.0229,1.891403 -0.0249,2.837403 l -0.0029,0.140625 c -0.148,0.04 -0.288734,0.08748 -0.427734,0.146484 -0.085,-0.026 -0.255309,-0.07754 -0.341309,-0.102539 -0.128,-0.11 -0.283242,-0.179078 -0.448242,-0.205078 l -0.09228,-0.04102 c -0.358,-0.501 -0.815598,-0.912711 -1.287598,-1.303711 l -0.01318,-0.172851 c 0.032,-0.257 -0.143043,-0.463906 -0.394043,-0.503906 L 32.2633,54.386247 c -0.234,-0.581 -0.479398,-1.161528 -0.858398,-1.665528 l -0.04248,-0.08935 c -0.225,-0.599 -0.374886,-1.235391 -0.733886,-1.775391 l -0.03369,-0.08643 c -0.051,-0.504 -0.160269,-1.002406 -0.426269,-1.441406 l -0.02197,-0.09961 c -0.371,-2.132 -0.92943,-4.233282 -1.31543,-6.363282 -0.132,-0.725 -0.244265,-1.454476 -0.322265,-2.188476 -0.397,-1.752 -0.517039,-3.662282 -1.415039,-5.238282 -0.017,-0.062 -0.04892,-0.185558 -0.06592,-0.247558 -0.162,-0.617 -0.616625,-1.21577 -1.265625,-1.36377 l -0.09375,-0.03662 c -0.051,-0.019 -0.154079,-0.05185 -0.205079,-0.06885 h -0.490722 c -0.02,0.005 -0.05617,0.01551 -0.07617,0.02051 -0.099,0.038 -0.295043,0.114809 -0.394043,0.153809 -0.018,0.006 -0.05185,0.02037 -0.06885,0.02637 l -0.161133,0.06006 c -0.147,0.039 -0.260379,0.121488 -0.338379,0.250488 -0.044,0.035 -0.128386,0.101695 -0.171386,0.137695 -0.781,0.674 -1.487633,1.525489 -1.848633,2.500489 l -0.04248,0.101074 c -0.151,0.218 -0.295789,0.441871 -0.383789,0.692871 -0.024,0.058 -0.07168,0.172516 -0.09668,0.228516 -0.461,0.773 -0.528703,1.681039 -0.720703,2.540039 l -0.0249,0.104004 c -0.75,2.684 -0.538293,5.478703 -0.675293,8.220703 -0.08,0.002 -0.238871,0.0073 -0.317871,0.01025 -0.641,-2.846 -0.114859,-5.748352 -0.0059,-8.610352 l 0.04101,-0.117187 c 0.288,-0.595 0.356848,-1.256297 0.443848,-1.904297 l 0.02783,-0.114258 c 0.257,-0.833 0.493223,-1.673856 0.678223,-2.526856 0.026,-0.077 0.08093,-0.232082 0.106933,-0.309082 0.1,-0.164 0.181192,-0.341203 0.221192,-0.533203 0.565,-1.357 1.39739,-2.68084 2.52539,-3.61084 0.173,-0.015 0.32134,-0.112883 0.42334,-0.254883 l 0.169922,-0.09375 c 0.013,-0.007 0.04213,-0.02037 0.05713,-0.02637 0.142,-0.04 0.424895,-0.121133 0.566895,-0.161133 0.017,-0.003 0.05031,-0.01358 0.07031,-0.01758 0.38,-0.108 0.79441,-0.112562 1.17041,0.02344 0.186,0.065 0.3725,0.130035 0.5625,0.186035 l 0.08203,0.0498 c 0.862,0.858 1.615691,1.851664 1.908691,3.055664 0.045,0.155 0.08791,0.310285 0.128906,0.467285 0.812,3.103 0.841668,6.37468 1.659668,9.47168 l 0.03516,0.117187 c 0.123,0.688 0.08359,1.426246 0.433593,2.052246 l 0.03369,0.09668 c 0.031,0.406 0.118758,0.803945 0.301758,1.168945 l 0.05273,0.140625 c 0.021,0.283 0.08263,0.562805 0.244629,0.799805 l 0.08936,0.172852 c 0.048,0.202 0.112641,0.398797 0.181641,0.591797 l 0.03955,0.143554 c 0.069,0.523 0.324715,0.983813 0.657715,1.382813 l 0.09082,0.130371 c 0.008,0.013 0.0233,0.03681 0.0293,0.0498 l 0.07471,0.153808 c 0.025,0.156 0.09912,0.281 0.224121,0.375 l 0.115723,0.123047 0.04248,0.04687 0.05859,0.0044 0.166992,0.01758 0.03955,0.0044 c -0.003,-0.013 -0.0073,-0.04313 -0.01025,-0.05713 l -0.03662,-0.22998 c 0.023,-0.322 0.03029,-0.650402 -0.07471,-0.962402 -0.018,-0.083 -0.05278,-0.248055 -0.07178,-0.331055 -0.253,-1.624 -0.447097,-3.256 -0.725097,-4.875 -0.009,-0.061 -0.02616,-0.182629 -0.03516,-0.244629 -0.174,-2.052 -0.26107,-4.125782 0.0029,-6.175782 0.011,-0.067 0.03295,-0.199136 0.04395,-0.265136 0.137,-0.975 0.494422,-1.895192 0.732422,-2.846192 l 0.04102,-0.121582 c 0.126,-0.109 0.22891,-0.253199 0.23291,-0.429199 l 0.03223,-0.169922 c 0.235,0.038 0.34025,-0.221551 0.28125,-0.414551 0.71,-0.865 1.493824,-1.679254 2.444824,-2.260254 0.115,-0.048 0.22466,-0.112894 0.32666,-0.191894 0.091,-0.037 0.273746,-0.112414 0.364746,-0.149414 0.018,-0.008 0.05478,-0.02083 0.07178,-0.02783 l 0.209472,-0.08643 c 0.017,-0.008 0.05185,-0.02376 0.06885,-0.03076 0.633,-0.21 0.370648,-0.985957 0.389648,-1.480957 0.146,-1.228 0.09139,-2.468266 0.0044,-3.697266 0.19,-1.128 0.136746,-2.269972 -0.01025,-3.396972 0.17,-1.445 0.272086,-2.945278 0.03809,-4.384278 -0.304,-0.133 -0.62157,0.01861 -0.93457,-0.0044 -0.176,-0.018 -0.34995,-0.03806 -0.52295,-0.06006 -0.304,-0.044 -0.608597,-0.02472 -0.912597,-0.01172 -0.265,0 -0.531411,-0.0083 -0.795411,-0.01025 -0.359,0.002 -0.718195,0.02562 -1.075195,0.03662 l -0.124512,0.0015 c -0.786,-0.044 -1.572398,-0.03986 -2.358398,-0.0059 h -0.08496 c -0.547,-0.036 -1.09509,-0.01451 -1.64209,-0.02051 -0.148,-0.006 -0.295383,-0.01379 -0.442383,-0.0088 -0.068,0.002 -0.135613,0.0071 -0.203613,0.01611 -0.136,0.018 -0.407922,0.05717 -0.544922,0.07617 -0.035,0.005 -0.10609,0.01744 -0.14209,0.02344 -1.602,0.101 -3.268871,-0.07774 -4.817871,0.322265 2.405,1.507 4.145496,3.821133 5.708496,6.161133 0.153,0.228 0.304102,0.458547 0.454102,0.685547 0.803,1.23 1.433058,2.658301 2.685058,3.508301 0.573,0.412 1.171083,-0.249168 1.434083,-0.722168 0.971,-1.288 0.863019,-2.987184 0.895019,-4.513184 0.088,0.009 0.265027,0.02662 0.353027,0.03662 0.78,2.058 1.003004,4.384668 0.479004,6.534668 -0.38,0.936 -0.606765,2.150703 -1.634765,2.595703 l -0.05273,-0.0044 -0.04395,-0.0088 c -1.061,-0.506 -1.900887,-1.358762 -2.608887,-2.280762 -0.591,-1.111 -1.237961,-2.206558 -1.959961,-3.247558 -1.195,-1.722 -2.597922,-3.295946 -4.294922,-4.543946 -2.399,-2.201 -5.699684,-2.889211 -8.450684,-4.491211 -0.49,-1.074 -1.008398,-2.192676 -1.233398,-3.367676 1.581,0.157 3.179461,0.127582 4.772461,0.121582 3.06,-0.272 6.137543,-0.31841 9.206543,-0.42041 0.433,-0.015 0.866317,-0.03034 1.299317,-0.04834 l 0.07764,-0.0029 c -0.018,-0.02 -0.05764,-0.05864 -0.07764,-0.07764 -0.078,-0.034 -0.234942,-0.105625 -0.314942,-0.140625 -0.114,-0.119 -0.255875,-0.21084 -0.421875,-0.23584 -0.188,-0.077 -0.3755,-0.156769 -0.5625,-0.238769 -4.596,-2.024 -8.696875,-5.4747154 -10.921875,-10.0327154 -0.239,-0.425 -0.285676,-1.015668 -0.742676,-1.284668 -1.751,0.919 -2.370879,3.0028282 -2.775879,4.7988282 0.05,1.053 -0.457156,2.0213126 -0.410156,3.0703122 -0.334,2.353 -0.334047,4.75359 -0.873047,7.07959 -0.763,5.598 -2.955703,10.894005 -5.5957032,15.854005 -0.082,0.004 -0.245125,0.01651 -0.328125,0.02051 -0.258,-1.231 -0.9766329,-2.458676 -0.7236329,-3.742676 2.058,-5.181 3.8015391,-10.507938 4.9775391,-15.960938 -0.845,-1.669 -2.3679257,-2.873496 -3.6489257,-4.2084964 C 5.3566453,7.6353916 2.9450708,5.3322039 7.084375e-5,3.9912039 -0.40587016,3.8072929 -0.82138191,3.6407109 -1.2493819,3.4947109 c -1.559,-0.508 -3.7529298,-0.2652148 -4.5029298,1.4047852 -0.745,2.122 -0.029094,4.4185353 0.8789063,6.3735349 0.184,0.35 0.143957,1.164586 0.730957,0.975586 0.031,-1.172 0.056078,-2.5160427 0.9550782,-3.3940427 0.845,-0.621 1.956586,-0.2286172 2.85058597,0.067383 L 1.2984375e-4,9.0743009 C 1.1061298,9.5783009 2.219876,10.166012 2.989876,11.128012 c 0.678,0.969 0.8660508,2.181519 0.9770508,3.332519 0.379,1.703 0.2786055,3.636122 -0.7543945,5.099122 -0.436,0.855 -1.3383009,1.463187 -1.6333009,2.367187 1.267,2.791 3.2241212,5.449692 3.2241212,8.658692 -1.582,-2.469 -2.6468712,-5.272004 -4.44287118,-7.604004 -0.116,0.121 -0.23635158,0.239886 -0.36035157625,0.358886 C -0.93587016,24.239414 -2.0314171,25.111411 -2.5604171,26.236411 c 0.518,-0.041 0.9973672,-0.332461 1.5263672,-0.272461 -0.445,1.246 -1.800625,1.815351 -2.765625,2.610351 -0.717,0.457 -1.3268165,1.232231 -2.2368165,1.261231 -0.005,-1.228 -0.467957,-2.430364 -0.355957,-3.672364 1.095,-0.463 1.3821094,-1.68598 2.1621094,-2.47998 1.058,-1.124 2.029961,-2.323313 3.084961,-3.445313 -1.001,-1.619 -2.1476055,-3.200148 -2.6206055,-5.077148 -0.092,-1.292 -1.3175313,-2.061473 -1.7695313,-3.209473 -1.119,-2.343 -1.7560508,-4.9787072 -1.3520508,-7.5747072 -0.039,-1.673 0.7441914,-3.38295321 2.0961914,-4.37695320626 1.534,-0.88700000374 3.230504,-0.63800000374 4.79150404375,0 C 0.74112984,0.30159359 1.451251,0.69050768 2.099251,1.0865077 c 2.462,1.63 4.5574455,3.7536993 6.6064455,5.8666993 1.15,1.471 2.7520115,2.8084338 2.9370115,4.794434 0.314,-0.044 0.274817,-0.441688 0.361817,-0.679688 0.246,-1.9099998 0.177168,-3.8697929 0.722168,-5.7377929 0.454,-2.277 1.296617,-4.72456653 3.307617,-6.08056653 -0.217,-1.94099997 -0.777246,-3.85575407 -0.552246,-5.82275407 -0.169,-3.6369995 0.611234,-7.4504185 2.865234,-10.3784185 0.485,-0.868 1.427215,-1.327855 1.970215,-2.151855 0.636,-0.079 1.118965,-0.546875 1.688965,-0.796875 1.491,-0.802 3.197422,-1.030172 4.857422,-1.201172 0.66,-0.049 1.317285,-0.04421 1.967285,0.0088 3.108,0.253 6.083059,1.59725 8.685059,3.28125 0.976,-0.715 1.486406,-1.926645 2.566406,-2.535645 0.204,-0.154 0.413954,-0.297199 0.626954,-0.429199 1.402,-0.871 2.978539,-1.30125 4.602539,-1.40625 1.802,-0.116 3.660484,0.165617 5.396484,0.682617 0.247,0.073 0.490957,0.15091 0.730957,0.23291 l 0.153809,0.05274 0.166992,0.06152 0.259277,0.09375 0.199219,0.07764 c 1.286,0.377 2.501196,0.924789 3.700196,1.508789 1,0.489 1.990464,0.999985 3.001464,1.458985 0.412,-0.216 0.822329,-0.442645 1.236329,-0.660645 0.944,-0.497 1.908633,-0.949535 2.973633,-1.123535 0.269,-0.06 0.538128,-0.112274 0.807128,-0.155274 3.008,-0.478 6.044923,0.121532 8.794923,1.394532 2.037,0.945 3.916277,2.257832 5.509277,3.777832 3.14,2.986 5.382828,7.0971212 5.548828,11.4741212 -0.126,2.47199997 -0.564195,5.238922 -2.575195,6.919922 -0.14,0.115 -0.26107,0.2487188 -0.37207,0.3867188 -0.215,0.179 -0.463055,0.3075234 -0.706055,0.4365234 -0.017,0.008 -0.05038,0.025691 -0.06738,0.033691 l -0.191894,0.09082 c -0.018,0.009 -0.05478,0.025156 -0.07178,0.035156 -0.738,0.383 -1.532976,0.7134492 -2.375976,0.7104492 -0.077,0.028 -0.226688,0.084328 -0.304688,0.1113282 -1.458,0.119 -2.926066,0.1954023 -4.393066,0.2124023 -1.326,0.015 -2.651727,-0.018723 -3.969727,-0.1157226 -0.276,-0.095 -0.569285,-0.09207 -0.842285,0.00293 -1.312,-0.136 -2.628895,0.068285 -3.941895,0.092285 l -0.04102,-0.00439 c -0.174,-0.018 -0.3473,0.00731 -0.5083,0.070312 -0.265,0.089 -0.545778,0.1148906 -0.821778,0.087891 -0.154,-0.035 -0.297269,-0.00643 -0.426269,0.080566 -0.212,0.07 -0.428391,0.1041445 -0.650391,0.098145 -0.14,0.001 -0.278621,0.01641 -0.411621,0.04541 -0.318,0.068 -0.641402,0.087512 -0.962402,0.1245117 l -0.03662,0.00586 c -0.017,0.004 -0.05378,0.014043 -0.07178,0.019043 -0.074,0.031 -0.220898,0.092047 -0.295898,0.1230468 0.02,0.037 0.0591,0.1085547 0.0791,0.1435547 0.106,0.117 0.214196,0.233168 0.325196,0.347168 0.924,0.953 1.992863,1.8154337 3.109863,2.5444337 l 0.07764,0.057129 c 0.192,0.17 0.389261,0.3366523 0.593261,0.4936523 0.341,0.2590003 0.700985,0.4940113 1.083985,0.6870113 l 0.125976,0.07031 c 0.012,0.009 0.03973,0.02569 0.05273,0.03369 l 0.109863,0.08203 c 0.223,0.317 0.555457,0.4987 0.918457,0.6167 l 0.07178,0.08496 c 0.083,0.164 0.256665,0.221078 0.430665,0.205078 l 0.127441,0.01611 c 0.416,0.331 0.887672,0.585254 1.388672,0.760254 l 0.137695,0.0542 c 0.016,0.005 0.04799,0.01844 0.06299,0.02344 0.102,0.038 0.302833,0.112414 0.402833,0.149414 0.019,0.008 0.05378,0.02423 0.07178,0.03223 l 0.221191,0.09961 c 0.02,0.01 0.06057,0.02809 0.08057,0.03809 l 0.205078,0.104004 c 0.019,0.01 0.05424,0.02908 0.07324,0.03808 0.338,0.166 0.689504,0.304848 1.041504,0.443848 0.015,0.006 0.04699,0.01597 0.06299,0.02197 0.412,0.136 0.825582,0.26807 1.246582,0.37207 -0.244,-1.003 -0.537203,-2.008805 -0.533203,-3.049805 0.169,-0.9749995 0.58411,-2.0311402 1.41211,-2.6191402 0.138,-0.097 0.287707,-0.1804882 0.449707,-0.2504882 0.013,-0.006 0.04313,-0.017902 0.05713,-0.024902 0.095,-0.032 0.286325,-0.099836 0.382325,-0.1318359 0.017,-0.005 0.05038,-0.016508 0.06738,-0.020508 0.693,-0.131 1.403234,-0.4610821 2.115234,-0.3090821 2.851,0.248 5.282645,1.9439571 7.410645,3.7309564 0.39,0.271 0.459328,-0.360558 0.486328,-0.622558 -0.008,-0.7299999 0.218965,-1.4220351 0.563965,-2.0610351 0.287,-0.277 0.591343,-0.5385508 0.902343,-0.7895508 0.082,-0.042 0.24759,-0.1249922 0.32959,-0.1669922 0.186,-0.054 0.377895,-0.1031328 0.566895,-0.1611328 0.299,-0.066 0.606922,-0.2256953 0.919922,-0.1376953 l 0.143554,0.035156 c 0.223,0.063 0.448293,0.120711 0.675293,0.178711 0.017,0.005 0.04945,0.013578 0.06445,0.017578 0.097,0.036 0.290718,0.1032305 0.386718,0.1362305 0.016,0.007 0.04945,0.021832 0.06445,0.027832 1.36,0.57 2.346422,1.7366212 2.982422,3.0366207 0.424,-0.271 0.395196,-0.860398 0.700196,-1.233398 0.55,-0.667 1.178117,-1.323668 1.995117,-1.659668 0.014,-0.005 0.0402,-0.016043 0.0542,-0.019043 0.407,-0.114 0.839766,-0.093594 1.259766,-0.058594 0.273,0.09 0.549961,0.1644023 0.834961,0.2124023 l 0.04541,0.016113 c 1.694,0.997 2.194313,3.0325747 2.695313,4.7885747 0.236,1.209 0.176714,2.544559 -0.467286,3.622559 -0.199,0.288 -0.495922,0.01563 -0.544922,-0.234375 -0.326,-0.849 -0.87305,-1.636688 -0.97705,-2.554688 0.114,-0.574 0.553,-1.014058 0.75,-1.560058 -0.007,-0.386 -0.47086,-0.464149 -0.75586,-0.577149 -0.069,-0.022 -0.20832,-0.06689 -0.27832,-0.08789 -0.607,-0.197 -1.299887,-0.192911 -1.858887,0.142089 -0.055,0.027 -0.166191,0.08433 -0.221191,0.111329 -0.646,0.35 -1.148039,0.959625 -1.415039,1.640625 l -0.03516,0.09668 c -0.323,0.985 0.35545,1.954262 0.71045,2.843261 -0.225,-0.007 -0.488293,0.06286 -0.675293,-0.09814 -0.994,-1.194 -1.325301,-2.798826 -2.383301,-3.944825 -0.59,-0.62 -1.448125,-0.790281 -2.203125,-1.113281 -0.132,-0.091 -0.27427,-0.120892 -0.42627,-0.08789 -0.322,0.026 -0.646332,0.02893 -0.965332,0.0029 -0.08,0.021 -0.237406,0.06296 -0.316406,0.08496 -0.218,0.103 -0.445574,0.182391 -0.663574,0.275391 -0.014,0.006 -0.04166,0.0189 -0.05566,0.0249 l -0.127442,0.06445 c -0.975,0.444 -1.573984,1.859707 -0.708984,2.699707 l 0.09375,0.14502 c -0.032,0.083 -0.09837,0.250984 -0.130371,0.333984 -0.148,-0.002 -0.295918,-0.0023 -0.440918,-0.0073 l -0.09082,-0.111328 c -0.071,-0.039 -0.213179,-0.115809 -0.284179,-0.153809 -0.041,-0.031 -0.125992,-0.09644 -0.166992,-0.127441 -0.478,-0.429 -0.995961,-0.81852 -1.584961,-1.08252 l -0.355957,-0.215332 c -0.208,-0.162 -0.451266,-0.267492 -0.697266,-0.354492 l -0.199219,-0.09521 c -0.018,-0.009 -0.05571,-0.02662 -0.07471,-0.03662 l -0.215332,-0.108398 c -0.02,-0.007 -0.0591,-0.02469 -0.0791,-0.03369 -0.103,-0.034 -0.308156,-0.100301 -0.410156,-0.133301 -0.017,-0.007 -0.04892,-0.0189 -0.06592,-0.0249 -0.189,-0.048 -0.354511,-0.133813 -0.499511,-0.257813 -0.077,-0.027 -0.231153,-0.08193 -0.306153,-0.106933 -0.09,-0.021 -0.266957,-0.06203 -0.355957,-0.08203 -0.017,-0.005 -0.05038,-0.01551 -0.06738,-0.02051 -0.102,-0.032 -0.305226,-0.09398 -0.407226,-0.125977 -0.015,-0.005 -0.04606,-0.01258 -0.06006,-0.01758 -0.235,-0.053 -0.467195,-0.103879 -0.700195,-0.150879 -0.017,-0.003 -0.04892,-0.0097 -0.06592,-0.01172 -0.271,-0.037 -0.543988,-0.05993 -0.812988,-0.106933 -0.075,-0.027 -0.227223,-0.08286 -0.303223,-0.109863 -0.379,0.023 -0.759649,0.02532 -1.139649,0.0073 -0.185,-0.024 -0.374992,-0.01455 -0.541992,0.06445 -0.121,0.038 -0.357539,0.117738 -0.477539,0.156738 -0.045,0.014 -0.134711,0.0388 -0.178711,0.04981 -0.085,0.039 -0.255379,0.113879 -0.338379,0.150879 -0.077,0.037 -0.227687,0.112414 -0.304687,0.149414 -0.446,0.178 -0.923949,0.450383 -1.272949,0.817383 -0.312,0.327 -0.520696,0.727172 -0.512696,1.201172 -0.029,0.333 0.250696,0.450062 0.512696,0.539062 l 0.125976,0.04248 c 0.02,0.006 0.05717,0.02183 0.07617,0.02783 l 0.203613,0.07764 c 0.021,0.006 0.05717,0.02037 0.07617,0.02637 0.142,0.037 0.425895,0.111878 0.566895,0.150878 0.016,0.003 0.04799,0.0092 0.06299,0.01318 0.093,0.018 0.278141,0.05324 0.369141,0.07324 0.077,0.033 0.230082,0.09737 0.309082,0.130371 l 0.177246,0.07324 c 0.015,0.005 0.04652,0.01844 0.06152,0.02344 0.336,0.113 0.679067,0.204082 1.018067,0.309082 0.017,0.006 0.04985,0.01651 0.06885,0.02051 0.097,0.033 0.295043,0.09691 0.394043,0.128906 0.017,0.006 0.05131,0.0189 0.07031,0.0249 0.097,0.034 0.292113,0.101231 0.391113,0.136231 0.017,0.005 0.05378,0.01744 0.07178,0.02344 0.099,0.034 0.295043,0.100766 0.394043,0.134766 0.131,0.049 0.267297,0.09523 0.404297,0.136231 0.239,0.083 0.460407,0.205082 0.691407,0.309082 0.014,0.005 0.04313,0.01597 0.05713,0.02197 0.344,0.101 0.696364,0.180742 1.047364,0.260742 0.199,0.644 0.590375,1.194446 0.984375,1.731446 l 0.06006,0.120117 c 0.066,0.221 0.17852,0.420332 0.33252,0.590332 l 0.08789,0.19043 c 0.065,0.184 0.166125,0.353285 0.328125,0.467285 l -0.101075,0.08789 c -0.086,0.004 -0.259703,0.01404 -0.345703,0.01904 -0.734,-0.037 -1.48759,0.07276 -2.20459,-0.07324 -0.133,-0.089 -0.273734,-0.11789 -0.427734,-0.08789 -1.322,-0.021 -2.660656,0.07941 -3.972656,-0.05859 -0.452,-0.116 -0.914418,-0.121399 -1.378418,-0.108399 -0.382,0.011 -0.765043,0.03544 -1.144043,0.02344 h -0.331055 c -1.35,0.036 -2.722082,-0.140039 -4.059082,0.08496 -0.644,0.119 -1.307496,0.06359 -1.958496,0.05859 -0.074,0.031 -0.222829,0.09158 -0.298829,0.121582 -0.333,0.038 -0.668418,0.04887 -1.003418,0.04687 -0.144,0 -0.289128,-0.0033 -0.432128,-0.0073 -0.23,-0.021 -0.460688,-0.0055 -0.679688,0.06152 -0.225,0.054 -0.449828,0.102019 -0.673828,0.145019 l -0.04541,0.01025 c 0.013,0.011 0.0378,0.03148 0.0498,0.04248 l 0.14209,0.111328 c 0.103,0.091 0.214914,0.16991 0.336914,0.23291 0.061,0.047 0.182629,0.138106 0.244629,0.183106 0.194,0.315 0.478664,0.548308 0.805664,0.716308 l 0.09375,0.06152 0.158203,0.115722 0.07031,0.05274 c 0.034,0.035 0.0993,0.10316 0.133301,0.13916 0.239,0.287 0.505367,0.548199 0.776367,0.804199 l 0.04834,0.08936 c 0.06,0.051 0.180699,0.153078 0.241699,0.205078 l 0.05566,0.08057 c 0.265,0.422 0.567809,0.817059 0.903809,1.185059 l 0.09521,0.111328 c 0.011,0.012 0.03195,0.0378 0.04395,0.0498 0.052,0.068 0.159867,0.201531 0.213867,0.269531 0.097,0.153 0.216492,0.287226 0.354492,0.407226 l 0.06592,0.105469 c 0.291,0.586 0.580391,1.180922 1.025391,1.669922 l 0.03955,0.09082 c 0.146,0.496 0.447367,0.915176 0.776367,1.305176 l 0.05859,0.101074 c 0.05,0.187 0.147757,0.352215 0.301757,0.470215 l 0.07324,0.08203 c 0.245,0.969 1.012988,1.827407 1.937988,2.191407 0.286,0.075 0.511773,-0.142153 0.717773,-0.306153 0.367,-0.279 0.624735,-0.671238 0.802735,-1.094238 l 0.04248,-0.08496 0.01611,-0.03809 c 0.4,-0.881 0.790636,-1.902769 0.452636,-2.863769 0,-0.061 -0.0015,-0.184094 -0.0015,-0.246094 0.102,-0.116 0.146301,-0.252621 0.133301,-0.411621 l 0.133301,-0.09521 0.08203,0.0029 0.153809,0.03076 c 0.165,0.546 0.306285,1.099485 0.467285,1.646485 l 0.02783,0.128906 c 0.079,1.843 0.07197,3.702235 -0.457031,5.490235 l -0.03369,0.105468 c -0.357,0.406 -0.653007,0.860176 -0.958007,1.305176 l -0.09521,0.13916 c -0.322,0.003 -0.658008,0.04857 -0.958008,-0.08643 -0.017,-0.008 -0.05038,-0.02083 -0.06738,-0.02783 l -0.218262,-0.104003 c -0.018,-0.01 -0.05964,-0.03202 -0.07764,-0.04102 l -0.199219,-0.120117 c -0.009,-0.014 -0.02762,-0.04413 -0.03662,-0.05713 l -0.0791,-0.150879 c -0.138,-0.373 -0.443281,-0.629442 -0.738281,-0.877442 l -0.04541,-0.06592 c -0.145,-0.315 -0.342938,-0.598215 -0.585938,-0.845215 l -0.0293,-0.09814 c -0.056,-0.402 -0.296035,-0.724137 -0.561035,-1.015137 l -0.04687,-0.0791 c -0.633,-1.237 -1.238883,-2.511403 -2.129883,-3.587403 l -0.06299,-0.08057 c -0.804,-1.122 -1.68277,-2.207801 -2.86377,-2.945801 -0.092,-0.058 -0.188179,-0.113992 -0.284179,-0.166992 l -0.09961,-0.07617 c -0.124,-0.131 -0.26341,-0.242125 -0.42041,-0.328125 l -0.09961,-0.06738 c -0.308,-0.285 -0.654477,-0.523601 -1.063477,-0.641601 l -0.125976,-0.05566 c -0.177,-0.145 -0.374727,-0.258731 -0.594727,-0.323731 l -0.164062,-0.102539 c -0.189,-0.211 -0.439239,-0.341789 -0.719239,-0.383789 l -0.178711,-0.07031 -0.03076,-0.03369 c -0.115,-0.116 -0.25934,-0.196797 -0.42334,-0.216797 l -0.221192,-0.06445 c -0.019,-0.008 -0.05617,-0.02176 -0.07617,-0.03076 l -0.213867,-0.117187 c -0.227,-0.155 -0.475281,-0.273028 -0.738281,-0.353028 l -0.186035,-0.08642 c -0.015,-0.006 -0.04652,-0.02423 -0.06152,-0.03223 l -0.142089,-0.09228 c -0.659,-0.446 -1.372602,-0.826039 -2.141602,-1.040039 l -0.03369,-0.0088 -0.272461,-0.0835 c -0.697,-1.055 -1.295864,-2.234102 -1.609864,-3.454102 0.062,-0.045 0.182629,-0.13857 0.244629,-0.18457 0.525,0.188 1.097696,0.218847 1.637696,0.06885 l 0.03369,-0.0088 c 1.254,-0.114 2.524691,-0.05559 3.783691,-0.05859 0.15,0.033 0.290411,0.0055 0.420411,-0.0835 l 0.0073,-0.0044 c 0.972,-0.147 1.977914,-0.03531 2.961914,-0.07031 0.153,0.03 0.296734,0.0011 0.427734,-0.08789 0.128,-0.015 0.255789,-0.02616 0.383789,-0.03516 1.054,-0.08 2.122711,-0.0098 3.178711,-0.03076 0.077,-0.024 0.232082,-0.07507 0.309082,-0.101074 0.203,-0.032 0.410165,-0.06189 0.618165,-0.08789 -0.091,-0.049 -0.272282,-0.148824 -0.363282,-0.194824 -0.015,-0.01 -0.04552,-0.02716 -0.06152,-0.03516 l -0.171387,-0.08936 c -0.094,-0.124 -0.217211,-0.203234 -0.366211,-0.240234 l -0.159668,-0.07471 c -0.013,-0.008 -0.0378,-0.0213 -0.0498,-0.0293 l -0.128907,-0.09668 c -0.286,-0.236 -0.591105,-0.452586 -0.933105,-0.600586 l -0.130371,-0.06445 c -0.014,-0.007 -0.04359,-0.0213 -0.05859,-0.0293 l -0.130371,-0.07764 c -0.528,-0.347 -1.014735,-0.756379 -1.552735,-1.088379 -0.112,-0.07 -0.227238,-0.135753 -0.344238,-0.197753 -0.045,-0.029 -0.135176,-0.08479 -0.180176,-0.112793 -0.071,-0.035 -0.214644,-0.10609 -0.285644,-0.14209 -0.035,-0.038 -0.10416,-0.115809 -0.13916,-0.153809 -0.585,-0.823 -1.623801,-1.139933 -2.195801,-1.981933 -0.217,-0.19 -0.429742,-0.3844737 -0.635742,-0.5844737 -0.693,-0.671 -1.329934,-1.3978399 -1.981934,-2.1108399 l -0.05566,-0.1157226 c -0.043,-0.266 -0.266781,-0.5666328 -0.550781,-0.3486328 L 57.358962,7.32083 c -0.017,0.009 -0.05038,0.026691 -0.06738,0.033691 -0.467,0.317 -0.947558,0.6491798 -1.372558,1.0341798 -0.341,0.309 -0.647372,0.6518281 -0.880372,1.0488281 -1.035,1.4980001 -1.232367,3.3618401 -1.526367,5.1108401 -0.3,1.547 -0.04473,3.130106 -0.219726,4.683106 -0.474,4.438 -0.270442,8.922023 -0.502442,13.374023 0.123,-0.019 0.369188,-0.0591 0.492188,-0.0791 0.015,-0.003 0.04699,-0.0077 0.06299,-0.01172 0.137,-0.036 0.411316,-0.110019 0.549316,-0.145019 0.017,-0.005 0.04599,-0.01458 0.06299,-0.01758 0.133,-0.042 0.395808,-0.122597 0.528808,-0.162597 0.04,-0.012 0.118668,-0.0378 0.159668,-0.0498 0.421,-0.032 0.84895,-0.04165 1.27295,-0.01465 0.131,0.008 0.262578,0.02016 0.392578,0.03516 0.077,0.027 0.230617,0.07993 0.307617,0.106934 0.089,0.018 0.266957,0.05424 0.355957,0.07324 0.019,0.004 0.05231,0.01311 0.07031,0.01611 0.126,0.038 0.381766,0.10902 0.509766,0.14502 0.088,0.14 0.230508,0.225164 0.395508,0.243164 0.105,0.053 0.31634,0.153543 0.42334,0.206543 0.012,0.008 0.0368,0.02469 0.0498,0.03369 0.184,0.137 0.366528,0.278734 0.540528,0.427734 0.118,0.115 0.25048,0.223883 0.41748,0.254883 l 0.06299,0.149414 c 0.051,0.189 0.185125,0.328707 0.328125,0.449707 l 0.06006,0.09961 c 0.1,0.217 0.208731,0.428742 0.323731,0.635742 0.14,0.253 0.289847,0.500141 0.443847,0.744141 l 0.03369,0.125976 c 0.012,0.169 0.10191,0.308227 0.23291,0.407227 l 0.02783,0.118652 c 0.055,0.353 0.149785,0.695855 0.279785,1.026855 0.015,0.061 0.04313,0.185559 0.05713,0.247559 0.394,2.137 1.039051,4.283145 0.602051,6.473145 l -0.0293,0.104004 c -0.174,0.474 -0.253856,0.969703 -0.276856,1.470703 l -0.01758,0.130371 c -0.026,0.077 -0.07747,0.230617 -0.105468,0.307617 l -0.05859,0.14502 c -0.094,0.126 -0.133188,0.26741 -0.117188,0.42041 l -0.03662,0.133301 c -0.38,1.508 -0.734644,3.031129 -1.035644,4.557129 l -0.02344,0.124511 -0.0249,0.114258 c -0.243,1.121 -0.628035,2.246762 -0.561035,3.405762 l 0.153808,0.0088 c 0.095,0.003 0.288254,0.01018 0.385254,0.01318 0.026,0.006 0.04931,0.0064 0.07031,0.0044 0.189,-0.015 0.22932,-0.26834 0.27832,-0.42334 0.049,-0.05 0.148289,-0.147289 0.196289,-0.196289 0.049,-0.065 0.143359,-0.192883 0.193359,-0.254883 0.07,-0.064 0.211715,-0.189488 0.282715,-0.250488 0.161,0.205 0.179106,0.469238 0.183106,0.719238 l -0.0029,0.08936 -0.08935,0.210937 c -0.01,0.017 -0.02669,0.05331 -0.03369,0.07031 l -0.106933,0.186035 c -0.028,0.08 -0.08186,0.243731 -0.109864,0.323731 l -0.06592,0.156738 c -0.11,0.134 -0.184613,0.288961 -0.203613,0.459961 -0.024,0.053 -0.07368,0.163726 -0.09668,0.219726 -0.22,0.279 -0.341804,0.610684 -0.424804,0.950684 l -0.02637,0.112793 -0.03662,0.118652 c -0.095,0.139 -0.170781,0.290496 -0.175781,0.458496 l -0.02637,0.133301 c -0.037,0.082 -0.10802,0.247125 -0.14502,0.328125 l -0.101074,0.156738 c -0.13,0.157 -0.20384,0.344993 -0.23584,0.541993 l -0.03809,0.125976 c -0.513,0.774 -0.752418,1.706598 -1.378418,2.412598 -0.341,-0.644 -0.593574,-1.335875 -1.038574,-1.921875 l -0.04248,-0.09229 c -0.028,-0.153 -0.111953,-0.253688 -0.251953,-0.304688 l -0.01318,-0.124511 c 0.009,-0.39 -0.196481,-0.716997 -0.417481,-1.020997 l -0.06592,-0.102539 c -0.046,-0.151 -0.192628,-0.321793 -0.244628,-0.487793 V 57.47416 c 0.011,-0.028 0.0268,-0.05457 0.0498,-0.08057 0.582,-0.596 0.482133,-1.497184 0.536133,-2.263184 L 56.53574,55.0015 c 0.159,-0.412 0.130933,-0.853133 0.106933,-1.286133 0.011,-0.065 0.03295,-0.194742 0.04395,-0.260742 0.237,-0.831 0.334086,-1.692293 0.413086,-2.550293 0.014,-0.072 0.03873,-0.217039 0.05273,-0.290039 0.089,-0.122 0.123934,-0.258156 0.106934,-0.410156 l 0.0293,-0.121582 c 0.164,-0.517 0.240364,-1.055286 0.297364,-1.592286 l 0.02344,-0.121582 c 0.284,-1.357 0.605625,-2.706941 0.890625,-4.064941 l 0.03076,-0.106934 c 0.53,-1.698 0.884473,-3.448433 1.334473,-5.169433 0.19,-0.508 -0.250899,-0.883618 -0.670899,-1.057618 l -0.08789,-0.0542 c -0.088,-0.121 -0.204098,-0.195656 -0.350098,-0.222656 l -0.120117,-0.0498 -0.307617,-0.118652 -0.158204,-0.03516 c -0.077,-0.033 -0.233082,-0.101766 -0.309082,-0.134766 l -0.191894,-0.04394 c -0.019,-0.004 -0.05671,-0.01404 -0.07471,-0.01904 -0.123,-0.033 -0.371117,-0.102231 -0.495117,-0.136231 -0.079,-0.023 -0.233012,-0.06682 -0.312012,-0.09082 -0.129,0 -0.39002,-0.0015 -0.52002,-0.0015 -0.117,-0.023 -0.234632,-0.022 -0.348632,0 -0.067,0.013 -0.131825,0.03306 -0.194825,0.06006 -0.229,0.067 -0.457941,0.123527 -0.689941,0.165527 -0.017,0.003 -0.05185,0.01018 -0.06885,0.01318 -0.091,0.018 -0.272746,0.05278 -0.364746,0.07178 -0.079,0.027 -0.238871,0.08379 -0.317871,0.112793 l -0.177246,0.09814 c -0.017,0.01 -0.05131,0.02909 -0.07031,0.03809 l -0.219726,0.109864 c -0.018,0.008 -0.05424,0.02516 -0.07324,0.03516 l -0.174317,0.07471 c -0.152,0.035 -0.276605,0.114375 -0.370605,0.234375 l -0.131836,0.108398 -0.04395,0.03369 -0.01318,0.04981 c -0.024,0.078 -0.06975,0.236941 -0.09375,0.314941 -0.248,3.266 -0.182625,6.596231 -0.140625,9.886231 l 0.0029,0.171386 c -0.328,1.667 -0.11443,3.3775 -0.19043,5.0625 0.097,5.105 -0.245793,10.201759 -0.112793,15.301759 10e-4,0.088 0.0029,0.264097 0.0029,0.350097 -0.027,0.31 -0.02514,0.619782 0.0059,0.925782 0.031,0.272 -0.04407,0.53441 -0.101074,0.79541 -0.223,1.252 -0.01481,2.537269 -0.153809,3.801269 v 0.05566 c 0.02,0.287 0.06075,0.571004 0.09375,0.854004 l 0.0044,0.150879 c -0.004,0.093 -0.0073,42.337669 -0.01025,42.430669 z M 52.019662,75.604576 c 0.095,-0.026 0.067,-0.131797 0,-0.216797 -0.076,-0.093 -0.199277,-0.159129 -0.259277,-0.05713 -0.025,0.042 -0.03723,0.110727 -0.03223,0.219727 l 0.03223,0.01318 c 0.127,0.045 0.209277,0.05302 0.259277,0.04102 z m -0.580078,-0.577148 c 0.245,0.073 0.135,-0.257348 0,-0.256348 -0.051,0.001 -0.106019,0.05043 -0.145019,0.19043 0.059,0.034 0.106019,0.05592 0.145019,0.06592 z m 0.153809,-2.324708 c 0.251,0.07 0.137,-0.251953 0,-0.251953 -0.053,0 -0.110414,0.0485 -0.149414,0.1875 0.06,0.033 0.109414,0.05345 0.149414,0.06445 z M 45.57142,66.670494 c -0.267,-1.044 0.90248,-2.955305 -0.70752,-3.237305 -0.181,-0.019 -0.361992,-0.02072 -0.541992,-0.01172 -0.997,0.505 -0.339625,1.916106 -0.515625,2.808106 l -0.168457,0.02197 -0.0791,0.0088 c -0.06,-0.054 -0.17877,-0.159867 -0.23877,-0.213867 0.382,-0.954 0.375746,-1.93673 0.364746,-2.94873 l 0.0073,-0.114258 c 0.265,-0.203 0.525762,-0.411883 0.780762,-0.629883 l 0.105469,0.02197 c 0.506,0.197 0.808281,0.65666 1.113281,1.07666 0.116,-0.029 0.349356,-0.08433 0.464356,-0.111328 0.244,-0.064 0.385965,-0.292567 0.563965,-0.455567 0.245,-0.139 0.540058,-0.08189 0.810058,-0.08789 0.63,1.103 0.03815,2.299875 -0.172851,3.421875 -0.017,0.079 -0.05331,0.235941 -0.07031,0.314941 -0.014,0.004 -0.0412,0.01404 -0.0542,0.01904 l -0.166992,0.06299 c -0.005,-0.061 -0.01458,-0.184558 -0.01758,-0.247558 l -0.02197,-0.13916 c -0.031,-0.815 0.410781,-1.52034 0.550781,-2.29834 l -0.14209,-0.01465 c -0.228,-0.032 -0.455082,-0.04601 -0.684082,-0.04102 -0.417,-0.005 -0.566953,0.439832 -0.626953,0.777832 -0.013,0.062 -0.04266,0.186558 -0.05566,0.247558 -0.152,0.593 -0.234582,1.210532 -0.496582,1.769532 z M 71.805307,45.553306 c -0.6595,-8.75e-4 -1.319285,-0.0316 -1.967285,-0.0791 -0.016,-0.006 -0.04552,-0.01551 -0.06152,-0.02051 -0.072,-0.024 -0.217039,-0.07507 -0.290039,-0.101074 -0.392,-1.201 -1.500528,-2.120535 -1.665528,-3.373535 0.103,0.019 0.308621,0.0625 0.411621,0.0835 0.017,0.003 0.04945,0.0092 0.06445,0.01318 0.316,0.053 0.641472,0.0614 0.959472,0.108398 0.078,0.029 0.227223,0.08772 0.303223,0.115723 0.836,-0.009 1.674207,-0.009 2.512207,0 0.152,0.033 0.293805,0.0051 0.424805,-0.08789 0.38,-0.098 0.782621,-0.04334 1.161621,-0.152344 l 0.08203,-0.02051 c 0.452,-0.053 0.138813,-0.39675 -0.117187,-0.46875 l -0.115723,-0.07764 c -0.424,-0.349 -0.848094,-0.708879 -1.371094,-0.900879 l -0.09082,-0.04541 c -0.084,-0.125 -0.198309,-0.20284 -0.341309,-0.23584 l -0.112793,-0.04981 c -0.077,-0.136 -0.191238,-0.221418 -0.344238,-0.253418 l -0.115723,-0.04834 c -0.07,-0.134 -0.178125,-0.218953 -0.328125,-0.251953 l -0.08057,-0.05859 c -0.298,-0.255 -0.617867,-0.480109 -0.963867,-0.662109 -0.045,-0.03 -0.131317,-0.08819 -0.174317,-0.117188 -0.073,-0.038 -0.215574,-0.112414 -0.288574,-0.149414 -0.05,-0.048 -0.152613,-0.143894 -0.203613,-0.191894 -0.106,-0.149 -0.238481,-0.283379 -0.417481,-0.338379 L 68.554813,38.1324 c -0.18,-0.182 -0.342441,-0.378148 -0.502441,-0.577148 0.079,-0.017 0.235941,-0.04699 0.314941,-0.06299 l 0.188965,0.09522 c 0.018,0.01 0.05278,0.02762 0.07178,0.03662 l 0.202149,0.109864 c 0.217,0.129 0.463984,0.189164 0.708984,0.243164 l 0.212402,0.06006 c 0.019,0.005 0.05524,0.01697 0.07324,0.02197 0.338,0.103 0.679066,0.202152 1.018066,0.306152 0.018,0.004 0.05424,0.01597 0.07324,0.02197 0.098,0.031 0.296973,0.09544 0.396973,0.127441 0.017,0.005 0.04845,0.01258 0.06445,0.01758 0.237,0.044 0.476773,0.08737 0.717773,0.130371 0.014,0.003 0.04213,0.01111 0.05713,0.01611 0.086,0.033 0.263098,0.10223 0.350098,0.13623 0.092,0.136 0.223789,0.232856 0.383789,0.276856 0.047,0.034 0.142965,0.10709 0.188965,0.14209 0.259,0.325 0.510059,0.659218 0.810059,0.949218 0.05,0.051 0.147824,0.154543 0.194824,0.206543 0.008,0.009 0.0233,0.02855 0.0293,0.03955 l 0.06885,0.120117 c 0.177,0.392 0.426746,0.742575 0.739746,1.038575 l 0.0293,0.09521 c 0.089,0.523 0.436043,0.933684 0.769043,1.325684 l 0.07324,0.101074 c 0.082,0.241 0.180308,0.477293 0.341308,0.675293 l 0.08643,0.125977 c 0.122,0.426 0.142113,0.875781 0.01611,1.300781 -0.134,0.025 -0.405062,0.07322 -0.539062,0.09522 -0.017,0.003 -0.04985,0.01018 -0.06885,0.01318 -0.387,0.078 -0.783805,0.09531 -1.174805,0.07031 -0.232,-0.026 -0.462687,-0.01048 -0.679687,0.06152 -0.647,0.073 -1.306321,0.10195 -1.965821,0.101075 z M 47.884408,41.554282 c 0.411,-0.967 0.408106,-2.049637 0.558106,-3.077637 0.325,-0.625 0.634984,-1.406672 0.708984,-2.138672 l 0.03369,-0.06445 c 0.353,0.023 0.356371,-0.396164 0.505371,-0.618164 0.169,-0.429 0.663492,-0.675902 0.729492,-1.149902 0.141,-0.06 0.231574,-0.151672 0.288574,-0.263672 0.153,-0.294 0.07429,-0.721504 0.09228,-1.041504 -0.082,-1.033 0.238676,-2.056566 -0.0073,-3.080566 0.227,-2.354 0.118203,-4.730239 0.158203,-7.094239 0.303,-1.937 -0.02243,-3.917445 0.288574,-5.856445 -0.008,-0.845 0.125219,-1.680532 0.199219,-2.519532 0.032,-0.36 0.05187,-0.719519 0.04687,-1.082519 l 0.106934,-0.602051 c 0.053,-0.299 0.107992,-0.600344 0.166992,-0.902344 0.079,-0.402 0.164277,-0.803101 0.259277,-1.204101 0.47,-1.9860004 1.180266,-3.9114302 2.572266,-5.4404302 0.228,-0.676 1.104387,-0.8630001 1.296387,-1.5000001 -1.042,-2.525 -1.660758,-5.2225236 -1.801758,-7.9365236 -0.211,-3.544 -0.01748,-7.3870001 1.83252,-10.5000001 0.176,-0.295 0.365289,-0.583258 0.571289,-0.864258 -0.168,-0.173 -0.362289,-0.30548 -0.571289,-0.41748 -0.502,-0.266 -1.086426,-0.407364 -1.586426,-0.672364 -0.755,-0.342 -1.527989,-0.634836 -2.312989,-0.881836 l -0.259277,-0.0791 -0.166992,-0.0498 -0.153809,-0.04395 c -0.242,-0.069 -0.485957,-0.132825 -0.730957,-0.194825 -1.631,-0.403 -3.306793,-0.629632 -4.987793,-0.723632 0.072,0.103 0.145727,0.207152 0.219727,0.306152 -0.209,-0.036 -0.418418,-0.06024 -0.628418,-0.07324 -1.631,-0.1 -3.300539,0.498648 -4.602539,1.514648 -0.332,0.26 -0.639993,0.546004 -0.916993,0.854004 0.313,0.341 0.619993,0.692758 0.916993,1.051758 2.46,2.97 4.306992,6.5657464 4.291992,10.4897464 -0.062,1.018 -0.143938,2.0957774 -0.210938,3.0717774 0.176,0.114 0.349485,0.23109768 0.521485,0.35009768 1.032,0.716 1.998152,1.5246524 2.931152,2.36865242 1.315,1.186 1.508024,3.0814454 1.749024,4.7314454 0.497,2.742 -0.36961,5.6573087 -1.97461,7.8413087 -0.345,-0.047 -0.605996,0.196344 -0.645996,0.527344 -0.065,0.049 -0.196672,0.146824 -0.263672,0.194824 -0.251,-0.086 -0.357336,-0.0034 -0.319336,0.247559 -0.096,0.016 -0.291183,0.04552 -0.388183,0.06152 -0.017,0.003 -0.05331,0.0097 -0.07031,0.01172 -0.346,0.081 -0.688066,0.08623 -1.018066,0.03223 -1.309,-0.213 -2.435121,-1.367957 -2.849121,-2.605957 -0.601,-1.357 -0.767231,-3.1435857 0.238769,-4.3505857 0.732,-0.705 1.658352,-0.7790156 2.610352,-0.7910156 1.069,-0.015 2.169199,0.047117 3.054199,-0.6298829 0.517,-0.472 1.082945,-1.3453125 0.418945,-1.9453125 -1.061,-0.988 -2.232144,-1.8705352 -3.473144,-2.6235352 -0.308,-0.186 -0.619571,-0.3651329 -0.934571,-0.5361329 -0.29,-0.158 -0.579894,-0.5105195 -0.941894,-0.3325195 -0.127,0.705 -0.825949,1.0466914 -1.272949,1.5336914 -0.45,0.371 -0.938125,0.6426797 -1.453125,0.8466797 -1.709,0.679 -3.704743,0.6031016 -5.510743,0.8291016 -2.184,0.242 -4.462676,0.6249962 -6.367676,1.7709962 -0.26,0.156 -0.513789,0.3252304 -0.758789,0.5112304 -0.315,0.207 -0.363117,0.6077813 -0.495117,0.9257813 -0.248,0.047 -0.534535,0.05718 -0.748535,-0.09082 -1.243,-1.116 -1.681524,-2.9013009 -3.061524,-3.8833009 -1.3,-1.276 -3.26109,-1.6239727 -5.01709,-1.5219727 -0.089,0.307 0.139504,0.6113282 0.291504,0.8613282 1.134,1.423 2.163164,2.9710977 3.618164,4.1000977 1.736,1.545 3.802743,2.6581798 5.885743,3.6591794 l 0.285644,0.153809 c 2.691,1.409 5.645391,2.196793 8.525391,3.112793 0.39,-0.522 0.08871,-1.275043 0.178711,-1.894043 -0.202,-1.723 -0.189973,-3.4620118 -0.396973,-5.1870118 -0.018,-0.23 -0.159316,-0.6319258 0.200684,-0.6489258 0.422,0.905 0.822203,1.8191016 1.283203,2.7041016 0.391,1.001 0.529106,2.080637 0.933106,3.077637 0.104,0.87 0.03009,1.756929 0.142089,2.627929 0.271,0.254 0.643208,0.326508 1.012208,0.395508 0.332,0.062 0.660527,0.121547 0.915527,0.310547 0.359,1.113 0.917211,2.190449 1.116211,3.335449 -0.471,0.053 -0.950969,0.0262 -1.417969,-0.0498 -0.017,-0.003 -0.05038,-0.0063 -0.06738,-0.01025 -0.18,-0.035 -0.361386,-0.06271 -0.546386,-0.07471 -0.231,-0.016 -0.463407,-0.0074 -0.691407,0.03662 -0.146,1.231 -0.07949,2.513859 0.02051,3.755859 -0.143,2.73 -0.112383,5.471125 -0.06738,8.203125 l 0.05127,0.153809 c -0.056,0.265 0.415992,0.31716 0.541992,0.13916 0.047,0.034 0.09602,0.06382 0.14502,0.09082 0.101,0.053 0.207335,0.09319 0.319335,0.117188 0.124,-0.005 0.368723,-0.01311 0.490723,-0.01611 0.077,0.026 0.230617,0.07607 0.307617,0.101074 l 0.09522,0.03369 c 0.09,0.03 0.267887,0.09351 0.358887,0.124512 1.248,0.563 2.259762,1.473336 3.030762,2.569336 0.871,1.24 1.435105,2.718707 1.683105,4.199707 0.422,1.062 0.33116,2.38659 0.88916,3.32959 z m 34.435548,-0.486328 c -0.188,-0.119 -0.306691,-0.307512 -0.408691,-0.499512 l -0.02197,-0.124511 c -0.03,-0.089 -0.08626,-0.272282 -0.114258,-0.363282 -0.018,-0.084 -0.05471,-0.252843 -0.07471,-0.339843 -0.005,-0.038 -0.01744,-0.117274 -0.02344,-0.155274 l -0.0059,-0.104004 c 0,-0.009 -0.0015,-0.02709 -0.0015,-0.03809 l -0.0044,-0.01172 -0.01611,-0.0498 c -0.045,-0.322 0.0089,-0.649867 0.08789,-0.963867 l 0.0029,0.186035 c 0.032,0.077 0.0993,0.232082 0.133301,0.309082 l 0.0249,0.168457 c -0.027,0.16 0.0071,0.306988 0.101074,0.437988 l 0.05713,0.165527 c -0.036,0.16 -0.0053,0.305059 0.09375,0.435059 l 0.06299,0.136231 c 0.05,0.269 0.08593,0.540523 0.106933,0.811523 z m -0.873047,-3.14209 c -0.0485,-2.5e-4 -0.09787,-0.0015 -0.130371,-0.0015 l -0.07471,-0.0835 c 0.016,-0.099 0.05278,-0.291648 0.07178,-0.389648 0.134,0.03 0.240336,0.108304 0.319336,0.237304 -0.014,0.058 -0.04213,0.177305 -0.05713,0.237305 -0.0325,0 -0.08041,2.5e-4 -0.128906,0 z m -0.42334,-0.672363 c -10e-4,-0.083 -0.0063,-0.248055 -0.0073,-0.331055 -0.118,-1.052 -0.232836,-2.127652 0.243164,-3.118652 l 0.03809,-0.114258 c 0.25,-0.048 0.502395,-0.08991 0.754395,-0.128906 0.267,0.293 0.501886,0.61164 0.733886,0.93164 l 0.05567,0.08643 c 0.048,0.309 0.08398,0.618781 0.125976,0.925781 -0.093,-0.199 -0.18725,-0.399586 -0.28125,-0.600586 -0.089,-0.035 -0.268422,-0.106554 -0.357422,-0.143554 -0.096,0 -0.286324,-0.0024 -0.382324,-0.0044 -0.513,-10e-4 -0.661098,0.476555 -0.725098,0.893555 l -0.0249,0.101074 c -0.131,0.308 -0.0339,0.618598 0.0791,0.912598 0.02,0.069 0.0591,0.204926 0.0791,0.273926 -0.114,0.104 -0.226055,0.208406 -0.331055,0.316406 z M 18.634408,37.133384 c -0.467,-0.042 -0.832625,-0.415079 -1.265625,-0.580079 -1.508,-0.995 -3.062415,-1.931132 -4.649415,-2.786132 -0.561,-0.36 -1.194613,-0.616758 -1.703613,-1.051758 -0.252,-0.416 -0.335523,-0.912278 -0.436523,-1.384278 2.093,1.346 4.239715,2.621926 6.282715,4.023926 0.845,0.251 1.756461,0.796321 1.772461,1.778321 z m 75.146486,-2.879883 c -0.076,-0.028 -0.227223,-0.0814 -0.303223,-0.108399 l -0.09521,-0.0542 -0.118652,-0.09668 c -0.282,-0.228 -0.571977,-0.445066 -0.875977,-0.643066 l -0.06738,-0.0498 c -0.339,-0.579 -0.767141,-1.099387 -1.119141,-1.671387 l -0.02637,-0.112792 c -0.349,-0.836 -0.16032,-1.690102 0.47168,-2.329102 l 0.118652,-0.03223 c 0.156,-0.019 0.26459,-0.100488 0.32959,-0.250488 l 0.114258,-0.04102 c 0.146,-0.022 0.263632,-0.09759 0.348632,-0.225586 l 0.09375,-0.05713 c 0.213,-0.119 0.432305,-0.238297 0.612305,-0.404297 0.072,-0.066 0.138824,-0.140121 0.194824,-0.224121 V 27.84041 c -0.054,-0.169 -0.118824,-0.336047 -0.194824,-0.498047 -0.232,-0.497 -0.56732,-0.946977 -1.02832,-1.250977 -0.641,-0.435 -0.996727,-1.199973 -1.719727,-1.521973 l -0.08789,-0.0542 c -0.629,-0.733 -1.379363,-1.364832 -2.172363,-1.902832 l -0.01465,-0.101074 c -0.007,-0.178 -0.09839,-0.267207 -0.275391,-0.262207 l -0.13623,-0.01465 c -0.47,-0.478 -0.877563,-1.036234 -1.476563,-1.365234 l -0.08203,-0.05859 c -0.214,-0.264 -0.431832,-0.542742 -0.777832,-0.635742 -0.043,-0.026 -0.125922,-0.07461 -0.169922,-0.09961 -0.438,-0.512 -0.84266,-1.076391 -1.45166,-1.400391 L 83.7848,18.59725 c -0.099,-0.199 -0.248145,-0.378129 -0.473145,-0.432129 l -0.146484,-0.05566 c -0.158,-0.207 -0.297418,-0.434984 -0.253418,-0.708984 0.1,0.072 0.299902,0.217504 0.399902,0.291504 0.085,0.092 0.182899,0.169586 0.295899,0.225586 0.16,0.088 0.321004,0.18139 0.479004,0.27539 0.01,0.007 0.03055,0.0213 0.03955,0.0293 0.052,0.05 0.156472,0.145825 0.209472,0.194825 0.289,0.312 0.642137,0.552859 1.015137,0.755859 l 0.08789,0.05713 c 0.085,0.125 0.203027,0.198121 0.353027,0.224121 l 0.112793,0.04102 c 0.058,0.144 0.164406,0.234531 0.316406,0.269531 0.078,0.056 0.233547,0.166656 0.310547,0.222656 0.075,0.139 0.189238,0.221094 0.344238,0.246094 l 0.175782,0.07764 c 0.015,0.01 0.04945,0.02762 0.06445,0.03662 l 0.183105,0.130371 c 0.16,0.163 0.359684,0.274703 0.575684,0.345703 0.105,0.064 0.31348,0.190418 0.41748,0.253418 0.012,0.008 0.03341,0.02616 0.04541,0.03516 l 0.105469,0.09375 c 0.3,0.304 0.633699,0.571199 0.991699,0.804199 0.228,0.166 0.412051,0.383868 0.602051,0.588868 0.493,0.543 0.977496,1.101972 1.583496,1.521972 l 0.06445,0.06006 c 0.205,0.283 0.436942,0.543691 0.689942,0.783691 l 0.07178,0.111328 c 0.111,0.219 0.272328,0.411598 0.486328,0.537598 l 0.03809,0.125977 c 0.075,0.299 0.170969,0.592511 0.292969,0.874511 0.141,0.326 0.315668,0.634993 0.534668,0.916993 0.221,-0.19 0.445688,-0.3825 0.679688,-0.5625 0.115,0.079 0.231097,0.156445 0.350097,0.231445 0.011,0.072 0.03248,0.214644 0.04248,0.285644 0.062,0.507 0.43489,1.032254 0.08789,1.510254 -0.29,0.45 -0.100886,0.973407 0.01611,1.441407 0.247,0.821 0.158035,1.68339 0.186035,2.52539 l -0.0791,0.130371 c -0.156,0.219 -0.261055,0.464704 -0.331055,0.720704 l -0.115722,0.180175 c -0.015,0.015 -0.04506,0.04166 -0.06006,0.05566 l -0.208008,0.128907 c -0.017,0.007 -0.05185,0.02223 -0.06885,0.03223 -0.13,0.011 -0.38709,0.03148 -0.51709,0.04248 z M 65.860971,32.687583 c -0.167,-0.011 -0.333511,-0.02441 -0.499511,-0.04541 l -0.09668,-0.08203 c -0.063,-0.133 -0.165223,-0.221996 -0.303223,-0.270996 l -0.07324,-0.06592 c -0.275,-0.33 -0.700984,-0.423359 -1.083984,-0.568359 l -0.108399,-0.06152 c -0.128,-0.099 -0.272199,-0.178261 -0.429199,-0.218261 -0.185,-0.073 -0.364133,-0.157418 -0.536133,-0.253418 -0.016,-0.008 -0.04652,-0.02516 -0.06152,-0.03516 l -0.165528,-0.106933 c -0.114,-0.125 -0.258269,-0.21477 -0.426269,-0.23877 l -0.117188,-0.03516 c -0.405,-0.34 -0.878883,-0.574352 -1.379883,-0.735352 l -0.108398,-0.05127 c -0.077,-0.027 -0.230617,-0.08186 -0.307617,-0.109863 l -0.137695,-0.01465 c -0.059,-0.144 -0.165872,-0.234531 -0.317872,-0.269531 l -0.09814,-0.04248 c -0.512,-0.349 -1.039258,-0.676668 -1.614258,-0.909668 l -0.0791,-0.04834 c -0.302,-0.238 -0.632558,-0.444289 -0.997558,-0.571289 -0.14,-0.053 -0.273438,-0.117754 -0.398438,-0.197754 -0.49,-0.273 -0.799703,-0.708157 -1.095703,-1.160157 L 55.311166,26.47811 c 0.08,-0.216 0.19345,-0.418516 0.33545,-0.603516 l 0.191894,0.137696 c 0.136,0.149 0.292215,0.276675 0.470215,0.367675 l 0.161133,0.111328 c 0.172,0.166 0.377375,0.286028 0.609375,0.353028 l 0.205078,0.08643 c 0.017,0.01 0.05185,0.02569 0.06885,0.03369 l 0.169922,0.102539 c 0.084,0.139 0.203351,0.225672 0.360351,0.263672 l 0.178711,0.07764 c 0.016,0.007 0.05038,0.02662 0.06738,0.03662 l 0.18164,0.117187 c 0.118,0.151 0.256567,0.298379 0.455567,0.338379 0.088,0.034 0.263562,0.101231 0.351562,0.136231 0.161,0.151 0.325922,0.305675 0.544922,0.367675 l 0.222657,0.08789 c 0.02,0.009 0.06203,0.02662 0.08203,0.03662 l 0.23584,0.105469 c 0.018,0.009 0.05571,0.02862 0.07471,0.03662 l 0.174316,0.09814 c 0.084,0.136 0.203422,0.223742 0.357422,0.260742 l 0.175781,0.07764 c 0.016,0.008 0.05331,0.02662 0.07031,0.03662 l 0.221191,0.114257 c 0.02,0.009 0.06203,0.02955 0.08203,0.03955 l 0.225586,0.115723 c 0.02,0.01 0.06103,0.03001 0.08203,0.04101 l 0.22998,0.108399 c 0.018,0.009 0.05671,0.02662 0.07471,0.03662 l 0.172852,0.09229 c 0.077,0.137 0.194632,0.217235 0.348632,0.240235 0.205,0.06 0.408727,0.134769 0.594727,0.238769 0.073,0.138 0.185379,0.213981 0.338379,0.229981 0.179,0.062 0.34923,0.145023 0.51123,0.249023 0.017,0.009 0.05085,0.02662 0.06885,0.03662 l 0.203613,0.111328 c 0.02,0.011 0.0615,0.03102 0.0835,0.04102 l 0.229981,0.109863 c 0.018,0.008 0.05524,0.02662 0.07324,0.03662 l 0.172852,0.09375 c 0.082,0.139 0.200422,0.226207 0.357422,0.262207 l 0.168457,0.06152 c 0.016,0.006 0.04892,0.0189 0.06592,0.0249 l 0.172851,0.06738 c 0.282,0.336 0.37866,0.763383 0.32666,1.192383 z m 27.402833,-0.549317 c 0.103,0.004 0.205223,-0.0079 0.303223,-0.04687 0.597,0.032 0.833785,-0.623816 0.654785,-1.111816 l 0.02783,-0.153809 c 0.299,0.084 0.307859,-0.570652 0.0059,-0.493652 -0.036,-0.067 -0.108554,-0.202067 -0.143554,-0.268067 -0.068,0.066 -0.204461,0.198672 -0.272461,0.263672 -0.009,0.013 -0.03102,0.03734 -0.04102,0.04834 l -0.101074,0.134766 c -0.259,-0.098 -0.373238,-0.01444 -0.344238,0.247558 l -0.08936,0.02344 -0.0498,0.01318 c -0.243,-0.079 -0.349871,0.005 -0.317871,0.249023 l -0.143554,0.0044 c -0.285,0.12 -0.597125,0.285657 -0.703125,0.597657 0.155,0.123 0.326441,0.226336 0.502441,0.319336 l 0.191895,0.06445 c 0.015,0.003 0.04699,0.01258 0.06299,0.01758 0.146,0.041 0.301031,0.08482 0.457031,0.09082 z m -9.366211,-1.557129 c -0.095,-0.005 -0.286324,-0.01404 -0.382324,-0.01904 -0.487,-0.485 -0.597965,-1.185277 -0.938965,-1.759277 l -0.04834,-0.105469 c 0.031,-0.15 0.0031,-0.288551 -0.08789,-0.414551 -0.011,-0.075 -0.03202,-0.220433 -0.04102,-0.294433 0.04,-0.537 0.05404,-1.177324 -0.459961,-1.507324 -0.032,0.085 -0.09691,0.255308 -0.128907,0.341308 l -0.117187,0.304688 c -0.14,0.336 -0.261422,0.67732 -0.357422,1.02832 l -0.03955,0.120117 c -0.366,0.559 -0.837078,1.036422 -1.330078,1.482422 -0.068,0.033 -0.202996,0.09544 -0.270996,0.127442 -0.013,0.004 -0.03781,0.01111 -0.04981,0.01611 -0.088,0.015 -0.263097,0.04945 -0.350097,0.06445 -0.237,-0.737 -0.165516,-1.543301 0.521484,-2.008301 l 0.159668,-0.07471 c 0.016,-0.007 0.04745,-0.0179 0.06445,-0.0249 l 0.228516,-0.05127 c 0.305,0.011 0.582715,-0.133707 0.657715,-0.449707 l 0.0791,-0.149414 c 0.134,-0.08 0.220207,-0.197562 0.262207,-0.351562 l 0.08496,-0.14209 c 0.124,-0.157 0.201164,-0.341992 0.243164,-0.541992 l 0.04981,-0.117188 c 0.288,-0.314 0.141258,-0.953578 0.489258,-1.142578 0.272,1.074 0.262488,2.208277 0.625488,3.259277 l 0.02637,0.115723 c -0.026,0.465 0.04362,1.154941 0.682617,1.064941 0.062,-0.016 0.185559,-0.04406 0.247559,-0.06006 0.197,-0.061 0.395262,-0.129289 0.593262,-0.196289 0.306,0.555 0.09891,1.153351 -0.413086,1.485351 z m -61.56006,-0.145019 c -0.422,-0.074 -0.828524,-0.223961 -1.186524,-0.459961 -2.565,-1.601 -5.363621,-2.781364 -7.911621,-4.422364 -0.477,-0.24 -0.368465,-0.851921 -0.376465,-1.294921 0.612,-0.003 1.001719,0.53941 1.511719,0.79541 2.493,1.495 5.043215,2.883808 7.595215,4.278808 0.167,0.35 0.213676,0.746028 0.367676,1.103028 z m 27.394043,-1.113281 c -0.103,-0.014 -0.307621,-0.04166 -0.411621,-0.05567 -0.016,-0.007 -0.04799,-0.01937 -0.06299,-0.02637 l -0.168455,-0.10546 c -0.118,-0.139 -0.277566,-0.229278 -0.455566,-0.259278 l -0.186036,-0.06445 c -0.18,-0.105 -0.371543,-0.202656 -0.581543,-0.222656 l -0.169921,-0.02783 c -0.057,-0.142 -0.160477,-0.232926 -0.313477,-0.273926 l -0.09668,-0.04687 c -0.417,-0.238 -0.86257,-0.421656 -1.30957,-0.597656 -0.69,-0.382 -1.457856,-0.591473 -2.151856,-0.959473 -0.077,-0.028 -0.233011,-0.08579 -0.312011,-0.112793 l -0.168457,-0.06152 c -0.015,-0.008 -0.04359,-0.02083 -0.05859,-0.02783 -0.679,-0.357 -1.637285,-0.64575 -1.592285,-1.59375 0.458,-0.061 0.848047,0.233296 1.248047,0.404296 0.22,0.121 0.450082,0.221012 0.684082,0.312012 1.261,0.608 2.509226,1.242195 3.782226,1.825195 0.016,0.006 0.04699,0.01744 0.06299,0.02344 0.223,0.081 0.447109,0.157348 0.662109,0.256348 0.179,0.092 0.359922,0.175882 0.544922,0.254882 l 0.13623,0.06006 c 0.017,0.008 0.04938,0.02083 0.06738,0.02783 0.083,0.037 0.24852,0.107555 0.33252,0.143555 0.045,0.195 0.155531,0.364414 0.269531,0.524414 l 0.09814,0.161133 c 0.046,0.15 0.09488,0.298383 0.150879,0.442383 z m -2.178222,-6.095215 c -0.09952,0.0029 -0.204227,-0.01246 -0.313477,-0.04834 -1.274,-0.638 -0.994898,-2.24 -1.420898,-3.375 -0.501,0.933 -1.13043,1.891207 -2.06543,2.512207 -0.011,0.006 -0.03294,0.0189 -0.04395,0.0249 -0.313,0.208 -0.889157,0.06203 -0.785157,-0.396973 -0.162,-0.856 0.777801,-1.270379 1.445801,-1.463379 0.647,-0.618 1.02968,-1.497117 1.22168,-2.370117 0.073,0.015 0.218039,0.04606 0.290039,0.06006 0.426,1.215 0.264711,2.588238 0.928711,3.719238 0.129,0.266 0.446012,0.202938 0.687012,0.210938 0.203,-0.168 0.365082,-0.562536 0.684082,-0.373536 0.483,0.592375 0.06822,1.479739 -0.628418,1.500001 z M 0.03968063,19.057211 C 1.3756806,17.862211 2.521251,16.360387 3.224251,14.737387 2.757251,14.077387 1.9537978,13.837395 1.2847978,13.445395 0.88079784,13.192395 0.44912984,12.979188 1.2984375e-4,12.808188 -0.53487016,12.604188 -1.0941436,12.460383 -1.6551436,12.383383 c -0.767,-0.145 -1.809043,0.49384 -1.519043,1.36084 0.151,1.151 0.9775352,1.983168 1.4985352,2.972168 0.579,0.754 0.92878124,1.700059 1.67578124375,2.310059 z M 17.071419,14.3785 c -0.347,-0.028 -0.296297,-0.480633 -0.404297,-0.723633 -0.319,-1.29 -1.105003,-2.652515 -0.479003,-3.9785154 0.422,-0.146 0.884753,-0.2014414 1.322753,-0.1274414 0.316,0.051 0.620231,0.1701407 0.886231,0.3691407 0.694,0.6260001 0.658836,1.6857851 0.506836,2.5297851 -0.202,0.63 -0.918067,0.793184 -1.393067,1.138184 -0.25,0.182 -0.433453,0.41448 -0.439453,0.79248 z m -0.22998,-1.936523 c 0.212,-0.12 0.442433,-0.218266 0.669433,-0.322266 0.422,-0.193 0.832125,-0.407777 1.078125,-0.821777 -0.317,-0.224 -0.691125,-0.383313 -1.078125,-0.445313 -0.21,-0.033 -0.423277,-0.03632 -0.634277,-0.0073 -0.764,0.205 -0.377156,1.17968 -0.03516,1.59668 z M 44.7306,11.976156 c 0.19575,0.02013 0.391043,-0.0031 0.581543,-0.05859 0.71,-0.206 1.363222,-0.861856 1.803222,-1.401856 -0.582,-0.034 -1.191222,-3.36e-4 -1.803222,0.05566 -0.53,0.05 -1.061637,0.116317 -1.577637,0.174317 -0.571,0.302 0.07716,0.839785 0.410156,1.029785 0.1945,0.118 0.390188,0.180558 0.585938,0.200683 z M 87.597788,3.7759609 C 86.820843,3.7932148 86.432034,2.727703 86.228159,2.067953 c 0.059,0.015 0.173911,0.039734 0.232911,0.052734 0.214,0.196 0.389617,0.4603867 0.682617,0.5463867 0.08,0.003 0.239336,0.00965 0.319336,0.014649 1.03,-0.823 -0.196047,-2.18383995 -0.873047,-2.86083995 -0.118,-0.168 -0.134317,-0.38014845 -0.174317,-0.57714845 1.256,0.943 2.01952,2.4640118 1.83252,4.0620118 -0.109,0.125 -0.200969,0.2601133 -0.292969,0.3911133 -0.127375,0.051 -0.24643,0.076637 -0.357422,0.079101 z M 26.417123,3.7510585 c -0.268,-1.916 -0.395711,-4.09455089 0.946289,-5.6645509 0.469,-0.363 0.953773,-0.7563789 1.467773,-1.0883789 0.564,-0.364 1.164731,-0.6549297 1.823731,-0.7529297 0.993,1.479 1.139668,3.3263165 0.909668,5.0493165 2.733,-0.675 5.612117,-0.65480862 8.370117,-1.27880862 0.261,-0.089 0.529903,-0.18533595 0.774903,-0.31933595 0.109,-0.059 0.213546,-0.12661329 0.310546,-0.20361329 l -0.310546,-0.17724609 c -3.826,-2.18300005 -7.831419,-4.03401965 -11.878419,-5.77001965 -0.814,-0.349 -1.630754,-0.6921797 -2.447754,-1.0341797 -1.927,-0.833 -3.976769,-1.3806642 -5.863769,-2.3056642 1.316,-0.156 2.581047,0.4502071 3.873047,0.6372071 1.46,0.364 2.944476,0.5947188 4.438476,0.7617188 1.09,0.122 2.184391,0.2108984 3.275391,0.2958984 1.838,0.346 3.431867,1.3888711 5.088867,2.1928711 0.276,-0.157 0.03224,-0.4090937 -0.03076,-0.6210937 -0.817,-2.595 -1.139247,-5.3755707 -0.552247,-8.0595707 -2.225,-1.637 -4.99425,-2.539691 -7.78125,-2.658691 -0.927,-0.039 -1.85509,0.0076 -2.76709,0.143554 -3.069,0.449 -6.069488,2.093883 -7.750488,4.754883 -0.661,1.486 -1.496621,2.9651332 -1.536621,4.6611332 -0.368,1.957 0.09827,3.9148674 0.426269,5.8388674 0.073,0.182 0.246453,0.320957 0.439453,0.355957 2.689,-0.643 5.707719,0.66550791 7.136719,3.0205079 0.583,0.713 0.837696,1.701168 1.637696,2.222168 z M 57.310678,3.0801601 c 0.292735,0.076172 0.686086,-0.2071407 0.975586,-0.2753907 0.225,-0.048 0.435305,-0.134039 0.612305,-0.290039 0.42,-0.088 0.837301,-0.1882071 1.258301,-0.2622071 0.327,-0.058 0.656699,-0.099934 0.991699,-0.1069336 0.019,-0.003 0.05278,-0.00872 0.07178,-0.011719 0.263,-0.041 0.530875,-0.074906 0.796875,-0.1289063 0.077,-0.026 0.229153,-0.077004 0.306153,-0.1040039 0.349,0.006 1.125078,0.1482227 0.955078,-0.4467773 -0.316,-0.93000003 -0.683035,-1.84985166 -0.936035,-2.7978517 -0.185,-0.448 0.405988,-0.5457109 0.437988,-0.9287109 0.225,-1.634 0.682226,-3.2178986 1.157226,-4.7958986 0.366,-1.216 0.742786,-2.4292501 1.029786,-3.65625 -0.315,-0.319 -0.662786,-0.600863 -1.029786,-0.859863 -1.093,-0.772 -2.357933,-1.337035 -3.481933,-2.061035 -0.093,-0.083 -0.194828,-0.138457 -0.298828,-0.168457 -0.394,-0.116 -0.836661,0.113496 -1.076661,0.458496 -1.494,1.393 -2.560132,3.179699 -3.161132,5.1166988 -0.399,1.284 -0.592825,2.6339806 -0.569825,3.9799806 0.007,1.51 0.149825,3.0667618 0.569825,4.53076184 0.261,0.90999996 0.628648,1.78530866 1.139648,2.59130866 0.06775,0.1265 0.154375,0.1914063 0.251953,0.2167969 z M 10.986458,2.4561366 C 10.162052,2.4772315 9.5850324,1.6622733 8.7906574,1.4908046 7.2106574,0.42580457 5.445712,-0.36592597 3.871712,-1.457926 c -0.175,-0.389 -0.2050235,-0.8285117 -0.2490235,-1.2495117 0.368,-0.028 0.648754,0.2367617 0.947754,0.4057617 2.035,1.283 4.1461212,2.42574228 6.2241215,3.6357423 0.276,0.288 0.336461,0.7356758 0.272461,1.1176758 -0.02712,0.00247 -0.05397,0.00371 -0.08057,0.00439 z m 60.38965,-0.5727539 c 0.451125,0.0215 0.903446,0.00842 1.356446,-0.017578 0.897,-0.052 1.796382,-0.1532305 2.692382,-0.1362305 0.693,-0.095 1.39536,-0.1498164 2.06836,-0.3618164 2.85,-0.48700001 4.919965,-3.2892853 5.063965,-6.0922853 -0.332,-2.371 -1.805598,-4.4692697 -3.537598,-6.0512695 -1.681,-1.942 -3.925109,-3.266582 -6.287109,-4.246582 -0.617,-0.256 -1.243141,-0.49059 -1.869141,-0.70459 -2.256,-0.473 -4.655782,-0.662852 -6.925782,-0.172852 -0.346,0.074 -0.68832,0.165461 -1.02832,0.272461 0.008,0.017 0.02523,0.04992 0.03223,0.06592 0.272,0.347 0.639093,0.601723 0.996093,0.865723 0.393,0.289 0.772954,0.589644 1.001954,1.035644 1.321,2.392 2.0808,5.3485826 1.0708,7.9965826 -0.146,1.06 -0.782437,2.0182852 -0.773437,3.0922852 0.416,-0.155 0.765512,-0.5833125 1.249512,-0.4453125 -0.68,1.655 -1.810829,3.09314859 -2.548829,4.7021486 l -0.02637,0.060059 h 0.02637 c 0.268,0.01 0.533735,0.00389 0.802735,-0.016113 0.322,0.024 0.647121,0.032043 0.974121,0.019043 L 65.670542,1.646078 c 1.356,0.074 2.72073,0.1575938 4.07373,0.058594 0.071,-0.003 0.212715,-0.00872 0.282715,-0.011719 0.4485,0.113 0.897996,0.1689297 1.349121,0.1904297 z M 97.2848,1.2666835 c -0.54,-0.035 -0.341285,-0.82470709 -0.467285,-1.19970709 -0.651,-0.043 -1.071434,0.47576565 -1.419434,0.88476565 -0.184,-0.68 -0.564273,-1.39404692 -1.280273,-1.62304692 -0.438,-0.144 -0.76325,0.22383595 -1.03125,0.50683595 -0.595,0.225 -1.258149,-0.0424258 -1.702149,-0.46142579 -1.286,-0.964 -1.801496,-2.5975001 -3.083496,-3.5625001 -0.927,-1.092 -2.118265,-1.9268477 -3.322265,-2.6938477 -0.379,-0.269 -0.934704,-0.396836 -1.095704,-0.881836 0.67,0.106 1.190985,0.5869727 1.833985,0.7719727 1.501,0.389 2.685355,1.5481212 3.464355,2.8491212 0.82,1.063 1.47804,2.5139649 2.91504,2.8139649 0.676,0.172 0.996386,-0.7435586 1.671386,-0.6225586 0.551,0.088 0.977676,0.5383359 1.117676,1.06933593 0.163,0.432 0.577453,-0.10382422 0.814453,-0.19482423 0.014,-0.005 0.03927,-0.018367 0.05127,-0.026367 1.306,-0.458 1.836691,1.40011727 1.533691,2.3701171 z M 53.346811,-0.37394157 c -2.243,-0.569 -4.310832,-1.71631253 -6.402832,-2.69531253 -0.64,-0.206 -0.731875,-0.9166759 -0.796875,-1.4926759 2.151,0.885 4.162183,2.1259806 6.388183,2.8549806 0.643,0.096 0.709524,0.81700783 0.811524,1.33300783 z m 22.168946,-0.00293 c -0.678488,-0.007066 -1.360852,-0.20050392 -1.977539,-0.45556642 -0.389,-0.43400001 -0.453153,-1.07014451 -0.681153,-1.59814451 0.809,0.369 1.622125,0.8363672 2.578125,0.7763672 -1.034,-1.08 -1.968562,-2.432883 -1.851562,-4.004883 -0.072,-0.455 0.319617,-0.7797265 0.682617,-0.9697265 0.011,-0.005 0.03388,-0.014508 0.04687,-0.020508 1.908,-0.291 4.122125,0.7906212 4.828125,2.6616212 -1.13,-0.691 -2.334379,-1.4259532 -3.713379,-1.3769532 -0.49,0.033 -1.116828,0.033398 -1.423828,0.4833985 0.283,1.739 2.624246,2.4962071 2.427246,4.38720713 -0.299687,0.085625 -0.607124,0.12039917 -0.915527,0.1171875 z M 22.680306,-1.3568518 c -0.051,-0.008 -0.151148,-0.025691 -0.202148,-0.033691 -0.697,-1.753 -2.079434,-3.8135235 -1.044434,-5.6865235 0.988,-1.003 1.921332,0.8339805 1.715332,1.7299805 -0.364,-0.006 -0.350488,-0.4772344 -0.625488,-0.6152344 -0.812,-0.235 -1.064891,0.9189571 -0.837891,1.4809571 0.247,1.073 1.069629,1.9815117 0.994629,3.1245113 z m -9.442383,-0.8100586 c -0.179,0 -0.348512,-0.05102 -0.499512,-0.1450195 -2.514,-1.469 -5.0280388,-2.9393282 -7.4150388,-4.6113282 -0.315,-0.413 -0.4049336,-0.9763516 -0.4819336,-1.4853516 0.371,-0.024 0.6615,0.2138047 0.9375,0.4248047 1.244,1.004 2.6809532,1.7306055 4.0019532,2.6206055 1.0930002,0.522 1.9092152,1.5174922 3.0952152,1.8544922 0.424,0.298 0.447816,0.8787969 0.361816,1.3417969 z m 47.192872,-0.1040039 c -0.048,-0.011 -0.1415,-0.032945 -0.1875,-0.043945 -0.356,-1.691 -1.172343,-3.2725548 -1.277343,-5.0185548 0.123,-0.721 0.560125,-1.6909297 1.453125,-1.5029297 0.419,0.639 0.723925,1.459 0.648925,2.25 -0.463,-0.055 -0.280859,-0.8330625 -0.755859,-0.9140625 -0.453,0.065 -0.892836,0.4553594 -0.881836,0.9433594 0.114,1.48 0.955488,2.7891329 1.000488,4.2861326 z M 42.892221,-2.5214026 c 0.757,-0.471 0.835898,-1.4717891 1.045898,-2.2587891 0.064,-2.547 -1.620906,-4.5944689 -3.128906,-6.4804693 l -0.09961,-0.09814 c -0.768,-0.78 -1.452825,-1.678406 -2.444825,-2.191406 -0.361,0.429 -0.566363,0.973648 -0.672363,1.514648 -0.305,2.376 -0.0041,4.8638987 0.960937,7.0458987 0.718,0.411 1.437251,0.8190742 2.156251,1.2260742 0.729,0.413 1.456617,0.8251875 2.182617,1.2421875 z m 28.111817,-4.2451173 c -0.648,-0.76 -0.995457,-1.7460235 -1.668457,-2.4990235 -0.331,-0.329 0.03118,-0.8545586 0.388183,-0.9975586 1.09,-0.529 1.740348,-1.766531 2.881348,-2.144531 0.615,0.935 1.344535,1.790808 1.873535,2.7788084 0.128,0.565 -0.543355,0.7582813 -0.839355,1.1132813 -0.869,0.587 -1.539254,1.5970234 -2.635254,1.7490234 z M 48.983041,-8.4994301 c -0.247636,-0.020574 -0.430762,-0.4566406 -0.581543,-0.6386718 -0.482,-0.8720001 -1.320625,-1.5519531 -1.640625,-2.5019531 0.956,-1.013 2.121637,-1.794246 3.077637,-2.802246 0.145,-0.088 0.359441,-0.183692 0.502441,-0.03369 0.696,0.589 0.935774,1.514563 1.467774,2.226563 0.26,0.349 0.576609,0.961019 0.09961,1.270019 -0.915,0.78 -1.796172,1.5957661 -2.701172,2.3847661 -0.08028,0.073938 -0.154783,0.1009756 -0.224121,0.095215 z M 8.0670246,-8.5829262 c 0.04,-0.088 0.1160781,-0.1218359 0.2050781,-0.1318359 0.196,-0.025 0.4580625,0.055883 0.5390625,-0.1201172 -0.173,0.012 -0.3570625,-0.00248 -0.5390625,-0.04248 -0.785,-0.175 -1.5492344,-0.816668 -1.3652344,-1.6596677 0.063,-0.57 0.7980391,-0.536657 1.0400391,-0.972657 -0.053,-0.23 -0.1000195,-0.463266 -0.1450195,-0.697266 0.177,-0.005 0.3292148,-0.05637 0.4702148,-0.130371 0.273,-0.146 0.5016485,-0.382851 0.7646485,-0.547851 0.081,-0.05 0.1634179,-0.09298 0.2534179,-0.125977 l 0.00879,0.0029 c 0.171,0.08 0.3103125,0.216886 0.4453125,0.358886 0.2990004,0.316 0.5737734,0.664485 1.0927734,0.521485 -0.185,-0.234 -0.497859,-0.26507 -0.755859,-0.37207 0.056,-0.392 0.440816,-0.622891 0.736816,-0.837891 0.068,0.243 0.07503,0.496141 0.08203,0.744141 0.231,-0.077 0.467196,-0.122372 0.700196,-0.130372 0.052,-0.002 0.104273,-0.003 0.155273,0 0.091,0.003 0.181531,0.0133 0.269531,0.0293 0.354,0.066 0.683754,0.238457 0.947754,0.543457 -0.081,0.108 -0.161699,0.213871 -0.241699,0.317871 0.077,0.02 0.227688,0.0591 0.304688,0.0791 0.022,0.114 0.04492,0.225914 0.06592,0.336914 0.199,-0.022 0.444109,0.0026 0.662109,0.07764 0.329,0.114001 0.598359,0.342914 0.568359,0.711914 -0.123,0.285 -0.337359,0.327392 -0.568359,0.275392 -0.226,-0.051 -0.468785,-0.191715 -0.654785,-0.282715 -0.014,-0.071 -0.04506,-0.214645 -0.06006,-0.285645 -0.06,0.03 -0.181699,0.09251 -0.241699,0.124511 0.015,0.557001 -0.457211,1.4259613 -0.741211,0.459961 l -0.04102,0.07471 -0.209472,0.3925785 -0.06006,0.00586 -0.155273,0.013184 c -0.097,0.006 -0.194504,0.00879 -0.291504,0.00879 0.057,-0.1959995 0.172504,-0.3628785 0.291504,-0.5258785 0.048,-0.065 0.09563,-0.130754 0.140625,-0.197754 -0.043,-0.035 -0.08962,-0.06243 -0.140625,-0.08643 -0.363,-0.163001 -0.893137,-0.09996 -1.015137,-0.563965 0.066,-0.147999 0.131219,-0.297707 0.199219,-0.449707 -0.213,-0.005 -0.423278,-0.01018 -0.634278,-0.01318 -0.006,0.075 -0.01597,0.227224 -0.02197,0.303224 -0.128,0.018 -0.2557894,0.0348 -0.3837894,0.0498 l -0.1010742,0.01318 c 10e-4,0.13 0.039074,0.220179 0.1010742,0.284179 0.171,0.178001 0.5209024,0.157613 0.7749024,0.203614 -0.16,0.304 -0.500902,0.328566 -0.7749024,0.455565 -0.12,0.057 -0.227293,0.131278 -0.300293,0.259278 -0.04,0.069 -0.088019,0.125922 -0.1450195,0.169922 -0.076,0.062 -0.166207,0.1033008 -0.262207,0.1333008 -0.148,0.047 -0.308961,0.067215 -0.459961,0.095215 0.137,-0.3719998 -0.1796875,-0.6006248 -0.3046875,-0.8906248 -0.033,-0.075 -0.05234,-0.154699 -0.04834,-0.241699 0.016,-0.019 0.03134,-0.03481 0.04834,-0.0498 0.206,-0.185 0.5266485,-0.158969 0.7646485,-0.292969 l 0.00879,-0.0044 -0.00879,-0.01465 c -0.265,-0.392 -0.5036485,-0.173125 -0.7646485,0.04687 -0.16,0.135 -0.3270898,0.270997 -0.5170898,0.270997 -0.65,0.007 -0.6891329,1.0151165 -0.1611329,1.2451165 0.209,0.18 0.4372227,0.3084375 0.6782227,0.3984375 0.244,0.093 0.5016485,0.1472461 0.7646485,0.1772461 0.087,0.01 0.174207,0.017437 0.262207,0.023437 0.148,0.008 0.2973125,0.011719 0.4453125,0.011719 0.206,0 0.4117694,-0.00525 0.6137694,-0.010254 -0.185,0.096 -0.3927694,0.1719102 -0.6137694,0.2329102 -0.144,0.039 -0.2923125,0.071144 -0.4453125,0.098145 -0.086,0.015 -0.174207,0.029481 -0.262207,0.04248 -0.257,0.035 -0.5166485,0.055777 -0.7646485,0.071777 z M 28.255502,-8.8612465 c -0.13225,-0.0055 -0.269078,-0.040777 -0.392578,-0.071777 -0.415,-1.012 -1.130317,-1.8437385 -1.674317,-2.7817385 -0.053,-0.338 0.335387,-0.505266 0.546387,-0.697266 0.921,-0.616 1.765648,-1.33323 2.639648,-2.01123 0.742,-0.079 0.869735,0.885953 1.177735,1.376953 0.189,0.668 0.878609,1.215832 0.849609,1.902832 -0.838,0.819 -1.826344,1.4848987 -2.777344,2.1708987 -0.1095,0.092 -0.23689,0.1168281 -0.36914,0.1113278 z M 8.9957355,-10.286539 c 0.013484,5.62e-4 0.027766,7.85e-4 0.041016,-0.0015 0.17,-0.026 0.3151054,-0.273875 0.1831054,-0.421875 -0.056,-0.051 -0.1211054,-0.0652 -0.1831054,-0.0542 -0.18,0.03 -0.329668,0.275735 -0.159668,0.427735 0.0375,0.03375 0.078199,0.04812 0.1186523,0.04981 z m 0.7792969,-0.256348 c 0.139845,0.01528 0.056426,-0.206133 -0.030762,-0.231445 -0.044,-0.013 -0.089469,0.02725 -0.1054687,0.177246 0.043,0.025 0.077469,0.04034 0.1054687,0.04834 0.011375,0.0033 0.021439,0.0048 0.030762,0.0059 z m 4.0195316,-0.162598 c 0.139739,0.01393 0.05549,-0.191836 -0.03076,-0.225586 -0.048,-0.019 -0.09647,0.01678 -0.105469,0.175782 0.042,0.022 0.07747,0.03694 0.105469,0.04394 0.01137,0.003 0.02145,0.0049 0.03076,0.0059 z m -1.696289,-0.506836 c 0.325298,0.0016 0.125507,-0.186152 -0.07324,-0.282715 -0.2,-0.097 -0.399917,-0.101074 -0.06592,0.273926 l 0.06592,0.0059 c 0.0265,0.0019 0.05156,0.0028 0.07324,0.0029 z m -3.0922856,-0.476074 0.030762,-0.0293 c 0.17,-0.164 0.103,-0.262969 0,-0.292969 -0.153,-0.045 -0.3847618,0.06027 -0.030762,0.322266 z m 2.6250006,-0.08203 c 0.140452,0.01261 0.05549,-0.191836 -0.03076,-0.225586 -0.049,-0.019 -0.09893,0.01578 -0.106934,0.175781 0.043,0.022 0.07893,0.03594 0.106934,0.04394 0.01144,0.0029 0.0214,0.005 0.03076,0.0059 z m -1.8471685,-0.05713 c 0.3769995,-0.115 0.1664492,-0.220559 -0.039551,-0.247559 -0.207,-0.027 -0.409,0.02652 0,0.228516 z m 2.0024415,-0.411621 c 0.140453,0.01201 0.05549,-0.189844 -0.03076,-0.222656 -0.048,-0.02 -0.09647,0.01632 -0.105469,0.174316 0.042,0.023 0.07747,0.03648 0.105469,0.04248 0.01144,0.0028 0.0214,0.0051 0.03076,0.0059 z m -2.475586,-0.04395 c 0.252,-0.161 0.1202812,-0.247418 -0.011719,-0.253418 -0.132,-0.004 -0.266,0.07556 0,0.247559 z"
     transform="matrix(1.3333333,0,0,-1.3333333,9.34553,157.82563)" />
</svg>
