<?xml version="1.0" encoding="UTF-8" standalone="no"?>
<!-- Created with Inkscape (http://www.inkscape.org/) -->

<svg
   version="1.1"
   id="svg1"
   width="164.64816"
   height="65.858002"
   viewBox="0 0 164.64816 65.858001"
   sodipodi:docname="s9.svg"
   inkscape:version="1.4 (1:1.4+202410161351+e7c3feb100)"
   xmlns:inkscape="http://www.inkscape.org/namespaces/inkscape"
   xmlns:sodipodi="http://sodipodi.sourceforge.net/DTD/sodipodi-0.dtd"
   xmlns="http://www.w3.org/2000/svg"
   xmlns:svg="http://www.w3.org/2000/svg">
  <defs
     id="defs1">
    <clipPath
       clipPathUnits="userSpaceOnUse"
       id="clipPath106">
      <path
         d="M 0,595 H 842 V 0 H 0 Z"
         transform="translate(-128.7148,-382.46191)"
         id="path106" />
    </clipPath>
    <clipPath
       clipPathUnits="userSpaceOnUse"
       id="clipPath10516">
      <path
         d="M 0,595 H 842 V 0 H 0 Z"
         transform="translate(-24.973101,-292.34371)"
         id="path10516" />
    </clipPath>
    <clipPath
       clipPathUnits="userSpaceOnUse"
       id="clipPath10518">
      <path
         d="M 0,595 H 842 V 0 H 0 Z"
         transform="translate(-81.6235,-321.49851)"
         id="path10518" />
    </clipPath>
    <clipPath
       clipPathUnits="userSpaceOnUse"
       id="clipPath10520">
      <path
         d="M 0,595 H 842 V 0 H 0 Z"
         transform="translate(-91.046905,-321.45261)"
         id="path10520" />
    </clipPath>
    <clipPath
       clipPathUnits="userSpaceOnUse"
       id="clipPath10522">
      <path
         d="M 0,595 H 842 V 0 H 0 Z"
         transform="translate(-99.9106,-323.89651)"
         id="path10522" />
    </clipPath>
    <clipPath
       clipPathUnits="userSpaceOnUse"
       id="clipPath10524">
      <path
         d="M 0,595 H 842 V 0 H 0 Z"
         transform="translate(-77.397902,-320.44341)"
         id="path10524" />
    </clipPath>
    <clipPath
       clipPathUnits="userSpaceOnUse"
       id="clipPath10526">
      <path
         d="M 0,595 H 842 V 0 H 0 Z"
         transform="translate(-56.132302,-323.30571)"
         id="path10526" />
    </clipPath>
    <clipPath
       clipPathUnits="userSpaceOnUse"
       id="clipPath10528">
      <path
         d="M 0,595 H 842 V 0 H 0 Z"
         transform="translate(-31.051301,-319.66891)"
         id="path10528" />
    </clipPath>
    <clipPath
       clipPathUnits="userSpaceOnUse"
       id="clipPath10530">
      <path
         d="M 0,595 H 842 V 0 H 0 Z"
         transform="translate(-17.571801,-322.54301)"
         id="path10530" />
    </clipPath>
    <clipPath
       clipPathUnits="userSpaceOnUse"
       id="clipPath10532">
      <path
         d="M 0,595 H 842 V 0 H 0 Z"
         transform="translate(-26.2852,-320.27341)"
         id="path10532" />
    </clipPath>
    <clipPath
       clipPathUnits="userSpaceOnUse"
       id="clipPath10534">
      <path
         d="M 0,595 H 842 V 0 H 0 Z"
         transform="translate(-87.586405,-315.46921)"
         id="path10534" />
    </clipPath>
    <clipPath
       clipPathUnits="userSpaceOnUse"
       id="clipPath10536">
      <path
         d="M 0,595 H 842 V 0 H 0 Z"
         transform="translate(-43.015101,-320.81591)"
         id="path10536" />
    </clipPath>
    <clipPath
       clipPathUnits="userSpaceOnUse"
       id="clipPath10538">
      <path
         d="M 0,595 H 842 V 0 H 0 Z"
         transform="translate(-11.6611,-316.12551)"
         id="path10538" />
    </clipPath>
    <clipPath
       clipPathUnits="userSpaceOnUse"
       id="clipPath10540">
      <path
         d="M 0,595 H 842 V 0 H 0 Z"
         transform="translate(-124.78131,-316.85061)"
         id="path10540" />
    </clipPath>
    <clipPath
       clipPathUnits="userSpaceOnUse"
       id="clipPath10542">
      <path
         d="M 0,595 H 842 V 0 H 0 Z"
         transform="translate(-121.92681,-314.34671)"
         id="path10542" />
    </clipPath>
    <clipPath
       clipPathUnits="userSpaceOnUse"
       id="clipPath10544">
      <path
         d="M 0,595 H 842 V 0 H 0 Z"
         transform="translate(-114.793,-314.04791)"
         id="path10544" />
    </clipPath>
    <clipPath
       clipPathUnits="userSpaceOnUse"
       id="clipPath10546">
      <path
         d="M 0,595 H 842 V 0 H 0 Z"
         transform="translate(-96.027302,-311.31401)"
         id="path10546" />
    </clipPath>
    <clipPath
       clipPathUnits="userSpaceOnUse"
       id="clipPath10548">
      <path
         d="M 0,595 H 842 V 0 H 0 Z"
         transform="translate(-67.497602,-313.94431)"
         id="path10548" />
    </clipPath>
    <clipPath
       clipPathUnits="userSpaceOnUse"
       id="clipPath10550">
      <path
         d="M 0,595 H 842 V 0 H 0 Z"
         transform="translate(-103.61181,-314.43651)"
         id="path10550" />
    </clipPath>
    <clipPath
       clipPathUnits="userSpaceOnUse"
       id="clipPath10552">
      <path
         d="M 0,595 H 842 V 0 H 0 Z"
         transform="translate(-48.139601,-310.67531)"
         id="path10552" />
    </clipPath>
    <clipPath
       clipPathUnits="userSpaceOnUse"
       id="clipPath10554">
      <path
         d="M 0,595 H 842 V 0 H 0 Z"
         transform="translate(-59.650901,-313.90821)"
         id="path10554" />
    </clipPath>
    <clipPath
       clipPathUnits="userSpaceOnUse"
       id="clipPath10556">
      <path
         d="M 0,595 H 842 V 0 H 0 Z"
         transform="translate(-88.927202,-308.73141)"
         id="path10556" />
    </clipPath>
    <clipPath
       clipPathUnits="userSpaceOnUse"
       id="clipPath10558">
      <path
         d="M 0,595 H 842 V 0 H 0 Z"
         transform="translate(-7.9683002,-307.60501)"
         id="path10558" />
    </clipPath>
    <clipPath
       clipPathUnits="userSpaceOnUse"
       id="clipPath10560">
      <path
         d="M 0,595 H 842 V 0 H 0 Z"
         transform="translate(-27.856401,-305.59521)"
         id="path10560" />
    </clipPath>
    <clipPath
       clipPathUnits="userSpaceOnUse"
       id="clipPath10562">
      <path
         d="M 0,595 H 842 V 0 H 0 Z"
         transform="translate(-75.494102,-306.52831)"
         id="path10562" />
    </clipPath>
    <clipPath
       clipPathUnits="userSpaceOnUse"
       id="clipPath10564">
      <path
         d="M 0,595 H 842 V 0 H 0 Z"
         transform="translate(-122.916,-300.73541)"
         id="path10564" />
    </clipPath>
    <clipPath
       clipPathUnits="userSpaceOnUse"
       id="clipPath10566">
      <path
         d="M 0,595 H 842 V 0 H 0 Z"
         transform="translate(-96.4561,-302.19431)"
         id="path10566" />
    </clipPath>
    <clipPath
       clipPathUnits="userSpaceOnUse"
       id="clipPath10568">
      <path
         d="M 0,595 H 842 V 0 H 0 Z"
         transform="translate(-44.992201,-290.29301)"
         id="path10568" />
    </clipPath>
    <clipPath
       clipPathUnits="userSpaceOnUse"
       id="clipPath10570">
      <path
         d="M 0,595 H 842 V 0 H 0 Z"
         transform="translate(-58.590301,-300.61521)"
         id="path10570" />
    </clipPath>
    <clipPath
       clipPathUnits="userSpaceOnUse"
       id="clipPath10572">
      <path
         d="M 0,595 H 842 V 0 H 0 Z"
         transform="translate(-89.722202,-300.20261)"
         id="path10572" />
    </clipPath>
    <clipPath
       clipPathUnits="userSpaceOnUse"
       id="clipPath10574">
      <path
         d="M 0,595 H 842 V 0 H 0 Z"
         transform="translate(-62.565401,-297.47071)"
         id="path10574" />
    </clipPath>
    <clipPath
       clipPathUnits="userSpaceOnUse"
       id="clipPath10576">
      <path
         d="M 0,595 H 842 V 0 H 0 Z"
         transform="translate(-79.507299,-295.27831)"
         id="path10576" />
    </clipPath>
    <clipPath
       clipPathUnits="userSpaceOnUse"
       id="clipPath10578">
      <path
         d="M 0,595 H 842 V 0 H 0 Z"
         transform="translate(-6.3770002,-292.9766)"
         id="path10578" />
    </clipPath>
    <clipPath
       clipPathUnits="userSpaceOnUse"
       id="clipPath10580">
      <path
         d="M 0,595 H 842 V 0 H 0 Z"
         transform="translate(-116.0122,-292.0439)"
         id="path10580" />
    </clipPath>
    <clipPath
       clipPathUnits="userSpaceOnUse"
       id="clipPath10582">
      <path
         d="M 0,595 H 842 V 0 H 0 Z"
         transform="translate(-104.68071,-293.3408)"
         id="path10582" />
    </clipPath>
    <clipPath
       clipPathUnits="userSpaceOnUse"
       id="clipPath10584">
      <path
         d="M 0,595 H 842 V 0 H 0 Z"
         transform="translate(-15.2422,-288.11041)"
         id="path10584" />
    </clipPath>
    <clipPath
       clipPathUnits="userSpaceOnUse"
       id="clipPath10586">
      <path
         d="M 0,595 H 842 V 0 H 0 Z"
         transform="translate(-97.3486,-289.4717)"
         id="path10586" />
    </clipPath>
    <clipPath
       clipPathUnits="userSpaceOnUse"
       id="clipPath10588">
      <path
         d="M 0,595 H 842 V 0 H 0 Z"
         transform="translate(-30.774901,-288.22271)"
         id="path10588" />
    </clipPath>
    <clipPath
       clipPathUnits="userSpaceOnUse"
       id="clipPath10590">
      <path
         d="M 0,595 H 842 V 0 H 0 Z"
         transform="translate(-110.1211,-290.94041)"
         id="path10590" />
    </clipPath>
    <clipPath
       clipPathUnits="userSpaceOnUse"
       id="clipPath10592">
      <path
         d="M 0,595 H 842 V 0 H 0 Z"
         transform="translate(-7.3799002,-287.7686)"
         id="path10592" />
    </clipPath>
    <clipPath
       clipPathUnits="userSpaceOnUse"
       id="clipPath10594">
      <path
         d="M 0,595 H 842 V 0 H 0 Z"
         transform="translate(-116.4043,-283.99321)"
         id="path10594" />
    </clipPath>
    <clipPath
       clipPathUnits="userSpaceOnUse"
       id="clipPath10596">
      <path
         d="M 0,595 H 842 V 0 H 0 Z"
         transform="translate(-77.339799,-283.73141)"
         id="path10596" />
    </clipPath>
    <clipPath
       clipPathUnits="userSpaceOnUse"
       id="clipPath10598">
      <path
         d="M 0,595 H 842 V 0 H 0 Z"
         transform="translate(-73.729002,-283.0781)"
         id="path10598" />
    </clipPath>
    <clipPath
       clipPathUnits="userSpaceOnUse"
       id="clipPath10600">
      <path
         d="M 0,595 H 842 V 0 H 0 Z"
         transform="translate(-99.6523,-278.82911)"
         id="path10600" />
    </clipPath>
    <clipPath
       clipPathUnits="userSpaceOnUse"
       id="clipPath10602">
      <path
         d="M 0,595 H 842 V 0 H 0 Z"
         transform="translate(-108.46581,-277.5596)"
         id="path10602" />
    </clipPath>
    <clipPath
       clipPathUnits="userSpaceOnUse"
       id="clipPath10604">
      <path
         d="M 0,595 H 842 V 0 H 0 Z"
         transform="translate(-54.900901,-278.23831)"
         id="path10604" />
    </clipPath>
  </defs>
  <sodipodi:namedview
     id="namedview1"
     pagecolor="#ffffff"
     bordercolor="#000000"
     borderopacity="0.25"
     inkscape:showpageshadow="2"
     inkscape:pageopacity="0.0"
     inkscape:pagecheckerboard="0"
     inkscape:deskcolor="#d1d1d1"
     inkscape:zoom="3.1552128"
     inkscape:cx="115.20618"
     inkscape:cy="61.485552"
     inkscape:window-width="1190"
     inkscape:window-height="788"
     inkscape:window-x="50"
     inkscape:window-y="61"
     inkscape:window-maximized="1"
     inkscape:current-layer="svg1">
    <inkscape:page
       x="0"
       y="0"
       width="164.64816"
       height="65.858002"
       id="page2"
       margin="0"
       bleed="0" />
  </sodipodi:namedview>
  <path
     id="path10515"
     clip-path="url(#clipPath10516)"
     style="fill:#00a651;fill-opacity:1;fill-rule:nonzero;stroke:none"
     d="M 57.801048 31.822801 C 57.357048 30.959801 57.02968 30.04632 56.64968 29.15532 C 57.14168 28.37032 57.119743 27.42232 57.188743 26.53032 C 57.416743 22.49132 57.84095 18.4685 58.20095 14.4395 C 55.99895 17.1535 53.940016 19.998961 52.094016 22.961961 C 52.831016 22.700961 53.519044 22.262609 54.322044 22.226609 C 52.807044 24.252609 50.734821 25.821902 48.768821 27.401902 C 48.762821 26.237902 48.161868 24.842394 49.266868 24.006394 C 51.802868 19.574394 54.73188 15.379312 57.82888 11.322312 C 58.16888 10.832312 58.670489 10.383281 58.678489 9.7402807 C 59.162489 4.4762807 59.582911 -0.81200484 59.410911 -6.1020048 C 59.390911 -6.3880048 59.447762 -6.6589931 59.583762 -6.9149931 C 61.713762 -2.4829931 60.85386 2.6472064 60.68386 7.3892064 C 63.69386 3.2682064 67.150899 -1.1924033 66.973899 -6.5854033 C 68.369899 -3.8124033 67.685161 -0.37460228 66.442161 2.3603977 C 64.851161 5.6703977 62.671485 8.6516167 60.449485 11.559617 C 60.157485 11.947617 60.222798 12.470386 60.144798 12.923386 C 59.737798 17.186386 59.112048 21.456726 58.926048 25.721726 C 59.506048 25.183726 59.809661 24.279269 60.629661 24.053269 C 60.026661 26.746269 58.842048 29.276801 57.801048 31.822801 z M 10.530539 31.778855 C 10.072539 30.927855 9.7394526 30.015023 9.3674526 29.126023 C 9.6714526 28.570023 9.8123432 27.952336 9.8303432 27.321336 C 10.075343 23.240336 10.466156 19.169679 10.838156 15.098679 C 10.284156 14.712679 9.6923784 14.353476 9.2663784 13.815476 C 9.8403784 13.987476 10.363425 14.286406 10.889425 14.568406 C 11.113425 12.376406 11.311449 10.180863 11.513449 7.9868627 C 11.014449 7.6388627 10.492226 7.3120033 10.085226 6.8560033 C 10.604226 7.0400033 11.084253 7.311101 11.563253 7.581101 C 11.663253 6.097101 11.77746 4.6164407 11.82546 3.1294407 C 10.93846 3.0774407 9.8189682 2.9670423 9.2209682 3.7710423 C 8.6079682 4.6260423 9.1651089 5.6492181 9.2151089 6.5762181 C 7.2731089 6.0472181 6.0254681 4.2238626 4.1584681 3.4868626 C 3.2334681 4.9938626 2.1254446 6.9416596 0.15944457 7.0786596 C 0.10544457 7.0716596 0.052776594 7.0622924 -0.00022340626 7.0522924 C -2.8632234 6.5222924 -4.5555906 1.6403742 -1.5265906 0.23637422 C -1.0245906 0.078374225 -0.51422341 0.009534375 -0.00022340626 0.00053437501 C 1.0587766 -0.016465625 2.128261 0.22758126 3.146261 0.49858126 C 3.610261 0.13458126 3.6804876 -0.58328206 3.9284876 -1.1112821 C 2.7444876 -2.4372821 1.4157766 -3.5964853 -0.00022340626 -4.6444853 C -3.0622234 -6.9114853 -6.5332979 -8.6656065 -9.8512979 -10.493607 C -11.767298 -8.6726065 -12.379626 -5.8376181 -11.837626 -3.3056181 C -11.679626 -2.0126181 -10.994263 -0.86337968 -10.790263 0.41362032 C -11.517263 -0.13737968 -11.781439 -1.0551415 -12.095439 -1.8671415 C -13.196439 -4.9561415 -13.424349 -8.5207159 -11.953349 -11.530716 C -14.339349 -12.810716 -16.917115 -13.772896 -19.213115 -15.189896 C -16.227115 -14.701896 -13.247849 -14.131794 -10.265849 -13.610794 C -7.6828487 -15.689794 -4.0202742 -15.700415 -0.97727421 -14.772415 C -0.64827421 -14.668415 -0.32322341 -14.556966 -0.00022340626 -14.436966 C 4.1117766 -12.913966 7.7455386 -10.251442 10.905539 -7.2504424 C 13.331539 -5.1364424 13.3363 -1.658614 13.5613 1.298386 C 14.2753 2.148386 14.927656 3.0468392 15.525656 3.9878392 C 15.863656 2.7798392 16.833484 1.7014641 18.074484 1.5034641 C 18.300484 1.4674641 18.535609 1.4613508 18.777609 1.4873508 C 20.274609 1.4623508 21.026277 3.0305696 21.187277 4.3115696 C 21.401277 5.7885696 21.488363 7.5788783 20.475363 8.7778783 C 20.261363 7.9508783 20.074593 7.1156439 19.861593 6.2876439 C 20.060593 5.7646439 20.639976 5.1037767 20.303976 4.5737767 C 19.641976 4.2977767 18.809484 4.2495892 18.074484 4.4565892 C 17.314484 4.6705892 16.660492 5.1560111 16.407492 5.9390111 C 16.382492 6.6940111 16.771476 7.399644 16.741476 8.162644 C 15.190476 7.197644 15.018398 5.0444446 13.536398 3.9834446 C 13.422398 5.5174446 13.372078 7.0559135 13.258078 8.5889135 C 15.033078 9.7779135 16.864484 11.054355 18.074484 12.841355 C 18.211484 13.044355 18.339738 13.252773 18.459738 13.469773 C 18.704738 13.337773 18.949625 13.20873 19.193625 13.07573 C 19.269625 13.34873 19.342281 13.619648 19.416281 13.891648 C 19.244281 14.033648 19.076515 14.175918 18.906515 14.317918 C 18.970515 15.026918 19.151015 15.839308 18.719015 16.468308 C 18.489015 16.545308 18.271484 16.521617 18.074484 16.434617 C 17.589484 16.217617 17.231308 15.608328 17.144308 15.113328 C 17.025308 14.461328 17.605484 14.103461 18.074484 13.774461 C 18.131484 13.734461 18.186547 13.694808 18.238547 13.655808 C 18.184547 13.586808 18.129484 13.519195 18.074484 13.452195 C 16.702484 11.783195 14.922414 10.498472 13.202414 9.2114721 C 13.052414 11.315472 12.788207 13.405976 12.565207 15.502976 C 14.472207 16.634976 16.340484 17.852398 18.074484 19.235398 C 18.974484 19.952398 19.835679 20.715273 20.649679 21.532273 C 20.235679 18.364273 20.449722 14.888328 22.168722 12.113328 C 22.203722 12.056328 22.239586 11.999476 22.278586 11.940476 C 22.964586 10.919476 24.412508 9.9095268 25.448508 11.042527 C 27.328508 13.359527 27.385672 16.515824 27.941672 19.321824 C 28.218672 20.825824 28.493523 22.486281 29.614523 23.615281 C 29.370523 20.404281 28.210352 17.021324 29.538352 13.884324 C 30.354352 11.606324 33.310488 10.425015 35.428488 11.668015 C 37.810488 12.955015 38.797731 15.689148 39.251731 18.204148 C 39.544731 16.554148 40.1215 14.872964 41.3655 13.690964 C 42.9535 11.983964 46.114786 12.097851 47.457786 14.049851 C 48.595786 15.825851 48.722086 18.073656 48.341086 20.099656 C 47.823086 22.573656 46.592051 24.818769 45.905051 27.240769 C 46.348051 27.032769 46.787313 26.813719 47.248313 26.638719 C 46.507313 28.155719 45.622594 29.614332 44.611594 30.967332 C 44.293594 30.119332 43.991743 29.264715 43.688743 28.409715 C 44.461743 27.577715 44.279903 26.352683 44.577903 25.327683 C 45.156903 22.270683 46.865547 19.554437 47.488547 16.525437 C 46.024547 14.966437 43.195703 15.118871 41.898703 16.819871 C 40.445703 18.567871 40.528953 20.965656 40.304953 23.099656 C 39.881953 25.891656 39.383621 28.732359 38.214621 31.320359 C 37.817621 30.270359 37.312664 29.23693 37.108664 28.12993 C 37.931664 25.03693 38.749793 21.815797 38.290793 18.593797 C 37.966793 16.313797 36.03118 14.064363 33.58718 14.174363 C 31.89818 14.228363 30.694426 15.772707 30.389426 17.326707 C 29.635426 20.475707 31.067477 23.589328 30.991477 26.738328 C 31.067477 27.152328 30.666367 27.624711 30.329367 27.180711 C 27.717367 24.780711 27.173551 21.046144 26.592551 17.725144 C 26.252551 16.021144 26.281648 13.869761 24.692648 12.782761 C 23.624648 12.157761 22.687586 13.360097 22.278586 14.227097 L 22.275656 14.234421 C 21.167656 16.744421 21.142523 19.601062 21.364523 22.291062 C 21.662523 22.735062 21.985586 23.164351 22.278586 23.612351 C 22.477586 23.916351 22.663183 24.2305 22.816183 24.5645 C 23.194183 24.3185 23.575691 24.073402 23.961691 23.839402 C 24.427691 24.610402 24.390547 25.500578 23.488547 25.894578 C 23.688547 27.015578 23.923535 28.407398 23.176535 29.360398 C 22.860535 29.437398 22.557586 29.409269 22.278586 29.303269 C 21.385586 28.964269 20.739695 27.838363 20.690695 26.924363 C 20.576695 25.872363 21.717586 25.500863 22.278586 24.861863 C 22.315586 24.819863 22.35159 24.776957 22.38259 24.732957 L 22.278586 24.605515 C 21.039586 23.070515 19.601484 21.728051 18.074484 20.479051 C 16.267484 19.001051 14.338457 17.656273 12.471457 16.282273 C 12.184457 19.417273 11.808859 22.543711 11.558859 25.680711 C 12.164859 25.191711 12.478187 24.393254 13.170187 24.012254 C 13.453187 24.172254 13.222414 24.513605 13.202414 24.747605 C 12.445414 27.139605 11.480539 29.458855 10.530539 31.778855 z M 67.190696 31.742234 C 66.800696 30.873234 66.397485 30.004445 66.074485 29.108445 C 66.293485 28.507445 66.526333 27.905488 66.518333 27.252488 C 67.115333 17.266488 68.413337 7.316757 68.497337 -2.696243 C 68.711337 -5.883243 66.587485 -8.641001 64.199485 -10.498001 C 63.868485 -8.812001 64.084524 -7.101204 64.114524 -5.406204 C 64.042524 -5.380204 63.900415 -5.3282001 63.827415 -5.3022001 C 63.309415 -7.0462001 63.438251 -8.9076846 63.584251 -10.698685 C 63.673251 -10.993685 63.399391 -11.156735 63.203391 -11.300735 C 60.761391 -12.973735 58.12145 -14.347935 55.38845 -15.479935 C 54.92445 -15.685935 54.406301 -15.832864 54.061301 -16.232864 C 57.478301 -15.477864 61.048399 -14.950626 64.161399 -13.263626 C 64.783399 -14.930626 65.688145 -16.842599 67.526145 -17.410599 C 69.013145 -17.740599 70.030485 -16.221595 70.574485 -15.056595 C 71.783485 -12.511595 72.339349 -9.3776416 74.809349 -7.6796416 C 75.535349 -7.1906416 76.5767 -6.4914228 77.4197 -7.1054228 C 78.6487 -8.6374228 78.645376 -10.994837 80.412376 -12.129837 C 82.434376 -13.386837 85.083185 -12.653993 86.941185 -11.414993 C 88.932185 -10.245993 88.936388 -7.6466494 89.349388 -5.6376494 C 89.883388 0.37435064 89.050384 6.4003941 88.495384 12.381394 C 90.493384 10.049394 92.556478 7.7495775 94.366478 5.2695775 C 94.908478 0.41157748 95.000361 -4.4943955 94.996361 -9.3773955 C 95.529361 -8.9793955 95.645041 -8.2916143 95.843041 -7.7016143 C 96.762041 -4.3506143 96.522498 -0.83422728 96.386498 2.5947727 C 98.585498 -0.14122728 100.25095 -3.4360674 100.30495 -7.0160674 C 100.97295 -6.2360674 100.82487 -5.0664931 100.91287 -4.1024931 C 100.98087 0.059506929 98.428572 3.5565072 96.112572 6.7725072 C 95.464572 12.243507 94.873888 17.735562 94.411888 23.228562 C 95.048888 22.747562 95.336857 21.698094 96.204857 21.623094 C 95.508857 24.271094 94.380033 26.778312 93.385033 29.322312 C 92.865033 28.509312 92.60658 27.568637 92.19558 26.704637 C 92.47158 26.146637 92.652724 25.543992 92.668724 24.918992 C 92.966724 19.754992 93.490408 14.606496 93.994408 9.4604955 C 92.217408 11.423496 90.533267 13.469269 88.750267 15.428269 C 88.432267 15.807269 88.00938 16.174472 88.01638 16.711472 C 87.74238 19.359472 87.455083 22.004785 87.237083 24.656785 C 87.926083 24.208785 88.155376 23.171738 89.037376 23.033738 C 88.349376 25.695738 87.279958 28.262254 86.158958 30.762254 C 85.774958 29.891254 85.408353 29.010394 85.038353 28.131394 C 85.613353 27.164394 85.491853 26.009176 85.600853 24.932176 C 85.722853 22.857176 85.935462 20.789379 86.075462 18.715379 C 84.992462 20.016379 83.934642 21.346558 82.984642 22.749558 C 83.734642 22.519558 84.45529 22.157562 85.24929 22.103562 C 83.70229 24.107562 81.479439 25.519789 79.451439 27.010789 C 79.431439 26.179789 79.357029 25.349555 79.406029 24.520555 C 81.407029 21.982555 83.039314 19.117863 85.123314 16.611863 C 85.550314 15.967863 86.219251 15.453566 86.459251 14.707566 C 87.178251 7.318566 88.068732 -0.080043938 88.001732 -7.5170439 C 88.108732 -8.2070439 87.345986 -8.4530908 86.886986 -8.7650908 C 85.157986 -9.7640908 82.865681 -10.350942 81.024681 -9.3129424 C 79.326681 -8.2149424 79.275751 -5.9268173 78.021751 -4.4848173 C 77.547751 -3.8828173 76.678509 -4.0696571 76.073509 -4.3456571 C 73.719509 -5.4746571 72.116513 -7.7575245 71.302513 -10.184524 C 70.729513 -11.673524 70.35811 -13.329208 69.21511 -14.510208 C 68.67511 -15.070208 67.85772 -15.566236 67.06472 -15.238236 C 65.96572 -14.824236 65.365216 -13.729099 64.898216 -12.723099 C 67.598216 -10.263099 68.987349 -6.6424696 69.559349 -3.1034696 C 70.500349 2.8055304 69.697407 8.7881715 69.244407 14.703171 C 68.984407 18.344171 68.537524 21.969004 68.239524 25.606004 C 68.842524 25.121004 69.198231 24.400828 69.814231 23.925828 C 70.135231 24.180828 69.887161 24.596738 69.817161 24.908738 C 69.049161 27.224738 68.137696 29.494234 67.190696 31.742234 z M 74.93679 31.55327 C 74.55479 30.68427 74.198579 29.802664 73.820579 28.932664 C 74.174579 28.277664 74.291232 27.537316 74.314232 26.801316 C 74.785232 18.162316 76.146806 9.5742727 76.102806 0.90727268 C 76.134806 0.031272679 75.909091 -0.87984067 76.195091 -1.7338407 C 77.953091 1.5531593 77.631564 5.4790307 77.529564 9.0840307 C 77.215564 14.553031 76.450239 19.985406 76.022239 25.443406 C 76.646239 24.941406 77.013654 24.189355 77.671654 23.716355 C 77.867654 24.423355 77.436032 25.091418 77.260032 25.755418 C 76.529032 27.702418 75.84979 29.68327 74.93679 31.55327 z M 54.026145 31.258836 C 53.181145 30.409836 52.801071 29.208168 52.425071 28.099168 C 52.220071 27.287168 52.060376 25.970398 53.037376 25.610398 C 53.962376 25.738398 54.30009 26.833023 54.44509 27.626023 C 54.10009 27.302023 53.513153 26.556121 53.109153 27.226121 C 52.522153 28.651121 53.721145 29.923836 54.026145 31.258836 z M 31.158469 30.961473 C 31.132469 30.429473 31.115594 29.893934 31.111594 29.358934 C 32.208594 28.567934 33.196934 27.560566 33.784934 26.332566 C 34.377934 25.035566 33.96052 23.610511 34.01052 22.251511 C 35.76252 25.316511 34.048469 29.254473 31.158469 30.961473 z M 7.5949916 30.807664 C 6.7449916 29.854664 6.2508783 28.58073 6.0788783 27.32573 C 6.0188783 26.78173 6.1883471 25.804242 6.9343471 25.950242 C 7.5573471 26.268242 7.9038901 26.999687 7.8908901 27.681687 C 7.5988901 27.343687 7.0836361 26.686281 6.7556361 27.365281 C 6.3286361 28.588281 7.3409916 29.664664 7.5949916 30.807664 z M -7.4006142 30.199754 C -7.7946142 29.326754 -8.15329 28.439781 -8.51829 27.552781 C -7.96929 26.647781 -8.0595088 25.561851 -7.9675088 24.549851 C -7.6595088 19.492851 -7.0797275 14.458691 -6.6667275 9.4106909 C -8.7747275 9.7366909 -9.8037197 11.970832 -9.8337197 13.904832 C -10.06172 16.744832 -8.8317197 19.486035 -9.0837197 22.313035 C -9.2737197 23.048035 -9.9717354 22.189992 -10.249735 21.918992 C -13.053735 18.616992 -13.069411 14.051785 -13.992411 10.031785 C -14.264411 8.9177846 -15.366681 7.2809799 -16.668681 8.1069799 C -18.691681 9.9469799 -18.695661 12.986019 -18.773661 15.522019 C -18.897661 16.379019 -18.397697 17.435808 -18.959697 18.155808 C -19.766697 15.975808 -19.675794 13.570128 -19.309794 11.309128 C -18.960794 9.3401284 -18.25831 7.2159017 -16.53831 6.0269017 C -15.62831 5.3949017 -14.527696 6.0745697 -14.084696 6.9365697 C -12.462696 9.7595697 -12.517665 13.121636 -11.752665 16.204636 C -11.466665 17.146636 -11.184403 18.183679 -10.409403 18.848679 C -10.679403 15.677679 -11.793845 12.346374 -10.536845 9.2363744 C -9.9168448 7.5163744 -8.1774345 6.3778588 -6.3664345 6.3828588 C -6.0044345 1.9708588 -5.8207978 -2.4582314 -5.9137978 -6.8842314 C -5.3007978 -6.5262314 -5.239454 -5.7383486 -5.011454 -5.1293486 C -4.002454 -1.2103486 -4.4078056 2.8825814 -4.6218056 6.8735814 C -2.2558056 8.2005814 -1.2275906 10.905011 -0.77659061 13.439011 C -0.49259061 11.732011 0.15236647 10.010964 1.4543665 8.8159643 C 3.0483665 7.2939643 5.9461362 7.3762729 7.3181362 9.1572729 C 8.3501362 10.569273 8.5682221 12.416699 8.4812221 14.118699 C 8.2152221 17.146699 6.6170228 19.817754 5.8020228 22.699754 C 6.2480228 22.481754 6.6920736 22.253547 7.1540736 22.062547 C 6.4300736 23.526547 5.5896244 25.038578 4.5686244 26.269578 C 4.0746244 25.675578 3.9266439 24.611219 3.5886439 23.826219 C 4.3026439 23.121219 4.1760267 22.053879 4.4060267 21.152879 C 4.9690267 17.923879 6.6685502 15.047136 7.4675502 11.892136 C 6.5765502 10.623136 4.6074056 10.425624 3.2444056 11.017624 C 1.2964056 11.866624 0.62638598 14.149773 0.47438598 16.094773 C 0.28938598 19.115773 -0.28335234 22.109164 -1.1823523 24.995164 C -1.3633523 25.487164 -1.4742117 26.070371 -1.9382117 26.382371 C -2.2142117 25.351371 -2.7790086 24.378242 -2.9050086 23.325242 C -2.1200086 20.337242 -1.3443719 17.249812 -1.7023719 14.134812 C -1.8983719 12.250812 -3.0812509 10.441476 -4.8532509 9.690476 C -5.3592509 14.492476 -5.9203759 19.289609 -6.3063759 24.101609 C -5.6653759 23.596609 -5.361536 22.731574 -4.570536 22.415574 C -5.125536 25.115574 -6.3096142 27.678754 -7.4006142 30.199754 z M 2.6277063 29.631394 C 2.1057063 28.894394 2.647304 28.063898 2.790304 27.297898 C 1.395304 27.068898 1.8291165 28.788211 1.5481165 29.618211 C 0.96411648 29.224211 1.3702766 28.493246 1.3122766 27.929246 C 1.4262766 27.348246 0.72822191 26.834965 0.23122191 27.190965 C 0.045221912 27.859965 0.20163988 28.56607 0.10963988 29.24907 C -0.49736012 28.62207 -0.17656716 27.582992 -0.15256716 26.793992 C 0.31943284 25.947992 1.2045344 26.61925 1.4265344 27.28325 C 1.6395344 26.81725 2.2297376 26.287301 2.7097376 26.760301 C 3.4687376 27.579301 2.8597063 28.723394 2.6277063 29.631394 z M 64.230247 28.898973 C 62.967247 27.405973 61.836059 25.082023 62.613059 23.126023 C 63.686059 22.123023 64.645052 24.058558 64.655052 24.999558 C 64.294052 24.617558 63.667575 23.795992 63.216575 24.543992 C 62.584575 26.068992 63.854247 27.477973 64.230247 28.898973 z M 18.401144 28.567918 C 18.286654 28.563268 18.166383 28.533453 18.042258 28.472703 C 17.040258 27.501703 17.183328 25.952687 16.914328 24.681687 C 16.442328 25.890687 16.061097 27.322687 14.903097 28.056687 C 14.067097 28.467687 13.910328 27.335695 13.914328 26.764695 C 14.440328 26.472695 14.932418 26.051652 15.556418 25.995652 C 16.108418 25.068652 16.425 24.035738 16.803 23.033738 C 17.523 24.339738 17.222375 25.934644 17.787375 27.287644 C 18.243375 27.910644 18.769453 27.035609 19.117453 26.726609 C 19.710703 27.387234 19.202576 28.600471 18.401144 28.567918 z M -13.665751 28.348191 C -14.065751 27.661191 -13.861392 26.816656 -14.222392 26.099656 C -14.469392 25.397656 -13.894724 24.965859 -13.312724 24.757859 C -13.240724 24.731859 -13.167392 24.709476 -13.097392 24.690476 C -13.167392 24.612476 -13.240724 24.536496 -13.312724 24.460496 C -15.978724 21.643496 -19.555001 19.901968 -22.572001 17.544968 C -19.210001 19.086968 -15.688724 20.873273 -13.312724 23.782273 C -13.089724 24.055273 -12.874587 24.339347 -12.672587 24.633347 C -12.386587 24.601347 -12.00645 24.429238 -11.65745 24.346238 C -11.24545 24.247238 -10.876501 24.270621 -10.759501 24.788621 C -10.491501 25.748621 -10.95945 26.512258 -11.65745 27.116258 C -12.15345 27.544258 -12.764724 27.89341 -13.312724 28.17241 C -13.434724 28.23441 -13.552751 28.293191 -13.665751 28.348191 z M 22.278586 28.150437 C 22.472586 28.166437 22.660957 28.106176 22.783957 27.932176 C 23.133957 27.387176 23.048277 26.704937 23.062277 26.087937 C 22.808277 26.254937 22.534586 26.411914 22.278586 26.588914 C 21.977586 26.796914 21.701148 27.033703 21.505148 27.347703 C 21.427148 27.735703 21.867586 28.116437 22.278586 28.150437 z M 101.15163 26.949266 C 100.65563 26.162266 100.25037 25.323371 99.808373 24.507371 C 100.03637 24.083371 100.23085 23.630742 100.22585 23.137742 C 100.71185 14.099742 101.7829 5.0834132 101.7449 -3.9735868 C 101.6169 -6.8505868 99.592228 -9.2067784 97.460228 -10.944778 C 94.602228 -13.208778 91.280814 -14.801497 87.935814 -16.206497 C 87.697814 -16.300497 87.509833 -16.470021 87.330833 -16.643021 C 91.100833 -15.738021 95.29842 -15.392485 98.43142 -12.894485 C 101.75642 -9.6394855 102.92684 -4.8194774 103.18484 -0.31147735 C 103.52284 6.8455226 102.56598 13.975609 102.05398 21.101609 C 102.57898 20.579609 102.96178 19.934828 103.49978 19.425828 C 103.28578 22.058828 102.08263 24.503266 101.15163 26.949266 z M -13.312724 26.733933 C -12.880724 26.712933 -12.479571 26.185437 -12.631571 25.525437 C -12.862571 25.586437 -13.090724 25.659629 -13.312724 25.746629 C -13.559724 25.843629 -13.798568 25.958262 -14.027568 26.095262 C -13.862568 26.564262 -13.582724 26.746933 -13.312724 26.733933 z M -12.200907 26.558152 C -12.016907 26.418152 -11.83145 26.274699 -11.65745 26.118699 C -11.34745 25.839699 -11.078282 25.521281 -10.935282 25.115281 C -11.177282 25.164281 -11.41845 25.219344 -11.65745 25.279344 C -11.89845 25.339344 -12.139618 25.403308 -12.379618 25.468308 C -12.321618 25.832308 -12.260907 26.194152 -12.200907 26.558152 z M 98.529564 25.034715 C 97.700564 24.228715 97.333392 23.066488 96.953392 22.002488 C 96.717392 21.155488 96.535384 19.842347 97.495384 19.383347 C 98.456384 19.476347 98.818002 20.60548 98.928002 21.41948 C 98.592002 21.04148 97.953162 20.317199 97.567162 21.056199 C 97.095162 22.479199 98.201564 23.717715 98.529564 25.034715 z M 91.476341 24.809129 C 90.596341 24.004129 90.245603 22.78466 89.819603 21.70366 C 89.551603 20.75066 89.258267 19.347308 90.250267 18.718308 C 91.351267 18.650308 91.797935 20.01139 91.909935 20.90239 C 91.557935 20.56339 90.956615 19.714668 90.506615 20.411668 C 89.783615 21.928668 91.136341 23.372129 91.476341 24.809129 z M 72.645775 24.716844 C 71.492775 23.130844 70.296489 20.951261 71.053489 18.970261 C 72.054489 17.843261 73.178552 19.850711 73.092552 20.805711 C 72.749552 20.389711 72.068935 19.578019 71.659935 20.397019 C 71.053935 21.918019 72.397775 23.272844 72.645775 24.716844 z M 43.797141 23.906785 C 43.115141 23.317785 42.858192 22.406121 42.524192 21.601121 C 42.228192 20.744121 42.012688 19.474472 42.982688 18.961472 C 43.687688 19.328472 44.03 20.052922 44.178 20.796922 C 43.846 20.512922 43.28811 19.834277 42.96511 20.511277 C 42.52311 21.708277 43.519141 22.787785 43.797141 23.906785 z M 78.63845 22.093308 C 78.56845 21.531308 78.512993 20.963949 78.469993 20.399949 C 80.791993 18.014949 82.07229 14.56114 81.49929 11.24614 C 81.26129 9.6651401 80.183408 8.3201947 80.119408 6.7021947 C 80.087408 6.1781947 80.36379 5.5129915 80.93679 5.4189915 C 82.16379 5.2929915 83.408771 6.2184643 83.416771 7.5034643 C 83.728771 8.6204643 82.773954 9.4279643 81.929954 9.9409643 C 81.755954 9.5219643 81.580611 9.1045229 81.402611 8.6885229 C 81.921611 8.3345229 82.475201 7.9934916 82.857201 7.4814916 C 82.671201 6.7044916 80.754697 6.1510775 80.690697 7.3320775 C 80.852697 8.3950775 81.459216 9.3295854 81.773216 10.352585 C 83.019216 14.478585 81.64845 19.074308 78.63845 22.093308 z M 24.653098 21.647996 C 23.816098 20.754996 23.350281 19.52859 23.166281 18.33159 C 23.092281 17.76559 23.214805 16.79266 23.977805 16.82866 C 24.649805 17.13066 24.903308 17.901824 25.019308 18.571824 C 24.773308 18.347824 24.53514 18.113882 24.29714 17.881882 C 22.92614 18.818882 24.375098 20.478996 24.653098 21.647996 z M 34.678488 21.5645 C 34.138488 20.7395 34.789465 19.759879 34.429465 18.902879 C 34.223465 18.358879 33.258121 18.271711 33.152121 18.930711 C 33.128121 19.610711 33.199219 20.290843 33.127219 20.966843 C 32.512219 20.744843 32.806613 20.007043 32.756613 19.521043 C 32.788613 18.919043 32.528574 18.068863 33.216574 17.736863 C 33.936574 17.410863 34.437586 18.160816 34.653586 18.738816 C 34.926586 18.246816 35.495387 17.561972 36.099387 18.023972 C 37.108387 18.922972 36.406852 20.352086 36.100852 21.415086 C 35.420852 20.574086 36.23152 19.6108 36.26052 18.6978 C 34.51552 18.5458 35.311488 20.6275 34.678488 21.5645 z M 64.369407 19.159226 C 63.616407 18.374226 64.536391 17.230742 63.953391 16.387742 C 63.677391 15.961742 62.863403 15.961972 62.765403 16.523972 C 62.739403 17.196972 62.808755 17.870992 62.750755 18.543992 C 62.168755 18.433992 62.383641 17.739847 62.359641 17.320847 C 62.429641 16.664847 62.051829 15.685097 62.851829 15.352097 C 63.550829 15.014097 64.020009 15.798078 64.261009 16.332078 C 64.553009 15.784078 65.215138 15.150379 65.818138 15.715379 C 66.659138 16.696379 66.022286 18.056168 65.645286 19.099168 C 65.101286 18.185168 65.786477 17.250964 65.866477 16.315964 C 64.182477 16.149964 64.837407 18.180226 64.369407 19.159226 z M -15.641825 17.867234 C -16.370825 17.184234 -16.68613 16.181277 -17.00413 15.261277 C -17.18913 14.532277 -17.353532 13.355785 -16.466532 13.031785 C -15.663532 13.203785 -15.437388 14.100343 -15.243388 14.779343 C -15.523388 14.560343 -15.792236 14.329656 -16.062236 14.099656 C -17.279236 15.157656 -15.929825 16.678234 -15.641825 17.867234 z M 4.1145228 17.861375 C 3.0995228 16.674375 2.1305892 14.786511 2.8825892 13.251511 C 3.7775892 12.606511 4.4138314 14.073851 4.4558314 14.799851 C 4.1598314 14.517851 3.6467884 13.824148 3.3117884 14.454148 C 2.8257884 15.649148 3.7985228 16.752375 4.1145228 17.861375 z M 52.297629 17.85405 C 51.364629 16.85005 50.880774 15.489617 50.520774 14.184617 C 50.344774 13.363617 50.274504 12.110722 51.219504 11.742722 C 52.259504 11.864722 52.631309 13.085214 52.769309 13.972214 C 52.387309 13.637214 51.83827 12.758519 51.35427 13.459519 C 50.62327 14.984519 51.990629 16.40805 52.297629 17.85405 z M 18.361593 15.814988 C 18.561593 15.391988 18.627476 14.927007 18.616476 14.460007 C 18.425476 14.569007 18.245484 14.691683 18.074484 14.827683 C 17.879484 14.980683 17.697562 15.151054 17.529562 15.333054 C 17.694562 15.476054 17.880484 15.588617 18.074484 15.684617 C 18.168484 15.731617 18.264593 15.774988 18.361593 15.814988 z M 99.288353 13.992722 C 98.135353 12.486722 96.952627 10.25216 97.943627 8.3911596 C 99.076627 8.0991596 99.623439 9.4701635 99.701439 10.370164 C 99.405439 10.098164 99.120392 9.8151323 98.828392 9.5381323 C 97.328392 10.766132 99.013353 12.578722 99.288353 13.992722 z M 73.221458 13.192918 C 72.278458 12.343918 71.902689 11.015144 71.482689 9.850144 C 71.241689 8.935144 71.038646 7.3828275 72.213646 7.0508275 C 73.150646 7.3548275 73.523728 8.4001088 73.647728 9.2891088 C 73.278728 8.9701088 72.729661 8.1196244 72.254661 8.7676244 C 71.518661 10.292624 72.829458 11.759918 73.221458 13.192918 z M 65.944114 12.502976 C 64.995114 11.255976 63.983802 9.4104213 64.748802 7.8594213 C 65.639802 7.2384213 66.260579 8.671183 66.320579 9.390183 C 66.012579 9.140183 65.507466 8.458058 65.179466 9.062058 C 64.657466 10.261058 65.700114 11.367976 65.944114 12.502976 z M 28.37966 12.388718 C 28.14866 11.366718 27.857664 10.350617 27.733664 9.3096166 C 29.407664 5.2076166 31.166371 1.0775929 31.933371 -3.3144071 C 32.195371 -4.2884071 31.405332 -5.0775009 30.893332 -5.8105009 C 28.715332 -8.4405009 26.154512 -10.764927 23.302512 -12.646927 C 22.304512 -13.279927 21.191797 -13.890236 20.019797 -14.113236 C 19.421797 -14.228236 18.807812 -14.240911 18.185812 -14.105911 C 17.441812 -13.962911 16.935754 -13.347196 16.625754 -12.698196 C 17.755754 -11.981196 18.895797 -11.265833 20.019797 -10.525833 C 22.402797 -8.9538331 24.71023 -7.2695204 26.68923 -5.2055204 C 28.01623 -3.8885204 28.041902 -1.8841609 28.077902 -0.13716094 C 28.017902 2.5468391 26.146898 4.6280892 24.973898 6.8940892 C 25.385898 6.8000892 25.797621 6.704558 26.214621 6.624558 C 25.333621 7.841558 24.260887 8.9111752 23.161887 9.9321752 C 22.961887 9.1181752 22.806515 8.293308 22.656515 7.468308 C 23.269515 6.892308 23.452473 6.0537337 23.762473 5.3047337 C 24.691473 2.9457337 26.333519 0.94256559 27.260519 -1.4174344 C 27.544519 -1.9614344 26.853508 -2.3217079 26.573508 -2.6977079 C 24.532508 -4.5787079 22.332797 -6.289126 20.019797 -7.826126 C 18.863797 -8.595126 17.68041 -9.320419 16.47341 -10.001419 C 16.78741 -8.186419 17.420449 -6.4283642 18.263449 -4.7953642 C 18.867449 -4.1533642 19.480797 -3.5158251 20.019797 -2.8178251 C 20.149797 -2.6498251 20.274797 -2.4782001 20.394797 -2.3022001 C 20.692797 -2.5802001 20.99114 -2.8608368 21.29714 -3.1298368 C 21.66914 -2.4678368 21.506394 -1.7723172 20.932394 -1.2973172 C 21.176394 -0.39431722 21.682902 1.1010735 20.577902 1.6030735 C 20.378902 1.5810735 20.191797 1.5206868 20.019797 1.4316868 C 19.379797 1.1006868 18.936879 0.3698039 18.828879 -0.3231961 C 18.726879 -1.1321961 19.463797 -1.6072469 20.019797 -2.0502469 L 20.104758 -2.1190946 L 20.019797 -2.2143094 C 18.493797 -3.9273094 16.736433 -5.4372822 14.847433 -6.7362822 C 15.540433 -5.6972822 16.394109 -4.7090048 16.715109 -3.4770048 C 16.869109 -2.8380048 16.703574 -1.970829 15.966574 -1.796829 C 15.122574 -1.714829 14.636906 -2.5253876 14.306906 -3.1693876 C 14.878906 -2.6753876 15.939859 -2.5883173 16.058859 -3.5473173 C 16.032859 -5.2773173 14.501738 -6.4344189 13.584738 -7.7514189 C 14.890738 -7.2404189 16.062578 -6.4593681 17.195578 -5.6493681 C 16.487578 -7.2083681 15.867941 -8.8227628 15.617941 -10.528763 C 11.159941 -13.245763 6.3274446 -15.279267 1.6594446 -17.570267 C 4.9144446 -16.985267 8.1422613 -16.176247 11.396261 -15.550247 C 12.842261 -14.927247 14.193136 -14.08529 15.568136 -13.31929 C 15.734136 -14.84229 16.357422 -16.555462 17.910422 -17.145462 C 18.615422 -17.375462 19.324797 -17.382001 20.019797 -17.248001 C 21.177797 -17.026001 22.294004 -16.417243 23.282004 -15.821243 C 26.223004 -13.904243 28.796801 -11.443216 30.998801 -8.7182158 C 31.903801 -7.6792158 32.087785 -6.295415 32.457785 -5.022415 C 32.757785 -7.680415 33.481832 -10.384653 35.205832 -12.491653 C 36.545832 -14.174653 38.38559 -15.315548 40.38259 -16.058548 C 41.46259 -16.460548 42.589785 -16.747384 43.707785 -16.940384 C 43.737785 -15.902384 43.741391 -14.860732 43.703391 -13.821732 C 42.598391 -13.332732 41.43359 -12.884067 40.38259 -12.266067 C 39.73659 -11.887067 39.132524 -11.443185 38.614524 -10.886185 C 39.111524 -10.285185 39.71959 -9.826708 40.38259 -9.447708 C 41.38159 -8.877708 42.506696 -8.4900791 43.565696 -8.0780791 C 44.978696 -7.6130791 46.400461 -7.1664228 47.825461 -6.7304228 C 50.993461 -5.7594228 54.177368 -4.8369345 57.329368 -3.8549345 C 57.733368 -2.9099345 57.98729 -1.9065281 58.24929 -0.91352815 C 54.77929 -1.1665281 51.303461 -1.2655555 47.825461 -1.2665555 C 45.344461 -1.2675555 42.86259 -1.2190438 40.38259 -1.1420438 L 39.244406 -1.1054227 C 39.618406 -0.81742268 39.99859 -0.53134844 40.38259 -0.25434844 C 42.48659 1.2646516 44.744254 2.599679 47.188254 3.473679 C 47.457254 3.314679 47.630461 3.0206516 47.825461 2.7456516 C 47.941461 2.5816516 48.064969 2.4237337 48.220969 2.3047337 C 48.314969 2.8107337 48.27511 3.3250306 48.21511 3.8340306 C 49.58611 4.2610306 50.97452 4.6377611 52.38552 4.9077611 C 52.59152 5.9347611 53.153434 6.996765 53.097434 8.011765 C 51.563434 9.373765 49.872461 10.889863 47.825461 11.361863 C 47.683461 11.394863 47.539332 11.420894 47.393332 11.443894 C 44.736332 11.152894 43.926239 7.3988431 45.647239 5.5918431 C 43.807239 4.7818431 42.05459 3.7941985 40.38259 2.6811985 C 38.80259 1.6321985 37.292899 0.47067498 35.848899 -0.75532502 C 34.835899 -1.486325 34.72152 -2.8241063 34.38552 -3.9311063 C 34.43952 -4.2301063 34.182223 -4.2675712 33.981223 -4.3075712 C 33.525223 1.5954288 31.72266 7.4787183 28.37966 12.388718 z M 41.104758 12.338914 C 38.564758 11.067914 36.072477 9.6980424 33.616477 8.2710424 C 32.965477 7.9950424 32.809879 7.2921088 32.703879 6.6641088 C 35.253879 8.1851088 37.859016 9.6148784 40.469016 11.027878 C 40.993016 11.239878 40.984758 11.872914 41.104758 12.338914 z M 47.046164 8.4951635 C 47.305782 8.4857065 47.567461 8.4259408 47.825461 8.3325658 C 48.563461 8.0665658 49.278313 7.5249564 49.873313 7.1079564 C 49.187313 6.9039564 48.506461 6.6892142 47.825461 6.4722142 L 47.040305 6.2231908 C 46.632305 6.8401908 46.15561 7.4089916 45.77761 8.0439916 C 46.18511 8.3871166 46.613469 8.5109252 47.046164 8.4951635 z M 37.943625 8.002976 C 37.088625 7.231976 37.961063 6.0744876 37.592063 5.1274876 C 37.484063 4.4104876 36.24316 4.1935384 36.06716 4.9795384 C 35.97716 5.7915384 36.203692 6.6246869 35.961692 7.4316869 C 35.190692 6.5926869 35.775086 5.342429 35.591086 4.317429 C 35.969086 2.954429 37.61086 3.69639 37.80886 4.77739 C 38.10586 4.12739 38.961223 3.3753782 39.606223 4.0903782 C 40.611223 5.2373782 39.7165 6.7200033 39.4905 7.9810033 C 38.7355 7.0060033 39.479973 5.8726322 39.699973 4.8506322 C 37.759973 4.3676322 38.401625 6.917976 37.943625 8.002976 z M 56.37429 6.8047338 C 55.36729 5.7837338 54.885446 4.3036165 54.534446 2.9346165 C 54.414446 2.1636165 54.385985 0.84626486 55.386985 0.69926486 C 56.345985 0.95126486 56.708137 2.0638704 56.818137 2.9448704 C 56.492137 2.6738704 56.273833 2.1988391 55.830833 2.1128391 C 55.326833 2.2388391 55.16788 2.8511516 55.20388 3.3081516 C 55.21588 4.5791516 56.06529 5.6107338 56.37429 6.8047338 z M -7.7184853 5.6548314 C -11.459485 4.2478314 -15.015415 2.3973469 -18.596415 0.63334689 C -19.437415 0.31134689 -19.734935 -0.58372738 -20.053935 -1.3427274 C -16.179935 0.75727262 -12.187587 2.6208275 -8.1725869 4.4258275 C -8.0155869 4.8348275 -7.8634853 5.2448314 -7.7184853 5.6548314 z M 92.506127 5.0161595 C 91.379127 3.6031595 90.304818 1.5082414 91.039818 -0.2997586 C 92.026818 -1.2587586 92.932748 0.57301097 92.917748 1.439011 C 92.657748 1.191011 92.414002 0.92871408 92.178002 0.65971408 C 91.851002 0.75571408 91.500736 0.93982347 91.480736 1.3218235 C 91.220736 2.6718235 92.214127 3.7711595 92.506127 5.0161595 z M 86.514915 4.4214329 C 84.224915 3.3264329 81.943786 2.2016281 79.707786 0.99662815 C 79.026786 0.67662815 78.766841 -0.066957831 78.538841 -0.72895783 C 80.928841 0.53904217 83.342126 1.7580266 85.756126 2.9800266 C 86.334126 3.2070266 86.311915 3.9294329 86.514915 4.4214329 z M -0.46018436 4.2925267 C -0.30368436 4.3009017 -0.14972341 4.285511 -0.00022340626 4.251511 C 0.64177659 4.104511 1.2097805 3.6055657 1.6037805 3.0825657 C 1.0917805 2.9805657 0.54077659 2.8746985 -0.00022340626 2.8686985 C -0.48122341 2.8636985 -0.95450078 2.9385266 -1.3845008 3.1675266 C -1.9265008 3.4915266 -1.3462586 4.0899173 -0.93625859 4.1929173 C -0.77575859 4.2524173 -0.61668436 4.2841517 -0.46018436 4.2925267 z M 7.7004604 3.4150852 C 7.8304604 2.5570852 7.8619604 1.5365852 8.6379604 0.97758518 C 9.5169604 0.11358518 10.85055 0.12340939 11.96755 0.42240939 C 11.93755 -0.85359061 12.172421 -2.1872704 11.910421 -3.4242704 C 9.1824214 -6.3972704 5.8342962 -8.7844112 2.2072962 -10.543411 C 1.4952962 -10.880411 0.75677659 -11.186896 -0.00022340626 -11.439896 C -2.2902234 -12.211896 -4.7437158 -12.527646 -7.1047158 -11.908646 C -4.7097158 -10.458646 -2.2562234 -9.0396299 -0.00022340626 -7.3676299 C 1.1817766 -6.4926299 2.308015 -5.5476064 3.344015 -4.4936064 C 4.849015 -3.0306064 4.8891127 -0.75822341 4.8191127 1.1987766 C 5.8441127 1.8497766 6.7254604 2.6940852 7.7004604 3.4150852 z M 20.019797 0.55863986 C 20.177797 0.55463986 20.331347 0.49674532 20.434347 0.36674532 C 20.780347 -0.063254678 20.634804 -0.63611409 20.602804 -1.1391141 C 20.408804 -0.99411409 20.208797 -0.85073127 20.019797 -0.69673127 C 19.783797 -0.50473127 19.563519 -0.29580547 19.385519 -0.04780547 C 19.318519 0.31919453 19.679797 0.56663986 20.019797 0.55863986 z M 73.696067 -0.22065704 C 72.433878 -0.22729449 70.780216 -1.9914305 72.374778 -2.8720243 C 71.869778 -3.1260243 71.566153 -3.5875087 71.484153 -4.1435087 C 72.699153 -3.2655087 74.761392 -3.1983836 75.203392 -1.5653836 C 74.338392 -2.0413836 72.991454 -2.5926063 72.367454 -1.4936063 C 72.721454 -0.98660629 73.452439 -0.98156332 73.826439 -1.4745633 C 74.072439 -1.1175633 74.373185 -0.45251641 73.816185 -0.22651641 C 73.776403 -0.22298516 73.736783 -0.22044293 73.696067 -0.22065704 z M -7.8473916 -0.2528836 C -8.8923916 -1.2968836 -9.4031807 -2.8138642 -9.7311807 -4.2328642 C -9.8391807 -4.9878642 -9.8472744 -6.2871845 -8.8522744 -6.3861845 C -7.9072744 -6.1421845 -7.5708408 -5.0590321 -7.4328408 -4.2050321 C -7.8408408 -4.4990321 -8.370415 -5.3661064 -8.846415 -4.6811064 C -9.523415 -3.1331064 -8.2503916 -1.6938836 -7.8473916 -0.2528836 z M 7.6140346 -0.40815704 C 6.6490346 -1.405157 6.1770228 -2.806536 5.8020228 -4.121536 C 5.6440228 -4.922536 5.5594174 -6.2629502 6.5564174 -6.5209502 C 7.5614174 -6.3829502 7.9421635 -5.1815009 8.0461635 -4.3105009 C 7.7681635 -4.5605009 7.5150502 -4.8402783 7.2800502 -5.1322783 C 6.8030502 -5.0962783 6.4412299 -4.7035399 6.4392299 -4.2255399 C 6.3192299 -2.8325399 7.3000346 -1.703157 7.6140346 -0.40815704 z M 85.323997 -1.383743 C 85.267031 -1.3847071 85.208529 -1.390161 85.148216 -1.402786 C 83.875216 -2.192786 84.250982 -3.9546181 83.782982 -5.1806181 C 83.372982 -3.9736181 82.933935 -2.5949735 81.784935 -1.8949735 C 81.036935 -1.4969735 80.739958 -2.6678954 80.908958 -3.1898954 C 81.372958 -3.5888954 81.938611 -3.8462782 82.527611 -4.0072782 C 83.019611 -4.9432782 83.36229 -5.9461064 83.74929 -6.9311064 C 84.44929 -5.5901064 84.127708 -3.9744657 84.752708 -2.6244657 C 85.212708 -2.0714657 85.703658 -2.9666727 86.025658 -3.2616727 C 86.635033 -2.6044852 86.178496 -1.3692813 85.323997 -1.383743 z M -15.83372 -1.5976102 C -16.74572 -2.3466102 -17.052997 -3.5666376 -17.592997 -4.5756376 C -18.239997 -6.2326376 -19.052482 -8.4435167 -17.739482 -9.9765167 C -16.084482 -10.655517 -15.218681 -8.2466142 -15.168681 -6.9516142 C -15.663681 -7.3006142 -15.837673 -8.0323369 -16.460673 -8.1923369 C -17.234673 -8.0743369 -17.488935 -7.1705127 -17.428935 -6.4975127 C -17.422935 -4.7205127 -16.20572 -3.2796102 -15.83372 -1.5976102 z M 40.38259 -4.1991728 C 42.48959 -4.2081728 44.598532 -4.2871337 46.697532 -4.2841337 C 44.557532 -5.0311337 42.26259 -5.5935283 40.38259 -6.9135283 C 40.19259 -7.0465283 40.006949 -7.189333 39.825949 -7.338333 C 38.614949 -8.343333 38.035774 -9.8898097 37.770774 -11.40181 C 35.383774 -9.9518097 34.633719 -7.0922704 34.064719 -4.5492704 C 36.157719 -4.2562704 38.26859 -4.1921728 40.38259 -4.1991728 z M 92.676048 -5.7431181 C 91.427858 -5.7877348 89.992572 -7.4803994 91.430931 -8.3505401 C 90.966931 -8.6385401 90.678744 -9.0949541 90.563744 -9.6249541 C 91.696744 -9.1089541 92.78749 -8.5049072 93.92849 -8.0019072 C 94.04049 -7.6739072 94.153404 -7.3479267 94.265404 -7.0219267 C 93.395404 -7.6259267 92.08024 -8.0266416 91.39724 -6.9296416 C 91.88224 -6.5906416 92.476423 -6.4147549 92.910423 -6.9457549 C 93.120423 -6.6097549 93.405826 -6.1901064 93.122826 -5.8061064 C 92.980857 -5.7573251 92.829335 -5.7376389 92.676048 -5.7431181 z M 54.650169 -6.7245634 C 53.579497 -6.7065166 52.543477 -7.4434971 52.366477 -8.6127471 C 53.058477 -8.3207471 54.192567 -7.7765401 54.758567 -8.3505401 C 54.221567 -9.5805401 52.69111 -10.646544 53.09011 -12.204544 C 53.42011 -13.341544 54.880309 -13.09595 55.769309 -12.89595 C 57.284309 -12.65395 58.308192 -11.440665 59.024192 -10.178665 C 57.589192 -10.801665 56.173727 -11.844634 54.522727 -11.596634 C 54.154727 -11.588634 53.630282 -11.220521 53.916282 -10.830521 C 54.615282 -9.6325206 55.895926 -8.5198135 55.701926 -7.0058135 C 55.367676 -6.8203135 55.007059 -6.7305791 54.650169 -6.7245634 z M 49.634543 -8.1703643 C 49.136543 -8.3163643 48.999637 -8.8710674 48.755637 -9.2660674 C 47.870637 -11.041067 46.889934 -12.994087 47.284934 -15.036087 C 47.396934 -15.699087 48.018243 -16.445915 48.751243 -16.084915 C 49.735243 -15.468915 50.160594 -14.251579 50.236594 -13.140579 C 49.886594 -13.466579 49.644743 -13.884493 49.313743 -14.227493 C 48.711743 -14.525493 48.209192 -13.836642 48.149192 -13.304642 C 47.903192 -11.439642 49.140543 -9.8773643 49.634543 -8.1703643 z M 76.486595 -9.0595244 C 75.581595 -10.384524 74.822978 -11.895114 74.678978 -13.514114 C 74.630978 -14.171114 74.796689 -15.142263 75.607689 -15.216263 C 76.553689 -14.951263 76.893122 -13.880603 77.027122 -13.014603 C 76.620122 -13.312603 76.087943 -14.211931 75.617943 -13.500931 C 74.820943 -11.955931 76.391595 -10.543524 76.486595 -9.0595244 z M 94.479271 -9.6952666 C 90.706271 -11.137267 87.105943 -12.990134 83.492943 -14.784134 C 82.699943 -15.106134 82.468076 -15.990685 82.154076 -16.698685 C 85.949076 -14.650685 89.841795 -12.787571 93.790795 -11.057571 C 94.237795 -10.771571 94.273271 -10.148267 94.479271 -9.6952666 z M 31.782492 -10.266556 C 30.747492 -11.241556 30.279 -12.748911 29.928 -14.105911 C 29.788 -14.894911 29.777145 -16.172771 30.776145 -16.361771 C 31.729145 -16.111771 32.095438 -15.012208 32.201438 -14.135208 C 31.821438 -14.542208 31.156594 -15.364392 30.736594 -14.523392 C 30.179594 -13.020392 31.387492 -11.655556 31.782492 -10.266556 z "
     transform="matrix(1.3333333,0,0,-1.3333333,30.096001,42.4304)" />
</svg>
